{
  "asset": {
    "copyright": "",
    "generator": "SharpGLTF 1.0.0",
    "version": "2.0"
  },
  "accessors": [
    {
      "name": "POSITION",
      "bufferView": 0,
      "componentType": 5126,
      "count": 1787,
      "max": [
        -3.5519688129425049,
        110.8594970703125,
        573.70892333984375
      ],
      "min": [
        -35.666824340820313,
        74.248489379882813,
        535.4752197265625
      ],
      "type": "VEC3"
    },
    {
      "name": "NORMAL",
      "bufferView": 0,
      "byteOffset": 12,
      "componentType": 5126,
      "count": 1787,
      "max": [
        0.99999219179153442,
        0.99998480081558228,
        0.99999183416366577
      ],
      "min": [
        -0.99817878007888794,
        -1,
        -0.99999254941940308
      ],
      "type": "VEC3"
    },
    {
      "name": "TEXCOORD_0",
      "bufferView": 0,
      "byteOffset": 24,
      "componentType": 5126,
      "count": 1787,
      "max": [
        0.998046875,
        0.9990234375
      ],
      "min": [
        0.001953125,
        0.0009765625
      ],
      "type": "VEC2"
    },
    {
      "bufferView": 1,
      "componentType": 5123,
      "count": 4653,
      "type": "SCALAR"
    },
    {
      "name": "POSITION",
      "bufferView": 0,
      "byteOffset": 57184,
      "componentType": 5126,
      "count": 1183,
      "max": [
        -3.0887737274169922,
        110.70677947998047,
        573.708984375
      ],
      "min": [
        -35.666824340820313,
        74.248451232910156,
        535.4775390625
      ],
      "type": "VEC3"
    },
    {
      "name": "NORMAL",
      "bufferView": 0,
      "byteOffset": 57196,
      "componentType": 5126,
      "count": 1183,
      "max": [
        0.99999219179153442,
        0.99998480081558228,
        0.99999183416366577
      ],
      "min": [
        -0.99931693077087402,
        -0.46912425756454468,
        -0.99999254941940308
      ],
      "type": "VEC3"
    },
    {
      "name": "TEXCOORD_0",
      "bufferView": 0,
      "byteOffset": 57208,
      "componentType": 5126,
      "count": 1183,
      "max": [
        0.998046875,
        0.998046875
      ],
      "min": [
        0.001953125,
        0.197265625
      ],
      "type": "VEC2"
    },
    {
      "bufferView": 1,
      "byteOffset": 9306,
      "componentType": 5123,
      "count": 3246,
      "type": "SCALAR"
    }
  ],
  "bufferViews": [
    {
      "buffer": 0,
      "byteLength": 95040,
      "byteStride": 32,
      "target": 34962
    },
    {
      "buffer": 0,
      "byteLength": 15798,
      "byteOffset": 95040,
      "target": 34963
    }
  ],
  "buffers": [
    {
      "byteLength": 110840,
      "uri": "20525362525051727732_LOD00.bin"
    }
  ],
  "images": [
    {
      "uri": "20525362525051727732_LOD00_0.png"
    },
    {
      "uri": "20525362525051727732_LOD00_1.png"
    }
  ],
  "materials": [
    {
      "doubleSided": true,
      "pbrMetallicRoughness": {
        "baseColorTexture": {
          "index": 0
        },
        "metallicFactor": 0
      }
    },
    {
      "doubleSided": true,
      "pbrMetallicRoughness": {
        "baseColorTexture": {
          "index": 1
        },
        "metallicFactor": 0
      }
    }
  ],
  "meshes": [
    {
      "name": "20525362525051727732_0",
      "primitives": [
        {
          "attributes": {
            "POSITION": 0,
            "NORMAL": 1,
            "TEXCOORD_0": 2
          },
          "indices": 3,
          "material": 0
        }
      ]
    },
    {
      "name": "20525362525051727732_1",
      "primitives": [
        {
          "attributes": {
            "POSITION": 4,
            "NORMAL": 5,
            "TEXCOORD_0": 6
          },
          "indices": 7,
          "material": 1
        }
      ]
    }
  ],
  "nodes": [
    {
      "mesh": 0
    },
    {
      "mesh": 1
    }
  ],
  "scene": 0,
  "scenes": [
    {
      "nodes": [
        0,
        1
      ]
    }
  ],
  "textures": [
    {
      "source": 0
    },
    {
      "source": 1
    }
  ]
}