{
  "asset": {
    "copyright": "",
    "generator": "SharpGLTF 1.0.0",
    "version": "2.0"
  },
  "accessors": [
    {
      "name": "POSITION",
      "bufferView": 0,
      "componentType": 5126,
      "count": 4277,
      "max": [
        -806.0562744140625,
        60.024513244628906,
        229.80218505859375
      ],
      "min": [
        -838.1746826171875,
        43.493133544921875,
        191.41497802734375
      ],
      "type": "VEC3"
    },
    {
      "name": "NORMAL",
      "bufferView": 0,
      "byteOffset": 12,
      "componentType": 5126,
      "count": 4277,
      "max": [
        0.99999278783798218,
        0.99998509883880615,
        0.99816691875457764
      ],
      "min": [
        -0.99999183416366577,
        -0.99512338638305664,
        -0.99999237060546875
      ],
      "type": "VEC3"
    },
    {
      "name": "TEXCOORD_0",
      "bufferView": 0,
      "byteOffset": 24,
      "componentType": 5126,
      "count": 4277,
      "max": [
        0.998046875,
        0.9990234375
      ],
      "min": [
        0.001953125,
        0.0009765625
      ],
      "type": "VEC2"
    },
    {
      "bufferView": 1,
      "componentType": 5123,
      "count": 10557,
      "type": "SCALAR"
    },
    {
      "name": "POSITION",
      "bufferView": 0,
      "byteOffset": 136864,
      "componentType": 5126,
      "count": 2195,
      "max": [
        -809.14404296875,
        59.715568542480469,
        229.80210876464844
      ],
      "min": [
        -838.1748046875,
        43.494651794433594,
        191.56935119628906
      ],
      "type": "VEC3"
    },
    {
      "name": "NORMAL",
      "bufferView": 0,
      "byteOffset": 136876,
      "componentType": 5126,
      "count": 2195,
      "max": [
        0.99999278783798218,
        0.99998509883880615,
        0.99797570705413818
      ],
      "min": [
        -0.99999183416366577,
        -0.98788297176361084,
        -0.99914693832397461
      ],
      "type": "VEC3"
    },
    {
      "name": "TEXCOORD_0",
      "bufferView": 0,
      "byteOffset": 136888,
      "componentType": 5126,
      "count": 2195,
      "max": [
        0.998046875,
        0.998046875
      ],
      "min": [
        0.001953125,
        0.205078125
      ],
      "type": "VEC2"
    },
    {
      "bufferView": 1,
      "byteOffset": 21114,
      "componentType": 5123,
      "count": 5127,
      "type": "SCALAR"
    }
  ],
  "bufferViews": [
    {
      "buffer": 0,
      "byteLength": 207104,
      "byteStride": 32,
      "target": 34962
    },
    {
      "buffer": 0,
      "byteLength": 31368,
      "byteOffset": 207104,
      "target": 34963
    }
  ],
  "buffers": [
    {
      "byteLength": 238472,
      "uri": "20525362525140624375_LOD00.bin"
    }
  ],
  "images": [
    {
      "uri": "20525362525140624375_LOD00_0.png"
    },
    {
      "uri": "20525362525140624375_LOD00_1.png"
    }
  ],
  "materials": [
    {
      "doubleSided": true,
      "pbrMetallicRoughness": {
        "baseColorTexture": {
          "index": 0
        },
        "metallicFactor": 0
      }
    },
    {
      "doubleSided": true,
      "pbrMetallicRoughness": {
        "baseColorTexture": {
          "index": 1
        },
        "metallicFactor": 0
      }
    }
  ],
  "meshes": [
    {
      "name": "20525362525140624375_0",
      "primitives": [
        {
          "attributes": {
            "POSITION": 0,
            "NORMAL": 1,
            "TEXCOORD_0": 2
          },
          "indices": 3,
          "material": 0
        }
      ]
    },
    {
      "name": "20525362525140624375_1",
      "primitives": [
        {
          "attributes": {
            "POSITION": 4,
            "NORMAL": 5,
            "TEXCOORD_0": 6
          },
          "indices": 7,
          "material": 1
        }
      ]
    }
  ],
  "nodes": [
    {
      "mesh": 0
    },
    {
      "mesh": 1
    }
  ],
  "scene": 0,
  "scenes": [
    {
      "nodes": [
        0,
        1
      ]
    }
  ],
  "textures": [
    {
      "source": 0
    },
    {
      "source": 1
    }
  ]
}