{
  "asset": {
    "copyright": "",
    "generator": "SharpGLTF 1.0.0",
    "version": "2.0"
  },
  "accessors": [
    {
      "name": "POSITION",
      "bufferView": 0,
      "componentType": 5126,
      "count": 2527,
      "max": [
        -164.04922485351563,
        55.581878662109375,
        420.84530639648438
      ],
      "min": [
        -196.16502380371094,
        37.816394805908203,
        382.61337280273438
      ],
      "type": "VEC3"
    },
    {
      "name": "NORMAL",
      "bufferView": 0,
      "byteOffset": 12,
      "componentType": 5126,
      "count": 2527,
      "max": [
        0.99489426612854004,
        0.9999847412109375,
        0.9993169903755188
      ],
      "min": [
        -0.99898314476013184,
        -1,
        -0.9999924898147583
      ],
      "type": "VEC3"
    },
    {
      "name": "TEXCOORD_0",
      "bufferView": 0,
      "byteOffset": 24,
      "componentType": 5126,
      "count": 2527,
      "max": [
        0.998046875,
        0.9990234375
      ],
      "min": [
        0.001953125,
        0.0009765625
      ],
      "type": "VEC2"
    },
    {
      "bufferView": 1,
      "componentType": 5123,
      "count": 6393,
      "type": "SCALAR"
    },
    {
      "name": "POSITION",
      "bufferView": 0,
      "byteOffset": 80864,
      "componentType": 5126,
      "count": 1294,
      "max": [
        -164.04936218261719,
        53.419658660888672,
        420.84518432617188
      ],
      "min": [
        -196.16490173339844,
        38.435592651367188,
        382.61373901367188
      ],
      "type": "VEC3"
    },
    {
      "name": "NORMAL",
      "bufferView": 0,
      "byteOffset": 80876,
      "componentType": 5126,
      "count": 1294,
      "max": [
        0.99915623664855957,
        0.9999847412109375,
        0.9989783763885498
      ],
      "min": [
        -0.9963681697845459,
        -0.98322272300720215,
        -0.9999924898147583
      ],
      "type": "VEC3"
    },
    {
      "name": "TEXCOORD_0",
      "bufferView": 0,
      "byteOffset": 80888,
      "componentType": 5126,
      "count": 1294,
      "max": [
        0.998046875,
        0.998046875
      ],
      "min": [
        0.001953125,
        0.376953125
      ],
      "type": "VEC2"
    },
    {
      "bufferView": 1,
      "byteOffset": 12786,
      "componentType": 5123,
      "count": 3180,
      "type": "SCALAR"
    }
  ],
  "bufferViews": [
    {
      "buffer": 0,
      "byteLength": 122272,
      "byteStride": 32,
      "target": 34962
    },
    {
      "buffer": 0,
      "byteLength": 19146,
      "byteOffset": 122272,
      "target": 34963
    }
  ],
  "buffers": [
    {
      "byteLength": 141420,
      "uri": "20525362525051736077_LOD00.bin"
    }
  ],
  "images": [
    {
      "uri": "20525362525051736077_LOD00_0.png"
    },
    {
      "uri": "20525362525051736077_LOD00_1.png"
    }
  ],
  "materials": [
    {
      "doubleSided": true,
      "pbrMetallicRoughness": {
        "baseColorTexture": {
          "index": 0
        },
        "metallicFactor": 0
      }
    },
    {
      "doubleSided": true,
      "pbrMetallicRoughness": {
        "baseColorTexture": {
          "index": 1
        },
        "metallicFactor": 0
      }
    }
  ],
  "meshes": [
    {
      "name": "20525362525051736077_0",
      "primitives": [
        {
          "attributes": {
            "POSITION": 0,
            "NORMAL": 1,
            "TEXCOORD_0": 2
          },
          "indices": 3,
          "material": 0
        }
      ]
    },
    {
      "name": "20525362525051736077_1",
      "primitives": [
        {
          "attributes": {
            "POSITION": 4,
            "NORMAL": 5,
            "TEXCOORD_0": 6
          },
          "indices": 7,
          "material": 1
        }
      ]
    }
  ],
  "nodes": [
    {
      "mesh": 0
    },
    {
      "mesh": 1
    }
  ],
  "scene": 0,
  "scenes": [
    {
      "nodes": [
        0,
        1
      ]
    }
  ],
  "textures": [
    {
      "source": 0
    },
    {
      "source": 1
    }
  ]
}