{
  "asset": {
    "copyright": "",
    "generator": "SharpGLTF 1.0.0",
    "version": "2.0"
  },
  "accessors": [
    {
      "name": "POSITION",
      "bufferView": 0,
      "componentType": 5126,
      "count": 4227,
      "max": [
        -581.35992431640625,
        54.488212585449219,
        115.14080047607422
      ],
      "min": [
        -613.94146728515625,
        37.650882720947266,
        76.908416748046875
      ],
      "type": "VEC3"
    },
    {
      "name": "NORMAL",
      "bufferView": 0,
      "byteOffset": 12,
      "componentType": 5126,
      "count": 4227,
      "max": [
        0.99999254941940308,
        0.99998486042022705,
        0.99999219179153442
      ],
      "min": [
        -0.99999183416366577,
        -0.99641185998916626,
        -0.99931412935256958
      ],
      "type": "VEC3"
    },
    {
      "name": "TEXCOORD_0",
      "bufferView": 0,
      "byteOffset": 24,
      "componentType": 5126,
      "count": 4227,
      "max": [
        0.998046875,
        0.9990234375
      ],
      "min": [
        0.001953125,
        0.0009765625
      ],
      "type": "VEC2"
    },
    {
      "bufferView": 1,
      "componentType": 5123,
      "count": 10410,
      "type": "SCALAR"
    },
    {
      "name": "POSITION",
      "bufferView": 0,
      "byteOffset": 135264,
      "componentType": 5126,
      "count": 869,
      "max": [
        -581.35980224609375,
        54.333953857421875,
        115.29307556152344
      ],
      "min": [
        -613.47796630859375,
        37.804523468017578,
        76.7550048828125
      ],
      "type": "VEC3"
    },
    {
      "name": "NORMAL",
      "bufferView": 0,
      "byteOffset": 135276,
      "componentType": 5126,
      "count": 869,
      "max": [
        0.99999254941940308,
        0.99998486042022705,
        0.99999219179153442
      ],
      "min": [
        -0.99898028373718262,
        -0.99917256832122803,
        -0.99634164571762085
      ],
      "type": "VEC3"
    },
    {
      "name": "TEXCOORD_0",
      "bufferView": 0,
      "byteOffset": 135288,
      "componentType": 5126,
      "count": 869,
      "max": [
        0.998046875,
        0.998046875
      ],
      "min": [
        0.001953125,
        0.705078125
      ],
      "type": "VEC2"
    },
    {
      "bufferView": 1,
      "byteOffset": 20820,
      "componentType": 5123,
      "count": 2100,
      "type": "SCALAR"
    }
  ],
  "bufferViews": [
    {
      "buffer": 0,
      "byteLength": 163072,
      "byteStride": 32,
      "target": 34962
    },
    {
      "buffer": 0,
      "byteLength": 25020,
      "byteOffset": 163072,
      "target": 34963
    }
  ],
  "buffers": [
    {
      "byteLength": 188092,
      "uri": "20525362525140624066_LOD00.bin"
    }
  ],
  "images": [
    {
      "uri": "20525362525140624066_LOD00_0.png"
    },
    {
      "uri": "20525362525140624066_LOD00_1.png"
    }
  ],
  "materials": [
    {
      "doubleSided": true,
      "pbrMetallicRoughness": {
        "baseColorTexture": {
          "index": 0
        },
        "metallicFactor": 0
      }
    },
    {
      "doubleSided": true,
      "pbrMetallicRoughness": {
        "baseColorTexture": {
          "index": 1
        },
        "metallicFactor": 0
      }
    }
  ],
  "meshes": [
    {
      "name": "20525362525140624066_0",
      "primitives": [
        {
          "attributes": {
            "POSITION": 0,
            "NORMAL": 1,
            "TEXCOORD_0": 2
          },
          "indices": 3,
          "material": 0
        }
      ]
    },
    {
      "name": "20525362525140624066_1",
      "primitives": [
        {
          "attributes": {
            "POSITION": 4,
            "NORMAL": 5,
            "TEXCOORD_0": 6
          },
          "indices": 7,
          "material": 1
        }
      ]
    }
  ],
  "nodes": [
    {
      "mesh": 0
    },
    {
      "mesh": 1
    }
  ],
  "scene": 0,
  "scenes": [
    {
      "nodes": [
        0,
        1
      ]
    }
  ],
  "textures": [
    {
      "source": 0
    },
    {
      "source": 1
    }
  ]
}