{
  "asset": {
    "copyright": "",
    "generator": "SharpGLTF 1.0.0",
    "version": "2.0"
  },
  "accessors": [
    {
      "name": "POSITION",
      "bufferView": 0,
      "componentType": 5126,
      "count": 998,
      "max": [
        -327.32427978515625,
        147.13710021972656,
        611.93292236328125
      ],
      "min": [
        -356.66201782226563,
        110.21426391601563,
        573.39385986328125
      ],
      "type": "VEC3"
    },
    {
      "name": "NORMAL",
      "bufferView": 0,
      "byteOffset": 12,
      "componentType": 5126,
      "count": 998,
      "max": [
        0.99999237060546875,
        0.99998492002487183,
        0.99043220281600952
      ],
      "min": [
        -0.99999195337295532,
        -1,
        -0.99999260902404785
      ],
      "type": "VEC3"
    },
    {
      "name": "TEXCOORD_0",
      "bufferView": 0,
      "byteOffset": 24,
      "componentType": 5126,
      "count": 998,
      "max": [
        0.998046875,
        0.9990234375
      ],
      "min": [
        0.001953125,
        0.0009765625
      ],
      "type": "VEC2"
    },
    {
      "bufferView": 1,
      "componentType": 5123,
      "count": 2196,
      "type": "SCALAR"
    },
    {
      "name": "POSITION",
      "bufferView": 0,
      "byteOffset": 31936,
      "componentType": 5126,
      "count": 120,
      "max": [
        -327.3233642578125,
        147.13639831542969,
        611.93109130859375
      ],
      "min": [
        -357.12521362304688,
        110.67845916748047,
        573.7021484375
      ],
      "type": "VEC3"
    },
    {
      "name": "NORMAL",
      "bufferView": 0,
      "byteOffset": 31948,
      "componentType": 5126,
      "count": 120,
      "max": [
        0.99999237060546875,
        0.99998492002487183,
        0.99487382173538208
      ],
      "min": [
        -0.94979685544967651,
        -0.99820470809936523,
        -0.70656555891036987
      ],
      "type": "VEC3"
    },
    {
      "name": "TEXCOORD_0",
      "bufferView": 0,
      "byteOffset": 31960,
      "componentType": 5126,
      "count": 120,
      "max": [
        0.998046875,
        0.998046875
      ],
      "min": [
        0.001953125,
        0.537109375
      ],
      "type": "VEC2"
    },
    {
      "bufferView": 1,
      "byteOffset": 4392,
      "componentType": 5123,
      "count": 282,
      "type": "SCALAR"
    }
  ],
  "bufferViews": [
    {
      "buffer": 0,
      "byteLength": 35776,
      "byteStride": 32,
      "target": 34962
    },
    {
      "buffer": 0,
      "byteLength": 4956,
      "byteOffset": 35776,
      "target": 34963
    }
  ],
  "buffers": [
    {
      "byteLength": 40732,
      "uri": "20525362525053515404_LOD00.bin"
    }
  ],
  "images": [
    {
      "uri": "20525362525053515404_LOD00_0.png"
    },
    {
      "uri": "20525362525053515404_LOD00_1.png"
    }
  ],
  "materials": [
    {
      "doubleSided": true,
      "pbrMetallicRoughness": {
        "baseColorTexture": {
          "index": 0
        },
        "metallicFactor": 0
      }
    },
    {
      "doubleSided": true,
      "pbrMetallicRoughness": {
        "baseColorTexture": {
          "index": 1
        },
        "metallicFactor": 0
      }
    }
  ],
  "meshes": [
    {
      "name": "20525362525053515404_0",
      "primitives": [
        {
          "attributes": {
            "POSITION": 0,
            "NORMAL": 1,
            "TEXCOORD_0": 2
          },
          "indices": 3,
          "material": 0
        }
      ]
    },
    {
      "name": "20525362525053515404_1",
      "primitives": [
        {
          "attributes": {
            "POSITION": 4,
            "NORMAL": 5,
            "TEXCOORD_0": 6
          },
          "indices": 7,
          "material": 1
        }
      ]
    }
  ],
  "nodes": [
    {
      "mesh": 0
    },
    {
      "mesh": 1
    }
  ],
  "scene": 0,
  "scenes": [
    {
      "nodes": [
        0,
        1
      ]
    }
  ],
  "textures": [
    {
      "source": 0
    },
    {
      "source": 1
    }
  ]
}