{
  "asset": {
    "copyright": "",
    "generator": "SharpGLTF 1.0.0",
    "version": "2.0"
  },
  "accessors": [
    {
      "name": "POSITION",
      "bufferView": 0,
      "componentType": 5126,
      "count": 261,
      "max": [
        -367.91778564453125,
        78.263961791992188,
        463.67608642578125
      ],
      "min": [
        -376.87326049804688,
        74.247055053710938,
        459.05105590820313
      ],
      "type": "VEC3"
    },
    {
      "name": "NORMAL",
      "bufferView": 0,
      "byteOffset": 12,
      "componentType": 5126,
      "count": 261,
      "max": [
        0.99817496538162231,
        0.9999849796295166,
        0.99999183416366577
      ],
      "min": [
        -0.99931895732879639,
        -0.63594567775726318,
        -0.99931204319000244
      ],
      "type": "VEC3"
    },
    {
      "name": "TEXCOORD_0",
      "bufferView": 0,
      "byteOffset": 24,
      "componentType": 5126,
      "count": 261,
      "max": [
        0.998046875,
        0.998046875
      ],
      "min": [
        0.001953125,
        0.865234375
      ],
      "type": "VEC2"
    },
    {
      "bufferView": 1,
      "componentType": 5123,
      "count": 723,
      "type": "SCALAR"
    }
  ],
  "bufferViews": [
    {
      "buffer": 0,
      "byteLength": 8352,
      "byteStride": 32,
      "target": 34962
    },
    {
      "buffer": 0,
      "byteLength": 1446,
      "byteOffset": 8352,
      "target": 34963
    }
  ],
  "buffers": [
    {
      "byteLength": 9800,
      "uri": "20525362525051737603_LOD00.bin"
    }
  ],
  "images": [
    {
      "uri": "20525362525051737603_LOD00.png"
    }
  ],
  "materials": [
    {
      "doubleSided": true,
      "pbrMetallicRoughness": {
        "baseColorTexture": {
          "index": 0
        },
        "metallicFactor": 0
      }
    }
  ],
  "meshes": [
    {
      "name": "20525362525051737603_0",
      "primitives": [
        {
          "attributes": {
            "POSITION": 0,
            "NORMAL": 1,
            "TEXCOORD_0": 2
          },
          "indices": 3,
          "material": 0
        }
      ]
    }
  ],
  "nodes": [
    {
      "mesh": 0
    }
  ],
  "scene": 0,
  "scenes": [
    {
      "nodes": [
        0
      ]
    }
  ],
  "textures": [
    {
      "source": 0
    }
  ]
}