{
  "asset": {
    "copyright": "",
    "generator": "SharpGLTF 1.0.0",
    "version": "2.0"
  },
  "accessors": [
    {
      "name": "POSITION",
      "bufferView": 0,
      "componentType": 5126,
      "count": 915,
      "max": [
        -356.64715576171875,
        78.881736755371094,
        459.52914428710938
      ],
      "min": [
        -382.89547729492188,
        74.092781066894531,
        436.251708984375
      ],
      "type": "VEC3"
    },
    {
      "name": "NORMAL",
      "bufferView": 0,
      "byteOffset": 12,
      "componentType": 5126,
      "count": 915,
      "max": [
        0.9999924898147583,
        0.99998486042022705,
        0.99914836883544922
      ],
      "min": [
        -0.99915671348571777,
        -0.98991113901138306,
        -0.99915188550949097
      ],
      "type": "VEC3"
    },
    {
      "name": "TEXCOORD_0",
      "bufferView": 0,
      "byteOffset": 24,
      "componentType": 5126,
      "count": 915,
      "max": [
        0.998046875,
        0.998046875
      ],
      "min": [
        0.001953125,
        0.701171875
      ],
      "type": "VEC2"
    },
    {
      "bufferView": 1,
      "componentType": 5123,
      "count": 2247,
      "type": "SCALAR"
    }
  ],
  "bufferViews": [
    {
      "buffer": 0,
      "byteLength": 29280,
      "byteStride": 32,
      "target": 34962
    },
    {
      "buffer": 0,
      "byteLength": 4494,
      "byteOffset": 29280,
      "target": 34963
    }
  ],
  "buffers": [
    {
      "byteLength": 33776,
      "uri": "20525362525051737601_LOD00.bin"
    }
  ],
  "images": [
    {
      "uri": "20525362525051737601_LOD00.png"
    }
  ],
  "materials": [
    {
      "doubleSided": true,
      "pbrMetallicRoughness": {
        "baseColorTexture": {
          "index": 0
        },
        "metallicFactor": 0
      }
    }
  ],
  "meshes": [
    {
      "name": "20525362525051737601_0",
      "primitives": [
        {
          "attributes": {
            "POSITION": 0,
            "NORMAL": 1,
            "TEXCOORD_0": 2
          },
          "indices": 3,
          "material": 0
        }
      ]
    }
  ],
  "nodes": [
    {
      "mesh": 0
    }
  ],
  "scene": 0,
  "scenes": [
    {
      "nodes": [
        0
      ]
    }
  ],
  "textures": [
    {
      "source": 0
    }
  ]
}