{
  "asset": {
    "copyright": "",
    "generator": "SharpGLTF 1.0.0",
    "version": "2.0"
  },
  "accessors": [
    {
      "name": "POSITION",
      "bufferView": 0,
      "componentType": 5126,
      "count": 4292,
      "max": [
        -549.25146484375,
        74.413063049316406,
        268.4619140625
      ],
      "min": [
        -581.831298828125,
        40.121822357177734,
        229.76655578613281
      ],
      "type": "VEC3"
    },
    {
      "name": "NORMAL",
      "bufferView": 0,
      "byteOffset": 12,
      "componentType": 5126,
      "count": 4292,
      "max": [
        0.99999260902404785,
        0.99998486042022705,
        0.99999207258224487
      ],
      "min": [
        -0.99931991100311279,
        -1,
        -0.99999237060546875
      ],
      "type": "VEC3"
    },
    {
      "name": "TEXCOORD_0",
      "bufferView": 0,
      "byteOffset": 24,
      "componentType": 5126,
      "count": 4292,
      "max": [
        0.998046875,
        0.9990234375
      ],
      "min": [
        0.001953125,
        0.0009765625
      ],
      "type": "VEC2"
    },
    {
      "bufferView": 1,
      "componentType": 5123,
      "count": 10584,
      "type": "SCALAR"
    },
    {
      "name": "POSITION",
      "bufferView": 0,
      "byteOffset": 137344,
      "componentType": 5126,
      "count": 846,
      "max": [
        -549.2513427734375,
        73.177108764648438,
        267.99984741210938
      ],
      "min": [
        -581.5234375,
        40.275516510009766,
        229.767822265625
      ],
      "type": "VEC3"
    },
    {
      "name": "NORMAL",
      "bufferView": 0,
      "byteOffset": 137356,
      "componentType": 5126,
      "count": 846,
      "max": [
        0.99999260902404785,
        0.99998486042022705,
        0.99931633472442627
      ],
      "min": [
        -0.9944189190864563,
        -0.99147439002990723,
        -0.99999237060546875
      ],
      "type": "VEC3"
    },
    {
      "name": "TEXCOORD_0",
      "bufferView": 0,
      "byteOffset": 137368,
      "componentType": 5126,
      "count": 846,
      "max": [
        0.998046875,
        0.998046875
      ],
      "min": [
        0.001953125,
        0.720703125
      ],
      "type": "VEC2"
    },
    {
      "bufferView": 1,
      "byteOffset": 21168,
      "componentType": 5123,
      "count": 1896,
      "type": "SCALAR"
    }
  ],
  "bufferViews": [
    {
      "buffer": 0,
      "byteLength": 164416,
      "byteStride": 32,
      "target": 34962
    },
    {
      "buffer": 0,
      "byteLength": 24960,
      "byteOffset": 164416,
      "target": 34963
    }
  ],
  "buffers": [
    {
      "byteLength": 189376,
      "uri": "20525362525051735377_LOD00.bin"
    }
  ],
  "images": [
    {
      "uri": "20525362525051735377_LOD00_0.png"
    },
    {
      "uri": "20525362525051735377_LOD00_1.png"
    }
  ],
  "materials": [
    {
      "doubleSided": true,
      "pbrMetallicRoughness": {
        "baseColorTexture": {
          "index": 0
        },
        "metallicFactor": 0
      }
    },
    {
      "doubleSided": true,
      "pbrMetallicRoughness": {
        "baseColorTexture": {
          "index": 1
        },
        "metallicFactor": 0
      }
    }
  ],
  "meshes": [
    {
      "name": "20525362525051735377_0",
      "primitives": [
        {
          "attributes": {
            "POSITION": 0,
            "NORMAL": 1,
            "TEXCOORD_0": 2
          },
          "indices": 3,
          "material": 0
        }
      ]
    },
    {
      "name": "20525362525051735377_1",
      "primitives": [
        {
          "attributes": {
            "POSITION": 4,
            "NORMAL": 5,
            "TEXCOORD_0": 6
          },
          "indices": 7,
          "material": 1
        }
      ]
    }
  ],
  "nodes": [
    {
      "mesh": 0
    },
    {
      "mesh": 1
    }
  ],
  "scene": 0,
  "scenes": [
    {
      "nodes": [
        0,
        1
      ]
    }
  ],
  "textures": [
    {
      "source": 0
    },
    {
      "source": 1
    }
  ]
}