{
  "asset": {
    "copyright": "",
    "generator": "SharpGLTF 1.0.0",
    "version": "2.0"
  },
  "accessors": [
    {
      "name": "POSITION",
      "bufferView": 0,
      "componentType": 5126,
      "count": 96,
      "max": [
        -196.15052795410156,
        110.71810913085938,
        374.4632568359375
      ],
      "min": [
        -197.38742065429688,
        74.260025024414063,
        344.40072631835938
      ],
      "type": "VEC3"
    },
    {
      "name": "NORMAL",
      "bufferView": 0,
      "byteOffset": 12,
      "componentType": 5126,
      "count": 96,
      "max": [
        1.951826925505884E-05,
        -0.0039691519923508167,
        0.99999195337295532
      ],
      "min": [
        -0.99999207258224487,
        -0.0055546597577631474,
        1.9248858734499663E-05
      ],
      "type": "VEC3"
    },
    {
      "name": "TEXCOORD_0",
      "bufferView": 0,
      "byteOffset": 24,
      "componentType": 5126,
      "count": 96,
      "max": [
        0.982421875,
        0.998046875
      ],
      "min": [
        0.001953125,
        0.232421875
      ],
      "type": "VEC2"
    },
    {
      "bufferView": 1,
      "componentType": 5123,
      "count": 297,
      "type": "SCALAR"
    }
  ],
  "bufferViews": [
    {
      "buffer": 0,
      "byteLength": 3072,
      "byteStride": 32,
      "target": 34962
    },
    {
      "buffer": 0,
      "byteLength": 594,
      "byteOffset": 3072,
      "target": 34963
    }
  ],
  "buffers": [
    {
      "byteLength": 3668,
      "uri": "20525362525051736520_LOD00.bin"
    }
  ],
  "images": [
    {
      "uri": "20525362525051736520_LOD00.png"
    }
  ],
  "materials": [
    {
      "doubleSided": true,
      "pbrMetallicRoughness": {
        "baseColorTexture": {
          "index": 0
        },
        "metallicFactor": 0
      }
    }
  ],
  "meshes": [
    {
      "name": "20525362525051736520_0",
      "primitives": [
        {
          "attributes": {
            "POSITION": 0,
            "NORMAL": 1,
            "TEXCOORD_0": 2
          },
          "indices": 3,
          "material": 0
        }
      ]
    }
  ],
  "nodes": [
    {
      "mesh": 0
    }
  ],
  "scene": 0,
  "scenes": [
    {
      "nodes": [
        0
      ]
    }
  ],
  "textures": [
    {
      "source": 0
    }
  ]
}