{
  "asset": {
    "copyright": "",
    "generator": "SharpGLTF 1.0.0",
    "version": "2.0"
  },
  "accessors": [
    {
      "name": "POSITION",
      "bufferView": 0,
      "componentType": 5126,
      "count": 2162,
      "max": [
        -549.2430419921875,
        74.255195617675781,
        421.01336669921875
      ],
      "min": [
        -581.36212158203125,
        37.794139862060547,
        382.62677001953125
      ],
      "type": "VEC3"
    },
    {
      "name": "NORMAL",
      "bufferView": 0,
      "byteOffset": 12,
      "componentType": 5126,
      "count": 2162,
      "max": [
        0.99999260902404785,
        0.99998509883880615,
        0.9999920129776001
      ],
      "min": [
        -0.99999195337295532,
        -1,
        -0.9999924898147583
      ],
      "type": "VEC3"
    },
    {
      "name": "TEXCOORD_0",
      "bufferView": 0,
      "byteOffset": 24,
      "componentType": 5126,
      "count": 2162,
      "max": [
        0.998046875,
        0.9990234375
      ],
      "min": [
        0.001953125,
        0.0009765625
      ],
      "type": "VEC2"
    },
    {
      "bufferView": 1,
      "componentType": 5123,
      "count": 5406,
      "type": "SCALAR"
    },
    {
      "name": "POSITION",
      "bufferView": 0,
      "byteOffset": 69184,
      "componentType": 5126,
      "count": 351,
      "max": [
        -549.243896484375,
        68.075790405273438,
        420.85885620117188
      ],
      "min": [
        -575.9547119140625,
        43.050579071044922,
        382.62747192382813
      ],
      "type": "VEC3"
    },
    {
      "name": "NORMAL",
      "bufferView": 0,
      "byteOffset": 69196,
      "componentType": 5126,
      "count": 351,
      "max": [
        0.97517901659011841,
        0.99998509883880615,
        0.9999920129776001
      ],
      "min": [
        -0.99999195337295532,
        -0.78887701034545898,
        -0.96231061220169067
      ],
      "type": "VEC3"
    },
    {
      "name": "TEXCOORD_0",
      "bufferView": 0,
      "byteOffset": 69208,
      "componentType": 5126,
      "count": 351,
      "max": [
        0.994140625,
        0.998046875
      ],
      "min": [
        0.001953125,
        0.814453125
      ],
      "type": "VEC2"
    },
    {
      "bufferView": 1,
      "byteOffset": 10812,
      "componentType": 5123,
      "count": 876,
      "type": "SCALAR"
    }
  ],
  "bufferViews": [
    {
      "buffer": 0,
      "byteLength": 80416,
      "byteStride": 32,
      "target": 34962
    },
    {
      "buffer": 0,
      "byteLength": 12564,
      "byteOffset": 80416,
      "target": 34963
    }
  ],
  "buffers": [
    {
      "byteLength": 92980,
      "uri": "20525362525051737177_LOD00.bin"
    }
  ],
  "images": [
    {
      "uri": "20525362525051737177_LOD00_0.png"
    },
    {
      "uri": "20525362525051737177_LOD00_1.png"
    }
  ],
  "materials": [
    {
      "doubleSided": true,
      "pbrMetallicRoughness": {
        "baseColorTexture": {
          "index": 0
        },
        "metallicFactor": 0
      }
    },
    {
      "doubleSided": true,
      "pbrMetallicRoughness": {
        "baseColorTexture": {
          "index": 1
        },
        "metallicFactor": 0
      }
    }
  ],
  "meshes": [
    {
      "name": "20525362525051737177_0",
      "primitives": [
        {
          "attributes": {
            "POSITION": 0,
            "NORMAL": 1,
            "TEXCOORD_0": 2
          },
          "indices": 3,
          "material": 0
        }
      ]
    },
    {
      "name": "20525362525051737177_1",
      "primitives": [
        {
          "attributes": {
            "POSITION": 4,
            "NORMAL": 5,
            "TEXCOORD_0": 6
          },
          "indices": 7,
          "material": 1
        }
      ]
    }
  ],
  "nodes": [
    {
      "mesh": 0
    },
    {
      "mesh": 1
    }
  ],
  "scene": 0,
  "scenes": [
    {
      "nodes": [
        0,
        1
      ]
    }
  ],
  "textures": [
    {
      "source": 0
    },
    {
      "source": 1
    }
  ]
}