{
  "asset": {
    "copyright": "",
    "generator": "SharpGLTF 1.0.0",
    "version": "2.0"
  },
  "accessors": [
    {
      "name": "POSITION",
      "bufferView": 0,
      "componentType": 5126,
      "count": 95,
      "max": [
        -104.01952362060547,
        110.71581268310547,
        420.84799194335938
      ],
      "min": [
        -128.41542053222656,
        74.258834838867188,
        418.37905883789063
      ],
      "type": "VEC3"
    },
    {
      "name": "NORMAL",
      "bufferView": 0,
      "byteOffset": 12,
      "componentType": 5126,
      "count": 95,
      "max": [
        0.99999231100082397,
        -0.0038853101432323456,
        9.4944334705360234E-06
      ],
      "min": [
        -0.99999219179153442,
        -0.0055434270761907101,
        -0.99999243021011353
      ],
      "type": "VEC3"
    },
    {
      "name": "TEXCOORD_0",
      "bufferView": 0,
      "byteOffset": 24,
      "componentType": 5126,
      "count": 95,
      "max": [
        0.978515625,
        0.998046875
      ],
      "min": [
        0.001953125,
        0.072265625
      ],
      "type": "VEC2"
    },
    {
      "bufferView": 1,
      "componentType": 5123,
      "count": 261,
      "type": "SCALAR"
    }
  ],
  "bufferViews": [
    {
      "buffer": 0,
      "byteLength": 3040,
      "byteStride": 32,
      "target": 34962
    },
    {
      "buffer": 0,
      "byteLength": 522,
      "byteOffset": 3040,
      "target": 34963
    }
  ],
  "buffers": [
    {
      "byteLength": 3564,
      "uri": "20525362525051736423_LOD00.bin"
    }
  ],
  "images": [
    {
      "uri": "20525362525051736423_LOD00.png"
    }
  ],
  "materials": [
    {
      "doubleSided": true,
      "pbrMetallicRoughness": {
        "baseColorTexture": {
          "index": 0
        },
        "metallicFactor": 0
      }
    }
  ],
  "meshes": [
    {
      "name": "20525362525051736423_0",
      "primitives": [
        {
          "attributes": {
            "POSITION": 0,
            "NORMAL": 1,
            "TEXCOORD_0": 2
          },
          "indices": 3,
          "material": 0
        }
      ]
    }
  ],
  "nodes": [
    {
      "mesh": 0
    }
  ],
  "scene": 0,
  "scenes": [
    {
      "nodes": [
        0
      ]
    }
  ],
  "textures": [
    {
      "source": 0
    }
  ]
}