{
  "asset": {
    "copyright": "",
    "generator": "SharpGLTF 1.0.0",
    "version": "2.0"
  },
  "accessors": [
    {
      "name": "POSITION",
      "bufferView": 0,
      "componentType": 5126,
      "count": 1471,
      "max": [
        -806.06939697265625,
        65.434043884277344,
        38.726829528808594
      ],
      "min": [
        -838.188720703125,
        37.781909942626953,
        0.49359172582626343
      ],
      "type": "VEC3"
    },
    {
      "name": "NORMAL",
      "bufferView": 0,
      "byteOffset": 12,
      "componentType": 5126,
      "count": 1471,
      "max": [
        0.99999278783798218,
        0.9999849796295166,
        0.99999219179153442
      ],
      "min": [
        -0.99999183416366577,
        -1,
        -0.99999219179153442
      ],
      "type": "VEC3"
    },
    {
      "name": "TEXCOORD_0",
      "bufferView": 0,
      "byteOffset": 24,
      "componentType": 5126,
      "count": 1471,
      "max": [
        0.998046875,
        0.9990234375
      ],
      "min": [
        0.001953125,
        0.0009765625
      ],
      "type": "VEC2"
    },
    {
      "bufferView": 1,
      "componentType": 5123,
      "count": 3351,
      "type": "SCALAR"
    },
    {
      "name": "POSITION",
      "bufferView": 0,
      "byteOffset": 47072,
      "componentType": 5126,
      "count": 1094,
      "max": [
        -806.0726318359375,
        65.434043884277344,
        38.726703643798828
      ],
      "min": [
        -838.1888427734375,
        39.635566711425781,
        0.49409261345863342
      ],
      "type": "VEC3"
    },
    {
      "name": "NORMAL",
      "bufferView": 0,
      "byteOffset": 47084,
      "componentType": 5126,
      "count": 1094,
      "max": [
        0.99999278783798218,
        0.9999849796295166,
        0.99999219179153442
      ],
      "min": [
        -0.99999183416366577,
        -0.99641197919845581,
        -0.99999219179153442
      ],
      "type": "VEC3"
    },
    {
      "name": "TEXCOORD_0",
      "bufferView": 0,
      "byteOffset": 47096,
      "componentType": 5126,
      "count": 1094,
      "max": [
        0.998046875,
        0.998046875
      ],
      "min": [
        0.001953125,
        0.416015625
      ],
      "type": "VEC2"
    },
    {
      "bufferView": 1,
      "byteOffset": 6702,
      "componentType": 5123,
      "count": 2736,
      "type": "SCALAR"
    }
  ],
  "bufferViews": [
    {
      "buffer": 0,
      "byteLength": 82080,
      "byteStride": 32,
      "target": 34962
    },
    {
      "buffer": 0,
      "byteLength": 12174,
      "byteOffset": 82080,
      "target": 34963
    }
  ],
  "buffers": [
    {
      "byteLength": 94256,
      "uri": "20525362525140624157_LOD00.bin"
    }
  ],
  "images": [
    {
      "uri": "20525362525140624157_LOD00_0.png"
    },
    {
      "uri": "20525362525140624157_LOD00_1.png"
    }
  ],
  "materials": [
    {
      "doubleSided": true,
      "pbrMetallicRoughness": {
        "baseColorTexture": {
          "index": 0
        },
        "metallicFactor": 0
      }
    },
    {
      "doubleSided": true,
      "pbrMetallicRoughness": {
        "baseColorTexture": {
          "index": 1
        },
        "metallicFactor": 0
      }
    }
  ],
  "meshes": [
    {
      "name": "20525362525140624157_0",
      "primitives": [
        {
          "attributes": {
            "POSITION": 0,
            "NORMAL": 1,
            "TEXCOORD_0": 2
          },
          "indices": 3,
          "material": 0
        }
      ]
    },
    {
      "name": "20525362525140624157_1",
      "primitives": [
        {
          "attributes": {
            "POSITION": 4,
            "NORMAL": 5,
            "TEXCOORD_0": 6
          },
          "indices": 7,
          "material": 1
        }
      ]
    }
  ],
  "nodes": [
    {
      "mesh": 0
    },
    {
      "mesh": 1
    }
  ],
  "scene": 0,
  "scenes": [
    {
      "nodes": [
        0,
        1
      ]
    }
  ],
  "textures": [
    {
      "source": 0
    },
    {
      "source": 1
    }
  ]
}