{
  "asset": {
    "copyright": "",
    "generator": "SharpGLTF 1.0.0",
    "version": "2.0"
  },
  "accessors": [
    {
      "name": "POSITION",
      "bufferView": 0,
      "componentType": 5126,
      "count": 3441,
      "max": [
        -35.342525482177734,
        74.267738342285156,
        535.49078369140625
      ],
      "min": [
        -68.229110717773438,
        37.50274658203125,
        497.10357666015625
      ],
      "type": "VEC3"
    },
    {
      "name": "NORMAL",
      "bufferView": 0,
      "byteOffset": 12,
      "componentType": 5126,
      "count": 3441,
      "max": [
        0.99999231100082397,
        0.99998480081558228,
        0.99999195337295532
      ],
      "min": [
        -0.99999219179153442,
        -1,
        -0.99999254941940308
      ],
      "type": "VEC3"
    },
    {
      "name": "TEXCOORD_0",
      "bufferView": 0,
      "byteOffset": 24,
      "componentType": 5126,
      "count": 3441,
      "max": [
        0.998046875,
        0.9990234375
      ],
      "min": [
        0.001953125,
        0.0009765625
      ],
      "type": "VEC2"
    },
    {
      "bufferView": 1,
      "componentType": 5123,
      "count": 8970,
      "type": "SCALAR"
    },
    {
      "name": "POSITION",
      "bufferView": 0,
      "byteOffset": 110112,
      "componentType": 5126,
      "count": 2137,
      "max": [
        -35.651142120361328,
        71.95263671875,
        535.489013671875
      ],
      "min": [
        -67.766197204589844,
        37.656898498535156,
        497.25729370117188
      ],
      "type": "VEC3"
    },
    {
      "name": "NORMAL",
      "bufferView": 0,
      "byteOffset": 110124,
      "componentType": 5126,
      "count": 2137,
      "max": [
        0.99999231100082397,
        0.99998480081558228,
        0.99999195337295532
      ],
      "min": [
        -0.99999219179153442,
        -1,
        -0.99931198358535767
      ],
      "type": "VEC3"
    },
    {
      "name": "TEXCOORD_0",
      "bufferView": 0,
      "byteOffset": 110136,
      "componentType": 5126,
      "count": 2137,
      "max": [
        0.998046875,
        0.998046875
      ],
      "min": [
        0.001953125,
        0.248046875
      ],
      "type": "VEC2"
    },
    {
      "bufferView": 1,
      "byteOffset": 17940,
      "componentType": 5123,
      "count": 5346,
      "type": "SCALAR"
    }
  ],
  "bufferViews": [
    {
      "buffer": 0,
      "byteLength": 178496,
      "byteStride": 32,
      "target": 34962
    },
    {
      "buffer": 0,
      "byteLength": 28632,
      "byteOffset": 178496,
      "target": 34963
    }
  ],
  "buffers": [
    {
      "byteLength": 207128,
      "uri": "20525362525051727375_LOD00.bin"
    }
  ],
  "images": [
    {
      "uri": "20525362525051727375_LOD00_0.png"
    },
    {
      "uri": "20525362525051727375_LOD00_1.png"
    }
  ],
  "materials": [
    {
      "doubleSided": true,
      "pbrMetallicRoughness": {
        "baseColorTexture": {
          "index": 0
        },
        "metallicFactor": 0
      }
    },
    {
      "doubleSided": true,
      "pbrMetallicRoughness": {
        "baseColorTexture": {
          "index": 1
        },
        "metallicFactor": 0
      }
    }
  ],
  "meshes": [
    {
      "name": "20525362525051727375_0",
      "primitives": [
        {
          "attributes": {
            "POSITION": 0,
            "NORMAL": 1,
            "TEXCOORD_0": 2
          },
          "indices": 3,
          "material": 0
        }
      ]
    },
    {
      "name": "20525362525051727375_1",
      "primitives": [
        {
          "attributes": {
            "POSITION": 4,
            "NORMAL": 5,
            "TEXCOORD_0": 6
          },
          "indices": 7,
          "material": 1
        }
      ]
    }
  ],
  "nodes": [
    {
      "mesh": 0
    },
    {
      "mesh": 1
    }
  ],
  "scene": 0,
  "scenes": [
    {
      "nodes": [
        0,
        1
      ]
    }
  ],
  "textures": [
    {
      "source": 0
    },
    {
      "source": 1
    }
  ]
}