{
  "asset": {
    "copyright": "",
    "generator": "SharpGLTF 1.0.0",
    "version": "2.0"
  },
  "accessors": [
    {
      "name": "POSITION",
      "bufferView": 0,
      "componentType": 5126,
      "count": 512,
      "max": [
        -516.69866943359375,
        37.827297210693359,
        60.271854400634766
      ],
      "min": [
        -542.79364013671875,
        37.054904937744141,
        38.227993011474609
      ],
      "type": "VEC3"
    },
    {
      "name": "NORMAL",
      "bufferView": 0,
      "byteOffset": 12,
      "componentType": 5126,
      "count": 512,
      "max": [
        0.66213452816009521,
        0.9999847412109375,
        0.61351555585861206
      ],
      "min": [
        -0.45624580979347229,
        -0.26525843143463135,
        -0.84939843416213989
      ],
      "type": "VEC3"
    },
    {
      "name": "TEXCOORD_0",
      "bufferView": 0,
      "byteOffset": 24,
      "componentType": 5126,
      "count": 512,
      "max": [
        0.998046875,
        0.998046875
      ],
      "min": [
        0.001953125,
        0.744140625
      ],
      "type": "VEC2"
    },
    {
      "bufferView": 1,
      "componentType": 5123,
      "count": 1413,
      "type": "SCALAR"
    }
  ],
  "bufferViews": [
    {
      "buffer": 0,
      "byteLength": 16384,
      "byteStride": 32,
      "target": 34962
    },
    {
      "buffer": 0,
      "byteLength": 2826,
      "byteOffset": 16384,
      "target": 34963
    }
  ],
  "buffers": [
    {
      "byteLength": 19212,
      "uri": "20525362525051735170_LOD00.bin"
    }
  ],
  "images": [
    {
      "uri": "20525362525051735170_LOD00.png"
    }
  ],
  "materials": [
    {
      "doubleSided": true,
      "pbrMetallicRoughness": {
        "baseColorTexture": {
          "index": 0
        },
        "metallicFactor": 0
      }
    }
  ],
  "meshes": [
    {
      "name": "20525362525051735170_0",
      "primitives": [
        {
          "attributes": {
            "POSITION": 0,
            "NORMAL": 1,
            "TEXCOORD_0": 2
          },
          "indices": 3,
          "material": 0
        }
      ]
    }
  ],
  "nodes": [
    {
      "mesh": 0
    }
  ],
  "scene": 0,
  "scenes": [
    {
      "nodes": [
        0
      ]
    }
  ],
  "textures": [
    {
      "source": 0
    }
  ]
}