{
  "asset": {
    "copyright": "",
    "generator": "SharpGLTF 1.0.0",
    "version": "2.0"
  },
  "accessors": [
    {
      "name": "POSITION",
      "bufferView": 0,
      "componentType": 5126,
      "count": 967,
      "max": [
        -356.33090209960938,
        74.253761291503906,
        611.9251708984375
      ],
      "min": [
        -388.91018676757813,
        37.794628143310547,
        573.6934814453125
      ],
      "type": "VEC3"
    },
    {
      "name": "NORMAL",
      "bufferView": 0,
      "byteOffset": 12,
      "componentType": 5126,
      "count": 967,
      "max": [
        0.99931520223617554,
        0.99998509883880615,
        0.99931824207305908
      ],
      "min": [
        -0.99999195337295532,
        -0.94608199596405029,
        -0.98973441123962402
      ],
      "type": "VEC3"
    },
    {
      "name": "TEXCOORD_0",
      "bufferView": 0,
      "byteOffset": 24,
      "componentType": 5126,
      "count": 967,
      "max": [
        0.998046875,
        0.9990234375
      ],
      "min": [
        0.001953125,
        0.0029296875
      ],
      "type": "VEC2"
    },
    {
      "bufferView": 1,
      "componentType": 5123,
      "count": 2250,
      "type": "SCALAR"
    },
    {
      "name": "POSITION",
      "bufferView": 0,
      "byteOffset": 30944,
      "componentType": 5126,
      "count": 335,
      "max": [
        -356.64031982421875,
        51.080619812011719,
        611.92529296875
      ],
      "min": [
        -388.910400390625,
        39.650455474853516,
        573.54083251953125
      ],
      "type": "VEC3"
    },
    {
      "name": "NORMAL",
      "bufferView": 0,
      "byteOffset": 30956,
      "componentType": 5126,
      "count": 335,
      "max": [
        0.98738819360733032,
        0.99998509883880615,
        0.97400712966918945
      ],
      "min": [
        -0.99798870086669922,
        -0.78263139724731445,
        -0.99931168556213379
      ],
      "type": "VEC3"
    },
    {
      "name": "TEXCOORD_0",
      "bufferView": 0,
      "byteOffset": 30968,
      "componentType": 5126,
      "count": 335,
      "max": [
        0.998046875,
        0.998046875
      ],
      "min": [
        0.001953125,
        0.021484375
      ],
      "type": "VEC2"
    },
    {
      "bufferView": 1,
      "byteOffset": 4500,
      "componentType": 5123,
      "count": 993,
      "type": "SCALAR"
    }
  ],
  "bufferViews": [
    {
      "buffer": 0,
      "byteLength": 41664,
      "byteStride": 32,
      "target": 34962
    },
    {
      "buffer": 0,
      "byteLength": 6486,
      "byteOffset": 41664,
      "target": 34963
    }
  ],
  "buffers": [
    {
      "byteLength": 48152,
      "uri": "20525362525053515045_LOD00.bin"
    }
  ],
  "images": [
    {
      "uri": "20525362525053515045_LOD00_0.png"
    },
    {
      "uri": "20525362525053515045_LOD00_1.png"
    }
  ],
  "materials": [
    {
      "doubleSided": true,
      "pbrMetallicRoughness": {
        "baseColorTexture": {
          "index": 0
        },
        "metallicFactor": 0
      }
    },
    {
      "doubleSided": true,
      "pbrMetallicRoughness": {
        "baseColorTexture": {
          "index": 1
        },
        "metallicFactor": 0
      }
    }
  ],
  "meshes": [
    {
      "name": "20525362525053515045_0",
      "primitives": [
        {
          "attributes": {
            "POSITION": 0,
            "NORMAL": 1,
            "TEXCOORD_0": 2
          },
          "indices": 3,
          "material": 0
        }
      ]
    },
    {
      "name": "20525362525053515045_1",
      "primitives": [
        {
          "attributes": {
            "POSITION": 4,
            "NORMAL": 5,
            "TEXCOORD_0": 6
          },
          "indices": 7,
          "material": 1
        }
      ]
    }
  ],
  "nodes": [
    {
      "mesh": 0
    },
    {
      "mesh": 1
    }
  ],
  "scene": 0,
  "scenes": [
    {
      "nodes": [
        0,
        1
      ]
    }
  ],
  "textures": [
    {
      "source": 0
    },
    {
      "source": 1
    }
  ]
}