{
  "asset": {
    "copyright": "",
    "generator": "SharpGLTF 1.0.0",
    "version": "2.0"
  },
  "accessors": [
    {
      "name": "POSITION",
      "bufferView": 0,
      "componentType": 5126,
      "count": 1218,
      "max": [
        -330.5693359375,
        83.981712341308594,
        457.06182861328125
      ],
      "min": [
        -357.1260986328125,
        74.094772338867188,
        435.01760864257813
      ],
      "type": "VEC3"
    },
    {
      "name": "NORMAL",
      "bufferView": 0,
      "byteOffset": 12,
      "componentType": 5126,
      "count": 1218,
      "max": [
        0.99931520223617554,
        0.99998486042022705,
        0.99999195337295532
      ],
      "min": [
        -0.99898213148117065,
        -0.99510741233825684,
        -0.99914902448654175
      ],
      "type": "VEC3"
    },
    {
      "name": "TEXCOORD_0",
      "bufferView": 0,
      "byteOffset": 24,
      "componentType": 5126,
      "count": 1218,
      "max": [
        0.998046875,
        0.998046875
      ],
      "min": [
        0.001953125,
        0.666015625
      ],
      "type": "VEC2"
    },
    {
      "bufferView": 1,
      "componentType": 5123,
      "count": 2886,
      "type": "SCALAR"
    }
  ],
  "bufferViews": [
    {
      "buffer": 0,
      "byteLength": 38976,
      "byteStride": 32,
      "target": 34962
    },
    {
      "buffer": 0,
      "byteLength": 5772,
      "byteOffset": 38976,
      "target": 34963
    }
  ],
  "buffers": [
    {
      "byteLength": 44748,
      "uri": "20525362525051737600_LOD00.bin"
    }
  ],
  "images": [
    {
      "uri": "20525362525051737600_LOD00.png"
    }
  ],
  "materials": [
    {
      "doubleSided": true,
      "pbrMetallicRoughness": {
        "baseColorTexture": {
          "index": 0
        },
        "metallicFactor": 0
      }
    }
  ],
  "meshes": [
    {
      "name": "20525362525051737600_0",
      "primitives": [
        {
          "attributes": {
            "POSITION": 0,
            "NORMAL": 1,
            "TEXCOORD_0": 2
          },
          "indices": 3,
          "material": 0
        }
      ]
    }
  ],
  "nodes": [
    {
      "mesh": 0
    }
  ],
  "scene": 0,
  "scenes": [
    {
      "nodes": [
        0
      ]
    }
  ],
  "textures": [
    {
      "source": 0
    }
  ]
}