{
  "asset": {
    "copyright": "",
    "generator": "SharpGLTF 1.0.0",
    "version": "2.0"
  },
  "accessors": [
    {
      "name": "POSITION",
      "bufferView": 0,
      "componentType": 5126,
      "count": 1128,
      "max": [
        -35.651233673095703,
        124.28623962402344,
        571.24310302734375
      ],
      "min": [
        -42.908176422119141,
        110.68952178955078,
        535.4781494140625
      ],
      "type": "VEC3"
    },
    {
      "name": "NORMAL",
      "bufferView": 0,
      "byteOffset": 12,
      "componentType": 5126,
      "count": 1128,
      "max": [
        0.9999922513961792,
        0.99998480081558228,
        0.99999189376831055
      ],
      "min": [
        -0.99999219179153442,
        -0.94835656881332397,
        -0.99915069341659546
      ],
      "type": "VEC3"
    },
    {
      "name": "TEXCOORD_0",
      "bufferView": 0,
      "byteOffset": 24,
      "componentType": 5126,
      "count": 1128,
      "max": [
        0.998046875,
        0.998046875
      ],
      "min": [
        0.001953125,
        0.517578125
      ],
      "type": "VEC2"
    },
    {
      "bufferView": 1,
      "componentType": 5123,
      "count": 2733,
      "type": "SCALAR"
    }
  ],
  "bufferViews": [
    {
      "buffer": 0,
      "byteLength": 36096,
      "byteStride": 32,
      "target": 34962
    },
    {
      "buffer": 0,
      "byteLength": 5466,
      "byteOffset": 36096,
      "target": 34963
    }
  ],
  "buffers": [
    {
      "byteLength": 41564,
      "uri": "20525362525051727737_LOD00.bin"
    }
  ],
  "images": [
    {
      "uri": "20525362525051727737_LOD00.png"
    }
  ],
  "materials": [
    {
      "doubleSided": true,
      "pbrMetallicRoughness": {
        "baseColorTexture": {
          "index": 0
        },
        "metallicFactor": 0
      }
    }
  ],
  "meshes": [
    {
      "name": "20525362525051727737_0",
      "primitives": [
        {
          "attributes": {
            "POSITION": 0,
            "NORMAL": 1,
            "TEXCOORD_0": 2
          },
          "indices": 3,
          "material": 0
        }
      ]
    }
  ],
  "nodes": [
    {
      "mesh": 0
    }
  ],
  "scene": 0,
  "scenes": [
    {
      "nodes": [
        0
      ]
    }
  ],
  "textures": [
    {
      "source": 0
    }
  ]
}