{
  "asset": {
    "copyright": "",
    "generator": "SharpGLTF 1.0.0",
    "version": "2.0"
  },
  "accessors": [
    {
      "name": "POSITION",
      "bufferView": 0,
      "componentType": 5126,
      "count": 6782,
      "max": [
        -356.19723510742188,
        57.749553680419922,
        38.699729919433594
      ],
      "min": [
        -388.7767333984375,
        37.357192993164063,
        0.46806535124778748
      ],
      "type": "VEC3"
    },
    {
      "name": "NORMAL",
      "bufferView": 0,
      "byteOffset": 12,
      "componentType": 5126,
      "count": 6782,
      "max": [
        0.9999924898147583,
        0.99998468160629272,
        0.99999219179153442
      ],
      "min": [
        -0.99999207258224487,
        -0.99916660785675049,
        -0.99999219179153442
      ],
      "type": "VEC3"
    },
    {
      "name": "TEXCOORD_0",
      "bufferView": 0,
      "byteOffset": 24,
      "componentType": 5126,
      "count": 6782,
      "max": [
        0.9990234375,
        0.9990234375
      ],
      "min": [
        0.0009765625,
        0.0009765625
      ],
      "type": "VEC2"
    },
    {
      "bufferView": 1,
      "componentType": 5123,
      "count": 16479,
      "type": "SCALAR"
    }
  ],
  "bufferViews": [
    {
      "buffer": 0,
      "byteLength": 217024,
      "byteStride": 32,
      "target": 34962
    },
    {
      "buffer": 0,
      "byteLength": 32958,
      "byteOffset": 217024,
      "target": 34963
    }
  ],
  "buffers": [
    {
      "byteLength": 249984,
      "uri": "20525362525051735047_LOD00.bin"
    }
  ],
  "images": [
    {
      "uri": "20525362525051735047_LOD00.png"
    }
  ],
  "materials": [
    {
      "doubleSided": true,
      "pbrMetallicRoughness": {
        "baseColorTexture": {
          "index": 0
        },
        "metallicFactor": 0
      }
    }
  ],
  "meshes": [
    {
      "name": "20525362525051735047_0",
      "primitives": [
        {
          "attributes": {
            "POSITION": 0,
            "NORMAL": 1,
            "TEXCOORD_0": 2
          },
          "indices": 3,
          "material": 0
        }
      ]
    }
  ],
  "nodes": [
    {
      "mesh": 0
    }
  ],
  "scene": 0,
  "scenes": [
    {
      "nodes": [
        0
      ]
    }
  ],
  "textures": [
    {
      "source": 0
    }
  ]
}