{
  "asset": {
    "copyright": "",
    "generator": "SharpGLTF 1.0.0",
    "version": "2.0"
  },
  "accessors": [
    {
      "name": "POSITION",
      "bufferView": 0,
      "componentType": 5126,
      "count": 3791,
      "max": [
        -227.79217529296875,
        62.233871459960938,
        115.12609100341797
      ],
      "min": [
        -260.3719482421875,
        37.518688201904297,
        76.894660949707031
      ],
      "type": "VEC3"
    },
    {
      "name": "NORMAL",
      "bufferView": 0,
      "byteOffset": 12,
      "componentType": 5126,
      "count": 3791,
      "max": [
        0.99999237060546875,
        0.99998468160629272,
        0.99999219179153442
      ],
      "min": [
        -0.99999207258224487,
        -0.99126541614532471,
        -0.9999922513961792
      ],
      "type": "VEC3"
    },
    {
      "name": "TEXCOORD_0",
      "bufferView": 0,
      "byteOffset": 24,
      "componentType": 5126,
      "count": 3791,
      "max": [
        0.998046875,
        0.9990234375
      ],
      "min": [
        0.001953125,
        0.0009765625
      ],
      "type": "VEC2"
    },
    {
      "bufferView": 1,
      "componentType": 5123,
      "count": 9792,
      "type": "SCALAR"
    },
    {
      "name": "POSITION",
      "bufferView": 0,
      "byteOffset": 121312,
      "componentType": 5126,
      "count": 990,
      "max": [
        -228.25492858886719,
        60.5352783203125,
        115.12600708007813
      ],
      "min": [
        -260.37191772460938,
        37.826675415039063,
        76.894660949707031
      ],
      "type": "VEC3"
    },
    {
      "name": "NORMAL",
      "bufferView": 0,
      "byteOffset": 121324,
      "componentType": 5126,
      "count": 990,
      "max": [
        0.99999237060546875,
        0.99998444318771362,
        0.99931538105010986
      ],
      "min": [
        -0.99931848049163818,
        -0.99640434980392456,
        -0.99931430816650391
      ],
      "type": "VEC3"
    },
    {
      "name": "TEXCOORD_0",
      "bufferView": 0,
      "byteOffset": 121336,
      "componentType": 5126,
      "count": 990,
      "max": [
        0.998046875,
        0.998046875
      ],
      "min": [
        0.001953125,
        0.623046875
      ],
      "type": "VEC2"
    },
    {
      "bufferView": 1,
      "byteOffset": 19584,
      "componentType": 5123,
      "count": 2538,
      "type": "SCALAR"
    }
  ],
  "bufferViews": [
    {
      "buffer": 0,
      "byteLength": 152992,
      "byteStride": 32,
      "target": 34962
    },
    {
      "buffer": 0,
      "byteLength": 24660,
      "byteOffset": 152992,
      "target": 34963
    }
  ],
  "buffers": [
    {
      "byteLength": 177652,
      "uri": "20525362525051734167_LOD00.bin"
    }
  ],
  "images": [
    {
      "uri": "20525362525051734167_LOD00_0.png"
    },
    {
      "uri": "20525362525051734167_LOD00_1.png"
    }
  ],
  "materials": [
    {
      "doubleSided": true,
      "pbrMetallicRoughness": {
        "baseColorTexture": {
          "index": 0
        },
        "metallicFactor": 0
      }
    },
    {
      "doubleSided": true,
      "pbrMetallicRoughness": {
        "baseColorTexture": {
          "index": 1
        },
        "metallicFactor": 0
      }
    }
  ],
  "meshes": [
    {
      "name": "20525362525051734167_0",
      "primitives": [
        {
          "attributes": {
            "POSITION": 0,
            "NORMAL": 1,
            "TEXCOORD_0": 2
          },
          "indices": 3,
          "material": 0
        }
      ]
    },
    {
      "name": "20525362525051734167_1",
      "primitives": [
        {
          "attributes": {
            "POSITION": 4,
            "NORMAL": 5,
            "TEXCOORD_0": 6
          },
          "indices": 7,
          "material": 1
        }
      ]
    }
  ],
  "nodes": [
    {
      "mesh": 0
    },
    {
      "mesh": 1
    }
  ],
  "scene": 0,
  "scenes": [
    {
      "nodes": [
        0,
        1
      ]
    }
  ],
  "textures": [
    {
      "source": 0
    },
    {
      "source": 1
    }
  ]
}