{
  "asset": {
    "copyright": "",
    "generator": "SharpGLTF 1.0.0",
    "version": "2.0"
  },
  "accessors": [
    {
      "name": "POSITION",
      "bufferView": 0,
      "componentType": 5126,
      "count": 125,
      "max": [
        -602.19866943359375,
        77.484550476074219,
        271.3780517578125
      ],
      "min": [
        -613.4703369140625,
        74.239723205566406,
        267.83248901367188
      ],
      "type": "VEC3"
    },
    {
      "name": "NORMAL",
      "bufferView": 0,
      "byteOffset": 12,
      "componentType": 5126,
      "count": 125,
      "max": [
        0.99526876211166382,
        0.98904865980148315,
        0.99931609630584717
      ],
      "min": [
        -0.093457482755184174,
        -0.50347930192947388,
        -0.15643680095672607
      ],
      "type": "VEC3"
    },
    {
      "name": "TEXCOORD_0",
      "bufferView": 0,
      "byteOffset": 24,
      "componentType": 5126,
      "count": 125,
      "max": [
        0.998046875,
        0.998046875
      ],
      "min": [
        0.001953125,
        0.865234375
      ],
      "type": "VEC2"
    },
    {
      "bufferView": 1,
      "componentType": 5123,
      "count": 306,
      "type": "SCALAR"
    }
  ],
  "bufferViews": [
    {
      "buffer": 0,
      "byteLength": 4000,
      "byteStride": 32,
      "target": 34962
    },
    {
      "buffer": 0,
      "byteLength": 612,
      "byteOffset": 4000,
      "target": 34963
    }
  ],
  "buffers": [
    {
      "byteLength": 4612,
      "uri": "20525362525140626400_LOD00.bin"
    }
  ],
  "images": [
    {
      "uri": "20525362525140626400_LOD00.png"
    }
  ],
  "materials": [
    {
      "doubleSided": true,
      "pbrMetallicRoughness": {
        "baseColorTexture": {
          "index": 0
        },
        "metallicFactor": 0
      }
    }
  ],
  "meshes": [
    {
      "name": "20525362525140626400_0",
      "primitives": [
        {
          "attributes": {
            "POSITION": 0,
            "NORMAL": 1,
            "TEXCOORD_0": 2
          },
          "indices": 3,
          "material": 0
        }
      ]
    }
  ],
  "nodes": [
    {
      "mesh": 0
    }
  ],
  "scene": 0,
  "scenes": [
    {
      "nodes": [
        0
      ]
    }
  ],
  "textures": [
    {
      "source": 0
    }
  ]
}