{
  "asset": {
    "copyright": "",
    "generator": "SharpGLTF 1.0.0",
    "version": "2.0"
  },
  "accessors": [
    {
      "name": "POSITION",
      "bufferView": 0,
      "componentType": 5126,
      "count": 4642,
      "max": [
        -356.19198608398438,
        52.959526062011719,
        153.49908447265625
      ],
      "min": [
        -389.08023071289063,
        37.355857849121094,
        114.96004486083984
      ],
      "type": "VEC3"
    },
    {
      "name": "NORMAL",
      "bufferView": 0,
      "byteOffset": 12,
      "componentType": 5126,
      "count": 4642,
      "max": [
        0.99915432929992676,
        0.99998462200164795,
        0.99931567907333374
      ],
      "min": [
        -0.9999920129776001,
        -1,
        -0.9999922513961792
      ],
      "type": "VEC3"
    },
    {
      "name": "TEXCOORD_0",
      "bufferView": 0,
      "byteOffset": 24,
      "componentType": 5126,
      "count": 4642,
      "max": [
        0.998046875,
        0.9990234375
      ],
      "min": [
        0.001953125,
        0.0009765625
      ],
      "type": "VEC2"
    },
    {
      "bufferView": 1,
      "componentType": 5123,
      "count": 11343,
      "type": "SCALAR"
    },
    {
      "name": "POSITION",
      "bufferView": 0,
      "byteOffset": 148544,
      "componentType": 5126,
      "count": 746,
      "max": [
        -356.6558837890625,
        52.959506988525391,
        153.34492492675781
      ],
      "min": [
        -388.77212524414063,
        37.510643005371094,
        115.11412811279297
      ],
      "type": "VEC3"
    },
    {
      "name": "NORMAL",
      "bufferView": 0,
      "byteOffset": 148556,
      "componentType": 5126,
      "count": 746,
      "max": [
        0.9999924898147583,
        0.99998462200164795,
        0.99483305215835571
      ],
      "min": [
        -0.9999920129776001,
        -0.85652989149093628,
        -0.99931430816650391
      ],
      "type": "VEC3"
    },
    {
      "name": "TEXCOORD_0",
      "bufferView": 0,
      "byteOffset": 148568,
      "componentType": 5126,
      "count": 746,
      "max": [
        0.998046875,
        0.998046875
      ],
      "min": [
        0.001953125,
        0.775390625
      ],
      "type": "VEC2"
    },
    {
      "bufferView": 1,
      "byteOffset": 22686,
      "componentType": 5123,
      "count": 1677,
      "type": "SCALAR"
    }
  ],
  "bufferViews": [
    {
      "buffer": 0,
      "byteLength": 172416,
      "byteStride": 32,
      "target": 34962
    },
    {
      "buffer": 0,
      "byteLength": 26040,
      "byteOffset": 172416,
      "target": 34963
    }
  ],
  "buffers": [
    {
      "byteLength": 198456,
      "uri": "20525362525051735245_LOD00.bin"
    }
  ],
  "images": [
    {
      "uri": "20525362525051735245_LOD00_0.png"
    },
    {
      "uri": "20525362525051735245_LOD00_1.png"
    }
  ],
  "materials": [
    {
      "doubleSided": true,
      "pbrMetallicRoughness": {
        "baseColorTexture": {
          "index": 0
        },
        "metallicFactor": 0
      }
    },
    {
      "doubleSided": true,
      "pbrMetallicRoughness": {
        "baseColorTexture": {
          "index": 1
        },
        "metallicFactor": 0
      }
    }
  ],
  "meshes": [
    {
      "name": "20525362525051735245_0",
      "primitives": [
        {
          "attributes": {
            "POSITION": 0,
            "NORMAL": 1,
            "TEXCOORD_0": 2
          },
          "indices": 3,
          "material": 0
        }
      ]
    },
    {
      "name": "20525362525051735245_1",
      "primitives": [
        {
          "attributes": {
            "POSITION": 4,
            "NORMAL": 5,
            "TEXCOORD_0": 6
          },
          "indices": 7,
          "material": 1
        }
      ]
    }
  ],
  "nodes": [
    {
      "mesh": 0
    },
    {
      "mesh": 1
    }
  ],
  "scene": 0,
  "scenes": [
    {
      "nodes": [
        0,
        1
      ]
    }
  ],
  "textures": [
    {
      "source": 0
    },
    {
      "source": 1
    }
  ]
}