{
  "asset": {
    "copyright": "",
    "generator": "SharpGLTF 1.0.0",
    "version": "2.0"
  },
  "accessors": [
    {
      "name": "POSITION",
      "bufferView": 0,
      "componentType": 5126,
      "count": 236,
      "max": [
        -67.750495910644531,
        38.291988372802734,
        501.7281494140625
      ],
      "min": [
        -99.865142822265625,
        33.657691955566406,
        496.79510498046875
      ],
      "type": "VEC3"
    },
    {
      "name": "NORMAL",
      "bufferView": 0,
      "byteOffset": 12,
      "componentType": 5126,
      "count": 236,
      "max": [
        0.9999922513961792,
        0.99051541090011597,
        0.99999183416366577
      ],
      "min": [
        -0.99999219179153442,
        -1,
        -0.64285552501678467
      ],
      "type": "VEC3"
    },
    {
      "name": "TEXCOORD_0",
      "bufferView": 0,
      "byteOffset": 24,
      "componentType": 5126,
      "count": 236,
      "max": [
        0.998046875,
        0.998046875
      ],
      "min": [
        0.001953125,
        0.763671875
      ],
      "type": "VEC2"
    },
    {
      "bufferView": 1,
      "componentType": 5123,
      "count": 597,
      "type": "SCALAR"
    }
  ],
  "bufferViews": [
    {
      "buffer": 0,
      "byteLength": 7552,
      "byteStride": 32,
      "target": 34962
    },
    {
      "buffer": 0,
      "byteLength": 1194,
      "byteOffset": 7552,
      "target": 34963
    }
  ],
  "buffers": [
    {
      "byteLength": 8748,
      "uri": "20525362525051736260_LOD00.bin"
    }
  ],
  "images": [
    {
      "uri": "20525362525051736260_LOD00.png"
    }
  ],
  "materials": [
    {
      "doubleSided": true,
      "pbrMetallicRoughness": {
        "baseColorTexture": {
          "index": 0
        },
        "metallicFactor": 0
      }
    }
  ],
  "meshes": [
    {
      "name": "20525362525051736260_0",
      "primitives": [
        {
          "attributes": {
            "POSITION": 0,
            "NORMAL": 1,
            "TEXCOORD_0": 2
          },
          "indices": 3,
          "material": 0
        }
      ]
    }
  ],
  "nodes": [
    {
      "mesh": 0
    }
  ],
  "scene": 0,
  "scenes": [
    {
      "nodes": [
        0
      ]
    }
  ],
  "textures": [
    {
      "source": 0
    }
  ]
}