{
  "asset": {
    "copyright": "",
    "generator": "SharpGLTF 1.0.0",
    "version": "2.0"
  },
  "accessors": [
    {
      "name": "POSITION",
      "bufferView": 0,
      "componentType": 5126,
      "count": 1973,
      "max": [
        -196.14671325683594,
        56.193153381347656,
        535.9525146484375
      ],
      "min": [
        -228.26225280761719,
        37.347061157226563,
        497.10501098632813
      ],
      "type": "VEC3"
    },
    {
      "name": "NORMAL",
      "bufferView": 0,
      "byteOffset": 12,
      "componentType": 5126,
      "count": 1973,
      "max": [
        0.99999237060546875,
        0.99998486042022705,
        0.99999195337295532
      ],
      "min": [
        -0.99999213218688965,
        -1,
        -0.99999254941940308
      ],
      "type": "VEC3"
    },
    {
      "name": "TEXCOORD_0",
      "bufferView": 0,
      "byteOffset": 24,
      "componentType": 5126,
      "count": 1973,
      "max": [
        0.998046875,
        0.9990234375
      ],
      "min": [
        0.001953125,
        0.0009765625
      ],
      "type": "VEC2"
    },
    {
      "bufferView": 1,
      "componentType": 5123,
      "count": 4479,
      "type": "SCALAR"
    },
    {
      "name": "POSITION",
      "bufferView": 0,
      "byteOffset": 63136,
      "componentType": 5126,
      "count": 1342,
      "max": [
        -195.99232482910156,
        56.038681030273438,
        535.49072265625
      ],
      "min": [
        -225.17459106445313,
        37.810230255126953,
        496.79669189453125
      ],
      "type": "VEC3"
    },
    {
      "name": "NORMAL",
      "bufferView": 0,
      "byteOffset": 63148,
      "componentType": 5126,
      "count": 1342,
      "max": [
        0.99817854166030884,
        0.99998486042022705,
        0.99999195337295532
      ],
      "min": [
        -0.99999213218688965,
        -0.99917012453079224,
        -0.99999254941940308
      ],
      "type": "VEC3"
    },
    {
      "name": "TEXCOORD_0",
      "bufferView": 0,
      "byteOffset": 63160,
      "componentType": 5126,
      "count": 1342,
      "max": [
        0.998046875,
        0.998046875
      ],
      "min": [
        0.001953125,
        0.365234375
      ],
      "type": "VEC2"
    },
    {
      "bufferView": 1,
      "byteOffset": 8958,
      "componentType": 5123,
      "count": 3309,
      "type": "SCALAR"
    }
  ],
  "bufferViews": [
    {
      "buffer": 0,
      "byteLength": 106080,
      "byteStride": 32,
      "target": 34962
    },
    {
      "buffer": 0,
      "byteLength": 15576,
      "byteOffset": 106080,
      "target": 34963
    }
  ],
  "buffers": [
    {
      "byteLength": 121656,
      "uri": "20525362525051736364_LOD00.bin"
    }
  ],
  "images": [
    {
      "uri": "20525362525051736364_LOD00_0.png"
    },
    {
      "uri": "20525362525051736364_LOD00_1.png"
    }
  ],
  "materials": [
    {
      "doubleSided": true,
      "pbrMetallicRoughness": {
        "baseColorTexture": {
          "index": 0
        },
        "metallicFactor": 0
      }
    },
    {
      "doubleSided": true,
      "pbrMetallicRoughness": {
        "baseColorTexture": {
          "index": 1
        },
        "metallicFactor": 0
      }
    }
  ],
  "meshes": [
    {
      "name": "20525362525051736364_0",
      "primitives": [
        {
          "attributes": {
            "POSITION": 0,
            "NORMAL": 1,
            "TEXCOORD_0": 2
          },
          "indices": 3,
          "material": 0
        }
      ]
    },
    {
      "name": "20525362525051736364_1",
      "primitives": [
        {
          "attributes": {
            "POSITION": 4,
            "NORMAL": 5,
            "TEXCOORD_0": 6
          },
          "indices": 7,
          "material": 1
        }
      ]
    }
  ],
  "nodes": [
    {
      "mesh": 0
    },
    {
      "mesh": 1
    }
  ],
  "scene": 0,
  "scenes": [
    {
      "nodes": [
        0,
        1
      ]
    }
  ],
  "textures": [
    {
      "source": 0
    },
    {
      "source": 1
    }
  ]
}