{
  "asset": {
    "copyright": "",
    "generator": "SharpGLTF 1.0.0",
    "version": "2.0"
  },
  "accessors": [
    {
      "name": "POSITION",
      "bufferView": 0,
      "componentType": 5126,
      "count": 3483,
      "max": [
        -645.54669189453125,
        60.343803405761719,
        344.4351806640625
      ],
      "min": [
        -678.12548828125,
        42.273952484130859,
        306.20230102539063
      ],
      "type": "VEC3"
    },
    {
      "name": "NORMAL",
      "bufferView": 0,
      "byteOffset": 12,
      "componentType": 5126,
      "count": 3483,
      "max": [
        0.99999266862869263,
        0.99998492002487183,
        0.99999207258224487
      ],
      "min": [
        -0.99932098388671875,
        -0.99917292594909668,
        -0.99915295839309692
      ],
      "type": "VEC3"
    },
    {
      "name": "TEXCOORD_0",
      "bufferView": 0,
      "byteOffset": 24,
      "componentType": 5126,
      "count": 3483,
      "max": [
        0.998046875,
        0.9990234375
      ],
      "min": [
        0.001953125,
        0.0009765625
      ],
      "type": "VEC2"
    },
    {
      "bufferView": 1,
      "componentType": 5123,
      "count": 8640,
      "type": "SCALAR"
    },
    {
      "name": "POSITION",
      "bufferView": 0,
      "byteOffset": 111456,
      "componentType": 5126,
      "count": 617,
      "max": [
        -645.54833984375,
        60.035415649414063,
        344.43496704101563
      ],
      "min": [
        -677.66571044921875,
        43.198783874511719,
        306.20468139648438
      ],
      "type": "VEC3"
    },
    {
      "name": "NORMAL",
      "bufferView": 0,
      "byteOffset": 111468,
      "componentType": 5126,
      "count": 617,
      "max": [
        0.99999266862869263,
        0.99998492002487183,
        0.99817442893981934
      ],
      "min": [
        -0.99798238277435303,
        -0.96007049083709717,
        -0.99914771318435669
      ],
      "type": "VEC3"
    },
    {
      "name": "TEXCOORD_0",
      "bufferView": 0,
      "byteOffset": 111480,
      "componentType": 5126,
      "count": 617,
      "max": [
        0.998046875,
        0.998046875
      ],
      "min": [
        0.001953125,
        0.787109375
      ],
      "type": "VEC2"
    },
    {
      "bufferView": 1,
      "byteOffset": 17280,
      "componentType": 5123,
      "count": 1482,
      "type": "SCALAR"
    }
  ],
  "bufferViews": [
    {
      "buffer": 0,
      "byteLength": 131200,
      "byteStride": 32,
      "target": 34962
    },
    {
      "buffer": 0,
      "byteLength": 20244,
      "byteOffset": 131200,
      "target": 34963
    }
  ],
  "buffers": [
    {
      "byteLength": 151444,
      "uri": "20525362525140626056_LOD00.bin"
    }
  ],
  "images": [
    {
      "uri": "20525362525140626056_LOD00_0.png"
    },
    {
      "uri": "20525362525140626056_LOD00_1.png"
    }
  ],
  "materials": [
    {
      "doubleSided": true,
      "pbrMetallicRoughness": {
        "baseColorTexture": {
          "index": 0
        },
        "metallicFactor": 0
      }
    },
    {
      "doubleSided": true,
      "pbrMetallicRoughness": {
        "baseColorTexture": {
          "index": 1
        },
        "metallicFactor": 0
      }
    }
  ],
  "meshes": [
    {
      "name": "20525362525140626056_0",
      "primitives": [
        {
          "attributes": {
            "POSITION": 0,
            "NORMAL": 1,
            "TEXCOORD_0": 2
          },
          "indices": 3,
          "material": 0
        }
      ]
    },
    {
      "name": "20525362525140626056_1",
      "primitives": [
        {
          "attributes": {
            "POSITION": 4,
            "NORMAL": 5,
            "TEXCOORD_0": 6
          },
          "indices": 7,
          "material": 1
        }
      ]
    }
  ],
  "nodes": [
    {
      "mesh": 0
    },
    {
      "mesh": 1
    }
  ],
  "scene": 0,
  "scenes": [
    {
      "nodes": [
        0,
        1
      ]
    }
  ],
  "textures": [
    {
      "source": 0
    },
    {
      "source": 1
    }
  ]
}