{
  "asset": {
    "copyright": "",
    "generator": "SharpGLTF 1.0.0",
    "version": "2.0"
  },
  "accessors": [
    {
      "name": "POSITION",
      "bufferView": 0,
      "componentType": 5126,
      "count": 5068,
      "max": [
        -741.68084716796875,
        74.538780212402344,
        497.45407104492188
      ],
      "min": [
        -773.9547119140625,
        46.271205902099609,
        459.0692138671875
      ],
      "type": "VEC3"
    },
    {
      "name": "NORMAL",
      "bufferView": 0,
      "byteOffset": 12,
      "componentType": 5126,
      "count": 5068,
      "max": [
        0.99999266862869263,
        0.99998509883880615,
        0.99999195337295532
      ],
      "min": [
        -0.99932152032852173,
        -0.99122124910354614,
        -0.99931246042251587
      ],
      "type": "VEC3"
    },
    {
      "name": "TEXCOORD_0",
      "bufferView": 0,
      "byteOffset": 24,
      "componentType": 5126,
      "count": 5068,
      "max": [
        0.998046875,
        0.9990234375
      ],
      "min": [
        0.001953125,
        0.0009765625
      ],
      "type": "VEC2"
    },
    {
      "bufferView": 1,
      "componentType": 5123,
      "count": 12090,
      "type": "SCALAR"
    },
    {
      "name": "POSITION",
      "bufferView": 0,
      "byteOffset": 162176,
      "componentType": 5126,
      "count": 2202,
      "max": [
        -741.836669921875,
        74.229331970214844,
        497.3011474609375
      ],
      "min": [
        -773.95452880859375,
        46.579051971435547,
        459.06979370117188
      ],
      "type": "VEC3"
    },
    {
      "name": "NORMAL",
      "bufferView": 0,
      "byteOffset": 162188,
      "componentType": 5126,
      "count": 2202,
      "max": [
        0.99999266862869263,
        0.99998509883880615,
        0.99999195337295532
      ],
      "min": [
        -0.99932152032852173,
        -0.99639171361923218,
        -0.99816340208053589
      ],
      "type": "VEC3"
    },
    {
      "name": "TEXCOORD_0",
      "bufferView": 0,
      "byteOffset": 162200,
      "componentType": 5126,
      "count": 2202,
      "max": [
        0.998046875,
        0.998046875
      ],
      "min": [
        0.001953125,
        0.291015625
      ],
      "type": "VEC2"
    },
    {
      "bufferView": 1,
      "byteOffset": 24180,
      "componentType": 5123,
      "count": 4974,
      "type": "SCALAR"
    }
  ],
  "bufferViews": [
    {
      "buffer": 0,
      "byteLength": 232640,
      "byteStride": 32,
      "target": 34962
    },
    {
      "buffer": 0,
      "byteLength": 34128,
      "byteOffset": 232640,
      "target": 34963
    }
  ],
  "buffers": [
    {
      "byteLength": 266768,
      "uri": "20525362525140626347_LOD00.bin"
    }
  ],
  "images": [
    {
      "uri": "20525362525140626347_LOD00_0.png"
    },
    {
      "uri": "20525362525140626347_LOD00_1.png"
    }
  ],
  "materials": [
    {
      "doubleSided": true,
      "pbrMetallicRoughness": {
        "baseColorTexture": {
          "index": 0
        },
        "metallicFactor": 0
      }
    },
    {
      "doubleSided": true,
      "pbrMetallicRoughness": {
        "baseColorTexture": {
          "index": 1
        },
        "metallicFactor": 0
      }
    }
  ],
  "meshes": [
    {
      "name": "20525362525140626347_0",
      "primitives": [
        {
          "attributes": {
            "POSITION": 0,
            "NORMAL": 1,
            "TEXCOORD_0": 2
          },
          "indices": 3,
          "material": 0
        }
      ]
    },
    {
      "name": "20525362525140626347_1",
      "primitives": [
        {
          "attributes": {
            "POSITION": 4,
            "NORMAL": 5,
            "TEXCOORD_0": 6
          },
          "indices": 7,
          "material": 1
        }
      ]
    }
  ],
  "nodes": [
    {
      "mesh": 0
    },
    {
      "mesh": 1
    }
  ],
  "scene": 0,
  "scenes": [
    {
      "nodes": [
        0,
        1
      ]
    }
  ],
  "textures": [
    {
      "source": 0
    },
    {
      "source": 1
    }
  ]
}