{
  "asset": {
    "copyright": "",
    "generator": "SharpGLTF 1.0.0",
    "version": "2.0"
  },
  "accessors": [
    {
      "name": "POSITION",
      "bufferView": 0,
      "componentType": 5126,
      "count": 2032,
      "max": [
        -741.84893798828125,
        59.564510345458984,
        306.22738647460938
      ],
      "min": [
        -773.9678955078125,
        41.951091766357422,
        267.993896484375
      ],
      "type": "VEC3"
    },
    {
      "name": "NORMAL",
      "bufferView": 0,
      "byteOffset": 12,
      "componentType": 5126,
      "count": 2032,
      "max": [
        0.99999266862869263,
        0.99998509883880615,
        0.99999207258224487
      ],
      "min": [
        -0.99999183416366577,
        -1,
        -0.99999237060546875
      ],
      "type": "VEC3"
    },
    {
      "name": "TEXCOORD_0",
      "bufferView": 0,
      "byteOffset": 24,
      "componentType": 5126,
      "count": 2032,
      "max": [
        0.998046875,
        0.9990234375
      ],
      "min": [
        0.001953125,
        0.0009765625
      ],
      "type": "VEC2"
    },
    {
      "bufferView": 1,
      "componentType": 5123,
      "count": 4566,
      "type": "SCALAR"
    },
    {
      "name": "POSITION",
      "bufferView": 0,
      "byteOffset": 65024,
      "componentType": 5126,
      "count": 1052,
      "max": [
        -741.851318359375,
        59.564510345458984,
        306.22518920898438
      ],
      "min": [
        -773.9678955078125,
        44.118896484375,
        267.99432373046875
      ],
      "type": "VEC3"
    },
    {
      "name": "NORMAL",
      "bufferView": 0,
      "byteOffset": 65036,
      "componentType": 5126,
      "count": 1052,
      "max": [
        0.9989895224571228,
        0.99998509883880615,
        0.99931603670120239
      ],
      "min": [
        -0.98291629552841187,
        -0.99509745836257935,
        -0.99524766206741333
      ],
      "type": "VEC3"
    },
    {
      "name": "TEXCOORD_0",
      "bufferView": 0,
      "byteOffset": 65048,
      "componentType": 5126,
      "count": 1052,
      "max": [
        0.998046875,
        0.998046875
      ],
      "min": [
        0.001953125,
        0.541015625
      ],
      "type": "VEC2"
    },
    {
      "bufferView": 1,
      "byteOffset": 9132,
      "componentType": 5123,
      "count": 2475,
      "type": "SCALAR"
    }
  ],
  "bufferViews": [
    {
      "buffer": 0,
      "byteLength": 98688,
      "byteStride": 32,
      "target": 34962
    },
    {
      "buffer": 0,
      "byteLength": 14082,
      "byteOffset": 98688,
      "target": 34963
    }
  ],
  "buffers": [
    {
      "byteLength": 112772,
      "uri": "20525362525140626145_LOD00.bin"
    }
  ],
  "images": [
    {
      "uri": "20525362525140626145_LOD00_0.png"
    },
    {
      "uri": "20525362525140626145_LOD00_1.png"
    }
  ],
  "materials": [
    {
      "doubleSided": true,
      "pbrMetallicRoughness": {
        "baseColorTexture": {
          "index": 0
        },
        "metallicFactor": 0
      }
    },
    {
      "doubleSided": true,
      "pbrMetallicRoughness": {
        "baseColorTexture": {
          "index": 1
        },
        "metallicFactor": 0
      }
    }
  ],
  "meshes": [
    {
      "name": "20525362525140626145_0",
      "primitives": [
        {
          "attributes": {
            "POSITION": 0,
            "NORMAL": 1,
            "TEXCOORD_0": 2
          },
          "indices": 3,
          "material": 0
        }
      ]
    },
    {
      "name": "20525362525140626145_1",
      "primitives": [
        {
          "attributes": {
            "POSITION": 4,
            "NORMAL": 5,
            "TEXCOORD_0": 6
          },
          "indices": 7,
          "material": 1
        }
      ]
    }
  ],
  "nodes": [
    {
      "mesh": 0
    },
    {
      "mesh": 1
    }
  ],
  "scene": 0,
  "scenes": [
    {
      "nodes": [
        0,
        1
      ]
    }
  ],
  "textures": [
    {
      "source": 0
    },
    {
      "source": 1
    }
  ]
}