{
  "asset": {
    "copyright": "",
    "generator": "SharpGLTF 1.0.0",
    "version": "2.0"
  },
  "accessors": [
    {
      "name": "POSITION",
      "bufferView": 0,
      "componentType": 5126,
      "count": 1548,
      "max": [
        -3.5515170097351074,
        135.26869201660156,
        344.41766357421875
      ],
      "min": [
        -35.358493804931641,
        110.24169158935547,
        306.18557739257813
      ],
      "type": "VEC3"
    },
    {
      "name": "NORMAL",
      "bufferView": 0,
      "byteOffset": 12,
      "componentType": 5126,
      "count": 1548,
      "max": [
        0.9999922513961792,
        0.99998468160629272,
        0.98335975408554077
      ],
      "min": [
        -0.9999922513961792,
        -1,
        -0.99816781282424927
      ],
      "type": "VEC3"
    },
    {
      "name": "TEXCOORD_0",
      "bufferView": 0,
      "byteOffset": 24,
      "componentType": 5126,
      "count": 1548,
      "max": [
        0.998046875,
        0.9990234375
      ],
      "min": [
        0.001953125,
        0.0009765625
      ],
      "type": "VEC2"
    },
    {
      "bufferView": 1,
      "componentType": 5123,
      "count": 3246,
      "type": "SCALAR"
    },
    {
      "name": "POSITION",
      "bufferView": 0,
      "byteOffset": 49536,
      "componentType": 5126,
      "count": 586,
      "max": [
        -3.5515170097351074,
        132.9515380859375,
        344.41766357421875
      ],
      "min": [
        -35.204090118408203,
        124.76294708251953,
        306.18624877929688
      ],
      "type": "VEC3"
    },
    {
      "name": "NORMAL",
      "bufferView": 0,
      "byteOffset": 49548,
      "componentType": 5126,
      "count": 586,
      "max": [
        0.9999922513961792,
        0.99998468160629272,
        0.81412613391876221
      ],
      "min": [
        -0.99489688873291016,
        -0.99640136957168579,
        -0.97072392702102661
      ],
      "type": "VEC3"
    },
    {
      "name": "TEXCOORD_0",
      "bufferView": 0,
      "byteOffset": 49560,
      "componentType": 5126,
      "count": 586,
      "max": [
        0.998046875,
        0.998046875
      ],
      "min": [
        0.001953125,
        0.447265625
      ],
      "type": "VEC2"
    },
    {
      "bufferView": 1,
      "byteOffset": 6492,
      "componentType": 5123,
      "count": 1356,
      "type": "SCALAR"
    }
  ],
  "bufferViews": [
    {
      "buffer": 0,
      "byteLength": 68288,
      "byteStride": 32,
      "target": 34962
    },
    {
      "buffer": 0,
      "byteLength": 9204,
      "byteOffset": 68288,
      "target": 34963
    }
  ],
  "buffers": [
    {
      "byteLength": 77492,
      "uri": "20525362525051727516_LOD00.bin"
    }
  ],
  "images": [
    {
      "uri": "20525362525051727516_LOD00_0.png"
    },
    {
      "uri": "20525362525051727516_LOD00_1.png"
    }
  ],
  "materials": [
    {
      "doubleSided": true,
      "pbrMetallicRoughness": {
        "baseColorTexture": {
          "index": 0
        },
        "metallicFactor": 0
      }
    },
    {
      "doubleSided": true,
      "pbrMetallicRoughness": {
        "baseColorTexture": {
          "index": 1
        },
        "metallicFactor": 0
      }
    }
  ],
  "meshes": [
    {
      "name": "20525362525051727516_0",
      "primitives": [
        {
          "attributes": {
            "POSITION": 0,
            "NORMAL": 1,
            "TEXCOORD_0": 2
          },
          "indices": 3,
          "material": 0
        }
      ]
    },
    {
      "name": "20525362525051727516_1",
      "primitives": [
        {
          "attributes": {
            "POSITION": 4,
            "NORMAL": 5,
            "TEXCOORD_0": 6
          },
          "indices": 7,
          "material": 1
        }
      ]
    }
  ],
  "nodes": [
    {
      "mesh": 0
    },
    {
      "mesh": 1
    }
  ],
  "scene": 0,
  "scenes": [
    {
      "nodes": [
        0,
        1
      ]
    }
  ],
  "textures": [
    {
      "source": 0
    },
    {
      "source": 1
    }
  ]
}