{
  "asset": {
    "copyright": "",
    "generator": "SharpGLTF 1.0.0",
    "version": "2.0"
  },
  "accessors": [
    {
      "name": "POSITION",
      "bufferView": 0,
      "componentType": 5126,
      "count": 266,
      "max": [
        -484.59646606445313,
        37.829498291015625,
        104.18910217285156
      ],
      "min": [
        -496.0225830078125,
        37.056671142578125,
        76.595550537109375
      ],
      "type": "VEC3"
    },
    {
      "name": "NORMAL",
      "bufferView": 0,
      "byteOffset": 12,
      "componentType": 5126,
      "count": 266,
      "max": [
        0.64241510629653931,
        0.9999847412109375,
        0.30573698878288269
      ],
      "min": [
        -0.14384643733501434,
        0.57517904043197632,
        -0.50643050670623779
      ],
      "type": "VEC3"
    },
    {
      "name": "TEXCOORD_0",
      "bufferView": 0,
      "byteOffset": 24,
      "componentType": 5126,
      "count": 266,
      "max": [
        0.998046875,
        0.998046875
      ],
      "min": [
        0.001953125,
        0.763671875
      ],
      "type": "VEC2"
    },
    {
      "bufferView": 1,
      "componentType": 5123,
      "count": 747,
      "type": "SCALAR"
    }
  ],
  "bufferViews": [
    {
      "buffer": 0,
      "byteLength": 8512,
      "byteStride": 32,
      "target": 34962
    },
    {
      "buffer": 0,
      "byteLength": 1494,
      "byteOffset": 8512,
      "target": 34963
    }
  ],
  "buffers": [
    {
      "byteLength": 10008,
      "uri": "20525362525051735163_LOD00.bin"
    }
  ],
  "images": [
    {
      "uri": "20525362525051735163_LOD00.png"
    }
  ],
  "materials": [
    {
      "doubleSided": true,
      "pbrMetallicRoughness": {
        "baseColorTexture": {
          "index": 0
        },
        "metallicFactor": 0
      }
    }
  ],
  "meshes": [
    {
      "name": "20525362525051735163_0",
      "primitives": [
        {
          "attributes": {
            "POSITION": 0,
            "NORMAL": 1,
            "TEXCOORD_0": 2
          },
          "indices": 3,
          "material": 0
        }
      ]
    }
  ],
  "nodes": [
    {
      "mesh": 0
    }
  ],
  "scene": 0,
  "scenes": [
    {
      "nodes": [
        0
      ]
    }
  ],
  "textures": [
    {
      "source": 0
    }
  ]
}