{
  "asset": {
    "copyright": "",
    "generator": "SharpGLTF 1.0.0",
    "version": "2.0"
  },
  "accessors": [
    {
      "name": "POSITION",
      "bufferView": 0,
      "componentType": 5126,
      "count": 4037,
      "max": [
        -805.5819091796875,
        69.594650268554688,
        382.662841796875
      ],
      "min": [
        -838.163330078125,
        46.733318328857422,
        344.42941284179688
      ],
      "type": "VEC3"
    },
    {
      "name": "NORMAL",
      "bufferView": 0,
      "byteOffset": 12,
      "componentType": 5126,
      "count": 4037,
      "max": [
        0.9999927282333374,
        0.99998515844345093,
        0.9999920129776001
      ],
      "min": [
        -0.999991774559021,
        -0.99819564819335938,
        -0.99914699792861938
      ],
      "type": "VEC3"
    },
    {
      "name": "TEXCOORD_0",
      "bufferView": 0,
      "byteOffset": 24,
      "componentType": 5126,
      "count": 4037,
      "max": [
        0.998046875,
        0.9990234375
      ],
      "min": [
        0.001953125,
        0.0009765625
      ],
      "type": "VEC2"
    },
    {
      "bufferView": 1,
      "componentType": 5123,
      "count": 10212,
      "type": "SCALAR"
    },
    {
      "name": "POSITION",
      "bufferView": 0,
      "byteOffset": 129184,
      "componentType": 5126,
      "count": 1868,
      "max": [
        -805.73626708984375,
        69.594650268554688,
        382.66256713867188
      ],
      "min": [
        -838.16290283203125,
        46.887969970703125,
        344.42941284179688
      ],
      "type": "VEC3"
    },
    {
      "name": "NORMAL",
      "bufferView": 0,
      "byteOffset": 129196,
      "componentType": 5126,
      "count": 1868,
      "max": [
        0.9999927282333374,
        0.99998515844345093,
        0.9999920129776001
      ],
      "min": [
        -0.999991774559021,
        -0.98935449123382568,
        -0.99914699792861938
      ],
      "type": "VEC3"
    },
    {
      "name": "TEXCOORD_0",
      "bufferView": 0,
      "byteOffset": 129208,
      "componentType": 5126,
      "count": 1868,
      "max": [
        0.998046875,
        0.998046875
      ],
      "min": [
        0.001953125,
        0.291015625
      ],
      "type": "VEC2"
    },
    {
      "bufferView": 1,
      "byteOffset": 20424,
      "componentType": 5123,
      "count": 4443,
      "type": "SCALAR"
    }
  ],
  "bufferViews": [
    {
      "buffer": 0,
      "byteLength": 188960,
      "byteStride": 32,
      "target": 34962
    },
    {
      "buffer": 0,
      "byteLength": 29310,
      "byteOffset": 188960,
      "target": 34963
    }
  ],
  "buffers": [
    {
      "byteLength": 218272,
      "uri": "20525362525140626175_LOD00.bin"
    }
  ],
  "images": [
    {
      "uri": "20525362525140626175_LOD00_0.png"
    },
    {
      "uri": "20525362525140626175_LOD00_1.png"
    }
  ],
  "materials": [
    {
      "doubleSided": true,
      "pbrMetallicRoughness": {
        "baseColorTexture": {
          "index": 0
        },
        "metallicFactor": 0
      }
    },
    {
      "doubleSided": true,
      "pbrMetallicRoughness": {
        "baseColorTexture": {
          "index": 1
        },
        "metallicFactor": 0
      }
    }
  ],
  "meshes": [
    {
      "name": "20525362525140626175_0",
      "primitives": [
        {
          "attributes": {
            "POSITION": 0,
            "NORMAL": 1,
            "TEXCOORD_0": 2
          },
          "indices": 3,
          "material": 0
        }
      ]
    },
    {
      "name": "20525362525140626175_1",
      "primitives": [
        {
          "attributes": {
            "POSITION": 4,
            "NORMAL": 5,
            "TEXCOORD_0": 6
          },
          "indices": 7,
          "material": 1
        }
      ]
    }
  ],
  "nodes": [
    {
      "mesh": 0
    },
    {
      "mesh": 1
    }
  ],
  "scene": 0,
  "scenes": [
    {
      "nodes": [
        0,
        1
      ]
    }
  ],
  "textures": [
    {
      "source": 0
    },
    {
      "source": 1
    }
  ]
}