{
  "asset": {
    "copyright": "",
    "generator": "SharpGLTF 1.0.0",
    "version": "2.0"
  },
  "accessors": [
    {
      "name": "POSITION",
      "bufferView": 0,
      "componentType": 5126,
      "count": 227,
      "max": [
        -588.6046142578125,
        110.69509124755859,
        382.64834594726563
      ],
      "min": [
        -609.29937744140625,
        74.235031127929688,
        344.41552734375
      ],
      "type": "VEC3"
    },
    {
      "name": "NORMAL",
      "bufferView": 0,
      "byteOffset": 12,
      "componentType": 5126,
      "count": 227,
      "max": [
        0.99999260902404785,
        0.043278291821479797,
        0.99999195337295532
      ],
      "min": [
        -0.99999189376831055,
        -0.0056767817586660385,
        -0.99999243021011353
      ],
      "type": "VEC3"
    },
    {
      "name": "TEXCOORD_0",
      "bufferView": 0,
      "byteOffset": 24,
      "componentType": 5126,
      "count": 227,
      "max": [
        0.974609375,
        0.9990234375
      ],
      "min": [
        0.001953125,
        0.0107421875
      ],
      "type": "VEC2"
    },
    {
      "bufferView": 1,
      "componentType": 5123,
      "count": 651,
      "type": "SCALAR"
    },
    {
      "name": "POSITION",
      "bufferView": 0,
      "byteOffset": 7264,
      "componentType": 5126,
      "count": 81,
      "max": [
        -605.59039306640625,
        110.69187164306641,
        382.64935302734375
      ],
      "min": [
        -609.2977294921875,
        74.235099792480469,
        344.41653442382813
      ],
      "type": "VEC3"
    },
    {
      "name": "NORMAL",
      "bufferView": 0,
      "byteOffset": 7276,
      "componentType": 5126,
      "count": 81,
      "max": [
        5.8554811403155327E-05,
        0.051217708736658096,
        0.99999195337295532
      ],
      "min": [
        -0.99999189376831055,
        -0.0056767817586660385,
        -0.99999243021011353
      ],
      "type": "VEC3"
    },
    {
      "name": "TEXCOORD_0",
      "bufferView": 0,
      "byteOffset": 7288,
      "componentType": 5126,
      "count": 81,
      "max": [
        0.916015625,
        0.998046875
      ],
      "min": [
        0.001953125,
        0.537109375
      ],
      "type": "VEC2"
    },
    {
      "bufferView": 1,
      "byteOffset": 1302,
      "componentType": 5123,
      "count": 234,
      "type": "SCALAR"
    }
  ],
  "bufferViews": [
    {
      "buffer": 0,
      "byteLength": 9856,
      "byteStride": 32,
      "target": 34962
    },
    {
      "buffer": 0,
      "byteLength": 1770,
      "byteOffset": 9856,
      "target": 34963
    }
  ],
  "buffers": [
    {
      "byteLength": 11628,
      "uri": "20525362525140626420_LOD00.bin"
    }
  ],
  "images": [
    {
      "uri": "20525362525140626420_LOD00_0.png"
    },
    {
      "uri": "20525362525140626420_LOD00_1.png"
    }
  ],
  "materials": [
    {
      "doubleSided": true,
      "pbrMetallicRoughness": {
        "baseColorTexture": {
          "index": 0
        },
        "metallicFactor": 0
      }
    },
    {
      "doubleSided": true,
      "pbrMetallicRoughness": {
        "baseColorTexture": {
          "index": 1
        },
        "metallicFactor": 0
      }
    }
  ],
  "meshes": [
    {
      "name": "20525362525140626420_0",
      "primitives": [
        {
          "attributes": {
            "POSITION": 0,
            "NORMAL": 1,
            "TEXCOORD_0": 2
          },
          "indices": 3,
          "material": 0
        }
      ]
    },
    {
      "name": "20525362525140626420_1",
      "primitives": [
        {
          "attributes": {
            "POSITION": 4,
            "NORMAL": 5,
            "TEXCOORD_0": 6
          },
          "indices": 7,
          "material": 1
        }
      ]
    }
  ],
  "nodes": [
    {
      "mesh": 0
    },
    {
      "mesh": 1
    }
  ],
  "scene": 0,
  "scenes": [
    {
      "nodes": [
        0,
        1
      ]
    }
  ],
  "textures": [
    {
      "source": 0
    },
    {
      "source": 1
    }
  ]
}