{
  "asset": {
    "copyright": "",
    "generator": "SharpGLTF 1.0.0",
    "version": "2.0"
  },
  "accessors": [
    {
      "name": "POSITION",
      "bufferView": 0,
      "componentType": 5126,
      "count": 1127,
      "max": [
        -228.24343872070313,
        53.400520324707031,
        650.13677978515625
      ],
      "min": [
        -260.35888671875,
        40.580905914306641,
        611.90472412109375
      ],
      "type": "VEC3"
    },
    {
      "name": "NORMAL",
      "bufferView": 0,
      "byteOffset": 12,
      "componentType": 5126,
      "count": 1127,
      "max": [
        0.99915462732315063,
        0.9999849796295166,
        0.99999189376831055
      ],
      "min": [
        -0.99898278713226318,
        -0.99916744232177734,
        -0.99931120872497559
      ],
      "type": "VEC3"
    },
    {
      "name": "TEXCOORD_0",
      "bufferView": 0,
      "byteOffset": 24,
      "componentType": 5126,
      "count": 1127,
      "max": [
        0.998046875,
        0.9990234375
      ],
      "min": [
        0.001953125,
        0.0009765625
      ],
      "type": "VEC2"
    },
    {
      "bufferView": 1,
      "componentType": 5123,
      "count": 2574,
      "type": "SCALAR"
    },
    {
      "name": "POSITION",
      "bufferView": 0,
      "byteOffset": 36064,
      "componentType": 5126,
      "count": 689,
      "max": [
        -232.258056640625,
        53.70977783203125,
        650.1365966796875
      ],
      "min": [
        -260.35894775390625,
        41.503963470458984,
        615.14288330078125
      ],
      "type": "VEC3"
    },
    {
      "name": "NORMAL",
      "bufferView": 0,
      "byteOffset": 36076,
      "componentType": 5126,
      "count": 689,
      "max": [
        0.99898594617843628,
        0.99998414516448975,
        0.99486899375915527
      ],
      "min": [
        -0.99931836128234863,
        -0.98991560935974121,
        -0.99053347110748291
      ],
      "type": "VEC3"
    },
    {
      "name": "TEXCOORD_0",
      "bufferView": 0,
      "byteOffset": 36088,
      "componentType": 5126,
      "count": 689,
      "max": [
        0.998046875,
        0.998046875
      ],
      "min": [
        0.001953125,
        0.349609375
      ],
      "type": "VEC2"
    },
    {
      "bufferView": 1,
      "byteOffset": 5148,
      "componentType": 5123,
      "count": 1341,
      "type": "SCALAR"
    }
  ],
  "bufferViews": [
    {
      "buffer": 0,
      "byteLength": 58112,
      "byteStride": 32,
      "target": 34962
    },
    {
      "buffer": 0,
      "byteLength": 7830,
      "byteOffset": 58112,
      "target": 34963
    }
  ],
  "buffers": [
    {
      "byteLength": 65944,
      "uri": "20525362525053514147_LOD00.bin"
    }
  ],
  "images": [
    {
      "uri": "20525362525053514147_LOD00_0.png"
    },
    {
      "uri": "20525362525053514147_LOD00_1.png"
    }
  ],
  "materials": [
    {
      "doubleSided": true,
      "pbrMetallicRoughness": {
        "baseColorTexture": {
          "index": 0
        },
        "metallicFactor": 0
      }
    },
    {
      "doubleSided": true,
      "pbrMetallicRoughness": {
        "baseColorTexture": {
          "index": 1
        },
        "metallicFactor": 0
      }
    }
  ],
  "meshes": [
    {
      "name": "20525362525053514147_0",
      "primitives": [
        {
          "attributes": {
            "POSITION": 0,
            "NORMAL": 1,
            "TEXCOORD_0": 2
          },
          "indices": 3,
          "material": 0
        }
      ]
    },
    {
      "name": "20525362525053514147_1",
      "primitives": [
        {
          "attributes": {
            "POSITION": 4,
            "NORMAL": 5,
            "TEXCOORD_0": 6
          },
          "indices": 7,
          "material": 1
        }
      ]
    }
  ],
  "nodes": [
    {
      "mesh": 0
    },
    {
      "mesh": 1
    }
  ],
  "scene": 0,
  "scenes": [
    {
      "nodes": [
        0,
        1
      ]
    }
  ],
  "textures": [
    {
      "source": 0
    },
    {
      "source": 1
    }
  ]
}