{
  "asset": {
    "copyright": "",
    "generator": "SharpGLTF 1.0.0",
    "version": "2.0"
  },
  "accessors": [
    {
      "name": "POSITION",
      "bufferView": 0,
      "componentType": 5126,
      "count": 2869,
      "max": [
        -99.849334716796875,
        74.266983032226563,
        535.950927734375
      ],
      "min": [
        -131.96476745605469,
        37.504024505615234,
        497.105712890625
      ],
      "type": "VEC3"
    },
    {
      "name": "NORMAL",
      "bufferView": 0,
      "byteOffset": 12,
      "componentType": 5126,
      "count": 2869,
      "max": [
        0.99999231100082397,
        0.9999847412109375,
        0.99999195337295532
      ],
      "min": [
        -0.99999219179153442,
        -0.99917465448379517,
        -0.99999254941940308
      ],
      "type": "VEC3"
    },
    {
      "name": "TEXCOORD_0",
      "bufferView": 0,
      "byteOffset": 24,
      "componentType": 5126,
      "count": 2869,
      "max": [
        0.9990234375,
        0.9990234375
      ],
      "min": [
        0.0009765625,
        0.0009765625
      ],
      "type": "VEC2"
    },
    {
      "bufferView": 1,
      "componentType": 5123,
      "count": 6900,
      "type": "SCALAR"
    },
    {
      "name": "POSITION",
      "bufferView": 0,
      "byteOffset": 91808,
      "componentType": 5126,
      "count": 353,
      "max": [
        -99.849372863769531,
        72.567276000976563,
        535.4901123046875
      ],
      "min": [
        -131.9644775390625,
        38.893360137939453,
        497.72238159179688
      ],
      "type": "VEC3"
    },
    {
      "name": "NORMAL",
      "bufferView": 0,
      "byteOffset": 91820,
      "componentType": 5126,
      "count": 353,
      "max": [
        0.99999231100082397,
        0.9999847412109375,
        0.96256899833679199
      ],
      "min": [
        -0.73450106382369995,
        -0.91650086641311646,
        -0.99931186437606812
      ],
      "type": "VEC3"
    },
    {
      "name": "TEXCOORD_0",
      "bufferView": 0,
      "byteOffset": 91832,
      "componentType": 5126,
      "count": 353,
      "max": [
        0.998046875,
        0.998046875
      ],
      "min": [
        0.001953125,
        0.791015625
      ],
      "type": "VEC2"
    },
    {
      "bufferView": 1,
      "byteOffset": 13800,
      "componentType": 5123,
      "count": 882,
      "type": "SCALAR"
    }
  ],
  "bufferViews": [
    {
      "buffer": 0,
      "byteLength": 103104,
      "byteStride": 32,
      "target": 34962
    },
    {
      "buffer": 0,
      "byteLength": 15564,
      "byteOffset": 103104,
      "target": 34963
    }
  ],
  "buffers": [
    {
      "byteLength": 118668,
      "uri": "20525362525051736265_LOD00.bin"
    }
  ],
  "images": [
    {
      "uri": "20525362525051736265_LOD00_0.png"
    },
    {
      "uri": "20525362525051736265_LOD00_1.png"
    }
  ],
  "materials": [
    {
      "doubleSided": true,
      "pbrMetallicRoughness": {
        "baseColorTexture": {
          "index": 0
        },
        "metallicFactor": 0
      }
    },
    {
      "doubleSided": true,
      "pbrMetallicRoughness": {
        "baseColorTexture": {
          "index": 1
        },
        "metallicFactor": 0
      }
    }
  ],
  "meshes": [
    {
      "name": "20525362525051736265_0",
      "primitives": [
        {
          "attributes": {
            "POSITION": 0,
            "NORMAL": 1,
            "TEXCOORD_0": 2
          },
          "indices": 3,
          "material": 0
        }
      ]
    },
    {
      "name": "20525362525051736265_1",
      "primitives": [
        {
          "attributes": {
            "POSITION": 4,
            "NORMAL": 5,
            "TEXCOORD_0": 6
          },
          "indices": 7,
          "material": 1
        }
      ]
    }
  ],
  "nodes": [
    {
      "mesh": 0
    },
    {
      "mesh": 1
    }
  ],
  "scene": 0,
  "scenes": [
    {
      "nodes": [
        0,
        1
      ]
    }
  ],
  "textures": [
    {
      "source": 0
    },
    {
      "source": 1
    }
  ]
}