{
  "asset": {
    "copyright": "",
    "generator": "SharpGLTF 1.0.0",
    "version": "2.0"
  },
  "accessors": [
    {
      "name": "POSITION",
      "bufferView": 0,
      "componentType": 5126,
      "count": 1374,
      "max": [
        -580.877685546875,
        74.247756958007813,
        459.23162841796875
      ],
      "min": [
        -613.61248779296875,
        43.817962646484375,
        420.84359741210938
      ],
      "type": "VEC3"
    },
    {
      "name": "NORMAL",
      "bufferView": 0,
      "byteOffset": 12,
      "componentType": 5126,
      "count": 1374,
      "max": [
        0.99999254941940308,
        0.99998509883880615,
        0.99999195337295532
      ],
      "min": [
        -0.99999189376831055,
        -1,
        -0.9999924898147583
      ],
      "type": "VEC3"
    },
    {
      "name": "TEXCOORD_0",
      "bufferView": 0,
      "byteOffset": 24,
      "componentType": 5126,
      "count": 1374,
      "max": [
        0.998046875,
        0.9990234375
      ],
      "min": [
        0.001953125,
        0.0009765625
      ],
      "type": "VEC2"
    },
    {
      "bufferView": 1,
      "componentType": 5123,
      "count": 3030,
      "type": "SCALAR"
    },
    {
      "name": "POSITION",
      "bufferView": 0,
      "byteOffset": 43968,
      "componentType": 5126,
      "count": 757,
      "max": [
        -581.34100341796875,
        74.24871826171875,
        459.0775146484375
      ],
      "min": [
        -613.4578857421875,
        43.970870971679688,
        420.84365844726563
      ],
      "type": "VEC3"
    },
    {
      "name": "NORMAL",
      "bufferView": 0,
      "byteOffset": 43980,
      "componentType": 5126,
      "count": 757,
      "max": [
        0.99999254941940308,
        0.99998509883880615,
        0.99999195337295532
      ],
      "min": [
        -0.99999189376831055,
        -1,
        -0.9999924898147583
      ],
      "type": "VEC3"
    },
    {
      "name": "TEXCOORD_0",
      "bufferView": 0,
      "byteOffset": 43992,
      "componentType": 5126,
      "count": 757,
      "max": [
        0.998046875,
        0.998046875
      ],
      "min": [
        0.001953125,
        0.287109375
      ],
      "type": "VEC2"
    },
    {
      "bufferView": 1,
      "byteOffset": 6060,
      "componentType": 5123,
      "count": 1863,
      "type": "SCALAR"
    }
  ],
  "bufferViews": [
    {
      "buffer": 0,
      "byteLength": 68192,
      "byteStride": 32,
      "target": 34962
    },
    {
      "buffer": 0,
      "byteLength": 9786,
      "byteOffset": 68192,
      "target": 34963
    }
  ],
  "buffers": [
    {
      "byteLength": 77980,
      "uri": "20525362525140626244_LOD00.bin"
    }
  ],
  "images": [
    {
      "uri": "20525362525140626244_LOD00_0.png"
    },
    {
      "uri": "20525362525140626244_LOD00_1.png"
    }
  ],
  "materials": [
    {
      "doubleSided": true,
      "pbrMetallicRoughness": {
        "baseColorTexture": {
          "index": 0
        },
        "metallicFactor": 0
      }
    },
    {
      "doubleSided": true,
      "pbrMetallicRoughness": {
        "baseColorTexture": {
          "index": 1
        },
        "metallicFactor": 0
      }
    }
  ],
  "meshes": [
    {
      "name": "20525362525140626244_0",
      "primitives": [
        {
          "attributes": {
            "POSITION": 0,
            "NORMAL": 1,
            "TEXCOORD_0": 2
          },
          "indices": 3,
          "material": 0
        }
      ]
    },
    {
      "name": "20525362525140626244_1",
      "primitives": [
        {
          "attributes": {
            "POSITION": 4,
            "NORMAL": 5,
            "TEXCOORD_0": 6
          },
          "indices": 7,
          "material": 1
        }
      ]
    }
  ],
  "nodes": [
    {
      "mesh": 0
    },
    {
      "mesh": 1
    }
  ],
  "scene": 0,
  "scenes": [
    {
      "nodes": [
        0,
        1
      ]
    }
  ],
  "textures": [
    {
      "source": 0
    },
    {
      "source": 1
    }
  ]
}