{
  "asset": {
    "copyright": "",
    "generator": "SharpGLTF 1.0.0",
    "version": "2.0"
  },
  "accessors": [
    {
      "name": "POSITION",
      "bufferView": 0,
      "componentType": 5126,
      "count": 2306,
      "max": [
        -420.84375,
        74.261711120605469,
        459.22299194335938
      ],
      "min": [
        -453.11648559570313,
        37.801586151123047,
        420.83566284179688
      ],
      "type": "VEC3"
    },
    {
      "name": "NORMAL",
      "bufferView": 0,
      "byteOffset": 12,
      "componentType": 5126,
      "count": 2306,
      "max": [
        0.9999924898147583,
        0.9999849796295166,
        0.99999195337295532
      ],
      "min": [
        -0.9999920129776001,
        -1,
        -0.9999924898147583
      ],
      "type": "VEC3"
    },
    {
      "name": "TEXCOORD_0",
      "bufferView": 0,
      "byteOffset": 24,
      "componentType": 5126,
      "count": 2306,
      "max": [
        0.9990234375,
        0.9990234375
      ],
      "min": [
        0.0009765625,
        0.0009765625
      ],
      "type": "VEC2"
    },
    {
      "bufferView": 1,
      "componentType": 5123,
      "count": 5523,
      "type": "SCALAR"
    },
    {
      "name": "POSITION",
      "bufferView": 0,
      "byteOffset": 73792,
      "componentType": 5126,
      "count": 1798,
      "max": [
        -420.8450927734375,
        74.261482238769531,
        459.06884765625
      ],
      "min": [
        -453.11648559570313,
        41.976802825927734,
        420.83572387695313
      ],
      "type": "VEC3"
    },
    {
      "name": "NORMAL",
      "bufferView": 0,
      "byteOffset": 73804,
      "componentType": 5126,
      "count": 1798,
      "max": [
        0.9999924898147583,
        0.9999849796295166,
        0.99999195337295532
      ],
      "min": [
        -0.9999920129776001,
        -0.99917155504226685,
        -0.9999924898147583
      ],
      "type": "VEC3"
    },
    {
      "name": "TEXCOORD_0",
      "bufferView": 0,
      "byteOffset": 73816,
      "componentType": 5126,
      "count": 1798,
      "max": [
        0.998046875,
        0.9990234375
      ],
      "min": [
        0.001953125,
        0.3427734375
      ],
      "type": "VEC2"
    },
    {
      "bufferView": 1,
      "byteOffset": 11046,
      "componentType": 5123,
      "count": 4800,
      "type": "SCALAR"
    }
  ],
  "bufferViews": [
    {
      "buffer": 0,
      "byteLength": 131328,
      "byteStride": 32,
      "target": 34962
    },
    {
      "buffer": 0,
      "byteLength": 20646,
      "byteOffset": 131328,
      "target": 34963
    }
  ],
  "buffers": [
    {
      "byteLength": 151976,
      "uri": "20525362525051737255_LOD00.bin"
    }
  ],
  "images": [
    {
      "uri": "20525362525051737255_LOD00_0.png"
    },
    {
      "uri": "20525362525051737255_LOD00_1.png"
    }
  ],
  "materials": [
    {
      "doubleSided": true,
      "pbrMetallicRoughness": {
        "baseColorTexture": {
          "index": 0
        },
        "metallicFactor": 0
      }
    },
    {
      "doubleSided": true,
      "pbrMetallicRoughness": {
        "baseColorTexture": {
          "index": 1
        },
        "metallicFactor": 0
      }
    }
  ],
  "meshes": [
    {
      "name": "20525362525051737255_0",
      "primitives": [
        {
          "attributes": {
            "POSITION": 0,
            "NORMAL": 1,
            "TEXCOORD_0": 2
          },
          "indices": 3,
          "material": 0
        }
      ]
    },
    {
      "name": "20525362525051737255_1",
      "primitives": [
        {
          "attributes": {
            "POSITION": 4,
            "NORMAL": 5,
            "TEXCOORD_0": 6
          },
          "indices": 7,
          "material": 1
        }
      ]
    }
  ],
  "nodes": [
    {
      "mesh": 0
    },
    {
      "mesh": 1
    }
  ],
  "scene": 0,
  "scenes": [
    {
      "nodes": [
        0,
        1
      ]
    }
  ],
  "textures": [
    {
      "source": 0
    },
    {
      "source": 1
    }
  ]
}