{
  "asset": {
    "copyright": "",
    "generator": "SharpGLTF 1.0.0",
    "version": "2.0"
  },
  "accessors": [
    {
      "name": "POSITION",
      "bufferView": 0,
      "componentType": 5126,
      "count": 3325,
      "max": [
        -324.5447998046875,
        71.174400329589844,
        497.28073120117188
      ],
      "min": [
        -357.123779296875,
        41.97821044921875,
        459.04815673828125
      ],
      "type": "VEC3"
    },
    {
      "name": "NORMAL",
      "bufferView": 0,
      "byteOffset": 12,
      "componentType": 5126,
      "count": 3325,
      "max": [
        0.99999243021011353,
        0.99998486042022705,
        0.99999195337295532
      ],
      "min": [
        -0.99999195337295532,
        -1,
        -0.99931228160858154
      ],
      "type": "VEC3"
    },
    {
      "name": "TEXCOORD_0",
      "bufferView": 0,
      "byteOffset": 24,
      "componentType": 5126,
      "count": 3325,
      "max": [
        0.998046875,
        0.9990234375
      ],
      "min": [
        0.001953125,
        0.0009765625
      ],
      "type": "VEC2"
    },
    {
      "bufferView": 1,
      "componentType": 5123,
      "count": 8136,
      "type": "SCALAR"
    },
    {
      "name": "POSITION",
      "bufferView": 0,
      "byteOffset": 106400,
      "componentType": 5126,
      "count": 1960,
      "max": [
        -324.54473876953125,
        71.174400329589844,
        497.28073120117188
      ],
      "min": [
        -357.12371826171875,
        42.131969451904297,
        459.04849243164063
      ],
      "type": "VEC3"
    },
    {
      "name": "NORMAL",
      "bufferView": 0,
      "byteOffset": 106412,
      "componentType": 5126,
      "count": 1960,
      "max": [
        0.99999243021011353,
        0.99998486042022705,
        0.99999195337295532
      ],
      "min": [
        -0.99999195337295532,
        -0.99640589952468872,
        -0.99999254941940308
      ],
      "type": "VEC3"
    },
    {
      "name": "TEXCOORD_0",
      "bufferView": 0,
      "byteOffset": 106424,
      "componentType": 5126,
      "count": 1960,
      "max": [
        0.998046875,
        0.998046875
      ],
      "min": [
        0.001953125,
        0.263671875
      ],
      "type": "VEC2"
    },
    {
      "bufferView": 1,
      "byteOffset": 16272,
      "componentType": 5123,
      "count": 4740,
      "type": "SCALAR"
    }
  ],
  "bufferViews": [
    {
      "buffer": 0,
      "byteLength": 169120,
      "byteStride": 32,
      "target": 34962
    },
    {
      "buffer": 0,
      "byteLength": 25752,
      "byteOffset": 169120,
      "target": 34963
    }
  ],
  "buffers": [
    {
      "byteLength": 194872,
      "uri": "20525362525051737246_LOD00.bin"
    }
  ],
  "images": [
    {
      "uri": "20525362525051737246_LOD00_0.png"
    },
    {
      "uri": "20525362525051737246_LOD00_1.png"
    }
  ],
  "materials": [
    {
      "doubleSided": true,
      "pbrMetallicRoughness": {
        "baseColorTexture": {
          "index": 0
        },
        "metallicFactor": 0
      }
    },
    {
      "doubleSided": true,
      "pbrMetallicRoughness": {
        "baseColorTexture": {
          "index": 1
        },
        "metallicFactor": 0
      }
    }
  ],
  "meshes": [
    {
      "name": "20525362525051737246_0",
      "primitives": [
        {
          "attributes": {
            "POSITION": 0,
            "NORMAL": 1,
            "TEXCOORD_0": 2
          },
          "indices": 3,
          "material": 0
        }
      ]
    },
    {
      "name": "20525362525051737246_1",
      "primitives": [
        {
          "attributes": {
            "POSITION": 4,
            "NORMAL": 5,
            "TEXCOORD_0": 6
          },
          "indices": 7,
          "material": 1
        }
      ]
    }
  ],
  "nodes": [
    {
      "mesh": 0
    },
    {
      "mesh": 1
    }
  ],
  "scene": 0,
  "scenes": [
    {
      "nodes": [
        0,
        1
      ]
    }
  ],
  "textures": [
    {
      "source": 0
    },
    {
      "source": 1
    }
  ]
}