{
  "asset": {
    "copyright": "",
    "generator": "SharpGLTF 1.0.0",
    "version": "2.0"
  },
  "accessors": [
    {
      "name": "POSITION",
      "bufferView": 0,
      "componentType": 5126,
      "count": 3239,
      "max": [
        -324.54354858398438,
        67.000526428222656,
        535.49517822265625
      ],
      "min": [
        -356.96932983398438,
        41.666927337646484,
        496.80276489257813
      ],
      "type": "VEC3"
    },
    {
      "name": "NORMAL",
      "bufferView": 0,
      "byteOffset": 12,
      "componentType": 5126,
      "count": 3239,
      "max": [
        0.99999243021011353,
        0.99998486042022705,
        0.99999195337295532
      ],
      "min": [
        -0.99598866701126099,
        -1,
        -0.99999254941940308
      ],
      "type": "VEC3"
    },
    {
      "name": "TEXCOORD_0",
      "bufferView": 0,
      "byteOffset": 24,
      "componentType": 5126,
      "count": 3239,
      "max": [
        0.998046875,
        0.9990234375
      ],
      "min": [
        0.001953125,
        0.0009765625
      ],
      "type": "VEC2"
    },
    {
      "bufferView": 1,
      "componentType": 5123,
      "count": 8352,
      "type": "SCALAR"
    },
    {
      "name": "POSITION",
      "bufferView": 0,
      "byteOffset": 103648,
      "componentType": 5126,
      "count": 1525,
      "max": [
        -324.54354858398438,
        67.000526428222656,
        535.4951171875
      ],
      "min": [
        -356.6605224609375,
        42.129264831542969,
        496.80258178710938
      ],
      "type": "VEC3"
    },
    {
      "name": "NORMAL",
      "bufferView": 0,
      "byteOffset": 103660,
      "componentType": 5126,
      "count": 1525,
      "max": [
        0.99931508302688599,
        0.99998486042022705,
        0.99999195337295532
      ],
      "min": [
        -0.99931889772415161,
        -0.99640625715255737,
        -0.99999254941940308
      ],
      "type": "VEC3"
    },
    {
      "name": "TEXCOORD_0",
      "bufferView": 0,
      "byteOffset": 103672,
      "componentType": 5126,
      "count": 1525,
      "max": [
        0.998046875,
        0.998046875
      ],
      "min": [
        0.001953125,
        0.314453125
      ],
      "type": "VEC2"
    },
    {
      "bufferView": 1,
      "byteOffset": 16704,
      "componentType": 5123,
      "count": 3903,
      "type": "SCALAR"
    }
  ],
  "bufferViews": [
    {
      "buffer": 0,
      "byteLength": 152448,
      "byteStride": 32,
      "target": 34962
    },
    {
      "buffer": 0,
      "byteLength": 24510,
      "byteOffset": 152448,
      "target": 34963
    }
  ],
  "buffers": [
    {
      "byteLength": 176960,
      "uri": "20525362525051737264_LOD00.bin"
    }
  ],
  "images": [
    {
      "uri": "20525362525051737264_LOD00_0.png"
    },
    {
      "uri": "20525362525051737264_LOD00_1.png"
    }
  ],
  "materials": [
    {
      "doubleSided": true,
      "pbrMetallicRoughness": {
        "baseColorTexture": {
          "index": 0
        },
        "metallicFactor": 0
      }
    },
    {
      "doubleSided": true,
      "pbrMetallicRoughness": {
        "baseColorTexture": {
          "index": 1
        },
        "metallicFactor": 0
      }
    }
  ],
  "meshes": [
    {
      "name": "20525362525051737264_0",
      "primitives": [
        {
          "attributes": {
            "POSITION": 0,
            "NORMAL": 1,
            "TEXCOORD_0": 2
          },
          "indices": 3,
          "material": 0
        }
      ]
    },
    {
      "name": "20525362525051737264_1",
      "primitives": [
        {
          "attributes": {
            "POSITION": 4,
            "NORMAL": 5,
            "TEXCOORD_0": 6
          },
          "indices": 7,
          "material": 1
        }
      ]
    }
  ],
  "nodes": [
    {
      "mesh": 0
    },
    {
      "mesh": 1
    }
  ],
  "scene": 0,
  "scenes": [
    {
      "nodes": [
        0,
        1
      ]
    }
  ],
  "textures": [
    {
      "source": 0
    },
    {
      "source": 1
    }
  ]
}