{
  "asset": {
    "copyright": "",
    "generator": "SharpGLTF 1.0.0",
    "version": "2.0"
  },
  "accessors": [
    {
      "name": "POSITION",
      "bufferView": 0,
      "componentType": 5126,
      "count": 3563,
      "max": [
        -228.24978637695313,
        53.422073364257813,
        344.570068359375
      ],
      "min": [
        -260.36605834960938,
        37.357898712158203,
        306.18447875976563
      ],
      "type": "VEC3"
    },
    {
      "name": "NORMAL",
      "bufferView": 0,
      "byteOffset": 12,
      "componentType": 5126,
      "count": 3563,
      "max": [
        0.99999237060546875,
        0.99998480081558228,
        0.99999207258224487
      ],
      "min": [
        -0.99999213218688965,
        -1,
        -0.99672108888626099
      ],
      "type": "VEC3"
    },
    {
      "name": "TEXCOORD_0",
      "bufferView": 0,
      "byteOffset": 24,
      "componentType": 5126,
      "count": 3563,
      "max": [
        0.998046875,
        0.9990234375
      ],
      "min": [
        0.001953125,
        0.0009765625
      ],
      "type": "VEC2"
    },
    {
      "bufferView": 1,
      "componentType": 5123,
      "count": 8280,
      "type": "SCALAR"
    },
    {
      "name": "POSITION",
      "bufferView": 0,
      "byteOffset": 114016,
      "componentType": 5126,
      "count": 1404,
      "max": [
        -231.33810424804688,
        53.422073364257813,
        344.41598510742188
      ],
      "min": [
        -260.3656005859375,
        37.510387420654297,
        306.18463134765625
      ],
      "type": "VEC3"
    },
    {
      "name": "NORMAL",
      "bufferView": 0,
      "byteOffset": 114028,
      "componentType": 5126,
      "count": 1404,
      "max": [
        0.99999237060546875,
        0.99998480081558228,
        0.99999207258224487
      ],
      "min": [
        -0.99999213218688965,
        -0.99916952848434448,
        -0.99999237060546875
      ],
      "type": "VEC3"
    },
    {
      "name": "TEXCOORD_0",
      "bufferView": 0,
      "byteOffset": 114040,
      "componentType": 5126,
      "count": 1404,
      "max": [
        0.998046875,
        0.998046875
      ],
      "min": [
        0.001953125,
        0.505859375
      ],
      "type": "VEC2"
    },
    {
      "bufferView": 1,
      "byteOffset": 16560,
      "componentType": 5123,
      "count": 3285,
      "type": "SCALAR"
    }
  ],
  "bufferViews": [
    {
      "buffer": 0,
      "byteLength": 158944,
      "byteStride": 32,
      "target": 34962
    },
    {
      "buffer": 0,
      "byteLength": 23130,
      "byteOffset": 158944,
      "target": 34963
    }
  ],
  "buffers": [
    {
      "byteLength": 182076,
      "uri": "20525362525051736147_LOD00.bin"
    }
  ],
  "images": [
    {
      "uri": "20525362525051736147_LOD00_0.png"
    },
    {
      "uri": "20525362525051736147_LOD00_1.png"
    }
  ],
  "materials": [
    {
      "doubleSided": true,
      "pbrMetallicRoughness": {
        "baseColorTexture": {
          "index": 0
        },
        "metallicFactor": 0
      }
    },
    {
      "doubleSided": true,
      "pbrMetallicRoughness": {
        "baseColorTexture": {
          "index": 1
        },
        "metallicFactor": 0
      }
    }
  ],
  "meshes": [
    {
      "name": "20525362525051736147_0",
      "primitives": [
        {
          "attributes": {
            "POSITION": 0,
            "NORMAL": 1,
            "TEXCOORD_0": 2
          },
          "indices": 3,
          "material": 0
        }
      ]
    },
    {
      "name": "20525362525051736147_1",
      "primitives": [
        {
          "attributes": {
            "POSITION": 4,
            "NORMAL": 5,
            "TEXCOORD_0": 6
          },
          "indices": 7,
          "material": 1
        }
      ]
    }
  ],
  "nodes": [
    {
      "mesh": 0
    },
    {
      "mesh": 1
    }
  ],
  "scene": 0,
  "scenes": [
    {
      "nodes": [
        0,
        1
      ]
    }
  ],
  "textures": [
    {
      "source": 0
    },
    {
      "source": 1
    }
  ]
}