{
  "asset": {
    "copyright": "",
    "generator": "SharpGLTF 1.0.0",
    "version": "2.0"
  },
  "accessors": [
    {
      "name": "POSITION",
      "bufferView": 0,
      "componentType": 5126,
      "count": 546,
      "max": [
        -589.83294677734375,
        95.083106994628906,
        504.06155395507813
      ],
      "min": [
        -613.45819091796875,
        74.226287841796875,
        496.97061157226563
      ],
      "type": "VEC3"
    },
    {
      "name": "NORMAL",
      "bufferView": 0,
      "byteOffset": 12,
      "componentType": 5126,
      "count": 546,
      "max": [
        0.99999254941940308,
        0.99998503923416138,
        0.99999183416366577
      ],
      "min": [
        -0.99999189376831055,
        -1,
        -0.99999243021011353
      ],
      "type": "VEC3"
    },
    {
      "name": "TEXCOORD_0",
      "bufferView": 0,
      "byteOffset": 24,
      "componentType": 5126,
      "count": 546,
      "max": [
        0.998046875,
        0.998046875
      ],
      "min": [
        0.001953125,
        0.345703125
      ],
      "type": "VEC2"
    },
    {
      "bufferView": 1,
      "componentType": 5123,
      "count": 1170,
      "type": "SCALAR"
    }
  ],
  "bufferViews": [
    {
      "buffer": 0,
      "byteLength": 17472,
      "byteStride": 32,
      "target": 34962
    },
    {
      "buffer": 0,
      "byteLength": 2340,
      "byteOffset": 17472,
      "target": 34963
    }
  ],
  "buffers": [
    {
      "byteLength": 19812,
      "uri": "20525362525140626620_LOD00.bin"
    }
  ],
  "images": [
    {
      "uri": "20525362525140626620_LOD00.png"
    }
  ],
  "materials": [
    {
      "doubleSided": true,
      "pbrMetallicRoughness": {
        "baseColorTexture": {
          "index": 0
        },
        "metallicFactor": 0
      }
    }
  ],
  "meshes": [
    {
      "name": "20525362525140626620_0",
      "primitives": [
        {
          "attributes": {
            "POSITION": 0,
            "NORMAL": 1,
            "TEXCOORD_0": 2
          },
          "indices": 3,
          "material": 0
        }
      ]
    }
  ],
  "nodes": [
    {
      "mesh": 0
    }
  ],
  "scene": 0,
  "scenes": [
    {
      "nodes": [
        0
      ]
    }
  ],
  "textures": [
    {
      "source": 0
    }
  ]
}