{
  "asset": {
    "copyright": "",
    "generator": "SharpGLTF 1.0.0",
    "version": "2.0"
  },
  "accessors": [
    {
      "name": "POSITION",
      "bufferView": 0,
      "componentType": 5126,
      "count": 1766,
      "max": [
        -485.04434204101563,
        74.25982666015625,
        420.85675048828125
      ],
      "min": [
        -517.16259765625,
        39.345573425292969,
        382.62350463867188
      ],
      "type": "VEC3"
    },
    {
      "name": "NORMAL",
      "bufferView": 0,
      "byteOffset": 12,
      "componentType": 5126,
      "count": 1766,
      "max": [
        0.99999243021011353,
        0.99998492002487183,
        0.9999920129776001
      ],
      "min": [
        -0.99999189376831055,
        -1,
        -0.9999924898147583
      ],
      "type": "VEC3"
    },
    {
      "name": "TEXCOORD_0",
      "bufferView": 0,
      "byteOffset": 24,
      "componentType": 5126,
      "count": 1766,
      "max": [
        0.998046875,
        0.9990234375
      ],
      "min": [
        0.001953125,
        0.0009765625
      ],
      "type": "VEC2"
    },
    {
      "bufferView": 1,
      "componentType": 5123,
      "count": 4428,
      "type": "SCALAR"
    },
    {
      "name": "POSITION",
      "bufferView": 0,
      "byteOffset": 56512,
      "componentType": 5126,
      "count": 1584,
      "max": [
        -486.5889892578125,
        74.412277221679688,
        420.85598754882813
      ],
      "min": [
        -517.16357421875,
        42.43756103515625,
        382.62384033203125
      ],
      "type": "VEC3"
    },
    {
      "name": "NORMAL",
      "bufferView": 0,
      "byteOffset": 56524,
      "componentType": 5126,
      "count": 1584,
      "max": [
        0.99999243021011353,
        0.99998492002487183,
        0.9999920129776001
      ],
      "min": [
        -0.99999189376831055,
        -0.98317086696624756,
        -0.9999924898147583
      ],
      "type": "VEC3"
    },
    {
      "name": "TEXCOORD_0",
      "bufferView": 0,
      "byteOffset": 56536,
      "componentType": 5126,
      "count": 1584,
      "max": [
        0.998046875,
        0.998046875
      ],
      "min": [
        0.001953125,
        0.119140625
      ],
      "type": "VEC2"
    },
    {
      "bufferView": 1,
      "byteOffset": 8856,
      "componentType": 5123,
      "count": 4056,
      "type": "SCALAR"
    }
  ],
  "bufferViews": [
    {
      "buffer": 0,
      "byteLength": 107200,
      "byteStride": 32,
      "target": 34962
    },
    {
      "buffer": 0,
      "byteLength": 16968,
      "byteOffset": 107200,
      "target": 34963
    }
  ],
  "buffers": [
    {
      "byteLength": 124168,
      "uri": "20525362525051737167_LOD00.bin"
    }
  ],
  "images": [
    {
      "uri": "20525362525051737167_LOD00_0.png"
    },
    {
      "uri": "20525362525051737167_LOD00_1.png"
    }
  ],
  "materials": [
    {
      "doubleSided": true,
      "pbrMetallicRoughness": {
        "baseColorTexture": {
          "index": 0
        },
        "metallicFactor": 0
      }
    },
    {
      "doubleSided": true,
      "pbrMetallicRoughness": {
        "baseColorTexture": {
          "index": 1
        },
        "metallicFactor": 0
      }
    }
  ],
  "meshes": [
    {
      "name": "20525362525051737167_0",
      "primitives": [
        {
          "attributes": {
            "POSITION": 0,
            "NORMAL": 1,
            "TEXCOORD_0": 2
          },
          "indices": 3,
          "material": 0
        }
      ]
    },
    {
      "name": "20525362525051737167_1",
      "primitives": [
        {
          "attributes": {
            "POSITION": 4,
            "NORMAL": 5,
            "TEXCOORD_0": 6
          },
          "indices": 7,
          "material": 1
        }
      ]
    }
  ],
  "nodes": [
    {
      "mesh": 0
    },
    {
      "mesh": 1
    }
  ],
  "scene": 0,
  "scenes": [
    {
      "nodes": [
        0,
        1
      ]
    }
  ],
  "textures": [
    {
      "source": 0
    },
    {
      "source": 1
    }
  ]
}