{
  "asset": {
    "copyright": "",
    "generator": "SharpGLTF 1.0.0",
    "version": "2.0"
  },
  "accessors": [
    {
      "name": "POSITION",
      "bufferView": 0,
      "componentType": 5126,
      "count": 4150,
      "max": [
        -773.9522705078125,
        59.097492218017578,
        268.01458740234375
      ],
      "min": [
        -806.07183837890625,
        43.9617919921875,
        229.78172302246094
      ],
      "type": "VEC3"
    },
    {
      "name": "NORMAL",
      "bufferView": 0,
      "byteOffset": 12,
      "componentType": 5126,
      "count": 4150,
      "max": [
        0.99999266862869263,
        0.99998509883880615,
        0.99999207258224487
      ],
      "min": [
        -0.99932175874710083,
        -0.9878692626953125,
        -0.99999237060546875
      ],
      "type": "VEC3"
    },
    {
      "name": "TEXCOORD_0",
      "bufferView": 0,
      "byteOffset": 24,
      "componentType": 5126,
      "count": 4150,
      "max": [
        0.998046875,
        0.9990234375
      ],
      "min": [
        0.001953125,
        0.0009765625
      ],
      "type": "VEC2"
    },
    {
      "bufferView": 1,
      "componentType": 5123,
      "count": 10131,
      "type": "SCALAR"
    },
    {
      "name": "POSITION",
      "bufferView": 0,
      "byteOffset": 132800,
      "componentType": 5126,
      "count": 1113,
      "max": [
        -773.952392578125,
        59.097492218017578,
        267.550537109375
      ],
      "min": [
        -806.071044921875,
        44.5792236328125,
        236.25836181640625
      ],
      "type": "VEC3"
    },
    {
      "name": "NORMAL",
      "bufferView": 0,
      "byteOffset": 132812,
      "componentType": 5126,
      "count": 1113,
      "max": [
        0.99799889326095581,
        0.99998509883880615,
        0.99999207258224487
      ],
      "min": [
        -0.99932175874710083,
        -0.98492318391799927,
        -0.9993138313293457
      ],
      "type": "VEC3"
    },
    {
      "name": "TEXCOORD_0",
      "bufferView": 0,
      "byteOffset": 132824,
      "componentType": 5126,
      "count": 1113,
      "max": [
        0.998046875,
        0.998046875
      ],
      "min": [
        0.001953125,
        0.607421875
      ],
      "type": "VEC2"
    },
    {
      "bufferView": 1,
      "byteOffset": 20262,
      "componentType": 5123,
      "count": 2670,
      "type": "SCALAR"
    }
  ],
  "bufferViews": [
    {
      "buffer": 0,
      "byteLength": 168416,
      "byteStride": 32,
      "target": 34962
    },
    {
      "buffer": 0,
      "byteLength": 25602,
      "byteOffset": 168416,
      "target": 34963
    }
  ],
  "buffers": [
    {
      "byteLength": 194020,
      "uri": "20525362525140624376_LOD00.bin"
    }
  ],
  "images": [
    {
      "uri": "20525362525140624376_LOD00_0.png"
    },
    {
      "uri": "20525362525140624376_LOD00_1.png"
    }
  ],
  "materials": [
    {
      "doubleSided": true,
      "pbrMetallicRoughness": {
        "baseColorTexture": {
          "index": 0
        },
        "metallicFactor": 0
      }
    },
    {
      "doubleSided": true,
      "pbrMetallicRoughness": {
        "baseColorTexture": {
          "index": 1
        },
        "metallicFactor": 0
      }
    }
  ],
  "meshes": [
    {
      "name": "20525362525140624376_0",
      "primitives": [
        {
          "attributes": {
            "POSITION": 0,
            "NORMAL": 1,
            "TEXCOORD_0": 2
          },
          "indices": 3,
          "material": 0
        }
      ]
    },
    {
      "name": "20525362525140624376_1",
      "primitives": [
        {
          "attributes": {
            "POSITION": 4,
            "NORMAL": 5,
            "TEXCOORD_0": 6
          },
          "indices": 7,
          "material": 1
        }
      ]
    }
  ],
  "nodes": [
    {
      "mesh": 0
    },
    {
      "mesh": 1
    }
  ],
  "scene": 0,
  "scenes": [
    {
      "nodes": [
        0,
        1
      ]
    }
  ],
  "textures": [
    {
      "source": 0
    },
    {
      "source": 1
    }
  ]
}