{
  "asset": {
    "copyright": "",
    "generator": "SharpGLTF 1.0.0",
    "version": "2.0"
  },
  "accessors": [
    {
      "name": "POSITION",
      "bufferView": 0,
      "componentType": 5126,
      "count": 4107,
      "max": [
        -549.2532958984375,
        67.465911865234375,
        229.78413391113281
      ],
      "min": [
        -581.37188720703125,
        39.505149841308594,
        191.39804077148438
      ],
      "type": "VEC3"
    },
    {
      "name": "NORMAL",
      "bufferView": 0,
      "byteOffset": 12,
      "componentType": 5126,
      "count": 4107,
      "max": [
        0.99999260902404785,
        0.99998486042022705,
        0.99999207258224487
      ],
      "min": [
        -0.99999189376831055,
        -0.99917268753051758,
        -0.99898248910903931
      ],
      "type": "VEC3"
    },
    {
      "name": "TEXCOORD_0",
      "bufferView": 0,
      "byteOffset": 24,
      "componentType": 5126,
      "count": 4107,
      "max": [
        0.998046875,
        0.9990234375
      ],
      "min": [
        0.001953125,
        0.0009765625
      ],
      "type": "VEC2"
    },
    {
      "bufferView": 1,
      "componentType": 5123,
      "count": 10218,
      "type": "SCALAR"
    },
    {
      "name": "POSITION",
      "bufferView": 0,
      "byteOffset": 131424,
      "componentType": 5126,
      "count": 1290,
      "max": [
        -549.25445556640625,
        67.465736389160156,
        229.78289794921875
      ],
      "min": [
        -581.5263671875,
        39.65875244140625,
        191.55213928222656
      ],
      "type": "VEC3"
    },
    {
      "name": "NORMAL",
      "bufferView": 0,
      "byteOffset": 131436,
      "componentType": 5126,
      "count": 1290,
      "max": [
        0.99999260902404785,
        0.99998486042022705,
        0.99999207258224487
      ],
      "min": [
        -0.99999189376831055,
        -0.98489624261856079,
        -0.99999237060546875
      ],
      "type": "VEC3"
    },
    {
      "name": "TEXCOORD_0",
      "bufferView": 0,
      "byteOffset": 131448,
      "componentType": 5126,
      "count": 1290,
      "max": [
        0.998046875,
        0.998046875
      ],
      "min": [
        0.001953125,
        0.490234375
      ],
      "type": "VEC2"
    },
    {
      "bufferView": 1,
      "byteOffset": 20436,
      "componentType": 5123,
      "count": 3000,
      "type": "SCALAR"
    }
  ],
  "bufferViews": [
    {
      "buffer": 0,
      "byteLength": 172704,
      "byteStride": 32,
      "target": 34962
    },
    {
      "buffer": 0,
      "byteLength": 26436,
      "byteOffset": 172704,
      "target": 34963
    }
  ],
  "buffers": [
    {
      "byteLength": 199140,
      "uri": "20525362525051735375_LOD00.bin"
    }
  ],
  "images": [
    {
      "uri": "20525362525051735375_LOD00_0.png"
    },
    {
      "uri": "20525362525051735375_LOD00_1.png"
    }
  ],
  "materials": [
    {
      "doubleSided": true,
      "pbrMetallicRoughness": {
        "baseColorTexture": {
          "index": 0
        },
        "metallicFactor": 0
      }
    },
    {
      "doubleSided": true,
      "pbrMetallicRoughness": {
        "baseColorTexture": {
          "index": 1
        },
        "metallicFactor": 0
      }
    }
  ],
  "meshes": [
    {
      "name": "20525362525051735375_0",
      "primitives": [
        {
          "attributes": {
            "POSITION": 0,
            "NORMAL": 1,
            "TEXCOORD_0": 2
          },
          "indices": 3,
          "material": 0
        }
      ]
    },
    {
      "name": "20525362525051735375_1",
      "primitives": [
        {
          "attributes": {
            "POSITION": 4,
            "NORMAL": 5,
            "TEXCOORD_0": 6
          },
          "indices": 7,
          "material": 1
        }
      ]
    }
  ],
  "nodes": [
    {
      "mesh": 0
    },
    {
      "mesh": 1
    }
  ],
  "scene": 0,
  "scenes": [
    {
      "nodes": [
        0,
        1
      ]
    }
  ],
  "textures": [
    {
      "source": 0
    },
    {
      "source": 1
    }
  ]
}