{
  "asset": {
    "copyright": "",
    "generator": "SharpGLTF 1.0.0",
    "version": "2.0"
  },
  "accessors": [
    {
      "name": "POSITION",
      "bufferView": 0,
      "componentType": 5126,
      "count": 993,
      "max": [
        -99.850074768066406,
        71.799613952636719,
        497.27566528320313
      ],
      "min": [
        -131.96487426757813,
        37.352207183837891,
        459.04257202148438
      ],
      "type": "VEC3"
    },
    {
      "name": "NORMAL",
      "bufferView": 0,
      "byteOffset": 12,
      "componentType": 5126,
      "count": 993,
      "max": [
        0.9999922513961792,
        0.9999847412109375,
        0.99999195337295532
      ],
      "min": [
        -0.99999213218688965,
        -1,
        -0.99999254941940308
      ],
      "type": "VEC3"
    },
    {
      "name": "TEXCOORD_0",
      "bufferView": 0,
      "byteOffset": 24,
      "componentType": 5126,
      "count": 993,
      "max": [
        0.998046875,
        0.9990234375
      ],
      "min": [
        0.001953125,
        0.0009765625
      ],
      "type": "VEC2"
    },
    {
      "bufferView": 1,
      "componentType": 5123,
      "count": 2133,
      "type": "SCALAR"
    },
    {
      "name": "POSITION",
      "bufferView": 0,
      "byteOffset": 31776,
      "componentType": 5126,
      "count": 884,
      "max": [
        -99.849624633789063,
        71.799713134765625,
        497.27566528320313
      ],
      "min": [
        -131.96493530273438,
        37.349636077880859,
        459.04263305664063
      ],
      "type": "VEC3"
    },
    {
      "name": "NORMAL",
      "bufferView": 0,
      "byteOffset": 31788,
      "componentType": 5126,
      "count": 884,
      "max": [
        0.9999922513961792,
        0.9999847412109375,
        0.99999195337295532
      ],
      "min": [
        -0.99999213218688965,
        -1,
        -0.99999254941940308
      ],
      "type": "VEC3"
    },
    {
      "name": "TEXCOORD_0",
      "bufferView": 0,
      "byteOffset": 31800,
      "componentType": 5126,
      "count": 884,
      "max": [
        0.998046875,
        0.998046875
      ],
      "min": [
        0.001953125,
        0.068359375
      ],
      "type": "VEC2"
    },
    {
      "bufferView": 1,
      "byteOffset": 4266,
      "componentType": 5123,
      "count": 2049,
      "type": "SCALAR"
    }
  ],
  "bufferViews": [
    {
      "buffer": 0,
      "byteLength": 60064,
      "byteStride": 32,
      "target": 34962
    },
    {
      "buffer": 0,
      "byteLength": 8364,
      "byteOffset": 60064,
      "target": 34963
    }
  ],
  "buffers": [
    {
      "byteLength": 68428,
      "uri": "20525362525051736247_LOD00.bin"
    }
  ],
  "images": [
    {
      "uri": "20525362525051736247_LOD00_0.png"
    },
    {
      "uri": "20525362525051736247_LOD00_1.png"
    }
  ],
  "materials": [
    {
      "doubleSided": true,
      "pbrMetallicRoughness": {
        "baseColorTexture": {
          "index": 0
        },
        "metallicFactor": 0
      }
    },
    {
      "doubleSided": true,
      "pbrMetallicRoughness": {
        "baseColorTexture": {
          "index": 1
        },
        "metallicFactor": 0
      }
    }
  ],
  "meshes": [
    {
      "name": "20525362525051736247_0",
      "primitives": [
        {
          "attributes": {
            "POSITION": 0,
            "NORMAL": 1,
            "TEXCOORD_0": 2
          },
          "indices": 3,
          "material": 0
        }
      ]
    },
    {
      "name": "20525362525051736247_1",
      "primitives": [
        {
          "attributes": {
            "POSITION": 4,
            "NORMAL": 5,
            "TEXCOORD_0": 6
          },
          "indices": 7,
          "material": 1
        }
      ]
    }
  ],
  "nodes": [
    {
      "mesh": 0
    },
    {
      "mesh": 1
    }
  ],
  "scene": 0,
  "scenes": [
    {
      "nodes": [
        0,
        1
      ]
    }
  ],
  "textures": [
    {
      "source": 0
    },
    {
      "source": 1
    }
  ]
}