{
  "asset": {
    "copyright": "",
    "generator": "SharpGLTF 1.0.0",
    "version": "2.0"
  },
  "accessors": [
    {
      "name": "POSITION",
      "bufferView": 0,
      "componentType": 5126,
      "count": 2718,
      "max": [
        -131.64341735839844,
        63.160163879394531,
        267.9847412109375
      ],
      "min": [
        -164.06803894042969,
        37.363433837890625,
        229.44465637207031
      ],
      "type": "VEC3"
    },
    {
      "name": "NORMAL",
      "bufferView": 0,
      "byteOffset": 12,
      "componentType": 5126,
      "count": 2718,
      "max": [
        0.99999231100082397,
        0.99998468160629272,
        0.99999207258224487
      ],
      "min": [
        -0.99999219179153442,
        -0.99640315771102905,
        -0.99999237060546875
      ],
      "type": "VEC3"
    },
    {
      "name": "TEXCOORD_0",
      "bufferView": 0,
      "byteOffset": 24,
      "componentType": 5126,
      "count": 2718,
      "max": [
        0.998046875,
        0.9990234375
      ],
      "min": [
        0.001953125,
        0.0009765625
      ],
      "type": "VEC2"
    },
    {
      "bufferView": 1,
      "componentType": 5123,
      "count": 6432,
      "type": "SCALAR"
    },
    {
      "name": "POSITION",
      "bufferView": 0,
      "byteOffset": 86976,
      "componentType": 5126,
      "count": 414,
      "max": [
        -131.95182800292969,
        63.160163879394531,
        267.9840087890625
      ],
      "min": [
        -155.88450622558594,
        48.484371185302734,
        229.75352478027344
      ],
      "type": "VEC3"
    },
    {
      "name": "NORMAL",
      "bufferView": 0,
      "byteOffset": 86988,
      "componentType": 5126,
      "count": 414,
      "max": [
        0.99999231100082397,
        0.99998468160629272,
        0.99897950887680054
      ],
      "min": [
        -0.99092984199523926,
        -0.64749443531036377,
        -0.99174785614013672
      ],
      "type": "VEC3"
    },
    {
      "name": "TEXCOORD_0",
      "bufferView": 0,
      "byteOffset": 87000,
      "componentType": 5126,
      "count": 414,
      "max": [
        0.994140625,
        0.998046875
      ],
      "min": [
        0.001953125,
        0.845703125
      ],
      "type": "VEC2"
    },
    {
      "bufferView": 1,
      "byteOffset": 12864,
      "componentType": 5123,
      "count": 1038,
      "type": "SCALAR"
    }
  ],
  "bufferViews": [
    {
      "buffer": 0,
      "byteLength": 100224,
      "byteStride": 32,
      "target": 34962
    },
    {
      "buffer": 0,
      "byteLength": 14940,
      "byteOffset": 100224,
      "target": 34963
    }
  ],
  "buffers": [
    {
      "byteLength": 115164,
      "uri": "20525362525051734276_LOD00.bin"
    }
  ],
  "images": [
    {
      "uri": "20525362525051734276_LOD00_0.png"
    },
    {
      "uri": "20525362525051734276_LOD00_1.png"
    }
  ],
  "materials": [
    {
      "doubleSided": true,
      "pbrMetallicRoughness": {
        "baseColorTexture": {
          "index": 0
        },
        "metallicFactor": 0
      }
    },
    {
      "doubleSided": true,
      "pbrMetallicRoughness": {
        "baseColorTexture": {
          "index": 1
        },
        "metallicFactor": 0
      }
    }
  ],
  "meshes": [
    {
      "name": "20525362525051734276_0",
      "primitives": [
        {
          "attributes": {
            "POSITION": 0,
            "NORMAL": 1,
            "TEXCOORD_0": 2
          },
          "indices": 3,
          "material": 0
        }
      ]
    },
    {
      "name": "20525362525051734276_1",
      "primitives": [
        {
          "attributes": {
            "POSITION": 4,
            "NORMAL": 5,
            "TEXCOORD_0": 6
          },
          "indices": 7,
          "material": 1
        }
      ]
    }
  ],
  "nodes": [
    {
      "mesh": 0
    },
    {
      "mesh": 1
    }
  ],
  "scene": 0,
  "scenes": [
    {
      "nodes": [
        0,
        1
      ]
    }
  ],
  "textures": [
    {
      "source": 0
    },
    {
      "source": 1
    }
  ]
}