{
  "asset": {
    "copyright": "",
    "generator": "SharpGLTF 1.0.0",
    "version": "2.0"
  },
  "accessors": [
    {
      "name": "POSITION",
      "bufferView": 0,
      "componentType": 5126,
      "count": 2987,
      "max": [
        -3.5518805980682373,
        69.331245422363281,
        459.3662109375
      ],
      "min": [
        -35.821323394775391,
        37.352787017822266,
        420.8272705078125
      ],
      "type": "VEC3"
    },
    {
      "name": "NORMAL",
      "bufferView": 0,
      "byteOffset": 12,
      "componentType": 5126,
      "count": 2987,
      "max": [
        0.9999922513961792,
        0.99998462200164795,
        0.99999195337295532
      ],
      "min": [
        -0.9999922513961792,
        -1,
        -0.9999924898147583
      ],
      "type": "VEC3"
    },
    {
      "name": "TEXCOORD_0",
      "bufferView": 0,
      "byteOffset": 24,
      "componentType": 5126,
      "count": 2987,
      "max": [
        0.9990234375,
        0.9990234375
      ],
      "min": [
        0.0009765625,
        0.0009765625
      ],
      "type": "VEC2"
    },
    {
      "bufferView": 1,
      "componentType": 5123,
      "count": 6612,
      "type": "SCALAR"
    },
    {
      "name": "POSITION",
      "bufferView": 0,
      "byteOffset": 95584,
      "componentType": 5126,
      "count": 779,
      "max": [
        -3.5518805980682373,
        67.168792724609375,
        459.05801391601563
      ],
      "min": [
        -35.666923522949219,
        37.352787017822266,
        420.82769775390625
      ],
      "type": "VEC3"
    },
    {
      "name": "NORMAL",
      "bufferView": 0,
      "byteOffset": 95596,
      "componentType": 5126,
      "count": 779,
      "max": [
        0.9999922513961792,
        0.99998462200164795,
        0.99999195337295532
      ],
      "min": [
        -0.9999922513961792,
        -1,
        -0.9999924898147583
      ],
      "type": "VEC3"
    },
    {
      "name": "TEXCOORD_0",
      "bufferView": 0,
      "byteOffset": 95608,
      "componentType": 5126,
      "count": 779,
      "max": [
        0.998046875,
        0.998046875
      ],
      "min": [
        0.001953125,
        0.521484375
      ],
      "type": "VEC2"
    },
    {
      "bufferView": 1,
      "byteOffset": 13224,
      "componentType": 5123,
      "count": 1818,
      "type": "SCALAR"
    }
  ],
  "bufferViews": [
    {
      "buffer": 0,
      "byteLength": 120512,
      "byteStride": 32,
      "target": 34962
    },
    {
      "buffer": 0,
      "byteLength": 16860,
      "byteOffset": 120512,
      "target": 34963
    }
  ],
  "buffers": [
    {
      "byteLength": 137372,
      "uri": "20525362525051727354_LOD00.bin"
    }
  ],
  "images": [
    {
      "uri": "20525362525051727354_LOD00_0.png"
    },
    {
      "uri": "20525362525051727354_LOD00_1.png"
    }
  ],
  "materials": [
    {
      "doubleSided": true,
      "pbrMetallicRoughness": {
        "baseColorTexture": {
          "index": 0
        },
        "metallicFactor": 0
      }
    },
    {
      "doubleSided": true,
      "pbrMetallicRoughness": {
        "baseColorTexture": {
          "index": 1
        },
        "metallicFactor": 0
      }
    }
  ],
  "meshes": [
    {
      "name": "20525362525051727354_0",
      "primitives": [
        {
          "attributes": {
            "POSITION": 0,
            "NORMAL": 1,
            "TEXCOORD_0": 2
          },
          "indices": 3,
          "material": 0
        }
      ]
    },
    {
      "name": "20525362525051727354_1",
      "primitives": [
        {
          "attributes": {
            "POSITION": 4,
            "NORMAL": 5,
            "TEXCOORD_0": 6
          },
          "indices": 7,
          "material": 1
        }
      ]
    }
  ],
  "nodes": [
    {
      "mesh": 0
    },
    {
      "mesh": 1
    }
  ],
  "scene": 0,
  "scenes": [
    {
      "nodes": [
        0,
        1
      ]
    }
  ],
  "textures": [
    {
      "source": 0
    },
    {
      "source": 1
    }
  ]
}