{
  "asset": {
    "copyright": "",
    "generator": "SharpGLTF 1.0.0",
    "version": "2.0"
  },
  "accessors": [
    {
      "name": "POSITION",
      "bufferView": 0,
      "componentType": 5126,
      "count": 2522,
      "max": [
        -3.5517606735229492,
        74.279556274414063,
        382.31982421875
      ],
      "min": [
        -35.667049407958984,
        37.358020782470703,
        344.0889892578125
      ],
      "type": "VEC3"
    },
    {
      "name": "NORMAL",
      "bufferView": 0,
      "byteOffset": 12,
      "componentType": 5126,
      "count": 2522,
      "max": [
        0.99999219179153442,
        0.99998468160629272,
        0.9999920129776001
      ],
      "min": [
        -0.99999219179153442,
        -1,
        -0.99672067165374756
      ],
      "type": "VEC3"
    },
    {
      "name": "TEXCOORD_0",
      "bufferView": 0,
      "byteOffset": 24,
      "componentType": 5126,
      "count": 2522,
      "max": [
        0.998046875,
        0.9990234375
      ],
      "min": [
        0.001953125,
        0.0009765625
      ],
      "type": "VEC2"
    },
    {
      "bufferView": 1,
      "componentType": 5123,
      "count": 5949,
      "type": "SCALAR"
    },
    {
      "name": "POSITION",
      "bufferView": 0,
      "byteOffset": 80704,
      "componentType": 5126,
      "count": 880,
      "max": [
        -3.5517606735229492,
        45.390594482421875,
        382.31982421875
      ],
      "min": [
        -35.667049407958984,
        37.358177185058594,
        344.39752197265625
      ],
      "type": "VEC3"
    },
    {
      "name": "NORMAL",
      "bufferView": 0,
      "byteOffset": 80716,
      "componentType": 5126,
      "count": 880,
      "max": [
        0.99093157052993774,
        0.99998468160629272,
        0.99672937393188477
      ],
      "min": [
        -0.99673539400100708,
        -0.97821807861328125,
        -0.99816757440567017
      ],
      "type": "VEC3"
    },
    {
      "name": "TEXCOORD_0",
      "bufferView": 0,
      "byteOffset": 80728,
      "componentType": 5126,
      "count": 880,
      "max": [
        0.998046875,
        0.998046875
      ],
      "min": [
        0.001953125,
        0.658203125
      ],
      "type": "VEC2"
    },
    {
      "bufferView": 1,
      "byteOffset": 11898,
      "componentType": 5123,
      "count": 2142,
      "type": "SCALAR"
    }
  ],
  "bufferViews": [
    {
      "buffer": 0,
      "byteLength": 108864,
      "byteStride": 32,
      "target": 34962
    },
    {
      "buffer": 0,
      "byteLength": 16182,
      "byteOffset": 108864,
      "target": 34963
    }
  ],
  "buffers": [
    {
      "byteLength": 125048,
      "uri": "20525362525051727174_LOD00.bin"
    }
  ],
  "images": [
    {
      "uri": "20525362525051727174_LOD00_0.png"
    },
    {
      "uri": "20525362525051727174_LOD00_1.png"
    }
  ],
  "materials": [
    {
      "doubleSided": true,
      "pbrMetallicRoughness": {
        "baseColorTexture": {
          "index": 0
        },
        "metallicFactor": 0
      }
    },
    {
      "doubleSided": true,
      "pbrMetallicRoughness": {
        "baseColorTexture": {
          "index": 1
        },
        "metallicFactor": 0
      }
    }
  ],
  "meshes": [
    {
      "name": "20525362525051727174_0",
      "primitives": [
        {
          "attributes": {
            "POSITION": 0,
            "NORMAL": 1,
            "TEXCOORD_0": 2
          },
          "indices": 3,
          "material": 0
        }
      ]
    },
    {
      "name": "20525362525051727174_1",
      "primitives": [
        {
          "attributes": {
            "POSITION": 4,
            "NORMAL": 5,
            "TEXCOORD_0": 6
          },
          "indices": 7,
          "material": 1
        }
      ]
    }
  ],
  "nodes": [
    {
      "mesh": 0
    },
    {
      "mesh": 1
    }
  ],
  "scene": 0,
  "scenes": [
    {
      "nodes": [
        0,
        1
      ]
    }
  ],
  "textures": [
    {
      "source": 0
    },
    {
      "source": 1
    }
  ]
}