{
  "asset": {
    "copyright": "",
    "generator": "SharpGLTF 1.0.0",
    "version": "2.0"
  },
  "accessors": [
    {
      "name": "POSITION",
      "bufferView": 0,
      "componentType": 5126,
      "count": 1677,
      "max": [
        -195.69244384765625,
        38.307674407958984,
        38.695064544677734
      ],
      "min": [
        -228.27238464355469,
        31.973384857177734,
        0.15612831711769104
      ],
      "type": "VEC3"
    },
    {
      "name": "NORMAL",
      "bufferView": 0,
      "byteOffset": 12,
      "componentType": 5126,
      "count": 1677,
      "max": [
        0.99055463075637817,
        0.99998462200164795,
        0.99999213218688965
      ],
      "min": [
        -0.99999207258224487,
        -0.99916762113571167,
        -0.99486857652664185
      ],
      "type": "VEC3"
    },
    {
      "name": "TEXCOORD_0",
      "bufferView": 0,
      "byteOffset": 24,
      "componentType": 5126,
      "count": 1677,
      "max": [
        0.998046875,
        0.998046875
      ],
      "min": [
        0.001953125,
        0.119140625
      ],
      "type": "VEC2"
    },
    {
      "bufferView": 1,
      "componentType": 5123,
      "count": 4362,
      "type": "SCALAR"
    }
  ],
  "bufferViews": [
    {
      "buffer": 0,
      "byteLength": 53664,
      "byteStride": 32,
      "target": 34962
    },
    {
      "buffer": 0,
      "byteLength": 8724,
      "byteOffset": 53664,
      "target": 34963
    }
  ],
  "buffers": [
    {
      "byteLength": 62388,
      "uri": "20525362525051734142_LOD00.bin"
    }
  ],
  "images": [
    {
      "uri": "20525362525051734142_LOD00.png"
    }
  ],
  "materials": [
    {
      "doubleSided": true,
      "pbrMetallicRoughness": {
        "baseColorTexture": {
          "index": 0
        },
        "metallicFactor": 0
      }
    }
  ],
  "meshes": [
    {
      "name": "20525362525051734142_0",
      "primitives": [
        {
          "attributes": {
            "POSITION": 0,
            "NORMAL": 1,
            "TEXCOORD_0": 2
          },
          "indices": 3,
          "material": 0
        }
      ]
    }
  ],
  "nodes": [
    {
      "mesh": 0
    }
  ],
  "scene": 0,
  "scenes": [
    {
      "nodes": [
        0
      ]
    }
  ],
  "textures": [
    {
      "source": 0
    }
  ]
}