{
  "asset": {
    "copyright": "",
    "generator": "SharpGLTF 1.0.0",
    "version": "2.0"
  },
  "accessors": [
    {
      "name": "POSITION",
      "bufferView": 0,
      "componentType": 5126,
      "count": 1303,
      "max": [
        -677.16827392578125,
        37.789695739746094,
        573.72674560546875
      ],
      "min": [
        -710.20941162109375,
        33.616733551025391,
        559.23541259765625
      ],
      "type": "VEC3"
    },
    {
      "name": "NORMAL",
      "bufferView": 0,
      "byteOffset": 12,
      "componentType": 5126,
      "count": 1303,
      "max": [
        0.99931281805038452,
        0.99998509883880615,
        0.99931812286376953
      ],
      "min": [
        -0.99486023187637329,
        -0.99820685386657715,
        -0.99816322326660156
      ],
      "type": "VEC3"
    },
    {
      "name": "TEXCOORD_0",
      "bufferView": 0,
      "byteOffset": 24,
      "componentType": 5126,
      "count": 1303,
      "max": [
        0.998046875,
        0.998046875
      ],
      "min": [
        0.001953125,
        0.294921875
      ],
      "type": "VEC2"
    },
    {
      "bufferView": 1,
      "componentType": 5123,
      "count": 3105,
      "type": "SCALAR"
    }
  ],
  "bufferViews": [
    {
      "buffer": 0,
      "byteLength": 41696,
      "byteStride": 32,
      "target": 34962
    },
    {
      "buffer": 0,
      "byteLength": 6210,
      "byteOffset": 41696,
      "target": 34963
    }
  ],
  "buffers": [
    {
      "byteLength": 47908,
      "uri": "20525362525140626273_LOD00.bin"
    }
  ],
  "images": [
    {
      "uri": "20525362525140626273_LOD00.png"
    }
  ],
  "materials": [
    {
      "doubleSided": true,
      "pbrMetallicRoughness": {
        "baseColorTexture": {
          "index": 0
        },
        "metallicFactor": 0
      }
    }
  ],
  "meshes": [
    {
      "name": "20525362525140626273_0",
      "primitives": [
        {
          "attributes": {
            "POSITION": 0,
            "NORMAL": 1,
            "TEXCOORD_0": 2
          },
          "indices": 3,
          "material": 0
        }
      ]
    }
  ],
  "nodes": [
    {
      "mesh": 0
    }
  ],
  "scene": 0,
  "scenes": [
    {
      "nodes": [
        0
      ]
    }
  ],
  "textures": [
    {
      "source": 0
    }
  ]
}