{
  "asset": {
    "copyright": "",
    "generator": "SharpGLTF 1.0.0",
    "version": "2.0"
  },
  "accessors": [
    {
      "name": "POSITION",
      "bufferView": 0,
      "componentType": 5126,
      "count": 3662,
      "max": [
        -131.94888305664063,
        74.270454406738281,
        497.27505493164063
      ],
      "min": [
        -164.06489562988281,
        37.811885833740234,
        459.04290771484375
      ],
      "type": "VEC3"
    },
    {
      "name": "NORMAL",
      "bufferView": 0,
      "byteOffset": 12,
      "componentType": 5126,
      "count": 3662,
      "max": [
        0.9999922513961792,
        0.9999847412109375,
        0.99999195337295532
      ],
      "min": [
        -0.99999213218688965,
        -1,
        -0.99999254941940308
      ],
      "type": "VEC3"
    },
    {
      "name": "TEXCOORD_0",
      "bufferView": 0,
      "byteOffset": 24,
      "componentType": 5126,
      "count": 3662,
      "max": [
        0.9990234375,
        0.9990234375
      ],
      "min": [
        0.0009765625,
        0.0009765625
      ],
      "type": "VEC2"
    },
    {
      "bufferView": 1,
      "componentType": 5123,
      "count": 8862,
      "type": "SCALAR"
    },
    {
      "name": "POSITION",
      "bufferView": 0,
      "byteOffset": 117184,
      "componentType": 5126,
      "count": 109,
      "max": [
        -132.87567138671875,
        56.040611267089844,
        497.2750244140625
      ],
      "min": [
        -159.89541625976563,
        39.205009460449219,
        461.201416015625
      ],
      "type": "VEC3"
    },
    {
      "name": "NORMAL",
      "bufferView": 0,
      "byteOffset": 117196,
      "componentType": 5126,
      "count": 109,
      "max": [
        0.93234312534332275,
        0.99897086620330811,
        0.91638678312301636
      ],
      "min": [
        -0.996368408203125,
        -0.98320192098617554,
        -0.88677871227264404
      ],
      "type": "VEC3"
    },
    {
      "name": "TEXCOORD_0",
      "bufferView": 0,
      "byteOffset": 117208,
      "componentType": 5126,
      "count": 109,
      "max": [
        0.912109375,
        0.998046875
      ],
      "min": [
        0.001953125,
        0.927734375
      ],
      "type": "VEC2"
    },
    {
      "bufferView": 1,
      "byteOffset": 17724,
      "componentType": 5123,
      "count": 231,
      "type": "SCALAR"
    }
  ],
  "bufferViews": [
    {
      "buffer": 0,
      "byteLength": 120672,
      "byteStride": 32,
      "target": 34962
    },
    {
      "buffer": 0,
      "byteLength": 18186,
      "byteOffset": 120672,
      "target": 34963
    }
  ],
  "buffers": [
    {
      "byteLength": 138860,
      "uri": "20525362525051736256_LOD00.bin"
    }
  ],
  "images": [
    {
      "uri": "20525362525051736256_LOD00_0.png"
    },
    {
      "uri": "20525362525051736256_LOD00_1.png"
    }
  ],
  "materials": [
    {
      "doubleSided": true,
      "pbrMetallicRoughness": {
        "baseColorTexture": {
          "index": 0
        },
        "metallicFactor": 0
      }
    },
    {
      "doubleSided": true,
      "pbrMetallicRoughness": {
        "baseColorTexture": {
          "index": 1
        },
        "metallicFactor": 0
      }
    }
  ],
  "meshes": [
    {
      "name": "20525362525051736256_0",
      "primitives": [
        {
          "attributes": {
            "POSITION": 0,
            "NORMAL": 1,
            "TEXCOORD_0": 2
          },
          "indices": 3,
          "material": 0
        }
      ]
    },
    {
      "name": "20525362525051736256_1",
      "primitives": [
        {
          "attributes": {
            "POSITION": 4,
            "NORMAL": 5,
            "TEXCOORD_0": 6
          },
          "indices": 7,
          "material": 1
        }
      ]
    }
  ],
  "nodes": [
    {
      "mesh": 0
    },
    {
      "mesh": 1
    }
  ],
  "scene": 0,
  "scenes": [
    {
      "nodes": [
        0,
        1
      ]
    }
  ],
  "textures": [
    {
      "source": 0
    },
    {
      "source": 1
    }
  ]
}