{
  "asset": {
    "copyright": "",
    "generator": "SharpGLTF 1.0.0",
    "version": "2.0"
  },
  "accessors": [
    {
      "name": "POSITION",
      "bufferView": 0,
      "componentType": 5126,
      "count": 1576,
      "max": [
        -452.80584716796875,
        37.831989288330078,
        76.918807983398438
      ],
      "min": [
        -485.077392578125,
        36.287216186523438,
        38.224838256835938
      ],
      "type": "VEC3"
    },
    {
      "name": "NORMAL",
      "bufferView": 0,
      "byteOffset": 12,
      "componentType": 5126,
      "count": 1576,
      "max": [
        0.99489843845367432,
        0.99998462200164795,
        0.99898087978363037
      ],
      "min": [
        -0.99674105644226074,
        -0.98940002918243408,
        -0.99931436777114868
      ],
      "type": "VEC3"
    },
    {
      "name": "TEXCOORD_0",
      "bufferView": 0,
      "byteOffset": 24,
      "componentType": 5126,
      "count": 1576,
      "max": [
        0.998046875,
        0.998046875
      ],
      "min": [
        0.001953125,
        0.259765625
      ],
      "type": "VEC2"
    },
    {
      "bufferView": 1,
      "componentType": 5123,
      "count": 4062,
      "type": "SCALAR"
    }
  ],
  "bufferViews": [
    {
      "buffer": 0,
      "byteLength": 50432,
      "byteStride": 32,
      "target": 34962
    },
    {
      "buffer": 0,
      "byteLength": 8124,
      "byteOffset": 50432,
      "target": 34963
    }
  ],
  "buffers": [
    {
      "byteLength": 58556,
      "uri": "20525362525051735160_LOD00.bin"
    }
  ],
  "images": [
    {
      "uri": "20525362525051735160_LOD00.png"
    }
  ],
  "materials": [
    {
      "doubleSided": true,
      "pbrMetallicRoughness": {
        "baseColorTexture": {
          "index": 0
        },
        "metallicFactor": 0
      }
    }
  ],
  "meshes": [
    {
      "name": "20525362525051735160_0",
      "primitives": [
        {
          "attributes": {
            "POSITION": 0,
            "NORMAL": 1,
            "TEXCOORD_0": 2
          },
          "indices": 3,
          "material": 0
        }
      ]
    }
  ],
  "nodes": [
    {
      "mesh": 0
    }
  ],
  "scene": 0,
  "scenes": [
    {
      "nodes": [
        0
      ]
    }
  ],
  "textures": [
    {
      "source": 0
    }
  ]
}