{
  "asset": {
    "copyright": "",
    "generator": "SharpGLTF 1.0.0",
    "version": "2.0"
  },
  "accessors": [
    {
      "name": "POSITION",
      "bufferView": 0,
      "componentType": 5126,
      "count": 104,
      "max": [
        -420.84341430664063,
        37.820693969726563,
        459.06719970703125
      ],
      "min": [
        -451.41525268554688,
        35.499908447265625,
        433.78436279296875
      ],
      "type": "VEC3"
    },
    {
      "name": "NORMAL",
      "bufferView": 0,
      "byteOffset": 12,
      "componentType": 5126,
      "count": 104,
      "max": [
        6.5523992816451937E-05,
        0.0055750072933733463,
        4.1906758269760758E-05
      ],
      "min": [
        -0.99999195337295532,
        -1,
        -0.99999243021011353
      ],
      "type": "VEC3"
    },
    {
      "name": "TEXCOORD_0",
      "bufferView": 0,
      "byteOffset": 24,
      "componentType": 5126,
      "count": 104,
      "max": [
        0.982421875,
        0.998046875
      ],
      "min": [
        0.001953125,
        0.326171875
      ],
      "type": "VEC2"
    },
    {
      "bufferView": 1,
      "componentType": 5123,
      "count": 249,
      "type": "SCALAR"
    }
  ],
  "bufferViews": [
    {
      "buffer": 0,
      "byteLength": 3328,
      "byteStride": 32,
      "target": 34962
    },
    {
      "buffer": 0,
      "byteLength": 498,
      "byteOffset": 3328,
      "target": 34963
    }
  ],
  "buffers": [
    {
      "byteLength": 3828,
      "uri": "20525362525051737251_LOD00.bin"
    }
  ],
  "images": [
    {
      "uri": "20525362525051737251_LOD00.png"
    }
  ],
  "materials": [
    {
      "doubleSided": true,
      "pbrMetallicRoughness": {
        "baseColorTexture": {
          "index": 0
        },
        "metallicFactor": 0
      }
    }
  ],
  "meshes": [
    {
      "name": "20525362525051737251_0",
      "primitives": [
        {
          "attributes": {
            "POSITION": 0,
            "NORMAL": 1,
            "TEXCOORD_0": 2
          },
          "indices": 3,
          "material": 0
        }
      ]
    }
  ],
  "nodes": [
    {
      "mesh": 0
    }
  ],
  "scene": 0,
  "scenes": [
    {
      "nodes": [
        0
      ]
    }
  ],
  "textures": [
    {
      "source": 0
    }
  ]
}