{
  "asset": {
    "copyright": "",
    "generator": "SharpGLTF 1.0.0",
    "version": "2.0"
  },
  "accessors": [
    {
      "name": "POSITION",
      "bufferView": 0,
      "componentType": 5126,
      "count": 2913,
      "max": [
        -709.43017578125,
        74.695953369140625,
        497.30056762695313
      ],
      "min": [
        -741.8536376953125,
        45.963939666748047,
        459.06689453125
      ],
      "type": "VEC3"
    },
    {
      "name": "NORMAL",
      "bufferView": 0,
      "byteOffset": 12,
      "componentType": 5126,
      "count": 2913,
      "max": [
        0.99999260902404785,
        0.99998515844345093,
        0.99597418308258057
      ],
      "min": [
        -0.999991774559021,
        -0.99639225006103516,
        -0.99999254941940308
      ],
      "type": "VEC3"
    },
    {
      "name": "TEXCOORD_0",
      "bufferView": 0,
      "byteOffset": 24,
      "componentType": 5126,
      "count": 2913,
      "max": [
        0.998046875,
        0.9990234375
      ],
      "min": [
        0.001953125,
        0.0009765625
      ],
      "type": "VEC2"
    },
    {
      "bufferView": 1,
      "componentType": 5123,
      "count": 7191,
      "type": "SCALAR"
    },
    {
      "name": "POSITION",
      "bufferView": 0,
      "byteOffset": 93216,
      "componentType": 5126,
      "count": 821,
      "max": [
        -709.7366943359375,
        74.232612609863281,
        497.2998046875
      ],
      "min": [
        -732.4329833984375,
        46.582942962646484,
        459.06741333007813
      ],
      "type": "VEC3"
    },
    {
      "name": "NORMAL",
      "bufferView": 0,
      "byteOffset": 93228,
      "componentType": 5126,
      "count": 821,
      "max": [
        0.99600309133529663,
        0.99998515844345093,
        0.99482113122940063
      ],
      "min": [
        -0.9993213415145874,
        -0.95215874910354614,
        -0.99817019701004028
      ],
      "type": "VEC3"
    },
    {
      "name": "TEXCOORD_0",
      "bufferView": 0,
      "byteOffset": 93240,
      "componentType": 5126,
      "count": 821,
      "max": [
        0.998046875,
        0.998046875
      ],
      "min": [
        0.001953125,
        0.607421875
      ],
      "type": "VEC2"
    },
    {
      "bufferView": 1,
      "byteOffset": 14382,
      "componentType": 5123,
      "count": 1854,
      "type": "SCALAR"
    }
  ],
  "bufferViews": [
    {
      "buffer": 0,
      "byteLength": 119488,
      "byteStride": 32,
      "target": 34962
    },
    {
      "buffer": 0,
      "byteLength": 18090,
      "byteOffset": 119488,
      "target": 34963
    }
  ],
  "buffers": [
    {
      "byteLength": 137580,
      "uri": "20525362525140626346_LOD00.bin"
    }
  ],
  "images": [
    {
      "uri": "20525362525140626346_LOD00_0.png"
    },
    {
      "uri": "20525362525140626346_LOD00_1.png"
    }
  ],
  "materials": [
    {
      "doubleSided": true,
      "pbrMetallicRoughness": {
        "baseColorTexture": {
          "index": 0
        },
        "metallicFactor": 0
      }
    },
    {
      "doubleSided": true,
      "pbrMetallicRoughness": {
        "baseColorTexture": {
          "index": 1
        },
        "metallicFactor": 0
      }
    }
  ],
  "meshes": [
    {
      "name": "20525362525140626346_0",
      "primitives": [
        {
          "attributes": {
            "POSITION": 0,
            "NORMAL": 1,
            "TEXCOORD_0": 2
          },
          "indices": 3,
          "material": 0
        }
      ]
    },
    {
      "name": "20525362525140626346_1",
      "primitives": [
        {
          "attributes": {
            "POSITION": 4,
            "NORMAL": 5,
            "TEXCOORD_0": 6
          },
          "indices": 7,
          "material": 1
        }
      ]
    }
  ],
  "nodes": [
    {
      "mesh": 0
    },
    {
      "mesh": 1
    }
  ],
  "scene": 0,
  "scenes": [
    {
      "nodes": [
        0,
        1
      ]
    }
  ],
  "textures": [
    {
      "source": 0
    },
    {
      "source": 1
    }
  ]
}