{
  "asset": {
    "copyright": "",
    "generator": "SharpGLTF 1.0.0",
    "version": "2.0"
  },
  "accessors": [
    {
      "name": "POSITION",
      "bufferView": 0,
      "componentType": 5126,
      "count": 346,
      "max": [
        -356.6561279296875,
        38.300388336181641,
        153.80613708496094
      ],
      "min": [
        -389.23440551757813,
        36.599506378173828,
        114.96015167236328
      ],
      "type": "VEC3"
    },
    {
      "name": "NORMAL",
      "bufferView": 0,
      "byteOffset": 12,
      "componentType": 5126,
      "count": 346,
      "max": [
        0.99799096584320068,
        0.99998432397842407,
        0.93941348791122437
      ],
      "min": [
        -0.99490261077880859,
        -0.29351338744163513,
        -0.96365225315093994
      ],
      "type": "VEC3"
    },
    {
      "name": "TEXCOORD_0",
      "bufferView": 0,
      "byteOffset": 24,
      "componentType": 5126,
      "count": 346,
      "max": [
        0.798828125,
        0.998046875
      ],
      "min": [
        0.037109375,
        0.880859375
      ],
      "type": "VEC2"
    },
    {
      "bufferView": 1,
      "componentType": 5123,
      "count": 903,
      "type": "SCALAR"
    }
  ],
  "bufferViews": [
    {
      "buffer": 0,
      "byteLength": 11072,
      "byteStride": 32,
      "target": 34962
    },
    {
      "buffer": 0,
      "byteLength": 1806,
      "byteOffset": 11072,
      "target": 34963
    }
  ],
  "buffers": [
    {
      "byteLength": 12880,
      "uri": "20525362525051735241_LOD00.bin"
    }
  ],
  "images": [
    {
      "uri": "20525362525051735241_LOD00.png"
    }
  ],
  "materials": [
    {
      "doubleSided": true,
      "pbrMetallicRoughness": {
        "baseColorTexture": {
          "index": 0
        },
        "metallicFactor": 0
      }
    }
  ],
  "meshes": [
    {
      "name": "20525362525051735241_0",
      "primitives": [
        {
          "attributes": {
            "POSITION": 0,
            "NORMAL": 1,
            "TEXCOORD_0": 2
          },
          "indices": 3,
          "material": 0
        }
      ]
    }
  ],
  "nodes": [
    {
      "mesh": 0
    }
  ],
  "scene": 0,
  "scenes": [
    {
      "nodes": [
        0
      ]
    }
  ],
  "textures": [
    {
      "source": 0
    }
  ]
}