{
  "asset": {
    "copyright": "",
    "generator": "SharpGLTF 1.0.0",
    "version": "2.0"
  },
  "accessors": [
    {
      "name": "POSITION",
      "bufferView": 0,
      "componentType": 5126,
      "count": 1120,
      "max": [
        -67.751937866210938,
        37.845207214355469,
        191.55303955078125
      ],
      "min": [
        -99.867919921875,
        9.5747718811035156,
        153.32186889648438
      ],
      "type": "VEC3"
    },
    {
      "name": "NORMAL",
      "bufferView": 0,
      "byteOffset": 12,
      "componentType": 5126,
      "count": 1120,
      "max": [
        0.99999231100082397,
        0.99998462200164795,
        0.91248166561126709
      ],
      "min": [
        -0.96208471059799194,
        -1,
        -0.33941996097564697
      ],
      "type": "VEC3"
    },
    {
      "name": "TEXCOORD_0",
      "bufferView": 0,
      "byteOffset": 24,
      "componentType": 5126,
      "count": 1120,
      "max": [
        0.998046875,
        0.9990234375
      ],
      "min": [
        0.001953125,
        0.0009765625
      ],
      "type": "VEC2"
    },
    {
      "bufferView": 1,
      "componentType": 5123,
      "count": 2706,
      "type": "SCALAR"
    },
    {
      "name": "POSITION",
      "bufferView": 0,
      "byteOffset": 35840,
      "componentType": 5126,
      "count": 421,
      "max": [
        -67.751960754394531,
        37.844676971435547,
        191.5531005859375
      ],
      "min": [
        -100.33113861083984,
        9.5750846862792969,
        153.32186889648438
      ],
      "type": "VEC3"
    },
    {
      "name": "NORMAL",
      "bufferView": 0,
      "byteOffset": 35852,
      "componentType": 5126,
      "count": 421,
      "max": [
        0.99999231100082397,
        0.99998462200164795,
        0.98824673891067505
      ],
      "min": [
        -0.93214386701583862,
        -1,
        -0.97496658563613892
      ],
      "type": "VEC3"
    },
    {
      "name": "TEXCOORD_0",
      "bufferView": 0,
      "byteOffset": 35864,
      "componentType": 5126,
      "count": 421,
      "max": [
        0.998046875,
        0.998046875
      ],
      "min": [
        0.001953125,
        0.138671875
      ],
      "type": "VEC2"
    },
    {
      "bufferView": 1,
      "byteOffset": 5412,
      "componentType": 5123,
      "count": 1254,
      "type": "SCALAR"
    }
  ],
  "bufferViews": [
    {
      "buffer": 0,
      "byteLength": 49312,
      "byteStride": 32,
      "target": 34962
    },
    {
      "buffer": 0,
      "byteLength": 7920,
      "byteOffset": 49312,
      "target": 34963
    }
  ],
  "buffers": [
    {
      "byteLength": 57232,
      "uri": "20525362525051734242_LOD00.bin"
    }
  ],
  "images": [
    {
      "uri": "20525362525051734242_LOD00_0.png"
    },
    {
      "uri": "20525362525051734242_LOD00_1.png"
    }
  ],
  "materials": [
    {
      "doubleSided": true,
      "pbrMetallicRoughness": {
        "baseColorTexture": {
          "index": 0
        },
        "metallicFactor": 0
      }
    },
    {
      "doubleSided": true,
      "pbrMetallicRoughness": {
        "baseColorTexture": {
          "index": 1
        },
        "metallicFactor": 0
      }
    }
  ],
  "meshes": [
    {
      "name": "20525362525051734242_0",
      "primitives": [
        {
          "attributes": {
            "POSITION": 0,
            "NORMAL": 1,
            "TEXCOORD_0": 2
          },
          "indices": 3,
          "material": 0
        }
      ]
    },
    {
      "name": "20525362525051734242_1",
      "primitives": [
        {
          "attributes": {
            "POSITION": 4,
            "NORMAL": 5,
            "TEXCOORD_0": 6
          },
          "indices": 7,
          "material": 1
        }
      ]
    }
  ],
  "nodes": [
    {
      "mesh": 0
    },
    {
      "mesh": 1
    }
  ],
  "scene": 0,
  "scenes": [
    {
      "nodes": [
        0,
        1
      ]
    }
  ],
  "textures": [
    {
      "source": 0
    },
    {
      "source": 1
    }
  ]
}