{
  "asset": {
    "copyright": "",
    "generator": "SharpGLTF 1.0.0",
    "version": "2.0"
  },
  "accessors": [
    {
      "name": "POSITION",
      "bufferView": 0,
      "componentType": 5126,
      "count": 4630,
      "max": [
        -838.0107421875,
        59.091888427734375,
        153.37474060058594
      ],
      "min": [
        -870.28216552734375,
        42.873016357421875,
        115.14130401611328
      ],
      "type": "VEC3"
    },
    {
      "name": "NORMAL",
      "bufferView": 0,
      "byteOffset": 12,
      "componentType": 5126,
      "count": 4630,
      "max": [
        0.99999278783798218,
        0.99998492002487183,
        0.99999213218688965
      ],
      "min": [
        -0.99999171495437622,
        -1,
        -0.9999922513961792
      ],
      "type": "VEC3"
    },
    {
      "name": "TEXCOORD_0",
      "bufferView": 0,
      "byteOffset": 24,
      "componentType": 5126,
      "count": 4630,
      "max": [
        0.998046875,
        0.9990234375
      ],
      "min": [
        0.001953125,
        0.0009765625
      ],
      "type": "VEC2"
    },
    {
      "bufferView": 1,
      "componentType": 5123,
      "count": 11403,
      "type": "SCALAR"
    },
    {
      "name": "POSITION",
      "bufferView": 0,
      "byteOffset": 148160,
      "componentType": 5126,
      "count": 1590,
      "max": [
        -838.1632080078125,
        57.855930328369141,
        153.37310791015625
      ],
      "min": [
        -870.2813720703125,
        42.873092651367188,
        114.67888641357422
      ],
      "type": "VEC3"
    },
    {
      "name": "NORMAL",
      "bufferView": 0,
      "byteOffset": 148172,
      "componentType": 5126,
      "count": 1590,
      "max": [
        0.99999278783798218,
        0.99998492002487183,
        0.99999213218688965
      ],
      "min": [
        -0.9993215799331665,
        -0.92137032747268677,
        -0.99898195266723633
      ],
      "type": "VEC3"
    },
    {
      "name": "TEXCOORD_0",
      "bufferView": 0,
      "byteOffset": 148184,
      "componentType": 5126,
      "count": 1590,
      "max": [
        0.998046875,
        0.998046875
      ],
      "min": [
        0.001953125,
        0.439453125
      ],
      "type": "VEC2"
    },
    {
      "bufferView": 1,
      "byteOffset": 22806,
      "componentType": 5123,
      "count": 3561,
      "type": "SCALAR"
    }
  ],
  "bufferViews": [
    {
      "buffer": 0,
      "byteLength": 199040,
      "byteStride": 32,
      "target": 34962
    },
    {
      "buffer": 0,
      "byteLength": 29928,
      "byteOffset": 199040,
      "target": 34963
    }
  ],
  "buffers": [
    {
      "byteLength": 228968,
      "uri": "20525362525140625244_LOD00.bin"
    }
  ],
  "images": [
    {
      "uri": "20525362525140625244_LOD00_0.png"
    },
    {
      "uri": "20525362525140625244_LOD00_1.png"
    }
  ],
  "materials": [
    {
      "doubleSided": true,
      "pbrMetallicRoughness": {
        "baseColorTexture": {
          "index": 0
        },
        "metallicFactor": 0
      }
    },
    {
      "doubleSided": true,
      "pbrMetallicRoughness": {
        "baseColorTexture": {
          "index": 1
        },
        "metallicFactor": 0
      }
    }
  ],
  "meshes": [
    {
      "name": "20525362525140625244_0",
      "primitives": [
        {
          "attributes": {
            "POSITION": 0,
            "NORMAL": 1,
            "TEXCOORD_0": 2
          },
          "indices": 3,
          "material": 0
        }
      ]
    },
    {
      "name": "20525362525140625244_1",
      "primitives": [
        {
          "attributes": {
            "POSITION": 4,
            "NORMAL": 5,
            "TEXCOORD_0": 6
          },
          "indices": 7,
          "material": 1
        }
      ]
    }
  ],
  "nodes": [
    {
      "mesh": 0
    },
    {
      "mesh": 1
    }
  ],
  "scene": 0,
  "scenes": [
    {
      "nodes": [
        0,
        1
      ]
    }
  ],
  "textures": [
    {
      "source": 0
    },
    {
      "source": 1
    }
  ]
}