{
  "asset": {
    "copyright": "",
    "generator": "SharpGLTF 1.0.0",
    "version": "2.0"
  },
  "accessors": [
    {
      "name": "POSITION",
      "bufferView": 0,
      "componentType": 5126,
      "count": 301,
      "max": [
        -470.87039184570313,
        37.83050537109375,
        99.255516052246094
      ],
      "min": [
        -485.53860473632813,
        37.057674407958984,
        76.4403076171875
      ],
      "type": "VEC3"
    },
    {
      "name": "NORMAL",
      "bufferView": 0,
      "byteOffset": 12,
      "componentType": 5126,
      "count": 301,
      "max": [
        0.58825117349624634,
        0.99998480081558228,
        0.81759488582611084
      ],
      "min": [
        -0.93236929178237915,
        0.11449086666107178,
        -0.70072782039642334
      ],
      "type": "VEC3"
    },
    {
      "name": "TEXCOORD_0",
      "bufferView": 0,
      "byteOffset": 24,
      "componentType": 5126,
      "count": 301,
      "max": [
        0.990234375,
        0.998046875
      ],
      "min": [
        0.001953125,
        0.720703125
      ],
      "type": "VEC2"
    },
    {
      "bufferView": 1,
      "componentType": 5123,
      "count": 819,
      "type": "SCALAR"
    }
  ],
  "bufferViews": [
    {
      "buffer": 0,
      "byteLength": 9632,
      "byteStride": 32,
      "target": 34962
    },
    {
      "buffer": 0,
      "byteLength": 1638,
      "byteOffset": 9632,
      "target": 34963
    }
  ],
  "buffers": [
    {
      "byteLength": 11272,
      "uri": "20525362525051735162_LOD00.bin"
    }
  ],
  "images": [
    {
      "uri": "20525362525051735162_LOD00.png"
    }
  ],
  "materials": [
    {
      "doubleSided": true,
      "pbrMetallicRoughness": {
        "baseColorTexture": {
          "index": 0
        },
        "metallicFactor": 0
      }
    }
  ],
  "meshes": [
    {
      "name": "20525362525051735162_0",
      "primitives": [
        {
          "attributes": {
            "POSITION": 0,
            "NORMAL": 1,
            "TEXCOORD_0": 2
          },
          "indices": 3,
          "material": 0
        }
      ]
    }
  ],
  "nodes": [
    {
      "mesh": 0
    }
  ],
  "scene": 0,
  "scenes": [
    {
      "nodes": [
        0
      ]
    }
  ],
  "textures": [
    {
      "source": 0
    }
  ]
}