{
  "asset": {
    "copyright": "",
    "generator": "SharpGLTF 1.0.0",
    "version": "2.0"
  },
  "accessors": [
    {
      "name": "POSITION",
      "bufferView": 0,
      "componentType": 5126,
      "count": 1034,
      "max": [
        -645.5396728515625,
        74.2412109375,
        459.080322265625
      ],
      "min": [
        -677.96893310546875,
        37.783275604248047,
        420.84750366210938
      ],
      "type": "VEC3"
    },
    {
      "name": "NORMAL",
      "bufferView": 0,
      "byteOffset": 12,
      "componentType": 5126,
      "count": 1034,
      "max": [
        0.99999266862869263,
        0.99998503923416138,
        0.99999195337295532
      ],
      "min": [
        -0.99999189376831055,
        -1,
        -0.99898403882980347
      ],
      "type": "VEC3"
    },
    {
      "name": "TEXCOORD_0",
      "bufferView": 0,
      "byteOffset": 24,
      "componentType": 5126,
      "count": 1034,
      "max": [
        0.998046875,
        0.9990234375
      ],
      "min": [
        0.001953125,
        0.0009765625
      ],
      "type": "VEC2"
    },
    {
      "bufferView": 1,
      "componentType": 5123,
      "count": 2388,
      "type": "SCALAR"
    },
    {
      "name": "POSITION",
      "bufferView": 0,
      "byteOffset": 33088,
      "componentType": 5126,
      "count": 858,
      "max": [
        -645.54034423828125,
        49.369308471679688,
        459.07949829101563
      ],
      "min": [
        -677.65618896484375,
        41.183818817138672,
        420.8480224609375
      ],
      "type": "VEC3"
    },
    {
      "name": "NORMAL",
      "bufferView": 0,
      "byteOffset": 33100,
      "componentType": 5126,
      "count": 858,
      "max": [
        0.99999266862869263,
        0.99998503923416138,
        0.99999195337295532
      ],
      "min": [
        -0.99999189376831055,
        -1,
        -0.9963415265083313
      ],
      "type": "VEC3"
    },
    {
      "name": "TEXCOORD_0",
      "bufferView": 0,
      "byteOffset": 33112,
      "componentType": 5126,
      "count": 858,
      "max": [
        0.998046875,
        0.998046875
      ],
      "min": [
        0.001953125,
        0.439453125
      ],
      "type": "VEC2"
    },
    {
      "bufferView": 1,
      "byteOffset": 4776,
      "componentType": 5123,
      "count": 1998,
      "type": "SCALAR"
    }
  ],
  "bufferViews": [
    {
      "buffer": 0,
      "byteLength": 60544,
      "byteStride": 32,
      "target": 34962
    },
    {
      "buffer": 0,
      "byteLength": 8772,
      "byteOffset": 60544,
      "target": 34963
    }
  ],
  "buffers": [
    {
      "byteLength": 69316,
      "uri": "20525362525140626254_LOD00.bin"
    }
  ],
  "images": [
    {
      "uri": "20525362525140626254_LOD00_0.png"
    },
    {
      "uri": "20525362525140626254_LOD00_1.png"
    }
  ],
  "materials": [
    {
      "doubleSided": true,
      "pbrMetallicRoughness": {
        "baseColorTexture": {
          "index": 0
        },
        "metallicFactor": 0
      }
    },
    {
      "doubleSided": true,
      "pbrMetallicRoughness": {
        "baseColorTexture": {
          "index": 1
        },
        "metallicFactor": 0
      }
    }
  ],
  "meshes": [
    {
      "name": "20525362525140626254_0",
      "primitives": [
        {
          "attributes": {
            "POSITION": 0,
            "NORMAL": 1,
            "TEXCOORD_0": 2
          },
          "indices": 3,
          "material": 0
        }
      ]
    },
    {
      "name": "20525362525140626254_1",
      "primitives": [
        {
          "attributes": {
            "POSITION": 4,
            "NORMAL": 5,
            "TEXCOORD_0": 6
          },
          "indices": 7,
          "material": 1
        }
      ]
    }
  ],
  "nodes": [
    {
      "mesh": 0
    },
    {
      "mesh": 1
    }
  ],
  "scene": 0,
  "scenes": [
    {
      "nodes": [
        0,
        1
      ]
    }
  ],
  "textures": [
    {
      "source": 0
    },
    {
      "source": 1
    }
  ]
}