{
  "asset": {
    "copyright": "",
    "generator": "SharpGLTF 1.0.0",
    "version": "2.0"
  },
  "accessors": [
    {
      "name": "POSITION",
      "bufferView": 0,
      "componentType": 5126,
      "count": 1454,
      "max": [
        -99.698509216308594,
        38.000156402587891,
        115.43169403076172
      ],
      "min": [
        -131.96894836425781,
        32.12994384765625,
        91.537406921386719
      ],
      "type": "VEC3"
    },
    {
      "name": "NORMAL",
      "bufferView": 0,
      "byteOffset": 12,
      "componentType": 5126,
      "count": 1454,
      "max": [
        0.99931645393371582,
        0.99998462200164795,
        0.99999219179153442
      ],
      "min": [
        -0.98342043161392212,
        -1,
        -0.99915057420730591
      ],
      "type": "VEC3"
    },
    {
      "name": "TEXCOORD_0",
      "bufferView": 0,
      "byteOffset": 24,
      "componentType": 5126,
      "count": 1454,
      "max": [
        0.998046875,
        0.998046875
      ],
      "min": [
        0.001953125,
        0.044921875
      ],
      "type": "VEC2"
    },
    {
      "bufferView": 1,
      "componentType": 5123,
      "count": 3642,
      "type": "SCALAR"
    }
  ],
  "bufferViews": [
    {
      "buffer": 0,
      "byteLength": 46528,
      "byteStride": 32,
      "target": 34962
    },
    {
      "buffer": 0,
      "byteLength": 7284,
      "byteOffset": 46528,
      "target": 34963
    }
  ],
  "buffers": [
    {
      "byteLength": 53812,
      "uri": "20525362525051734063_LOD00.bin"
    }
  ],
  "images": [
    {
      "uri": "20525362525051734063_LOD00.png"
    }
  ],
  "materials": [
    {
      "doubleSided": true,
      "pbrMetallicRoughness": {
        "baseColorTexture": {
          "index": 0
        },
        "metallicFactor": 0
      }
    }
  ],
  "meshes": [
    {
      "name": "20525362525051734063_0",
      "primitives": [
        {
          "attributes": {
            "POSITION": 0,
            "NORMAL": 1,
            "TEXCOORD_0": 2
          },
          "indices": 3,
          "material": 0
        }
      ]
    }
  ],
  "nodes": [
    {
      "mesh": 0
    }
  ],
  "scene": 0,
  "scenes": [
    {
      "nodes": [
        0
      ]
    }
  ],
  "textures": [
    {
      "source": 0
    }
  ]
}