{
  "asset": {
    "copyright": "",
    "generator": "SharpGLTF 1.0.0",
    "version": "2.0"
  },
  "accessors": [
    {
      "name": "POSITION",
      "bufferView": 0,
      "componentType": 5126,
      "count": 4009,
      "max": [
        -356.6529541015625,
        63.771694183349609,
        230.08247375488281
      ],
      "min": [
        -388.76983642578125,
        37.356048583984375,
        191.54316711425781
      ],
      "type": "VEC3"
    },
    {
      "name": "NORMAL",
      "bufferView": 0,
      "byteOffset": 12,
      "componentType": 5126,
      "count": 4009,
      "max": [
        0.9999924898147583,
        0.9999847412109375,
        0.99999207258224487
      ],
      "min": [
        -0.99999195337295532,
        -0.84018272161483765,
        -0.99999237060546875
      ],
      "type": "VEC3"
    },
    {
      "name": "TEXCOORD_0",
      "bufferView": 0,
      "byteOffset": 24,
      "componentType": 5126,
      "count": 4009,
      "max": [
        0.998046875,
        0.9990234375
      ],
      "min": [
        0.001953125,
        0.0009765625
      ],
      "type": "VEC2"
    },
    {
      "bufferView": 1,
      "componentType": 5123,
      "count": 9984,
      "type": "SCALAR"
    },
    {
      "name": "POSITION",
      "bufferView": 0,
      "byteOffset": 128288,
      "componentType": 5126,
      "count": 1768,
      "max": [
        -356.6529541015625,
        63.771701812744141,
        229.77510070800781
      ],
      "min": [
        -388.76983642578125,
        37.356075286865234,
        191.39004516601563
      ],
      "type": "VEC3"
    },
    {
      "name": "NORMAL",
      "bufferView": 0,
      "byteOffset": 128300,
      "componentType": 5126,
      "count": 1768,
      "max": [
        0.9999924898147583,
        0.9999847412109375,
        0.99999207258224487
      ],
      "min": [
        -0.99999195337295532,
        -0.8230898380279541,
        -0.99999237060546875
      ],
      "type": "VEC3"
    },
    {
      "name": "TEXCOORD_0",
      "bufferView": 0,
      "byteOffset": 128312,
      "componentType": 5126,
      "count": 1768,
      "max": [
        0.998046875,
        0.998046875
      ],
      "min": [
        0.001953125,
        0.376953125
      ],
      "type": "VEC2"
    },
    {
      "bufferView": 1,
      "byteOffset": 19968,
      "componentType": 5123,
      "count": 4248,
      "type": "SCALAR"
    }
  ],
  "bufferViews": [
    {
      "buffer": 0,
      "byteLength": 184864,
      "byteStride": 32,
      "target": 34962
    },
    {
      "buffer": 0,
      "byteLength": 28464,
      "byteOffset": 184864,
      "target": 34963
    }
  ],
  "buffers": [
    {
      "byteLength": 213328,
      "uri": "20525362525051735265_LOD00.bin"
    }
  ],
  "images": [
    {
      "uri": "20525362525051735265_LOD00_0.png"
    },
    {
      "uri": "20525362525051735265_LOD00_1.png"
    }
  ],
  "materials": [
    {
      "doubleSided": true,
      "pbrMetallicRoughness": {
        "baseColorTexture": {
          "index": 0
        },
        "metallicFactor": 0
      }
    },
    {
      "doubleSided": true,
      "pbrMetallicRoughness": {
        "baseColorTexture": {
          "index": 1
        },
        "metallicFactor": 0
      }
    }
  ],
  "meshes": [
    {
      "name": "20525362525051735265_0",
      "primitives": [
        {
          "attributes": {
            "POSITION": 0,
            "NORMAL": 1,
            "TEXCOORD_0": 2
          },
          "indices": 3,
          "material": 0
        }
      ]
    },
    {
      "name": "20525362525051735265_1",
      "primitives": [
        {
          "attributes": {
            "POSITION": 4,
            "NORMAL": 5,
            "TEXCOORD_0": 6
          },
          "indices": 7,
          "material": 1
        }
      ]
    }
  ],
  "nodes": [
    {
      "mesh": 0
    },
    {
      "mesh": 1
    }
  ],
  "scene": 0,
  "scenes": [
    {
      "nodes": [
        0,
        1
      ]
    }
  ],
  "textures": [
    {
      "source": 0
    },
    {
      "source": 1
    }
  ]
}