{
  "asset": {
    "copyright": "",
    "generator": "SharpGLTF 1.0.0",
    "version": "2.0"
  },
  "accessors": [
    {
      "name": "POSITION",
      "bufferView": 0,
      "componentType": 5126,
      "count": 143,
      "max": [
        -131.94837951660156,
        37.824836730957031,
        554.89691162109375
      ],
      "min": [
        -164.06301879882813,
        35.042118072509766,
        535.4727783203125
      ],
      "type": "VEC3"
    },
    {
      "name": "NORMAL",
      "bufferView": 0,
      "byteOffset": 12,
      "componentType": 5126,
      "count": 143,
      "max": [
        0.9999922513961792,
        0.049437347799539566,
        0.99999189376831055
      ],
      "min": [
        -0.99999207258224487,
        -1,
        -0.50594109296798706
      ],
      "type": "VEC3"
    },
    {
      "name": "TEXCOORD_0",
      "bufferView": 0,
      "byteOffset": 24,
      "componentType": 5126,
      "count": 143,
      "max": [
        0.994140625,
        0.998046875
      ],
      "min": [
        0.001953125,
        0.474609375
      ],
      "type": "VEC2"
    },
    {
      "bufferView": 1,
      "componentType": 5123,
      "count": 306,
      "type": "SCALAR"
    }
  ],
  "bufferViews": [
    {
      "buffer": 0,
      "byteLength": 4576,
      "byteStride": 32,
      "target": 34962
    },
    {
      "buffer": 0,
      "byteLength": 612,
      "byteOffset": 4576,
      "target": 34963
    }
  ],
  "buffers": [
    {
      "byteLength": 5188,
      "uri": "20525362525051736272_LOD00.bin"
    }
  ],
  "images": [
    {
      "uri": "20525362525051736272_LOD00.png"
    }
  ],
  "materials": [
    {
      "doubleSided": true,
      "pbrMetallicRoughness": {
        "baseColorTexture": {
          "index": 0
        },
        "metallicFactor": 0
      }
    }
  ],
  "meshes": [
    {
      "name": "20525362525051736272_0",
      "primitives": [
        {
          "attributes": {
            "POSITION": 0,
            "NORMAL": 1,
            "TEXCOORD_0": 2
          },
          "indices": 3,
          "material": 0
        }
      ]
    }
  ],
  "nodes": [
    {
      "mesh": 0
    }
  ],
  "scene": 0,
  "scenes": [
    {
      "nodes": [
        0
      ]
    }
  ],
  "textures": [
    {
      "source": 0
    }
  ]
}