{
  "asset": {
    "copyright": "",
    "generator": "SharpGLTF 1.0.0",
    "version": "2.0"
  },
  "accessors": [
    {
      "name": "POSITION",
      "bufferView": 0,
      "componentType": 5126,
      "count": 73,
      "max": [
        -160.97404479980469,
        37.820732116699219,
        608.06494140625
      ],
      "min": [
        -164.525634765625,
        25.614389419555664,
        577.8494873046875
      ],
      "type": "VEC3"
    },
    {
      "name": "NORMAL",
      "bufferView": 0,
      "byteOffset": 12,
      "componentType": 5126,
      "count": 73,
      "max": [
        0.99999231100082397,
        0.041775885969400406,
        0.95145833492279053
      ],
      "min": [
        2.0160920030320995E-05,
        -1,
        -0.31877988576889038
      ],
      "type": "VEC3"
    },
    {
      "name": "TEXCOORD_0",
      "bufferView": 0,
      "byteOffset": 24,
      "componentType": 5126,
      "count": 73,
      "max": [
        0.849609375,
        0.998046875
      ],
      "min": [
        0.001953125,
        0.611328125
      ],
      "type": "VEC2"
    },
    {
      "bufferView": 1,
      "componentType": 5123,
      "count": 198,
      "type": "SCALAR"
    }
  ],
  "bufferViews": [
    {
      "buffer": 0,
      "byteLength": 2336,
      "byteStride": 32,
      "target": 34962
    },
    {
      "buffer": 0,
      "byteLength": 396,
      "byteOffset": 2336,
      "target": 34963
    }
  ],
  "buffers": [
    {
      "byteLength": 2732,
      "uri": "20525362525053514050_LOD00.bin"
    }
  ],
  "images": [
    {
      "uri": "20525362525053514050_LOD00.png"
    }
  ],
  "materials": [
    {
      "doubleSided": true,
      "pbrMetallicRoughness": {
        "baseColorTexture": {
          "index": 0
        },
        "metallicFactor": 0
      }
    }
  ],
  "meshes": [
    {
      "name": "20525362525053514050_0",
      "primitives": [
        {
          "attributes": {
            "POSITION": 0,
            "NORMAL": 1,
            "TEXCOORD_0": 2
          },
          "indices": 3,
          "material": 0
        }
      ]
    }
  ],
  "nodes": [
    {
      "mesh": 0
    }
  ],
  "scene": 0,
  "scenes": [
    {
      "nodes": [
        0
      ]
    }
  ],
  "textures": [
    {
      "source": 0
    }
  ]
}