{
  "asset": {
    "copyright": "",
    "generator": "SharpGLTF 1.0.0",
    "version": "2.0"
  },
  "accessors": [
    {
      "name": "POSITION",
      "bufferView": 0,
      "componentType": 5126,
      "count": 26,
      "max": [
        -420.84051513671875,
        110.69078063964844,
        589.581298828125
      ],
      "min": [
        -452.9576416015625,
        74.232162475585938,
        588.96002197265625
      ],
      "type": "VEC3"
    },
    {
      "name": "NORMAL",
      "bufferView": 0,
      "byteOffset": 12,
      "componentType": 5126,
      "count": 26,
      "max": [
        -4.1774936107685789E-05,
        -0.0038553935009986162,
        -0.99999254941940308
      ],
      "min": [
        -4.1774936107685789E-05,
        -0.0038553935009986162,
        -0.99999254941940308
      ],
      "type": "VEC3"
    },
    {
      "name": "TEXCOORD_0",
      "bufferView": 0,
      "byteOffset": 24,
      "componentType": 5126,
      "count": 26,
      "max": [
        0.923828125,
        0.998046875
      ],
      "min": [
        0.001953125,
        0.185546875
      ],
      "type": "VEC2"
    },
    {
      "bufferView": 1,
      "componentType": 5123,
      "count": 123,
      "type": "SCALAR"
    }
  ],
  "bufferViews": [
    {
      "buffer": 0,
      "byteLength": 832,
      "byteStride": 32,
      "target": 34962
    },
    {
      "buffer": 0,
      "byteLength": 246,
      "byteOffset": 832,
      "target": 34963
    }
  ],
  "buffers": [
    {
      "byteLength": 1080,
      "uri": "20525362525053515411_LOD00.bin"
    }
  ],
  "images": [
    {
      "uri": "20525362525053515411_LOD00.png"
    }
  ],
  "materials": [
    {
      "doubleSided": true,
      "pbrMetallicRoughness": {
        "baseColorTexture": {
          "index": 0
        },
        "metallicFactor": 0
      }
    }
  ],
  "meshes": [
    {
      "name": "20525362525053515411_0",
      "primitives": [
        {
          "attributes": {
            "POSITION": 0,
            "NORMAL": 1,
            "TEXCOORD_0": 2
          },
          "indices": 3,
          "material": 0
        }
      ]
    }
  ],
  "nodes": [
    {
      "mesh": 0
    }
  ],
  "scene": 0,
  "scenes": [
    {
      "nodes": [
        0
      ]
    }
  ],
  "textures": [
    {
      "source": 0
    }
  ]
}