{
  "asset": {
    "copyright": "",
    "generator": "SharpGLTF 1.0.0",
    "version": "2.0"
  },
  "accessors": [
    {
      "name": "POSITION",
      "bufferView": 0,
      "componentType": 5126,
      "count": 4856,
      "max": [
        -773.9345703125,
        74.535491943359375,
        497.30496215820313
      ],
      "min": [
        -806.35845947265625,
        47.191997528076172,
        459.072021484375
      ],
      "type": "VEC3"
    },
    {
      "name": "NORMAL",
      "bufferView": 0,
      "byteOffset": 12,
      "componentType": 5126,
      "count": 4856,
      "max": [
        0.99931216239929199,
        0.99998509883880615,
        0.99999195337295532
      ],
      "min": [
        -0.999991774559021,
        -0.99639135599136353,
        -0.99931186437606812
      ],
      "type": "VEC3"
    },
    {
      "name": "TEXCOORD_0",
      "bufferView": 0,
      "byteOffset": 24,
      "componentType": 5126,
      "count": 4856,
      "max": [
        0.998046875,
        0.9990234375
      ],
      "min": [
        0.001953125,
        0.0009765625
      ],
      "type": "VEC2"
    },
    {
      "bufferView": 1,
      "componentType": 5123,
      "count": 12342,
      "type": "SCALAR"
    },
    {
      "name": "POSITION",
      "bufferView": 0,
      "byteOffset": 155392,
      "componentType": 5126,
      "count": 1131,
      "max": [
        -773.93560791015625,
        74.382064819335938,
        490.0596923828125
      ],
      "min": [
        -806.05303955078125,
        47.501468658447266,
        459.07205200195313
      ],
      "type": "VEC3"
    },
    {
      "name": "NORMAL",
      "bufferView": 0,
      "byteOffset": 155404,
      "componentType": 5126,
      "count": 1131,
      "max": [
        0.99799883365631104,
        0.99998509883880615,
        0.9967305064201355
      ],
      "min": [
        -0.999991774559021,
        -0.97520393133163452,
        -0.99999254941940308
      ],
      "type": "VEC3"
    },
    {
      "name": "TEXCOORD_0",
      "bufferView": 0,
      "byteOffset": 155416,
      "componentType": 5126,
      "count": 1131,
      "max": [
        0.998046875,
        0.998046875
      ],
      "min": [
        0.001953125,
        0.587890625
      ],
      "type": "VEC2"
    },
    {
      "bufferView": 1,
      "byteOffset": 24684,
      "componentType": 5123,
      "count": 2526,
      "type": "SCALAR"
    }
  ],
  "bufferViews": [
    {
      "buffer": 0,
      "byteLength": 191584,
      "byteStride": 32,
      "target": 34962
    },
    {
      "buffer": 0,
      "byteLength": 29736,
      "byteOffset": 191584,
      "target": 34963
    }
  ],
  "buffers": [
    {
      "byteLength": 221320,
      "uri": "20525362525140626356_LOD00.bin"
    }
  ],
  "images": [
    {
      "uri": "20525362525140626356_LOD00_0.png"
    },
    {
      "uri": "20525362525140626356_LOD00_1.png"
    }
  ],
  "materials": [
    {
      "doubleSided": true,
      "pbrMetallicRoughness": {
        "baseColorTexture": {
          "index": 0
        },
        "metallicFactor": 0
      }
    },
    {
      "doubleSided": true,
      "pbrMetallicRoughness": {
        "baseColorTexture": {
          "index": 1
        },
        "metallicFactor": 0
      }
    }
  ],
  "meshes": [
    {
      "name": "20525362525140626356_0",
      "primitives": [
        {
          "attributes": {
            "POSITION": 0,
            "NORMAL": 1,
            "TEXCOORD_0": 2
          },
          "indices": 3,
          "material": 0
        }
      ]
    },
    {
      "name": "20525362525140626356_1",
      "primitives": [
        {
          "attributes": {
            "POSITION": 4,
            "NORMAL": 5,
            "TEXCOORD_0": 6
          },
          "indices": 7,
          "material": 1
        }
      ]
    }
  ],
  "nodes": [
    {
      "mesh": 0
    },
    {
      "mesh": 1
    }
  ],
  "scene": 0,
  "scenes": [
    {
      "nodes": [
        0,
        1
      ]
    }
  ],
  "textures": [
    {
      "source": 0
    },
    {
      "source": 1
    }
  ]
}