{
  "asset": {
    "copyright": "",
    "generator": "SharpGLTF 1.0.0",
    "version": "2.0"
  },
  "accessors": [
    {
      "name": "POSITION",
      "bufferView": 0,
      "componentType": 5126,
      "count": 1685,
      "max": [
        -260.347900390625,
        90.009208679199219,
        469.222900390625
      ],
      "min": [
        -292.46343994140625,
        73.78729248046875,
        458.74050903320313
      ],
      "type": "VEC3"
    },
    {
      "name": "NORMAL",
      "bufferView": 0,
      "byteOffset": 12,
      "componentType": 5126,
      "count": 1685,
      "max": [
        0.99049854278564453,
        0.99998486042022705,
        0.99999183416366577
      ],
      "min": [
        -0.99999207258224487,
        -0.99510633945465088,
        -0.9963449239730835
      ],
      "type": "VEC3"
    },
    {
      "name": "TEXCOORD_0",
      "bufferView": 0,
      "byteOffset": 24,
      "componentType": 5126,
      "count": 1685,
      "max": [
        0.998046875,
        0.998046875
      ],
      "min": [
        0.001953125,
        0.240234375
      ],
      "type": "VEC2"
    },
    {
      "bufferView": 1,
      "componentType": 5123,
      "count": 4293,
      "type": "SCALAR"
    }
  ],
  "bufferViews": [
    {
      "buffer": 0,
      "byteLength": 53920,
      "byteStride": 32,
      "target": 34962
    },
    {
      "buffer": 0,
      "byteLength": 8586,
      "byteOffset": 53920,
      "target": 34963
    }
  ],
  "buffers": [
    {
      "byteLength": 62508,
      "uri": "20525362525051736712_LOD00.bin"
    }
  ],
  "images": [
    {
      "uri": "20525362525051736712_LOD00.png"
    }
  ],
  "materials": [
    {
      "doubleSided": true,
      "pbrMetallicRoughness": {
        "baseColorTexture": {
          "index": 0
        },
        "metallicFactor": 0
      }
    }
  ],
  "meshes": [
    {
      "name": "20525362525051736712_0",
      "primitives": [
        {
          "attributes": {
            "POSITION": 0,
            "NORMAL": 1,
            "TEXCOORD_0": 2
          },
          "indices": 3,
          "material": 0
        }
      ]
    }
  ],
  "nodes": [
    {
      "mesh": 0
    }
  ],
  "scene": 0,
  "scenes": [
    {
      "nodes": [
        0
      ]
    }
  ],
  "textures": [
    {
      "source": 0
    }
  ]
}