{
  "asset": {
    "copyright": "",
    "generator": "SharpGLTF 1.0.0",
    "version": "2.0"
  },
  "accessors": [
    {
      "name": "POSITION",
      "bufferView": 0,
      "componentType": 5126,
      "count": 5867,
      "max": [
        -420.8587646484375,
        65.623565673828125,
        115.13265228271484
      ],
      "min": [
        -452.97622680664063,
        41.370155334472656,
        76.900619506835938
      ],
      "type": "VEC3"
    },
    {
      "name": "NORMAL",
      "bufferView": 0,
      "byteOffset": 12,
      "componentType": 5126,
      "count": 5867,
      "max": [
        0.99999243021011353,
        0.99998480081558228,
        0.99999219179153442
      ],
      "min": [
        -0.99999195337295532,
        -0.9912446141242981,
        -0.9999922513961792
      ],
      "type": "VEC3"
    },
    {
      "name": "TEXCOORD_0",
      "bufferView": 0,
      "byteOffset": 24,
      "componentType": 5126,
      "count": 5867,
      "max": [
        0.998046875,
        0.9990234375
      ],
      "min": [
        0.001953125,
        0.0009765625
      ],
      "type": "VEC2"
    },
    {
      "bufferView": 1,
      "componentType": 5123,
      "count": 13434,
      "type": "SCALAR"
    },
    {
      "name": "POSITION",
      "bufferView": 0,
      "byteOffset": 187744,
      "componentType": 5126,
      "count": 1625,
      "max": [
        -420.39663696289063,
        65.623565673828125,
        115.13271331787109
      ],
      "min": [
        -452.97625732421875,
        41.370525360107422,
        76.900604248046875
      ],
      "type": "VEC3"
    },
    {
      "name": "NORMAL",
      "bufferView": 0,
      "byteOffset": 187756,
      "componentType": 5126,
      "count": 1625,
      "max": [
        0.99999243021011353,
        0.99998480081558228,
        0.99999219179153442
      ],
      "min": [
        -0.99999195337295532,
        -0.9991719126701355,
        -0.99915188550949097
      ],
      "type": "VEC3"
    },
    {
      "name": "TEXCOORD_0",
      "bufferView": 0,
      "byteOffset": 187768,
      "componentType": 5126,
      "count": 1625,
      "max": [
        0.998046875,
        0.998046875
      ],
      "min": [
        0.001953125,
        0.611328125
      ],
      "type": "VEC2"
    },
    {
      "bufferView": 1,
      "byteOffset": 26868,
      "componentType": 5123,
      "count": 3447,
      "type": "SCALAR"
    }
  ],
  "bufferViews": [
    {
      "buffer": 0,
      "byteLength": 239744,
      "byteStride": 32,
      "target": 34962
    },
    {
      "buffer": 0,
      "byteLength": 33762,
      "byteOffset": 239744,
      "target": 34963
    }
  ],
  "buffers": [
    {
      "byteLength": 273508,
      "uri": "20525362525051735077_LOD00.bin"
    }
  ],
  "images": [
    {
      "uri": "20525362525051735077_LOD00_0.png"
    },
    {
      "uri": "20525362525051735077_LOD00_1.png"
    }
  ],
  "materials": [
    {
      "doubleSided": true,
      "pbrMetallicRoughness": {
        "baseColorTexture": {
          "index": 0
        },
        "metallicFactor": 0
      }
    },
    {
      "doubleSided": true,
      "pbrMetallicRoughness": {
        "baseColorTexture": {
          "index": 1
        },
        "metallicFactor": 0
      }
    }
  ],
  "meshes": [
    {
      "name": "20525362525051735077_0",
      "primitives": [
        {
          "attributes": {
            "POSITION": 0,
            "NORMAL": 1,
            "TEXCOORD_0": 2
          },
          "indices": 3,
          "material": 0
        }
      ]
    },
    {
      "name": "20525362525051735077_1",
      "primitives": [
        {
          "attributes": {
            "POSITION": 4,
            "NORMAL": 5,
            "TEXCOORD_0": 6
          },
          "indices": 7,
          "material": 1
        }
      ]
    }
  ],
  "nodes": [
    {
      "mesh": 0
    },
    {
      "mesh": 1
    }
  ],
  "scene": 0,
  "scenes": [
    {
      "nodes": [
        0,
        1
      ]
    }
  ],
  "textures": [
    {
      "source": 0
    },
    {
      "source": 1
    }
  ]
}