{
  "asset": {
    "copyright": "",
    "generator": "SharpGLTF 1.0.0",
    "version": "2.0"
  },
  "accessors": [
    {
      "name": "POSITION",
      "bufferView": 0,
      "componentType": 5126,
      "count": 1579,
      "max": [
        -99.850257873535156,
        74.274787902832031,
        420.845703125
      ],
      "min": [
        -131.96578979492188,
        37.509838104248047,
        382.61257934570313
      ],
      "type": "VEC3"
    },
    {
      "name": "NORMAL",
      "bufferView": 0,
      "byteOffset": 12,
      "componentType": 5126,
      "count": 1579,
      "max": [
        0.99999231100082397,
        0.99998480081558228,
        0.9999920129776001
      ],
      "min": [
        -0.99999219179153442,
        -1,
        -0.9999924898147583
      ],
      "type": "VEC3"
    },
    {
      "name": "TEXCOORD_0",
      "bufferView": 0,
      "byteOffset": 24,
      "componentType": 5126,
      "count": 1579,
      "max": [
        0.998046875,
        0.9990234375
      ],
      "min": [
        0.001953125,
        0.0009765625
      ],
      "type": "VEC2"
    },
    {
      "bufferView": 1,
      "componentType": 5123,
      "count": 3882,
      "type": "SCALAR"
    },
    {
      "name": "POSITION",
      "bufferView": 0,
      "byteOffset": 50528,
      "componentType": 5126,
      "count": 74,
      "max": [
        -106.33512115478516,
        44.615234375,
        418.9935302734375
      ],
      "min": [
        -130.11279296875,
        38.127540588378906,
        411.59423828125
      ],
      "type": "VEC3"
    },
    {
      "name": "NORMAL",
      "bufferView": 0,
      "byteOffset": 50540,
      "componentType": 5126,
      "count": 74,
      "max": [
        0.99599456787109375,
        0.99998468160629272,
        0.9999920129776001
      ],
      "min": [
        -0.99178028106689453,
        -0.9832032322883606,
        -0.69687753915786743
      ],
      "type": "VEC3"
    },
    {
      "name": "TEXCOORD_0",
      "bufferView": 0,
      "byteOffset": 50552,
      "componentType": 5126,
      "count": 74,
      "max": [
        0.556640625,
        0.998046875
      ],
      "min": [
        0.001953125,
        0.935546875
      ],
      "type": "VEC2"
    },
    {
      "bufferView": 1,
      "byteOffset": 7764,
      "componentType": 5123,
      "count": 168,
      "type": "SCALAR"
    }
  ],
  "bufferViews": [
    {
      "buffer": 0,
      "byteLength": 52896,
      "byteStride": 32,
      "target": 34962
    },
    {
      "buffer": 0,
      "byteLength": 8100,
      "byteOffset": 52896,
      "target": 34963
    }
  ],
  "buffers": [
    {
      "byteLength": 60996,
      "uri": "20525362525051736067_LOD00.bin"
    }
  ],
  "images": [
    {
      "uri": "20525362525051736067_LOD00_0.png"
    },
    {
      "uri": "20525362525051736067_LOD00_1.png"
    }
  ],
  "materials": [
    {
      "doubleSided": true,
      "pbrMetallicRoughness": {
        "baseColorTexture": {
          "index": 0
        },
        "metallicFactor": 0
      }
    },
    {
      "doubleSided": true,
      "pbrMetallicRoughness": {
        "baseColorTexture": {
          "index": 1
        },
        "metallicFactor": 0
      }
    }
  ],
  "meshes": [
    {
      "name": "20525362525051736067_0",
      "primitives": [
        {
          "attributes": {
            "POSITION": 0,
            "NORMAL": 1,
            "TEXCOORD_0": 2
          },
          "indices": 3,
          "material": 0
        }
      ]
    },
    {
      "name": "20525362525051736067_1",
      "primitives": [
        {
          "attributes": {
            "POSITION": 4,
            "NORMAL": 5,
            "TEXCOORD_0": 6
          },
          "indices": 7,
          "material": 1
        }
      ]
    }
  ],
  "nodes": [
    {
      "mesh": 0
    },
    {
      "mesh": 1
    }
  ],
  "scene": 0,
  "scenes": [
    {
      "nodes": [
        0,
        1
      ]
    }
  ],
  "textures": [
    {
      "source": 0
    },
    {
      "source": 1
    }
  ]
}