{
  "asset": {
    "copyright": "",
    "generator": "SharpGLTF 1.0.0",
    "version": "2.0"
  },
  "accessors": [
    {
      "name": "POSITION",
      "bufferView": 0,
      "componentType": 5126,
      "count": 867,
      "max": [
        -3.5514326095581055,
        37.846473693847656,
        115.12281036376953
      ],
      "min": [
        -35.667404174804688,
        14.829060554504395,
        76.892173767089844
      ],
      "type": "VEC3"
    },
    {
      "name": "NORMAL",
      "bufferView": 0,
      "byteOffset": 12,
      "componentType": 5126,
      "count": 867,
      "max": [
        0.99999219179153442,
        0.99998444318771362,
        0.99999219179153442
      ],
      "min": [
        -0.99999219179153442,
        -1,
        -0.99999231100082397
      ],
      "type": "VEC3"
    },
    {
      "name": "TEXCOORD_0",
      "bufferView": 0,
      "byteOffset": 24,
      "componentType": 5126,
      "count": 867,
      "max": [
        0.998046875,
        0.9990234375
      ],
      "min": [
        0.001953125,
        0.0009765625
      ],
      "type": "VEC2"
    },
    {
      "bufferView": 1,
      "componentType": 5123,
      "count": 2118,
      "type": "SCALAR"
    },
    {
      "name": "POSITION",
      "bufferView": 0,
      "byteOffset": 27744,
      "componentType": 5126,
      "count": 383,
      "max": [
        -3.5514326095581055,
        37.846473693847656,
        115.122802734375
      ],
      "min": [
        -35.667404174804688,
        32.13043212890625,
        80.746322631835938
      ],
      "type": "VEC3"
    },
    {
      "name": "NORMAL",
      "bufferView": 0,
      "byteOffset": 27756,
      "componentType": 5126,
      "count": 383,
      "max": [
        0.99999219179153442,
        0.99998444318771362,
        0.99999219179153442
      ],
      "min": [
        -0.99999219179153442,
        -1,
        -0.71740853786468506
      ],
      "type": "VEC3"
    },
    {
      "name": "TEXCOORD_0",
      "bufferView": 0,
      "byteOffset": 27768,
      "componentType": 5126,
      "count": 383,
      "max": [
        0.998046875,
        0.998046875
      ],
      "min": [
        0.001953125,
        0.669921875
      ],
      "type": "VEC2"
    },
    {
      "bufferView": 1,
      "byteOffset": 4236,
      "componentType": 5123,
      "count": 960,
      "type": "SCALAR"
    }
  ],
  "bufferViews": [
    {
      "buffer": 0,
      "byteLength": 40000,
      "byteStride": 32,
      "target": 34962
    },
    {
      "buffer": 0,
      "byteLength": 6156,
      "byteOffset": 40000,
      "target": 34963
    }
  ],
  "buffers": [
    {
      "byteLength": 46156,
      "uri": "20525362525051725172_LOD00.bin"
    }
  ],
  "images": [
    {
      "uri": "20525362525051725172_LOD00_0.png"
    },
    {
      "uri": "20525362525051725172_LOD00_1.png"
    }
  ],
  "materials": [
    {
      "doubleSided": true,
      "pbrMetallicRoughness": {
        "baseColorTexture": {
          "index": 0
        },
        "metallicFactor": 0
      }
    },
    {
      "doubleSided": true,
      "pbrMetallicRoughness": {
        "baseColorTexture": {
          "index": 1
        },
        "metallicFactor": 0
      }
    }
  ],
  "meshes": [
    {
      "name": "20525362525051725172_0",
      "primitives": [
        {
          "attributes": {
            "POSITION": 0,
            "NORMAL": 1,
            "TEXCOORD_0": 2
          },
          "indices": 3,
          "material": 0
        }
      ]
    },
    {
      "name": "20525362525051725172_1",
      "primitives": [
        {
          "attributes": {
            "POSITION": 4,
            "NORMAL": 5,
            "TEXCOORD_0": 6
          },
          "indices": 7,
          "material": 1
        }
      ]
    }
  ],
  "nodes": [
    {
      "mesh": 0
    },
    {
      "mesh": 1
    }
  ],
  "scene": 0,
  "scenes": [
    {
      "nodes": [
        0,
        1
      ]
    }
  ],
  "textures": [
    {
      "source": 0
    },
    {
      "source": 1
    }
  ]
}