{
  "asset": {
    "copyright": "",
    "generator": "SharpGLTF 1.0.0",
    "version": "2.0"
  },
  "accessors": [
    {
      "name": "POSITION",
      "bufferView": 0,
      "componentType": 5126,
      "count": 2955,
      "max": [
        -645.53729248046875,
        59.100181579589844,
        497.44989013671875
      ],
      "min": [
        -677.65472412109375,
        45.045860290527344,
        459.06256103515625
      ],
      "type": "VEC3"
    },
    {
      "name": "NORMAL",
      "bufferView": 0,
      "byteOffset": 12,
      "componentType": 5126,
      "count": 2955,
      "max": [
        0.99999260902404785,
        0.99998515844345093,
        0.99999195337295532
      ],
      "min": [
        -0.999991774559021,
        -1,
        -0.99999254941940308
      ],
      "type": "VEC3"
    },
    {
      "name": "TEXCOORD_0",
      "bufferView": 0,
      "byteOffset": 24,
      "componentType": 5126,
      "count": 2955,
      "max": [
        0.998046875,
        0.9990234375
      ],
      "min": [
        0.001953125,
        0.0009765625
      ],
      "type": "VEC2"
    },
    {
      "bufferView": 1,
      "componentType": 5123,
      "count": 6759,
      "type": "SCALAR"
    },
    {
      "name": "POSITION",
      "bufferView": 0,
      "byteOffset": 94560,
      "componentType": 5126,
      "count": 1558,
      "max": [
        -653.25946044921875,
        59.100181579589844,
        497.29574584960938
      ],
      "min": [
        -676.7264404296875,
        45.198947906494141,
        459.063232421875
      ],
      "type": "VEC3"
    },
    {
      "name": "NORMAL",
      "bufferView": 0,
      "byteOffset": 94572,
      "componentType": 5126,
      "count": 1558,
      "max": [
        0.99999260902404785,
        0.99998515844345093,
        0.99931776523590088
      ],
      "min": [
        -0.999991774559021,
        -1,
        -0.99798673391342163
      ],
      "type": "VEC3"
    },
    {
      "name": "TEXCOORD_0",
      "bufferView": 0,
      "byteOffset": 94584,
      "componentType": 5126,
      "count": 1558,
      "max": [
        0.998046875,
        0.998046875
      ],
      "min": [
        0.001953125,
        0.369140625
      ],
      "type": "VEC2"
    },
    {
      "bufferView": 1,
      "byteOffset": 13518,
      "componentType": 5123,
      "count": 3549,
      "type": "SCALAR"
    }
  ],
  "bufferViews": [
    {
      "buffer": 0,
      "byteLength": 144416,
      "byteStride": 32,
      "target": 34962
    },
    {
      "buffer": 0,
      "byteLength": 20616,
      "byteOffset": 144416,
      "target": 34963
    }
  ],
  "buffers": [
    {
      "byteLength": 165032,
      "uri": "20525362525140626256_LOD00.bin"
    }
  ],
  "images": [
    {
      "uri": "20525362525140626256_LOD00_0.png"
    },
    {
      "uri": "20525362525140626256_LOD00_1.png"
    }
  ],
  "materials": [
    {
      "doubleSided": true,
      "pbrMetallicRoughness": {
        "baseColorTexture": {
          "index": 0
        },
        "metallicFactor": 0
      }
    },
    {
      "doubleSided": true,
      "pbrMetallicRoughness": {
        "baseColorTexture": {
          "index": 1
        },
        "metallicFactor": 0
      }
    }
  ],
  "meshes": [
    {
      "name": "20525362525140626256_0",
      "primitives": [
        {
          "attributes": {
            "POSITION": 0,
            "NORMAL": 1,
            "TEXCOORD_0": 2
          },
          "indices": 3,
          "material": 0
        }
      ]
    },
    {
      "name": "20525362525140626256_1",
      "primitives": [
        {
          "attributes": {
            "POSITION": 4,
            "NORMAL": 5,
            "TEXCOORD_0": 6
          },
          "indices": 7,
          "material": 1
        }
      ]
    }
  ],
  "nodes": [
    {
      "mesh": 0
    },
    {
      "mesh": 1
    }
  ],
  "scene": 0,
  "scenes": [
    {
      "nodes": [
        0,
        1
      ]
    }
  ],
  "textures": [
    {
      "source": 0
    },
    {
      "source": 1
    }
  ]
}