{
  "asset": {
    "copyright": "",
    "generator": "SharpGLTF 1.0.0",
    "version": "2.0"
  },
  "accessors": [
    {
      "name": "POSITION",
      "bufferView": 0,
      "componentType": 5126,
      "count": 2341,
      "max": [
        -805.5670166015625,
        74.368522644042969,
        611.952880859375
      ],
      "min": [
        -838.29962158203125,
        44.088573455810547,
        573.2603759765625
      ],
      "type": "VEC3"
    },
    {
      "name": "NORMAL",
      "bufferView": 0,
      "byteOffset": 12,
      "componentType": 5126,
      "count": 2341,
      "max": [
        0.99999278783798218,
        0.99998539686203003,
        0.99999189376831055
      ],
      "min": [
        -0.99999165534973145,
        -1,
        -0.99999254941940308
      ],
      "type": "VEC3"
    },
    {
      "name": "TEXCOORD_0",
      "bufferView": 0,
      "byteOffset": 24,
      "componentType": 5126,
      "count": 2341,
      "max": [
        0.998046875,
        0.9990234375
      ],
      "min": [
        0.001953125,
        0.0009765625
      ],
      "type": "VEC2"
    },
    {
      "bufferView": 1,
      "componentType": 5123,
      "count": 5550,
      "type": "SCALAR"
    },
    {
      "name": "POSITION",
      "bufferView": 0,
      "byteOffset": 74912,
      "componentType": 5126,
      "count": 1961,
      "max": [
        -806.02496337890625,
        68.34136962890625,
        611.952880859375
      ],
      "min": [
        -838.14471435546875,
        48.568687438964844,
        573.720703125
      ],
      "type": "VEC3"
    },
    {
      "name": "NORMAL",
      "bufferView": 0,
      "byteOffset": 74924,
      "componentType": 5126,
      "count": 1961,
      "max": [
        0.99931210279464722,
        0.99998539686203003,
        0.99897712469100952
      ],
      "min": [
        -0.99999165534973145,
        -1,
        -0.99999254941940308
      ],
      "type": "VEC3"
    },
    {
      "name": "TEXCOORD_0",
      "bufferView": 0,
      "byteOffset": 74936,
      "componentType": 5126,
      "count": 1961,
      "max": [
        0.998046875,
        0.998046875
      ],
      "min": [
        0.001953125,
        0.134765625
      ],
      "type": "VEC2"
    },
    {
      "bufferView": 1,
      "byteOffset": 11100,
      "componentType": 5123,
      "count": 4893,
      "type": "SCALAR"
    }
  ],
  "bufferViews": [
    {
      "buffer": 0,
      "byteLength": 137664,
      "byteStride": 32,
      "target": 34962
    },
    {
      "buffer": 0,
      "byteLength": 20886,
      "byteOffset": 137664,
      "target": 34963
    }
  ],
  "buffers": [
    {
      "byteLength": 158552,
      "uri": "20525362525142404155_LOD00.bin"
    }
  ],
  "images": [
    {
      "uri": "20525362525142404155_LOD00_0.png"
    },
    {
      "uri": "20525362525142404155_LOD00_1.png"
    }
  ],
  "materials": [
    {
      "doubleSided": true,
      "pbrMetallicRoughness": {
        "baseColorTexture": {
          "index": 0
        },
        "metallicFactor": 0
      }
    },
    {
      "doubleSided": true,
      "pbrMetallicRoughness": {
        "baseColorTexture": {
          "index": 1
        },
        "metallicFactor": 0
      }
    }
  ],
  "meshes": [
    {
      "name": "20525362525142404155_0",
      "primitives": [
        {
          "attributes": {
            "POSITION": 0,
            "NORMAL": 1,
            "TEXCOORD_0": 2
          },
          "indices": 3,
          "material": 0
        }
      ]
    },
    {
      "name": "20525362525142404155_1",
      "primitives": [
        {
          "attributes": {
            "POSITION": 4,
            "NORMAL": 5,
            "TEXCOORD_0": 6
          },
          "indices": 7,
          "material": 1
        }
      ]
    }
  ],
  "nodes": [
    {
      "mesh": 0
    },
    {
      "mesh": 1
    }
  ],
  "scene": 0,
  "scenes": [
    {
      "nodes": [
        0,
        1
      ]
    }
  ],
  "textures": [
    {
      "source": 0
    },
    {
      "source": 1
    }
  ]
}