{
  "asset": {
    "copyright": "",
    "generator": "SharpGLTF 1.0.0",
    "version": "2.0"
  },
  "accessors": [
    {
      "name": "POSITION",
      "bufferView": 0,
      "componentType": 5126,
      "count": 959,
      "max": [
        -99.849937438964844,
        74.274642944335938,
        459.06048583984375
      ],
      "min": [
        -131.96536254882813,
        37.352207183837891,
        420.82760620117188
      ],
      "type": "VEC3"
    },
    {
      "name": "NORMAL",
      "bufferView": 0,
      "byteOffset": 12,
      "componentType": 5126,
      "count": 959,
      "max": [
        0.9999922513961792,
        0.99998480081558228,
        0.99999195337295532
      ],
      "min": [
        -0.99999219179153442,
        -1,
        -0.9999924898147583
      ],
      "type": "VEC3"
    },
    {
      "name": "TEXCOORD_0",
      "bufferView": 0,
      "byteOffset": 24,
      "componentType": 5126,
      "count": 959,
      "max": [
        0.998046875,
        0.9990234375
      ],
      "min": [
        0.001953125,
        0.0009765625
      ],
      "type": "VEC2"
    },
    {
      "bufferView": 1,
      "componentType": 5123,
      "count": 2244,
      "type": "SCALAR"
    },
    {
      "name": "POSITION",
      "bufferView": 0,
      "byteOffset": 30688,
      "componentType": 5126,
      "count": 692,
      "max": [
        -99.850296020507813,
        74.274139404296875,
        459.36865234375
      ],
      "min": [
        -131.96536254882813,
        37.352207183837891,
        420.82760620117188
      ],
      "type": "VEC3"
    },
    {
      "name": "NORMAL",
      "bufferView": 0,
      "byteOffset": 30700,
      "componentType": 5126,
      "count": 692,
      "max": [
        0.9999922513961792,
        0.99998480081558228,
        0.99999195337295532
      ],
      "min": [
        -0.99999219179153442,
        -1,
        -0.9999924898147583
      ],
      "type": "VEC3"
    },
    {
      "name": "TEXCOORD_0",
      "bufferView": 0,
      "byteOffset": 30712,
      "componentType": 5126,
      "count": 692,
      "max": [
        0.998046875,
        0.998046875
      ],
      "min": [
        0.001953125,
        0.103515625
      ],
      "type": "VEC2"
    },
    {
      "bufferView": 1,
      "byteOffset": 4488,
      "componentType": 5123,
      "count": 1722,
      "type": "SCALAR"
    }
  ],
  "bufferViews": [
    {
      "buffer": 0,
      "byteLength": 52832,
      "byteStride": 32,
      "target": 34962
    },
    {
      "buffer": 0,
      "byteLength": 7932,
      "byteOffset": 52832,
      "target": 34963
    }
  ],
  "buffers": [
    {
      "byteLength": 60764,
      "uri": "20525362525051736245_LOD00.bin"
    }
  ],
  "images": [
    {
      "uri": "20525362525051736245_LOD00_0.png"
    },
    {
      "uri": "20525362525051736245_LOD00_1.png"
    }
  ],
  "materials": [
    {
      "doubleSided": true,
      "pbrMetallicRoughness": {
        "baseColorTexture": {
          "index": 0
        },
        "metallicFactor": 0
      }
    },
    {
      "doubleSided": true,
      "pbrMetallicRoughness": {
        "baseColorTexture": {
          "index": 1
        },
        "metallicFactor": 0
      }
    }
  ],
  "meshes": [
    {
      "name": "20525362525051736245_0",
      "primitives": [
        {
          "attributes": {
            "POSITION": 0,
            "NORMAL": 1,
            "TEXCOORD_0": 2
          },
          "indices": 3,
          "material": 0
        }
      ]
    },
    {
      "name": "20525362525051736245_1",
      "primitives": [
        {
          "attributes": {
            "POSITION": 4,
            "NORMAL": 5,
            "TEXCOORD_0": 6
          },
          "indices": 7,
          "material": 1
        }
      ]
    }
  ],
  "nodes": [
    {
      "mesh": 0
    },
    {
      "mesh": 1
    }
  ],
  "scene": 0,
  "scenes": [
    {
      "nodes": [
        0,
        1
      ]
    }
  ],
  "textures": [
    {
      "source": 0
    },
    {
      "source": 1
    }
  ]
}