{
  "asset": {
    "copyright": "",
    "generator": "SharpGLTF 1.0.0",
    "version": "2.0"
  },
  "accessors": [
    {
      "name": "POSITION",
      "bufferView": 0,
      "componentType": 5126,
      "count": 4370,
      "max": [
        -452.9571533203125,
        64.076454162597656,
        153.656005859375
      ],
      "min": [
        -485.38275146484375,
        37.659214019775391,
        114.96303558349609
      ],
      "type": "VEC3"
    },
    {
      "name": "NORMAL",
      "bufferView": 0,
      "byteOffset": 12,
      "componentType": 5126,
      "count": 4370,
      "max": [
        0.9999924898147583,
        0.9999847412109375,
        0.99999213218688965
      ],
      "min": [
        -0.9999920129776001,
        -0.99819654226303101,
        -0.9999922513961792
      ],
      "type": "VEC3"
    },
    {
      "name": "TEXCOORD_0",
      "bufferView": 0,
      "byteOffset": 24,
      "componentType": 5126,
      "count": 4370,
      "max": [
        0.998046875,
        0.9990234375
      ],
      "min": [
        0.001953125,
        0.0009765625
      ],
      "type": "VEC2"
    },
    {
      "bufferView": 1,
      "componentType": 5123,
      "count": 10893,
      "type": "SCALAR"
    },
    {
      "name": "POSITION",
      "bufferView": 0,
      "byteOffset": 139840,
      "componentType": 5126,
      "count": 1152,
      "max": [
        -452.95751953125,
        63.767421722412109,
        153.34828186035156
      ],
      "min": [
        -485.07342529296875,
        38.122951507568359,
        114.96302795410156
      ],
      "type": "VEC3"
    },
    {
      "name": "NORMAL",
      "bufferView": 0,
      "byteOffset": 139852,
      "componentType": 5126,
      "count": 1152,
      "max": [
        0.9999924898147583,
        0.9999847412109375,
        0.99931567907333374
      ],
      "min": [
        -0.9999920129776001,
        -0.95668530464172363,
        -0.9999922513961792
      ],
      "type": "VEC3"
    },
    {
      "name": "TEXCOORD_0",
      "bufferView": 0,
      "byteOffset": 139864,
      "componentType": 5126,
      "count": 1152,
      "max": [
        0.998046875,
        0.998046875
      ],
      "min": [
        0.001953125,
        0.583984375
      ],
      "type": "VEC2"
    },
    {
      "bufferView": 1,
      "byteOffset": 21786,
      "componentType": 5123,
      "count": 2673,
      "type": "SCALAR"
    }
  ],
  "bufferViews": [
    {
      "buffer": 0,
      "byteLength": 176704,
      "byteStride": 32,
      "target": 34962
    },
    {
      "buffer": 0,
      "byteLength": 27132,
      "byteOffset": 176704,
      "target": 34963
    }
  ],
  "buffers": [
    {
      "byteLength": 203836,
      "uri": "20525362525051735344_LOD00.bin"
    }
  ],
  "images": [
    {
      "uri": "20525362525051735344_LOD00_0.png"
    },
    {
      "uri": "20525362525051735344_LOD00_1.png"
    }
  ],
  "materials": [
    {
      "doubleSided": true,
      "pbrMetallicRoughness": {
        "baseColorTexture": {
          "index": 0
        },
        "metallicFactor": 0
      }
    },
    {
      "doubleSided": true,
      "pbrMetallicRoughness": {
        "baseColorTexture": {
          "index": 1
        },
        "metallicFactor": 0
      }
    }
  ],
  "meshes": [
    {
      "name": "20525362525051735344_0",
      "primitives": [
        {
          "attributes": {
            "POSITION": 0,
            "NORMAL": 1,
            "TEXCOORD_0": 2
          },
          "indices": 3,
          "material": 0
        }
      ]
    },
    {
      "name": "20525362525051735344_1",
      "primitives": [
        {
          "attributes": {
            "POSITION": 4,
            "NORMAL": 5,
            "TEXCOORD_0": 6
          },
          "indices": 7,
          "material": 1
        }
      ]
    }
  ],
  "nodes": [
    {
      "mesh": 0
    },
    {
      "mesh": 1
    }
  ],
  "scene": 0,
  "scenes": [
    {
      "nodes": [
        0,
        1
      ]
    }
  ],
  "textures": [
    {
      "source": 0
    },
    {
      "source": 1
    }
  ]
}