{
  "asset": {
    "copyright": "",
    "generator": "SharpGLTF 1.0.0",
    "version": "2.0"
  },
  "accessors": [
    {
      "name": "POSITION",
      "bufferView": 0,
      "componentType": 5126,
      "count": 1561,
      "max": [
        -589.833251953125,
        110.22205352783203,
        497.29495239257813
      ],
      "min": [
        -613.46087646484375,
        74.2286376953125,
        470.93478393554688
      ],
      "type": "VEC3"
    },
    {
      "name": "NORMAL",
      "bufferView": 0,
      "byteOffset": 12,
      "componentType": 5126,
      "count": 1561,
      "max": [
        0.99999260902404785,
        0.99998503923416138,
        0.99999183416366577
      ],
      "min": [
        -0.99999189376831055,
        -1,
        -0.99999243021011353
      ],
      "type": "VEC3"
    },
    {
      "name": "TEXCOORD_0",
      "bufferView": 0,
      "byteOffset": 24,
      "componentType": 5126,
      "count": 1561,
      "max": [
        0.998046875,
        0.9990234375
      ],
      "min": [
        0.001953125,
        0.0009765625
      ],
      "type": "VEC2"
    },
    {
      "bufferView": 1,
      "componentType": 5123,
      "count": 3189,
      "type": "SCALAR"
    },
    {
      "name": "POSITION",
      "bufferView": 0,
      "byteOffset": 49952,
      "componentType": 5126,
      "count": 615,
      "max": [
        -589.833984375,
        110.22136688232422,
        497.2939453125
      ],
      "min": [
        -613.460693359375,
        74.230201721191406,
        470.93478393554688
      ],
      "type": "VEC3"
    },
    {
      "name": "NORMAL",
      "bufferView": 0,
      "byteOffset": 49964,
      "componentType": 5126,
      "count": 615,
      "max": [
        0.99999260902404785,
        0.99998503923416138,
        0.99999183416366577
      ],
      "min": [
        -0.99999189376831055,
        -1,
        -0.99999243021011353
      ],
      "type": "VEC3"
    },
    {
      "name": "TEXCOORD_0",
      "bufferView": 0,
      "byteOffset": 49976,
      "componentType": 5126,
      "count": 615,
      "max": [
        0.998046875,
        0.998046875
      ],
      "min": [
        0.001953125,
        0.619140625
      ],
      "type": "VEC2"
    },
    {
      "bufferView": 1,
      "byteOffset": 6378,
      "componentType": 5123,
      "count": 1236,
      "type": "SCALAR"
    }
  ],
  "bufferViews": [
    {
      "buffer": 0,
      "byteLength": 69632,
      "byteStride": 32,
      "target": 34962
    },
    {
      "buffer": 0,
      "byteLength": 8850,
      "byteOffset": 69632,
      "target": 34963
    }
  ],
  "buffers": [
    {
      "byteLength": 78484,
      "uri": "20525362525140626602_LOD00.bin"
    }
  ],
  "images": [
    {
      "uri": "20525362525140626602_LOD00_0.png"
    },
    {
      "uri": "20525362525140626602_LOD00_1.png"
    }
  ],
  "materials": [
    {
      "doubleSided": true,
      "pbrMetallicRoughness": {
        "baseColorTexture": {
          "index": 0
        },
        "metallicFactor": 0
      }
    },
    {
      "doubleSided": true,
      "pbrMetallicRoughness": {
        "baseColorTexture": {
          "index": 1
        },
        "metallicFactor": 0
      }
    }
  ],
  "meshes": [
    {
      "name": "20525362525140626602_0",
      "primitives": [
        {
          "attributes": {
            "POSITION": 0,
            "NORMAL": 1,
            "TEXCOORD_0": 2
          },
          "indices": 3,
          "material": 0
        }
      ]
    },
    {
      "name": "20525362525140626602_1",
      "primitives": [
        {
          "attributes": {
            "POSITION": 4,
            "NORMAL": 5,
            "TEXCOORD_0": 6
          },
          "indices": 7,
          "material": 1
        }
      ]
    }
  ],
  "nodes": [
    {
      "mesh": 0
    },
    {
      "mesh": 1
    }
  ],
  "scene": 0,
  "scenes": [
    {
      "nodes": [
        0,
        1
      ]
    }
  ],
  "textures": [
    {
      "source": 0
    },
    {
      "source": 1
    }
  ]
}