{
  "asset": {
    "copyright": "",
    "generator": "SharpGLTF 1.0.0",
    "version": "2.0"
  },
  "accessors": [
    {
      "name": "POSITION",
      "bufferView": 0,
      "componentType": 5126,
      "count": 702,
      "max": [
        -67.749679565429688,
        58.812477111816406,
        650.2880859375
      ],
      "min": [
        -99.864532470703125,
        37.80010986328125,
        611.9024658203125
      ],
      "type": "VEC3"
    },
    {
      "name": "NORMAL",
      "bufferView": 0,
      "byteOffset": 12,
      "componentType": 5126,
      "count": 702,
      "max": [
        0.99931663274765015,
        0.99998486042022705,
        0.99999189376831055
      ],
      "min": [
        -0.99489623308181763,
        -0.97227621078491211,
        -0.99999254941940308
      ],
      "type": "VEC3"
    },
    {
      "name": "TEXCOORD_0",
      "bufferView": 0,
      "byteOffset": 24,
      "componentType": 5126,
      "count": 702,
      "max": [
        0.998046875,
        0.9990234375
      ],
      "min": [
        0.001953125,
        0.0029296875
      ],
      "type": "VEC2"
    },
    {
      "bufferView": 1,
      "componentType": 5123,
      "count": 1812,
      "type": "SCALAR"
    },
    {
      "name": "POSITION",
      "bufferView": 0,
      "byteOffset": 22464,
      "componentType": 5126,
      "count": 242,
      "max": [
        -67.749702453613281,
        58.810733795166016,
        650.28765869140625
      ],
      "min": [
        -99.8642578125,
        40.427978515625,
        611.90362548828125
      ],
      "type": "VEC3"
    },
    {
      "name": "NORMAL",
      "bufferView": 0,
      "byteOffset": 22476,
      "componentType": 5126,
      "count": 242,
      "max": [
        0.99931663274765015,
        0.9999847412109375,
        0.9981730580329895
      ],
      "min": [
        -0.99464958906173706,
        -0.72652643918991089,
        -0.91448479890823364
      ],
      "type": "VEC3"
    },
    {
      "name": "TEXCOORD_0",
      "bufferView": 0,
      "byteOffset": 22488,
      "componentType": 5126,
      "count": 242,
      "max": [
        0.998046875,
        0.998046875
      ],
      "min": [
        0.001953125,
        0.490234375
      ],
      "type": "VEC2"
    },
    {
      "bufferView": 1,
      "byteOffset": 3624,
      "componentType": 5123,
      "count": 696,
      "type": "SCALAR"
    }
  ],
  "bufferViews": [
    {
      "buffer": 0,
      "byteLength": 30208,
      "byteStride": 32,
      "target": 34962
    },
    {
      "buffer": 0,
      "byteLength": 5016,
      "byteOffset": 30208,
      "target": 34963
    }
  ],
  "buffers": [
    {
      "byteLength": 35224,
      "uri": "20525362525053514046_LOD00.bin"
    }
  ],
  "images": [
    {
      "uri": "20525362525053514046_LOD00_0.png"
    },
    {
      "uri": "20525362525053514046_LOD00_1.png"
    }
  ],
  "materials": [
    {
      "doubleSided": true,
      "pbrMetallicRoughness": {
        "baseColorTexture": {
          "index": 0
        },
        "metallicFactor": 0
      }
    },
    {
      "doubleSided": true,
      "pbrMetallicRoughness": {
        "baseColorTexture": {
          "index": 1
        },
        "metallicFactor": 0
      }
    }
  ],
  "meshes": [
    {
      "name": "20525362525053514046_0",
      "primitives": [
        {
          "attributes": {
            "POSITION": 0,
            "NORMAL": 1,
            "TEXCOORD_0": 2
          },
          "indices": 3,
          "material": 0
        }
      ]
    },
    {
      "name": "20525362525053514046_1",
      "primitives": [
        {
          "attributes": {
            "POSITION": 4,
            "NORMAL": 5,
            "TEXCOORD_0": 6
          },
          "indices": 7,
          "material": 1
        }
      ]
    }
  ],
  "nodes": [
    {
      "mesh": 0
    },
    {
      "mesh": 1
    }
  ],
  "scene": 0,
  "scenes": [
    {
      "nodes": [
        0,
        1
      ]
    }
  ],
  "textures": [
    {
      "source": 0
    },
    {
      "source": 1
    }
  ]
}