{
  "asset": {
    "copyright": "",
    "generator": "SharpGLTF 1.0.0",
    "version": "2.0"
  },
  "accessors": [
    {
      "name": "POSITION",
      "bufferView": 0,
      "componentType": 5126,
      "count": 3185,
      "max": [
        -773.93218994140625,
        70.205833435058594,
        535.51995849609375
      ],
      "min": [
        -806.2039794921875,
        44.096874237060547,
        497.2867431640625
      ],
      "type": "VEC3"
    },
    {
      "name": "NORMAL",
      "bufferView": 0,
      "byteOffset": 12,
      "componentType": 5126,
      "count": 3185,
      "max": [
        0.99999266862869263,
        0.99998509883880615,
        0.99931794404983521
      ],
      "min": [
        -0.99999183416366577,
        -1,
        -0.99999254941940308
      ],
      "type": "VEC3"
    },
    {
      "name": "TEXCOORD_0",
      "bufferView": 0,
      "byteOffset": 24,
      "componentType": 5126,
      "count": 3185,
      "max": [
        0.998046875,
        0.9990234375
      ],
      "min": [
        0.001953125,
        0.0009765625
      ],
      "type": "VEC2"
    },
    {
      "bufferView": 1,
      "componentType": 5123,
      "count": 7599,
      "type": "SCALAR"
    },
    {
      "name": "POSITION",
      "bufferView": 0,
      "byteOffset": 101920,
      "componentType": 5126,
      "count": 1065,
      "max": [
        -773.93218994140625,
        70.205833435058594,
        535.5201416015625
      ],
      "min": [
        -806.20123291015625,
        47.499397277832031,
        497.28677368164063
      ],
      "type": "VEC3"
    },
    {
      "name": "NORMAL",
      "bufferView": 0,
      "byteOffset": 101932,
      "componentType": 5126,
      "count": 1065,
      "max": [
        0.99439609050750732,
        0.99998509883880615,
        0.99999189376831055
      ],
      "min": [
        -0.99999183416366577,
        -0.99512732028961182,
        -0.99999254941940308
      ],
      "type": "VEC3"
    },
    {
      "name": "TEXCOORD_0",
      "bufferView": 0,
      "byteOffset": 101944,
      "componentType": 5126,
      "count": 1065,
      "max": [
        0.998046875,
        0.998046875
      ],
      "min": [
        0.001953125,
        0.619140625
      ],
      "type": "VEC2"
    },
    {
      "bufferView": 1,
      "byteOffset": 15198,
      "componentType": 5123,
      "count": 2520,
      "type": "SCALAR"
    }
  ],
  "bufferViews": [
    {
      "buffer": 0,
      "byteLength": 136000,
      "byteStride": 32,
      "target": 34962
    },
    {
      "buffer": 0,
      "byteLength": 20238,
      "byteOffset": 136000,
      "target": 34963
    }
  ],
  "buffers": [
    {
      "byteLength": 156240,
      "uri": "20525362525140626374_LOD00.bin"
    }
  ],
  "images": [
    {
      "uri": "20525362525140626374_LOD00_0.png"
    },
    {
      "uri": "20525362525140626374_LOD00_1.png"
    }
  ],
  "materials": [
    {
      "doubleSided": true,
      "pbrMetallicRoughness": {
        "baseColorTexture": {
          "index": 0
        },
        "metallicFactor": 0
      }
    },
    {
      "doubleSided": true,
      "pbrMetallicRoughness": {
        "baseColorTexture": {
          "index": 1
        },
        "metallicFactor": 0
      }
    }
  ],
  "meshes": [
    {
      "name": "20525362525140626374_0",
      "primitives": [
        {
          "attributes": {
            "POSITION": 0,
            "NORMAL": 1,
            "TEXCOORD_0": 2
          },
          "indices": 3,
          "material": 0
        }
      ]
    },
    {
      "name": "20525362525140626374_1",
      "primitives": [
        {
          "attributes": {
            "POSITION": 4,
            "NORMAL": 5,
            "TEXCOORD_0": 6
          },
          "indices": 7,
          "material": 1
        }
      ]
    }
  ],
  "nodes": [
    {
      "mesh": 0
    },
    {
      "mesh": 1
    }
  ],
  "scene": 0,
  "scenes": [
    {
      "nodes": [
        0,
        1
      ]
    }
  ],
  "textures": [
    {
      "source": 0
    },
    {
      "source": 1
    }
  ]
}