{
  "asset": {
    "copyright": "",
    "generator": "SharpGLTF 1.0.0",
    "version": "2.0"
  },
  "accessors": [
    {
      "name": "POSITION",
      "bufferView": 0,
      "componentType": 5126,
      "count": 3091,
      "max": [
        -806.06646728515625,
        70.064346313476563,
        76.941917419433594
      ],
      "min": [
        -838.18731689453125,
        37.781955718994141,
        38.708602905273438
      ],
      "type": "VEC3"
    },
    {
      "name": "NORMAL",
      "bufferView": 0,
      "byteOffset": 12,
      "componentType": 5126,
      "count": 3091,
      "max": [
        0.9999927282333374,
        0.9999849796295166,
        0.99999219179153442
      ],
      "min": [
        -0.999991774559021,
        -0.99149101972579956,
        -0.9999922513961792
      ],
      "type": "VEC3"
    },
    {
      "name": "TEXCOORD_0",
      "bufferView": 0,
      "byteOffset": 24,
      "componentType": 5126,
      "count": 3091,
      "max": [
        0.998046875,
        0.9990234375
      ],
      "min": [
        0.001953125,
        0.0009765625
      ],
      "type": "VEC2"
    },
    {
      "bufferView": 1,
      "componentType": 5123,
      "count": 7722,
      "type": "SCALAR"
    },
    {
      "name": "POSITION",
      "bufferView": 0,
      "byteOffset": 98912,
      "componentType": 5126,
      "count": 567,
      "max": [
        -805.91339111328125,
        70.064346313476563,
        76.942008972167969
      ],
      "min": [
        -838.18731689453125,
        40.559268951416016,
        38.711067199707031
      ],
      "type": "VEC3"
    },
    {
      "name": "NORMAL",
      "bufferView": 0,
      "byteOffset": 98924,
      "componentType": 5126,
      "count": 567,
      "max": [
        0.9999927282333374,
        0.9999849796295166,
        0.99525910615921021
      ],
      "min": [
        -0.99915838241577148,
        -0.99917173385620117,
        -0.99915343523025513
      ],
      "type": "VEC3"
    },
    {
      "name": "TEXCOORD_0",
      "bufferView": 0,
      "byteOffset": 98936,
      "componentType": 5126,
      "count": 567,
      "max": [
        0.998046875,
        0.998046875
      ],
      "min": [
        0.001953125,
        0.822265625
      ],
      "type": "VEC2"
    },
    {
      "bufferView": 1,
      "byteOffset": 15444,
      "componentType": 5123,
      "count": 1428,
      "type": "SCALAR"
    }
  ],
  "bufferViews": [
    {
      "buffer": 0,
      "byteLength": 117056,
      "byteStride": 32,
      "target": 34962
    },
    {
      "buffer": 0,
      "byteLength": 18300,
      "byteOffset": 117056,
      "target": 34963
    }
  ],
  "buffers": [
    {
      "byteLength": 135356,
      "uri": "20525362525140624175_LOD00.bin"
    }
  ],
  "images": [
    {
      "uri": "20525362525140624175_LOD00_0.png"
    },
    {
      "uri": "20525362525140624175_LOD00_1.png"
    }
  ],
  "materials": [
    {
      "doubleSided": true,
      "pbrMetallicRoughness": {
        "baseColorTexture": {
          "index": 0
        },
        "metallicFactor": 0
      }
    },
    {
      "doubleSided": true,
      "pbrMetallicRoughness": {
        "baseColorTexture": {
          "index": 1
        },
        "metallicFactor": 0
      }
    }
  ],
  "meshes": [
    {
      "name": "20525362525140624175_0",
      "primitives": [
        {
          "attributes": {
            "POSITION": 0,
            "NORMAL": 1,
            "TEXCOORD_0": 2
          },
          "indices": 3,
          "material": 0
        }
      ]
    },
    {
      "name": "20525362525140624175_1",
      "primitives": [
        {
          "attributes": {
            "POSITION": 4,
            "NORMAL": 5,
            "TEXCOORD_0": 6
          },
          "indices": 7,
          "material": 1
        }
      ]
    }
  ],
  "nodes": [
    {
      "mesh": 0
    },
    {
      "mesh": 1
    }
  ],
  "scene": 0,
  "scenes": [
    {
      "nodes": [
        0,
        1
      ]
    }
  ],
  "textures": [
    {
      "source": 0
    },
    {
      "source": 1
    }
  ]
}