{
  "asset": {
    "copyright": "",
    "generator": "SharpGLTF 1.0.0",
    "version": "2.0"
  },
  "accessors": [
    {
      "name": "POSITION",
      "bufferView": 0,
      "componentType": 5126,
      "count": 27,
      "max": [
        -265.4466552734375,
        37.837223052978516,
        267.98593139648438
      ],
      "min": [
        -267.7626953125,
        37.219219207763672,
        267.21511840820313
      ],
      "type": "VEC3"
    },
    {
      "name": "NORMAL",
      "bufferView": 0,
      "byteOffset": 12,
      "componentType": 5126,
      "count": 27,
      "max": [
        0.61674350500106812,
        0.97522002458572388,
        0.9636339545249939
      ],
      "min": [
        -0.95975667238235474,
        -0.055347934365272522,
        0.15634636580944061
      ],
      "type": "VEC3"
    },
    {
      "name": "TEXCOORD_0",
      "bufferView": 0,
      "byteOffset": 24,
      "componentType": 5126,
      "count": 27,
      "max": [
        0.119140625,
        0.998046875
      ],
      "min": [
        0.037109375,
        0.958984375
      ],
      "type": "VEC2"
    },
    {
      "bufferView": 1,
      "componentType": 5123,
      "count": 57,
      "type": "SCALAR"
    }
  ],
  "bufferViews": [
    {
      "buffer": 0,
      "byteLength": 864,
      "byteStride": 32,
      "target": 34962
    },
    {
      "buffer": 0,
      "byteLength": 114,
      "byteOffset": 864,
      "target": 34963
    }
  ],
  "buffers": [
    {
      "byteLength": 980,
      "uri": "20525362525051734372_LOD00.bin"
    }
  ],
  "images": [
    {
      "uri": "20525362525051734372_LOD00.png"
    }
  ],
  "materials": [
    {
      "doubleSided": true,
      "pbrMetallicRoughness": {
        "baseColorTexture": {
          "index": 0
        },
        "metallicFactor": 0
      }
    }
  ],
  "meshes": [
    {
      "name": "20525362525051734372_0",
      "primitives": [
        {
          "attributes": {
            "POSITION": 0,
            "NORMAL": 1,
            "TEXCOORD_0": 2
          },
          "indices": 3,
          "material": 0
        }
      ]
    }
  ],
  "nodes": [
    {
      "mesh": 0
    }
  ],
  "scene": 0,
  "scenes": [
    {
      "nodes": [
        0
      ]
    }
  ],
  "textures": [
    {
      "source": 0
    }
  ]
}