{
  "asset": {
    "copyright": "",
    "generator": "SharpGLTF 1.0.0",
    "version": "2.0"
  },
  "accessors": [
    {
      "name": "POSITION",
      "bufferView": 0,
      "componentType": 5126,
      "count": 3867,
      "max": [
        -485.21694946289063,
        67.472343444824219,
        38.858589172363281
      ],
      "min": [
        -517.1820068359375,
        37.3485107421875,
        0.47335556149482727
      ],
      "type": "VEC3"
    },
    {
      "name": "NORMAL",
      "bufferView": 0,
      "byteOffset": 12,
      "componentType": 5126,
      "count": 3867,
      "max": [
        0.99999254941940308,
        0.99998480081558228,
        0.99999219179153442
      ],
      "min": [
        -0.99932003021240234,
        -0.99511170387268066,
        -0.99931460618972778
      ],
      "type": "VEC3"
    },
    {
      "name": "TEXCOORD_0",
      "bufferView": 0,
      "byteOffset": 24,
      "componentType": 5126,
      "count": 3867,
      "max": [
        0.998046875,
        0.9990234375
      ],
      "min": [
        0.001953125,
        0.0009765625
      ],
      "type": "VEC2"
    },
    {
      "bufferView": 1,
      "componentType": 5123,
      "count": 9573,
      "type": "SCALAR"
    },
    {
      "name": "POSITION",
      "bufferView": 0,
      "byteOffset": 123744,
      "componentType": 5126,
      "count": 1582,
      "max": [
        -485.52542114257813,
        67.471748352050781,
        38.705410003662109
      ],
      "min": [
        -517.18072509765625,
        37.505275726318359,
        0.47332549095153809
      ],
      "type": "VEC3"
    },
    {
      "name": "NORMAL",
      "bufferView": 0,
      "byteOffset": 123756,
      "componentType": 5126,
      "count": 1582,
      "max": [
        0.99999254941940308,
        0.99998480081558228,
        0.99999219179153442
      ],
      "min": [
        -0.99932003021240234,
        -0.99640762805938721,
        -0.99914813041687012
      ],
      "type": "VEC3"
    },
    {
      "name": "TEXCOORD_0",
      "bufferView": 0,
      "byteOffset": 123768,
      "componentType": 5126,
      "count": 1582,
      "max": [
        0.998046875,
        0.998046875
      ],
      "min": [
        0.001953125,
        0.462890625
      ],
      "type": "VEC2"
    },
    {
      "bufferView": 1,
      "byteOffset": 19146,
      "componentType": 5123,
      "count": 3972,
      "type": "SCALAR"
    }
  ],
  "bufferViews": [
    {
      "buffer": 0,
      "byteLength": 174368,
      "byteStride": 32,
      "target": 34962
    },
    {
      "buffer": 0,
      "byteLength": 27090,
      "byteOffset": 174368,
      "target": 34963
    }
  ],
  "buffers": [
    {
      "byteLength": 201460,
      "uri": "20525362525051735147_LOD00.bin"
    }
  ],
  "images": [
    {
      "uri": "20525362525051735147_LOD00_0.png"
    },
    {
      "uri": "20525362525051735147_LOD00_1.png"
    }
  ],
  "materials": [
    {
      "doubleSided": true,
      "pbrMetallicRoughness": {
        "baseColorTexture": {
          "index": 0
        },
        "metallicFactor": 0
      }
    },
    {
      "doubleSided": true,
      "pbrMetallicRoughness": {
        "baseColorTexture": {
          "index": 1
        },
        "metallicFactor": 0
      }
    }
  ],
  "meshes": [
    {
      "name": "20525362525051735147_0",
      "primitives": [
        {
          "attributes": {
            "POSITION": 0,
            "NORMAL": 1,
            "TEXCOORD_0": 2
          },
          "indices": 3,
          "material": 0
        }
      ]
    },
    {
      "name": "20525362525051735147_1",
      "primitives": [
        {
          "attributes": {
            "POSITION": 4,
            "NORMAL": 5,
            "TEXCOORD_0": 6
          },
          "indices": 7,
          "material": 1
        }
      ]
    }
  ],
  "nodes": [
    {
      "mesh": 0
    },
    {
      "mesh": 1
    }
  ],
  "scene": 0,
  "scenes": [
    {
      "nodes": [
        0,
        1
      ]
    }
  ],
  "textures": [
    {
      "source": 0
    },
    {
      "source": 1
    }
  ]
}