{
  "asset": {
    "copyright": "",
    "generator": "SharpGLTF 1.0.0",
    "version": "2.0"
  },
  "accessors": [
    {
      "name": "POSITION",
      "bufferView": 0,
      "componentType": 5126,
      "count": 1686,
      "max": [
        -131.94718933105469,
        60.201656341552734,
        650.2884521484375
      ],
      "min": [
        -164.06208801269531,
        39.810935974121094,
        611.903076171875
      ],
      "type": "VEC3"
    },
    {
      "name": "NORMAL",
      "bufferView": 0,
      "byteOffset": 12,
      "componentType": 5126,
      "count": 1686,
      "max": [
        0.99439471960067749,
        0.99998486042022705,
        0.99999189376831055
      ],
      "min": [
        -0.99898344278335571,
        -0.98938357830047607,
        -0.99999254941940308
      ],
      "type": "VEC3"
    },
    {
      "name": "TEXCOORD_0",
      "bufferView": 0,
      "byteOffset": 24,
      "componentType": 5126,
      "count": 1686,
      "max": [
        0.998046875,
        0.9990234375
      ],
      "min": [
        0.001953125,
        0.0009765625
      ],
      "type": "VEC2"
    },
    {
      "bufferView": 1,
      "componentType": 5123,
      "count": 3975,
      "type": "SCALAR"
    },
    {
      "name": "POSITION",
      "bufferView": 0,
      "byteOffset": 53952,
      "componentType": 5126,
      "count": 644,
      "max": [
        -131.63922119140625,
        60.201656341552734,
        650.13421630859375
      ],
      "min": [
        -160.51107788085938,
        39.965305328369141,
        611.44232177734375
      ],
      "type": "VEC3"
    },
    {
      "name": "NORMAL",
      "bufferView": 0,
      "byteOffset": 53964,
      "componentType": 5126,
      "count": 644,
      "max": [
        0.99915611743927002,
        0.99897700548171997,
        0.99897682666778564
      ],
      "min": [
        -0.9948960542678833,
        -0.97517502307891846,
        -0.99366450309753418
      ],
      "type": "VEC3"
    },
    {
      "name": "TEXCOORD_0",
      "bufferView": 0,
      "byteOffset": 53976,
      "componentType": 5126,
      "count": 644,
      "max": [
        0.998046875,
        0.998046875
      ],
      "min": [
        0.001953125,
        0.537109375
      ],
      "type": "VEC2"
    },
    {
      "bufferView": 1,
      "byteOffset": 7950,
      "componentType": 5123,
      "count": 1446,
      "type": "SCALAR"
    }
  ],
  "bufferViews": [
    {
      "buffer": 0,
      "byteLength": 74560,
      "byteStride": 32,
      "target": 34962
    },
    {
      "buffer": 0,
      "byteLength": 10842,
      "byteOffset": 74560,
      "target": 34963
    }
  ],
  "buffers": [
    {
      "byteLength": 85404,
      "uri": "20525362525053514056_LOD00.bin"
    }
  ],
  "images": [
    {
      "uri": "20525362525053514056_LOD00_0.png"
    },
    {
      "uri": "20525362525053514056_LOD00_1.png"
    }
  ],
  "materials": [
    {
      "doubleSided": true,
      "pbrMetallicRoughness": {
        "baseColorTexture": {
          "index": 0
        },
        "metallicFactor": 0
      }
    },
    {
      "doubleSided": true,
      "pbrMetallicRoughness": {
        "baseColorTexture": {
          "index": 1
        },
        "metallicFactor": 0
      }
    }
  ],
  "meshes": [
    {
      "name": "20525362525053514056_0",
      "primitives": [
        {
          "attributes": {
            "POSITION": 0,
            "NORMAL": 1,
            "TEXCOORD_0": 2
          },
          "indices": 3,
          "material": 0
        }
      ]
    },
    {
      "name": "20525362525053514056_1",
      "primitives": [
        {
          "attributes": {
            "POSITION": 4,
            "NORMAL": 5,
            "TEXCOORD_0": 6
          },
          "indices": 7,
          "material": 1
        }
      ]
    }
  ],
  "nodes": [
    {
      "mesh": 0
    },
    {
      "mesh": 1
    }
  ],
  "scene": 0,
  "scenes": [
    {
      "nodes": [
        0,
        1
      ]
    }
  ],
  "textures": [
    {
      "source": 0
    },
    {
      "source": 1
    }
  ]
}