{
  "asset": {
    "copyright": "",
    "generator": "SharpGLTF 1.0.0",
    "version": "2.0"
  },
  "accessors": [
    {
      "name": "POSITION",
      "bufferView": 0,
      "componentType": 5126,
      "count": 3892,
      "max": [
        -131.79853820800781,
        58.682830810546875,
        153.49298095703125
      ],
      "min": [
        -164.22355651855469,
        37.365180969238281,
        115.1082763671875
      ],
      "type": "VEC3"
    },
    {
      "name": "NORMAL",
      "bufferView": 0,
      "byteOffset": 12,
      "componentType": 5126,
      "count": 3892,
      "max": [
        0.99931621551513672,
        0.99998456239700317,
        0.99999213218688965
      ],
      "min": [
        -0.99931782484054565,
        -0.99917221069335938,
        -0.9999922513961792
      ],
      "type": "VEC3"
    },
    {
      "name": "TEXCOORD_0",
      "bufferView": 0,
      "byteOffset": 24,
      "componentType": 5126,
      "count": 3892,
      "max": [
        0.998046875,
        0.9990234375
      ],
      "min": [
        0.001953125,
        0.0009765625
      ],
      "type": "VEC2"
    },
    {
      "bufferView": 1,
      "componentType": 5123,
      "count": 9072,
      "type": "SCALAR"
    },
    {
      "name": "POSITION",
      "bufferView": 0,
      "byteOffset": 124544,
      "componentType": 5126,
      "count": 1719,
      "max": [
        -131.95285034179688,
        58.682830810546875,
        153.3392333984375
      ],
      "min": [
        -164.06932067871094,
        39.991710662841797,
        115.10852813720703
      ],
      "type": "VEC3"
    },
    {
      "name": "NORMAL",
      "bufferView": 0,
      "byteOffset": 124556,
      "componentType": 5126,
      "count": 1719,
      "max": [
        0.99999231100082397,
        0.99998456239700317,
        0.99999213218688965
      ],
      "min": [
        -0.9993177056312561,
        -1,
        -0.99915069341659546
      ],
      "type": "VEC3"
    },
    {
      "name": "TEXCOORD_0",
      "bufferView": 0,
      "byteOffset": 124568,
      "componentType": 5126,
      "count": 1719,
      "max": [
        0.998046875,
        0.998046875
      ],
      "min": [
        0.001953125,
        0.404296875
      ],
      "type": "VEC2"
    },
    {
      "bufferView": 1,
      "byteOffset": 18144,
      "componentType": 5123,
      "count": 4011,
      "type": "SCALAR"
    }
  ],
  "bufferViews": [
    {
      "buffer": 0,
      "byteLength": 179552,
      "byteStride": 32,
      "target": 34962
    },
    {
      "buffer": 0,
      "byteLength": 26166,
      "byteOffset": 179552,
      "target": 34963
    }
  ],
  "buffers": [
    {
      "byteLength": 205720,
      "uri": "20525362525051734254_LOD00.bin"
    }
  ],
  "images": [
    {
      "uri": "20525362525051734254_LOD00_0.png"
    },
    {
      "uri": "20525362525051734254_LOD00_1.png"
    }
  ],
  "materials": [
    {
      "doubleSided": true,
      "pbrMetallicRoughness": {
        "baseColorTexture": {
          "index": 0
        },
        "metallicFactor": 0
      }
    },
    {
      "doubleSided": true,
      "pbrMetallicRoughness": {
        "baseColorTexture": {
          "index": 1
        },
        "metallicFactor": 0
      }
    }
  ],
  "meshes": [
    {
      "name": "20525362525051734254_0",
      "primitives": [
        {
          "attributes": {
            "POSITION": 0,
            "NORMAL": 1,
            "TEXCOORD_0": 2
          },
          "indices": 3,
          "material": 0
        }
      ]
    },
    {
      "name": "20525362525051734254_1",
      "primitives": [
        {
          "attributes": {
            "POSITION": 4,
            "NORMAL": 5,
            "TEXCOORD_0": 6
          },
          "indices": 7,
          "material": 1
        }
      ]
    }
  ],
  "nodes": [
    {
      "mesh": 0
    },
    {
      "mesh": 1
    }
  ],
  "scene": 0,
  "scenes": [
    {
      "nodes": [
        0,
        1
      ]
    }
  ],
  "textures": [
    {
      "source": 0
    },
    {
      "source": 1
    }
  ]
}