{
  "asset": {
    "copyright": "",
    "generator": "SharpGLTF 1.0.0",
    "version": "2.0"
  },
  "accessors": [
    {
      "name": "POSITION",
      "bufferView": 0,
      "componentType": 5126,
      "count": 4381,
      "max": [
        -485.05831909179688,
        55.577308654785156,
        115.59638214111328
      ],
      "min": [
        -517.1767578125,
        37.350517272949219,
        76.903587341308594
      ],
      "type": "VEC3"
    },
    {
      "name": "NORMAL",
      "bufferView": 0,
      "byteOffset": 12,
      "componentType": 5126,
      "count": 4381,
      "max": [
        0.99999254941940308,
        0.9999847412109375,
        0.99915200471878052
      ],
      "min": [
        -0.99932003021240234,
        -0.98111099004745483,
        -0.9999922513961792
      ],
      "type": "VEC3"
    },
    {
      "name": "TEXCOORD_0",
      "bufferView": 0,
      "byteOffset": 24,
      "componentType": 5126,
      "count": 4381,
      "max": [
        0.998046875,
        0.9990234375
      ],
      "min": [
        0.001953125,
        0.0009765625
      ],
      "type": "VEC2"
    },
    {
      "bufferView": 1,
      "componentType": 5123,
      "count": 10698,
      "type": "SCALAR"
    },
    {
      "name": "POSITION",
      "bufferView": 0,
      "byteOffset": 140192,
      "componentType": 5126,
      "count": 186,
      "max": [
        -485.05929565429688,
        55.113296508789063,
        111.74315643310547
      ],
      "min": [
        -517.176513671875,
        37.968345642089844,
        76.903587341308594
      ],
      "type": "VEC3"
    },
    {
      "name": "NORMAL",
      "bufferView": 0,
      "byteOffset": 140204,
      "componentType": 5126,
      "count": 186,
      "max": [
        0.99093961715698242,
        0.9999847412109375,
        0.99437355995178223
      ],
      "min": [
        -0.9298698902130127,
        -0.94825422763824463,
        -0.9999922513961792
      ],
      "type": "VEC3"
    },
    {
      "name": "TEXCOORD_0",
      "bufferView": 0,
      "byteOffset": 140216,
      "componentType": 5126,
      "count": 186,
      "max": [
        0.990234375,
        0.998046875
      ],
      "min": [
        0.001953125,
        0.931640625
      ],
      "type": "VEC2"
    },
    {
      "bufferView": 1,
      "byteOffset": 21396,
      "componentType": 5123,
      "count": 408,
      "type": "SCALAR"
    }
  ],
  "bufferViews": [
    {
      "buffer": 0,
      "byteLength": 146144,
      "byteStride": 32,
      "target": 34962
    },
    {
      "buffer": 0,
      "byteLength": 22212,
      "byteOffset": 146144,
      "target": 34963
    }
  ],
  "buffers": [
    {
      "byteLength": 168356,
      "uri": "20525362525051735167_LOD00.bin"
    }
  ],
  "images": [
    {
      "uri": "20525362525051735167_LOD00_0.png"
    },
    {
      "uri": "20525362525051735167_LOD00_1.png"
    }
  ],
  "materials": [
    {
      "doubleSided": true,
      "pbrMetallicRoughness": {
        "baseColorTexture": {
          "index": 0
        },
        "metallicFactor": 0
      }
    },
    {
      "doubleSided": true,
      "pbrMetallicRoughness": {
        "baseColorTexture": {
          "index": 1
        },
        "metallicFactor": 0
      }
    }
  ],
  "meshes": [
    {
      "name": "20525362525051735167_0",
      "primitives": [
        {
          "attributes": {
            "POSITION": 0,
            "NORMAL": 1,
            "TEXCOORD_0": 2
          },
          "indices": 3,
          "material": 0
        }
      ]
    },
    {
      "name": "20525362525051735167_1",
      "primitives": [
        {
          "attributes": {
            "POSITION": 4,
            "NORMAL": 5,
            "TEXCOORD_0": 6
          },
          "indices": 7,
          "material": 1
        }
      ]
    }
  ],
  "nodes": [
    {
      "mesh": 0
    },
    {
      "mesh": 1
    }
  ],
  "scene": 0,
  "scenes": [
    {
      "nodes": [
        0,
        1
      ]
    }
  ],
  "textures": [
    {
      "source": 0
    },
    {
      "source": 1
    }
  ]
}