{
  "asset": {
    "copyright": "",
    "generator": "SharpGLTF 1.0.0",
    "version": "2.0"
  },
  "accessors": [
    {
      "name": "POSITION",
      "bufferView": 0,
      "componentType": 5126,
      "count": 4712,
      "max": [
        -324.24197387695313,
        56.816898345947266,
        306.35848999023438
      ],
      "min": [
        -356.66748046875,
        38.127815246582031,
        267.97244262695313
      ],
      "type": "VEC3"
    },
    {
      "name": "NORMAL",
      "bufferView": 0,
      "byteOffset": 12,
      "componentType": 5126,
      "count": 4712,
      "max": [
        0.99999237060546875,
        0.9999847412109375,
        0.99999207258224487
      ],
      "min": [
        -0.99931901693344116,
        -0.99917089939117432,
        -0.99999237060546875
      ],
      "type": "VEC3"
    },
    {
      "name": "TEXCOORD_0",
      "bufferView": 0,
      "byteOffset": 24,
      "componentType": 5126,
      "count": 4712,
      "max": [
        0.998046875,
        0.9990234375
      ],
      "min": [
        0.001953125,
        0.0009765625
      ],
      "type": "VEC2"
    },
    {
      "bufferView": 1,
      "componentType": 5123,
      "count": 11526,
      "type": "SCALAR"
    },
    {
      "name": "POSITION",
      "bufferView": 0,
      "byteOffset": 150784,
      "componentType": 5126,
      "count": 2167,
      "max": [
        -324.55075073242188,
        56.816898345947266,
        306.204345703125
      ],
      "min": [
        -356.66729736328125,
        38.436328887939453,
        267.97311401367188
      ],
      "type": "VEC3"
    },
    {
      "name": "NORMAL",
      "bufferView": 0,
      "byteOffset": 150796,
      "componentType": 5126,
      "count": 2167,
      "max": [
        0.99999237060546875,
        0.9999847412109375,
        0.99999207258224487
      ],
      "min": [
        -0.99931901693344116,
        -0.99917089939117432,
        -0.99999237060546875
      ],
      "type": "VEC3"
    },
    {
      "name": "TEXCOORD_0",
      "bufferView": 0,
      "byteOffset": 150808,
      "componentType": 5126,
      "count": 2167,
      "max": [
        0.998046875,
        0.998046875
      ],
      "min": [
        0.001953125,
        0.259765625
      ],
      "type": "VEC2"
    },
    {
      "bufferView": 1,
      "byteOffset": 23052,
      "componentType": 5123,
      "count": 5184,
      "type": "SCALAR"
    }
  ],
  "bufferViews": [
    {
      "buffer": 0,
      "byteLength": 220128,
      "byteStride": 32,
      "target": 34962
    },
    {
      "buffer": 0,
      "byteLength": 33420,
      "byteOffset": 220128,
      "target": 34963
    }
  ],
  "buffers": [
    {
      "byteLength": 253548,
      "uri": "20525362525051737044_LOD00.bin"
    }
  ],
  "images": [
    {
      "uri": "20525362525051737044_LOD00_0.png"
    },
    {
      "uri": "20525362525051737044_LOD00_1.png"
    }
  ],
  "materials": [
    {
      "doubleSided": true,
      "pbrMetallicRoughness": {
        "baseColorTexture": {
          "index": 0
        },
        "metallicFactor": 0
      }
    },
    {
      "doubleSided": true,
      "pbrMetallicRoughness": {
        "baseColorTexture": {
          "index": 1
        },
        "metallicFactor": 0
      }
    }
  ],
  "meshes": [
    {
      "name": "20525362525051737044_0",
      "primitives": [
        {
          "attributes": {
            "POSITION": 0,
            "NORMAL": 1,
            "TEXCOORD_0": 2
          },
          "indices": 3,
          "material": 0
        }
      ]
    },
    {
      "name": "20525362525051737044_1",
      "primitives": [
        {
          "attributes": {
            "POSITION": 4,
            "NORMAL": 5,
            "TEXCOORD_0": 6
          },
          "indices": 7,
          "material": 1
        }
      ]
    }
  ],
  "nodes": [
    {
      "mesh": 0
    },
    {
      "mesh": 1
    }
  ],
  "scene": 0,
  "scenes": [
    {
      "nodes": [
        0,
        1
      ]
    }
  ],
  "textures": [
    {
      "source": 0
    },
    {
      "source": 1
    }
  ]
}