{
  "asset": {
    "copyright": "",
    "generator": "SharpGLTF 1.0.0",
    "version": "2.0"
  },
  "accessors": [
    {
      "name": "POSITION",
      "bufferView": 0,
      "componentType": 5126,
      "count": 1006,
      "max": [
        -164.04594421386719,
        57.419635772705078,
        650.2884521484375
      ],
      "min": [
        -196.161376953125,
        37.801013946533203,
        611.59503173828125
      ],
      "type": "VEC3"
    },
    {
      "name": "NORMAL",
      "bufferView": 0,
      "byteOffset": 12,
      "componentType": 5126,
      "count": 1006,
      "max": [
        0.99999237060546875,
        0.99998486042022705,
        0.99999189376831055
      ],
      "min": [
        -0.99999219179153442,
        -0.9991753101348877,
        -0.99999254941940308
      ],
      "type": "VEC3"
    },
    {
      "name": "TEXCOORD_0",
      "bufferView": 0,
      "byteOffset": 24,
      "componentType": 5126,
      "count": 1006,
      "max": [
        0.998046875,
        0.9990234375
      ],
      "min": [
        0.001953125,
        0.0009765625
      ],
      "type": "VEC2"
    },
    {
      "bufferView": 1,
      "componentType": 5123,
      "count": 2451,
      "type": "SCALAR"
    },
    {
      "name": "POSITION",
      "bufferView": 0,
      "byteOffset": 32192,
      "componentType": 5126,
      "count": 69,
      "max": [
        -174.08181762695313,
        56.029529571533203,
        650.1346435546875
      ],
      "min": [
        -196.16128540039063,
        40.427204132080078,
        614.5257568359375
      ],
      "type": "VEC3"
    },
    {
      "name": "NORMAL",
      "bufferView": 0,
      "byteOffset": 32204,
      "componentType": 5126,
      "count": 69,
      "max": [
        0.99527192115783691,
        0.99998486042022705,
        0.99999189376831055
      ],
      "min": [
        -0.54546570777893066,
        -0.86752820014953613,
        -0.60736179351806641
      ],
      "type": "VEC3"
    },
    {
      "name": "TEXCOORD_0",
      "bufferView": 0,
      "byteOffset": 32216,
      "componentType": 5126,
      "count": 69,
      "max": [
        0.943359375,
        0.998046875
      ],
      "min": [
        0.001953125,
        0.755859375
      ],
      "type": "VEC2"
    },
    {
      "bufferView": 1,
      "byteOffset": 4902,
      "componentType": 5123,
      "count": 180,
      "type": "SCALAR"
    }
  ],
  "bufferViews": [
    {
      "buffer": 0,
      "byteLength": 34400,
      "byteStride": 32,
      "target": 34962
    },
    {
      "buffer": 0,
      "byteLength": 5262,
      "byteOffset": 34400,
      "target": 34963
    }
  ],
  "buffers": [
    {
      "byteLength": 39664,
      "uri": "20525362525053514057_LOD00.bin"
    }
  ],
  "images": [
    {
      "uri": "20525362525053514057_LOD00_0.png"
    },
    {
      "uri": "20525362525053514057_LOD00_1.png"
    }
  ],
  "materials": [
    {
      "doubleSided": true,
      "pbrMetallicRoughness": {
        "baseColorTexture": {
          "index": 0
        },
        "metallicFactor": 0
      }
    },
    {
      "doubleSided": true,
      "pbrMetallicRoughness": {
        "baseColorTexture": {
          "index": 1
        },
        "metallicFactor": 0
      }
    }
  ],
  "meshes": [
    {
      "name": "20525362525053514057_0",
      "primitives": [
        {
          "attributes": {
            "POSITION": 0,
            "NORMAL": 1,
            "TEXCOORD_0": 2
          },
          "indices": 3,
          "material": 0
        }
      ]
    },
    {
      "name": "20525362525053514057_1",
      "primitives": [
        {
          "attributes": {
            "POSITION": 4,
            "NORMAL": 5,
            "TEXCOORD_0": 6
          },
          "indices": 7,
          "material": 1
        }
      ]
    }
  ],
  "nodes": [
    {
      "mesh": 0
    },
    {
      "mesh": 1
    }
  ],
  "scene": 0,
  "scenes": [
    {
      "nodes": [
        0,
        1
      ]
    }
  ],
  "textures": [
    {
      "source": 0
    },
    {
      "source": 1
    }
  ]
}