{
  "asset": {
    "copyright": "",
    "generator": "SharpGLTF 1.0.0",
    "version": "2.0"
  },
  "accessors": [
    {
      "name": "POSITION",
      "bufferView": 0,
      "componentType": 5126,
      "count": 878,
      "max": [
        -131.95320129394531,
        37.845191955566406,
        115.12382507324219
      ],
      "min": [
        -164.06971740722656,
        31.974983215332031,
        76.430992126464844
      ],
      "type": "VEC3"
    },
    {
      "name": "NORMAL",
      "bufferView": 0,
      "byteOffset": 12,
      "componentType": 5126,
      "count": 878,
      "max": [
        0.99915611743927002,
        0.99998462200164795,
        0.99597954750061035
      ],
      "min": [
        -0.99798840284347534,
        -0.99641191959381104,
        -0.95955526828765869
      ],
      "type": "VEC3"
    },
    {
      "name": "TEXCOORD_0",
      "bufferView": 0,
      "byteOffset": 24,
      "componentType": 5126,
      "count": 878,
      "max": [
        0.998046875,
        0.998046875
      ],
      "min": [
        0.001953125,
        0.162109375
      ],
      "type": "VEC2"
    },
    {
      "bufferView": 1,
      "componentType": 5123,
      "count": 2319,
      "type": "SCALAR"
    }
  ],
  "bufferViews": [
    {
      "buffer": 0,
      "byteLength": 28096,
      "byteStride": 32,
      "target": 34962
    },
    {
      "buffer": 0,
      "byteLength": 4638,
      "byteOffset": 28096,
      "target": 34963
    }
  ],
  "buffers": [
    {
      "byteLength": 32736,
      "uri": "20525362525051734072_LOD00.bin"
    }
  ],
  "images": [
    {
      "uri": "20525362525051734072_LOD00.png"
    }
  ],
  "materials": [
    {
      "doubleSided": true,
      "pbrMetallicRoughness": {
        "baseColorTexture": {
          "index": 0
        },
        "metallicFactor": 0
      }
    }
  ],
  "meshes": [
    {
      "name": "20525362525051734072_0",
      "primitives": [
        {
          "attributes": {
            "POSITION": 0,
            "NORMAL": 1,
            "TEXCOORD_0": 2
          },
          "indices": 3,
          "material": 0
        }
      ]
    }
  ],
  "nodes": [
    {
      "mesh": 0
    }
  ],
  "scene": 0,
  "scenes": [
    {
      "nodes": [
        0
      ]
    }
  ],
  "textures": [
    {
      "source": 0
    }
  ]
}