{
  "asset": {
    "copyright": "",
    "generator": "SharpGLTF 1.0.0",
    "version": "2.0"
  },
  "accessors": [
    {
      "name": "POSITION",
      "bufferView": 0,
      "componentType": 5126,
      "count": 5055,
      "max": [
        -68.060806274414063,
        61.92779541015625,
        191.55380249023438
      ],
      "min": [
        -99.868270874023438,
        37.519874572753906,
        153.32243347167969
      ],
      "type": "VEC3"
    },
    {
      "name": "NORMAL",
      "bufferView": 0,
      "byteOffset": 12,
      "componentType": 5126,
      "count": 5055,
      "max": [
        0.9999922513961792,
        0.99998462200164795,
        0.99597847461700439
      ],
      "min": [
        -0.99999219179153442,
        -1,
        -0.98909050226211548
      ],
      "type": "VEC3"
    },
    {
      "name": "TEXCOORD_0",
      "bufferView": 0,
      "byteOffset": 24,
      "componentType": 5126,
      "count": 5055,
      "max": [
        0.9990234375,
        0.9990234375
      ],
      "min": [
        0.0009765625,
        0.0009765625
      ],
      "type": "VEC2"
    },
    {
      "bufferView": 1,
      "componentType": 5123,
      "count": 12519,
      "type": "SCALAR"
    },
    {
      "name": "POSITION",
      "bufferView": 0,
      "byteOffset": 161760,
      "componentType": 5126,
      "count": 427,
      "max": [
        -68.215339660644531,
        61.927742004394531,
        191.55361938476563
      ],
      "min": [
        -99.868209838867188,
        37.828895568847656,
        153.32293701171875
      ],
      "type": "VEC3"
    },
    {
      "name": "NORMAL",
      "bufferView": 0,
      "byteOffset": 161772,
      "componentType": 5126,
      "count": 427,
      "max": [
        0.9999922513961792,
        0.99998462200164795,
        0.97684341669082642
      ],
      "min": [
        -0.99915528297424316,
        -0.99819934368133545,
        -0.95082098245620728
      ],
      "type": "VEC3"
    },
    {
      "name": "TEXCOORD_0",
      "bufferView": 0,
      "byteOffset": 161784,
      "componentType": 5126,
      "count": 427,
      "max": [
        0.998046875,
        0.998046875
      ],
      "min": [
        0.001953125,
        0.857421875
      ],
      "type": "VEC2"
    },
    {
      "bufferView": 1,
      "byteOffset": 25038,
      "componentType": 5123,
      "count": 975,
      "type": "SCALAR"
    }
  ],
  "bufferViews": [
    {
      "buffer": 0,
      "byteLength": 175424,
      "byteStride": 32,
      "target": 34962
    },
    {
      "buffer": 0,
      "byteLength": 26988,
      "byteOffset": 175424,
      "target": 34963
    }
  ],
  "buffers": [
    {
      "byteLength": 202412,
      "uri": "20525362525051734246_LOD00.bin"
    }
  ],
  "images": [
    {
      "uri": "20525362525051734246_LOD00_0.png"
    },
    {
      "uri": "20525362525051734246_LOD00_1.png"
    }
  ],
  "materials": [
    {
      "doubleSided": true,
      "pbrMetallicRoughness": {
        "baseColorTexture": {
          "index": 0
        },
        "metallicFactor": 0
      }
    },
    {
      "doubleSided": true,
      "pbrMetallicRoughness": {
        "baseColorTexture": {
          "index": 1
        },
        "metallicFactor": 0
      }
    }
  ],
  "meshes": [
    {
      "name": "20525362525051734246_0",
      "primitives": [
        {
          "attributes": {
            "POSITION": 0,
            "NORMAL": 1,
            "TEXCOORD_0": 2
          },
          "indices": 3,
          "material": 0
        }
      ]
    },
    {
      "name": "20525362525051734246_1",
      "primitives": [
        {
          "attributes": {
            "POSITION": 4,
            "NORMAL": 5,
            "TEXCOORD_0": 6
          },
          "indices": 7,
          "material": 1
        }
      ]
    }
  ],
  "nodes": [
    {
      "mesh": 0
    },
    {
      "mesh": 1
    }
  ],
  "scene": 0,
  "scenes": [
    {
      "nodes": [
        0,
        1
      ]
    }
  ],
  "textures": [
    {
      "source": 0
    },
    {
      "source": 1
    }
  ]
}