{
  "asset": {
    "copyright": "",
    "generator": "SharpGLTF 1.0.0",
    "version": "2.0"
  },
  "accessors": [
    {
      "name": "POSITION",
      "bufferView": 0,
      "componentType": 5126,
      "count": 2568,
      "max": [
        -260.3441162109375,
        74.260009765625,
        573.70703125
      ],
      "min": [
        -292.46090698242188,
        41.202320098876953,
        535.47662353515625
      ],
      "type": "VEC3"
    },
    {
      "name": "NORMAL",
      "bufferView": 0,
      "byteOffset": 12,
      "componentType": 5126,
      "count": 2568,
      "max": [
        0.99999237060546875,
        0.99998486042022705,
        0.99999189376831055
      ],
      "min": [
        -0.98342448472976685,
        -1,
        -0.99999254941940308
      ],
      "type": "VEC3"
    },
    {
      "name": "TEXCOORD_0",
      "bufferView": 0,
      "byteOffset": 24,
      "componentType": 5126,
      "count": 2568,
      "max": [
        0.998046875,
        0.9990234375
      ],
      "min": [
        0.001953125,
        0.0009765625
      ],
      "type": "VEC2"
    },
    {
      "bufferView": 1,
      "componentType": 5123,
      "count": 5889,
      "type": "SCALAR"
    },
    {
      "name": "POSITION",
      "bufferView": 0,
      "byteOffset": 82176,
      "componentType": 5126,
      "count": 776,
      "max": [
        -260.34405517578125,
        74.260009765625,
        573.70648193359375
      ],
      "min": [
        -292.46060180664063,
        41.201198577880859,
        535.47705078125
      ],
      "type": "VEC3"
    },
    {
      "name": "NORMAL",
      "bufferView": 0,
      "byteOffset": 82188,
      "componentType": 5126,
      "count": 776,
      "max": [
        0.99999237060546875,
        0.99998486042022705,
        0.99999189376831055
      ],
      "min": [
        -0.99999207258224487,
        -0.99819350242614746,
        -0.99915158748626709
      ],
      "type": "VEC3"
    },
    {
      "name": "TEXCOORD_0",
      "bufferView": 0,
      "byteOffset": 82200,
      "componentType": 5126,
      "count": 776,
      "max": [
        0.998046875,
        0.998046875
      ],
      "min": [
        0.001953125,
        0.638671875
      ],
      "type": "VEC2"
    },
    {
      "bufferView": 1,
      "byteOffset": 11778,
      "componentType": 5123,
      "count": 1887,
      "type": "SCALAR"
    }
  ],
  "bufferViews": [
    {
      "buffer": 0,
      "byteLength": 107008,
      "byteStride": 32,
      "target": 34962
    },
    {
      "buffer": 0,
      "byteLength": 15552,
      "byteOffset": 107008,
      "target": 34963
    }
  ],
  "buffers": [
    {
      "byteLength": 122560,
      "uri": "20525362525051736376_LOD00.bin"
    }
  ],
  "images": [
    {
      "uri": "20525362525051736376_LOD00_0.png"
    },
    {
      "uri": "20525362525051736376_LOD00_1.png"
    }
  ],
  "materials": [
    {
      "doubleSided": true,
      "pbrMetallicRoughness": {
        "baseColorTexture": {
          "index": 0
        },
        "metallicFactor": 0
      }
    },
    {
      "doubleSided": true,
      "pbrMetallicRoughness": {
        "baseColorTexture": {
          "index": 1
        },
        "metallicFactor": 0
      }
    }
  ],
  "meshes": [
    {
      "name": "20525362525051736376_0",
      "primitives": [
        {
          "attributes": {
            "POSITION": 0,
            "NORMAL": 1,
            "TEXCOORD_0": 2
          },
          "indices": 3,
          "material": 0
        }
      ]
    },
    {
      "name": "20525362525051736376_1",
      "primitives": [
        {
          "attributes": {
            "POSITION": 4,
            "NORMAL": 5,
            "TEXCOORD_0": 6
          },
          "indices": 7,
          "material": 1
        }
      ]
    }
  ],
  "nodes": [
    {
      "mesh": 0
    },
    {
      "mesh": 1
    }
  ],
  "scene": 0,
  "scenes": [
    {
      "nodes": [
        0,
        1
      ]
    }
  ],
  "textures": [
    {
      "source": 0
    },
    {
      "source": 1
    }
  ]
}