{
  "asset": {
    "copyright": "",
    "generator": "SharpGLTF 1.0.0",
    "version": "2.0"
  },
  "accessors": [
    {
      "name": "POSITION",
      "bufferView": 0,
      "componentType": 5126,
      "count": 5901,
      "max": [
        -131.4893798828125,
        59.918354034423828,
        191.55451965332031
      ],
      "min": [
        -164.06907653808594,
        37.364070892333984,
        153.32308959960938
      ],
      "type": "VEC3"
    },
    {
      "name": "NORMAL",
      "bufferView": 0,
      "byteOffset": 12,
      "componentType": 5126,
      "count": 5901,
      "max": [
        0.99999231100082397,
        0.99998456239700317,
        0.99999213218688965
      ],
      "min": [
        -0.99898344278335571,
        -1,
        -0.99898219108581543
      ],
      "type": "VEC3"
    },
    {
      "name": "TEXCOORD_0",
      "bufferView": 0,
      "byteOffset": 24,
      "componentType": 5126,
      "count": 5901,
      "max": [
        0.9990234375,
        0.9990234375
      ],
      "min": [
        0.0009765625,
        0.0009765625
      ],
      "type": "VEC2"
    },
    {
      "bufferView": 1,
      "componentType": 5123,
      "count": 14076,
      "type": "SCALAR"
    },
    {
      "name": "POSITION",
      "bufferView": 0,
      "byteOffset": 188832,
      "componentType": 5126,
      "count": 1081,
      "max": [
        -131.95260620117188,
        59.918354034423828,
        190.32072448730469
      ],
      "min": [
        -164.22349548339844,
        37.520008087158203,
        153.01467895507813
      ],
      "type": "VEC3"
    },
    {
      "name": "NORMAL",
      "bufferView": 0,
      "byteOffset": 188844,
      "componentType": 5126,
      "count": 1081,
      "max": [
        0.99055296182632446,
        0.99998456239700317,
        0.9967268705368042
      ],
      "min": [
        -0.99999219179153442,
        -1,
        -0.99598276615142822
      ],
      "type": "VEC3"
    },
    {
      "name": "TEXCOORD_0",
      "bufferView": 0,
      "byteOffset": 188856,
      "componentType": 5126,
      "count": 1081,
      "max": [
        0.998046875,
        0.998046875
      ],
      "min": [
        0.001953125,
        0.611328125
      ],
      "type": "VEC2"
    },
    {
      "bufferView": 1,
      "byteOffset": 28152,
      "componentType": 5123,
      "count": 2598,
      "type": "SCALAR"
    }
  ],
  "bufferViews": [
    {
      "buffer": 0,
      "byteLength": 223424,
      "byteStride": 32,
      "target": 34962
    },
    {
      "buffer": 0,
      "byteLength": 33348,
      "byteOffset": 223424,
      "target": 34963
    }
  ],
  "buffers": [
    {
      "byteLength": 256772,
      "uri": "20525362525051734256_LOD00.bin"
    }
  ],
  "images": [
    {
      "uri": "20525362525051734256_LOD00_0.png"
    },
    {
      "uri": "20525362525051734256_LOD00_1.png"
    }
  ],
  "materials": [
    {
      "doubleSided": true,
      "pbrMetallicRoughness": {
        "baseColorTexture": {
          "index": 0
        },
        "metallicFactor": 0
      }
    },
    {
      "doubleSided": true,
      "pbrMetallicRoughness": {
        "baseColorTexture": {
          "index": 1
        },
        "metallicFactor": 0
      }
    }
  ],
  "meshes": [
    {
      "name": "20525362525051734256_0",
      "primitives": [
        {
          "attributes": {
            "POSITION": 0,
            "NORMAL": 1,
            "TEXCOORD_0": 2
          },
          "indices": 3,
          "material": 0
        }
      ]
    },
    {
      "name": "20525362525051734256_1",
      "primitives": [
        {
          "attributes": {
            "POSITION": 4,
            "NORMAL": 5,
            "TEXCOORD_0": 6
          },
          "indices": 7,
          "material": 1
        }
      ]
    }
  ],
  "nodes": [
    {
      "mesh": 0
    },
    {
      "mesh": 1
    }
  ],
  "scene": 0,
  "scenes": [
    {
      "nodes": [
        0,
        1
      ]
    }
  ],
  "textures": [
    {
      "source": 0
    },
    {
      "source": 1
    }
  ]
}