{
  "asset": {
    "copyright": "",
    "generator": "SharpGLTF 1.0.0",
    "version": "2.0"
  },
  "accessors": [
    {
      "name": "POSITION",
      "bufferView": 0,
      "componentType": 5126,
      "count": 4086,
      "max": [
        -3.5518207550048828,
        65.779022216796875,
        420.99859619140625
      ],
      "min": [
        -35.666988372802734,
        37.355644226074219,
        383.22906494140625
      ],
      "type": "VEC3"
    },
    {
      "name": "NORMAL",
      "bufferView": 0,
      "byteOffset": 12,
      "componentType": 5126,
      "count": 4086,
      "max": [
        0.99999219179153442,
        0.99998468160629272,
        0.9999920129776001
      ],
      "min": [
        -0.99999219179153442,
        -1,
        -0.9999924898147583
      ],
      "type": "VEC3"
    },
    {
      "name": "TEXCOORD_0",
      "bufferView": 0,
      "byteOffset": 24,
      "componentType": 5126,
      "count": 4086,
      "max": [
        0.998046875,
        0.9990234375
      ],
      "min": [
        0.001953125,
        0.0009765625
      ],
      "type": "VEC2"
    },
    {
      "bufferView": 1,
      "componentType": 5123,
      "count": 9018,
      "type": "SCALAR"
    },
    {
      "name": "POSITION",
      "bufferView": 0,
      "byteOffset": 130752,
      "componentType": 5126,
      "count": 1541,
      "max": [
        -3.5518207550048828,
        65.779022216796875,
        420.99859619140625
      ],
      "min": [
        -35.666988372802734,
        37.819053649902344,
        384.15396118164063
      ],
      "type": "VEC3"
    },
    {
      "name": "NORMAL",
      "bufferView": 0,
      "byteOffset": 130764,
      "componentType": 5126,
      "count": 1541,
      "max": [
        0.99999219179153442,
        0.99998468160629272,
        0.9999920129776001
      ],
      "min": [
        -0.99999219179153442,
        -1,
        -0.9999924898147583
      ],
      "type": "VEC3"
    },
    {
      "name": "TEXCOORD_0",
      "bufferView": 0,
      "byteOffset": 130776,
      "componentType": 5126,
      "count": 1541,
      "max": [
        0.998046875,
        0.998046875
      ],
      "min": [
        0.001953125,
        0.517578125
      ],
      "type": "VEC2"
    },
    {
      "bufferView": 1,
      "byteOffset": 18036,
      "componentType": 5123,
      "count": 3144,
      "type": "SCALAR"
    }
  ],
  "bufferViews": [
    {
      "buffer": 0,
      "byteLength": 180064,
      "byteStride": 32,
      "target": 34962
    },
    {
      "buffer": 0,
      "byteLength": 24324,
      "byteOffset": 180064,
      "target": 34963
    }
  ],
  "buffers": [
    {
      "byteLength": 204388,
      "uri": "20525362525051727176_LOD00.bin"
    }
  ],
  "images": [
    {
      "uri": "20525362525051727176_LOD00_0.png"
    },
    {
      "uri": "20525362525051727176_LOD00_1.png"
    }
  ],
  "materials": [
    {
      "doubleSided": true,
      "pbrMetallicRoughness": {
        "baseColorTexture": {
          "index": 0
        },
        "metallicFactor": 0
      }
    },
    {
      "doubleSided": true,
      "pbrMetallicRoughness": {
        "baseColorTexture": {
          "index": 1
        },
        "metallicFactor": 0
      }
    }
  ],
  "meshes": [
    {
      "name": "20525362525051727176_0",
      "primitives": [
        {
          "attributes": {
            "POSITION": 0,
            "NORMAL": 1,
            "TEXCOORD_0": 2
          },
          "indices": 3,
          "material": 0
        }
      ]
    },
    {
      "name": "20525362525051727176_1",
      "primitives": [
        {
          "attributes": {
            "POSITION": 4,
            "NORMAL": 5,
            "TEXCOORD_0": 6
          },
          "indices": 7,
          "material": 1
        }
      ]
    }
  ],
  "nodes": [
    {
      "mesh": 0
    },
    {
      "mesh": 1
    }
  ],
  "scene": 0,
  "scenes": [
    {
      "nodes": [
        0,
        1
      ]
    }
  ],
  "textures": [
    {
      "source": 0
    },
    {
      "source": 1
    }
  ]
}