{
  "asset": {
    "copyright": "",
    "generator": "SharpGLTF 1.0.0",
    "version": "2.0"
  },
  "accessors": [
    {
      "name": "POSITION",
      "bufferView": 0,
      "componentType": 5126,
      "count": 2481,
      "max": [
        -741.8436279296875,
        74.700828552246094,
        382.65817260742188
      ],
      "min": [
        -774.269775390625,
        41.94720458984375,
        344.42404174804688
      ],
      "type": "VEC3"
    },
    {
      "name": "NORMAL",
      "bufferView": 0,
      "byteOffset": 12,
      "componentType": 5126,
      "count": 2481,
      "max": [
        0.99999266862869263,
        0.99998515844345093,
        0.9999920129776001
      ],
      "min": [
        -0.999991774559021,
        -1,
        -0.99999243021011353
      ],
      "type": "VEC3"
    },
    {
      "name": "TEXCOORD_0",
      "bufferView": 0,
      "byteOffset": 24,
      "componentType": 5126,
      "count": 2481,
      "max": [
        0.9990234375,
        0.9990234375
      ],
      "min": [
        0.0009765625,
        0.0009765625
      ],
      "type": "VEC2"
    },
    {
      "bufferView": 1,
      "componentType": 5123,
      "count": 5067,
      "type": "SCALAR"
    },
    {
      "name": "POSITION",
      "bufferView": 0,
      "byteOffset": 79392,
      "componentType": 5126,
      "count": 2133,
      "max": [
        -741.84344482421875,
        74.23748779296875,
        382.65805053710938
      ],
      "min": [
        -774.271240234375,
        41.948215484619141,
        344.42404174804688
      ],
      "type": "VEC3"
    },
    {
      "name": "NORMAL",
      "bufferView": 0,
      "byteOffset": 79404,
      "componentType": 5126,
      "count": 2133,
      "max": [
        0.99999266862869263,
        0.99998515844345093,
        0.9999920129776001
      ],
      "min": [
        -0.999991774559021,
        -1,
        -0.99999243021011353
      ],
      "type": "VEC3"
    },
    {
      "name": "TEXCOORD_0",
      "bufferView": 0,
      "byteOffset": 79416,
      "componentType": 5126,
      "count": 2133,
      "max": [
        0.998046875,
        0.9990234375
      ],
      "min": [
        0.001953125,
        0.4072265625
      ],
      "type": "VEC2"
    },
    {
      "bufferView": 1,
      "byteOffset": 10134,
      "componentType": 5123,
      "count": 5019,
      "type": "SCALAR"
    }
  ],
  "bufferViews": [
    {
      "buffer": 0,
      "byteLength": 147648,
      "byteStride": 32,
      "target": 34962
    },
    {
      "buffer": 0,
      "byteLength": 20172,
      "byteOffset": 147648,
      "target": 34963
    }
  ],
  "buffers": [
    {
      "byteLength": 167820,
      "uri": "20525362525140626165_LOD00.bin"
    }
  ],
  "images": [
    {
      "uri": "20525362525140626165_LOD00_0.png"
    },
    {
      "uri": "20525362525140626165_LOD00_1.png"
    }
  ],
  "materials": [
    {
      "doubleSided": true,
      "pbrMetallicRoughness": {
        "baseColorTexture": {
          "index": 0
        },
        "metallicFactor": 0
      }
    },
    {
      "doubleSided": true,
      "pbrMetallicRoughness": {
        "baseColorTexture": {
          "index": 1
        },
        "metallicFactor": 0
      }
    }
  ],
  "meshes": [
    {
      "name": "20525362525140626165_0",
      "primitives": [
        {
          "attributes": {
            "POSITION": 0,
            "NORMAL": 1,
            "TEXCOORD_0": 2
          },
          "indices": 3,
          "material": 0
        }
      ]
    },
    {
      "name": "20525362525140626165_1",
      "primitives": [
        {
          "attributes": {
            "POSITION": 4,
            "NORMAL": 5,
            "TEXCOORD_0": 6
          },
          "indices": 7,
          "material": 1
        }
      ]
    }
  ],
  "nodes": [
    {
      "mesh": 0
    },
    {
      "mesh": 1
    }
  ],
  "scene": 0,
  "scenes": [
    {
      "nodes": [
        0,
        1
      ]
    }
  ],
  "textures": [
    {
      "source": 0
    },
    {
      "source": 1
    }
  ]
}