{
  "asset": {
    "copyright": "",
    "generator": "SharpGLTF 1.0.0",
    "version": "2.0"
  },
  "accessors": [
    {
      "name": "POSITION",
      "bufferView": 0,
      "componentType": 5126,
      "count": 4215,
      "max": [
        -549.24932861328125,
        67.770187377929688,
        306.2149658203125
      ],
      "min": [
        -581.831298828125,
        40.582874298095703,
        267.98159790039063
      ],
      "type": "VEC3"
    },
    {
      "name": "NORMAL",
      "bufferView": 0,
      "byteOffset": 12,
      "componentType": 5126,
      "count": 4215,
      "max": [
        0.99999254941940308,
        0.9999849796295166,
        0.99797630310058594
      ],
      "min": [
        -0.99932032823562622,
        -1,
        -0.99999237060546875
      ],
      "type": "VEC3"
    },
    {
      "name": "TEXCOORD_0",
      "bufferView": 0,
      "byteOffset": 24,
      "componentType": 5126,
      "count": 4215,
      "max": [
        0.998046875,
        0.9990234375
      ],
      "min": [
        0.001953125,
        0.0009765625
      ],
      "type": "VEC2"
    },
    {
      "bufferView": 1,
      "componentType": 5123,
      "count": 10827,
      "type": "SCALAR"
    },
    {
      "name": "POSITION",
      "bufferView": 0,
      "byteOffset": 134880,
      "componentType": 5126,
      "count": 1298,
      "max": [
        -549.2498779296875,
        67.7701416015625,
        306.21401977539063
      ],
      "min": [
        -581.67657470703125,
        40.892848968505859,
        267.98193359375
      ],
      "type": "VEC3"
    },
    {
      "name": "NORMAL",
      "bufferView": 0,
      "byteOffset": 134892,
      "componentType": 5126,
      "count": 1298,
      "max": [
        0.99999254941940308,
        0.9999849796295166,
        0.99634182453155518
      ],
      "min": [
        -0.99898046255111694,
        -0.99916535615921021,
        -0.99999237060546875
      ],
      "type": "VEC3"
    },
    {
      "name": "TEXCOORD_0",
      "bufferView": 0,
      "byteOffset": 134904,
      "componentType": 5126,
      "count": 1298,
      "max": [
        0.998046875,
        0.998046875
      ],
      "min": [
        0.001953125,
        0.552734375
      ],
      "type": "VEC2"
    },
    {
      "bufferView": 1,
      "byteOffset": 21654,
      "componentType": 5123,
      "count": 3126,
      "type": "SCALAR"
    }
  ],
  "bufferViews": [
    {
      "buffer": 0,
      "byteLength": 176416,
      "byteStride": 32,
      "target": 34962
    },
    {
      "buffer": 0,
      "byteLength": 27906,
      "byteOffset": 176416,
      "target": 34963
    }
  ],
  "buffers": [
    {
      "byteLength": 204324,
      "uri": "20525362525051737155_LOD00.bin"
    }
  ],
  "images": [
    {
      "uri": "20525362525051737155_LOD00_0.png"
    },
    {
      "uri": "20525362525051737155_LOD00_1.png"
    }
  ],
  "materials": [
    {
      "doubleSided": true,
      "pbrMetallicRoughness": {
        "baseColorTexture": {
          "index": 0
        },
        "metallicFactor": 0
      }
    },
    {
      "doubleSided": true,
      "pbrMetallicRoughness": {
        "baseColorTexture": {
          "index": 1
        },
        "metallicFactor": 0
      }
    }
  ],
  "meshes": [
    {
      "name": "20525362525051737155_0",
      "primitives": [
        {
          "attributes": {
            "POSITION": 0,
            "NORMAL": 1,
            "TEXCOORD_0": 2
          },
          "indices": 3,
          "material": 0
        }
      ]
    },
    {
      "name": "20525362525051737155_1",
      "primitives": [
        {
          "attributes": {
            "POSITION": 4,
            "NORMAL": 5,
            "TEXCOORD_0": 6
          },
          "indices": 7,
          "material": 1
        }
      ]
    }
  ],
  "nodes": [
    {
      "mesh": 0
    },
    {
      "mesh": 1
    }
  ],
  "scene": 0,
  "scenes": [
    {
      "nodes": [
        0,
        1
      ]
    }
  ],
  "textures": [
    {
      "source": 0
    },
    {
      "source": 1
    }
  ]
}