{
  "asset": {
    "copyright": "",
    "generator": "SharpGLTF 1.0.0",
    "version": "2.0"
  },
  "accessors": [
    {
      "name": "POSITION",
      "bufferView": 0,
      "componentType": 5126,
      "count": 993,
      "max": [
        -163.5872802734375,
        74.278755187988281,
        344.415771484375
      ],
      "min": [
        -196.16696166992188,
        37.359203338623047,
        305.87518310546875
      ],
      "type": "VEC3"
    },
    {
      "name": "NORMAL",
      "bufferView": 0,
      "byteOffset": 12,
      "componentType": 5126,
      "count": 993,
      "max": [
        0.99999237060546875,
        0.99998480081558228,
        0.99999207258224487
      ],
      "min": [
        -0.99999219179153442,
        -0.99917340278625488,
        -0.99999237060546875
      ],
      "type": "VEC3"
    },
    {
      "name": "TEXCOORD_0",
      "bufferView": 0,
      "byteOffset": 24,
      "componentType": 5126,
      "count": 993,
      "max": [
        0.998046875,
        0.9990234375
      ],
      "min": [
        0.001953125,
        0.0009765625
      ],
      "type": "VEC2"
    },
    {
      "bufferView": 1,
      "byteOffset": 4632,
      "componentType": 5123,
      "count": 2313,
      "type": "SCALAR"
    },
    {
      "name": "POSITION",
      "bufferView": 0,
      "byteOffset": 31776,
      "componentType": 5126,
      "count": 910,
      "max": [
        -163.5872802734375,
        46.935764312744141,
        344.41439819335938
      ],
      "min": [
        -196.16635131835938,
        37.358585357666016,
        306.1834716796875
      ],
      "type": "VEC3"
    },
    {
      "name": "NORMAL",
      "bufferView": 0,
      "byteOffset": 31788,
      "componentType": 5126,
      "count": 910,
      "max": [
        0.99999237060546875,
        0.99998480081558228,
        0.99999207258224487
      ],
      "min": [
        -0.99999219179153442,
        -0.99641692638397217,
        -0.99999237060546875
      ],
      "type": "VEC3"
    },
    {
      "name": "TEXCOORD_0",
      "bufferView": 0,
      "byteOffset": 31800,
      "componentType": 5126,
      "count": 910,
      "max": [
        0.998046875,
        0.998046875
      ],
      "min": [
        0.001953125,
        0.275390625
      ],
      "type": "VEC2"
    },
    {
      "bufferView": 1,
      "componentType": 5123,
      "count": 2316,
      "type": "SCALAR"
    }
  ],
  "bufferViews": [
    {
      "buffer": 0,
      "byteLength": 60896,
      "byteStride": 32,
      "target": 34962
    },
    {
      "buffer": 0,
      "byteLength": 9258,
      "byteOffset": 60896,
      "target": 34963
    }
  ],
  "buffers": [
    {
      "byteLength": 70156,
      "uri": "20525362525051736057_LOD00.bin"
    }
  ],
  "images": [
    {
      "uri": "20525362525051736057_LOD00_0.png"
    },
    {
      "uri": "20525362525051736057_LOD00_1.png"
    }
  ],
  "materials": [
    {
      "doubleSided": true,
      "pbrMetallicRoughness": {
        "baseColorTexture": {
          "index": 0
        },
        "metallicFactor": 0
      }
    },
    {
      "doubleSided": true,
      "pbrMetallicRoughness": {
        "baseColorTexture": {
          "index": 1
        },
        "metallicFactor": 0
      }
    }
  ],
  "meshes": [
    {
      "name": "20525362525051736057_0",
      "primitives": [
        {
          "attributes": {
            "POSITION": 0,
            "NORMAL": 1,
            "TEXCOORD_0": 2
          },
          "indices": 3,
          "material": 0
        }
      ]
    },
    {
      "name": "20525362525051736057_1",
      "primitives": [
        {
          "attributes": {
            "POSITION": 4,
            "NORMAL": 5,
            "TEXCOORD_0": 6
          },
          "indices": 7,
          "material": 1
        }
      ]
    }
  ],
  "nodes": [
    {
      "mesh": 0
    },
    {
      "mesh": 1
    }
  ],
  "scene": 0,
  "scenes": [
    {
      "nodes": [
        0,
        1
      ]
    }
  ],
  "textures": [
    {
      "source": 0
    },
    {
      "source": 1
    }
  ]
}