{
  "asset": {
    "copyright": "",
    "generator": "SharpGLTF 1.0.0",
    "version": "2.0"
  },
  "accessors": [
    {
      "name": "POSITION",
      "bufferView": 0,
      "componentType": 5126,
      "count": 4834,
      "max": [
        -292.44827270507813,
        58.6700439453125,
        382.63327026367188
      ],
      "min": [
        -324.56539916992188,
        39.361469268798828,
        344.24737548828125
      ],
      "type": "VEC3"
    },
    {
      "name": "NORMAL",
      "bufferView": 0,
      "byteOffset": 12,
      "componentType": 5126,
      "count": 4834,
      "max": [
        0.99999243021011353,
        0.99998486042022705,
        0.9999920129776001
      ],
      "min": [
        -0.99999207258224487,
        -0.99916702508926392,
        -0.99931293725967407
      ],
      "type": "VEC3"
    },
    {
      "name": "TEXCOORD_0",
      "bufferView": 0,
      "byteOffset": 24,
      "componentType": 5126,
      "count": 4834,
      "max": [
        0.998046875,
        0.9990234375
      ],
      "min": [
        0.001953125,
        0.0009765625
      ],
      "type": "VEC2"
    },
    {
      "bufferView": 1,
      "componentType": 5123,
      "count": 11634,
      "type": "SCALAR"
    },
    {
      "name": "POSITION",
      "bufferView": 0,
      "byteOffset": 154688,
      "componentType": 5126,
      "count": 1454,
      "max": [
        -292.29513549804688,
        57.897804260253906,
        382.63302612304688
      ],
      "min": [
        -324.56539916992188,
        39.516071319580078,
        344.40130615234375
      ],
      "type": "VEC3"
    },
    {
      "name": "NORMAL",
      "bufferView": 0,
      "byteOffset": 154700,
      "componentType": 5126,
      "count": 1454,
      "max": [
        0.99999243021011353,
        0.99998486042022705,
        0.9999920129776001
      ],
      "min": [
        -0.99999207258224487,
        -0.99511235952377319,
        -0.99798440933227539
      ],
      "type": "VEC3"
    },
    {
      "name": "TEXCOORD_0",
      "bufferView": 0,
      "byteOffset": 154712,
      "componentType": 5126,
      "count": 1454,
      "max": [
        0.998046875,
        0.998046875
      ],
      "min": [
        0.001953125,
        0.548828125
      ],
      "type": "VEC2"
    },
    {
      "bufferView": 1,
      "byteOffset": 23268,
      "componentType": 5123,
      "count": 3318,
      "type": "SCALAR"
    }
  ],
  "bufferViews": [
    {
      "buffer": 0,
      "byteLength": 201216,
      "byteStride": 32,
      "target": 34962
    },
    {
      "buffer": 0,
      "byteLength": 29904,
      "byteOffset": 201216,
      "target": 34963
    }
  ],
  "buffers": [
    {
      "byteLength": 231120,
      "uri": "20525362525051736175_LOD00.bin"
    }
  ],
  "images": [
    {
      "uri": "20525362525051736175_LOD00_0.png"
    },
    {
      "uri": "20525362525051736175_LOD00_1.png"
    }
  ],
  "materials": [
    {
      "doubleSided": true,
      "pbrMetallicRoughness": {
        "baseColorTexture": {
          "index": 0
        },
        "metallicFactor": 0
      }
    },
    {
      "doubleSided": true,
      "pbrMetallicRoughness": {
        "baseColorTexture": {
          "index": 1
        },
        "metallicFactor": 0
      }
    }
  ],
  "meshes": [
    {
      "name": "20525362525051736175_0",
      "primitives": [
        {
          "attributes": {
            "POSITION": 0,
            "NORMAL": 1,
            "TEXCOORD_0": 2
          },
          "indices": 3,
          "material": 0
        }
      ]
    },
    {
      "name": "20525362525051736175_1",
      "primitives": [
        {
          "attributes": {
            "POSITION": 4,
            "NORMAL": 5,
            "TEXCOORD_0": 6
          },
          "indices": 7,
          "material": 1
        }
      ]
    }
  ],
  "nodes": [
    {
      "mesh": 0
    },
    {
      "mesh": 1
    }
  ],
  "scene": 0,
  "scenes": [
    {
      "nodes": [
        0,
        1
      ]
    }
  ],
  "textures": [
    {
      "source": 0
    },
    {
      "source": 1
    }
  ]
}