{
  "asset": {
    "copyright": "",
    "generator": "SharpGLTF 1.0.0",
    "version": "2.0"
  },
  "accessors": [
    {
      "name": "POSITION",
      "bufferView": 0,
      "componentType": 5126,
      "count": 1366,
      "max": [
        -35.651443481445313,
        37.840305328369141,
        344.41290283203125
      ],
      "min": [
        -67.766860961914063,
        23.317682266235352,
        306.18170166015625
      ],
      "type": "VEC3"
    },
    {
      "name": "NORMAL",
      "bufferView": 0,
      "byteOffset": 12,
      "componentType": 5126,
      "count": 1366,
      "max": [
        0.9999922513961792,
        0.99998468160629272,
        0.99999207258224487
      ],
      "min": [
        -0.99999219179153442,
        -1,
        -0.98334115743637085
      ],
      "type": "VEC3"
    },
    {
      "name": "TEXCOORD_0",
      "bufferView": 0,
      "byteOffset": 24,
      "componentType": 5126,
      "count": 1366,
      "max": [
        0.998046875,
        0.9990234375
      ],
      "min": [
        0.001953125,
        0.0009765625
      ],
      "type": "VEC2"
    },
    {
      "bufferView": 1,
      "componentType": 5123,
      "count": 3273,
      "type": "SCALAR"
    },
    {
      "name": "POSITION",
      "bufferView": 0,
      "byteOffset": 43712,
      "componentType": 5126,
      "count": 207,
      "max": [
        -43.062801361083984,
        37.839614868164063,
        344.41281127929688
      ],
      "min": [
        -67.766830444335938,
        23.318365097045898,
        306.18222045898438
      ],
      "type": "VEC3"
    },
    {
      "name": "NORMAL",
      "bufferView": 0,
      "byteOffset": 43724,
      "componentType": 5126,
      "count": 207,
      "max": [
        0.9999922513961792,
        0.99998468160629272,
        0.89927667379379272
      ],
      "min": [
        -0.99999219179153442,
        -1,
        -0.95954692363739014
      ],
      "type": "VEC3"
    },
    {
      "name": "TEXCOORD_0",
      "bufferView": 0,
      "byteOffset": 43736,
      "componentType": 5126,
      "count": 207,
      "max": [
        0.990234375,
        0.998046875
      ],
      "min": [
        0.001953125,
        0.810546875
      ],
      "type": "VEC2"
    },
    {
      "bufferView": 1,
      "byteOffset": 6546,
      "componentType": 5123,
      "count": 576,
      "type": "SCALAR"
    }
  ],
  "bufferViews": [
    {
      "buffer": 0,
      "byteLength": 50336,
      "byteStride": 32,
      "target": 34962
    },
    {
      "buffer": 0,
      "byteLength": 7698,
      "byteOffset": 50336,
      "target": 34963
    }
  ],
  "buffers": [
    {
      "byteLength": 58036,
      "uri": "20525362525051727153_LOD00.bin"
    }
  ],
  "images": [
    {
      "uri": "20525362525051727153_LOD00_0.png"
    },
    {
      "uri": "20525362525051727153_LOD00_1.png"
    }
  ],
  "materials": [
    {
      "doubleSided": true,
      "pbrMetallicRoughness": {
        "baseColorTexture": {
          "index": 0
        },
        "metallicFactor": 0
      }
    },
    {
      "doubleSided": true,
      "pbrMetallicRoughness": {
        "baseColorTexture": {
          "index": 1
        },
        "metallicFactor": 0
      }
    }
  ],
  "meshes": [
    {
      "name": "20525362525051727153_0",
      "primitives": [
        {
          "attributes": {
            "POSITION": 0,
            "NORMAL": 1,
            "TEXCOORD_0": 2
          },
          "indices": 3,
          "material": 0
        }
      ]
    },
    {
      "name": "20525362525051727153_1",
      "primitives": [
        {
          "attributes": {
            "POSITION": 4,
            "NORMAL": 5,
            "TEXCOORD_0": 6
          },
          "indices": 7,
          "material": 1
        }
      ]
    }
  ],
  "nodes": [
    {
      "mesh": 0
    },
    {
      "mesh": 1
    }
  ],
  "scene": 0,
  "scenes": [
    {
      "nodes": [
        0,
        1
      ]
    }
  ],
  "textures": [
    {
      "source": 0
    },
    {
      "source": 1
    }
  ]
}