{
  "asset": {
    "copyright": "",
    "generator": "SharpGLTF 1.0.0",
    "version": "2.0"
  },
  "accessors": [
    {
      "name": "POSITION",
      "bufferView": 0,
      "componentType": 5126,
      "count": 3481,
      "max": [
        -709.59326171875,
        67.598930358886719,
        382.65469360351563
      ],
      "min": [
        -741.86199951171875,
        44.889411926269531,
        344.42230224609375
      ],
      "type": "VEC3"
    },
    {
      "name": "NORMAL",
      "bufferView": 0,
      "byteOffset": 12,
      "componentType": 5126,
      "count": 3481,
      "max": [
        0.99999266862869263,
        0.99998503923416138,
        0.9999920129776001
      ],
      "min": [
        -0.999991774559021,
        -1,
        -0.99999243021011353
      ],
      "type": "VEC3"
    },
    {
      "name": "TEXCOORD_0",
      "bufferView": 0,
      "byteOffset": 24,
      "componentType": 5126,
      "count": 3481,
      "max": [
        0.998046875,
        0.9990234375
      ],
      "min": [
        0.001953125,
        0.0009765625
      ],
      "type": "VEC2"
    },
    {
      "bufferView": 1,
      "componentType": 5123,
      "count": 8883,
      "type": "SCALAR"
    },
    {
      "name": "POSITION",
      "bufferView": 0,
      "byteOffset": 111392,
      "componentType": 5126,
      "count": 1831,
      "max": [
        -709.74462890625,
        67.289871215820313,
        382.65383911132813
      ],
      "min": [
        -741.862060546875,
        44.889652252197266,
        344.42251586914063
      ],
      "type": "VEC3"
    },
    {
      "name": "NORMAL",
      "bufferView": 0,
      "byteOffset": 111404,
      "componentType": 5126,
      "count": 1831,
      "max": [
        0.99931323528289795,
        0.99998503923416138,
        0.99931710958480835
      ],
      "min": [
        -0.999991774559021,
        -0.98317629098892212,
        -0.99999243021011353
      ],
      "type": "VEC3"
    },
    {
      "name": "TEXCOORD_0",
      "bufferView": 0,
      "byteOffset": 111416,
      "componentType": 5126,
      "count": 1831,
      "max": [
        0.998046875,
        0.998046875
      ],
      "min": [
        0.001953125,
        0.255859375
      ],
      "type": "VEC2"
    },
    {
      "bufferView": 1,
      "byteOffset": 17766,
      "componentType": 5123,
      "count": 4605,
      "type": "SCALAR"
    }
  ],
  "bufferViews": [
    {
      "buffer": 0,
      "byteLength": 169984,
      "byteStride": 32,
      "target": 34962
    },
    {
      "buffer": 0,
      "byteLength": 26976,
      "byteOffset": 169984,
      "target": 34963
    }
  ],
  "buffers": [
    {
      "byteLength": 196960,
      "uri": "20525362525140626164_LOD00.bin"
    }
  ],
  "images": [
    {
      "uri": "20525362525140626164_LOD00_0.png"
    },
    {
      "uri": "20525362525140626164_LOD00_1.png"
    }
  ],
  "materials": [
    {
      "doubleSided": true,
      "pbrMetallicRoughness": {
        "baseColorTexture": {
          "index": 0
        },
        "metallicFactor": 0
      }
    },
    {
      "doubleSided": true,
      "pbrMetallicRoughness": {
        "baseColorTexture": {
          "index": 1
        },
        "metallicFactor": 0
      }
    }
  ],
  "meshes": [
    {
      "name": "20525362525140626164_0",
      "primitives": [
        {
          "attributes": {
            "POSITION": 0,
            "NORMAL": 1,
            "TEXCOORD_0": 2
          },
          "indices": 3,
          "material": 0
        }
      ]
    },
    {
      "name": "20525362525140626164_1",
      "primitives": [
        {
          "attributes": {
            "POSITION": 4,
            "NORMAL": 5,
            "TEXCOORD_0": 6
          },
          "indices": 7,
          "material": 1
        }
      ]
    }
  ],
  "nodes": [
    {
      "mesh": 0
    },
    {
      "mesh": 1
    }
  ],
  "scene": 0,
  "scenes": [
    {
      "nodes": [
        0,
        1
      ]
    }
  ],
  "textures": [
    {
      "source": 0
    },
    {
      "source": 1
    }
  ]
}