{
  "asset": {
    "copyright": "",
    "generator": "SharpGLTF 1.0.0",
    "version": "2.0"
  },
  "accessors": [
    {
      "name": "POSITION",
      "bufferView": 0,
      "componentType": 5126,
      "count": 4059,
      "max": [
        -613.4603271484375,
        48.768806457519531,
        115.14278411865234
      ],
      "min": [
        -645.5791015625,
        39.0361328125,
        76.910163879394531
      ],
      "type": "VEC3"
    },
    {
      "name": "NORMAL",
      "bufferView": 0,
      "byteOffset": 12,
      "componentType": 5126,
      "count": 4059,
      "max": [
        0.99999254941940308,
        0.99998486042022705,
        0.99999219179153442
      ],
      "min": [
        -0.99999183416366577,
        -1,
        -0.9999922513961792
      ],
      "type": "VEC3"
    },
    {
      "name": "TEXCOORD_0",
      "bufferView": 0,
      "byteOffset": 24,
      "componentType": 5126,
      "count": 4059,
      "max": [
        0.998046875,
        0.9990234375
      ],
      "min": [
        0.001953125,
        0.0009765625
      ],
      "type": "VEC2"
    },
    {
      "bufferView": 1,
      "componentType": 5123,
      "count": 9753,
      "type": "SCALAR"
    },
    {
      "name": "POSITION",
      "bufferView": 0,
      "byteOffset": 129888,
      "componentType": 5126,
      "count": 1264,
      "max": [
        -613.46185302734375,
        48.768806457519531,
        112.98458862304688
      ],
      "min": [
        -645.57891845703125,
        39.036460876464844,
        76.910224914550781
      ],
      "type": "VEC3"
    },
    {
      "name": "NORMAL",
      "bufferView": 0,
      "byteOffset": 129900,
      "componentType": 5126,
      "count": 1264,
      "max": [
        0.99999254941940308,
        0.99998486042022705,
        0.99931496381759644
      ],
      "min": [
        -0.99999183416366577,
        -0.99820232391357422,
        -0.9999922513961792
      ],
      "type": "VEC3"
    },
    {
      "name": "TEXCOORD_0",
      "bufferView": 0,
      "byteOffset": 129912,
      "componentType": 5126,
      "count": 1264,
      "max": [
        0.998046875,
        0.998046875
      ],
      "min": [
        0.001953125,
        0.560546875
      ],
      "type": "VEC2"
    },
    {
      "bufferView": 1,
      "byteOffset": 19506,
      "componentType": 5123,
      "count": 2904,
      "type": "SCALAR"
    }
  ],
  "bufferViews": [
    {
      "buffer": 0,
      "byteLength": 170336,
      "byteStride": 32,
      "target": 34962
    },
    {
      "buffer": 0,
      "byteLength": 25314,
      "byteOffset": 170336,
      "target": 34963
    }
  ],
  "buffers": [
    {
      "byteLength": 195652,
      "uri": "20525362525140624067_LOD00.bin"
    }
  ],
  "images": [
    {
      "uri": "20525362525140624067_LOD00_0.png"
    },
    {
      "uri": "20525362525140624067_LOD00_1.png"
    }
  ],
  "materials": [
    {
      "doubleSided": true,
      "pbrMetallicRoughness": {
        "baseColorTexture": {
          "index": 0
        },
        "metallicFactor": 0
      }
    },
    {
      "doubleSided": true,
      "pbrMetallicRoughness": {
        "baseColorTexture": {
          "index": 1
        },
        "metallicFactor": 0
      }
    }
  ],
  "meshes": [
    {
      "name": "20525362525140624067_0",
      "primitives": [
        {
          "attributes": {
            "POSITION": 0,
            "NORMAL": 1,
            "TEXCOORD_0": 2
          },
          "indices": 3,
          "material": 0
        }
      ]
    },
    {
      "name": "20525362525140624067_1",
      "primitives": [
        {
          "attributes": {
            "POSITION": 4,
            "NORMAL": 5,
            "TEXCOORD_0": 6
          },
          "indices": 7,
          "material": 1
        }
      ]
    }
  ],
  "nodes": [
    {
      "mesh": 0
    },
    {
      "mesh": 1
    }
  ],
  "scene": 0,
  "scenes": [
    {
      "nodes": [
        0,
        1
      ]
    }
  ],
  "textures": [
    {
      "source": 0
    },
    {
      "source": 1
    }
  ]
}