{
  "asset": {
    "copyright": "",
    "generator": "SharpGLTF 1.0.0",
    "version": "2.0"
  },
  "accessors": [
    {
      "name": "POSITION",
      "bufferView": 0,
      "componentType": 5126,
      "count": 1131,
      "max": [
        -485.03378295898438,
        74.238075256347656,
        650.14862060546875
      ],
      "min": [
        -517.61431884765625,
        37.781093597412109,
        611.7626953125
      ],
      "type": "VEC3"
    },
    {
      "name": "NORMAL",
      "bufferView": 0,
      "byteOffset": 12,
      "componentType": 5126,
      "count": 1131,
      "max": [
        0.99999254941940308,
        0.99998515844345093,
        0.99999189376831055
      ],
      "min": [
        -0.99999195337295532,
        -1,
        -0.99999254941940308
      ],
      "type": "VEC3"
    },
    {
      "name": "TEXCOORD_0",
      "bufferView": 0,
      "byteOffset": 24,
      "componentType": 5126,
      "count": 1131,
      "max": [
        0.998046875,
        0.9990234375
      ],
      "min": [
        0.001953125,
        0.0009765625
      ],
      "type": "VEC2"
    },
    {
      "bufferView": 1,
      "componentType": 5123,
      "count": 2613,
      "type": "SCALAR"
    },
    {
      "name": "POSITION",
      "bufferView": 0,
      "byteOffset": 36192,
      "componentType": 5126,
      "count": 300,
      "max": [
        -486.88760375976563,
        60.647727966308594,
        650.14556884765625
      ],
      "min": [
        -517.15008544921875,
        45.043231964111328,
        611.914306640625
      ],
      "type": "VEC3"
    },
    {
      "name": "NORMAL",
      "bufferView": 0,
      "byteOffset": 36204,
      "componentType": 5126,
      "count": 300,
      "max": [
        0.99898767471313477,
        0.99998515844345093,
        0.99597203731536865
      ],
      "min": [
        -0.99527722597122192,
        -0.94608289003372192,
        -0.98247653245925903
      ],
      "type": "VEC3"
    },
    {
      "name": "TEXCOORD_0",
      "bufferView": 0,
      "byteOffset": 36216,
      "componentType": 5126,
      "count": 300,
      "max": [
        0.998046875,
        0.998046875
      ],
      "min": [
        0.001953125,
        0.638671875
      ],
      "type": "VEC2"
    },
    {
      "bufferView": 1,
      "byteOffset": 5226,
      "componentType": 5123,
      "count": 654,
      "type": "SCALAR"
    }
  ],
  "bufferViews": [
    {
      "buffer": 0,
      "byteLength": 45792,
      "byteStride": 32,
      "target": 34962
    },
    {
      "buffer": 0,
      "byteLength": 6534,
      "byteOffset": 45792,
      "target": 34963
    }
  ],
  "buffers": [
    {
      "byteLength": 52328,
      "uri": "20525362525053515147_LOD00.bin"
    }
  ],
  "images": [
    {
      "uri": "20525362525053515147_LOD00_0.png"
    },
    {
      "uri": "20525362525053515147_LOD00_1.png"
    }
  ],
  "materials": [
    {
      "doubleSided": true,
      "pbrMetallicRoughness": {
        "baseColorTexture": {
          "index": 0
        },
        "metallicFactor": 0
      }
    },
    {
      "doubleSided": true,
      "pbrMetallicRoughness": {
        "baseColorTexture": {
          "index": 1
        },
        "metallicFactor": 0
      }
    }
  ],
  "meshes": [
    {
      "name": "20525362525053515147_0",
      "primitives": [
        {
          "attributes": {
            "POSITION": 0,
            "NORMAL": 1,
            "TEXCOORD_0": 2
          },
          "indices": 3,
          "material": 0
        }
      ]
    },
    {
      "name": "20525362525053515147_1",
      "primitives": [
        {
          "attributes": {
            "POSITION": 4,
            "NORMAL": 5,
            "TEXCOORD_0": 6
          },
          "indices": 7,
          "material": 1
        }
      ]
    }
  ],
  "nodes": [
    {
      "mesh": 0
    },
    {
      "mesh": 1
    }
  ],
  "scene": 0,
  "scenes": [
    {
      "nodes": [
        0,
        1
      ]
    }
  ],
  "textures": [
    {
      "source": 0
    },
    {
      "source": 1
    }
  ]
}