{
  "asset": {
    "copyright": "",
    "generator": "SharpGLTF 1.0.0",
    "version": "2.0"
  },
  "accessors": [
    {
      "name": "POSITION",
      "bufferView": 0,
      "componentType": 5126,
      "count": 440,
      "max": [
        -773.97259521484375,
        110.68411254882813,
        38.723712921142578
      ],
      "min": [
        -799.610595703125,
        74.22454833984375,
        0.4909837543964386
      ],
      "type": "VEC3"
    },
    {
      "name": "NORMAL",
      "bufferView": 0,
      "byteOffset": 12,
      "componentType": 5126,
      "count": 440,
      "max": [
        0.99999266862869263,
        0.99998486042022705,
        0.99999213218688965
      ],
      "min": [
        -0.999991774559021,
        -0.99917143583297729,
        -0.99999213218688965
      ],
      "type": "VEC3"
    },
    {
      "name": "TEXCOORD_0",
      "bufferView": 0,
      "byteOffset": 24,
      "componentType": 5126,
      "count": 440,
      "max": [
        0.998046875,
        0.9990234375
      ],
      "min": [
        0.001953125,
        0.0361328125
      ],
      "type": "VEC2"
    },
    {
      "bufferView": 1,
      "componentType": 5123,
      "count": 1119,
      "type": "SCALAR"
    },
    {
      "name": "POSITION",
      "bufferView": 0,
      "byteOffset": 14080,
      "componentType": 5126,
      "count": 8,
      "max": [
        -776.910400390625,
        106.51288604736328,
        14.827781677246094
      ],
      "min": [
        -777.06683349609375,
        92.455528259277344,
        10.511395454406738
      ],
      "type": "VEC3"
    },
    {
      "name": "NORMAL",
      "bufferView": 0,
      "byteOffset": 14092,
      "componentType": 5126,
      "count": 8,
      "max": [
        -0.99637603759765625,
        -0.0040597883053123951,
        7.7846314525231719E-05
      ],
      "min": [
        -0.999991774559021,
        -0.0043805097229778767,
        -0.084944382309913635
      ],
      "type": "VEC3"
    },
    {
      "name": "TEXCOORD_0",
      "bufferView": 0,
      "byteOffset": 14104,
      "componentType": 5126,
      "count": 8,
      "max": [
        0.357421875,
        0.998046875
      ],
      "min": [
        0.001953125,
        0.888671875
      ],
      "type": "VEC2"
    },
    {
      "bufferView": 1,
      "byteOffset": 2238,
      "componentType": 5123,
      "count": 18,
      "type": "SCALAR"
    }
  ],
  "bufferViews": [
    {
      "buffer": 0,
      "byteLength": 14336,
      "byteStride": 32,
      "target": 34962
    },
    {
      "buffer": 0,
      "byteLength": 2274,
      "byteOffset": 14336,
      "target": 34963
    }
  ],
  "buffers": [
    {
      "byteLength": 16612,
      "uri": "20525362525140624512_LOD00.bin"
    }
  ],
  "images": [
    {
      "uri": "20525362525140624512_LOD00_0.png"
    },
    {
      "uri": "20525362525140624512_LOD00_1.png"
    }
  ],
  "materials": [
    {
      "doubleSided": true,
      "pbrMetallicRoughness": {
        "baseColorTexture": {
          "index": 0
        },
        "metallicFactor": 0
      }
    },
    {
      "doubleSided": true,
      "pbrMetallicRoughness": {
        "baseColorTexture": {
          "index": 1
        },
        "metallicFactor": 0
      }
    }
  ],
  "meshes": [
    {
      "name": "20525362525140624512_0",
      "primitives": [
        {
          "attributes": {
            "POSITION": 0,
            "NORMAL": 1,
            "TEXCOORD_0": 2
          },
          "indices": 3,
          "material": 0
        }
      ]
    },
    {
      "name": "20525362525140624512_1",
      "primitives": [
        {
          "attributes": {
            "POSITION": 4,
            "NORMAL": 5,
            "TEXCOORD_0": 6
          },
          "indices": 7,
          "material": 1
        }
      ]
    }
  ],
  "nodes": [
    {
      "mesh": 0
    },
    {
      "mesh": 1
    }
  ],
  "scene": 0,
  "scenes": [
    {
      "nodes": [
        0,
        1
      ]
    }
  ],
  "textures": [
    {
      "source": 0
    },
    {
      "source": 1
    }
  ]
}