{
  "asset": {
    "copyright": "",
    "generator": "SharpGLTF 1.0.0",
    "version": "2.0"
  },
  "accessors": [
    {
      "name": "POSITION",
      "bufferView": 0,
      "componentType": 5126,
      "count": 3896,
      "max": [
        -324.09341430664063,
        51.416172027587891,
        115.12876129150391
      ],
      "min": [
        -356.67404174804688,
        37.360363006591797,
        76.434654235839844
      ],
      "type": "VEC3"
    },
    {
      "name": "NORMAL",
      "bufferView": 0,
      "byteOffset": 12,
      "componentType": 5126,
      "count": 3896,
      "max": [
        0.99999243021011353,
        0.99998462200164795,
        0.99999219179153442
      ],
      "min": [
        -0.99999195337295532,
        -0.84769409894943237,
        -0.9999922513961792
      ],
      "type": "VEC3"
    },
    {
      "name": "TEXCOORD_0",
      "bufferView": 0,
      "byteOffset": 24,
      "componentType": 5126,
      "count": 3896,
      "max": [
        0.998046875,
        0.9990234375
      ],
      "min": [
        0.001953125,
        0.0009765625
      ],
      "type": "VEC2"
    },
    {
      "bufferView": 1,
      "componentType": 5123,
      "count": 9588,
      "type": "SCALAR"
    },
    {
      "name": "POSITION",
      "bufferView": 0,
      "byteOffset": 124672,
      "componentType": 5126,
      "count": 1139,
      "max": [
        -324.556396484375,
        51.261665344238281,
        115.59122467041016
      ],
      "min": [
        -356.67401123046875,
        37.360080718994141,
        76.897041320800781
      ],
      "type": "VEC3"
    },
    {
      "name": "NORMAL",
      "bufferView": 0,
      "byteOffset": 124684,
      "componentType": 5126,
      "count": 1139,
      "max": [
        0.99999243021011353,
        0.99998462200164795,
        0.99999219179153442
      ],
      "min": [
        -0.99898213148117065,
        -0.65534764528274536,
        -0.99931424856185913
      ],
      "type": "VEC3"
    },
    {
      "name": "TEXCOORD_0",
      "bufferView": 0,
      "byteOffset": 124696,
      "componentType": 5126,
      "count": 1139,
      "max": [
        0.998046875,
        0.998046875
      ],
      "min": [
        0.001953125,
        0.599609375
      ],
      "type": "VEC2"
    },
    {
      "bufferView": 1,
      "byteOffset": 19176,
      "componentType": 5123,
      "count": 2841,
      "type": "SCALAR"
    }
  ],
  "bufferViews": [
    {
      "buffer": 0,
      "byteLength": 161120,
      "byteStride": 32,
      "target": 34962
    },
    {
      "buffer": 0,
      "byteLength": 24858,
      "byteOffset": 161120,
      "target": 34963
    }
  ],
  "buffers": [
    {
      "byteLength": 185980,
      "uri": "20525362525051735066_LOD00.bin"
    }
  ],
  "images": [
    {
      "uri": "20525362525051735066_LOD00_0.png"
    },
    {
      "uri": "20525362525051735066_LOD00_1.png"
    }
  ],
  "materials": [
    {
      "doubleSided": true,
      "pbrMetallicRoughness": {
        "baseColorTexture": {
          "index": 0
        },
        "metallicFactor": 0
      }
    },
    {
      "doubleSided": true,
      "pbrMetallicRoughness": {
        "baseColorTexture": {
          "index": 1
        },
        "metallicFactor": 0
      }
    }
  ],
  "meshes": [
    {
      "name": "20525362525051735066_0",
      "primitives": [
        {
          "attributes": {
            "POSITION": 0,
            "NORMAL": 1,
            "TEXCOORD_0": 2
          },
          "indices": 3,
          "material": 0
        }
      ]
    },
    {
      "name": "20525362525051735066_1",
      "primitives": [
        {
          "attributes": {
            "POSITION": 4,
            "NORMAL": 5,
            "TEXCOORD_0": 6
          },
          "indices": 7,
          "material": 1
        }
      ]
    }
  ],
  "nodes": [
    {
      "mesh": 0
    },
    {
      "mesh": 1
    }
  ],
  "scene": 0,
  "scenes": [
    {
      "nodes": [
        0,
        1
      ]
    }
  ],
  "textures": [
    {
      "source": 0
    },
    {
      "source": 1
    }
  ]
}