{
  "asset": {
    "copyright": "",
    "generator": "SharpGLTF 1.0.0",
    "version": "2.0"
  },
  "accessors": [
    {
      "name": "POSITION",
      "bufferView": 0,
      "componentType": 5126,
      "count": 1397,
      "max": [
        -613.4422607421875,
        110.68386077880859,
        497.29605102539063
      ],
      "min": [
        -631.660400390625,
        74.225082397460938,
        470.93374633789063
      ],
      "type": "VEC3"
    },
    {
      "name": "NORMAL",
      "bufferView": 0,
      "byteOffset": 12,
      "componentType": 5126,
      "count": 1397,
      "max": [
        0.99999266862869263,
        0.99998515844345093,
        0.99999183416366577
      ],
      "min": [
        -0.99999189376831055,
        -1,
        -0.99999243021011353
      ],
      "type": "VEC3"
    },
    {
      "name": "TEXCOORD_0",
      "bufferView": 0,
      "byteOffset": 24,
      "componentType": 5126,
      "count": 1397,
      "max": [
        0.998046875,
        0.9990234375
      ],
      "min": [
        0.001953125,
        0.0009765625
      ],
      "type": "VEC2"
    },
    {
      "bufferView": 1,
      "componentType": 5123,
      "count": 2814,
      "type": "SCALAR"
    },
    {
      "name": "POSITION",
      "bufferView": 0,
      "byteOffset": 44704,
      "componentType": 5126,
      "count": 91,
      "max": [
        -616.06903076171875,
        109.60245513916016,
        490.20501708984375
      ],
      "min": [
        -626.41473388671875,
        106.97581481933594,
        478.18081665039063
      ],
      "type": "VEC3"
    },
    {
      "name": "NORMAL",
      "bufferView": 0,
      "byteOffset": 44716,
      "componentType": 5126,
      "count": 91,
      "max": [
        0.99999266862869263,
        0.99998444318771362,
        0.99999183416366577
      ],
      "min": [
        -0.99999189376831055,
        -0.0055908798240125179,
        -0.99999243021011353
      ],
      "type": "VEC3"
    },
    {
      "name": "TEXCOORD_0",
      "bufferView": 0,
      "byteOffset": 44728,
      "componentType": 5126,
      "count": 91,
      "max": [
        0.626953125,
        0.998046875
      ],
      "min": [
        0.001953125,
        0.962890625
      ],
      "type": "VEC2"
    },
    {
      "bufferView": 1,
      "byteOffset": 5628,
      "componentType": 5123,
      "count": 141,
      "type": "SCALAR"
    }
  ],
  "bufferViews": [
    {
      "buffer": 0,
      "byteLength": 47616,
      "byteStride": 32,
      "target": 34962
    },
    {
      "buffer": 0,
      "byteLength": 5910,
      "byteOffset": 47616,
      "target": 34963
    }
  ],
  "buffers": [
    {
      "byteLength": 53528,
      "uri": "20525362525140626603_LOD00.bin"
    }
  ],
  "images": [
    {
      "uri": "20525362525140626603_LOD00_0.png"
    },
    {
      "uri": "20525362525140626603_LOD00_1.png"
    }
  ],
  "materials": [
    {
      "doubleSided": true,
      "pbrMetallicRoughness": {
        "baseColorTexture": {
          "index": 0
        },
        "metallicFactor": 0
      }
    },
    {
      "doubleSided": true,
      "pbrMetallicRoughness": {
        "baseColorTexture": {
          "index": 1
        },
        "metallicFactor": 0
      }
    }
  ],
  "meshes": [
    {
      "name": "20525362525140626603_0",
      "primitives": [
        {
          "attributes": {
            "POSITION": 0,
            "NORMAL": 1,
            "TEXCOORD_0": 2
          },
          "indices": 3,
          "material": 0
        }
      ]
    },
    {
      "name": "20525362525140626603_1",
      "primitives": [
        {
          "attributes": {
            "POSITION": 4,
            "NORMAL": 5,
            "TEXCOORD_0": 6
          },
          "indices": 7,
          "material": 1
        }
      ]
    }
  ],
  "nodes": [
    {
      "mesh": 0
    },
    {
      "mesh": 1
    }
  ],
  "scene": 0,
  "scenes": [
    {
      "nodes": [
        0,
        1
      ]
    }
  ],
  "textures": [
    {
      "source": 0
    },
    {
      "source": 1
    }
  ]
}