{
  "asset": {
    "copyright": "",
    "generator": "SharpGLTF 1.0.0",
    "version": "2.0"
  },
  "accessors": [
    {
      "name": "POSITION",
      "bufferView": 0,
      "componentType": 5126,
      "count": 147,
      "max": [
        -613.4354248046875,
        110.67606353759766,
        611.94390869140625
      ],
      "min": [
        -638.91448974609375,
        74.214767456054688,
        585.26995849609375
      ],
      "type": "VEC3"
    },
    {
      "name": "NORMAL",
      "bufferView": 0,
      "byteOffset": 12,
      "componentType": 5126,
      "count": 147,
      "max": [
        -6.1055674450471997E-05,
        -0.0038553948979824781,
        6.1273793107829988E-05
      ],
      "min": [
        -0.99999189376831055,
        -0.0055781286209821701,
        -0.99999254941940308
      ],
      "type": "VEC3"
    },
    {
      "name": "TEXCOORD_0",
      "bufferView": 0,
      "byteOffset": 24,
      "componentType": 5126,
      "count": 147,
      "max": [
        0.951171875,
        0.9990234375
      ],
      "min": [
        0.001953125,
        0.2958984375
      ],
      "type": "VEC2"
    },
    {
      "bufferView": 1,
      "componentType": 5123,
      "count": 465,
      "type": "SCALAR"
    }
  ],
  "bufferViews": [
    {
      "buffer": 0,
      "byteLength": 4704,
      "byteStride": 32,
      "target": 34962
    },
    {
      "buffer": 0,
      "byteLength": 930,
      "byteOffset": 4704,
      "target": 34963
    }
  ],
  "buffers": [
    {
      "byteLength": 5636,
      "uri": "20525362525142404401_LOD00.bin"
    }
  ],
  "images": [
    {
      "uri": "20525362525142404401_LOD00.png"
    }
  ],
  "materials": [
    {
      "doubleSided": true,
      "pbrMetallicRoughness": {
        "baseColorTexture": {
          "index": 0
        },
        "metallicFactor": 0
      }
    }
  ],
  "meshes": [
    {
      "name": "20525362525142404401_0",
      "primitives": [
        {
          "attributes": {
            "POSITION": 0,
            "NORMAL": 1,
            "TEXCOORD_0": 2
          },
          "indices": 3,
          "material": 0
        }
      ]
    }
  ],
  "nodes": [
    {
      "mesh": 0
    }
  ],
  "scene": 0,
  "scenes": [
    {
      "nodes": [
        0
      ]
    }
  ],
  "textures": [
    {
      "source": 0
    }
  ]
}