{
  "asset": {
    "copyright": "",
    "generator": "SharpGLTF 1.0.0",
    "version": "2.0"
  },
  "accessors": [
    {
      "name": "POSITION",
      "bufferView": 0,
      "componentType": 5126,
      "count": 6490,
      "max": [
        -35.651050567626953,
        74.266929626464844,
        573.70599365234375
      ],
      "min": [
        -68.229049682617188,
        37.807270050048828,
        535.318359375
      ],
      "type": "VEC3"
    },
    {
      "name": "NORMAL",
      "bufferView": 0,
      "byteOffset": 12,
      "componentType": 5126,
      "count": 6490,
      "max": [
        0.9999922513961792,
        0.99998480081558228,
        0.9989774227142334
      ],
      "min": [
        -0.99999219179153442,
        -1,
        -0.99999254941940308
      ],
      "type": "VEC3"
    },
    {
      "name": "TEXCOORD_0",
      "bufferView": 0,
      "byteOffset": 24,
      "componentType": 5126,
      "count": 6490,
      "max": [
        0.9990234375,
        0.9990234375
      ],
      "min": [
        0.0009765625,
        0.0009765625
      ],
      "type": "VEC2"
    },
    {
      "bufferView": 1,
      "componentType": 5123,
      "count": 16359,
      "type": "SCALAR"
    },
    {
      "name": "POSITION",
      "bufferView": 0,
      "byteOffset": 207680,
      "componentType": 5126,
      "count": 572,
      "max": [
        -37.503959655761719,
        74.26666259765625,
        573.7041015625
      ],
      "min": [
        -67.765838623046875,
        38.273406982421875,
        537.47637939453125
      ],
      "type": "VEC3"
    },
    {
      "name": "NORMAL",
      "bufferView": 0,
      "byteOffset": 207692,
      "componentType": 5126,
      "count": 572,
      "max": [
        0.99915564060211182,
        0.99998480081558228,
        0.9989774227142334
      ],
      "min": [
        -0.99999219179153442,
        -1,
        -0.99486356973648071
      ],
      "type": "VEC3"
    },
    {
      "name": "TEXCOORD_0",
      "bufferView": 0,
      "byteOffset": 207704,
      "componentType": 5126,
      "count": 572,
      "max": [
        0.998046875,
        0.998046875
      ],
      "min": [
        0.001953125,
        0.744140625
      ],
      "type": "VEC2"
    },
    {
      "bufferView": 1,
      "byteOffset": 32718,
      "componentType": 5123,
      "count": 1242,
      "type": "SCALAR"
    }
  ],
  "bufferViews": [
    {
      "buffer": 0,
      "byteLength": 225984,
      "byteStride": 32,
      "target": 34962
    },
    {
      "buffer": 0,
      "byteLength": 35202,
      "byteOffset": 225984,
      "target": 34963
    }
  ],
  "buffers": [
    {
      "byteLength": 261188,
      "uri": "20525362525051727377_LOD00.bin"
    }
  ],
  "images": [
    {
      "uri": "20525362525051727377_LOD00_0.png"
    },
    {
      "uri": "20525362525051727377_LOD00_1.png"
    }
  ],
  "materials": [
    {
      "doubleSided": true,
      "pbrMetallicRoughness": {
        "baseColorTexture": {
          "index": 0
        },
        "metallicFactor": 0
      }
    },
    {
      "doubleSided": true,
      "pbrMetallicRoughness": {
        "baseColorTexture": {
          "index": 1
        },
        "metallicFactor": 0
      }
    }
  ],
  "meshes": [
    {
      "name": "20525362525051727377_0",
      "primitives": [
        {
          "attributes": {
            "POSITION": 0,
            "NORMAL": 1,
            "TEXCOORD_0": 2
          },
          "indices": 3,
          "material": 0
        }
      ]
    },
    {
      "name": "20525362525051727377_1",
      "primitives": [
        {
          "attributes": {
            "POSITION": 4,
            "NORMAL": 5,
            "TEXCOORD_0": 6
          },
          "indices": 7,
          "material": 1
        }
      ]
    }
  ],
  "nodes": [
    {
      "mesh": 0
    },
    {
      "mesh": 1
    }
  ],
  "scene": 0,
  "scenes": [
    {
      "nodes": [
        0,
        1
      ]
    }
  ],
  "textures": [
    {
      "source": 0
    },
    {
      "source": 1
    }
  ]
}