{
  "asset": {
    "copyright": "",
    "generator": "SharpGLTF 1.0.0",
    "version": "2.0"
  },
  "accessors": [
    {
      "name": "POSITION",
      "bufferView": 0,
      "componentType": 5126,
      "count": 3738,
      "max": [
        -260.03765869140625,
        71.635871887207031,
        535.49420166015625
      ],
      "min": [
        -292.46127319335938,
        40.742507934570313,
        497.2613525390625
      ],
      "type": "VEC3"
    },
    {
      "name": "NORMAL",
      "bufferView": 0,
      "byteOffset": 12,
      "componentType": 5126,
      "count": 3738,
      "max": [
        0.99999243021011353,
        0.99998486042022705,
        0.99999195337295532
      ],
      "min": [
        -0.99915426969528198,
        -0.99917465448379517,
        -0.99999254941940308
      ],
      "type": "VEC3"
    },
    {
      "name": "TEXCOORD_0",
      "bufferView": 0,
      "byteOffset": 24,
      "componentType": 5126,
      "count": 3738,
      "max": [
        0.998046875,
        0.9990234375
      ],
      "min": [
        0.001953125,
        0.0009765625
      ],
      "type": "VEC2"
    },
    {
      "bufferView": 1,
      "componentType": 5123,
      "count": 9204,
      "type": "SCALAR"
    },
    {
      "name": "POSITION",
      "bufferView": 0,
      "byteOffset": 119616,
      "componentType": 5126,
      "count": 2146,
      "max": [
        -260.34536743164063,
        71.635955810546875,
        535.4932861328125
      ],
      "min": [
        -292.46124267578125,
        40.742462158203125,
        497.26141357421875
      ],
      "type": "VEC3"
    },
    {
      "name": "NORMAL",
      "bufferView": 0,
      "byteOffset": 119628,
      "componentType": 5126,
      "count": 2146,
      "max": [
        0.99999243021011353,
        0.99998486042022705,
        0.99931758642196655
      ],
      "min": [
        -0.99915635585784912,
        -0.98936045169830322,
        -0.99999254941940308
      ],
      "type": "VEC3"
    },
    {
      "name": "TEXCOORD_0",
      "bufferView": 0,
      "byteOffset": 119640,
      "componentType": 5126,
      "count": 2146,
      "max": [
        0.998046875,
        0.998046875
      ],
      "min": [
        0.001953125,
        0.103515625
      ],
      "type": "VEC2"
    },
    {
      "bufferView": 1,
      "byteOffset": 18408,
      "componentType": 5123,
      "count": 5277,
      "type": "SCALAR"
    }
  ],
  "bufferViews": [
    {
      "buffer": 0,
      "byteLength": 188288,
      "byteStride": 32,
      "target": 34962
    },
    {
      "buffer": 0,
      "byteLength": 28962,
      "byteOffset": 188288,
      "target": 34963
    }
  ],
  "buffers": [
    {
      "byteLength": 217252,
      "uri": "20525362525051736374_LOD00.bin"
    }
  ],
  "images": [
    {
      "uri": "20525362525051736374_LOD00_0.png"
    },
    {
      "uri": "20525362525051736374_LOD00_1.png"
    }
  ],
  "materials": [
    {
      "doubleSided": true,
      "pbrMetallicRoughness": {
        "baseColorTexture": {
          "index": 0
        },
        "metallicFactor": 0
      }
    },
    {
      "doubleSided": true,
      "pbrMetallicRoughness": {
        "baseColorTexture": {
          "index": 1
        },
        "metallicFactor": 0
      }
    }
  ],
  "meshes": [
    {
      "name": "20525362525051736374_0",
      "primitives": [
        {
          "attributes": {
            "POSITION": 0,
            "NORMAL": 1,
            "TEXCOORD_0": 2
          },
          "indices": 3,
          "material": 0
        }
      ]
    },
    {
      "name": "20525362525051736374_1",
      "primitives": [
        {
          "attributes": {
            "POSITION": 4,
            "NORMAL": 5,
            "TEXCOORD_0": 6
          },
          "indices": 7,
          "material": 1
        }
      ]
    }
  ],
  "nodes": [
    {
      "mesh": 0
    },
    {
      "mesh": 1
    }
  ],
  "scene": 0,
  "scenes": [
    {
      "nodes": [
        0,
        1
      ]
    }
  ],
  "textures": [
    {
      "source": 0
    },
    {
      "source": 1
    }
  ]
}