{
  "asset": {
    "copyright": "",
    "generator": "SharpGLTF 1.0.0",
    "version": "2.0"
  },
  "accessors": [
    {
      "name": "POSITION",
      "bufferView": 0,
      "componentType": 5126,
      "count": 6579,
      "max": [
        -773.9658203125,
        74.243087768554688,
        77.090896606445313
      ],
      "min": [
        -806.08758544921875,
        37.782733917236328,
        38.553985595703125
      ],
      "type": "VEC3"
    },
    {
      "name": "NORMAL",
      "bufferView": 0,
      "byteOffset": 12,
      "componentType": 5126,
      "count": 6579,
      "max": [
        0.99999266862869263,
        0.99998486042022705,
        0.99999219179153442
      ],
      "min": [
        -0.999991774559021,
        -1,
        -0.9999922513961792
      ],
      "type": "VEC3"
    },
    {
      "name": "TEXCOORD_0",
      "bufferView": 0,
      "byteOffset": 24,
      "componentType": 5126,
      "count": 6579,
      "max": [
        0.9990234375,
        0.9990234375
      ],
      "min": [
        0.0009765625,
        0.0009765625
      ],
      "type": "VEC2"
    },
    {
      "bufferView": 1,
      "componentType": 5123,
      "count": 15792,
      "type": "SCALAR"
    },
    {
      "name": "POSITION",
      "bufferView": 0,
      "byteOffset": 210528,
      "componentType": 5126,
      "count": 715,
      "max": [
        -773.96728515625,
        56.012825012207031,
        76.939315795898438
      ],
      "min": [
        -806.08465576171875,
        40.410263061523438,
        38.86236572265625
      ],
      "type": "VEC3"
    },
    {
      "name": "NORMAL",
      "bufferView": 0,
      "byteOffset": 210540,
      "componentType": 5126,
      "count": 715,
      "max": [
        0.99931293725967407,
        0.99998486042022705,
        0.99598008394241333
      ],
      "min": [
        -0.99674493074417114,
        -0.99917382001876831,
        -0.9991532564163208
      ],
      "type": "VEC3"
    },
    {
      "name": "TEXCOORD_0",
      "bufferView": 0,
      "byteOffset": 210552,
      "componentType": 5126,
      "count": 715,
      "max": [
        0.998046875,
        0.998046875
      ],
      "min": [
        0.001953125,
        0.744140625
      ],
      "type": "VEC2"
    },
    {
      "bufferView": 1,
      "byteOffset": 31584,
      "componentType": 5123,
      "count": 1515,
      "type": "SCALAR"
    }
  ],
  "bufferViews": [
    {
      "buffer": 0,
      "byteLength": 233408,
      "byteStride": 32,
      "target": 34962
    },
    {
      "buffer": 0,
      "byteLength": 34614,
      "byteOffset": 233408,
      "target": 34963
    }
  ],
  "buffers": [
    {
      "byteLength": 268024,
      "uri": "20525362525140624174_LOD00.bin"
    }
  ],
  "images": [
    {
      "uri": "20525362525140624174_LOD00_0.png"
    },
    {
      "uri": "20525362525140624174_LOD00_1.png"
    }
  ],
  "materials": [
    {
      "doubleSided": true,
      "pbrMetallicRoughness": {
        "baseColorTexture": {
          "index": 0
        },
        "metallicFactor": 0
      }
    },
    {
      "doubleSided": true,
      "pbrMetallicRoughness": {
        "baseColorTexture": {
          "index": 1
        },
        "metallicFactor": 0
      }
    }
  ],
  "meshes": [
    {
      "name": "20525362525140624174_0",
      "primitives": [
        {
          "attributes": {
            "POSITION": 0,
            "NORMAL": 1,
            "TEXCOORD_0": 2
          },
          "indices": 3,
          "material": 0
        }
      ]
    },
    {
      "name": "20525362525140624174_1",
      "primitives": [
        {
          "attributes": {
            "POSITION": 4,
            "NORMAL": 5,
            "TEXCOORD_0": 6
          },
          "indices": 7,
          "material": 1
        }
      ]
    }
  ],
  "nodes": [
    {
      "mesh": 0
    },
    {
      "mesh": 1
    }
  ],
  "scene": 0,
  "scenes": [
    {
      "nodes": [
        0,
        1
      ]
    }
  ],
  "textures": [
    {
      "source": 0
    },
    {
      "source": 1
    }
  ]
}