{
  "asset": {
    "copyright": "",
    "generator": "SharpGLTF 1.0.0",
    "version": "2.0"
  },
  "accessors": [
    {
      "name": "POSITION",
      "bufferView": 0,
      "componentType": 5126,
      "count": 4146,
      "max": [
        -805.57696533203125,
        62.636814117431641,
        459.09320068359375
      ],
      "min": [
        -838.31024169921875,
        47.501102447509766,
        420.39675903320313
      ],
      "type": "VEC3"
    },
    {
      "name": "NORMAL",
      "bufferView": 0,
      "byteOffset": 12,
      "componentType": 5126,
      "count": 4146,
      "max": [
        0.99999278783798218,
        0.99998509883880615,
        0.99931758642196655
      ],
      "min": [
        -0.999991774559021,
        -1,
        -0.99931275844573975
      ],
      "type": "VEC3"
    },
    {
      "name": "TEXCOORD_0",
      "bufferView": 0,
      "byteOffset": 24,
      "componentType": 5126,
      "count": 4146,
      "max": [
        0.998046875,
        0.9990234375
      ],
      "min": [
        0.001953125,
        0.0009765625
      ],
      "type": "VEC2"
    },
    {
      "bufferView": 1,
      "componentType": 5123,
      "count": 10515,
      "type": "SCALAR"
    },
    {
      "name": "POSITION",
      "bufferView": 0,
      "byteOffset": 132672,
      "componentType": 5126,
      "count": 772,
      "max": [
        -806.0386962890625,
        62.482723236083984,
        459.09262084960938
      ],
      "min": [
        -838.00152587890625,
        48.271320343017578,
        421.47885131835938
      ],
      "type": "VEC3"
    },
    {
      "name": "NORMAL",
      "bufferView": 0,
      "byteOffset": 132684,
      "componentType": 5126,
      "count": 772,
      "max": [
        0.99999278783798218,
        0.99998509883880615,
        0.98334944248199463
      ],
      "min": [
        -0.999991774559021,
        -1,
        -0.98287326097488403
      ],
      "type": "VEC3"
    },
    {
      "name": "TEXCOORD_0",
      "bufferView": 0,
      "byteOffset": 132696,
      "componentType": 5126,
      "count": 772,
      "max": [
        0.998046875,
        0.998046875
      ],
      "min": [
        0.001953125,
        0.728515625
      ],
      "type": "VEC2"
    },
    {
      "bufferView": 1,
      "byteOffset": 21030,
      "componentType": 5123,
      "count": 1809,
      "type": "SCALAR"
    }
  ],
  "bufferViews": [
    {
      "buffer": 0,
      "byteLength": 157376,
      "byteStride": 32,
      "target": 34962
    },
    {
      "buffer": 0,
      "byteLength": 24648,
      "byteOffset": 157376,
      "target": 34963
    }
  ],
  "buffers": [
    {
      "byteLength": 182024,
      "uri": "20525362525140626355_LOD00.bin"
    }
  ],
  "images": [
    {
      "uri": "20525362525140626355_LOD00_0.png"
    },
    {
      "uri": "20525362525140626355_LOD00_1.png"
    }
  ],
  "materials": [
    {
      "doubleSided": true,
      "pbrMetallicRoughness": {
        "baseColorTexture": {
          "index": 0
        },
        "metallicFactor": 0
      }
    },
    {
      "doubleSided": true,
      "pbrMetallicRoughness": {
        "baseColorTexture": {
          "index": 1
        },
        "metallicFactor": 0
      }
    }
  ],
  "meshes": [
    {
      "name": "20525362525140626355_0",
      "primitives": [
        {
          "attributes": {
            "POSITION": 0,
            "NORMAL": 1,
            "TEXCOORD_0": 2
          },
          "indices": 3,
          "material": 0
        }
      ]
    },
    {
      "name": "20525362525140626355_1",
      "primitives": [
        {
          "attributes": {
            "POSITION": 4,
            "NORMAL": 5,
            "TEXCOORD_0": 6
          },
          "indices": 7,
          "material": 1
        }
      ]
    }
  ],
  "nodes": [
    {
      "mesh": 0
    },
    {
      "mesh": 1
    }
  ],
  "scene": 0,
  "scenes": [
    {
      "nodes": [
        0,
        1
      ]
    }
  ],
  "textures": [
    {
      "source": 0
    },
    {
      "source": 1
    }
  ]
}