{
  "asset": {
    "copyright": "",
    "generator": "SharpGLTF 1.0.0",
    "version": "2.0"
  },
  "accessors": [
    {
      "name": "POSITION",
      "bufferView": 0,
      "componentType": 5126,
      "count": 3046,
      "max": [
        -67.288368225097656,
        74.284072875976563,
        267.984375
      ],
      "min": [
        -100.33083343505859,
        37.826530456542969,
        229.29086303710938
      ],
      "type": "VEC3"
    },
    {
      "name": "NORMAL",
      "bufferView": 0,
      "byteOffset": 12,
      "componentType": 5126,
      "count": 3046,
      "max": [
        0.99999231100082397,
        0.99998456239700317,
        0.99999207258224487
      ],
      "min": [
        -0.99999219179153442,
        -0.99917292594909668,
        -0.99999237060546875
      ],
      "type": "VEC3"
    },
    {
      "name": "TEXCOORD_0",
      "bufferView": 0,
      "byteOffset": 24,
      "componentType": 5126,
      "count": 3046,
      "max": [
        0.998046875,
        0.9990234375
      ],
      "min": [
        0.001953125,
        0.0009765625
      ],
      "type": "VEC2"
    },
    {
      "bufferView": 1,
      "componentType": 5123,
      "count": 7770,
      "type": "SCALAR"
    },
    {
      "name": "POSITION",
      "bufferView": 0,
      "byteOffset": 97472,
      "componentType": 5126,
      "count": 1993,
      "max": [
        -67.597198486328125,
        74.283790588378906,
        267.98452758789063
      ],
      "min": [
        -100.17641448974609,
        37.671821594238281,
        229.75242614746094
      ],
      "type": "VEC3"
    },
    {
      "name": "NORMAL",
      "bufferView": 0,
      "byteOffset": 97484,
      "componentType": 5126,
      "count": 1993,
      "max": [
        0.99999231100082397,
        0.99998456239700317,
        0.99999207258224487
      ],
      "min": [
        -0.99999219179153442,
        -0.98939043283462524,
        -0.99999237060546875
      ],
      "type": "VEC3"
    },
    {
      "name": "TEXCOORD_0",
      "bufferView": 0,
      "byteOffset": 97496,
      "componentType": 5126,
      "count": 1993,
      "max": [
        0.998046875,
        0.998046875
      ],
      "min": [
        0.001953125,
        0.025390625
      ],
      "type": "VEC2"
    },
    {
      "bufferView": 1,
      "byteOffset": 15540,
      "componentType": 5123,
      "count": 5436,
      "type": "SCALAR"
    }
  ],
  "bufferViews": [
    {
      "buffer": 0,
      "byteLength": 161248,
      "byteStride": 32,
      "target": 34962
    },
    {
      "buffer": 0,
      "byteLength": 26412,
      "byteOffset": 161248,
      "target": 34963
    }
  ],
  "buffers": [
    {
      "byteLength": 187660,
      "uri": "20525362525051734266_LOD00.bin"
    }
  ],
  "images": [
    {
      "uri": "20525362525051734266_LOD00_0.png"
    },
    {
      "uri": "20525362525051734266_LOD00_1.png"
    }
  ],
  "materials": [
    {
      "doubleSided": true,
      "pbrMetallicRoughness": {
        "baseColorTexture": {
          "index": 0
        },
        "metallicFactor": 0
      }
    },
    {
      "doubleSided": true,
      "pbrMetallicRoughness": {
        "baseColorTexture": {
          "index": 1
        },
        "metallicFactor": 0
      }
    }
  ],
  "meshes": [
    {
      "name": "20525362525051734266_0",
      "primitives": [
        {
          "attributes": {
            "POSITION": 0,
            "NORMAL": 1,
            "TEXCOORD_0": 2
          },
          "indices": 3,
          "material": 0
        }
      ]
    },
    {
      "name": "20525362525051734266_1",
      "primitives": [
        {
          "attributes": {
            "POSITION": 4,
            "NORMAL": 5,
            "TEXCOORD_0": 6
          },
          "indices": 7,
          "material": 1
        }
      ]
    }
  ],
  "nodes": [
    {
      "mesh": 0
    },
    {
      "mesh": 1
    }
  ],
  "scene": 0,
  "scenes": [
    {
      "nodes": [
        0,
        1
      ]
    }
  ],
  "textures": [
    {
      "source": 0
    },
    {
      "source": 1
    }
  ]
}