{
  "asset": {
    "copyright": "",
    "generator": "SharpGLTF 1.0.0",
    "version": "2.0"
  },
  "accessors": [
    {
      "name": "POSITION",
      "bufferView": 0,
      "componentType": 5126,
      "count": 4718,
      "max": [
        -324.0924072265625,
        51.878818511962891,
        153.49801635742188
      ],
      "min": [
        -357.13552856445313,
        37.357749938964844,
        115.11204528808594
      ],
      "type": "VEC3"
    },
    {
      "name": "NORMAL",
      "bufferView": 0,
      "byteOffset": 12,
      "componentType": 5126,
      "count": 4718,
      "max": [
        0.9999924898147583,
        0.99998462200164795,
        0.99999213218688965
      ],
      "min": [
        -0.99999207258224487,
        -0.99917089939117432,
        -0.99898195266723633
      ],
      "type": "VEC3"
    },
    {
      "name": "TEXCOORD_0",
      "bufferView": 0,
      "byteOffset": 24,
      "componentType": 5126,
      "count": 4718,
      "max": [
        0.998046875,
        0.9990234375
      ],
      "min": [
        0.001953125,
        0.0009765625
      ],
      "type": "VEC2"
    },
    {
      "bufferView": 1,
      "componentType": 5123,
      "count": 11706,
      "type": "SCALAR"
    },
    {
      "name": "POSITION",
      "bufferView": 0,
      "byteOffset": 150976,
      "componentType": 5126,
      "count": 288,
      "max": [
        -324.5557861328125,
        48.016899108886719,
        153.34373474121094
      ],
      "min": [
        -357.13412475585938,
        37.357589721679688,
        115.11304473876953
      ],
      "type": "VEC3"
    },
    {
      "name": "NORMAL",
      "bufferView": 0,
      "byteOffset": 150988,
      "componentType": 5126,
      "count": 288,
      "max": [
        0.99898666143417358,
        0.99998462200164795,
        0.99483275413513184
      ],
      "min": [
        -0.99637240171432495,
        -0.67365360260009766,
        -0.99486309289932251
      ],
      "type": "VEC3"
    },
    {
      "name": "TEXCOORD_0",
      "bufferView": 0,
      "byteOffset": 151000,
      "componentType": 5126,
      "count": 288,
      "max": [
        0.998046875,
        0.998046875
      ],
      "min": [
        0.001953125,
        0.923828125
      ],
      "type": "VEC2"
    },
    {
      "bufferView": 1,
      "byteOffset": 23412,
      "componentType": 5123,
      "count": 642,
      "type": "SCALAR"
    }
  ],
  "bufferViews": [
    {
      "buffer": 0,
      "byteLength": 160192,
      "byteStride": 32,
      "target": 34962
    },
    {
      "buffer": 0,
      "byteLength": 24696,
      "byteOffset": 160192,
      "target": 34963
    }
  ],
  "buffers": [
    {
      "byteLength": 184888,
      "uri": "20525362525051735244_LOD00.bin"
    }
  ],
  "images": [
    {
      "uri": "20525362525051735244_LOD00_0.png"
    },
    {
      "uri": "20525362525051735244_LOD00_1.png"
    }
  ],
  "materials": [
    {
      "doubleSided": true,
      "pbrMetallicRoughness": {
        "baseColorTexture": {
          "index": 0
        },
        "metallicFactor": 0
      }
    },
    {
      "doubleSided": true,
      "pbrMetallicRoughness": {
        "baseColorTexture": {
          "index": 1
        },
        "metallicFactor": 0
      }
    }
  ],
  "meshes": [
    {
      "name": "20525362525051735244_0",
      "primitives": [
        {
          "attributes": {
            "POSITION": 0,
            "NORMAL": 1,
            "TEXCOORD_0": 2
          },
          "indices": 3,
          "material": 0
        }
      ]
    },
    {
      "name": "20525362525051735244_1",
      "primitives": [
        {
          "attributes": {
            "POSITION": 4,
            "NORMAL": 5,
            "TEXCOORD_0": 6
          },
          "indices": 7,
          "material": 1
        }
      ]
    }
  ],
  "nodes": [
    {
      "mesh": 0
    },
    {
      "mesh": 1
    }
  ],
  "scene": 0,
  "scenes": [
    {
      "nodes": [
        0,
        1
      ]
    }
  ],
  "textures": [
    {
      "source": 0
    },
    {
      "source": 1
    }
  ]
}