{
  "asset": {
    "copyright": "",
    "generator": "SharpGLTF 1.0.0",
    "version": "2.0"
  },
  "accessors": [
    {
      "name": "POSITION",
      "bufferView": 0,
      "componentType": 5126,
      "count": 4479,
      "max": [
        -131.94931030273438,
        56.198772430419922,
        459.05987548828125
      ],
      "min": [
        -164.21888732910156,
        37.351940155029297,
        420.82791137695313
      ],
      "type": "VEC3"
    },
    {
      "name": "NORMAL",
      "bufferView": 0,
      "byteOffset": 12,
      "componentType": 5126,
      "count": 4479,
      "max": [
        0.99999231100082397,
        0.9999847412109375,
        0.99999195337295532
      ],
      "min": [
        -0.99999219179153442,
        -1,
        -0.9999924898147583
      ],
      "type": "VEC3"
    },
    {
      "name": "TEXCOORD_0",
      "bufferView": 0,
      "byteOffset": 24,
      "componentType": 5126,
      "count": 4479,
      "max": [
        0.9990234375,
        0.9990234375
      ],
      "min": [
        0.0009765625,
        0.0009765625
      ],
      "type": "VEC2"
    },
    {
      "bufferView": 1,
      "componentType": 5123,
      "count": 10623,
      "type": "SCALAR"
    },
    {
      "name": "POSITION",
      "bufferView": 0,
      "byteOffset": 143328,
      "componentType": 5126,
      "count": 911,
      "max": [
        -131.94952392578125,
        54.345508575439453,
        459.05972290039063
      ],
      "min": [
        -164.06512451171875,
        37.814781188964844,
        420.82833862304688
      ],
      "type": "VEC3"
    },
    {
      "name": "NORMAL",
      "bufferView": 0,
      "byteOffset": 143340,
      "componentType": 5126,
      "count": 911,
      "max": [
        0.99999231100082397,
        0.9999847412109375,
        0.99999195337295532
      ],
      "min": [
        -0.99428534507751465,
        -0.99820238351821899,
        -0.9999924898147583
      ],
      "type": "VEC3"
    },
    {
      "name": "TEXCOORD_0",
      "bufferView": 0,
      "byteOffset": 143352,
      "componentType": 5126,
      "count": 911,
      "max": [
        0.998046875,
        0.998046875
      ],
      "min": [
        0.001953125,
        0.626953125
      ],
      "type": "VEC2"
    },
    {
      "bufferView": 1,
      "byteOffset": 21246,
      "componentType": 5123,
      "count": 2040,
      "type": "SCALAR"
    }
  ],
  "bufferViews": [
    {
      "buffer": 0,
      "byteLength": 172480,
      "byteStride": 32,
      "target": 34962
    },
    {
      "buffer": 0,
      "byteLength": 25326,
      "byteOffset": 172480,
      "target": 34963
    }
  ],
  "buffers": [
    {
      "byteLength": 197808,
      "uri": "20525362525051736254_LOD00.bin"
    }
  ],
  "images": [
    {
      "uri": "20525362525051736254_LOD00_0.png"
    },
    {
      "uri": "20525362525051736254_LOD00_1.png"
    }
  ],
  "materials": [
    {
      "doubleSided": true,
      "pbrMetallicRoughness": {
        "baseColorTexture": {
          "index": 0
        },
        "metallicFactor": 0
      }
    },
    {
      "doubleSided": true,
      "pbrMetallicRoughness": {
        "baseColorTexture": {
          "index": 1
        },
        "metallicFactor": 0
      }
    }
  ],
  "meshes": [
    {
      "name": "20525362525051736254_0",
      "primitives": [
        {
          "attributes": {
            "POSITION": 0,
            "NORMAL": 1,
            "TEXCOORD_0": 2
          },
          "indices": 3,
          "material": 0
        }
      ]
    },
    {
      "name": "20525362525051736254_1",
      "primitives": [
        {
          "attributes": {
            "POSITION": 4,
            "NORMAL": 5,
            "TEXCOORD_0": 6
          },
          "indices": 7,
          "material": 1
        }
      ]
    }
  ],
  "nodes": [
    {
      "mesh": 0
    },
    {
      "mesh": 1
    }
  ],
  "scene": 0,
  "scenes": [
    {
      "nodes": [
        0,
        1
      ]
    }
  ],
  "textures": [
    {
      "source": 0
    },
    {
      "source": 1
    }
  ]
}