{
  "asset": {
    "copyright": "",
    "generator": "SharpGLTF 1.0.0",
    "version": "2.0"
  },
  "accessors": [
    {
      "name": "POSITION",
      "bufferView": 0,
      "componentType": 5126,
      "count": 3854,
      "max": [
        -388.5927734375,
        58.510566711425781,
        382.94454956054688
      ],
      "min": [
        -421.01687622070313,
        40.438289642333984,
        344.25216674804688
      ],
      "type": "VEC3"
    },
    {
      "name": "NORMAL",
      "bufferView": 0,
      "byteOffset": 12,
      "componentType": 5126,
      "count": 3854,
      "max": [
        0.9999924898147583,
        0.99998486042022705,
        0.9999920129776001
      ],
      "min": [
        -0.99999195337295532,
        -0.99917370080947876,
        -0.99999243021011353
      ],
      "type": "VEC3"
    },
    {
      "name": "TEXCOORD_0",
      "bufferView": 0,
      "byteOffset": 24,
      "componentType": 5126,
      "count": 3854,
      "max": [
        0.998046875,
        0.9990234375
      ],
      "min": [
        0.001953125,
        0.0009765625
      ],
      "type": "VEC2"
    },
    {
      "bufferView": 1,
      "componentType": 5123,
      "count": 9489,
      "type": "SCALAR"
    },
    {
      "name": "POSITION",
      "bufferView": 0,
      "byteOffset": 123328,
      "componentType": 5126,
      "count": 1287,
      "max": [
        -388.74725341796875,
        56.502262115478516,
        382.63674926757813
      ],
      "min": [
        -420.86428833007813,
        40.747058868408203,
        344.40496826171875
      ],
      "type": "VEC3"
    },
    {
      "name": "NORMAL",
      "bufferView": 0,
      "byteOffset": 123340,
      "componentType": 5126,
      "count": 1287,
      "max": [
        0.9999924898147583,
        0.99998486042022705,
        0.9999920129776001
      ],
      "min": [
        -0.99915361404418945,
        -0.99917370080947876,
        -0.9981694221496582
      ],
      "type": "VEC3"
    },
    {
      "name": "TEXCOORD_0",
      "bufferView": 0,
      "byteOffset": 123352,
      "componentType": 5126,
      "count": 1287,
      "max": [
        0.998046875,
        0.998046875
      ],
      "min": [
        0.001953125,
        0.599609375
      ],
      "type": "VEC2"
    },
    {
      "bufferView": 1,
      "byteOffset": 18978,
      "componentType": 5123,
      "count": 3054,
      "type": "SCALAR"
    }
  ],
  "bufferViews": [
    {
      "buffer": 0,
      "byteLength": 164512,
      "byteStride": 32,
      "target": 34962
    },
    {
      "buffer": 0,
      "byteLength": 25086,
      "byteOffset": 164512,
      "target": 34963
    }
  ],
  "buffers": [
    {
      "byteLength": 189600,
      "uri": "20525362525051737074_LOD00.bin"
    }
  ],
  "images": [
    {
      "uri": "20525362525051737074_LOD00_0.png"
    },
    {
      "uri": "20525362525051737074_LOD00_1.png"
    }
  ],
  "materials": [
    {
      "doubleSided": true,
      "pbrMetallicRoughness": {
        "baseColorTexture": {
          "index": 0
        },
        "metallicFactor": 0
      }
    },
    {
      "doubleSided": true,
      "pbrMetallicRoughness": {
        "baseColorTexture": {
          "index": 1
        },
        "metallicFactor": 0
      }
    }
  ],
  "meshes": [
    {
      "name": "20525362525051737074_0",
      "primitives": [
        {
          "attributes": {
            "POSITION": 0,
            "NORMAL": 1,
            "TEXCOORD_0": 2
          },
          "indices": 3,
          "material": 0
        }
      ]
    },
    {
      "name": "20525362525051737074_1",
      "primitives": [
        {
          "attributes": {
            "POSITION": 4,
            "NORMAL": 5,
            "TEXCOORD_0": 6
          },
          "indices": 7,
          "material": 1
        }
      ]
    }
  ],
  "nodes": [
    {
      "mesh": 0
    },
    {
      "mesh": 1
    }
  ],
  "scene": 0,
  "scenes": [
    {
      "nodes": [
        0,
        1
      ]
    }
  ],
  "textures": [
    {
      "source": 0
    },
    {
      "source": 1
    }
  ]
}