{
  "asset": {
    "copyright": "",
    "generator": "SharpGLTF 1.0.0",
    "version": "2.0"
  },
  "accessors": [
    {
      "name": "POSITION",
      "bufferView": 0,
      "componentType": 5126,
      "count": 118,
      "max": [
        -577.959228515625,
        37.809642791748047,
        459.07357788085938
      ],
      "min": [
        -581.35760498046875,
        33.327850341796875,
        420.84286499023438
      ],
      "type": "VEC3"
    },
    {
      "name": "NORMAL",
      "bufferView": 0,
      "byteOffset": 12,
      "componentType": 5126,
      "count": 118,
      "max": [
        0.99999254941940308,
        0.036852240562438965,
        0.9999920129776001
      ],
      "min": [
        -0.99999189376831055,
        -1,
        -0.9993126392364502
      ],
      "type": "VEC3"
    },
    {
      "name": "TEXCOORD_0",
      "bufferView": 0,
      "byteOffset": 24,
      "componentType": 5126,
      "count": 118,
      "max": [
        0.900390625,
        0.998046875
      ],
      "min": [
        0.001953125,
        0.513671875
      ],
      "type": "VEC2"
    },
    {
      "bufferView": 1,
      "componentType": 5123,
      "count": 279,
      "type": "SCALAR"
    }
  ],
  "bufferViews": [
    {
      "buffer": 0,
      "byteLength": 3776,
      "byteStride": 32,
      "target": 34962
    },
    {
      "buffer": 0,
      "byteLength": 558,
      "byteOffset": 3776,
      "target": 34963
    }
  ],
  "buffers": [
    {
      "byteLength": 4336,
      "uri": "20525362525051737351_LOD00.bin"
    }
  ],
  "images": [
    {
      "uri": "20525362525051737351_LOD00.png"
    }
  ],
  "materials": [
    {
      "doubleSided": true,
      "pbrMetallicRoughness": {
        "baseColorTexture": {
          "index": 0
        },
        "metallicFactor": 0
      }
    }
  ],
  "meshes": [
    {
      "name": "20525362525051737351_0",
      "primitives": [
        {
          "attributes": {
            "POSITION": 0,
            "NORMAL": 1,
            "TEXCOORD_0": 2
          },
          "indices": 3,
          "material": 0
        }
      ]
    }
  ],
  "nodes": [
    {
      "mesh": 0
    }
  ],
  "scene": 0,
  "scenes": [
    {
      "nodes": [
        0
      ]
    }
  ],
  "textures": [
    {
      "source": 0
    }
  ]
}