{
  "asset": {
    "copyright": "",
    "generator": "SharpGLTF 1.0.0",
    "version": "2.0"
  },
  "accessors": [
    {
      "name": "POSITION",
      "bufferView": 0,
      "componentType": 5126,
      "count": 1988,
      "max": [
        -299.09384155273438,
        38.302017211914063,
        153.34251403808594
      ],
      "min": [
        -325.034423828125,
        35.059074401855469,
        114.95735931396484
      ],
      "type": "VEC3"
    },
    {
      "name": "NORMAL",
      "bufferView": 0,
      "byteOffset": 12,
      "componentType": 5126,
      "count": 1988,
      "max": [
        0.99931526184082031,
        0.99998462200164795,
        0.9904291033744812
      ],
      "min": [
        -0.99999207258224487,
        -0.94839054346084595,
        -0.97293174266815186
      ],
      "type": "VEC3"
    },
    {
      "name": "TEXCOORD_0",
      "bufferView": 0,
      "byteOffset": 24,
      "componentType": 5126,
      "count": 1988,
      "max": [
        0.998046875,
        0.998046875
      ],
      "min": [
        0.001953125,
        0.052734375
      ],
      "type": "VEC2"
    },
    {
      "bufferView": 1,
      "componentType": 5123,
      "count": 5070,
      "type": "SCALAR"
    }
  ],
  "bufferViews": [
    {
      "buffer": 0,
      "byteLength": 63616,
      "byteStride": 32,
      "target": 34962
    },
    {
      "buffer": 0,
      "byteLength": 10140,
      "byteOffset": 63616,
      "target": 34963
    }
  ],
  "buffers": [
    {
      "byteLength": 73756,
      "uri": "20525362525051734351_LOD00.bin"
    }
  ],
  "images": [
    {
      "uri": "20525362525051734351_LOD00.png"
    }
  ],
  "materials": [
    {
      "doubleSided": true,
      "pbrMetallicRoughness": {
        "baseColorTexture": {
          "index": 0
        },
        "metallicFactor": 0
      }
    }
  ],
  "meshes": [
    {
      "name": "20525362525051734351_0",
      "primitives": [
        {
          "attributes": {
            "POSITION": 0,
            "NORMAL": 1,
            "TEXCOORD_0": 2
          },
          "indices": 3,
          "material": 0
        }
      ]
    }
  ],
  "nodes": [
    {
      "mesh": 0
    }
  ],
  "scene": 0,
  "scenes": [
    {
      "nodes": [
        0
      ]
    }
  ],
  "textures": [
    {
      "source": 0
    }
  ]
}