{
  "asset": {
    "copyright": "",
    "generator": "SharpGLTF 1.0.0",
    "version": "2.0"
  },
  "accessors": [
    {
      "name": "POSITION",
      "bufferView": 0,
      "componentType": 5126,
      "count": 4303,
      "max": [
        -356.50225830078125,
        54.194961547851563,
        115.59122467041016
      ],
      "min": [
        -388.7738037109375,
        37.3565673828125,
        76.898216247558594
      ],
      "type": "VEC3"
    },
    {
      "name": "NORMAL",
      "bufferView": 0,
      "byteOffset": 12,
      "componentType": 5126,
      "count": 4303,
      "max": [
        0.99999243021011353,
        0.99998462200164795,
        0.99999219179153442
      ],
      "min": [
        -0.99999195337295532,
        -0.98491805791854858,
        -0.9999922513961792
      ],
      "type": "VEC3"
    },
    {
      "name": "TEXCOORD_0",
      "bufferView": 0,
      "byteOffset": 24,
      "componentType": 5126,
      "count": 4303,
      "max": [
        0.998046875,
        0.9990234375
      ],
      "min": [
        0.001953125,
        0.0009765625
      ],
      "type": "VEC2"
    },
    {
      "bufferView": 1,
      "componentType": 5123,
      "count": 10575,
      "type": "SCALAR"
    },
    {
      "name": "POSITION",
      "bufferView": 0,
      "byteOffset": 137696,
      "componentType": 5126,
      "count": 733,
      "max": [
        -356.65792846679688,
        52.650123596191406,
        115.12985229492188
      ],
      "min": [
        -388.77352905273438,
        37.665462493896484,
        76.898704528808594
      ],
      "type": "VEC3"
    },
    {
      "name": "NORMAL",
      "bufferView": 0,
      "byteOffset": 137708,
      "componentType": 5126,
      "count": 733,
      "max": [
        0.99931508302688599,
        0.99998462200164795,
        0.99999219179153442
      ],
      "min": [
        -0.99915379285812378,
        -0.82648748159408569,
        -0.99931424856185913
      ],
      "type": "VEC3"
    },
    {
      "name": "TEXCOORD_0",
      "bufferView": 0,
      "byteOffset": 137720,
      "componentType": 5126,
      "count": 733,
      "max": [
        0.998046875,
        0.998046875
      ],
      "min": [
        0.001953125,
        0.767578125
      ],
      "type": "VEC2"
    },
    {
      "bufferView": 1,
      "byteOffset": 21150,
      "componentType": 5123,
      "count": 1479,
      "type": "SCALAR"
    }
  ],
  "bufferViews": [
    {
      "buffer": 0,
      "byteLength": 161152,
      "byteStride": 32,
      "target": 34962
    },
    {
      "buffer": 0,
      "byteLength": 24108,
      "byteOffset": 161152,
      "target": 34963
    }
  ],
  "buffers": [
    {
      "byteLength": 185260,
      "uri": "20525362525051735067_LOD00.bin"
    }
  ],
  "images": [
    {
      "uri": "20525362525051735067_LOD00_0.png"
    },
    {
      "uri": "20525362525051735067_LOD00_1.png"
    }
  ],
  "materials": [
    {
      "doubleSided": true,
      "pbrMetallicRoughness": {
        "baseColorTexture": {
          "index": 0
        },
        "metallicFactor": 0
      }
    },
    {
      "doubleSided": true,
      "pbrMetallicRoughness": {
        "baseColorTexture": {
          "index": 1
        },
        "metallicFactor": 0
      }
    }
  ],
  "meshes": [
    {
      "name": "20525362525051735067_0",
      "primitives": [
        {
          "attributes": {
            "POSITION": 0,
            "NORMAL": 1,
            "TEXCOORD_0": 2
          },
          "indices": 3,
          "material": 0
        }
      ]
    },
    {
      "name": "20525362525051735067_1",
      "primitives": [
        {
          "attributes": {
            "POSITION": 4,
            "NORMAL": 5,
            "TEXCOORD_0": 6
          },
          "indices": 7,
          "material": 1
        }
      ]
    }
  ],
  "nodes": [
    {
      "mesh": 0
    },
    {
      "mesh": 1
    }
  ],
  "scene": 0,
  "scenes": [
    {
      "nodes": [
        0,
        1
      ]
    }
  ],
  "textures": [
    {
      "source": 0
    },
    {
      "source": 1
    }
  ]
}