{
  "asset": {
    "copyright": "",
    "generator": "SharpGLTF 1.0.0",
    "version": "2.0"
  },
  "accessors": [
    {
      "name": "POSITION",
      "bufferView": 0,
      "componentType": 5126,
      "count": 2738,
      "max": [
        -68.215179443359375,
        92.186798095703125,
        267.98501586914063
      ],
      "min": [
        -95.853485107421875,
        74.267158508300781,
        229.75367736816406
      ],
      "type": "VEC3"
    },
    {
      "name": "NORMAL",
      "bufferView": 0,
      "byteOffset": 12,
      "componentType": 5126,
      "count": 2738,
      "max": [
        0.9999922513961792,
        0.99998456239700317,
        0.99999207258224487
      ],
      "min": [
        -0.99999213218688965,
        -0.9964098334312439,
        -0.99999237060546875
      ],
      "type": "VEC3"
    },
    {
      "name": "TEXCOORD_0",
      "bufferView": 0,
      "byteOffset": 24,
      "componentType": 5126,
      "count": 2738,
      "max": [
        0.998046875,
        0.9990234375
      ],
      "min": [
        0.001953125,
        0.0009765625
      ],
      "type": "VEC2"
    },
    {
      "bufferView": 1,
      "componentType": 5123,
      "count": 6906,
      "type": "SCALAR"
    },
    {
      "name": "POSITION",
      "bufferView": 0,
      "byteOffset": 87616,
      "componentType": 5126,
      "count": 557,
      "max": [
        -68.215171813964844,
        91.878097534179688,
        267.98501586914063
      ],
      "min": [
        -95.85345458984375,
        74.113998413085938,
        229.7537841796875
      ],
      "type": "VEC3"
    },
    {
      "name": "NORMAL",
      "bufferView": 0,
      "byteOffset": 87628,
      "componentType": 5126,
      "count": 557,
      "max": [
        0.9999922513961792,
        0.99998456239700317,
        0.99915021657943726
      ],
      "min": [
        -0.99999213218688965,
        -0.59390842914581299,
        -0.99999237060546875
      ],
      "type": "VEC3"
    },
    {
      "name": "TEXCOORD_0",
      "bufferView": 0,
      "byteOffset": 87640,
      "componentType": 5126,
      "count": 557,
      "max": [
        0.998046875,
        0.998046875
      ],
      "min": [
        0.001953125,
        0.740234375
      ],
      "type": "VEC2"
    },
    {
      "bufferView": 1,
      "byteOffset": 13812,
      "componentType": 5123,
      "count": 1446,
      "type": "SCALAR"
    }
  ],
  "bufferViews": [
    {
      "buffer": 0,
      "byteLength": 105440,
      "byteStride": 32,
      "target": 34962
    },
    {
      "buffer": 0,
      "byteLength": 16704,
      "byteOffset": 105440,
      "target": 34963
    }
  ],
  "buffers": [
    {
      "byteLength": 122144,
      "uri": "20525362525051734622_LOD00.bin"
    }
  ],
  "images": [
    {
      "uri": "20525362525051734622_LOD00_0.png"
    },
    {
      "uri": "20525362525051734622_LOD00_1.png"
    }
  ],
  "materials": [
    {
      "doubleSided": true,
      "pbrMetallicRoughness": {
        "baseColorTexture": {
          "index": 0
        },
        "metallicFactor": 0
      }
    },
    {
      "doubleSided": true,
      "pbrMetallicRoughness": {
        "baseColorTexture": {
          "index": 1
        },
        "metallicFactor": 0
      }
    }
  ],
  "meshes": [
    {
      "name": "20525362525051734622_0",
      "primitives": [
        {
          "attributes": {
            "POSITION": 0,
            "NORMAL": 1,
            "TEXCOORD_0": 2
          },
          "indices": 3,
          "material": 0
        }
      ]
    },
    {
      "name": "20525362525051734622_1",
      "primitives": [
        {
          "attributes": {
            "POSITION": 4,
            "NORMAL": 5,
            "TEXCOORD_0": 6
          },
          "indices": 7,
          "material": 1
        }
      ]
    }
  ],
  "nodes": [
    {
      "mesh": 0
    },
    {
      "mesh": 1
    }
  ],
  "scene": 0,
  "scenes": [
    {
      "nodes": [
        0,
        1
      ]
    }
  ],
  "textures": [
    {
      "source": 0
    },
    {
      "source": 1
    }
  ]
}