{
  "asset": {
    "copyright": "",
    "generator": "SharpGLTF 1.0.0",
    "version": "2.0"
  },
  "accessors": [
    {
      "name": "POSITION",
      "bufferView": 0,
      "componentType": 5126,
      "count": 592,
      "max": [
        -3.5514926910400391,
        37.845645904541016,
        153.33782958984375
      ],
      "min": [
        -35.821743011474609,
        14.673928260803223,
        115.10702514648438
      ],
      "type": "VEC3"
    },
    {
      "name": "NORMAL",
      "bufferView": 0,
      "byteOffset": 12,
      "componentType": 5126,
      "count": 592,
      "max": [
        0.92509341239929199,
        0.99998444318771362,
        0.99999219179153442
      ],
      "min": [
        -0.98224180936813354,
        -1,
        -0.9999922513961792
      ],
      "type": "VEC3"
    },
    {
      "name": "TEXCOORD_0",
      "bufferView": 0,
      "byteOffset": 24,
      "componentType": 5126,
      "count": 592,
      "max": [
        0.998046875,
        0.9990234375
      ],
      "min": [
        0.001953125,
        0.0009765625
      ],
      "type": "VEC2"
    },
    {
      "bufferView": 1,
      "componentType": 5123,
      "count": 1395,
      "type": "SCALAR"
    },
    {
      "name": "POSITION",
      "bufferView": 0,
      "byteOffset": 18944,
      "componentType": 5126,
      "count": 237,
      "max": [
        -3.5514926910400391,
        37.845695495605469,
        153.33778381347656
      ],
      "min": [
        -33.968906402587891,
        14.673928260803223,
        134.22222900390625
      ],
      "type": "VEC3"
    },
    {
      "name": "NORMAL",
      "bufferView": 0,
      "byteOffset": 18956,
      "componentType": 5126,
      "count": 237,
      "max": [
        0.9999922513961792,
        0.99998444318771362,
        0.99999219179153442
      ],
      "min": [
        -0.9999922513961792,
        -1,
        -0.9999922513961792
      ],
      "type": "VEC3"
    },
    {
      "name": "TEXCOORD_0",
      "bufferView": 0,
      "byteOffset": 18968,
      "componentType": 5126,
      "count": 237,
      "max": [
        0.998046875,
        0.998046875
      ],
      "min": [
        0.001953125,
        0.474609375
      ],
      "type": "VEC2"
    },
    {
      "bufferView": 1,
      "byteOffset": 2790,
      "componentType": 5123,
      "count": 690,
      "type": "SCALAR"
    }
  ],
  "bufferViews": [
    {
      "buffer": 0,
      "byteLength": 26528,
      "byteStride": 32,
      "target": 34962
    },
    {
      "buffer": 0,
      "byteLength": 4170,
      "byteOffset": 26528,
      "target": 34963
    }
  ],
  "buffers": [
    {
      "byteLength": 30700,
      "uri": "20525362525051725350_LOD00.bin"
    }
  ],
  "images": [
    {
      "uri": "20525362525051725350_LOD00_0.png"
    },
    {
      "uri": "20525362525051725350_LOD00_1.png"
    }
  ],
  "materials": [
    {
      "doubleSided": true,
      "pbrMetallicRoughness": {
        "baseColorTexture": {
          "index": 0
        },
        "metallicFactor": 0
      }
    },
    {
      "doubleSided": true,
      "pbrMetallicRoughness": {
        "baseColorTexture": {
          "index": 1
        },
        "metallicFactor": 0
      }
    }
  ],
  "meshes": [
    {
      "name": "20525362525051725350_0",
      "primitives": [
        {
          "attributes": {
            "POSITION": 0,
            "NORMAL": 1,
            "TEXCOORD_0": 2
          },
          "indices": 3,
          "material": 0
        }
      ]
    },
    {
      "name": "20525362525051725350_1",
      "primitives": [
        {
          "attributes": {
            "POSITION": 4,
            "NORMAL": 5,
            "TEXCOORD_0": 6
          },
          "indices": 7,
          "material": 1
        }
      ]
    }
  ],
  "nodes": [
    {
      "mesh": 0
    },
    {
      "mesh": 1
    }
  ],
  "scene": 0,
  "scenes": [
    {
      "nodes": [
        0,
        1
      ]
    }
  ],
  "textures": [
    {
      "source": 0
    },
    {
      "source": 1
    }
  ]
}