{
  "asset": {
    "copyright": "",
    "generator": "SharpGLTF 1.0.0",
    "version": "2.0"
  },
  "accessors": [
    {
      "name": "POSITION",
      "bufferView": 0,
      "componentType": 5126,
      "count": 2662,
      "max": [
        -195.99383544921875,
        57.125377655029297,
        459.06097412109375
      ],
      "min": [
        -228.26385498046875,
        37.351139068603516,
        420.82894897460938
      ],
      "type": "VEC3"
    },
    {
      "name": "NORMAL",
      "bufferView": 0,
      "byteOffset": 12,
      "componentType": 5126,
      "count": 2662,
      "max": [
        0.99999237060546875,
        0.9999847412109375,
        0.99999195337295532
      ],
      "min": [
        -0.99999213218688965,
        -0.99820029735565186,
        -0.9999924898147583
      ],
      "type": "VEC3"
    },
    {
      "name": "TEXCOORD_0",
      "bufferView": 0,
      "byteOffset": 24,
      "componentType": 5126,
      "count": 2662,
      "max": [
        0.9990234375,
        0.9990234375
      ],
      "min": [
        0.0009765625,
        0.0009765625
      ],
      "type": "VEC2"
    },
    {
      "bufferView": 1,
      "componentType": 5123,
      "count": 6132,
      "type": "SCALAR"
    },
    {
      "name": "POSITION",
      "bufferView": 0,
      "byteOffset": 85184,
      "componentType": 5126,
      "count": 1599,
      "max": [
        -196.14839172363281,
        57.125377655029297,
        459.06097412109375
      ],
      "min": [
        -228.26332092285156,
        37.813327789306641,
        420.82928466796875
      ],
      "type": "VEC3"
    },
    {
      "name": "NORMAL",
      "bufferView": 0,
      "byteOffset": 85196,
      "componentType": 5126,
      "count": 1599,
      "max": [
        0.99439430236816406,
        0.9999847412109375,
        0.99999195337295532
      ],
      "min": [
        -0.99999213218688965,
        -0.94186288118362427,
        -0.9999924898147583
      ],
      "type": "VEC3"
    },
    {
      "name": "TEXCOORD_0",
      "bufferView": 0,
      "byteOffset": 85208,
      "componentType": 5126,
      "count": 1599,
      "max": [
        0.998046875,
        0.998046875
      ],
      "min": [
        0.001953125,
        0.107421875
      ],
      "type": "VEC2"
    },
    {
      "bufferView": 1,
      "byteOffset": 12264,
      "componentType": 5123,
      "count": 3957,
      "type": "SCALAR"
    }
  ],
  "bufferViews": [
    {
      "buffer": 0,
      "byteLength": 136352,
      "byteStride": 32,
      "target": 34962
    },
    {
      "buffer": 0,
      "byteLength": 20178,
      "byteOffset": 136352,
      "target": 34963
    }
  ],
  "buffers": [
    {
      "byteLength": 156532,
      "uri": "20525362525051736344_LOD00.bin"
    }
  ],
  "images": [
    {
      "uri": "20525362525051736344_LOD00_0.png"
    },
    {
      "uri": "20525362525051736344_LOD00_1.png"
    }
  ],
  "materials": [
    {
      "doubleSided": true,
      "pbrMetallicRoughness": {
        "baseColorTexture": {
          "index": 0
        },
        "metallicFactor": 0
      }
    },
    {
      "doubleSided": true,
      "pbrMetallicRoughness": {
        "baseColorTexture": {
          "index": 1
        },
        "metallicFactor": 0
      }
    }
  ],
  "meshes": [
    {
      "name": "20525362525051736344_0",
      "primitives": [
        {
          "attributes": {
            "POSITION": 0,
            "NORMAL": 1,
            "TEXCOORD_0": 2
          },
          "indices": 3,
          "material": 0
        }
      ]
    },
    {
      "name": "20525362525051736344_1",
      "primitives": [
        {
          "attributes": {
            "POSITION": 4,
            "NORMAL": 5,
            "TEXCOORD_0": 6
          },
          "indices": 7,
          "material": 1
        }
      ]
    }
  ],
  "nodes": [
    {
      "mesh": 0
    },
    {
      "mesh": 1
    }
  ],
  "scene": 0,
  "scenes": [
    {
      "nodes": [
        0,
        1
      ]
    }
  ],
  "textures": [
    {
      "source": 0
    },
    {
      "source": 1
    }
  ]
}