{
  "asset": {
    "copyright": "",
    "generator": "SharpGLTF 1.0.0",
    "version": "2.0"
  },
  "accessors": [
    {
      "name": "POSITION",
      "bufferView": 0,
      "componentType": 5126,
      "count": 52,
      "max": [
        -613.4454345703125,
        110.68872833251953,
        420.8656005859375
      ],
      "min": [
        -619.77935791015625,
        74.231468200683594,
        417.625732421875
      ],
      "type": "VEC3"
    },
    {
      "name": "NORMAL",
      "bufferView": 0,
      "byteOffset": 12,
      "componentType": 5126,
      "count": 52,
      "max": [
        -6.1052807723172009E-05,
        0.0049029695801436901,
        6.1391976487357169E-05
      ],
      "min": [
        -0.99999189376831055,
        -0.0052078301087021828,
        -0.99999243021011353
      ],
      "type": "VEC3"
    },
    {
      "name": "TEXCOORD_0",
      "bufferView": 0,
      "byteOffset": 24,
      "componentType": 5126,
      "count": 52,
      "max": [
        0.927734375,
        0.998046875
      ],
      "min": [
        0.001953125,
        0.373046875
      ],
      "type": "VEC2"
    },
    {
      "bufferView": 1,
      "componentType": 5123,
      "count": 159,
      "type": "SCALAR"
    }
  ],
  "bufferViews": [
    {
      "buffer": 0,
      "byteLength": 1664,
      "byteStride": 32,
      "target": 34962
    },
    {
      "buffer": 0,
      "byteLength": 318,
      "byteOffset": 1664,
      "target": 34963
    }
  ],
  "buffers": [
    {
      "byteLength": 1984,
      "uri": "20525362525140626423_LOD00.bin"
    }
  ],
  "images": [
    {
      "uri": "20525362525140626423_LOD00.png"
    }
  ],
  "materials": [
    {
      "doubleSided": true,
      "pbrMetallicRoughness": {
        "baseColorTexture": {
          "index": 0
        },
        "metallicFactor": 0
      }
    }
  ],
  "meshes": [
    {
      "name": "20525362525140626423_0",
      "primitives": [
        {
          "attributes": {
            "POSITION": 0,
            "NORMAL": 1,
            "TEXCOORD_0": 2
          },
          "indices": 3,
          "material": 0
        }
      ]
    }
  ],
  "nodes": [
    {
      "mesh": 0
    }
  ],
  "scene": 0,
  "scenes": [
    {
      "nodes": [
        0
      ]
    }
  ],
  "textures": [
    {
      "source": 0
    }
  ]
}