{
  "asset": {
    "copyright": "",
    "generator": "SharpGLTF 1.0.0",
    "version": "2.0"
  },
  "accessors": [
    {
      "name": "POSITION",
      "bufferView": 0,
      "componentType": 5126,
      "count": 4008,
      "max": [
        -750.18505859375,
        110.67840576171875,
        380.34707641601563
      ],
      "min": [
        -767.94696044921875,
        74.067451477050781,
        343.96640014648438
      ],
      "type": "VEC3"
    },
    {
      "name": "NORMAL",
      "bufferView": 0,
      "byteOffset": 12,
      "componentType": 5126,
      "count": 4008,
      "max": [
        0.99999266862869263,
        0.99998515844345093,
        0.99999195337295532
      ],
      "min": [
        -0.99999183416366577,
        -1,
        -0.99999243021011353
      ],
      "type": "VEC3"
    },
    {
      "name": "TEXCOORD_0",
      "bufferView": 0,
      "byteOffset": 24,
      "componentType": 5126,
      "count": 4008,
      "max": [
        0.9990234375,
        0.9990234375
      ],
      "min": [
        0.0009765625,
        0.0009765625
      ],
      "type": "VEC2"
    },
    {
      "bufferView": 1,
      "componentType": 5123,
      "count": 8406,
      "type": "SCALAR"
    }
  ],
  "bufferViews": [
    {
      "buffer": 0,
      "byteLength": 128256,
      "byteStride": 32,
      "target": 34962
    },
    {
      "buffer": 0,
      "byteLength": 16812,
      "byteOffset": 128256,
      "target": 34963
    }
  ],
  "buffers": [
    {
      "byteLength": 145068,
      "uri": "20525362525140626521_LOD00.bin"
    }
  ],
  "images": [
    {
      "uri": "20525362525140626521_LOD00.png"
    }
  ],
  "materials": [
    {
      "doubleSided": true,
      "pbrMetallicRoughness": {
        "baseColorTexture": {
          "index": 0
        },
        "metallicFactor": 0
      }
    }
  ],
  "meshes": [
    {
      "name": "20525362525140626521_0",
      "primitives": [
        {
          "attributes": {
            "POSITION": 0,
            "NORMAL": 1,
            "TEXCOORD_0": 2
          },
          "indices": 3,
          "material": 0
        }
      ]
    }
  ],
  "nodes": [
    {
      "mesh": 0
    }
  ],
  "scene": 0,
  "scenes": [
    {
      "nodes": [
        0
      ]
    }
  ],
  "textures": [
    {
      "source": 0
    }
  ]
}