{
  "asset": {
    "copyright": "",
    "generator": "SharpGLTF 1.0.0",
    "version": "2.0"
  },
  "accessors": [
    {
      "name": "POSITION",
      "bufferView": 0,
      "componentType": 5126,
      "count": 4851,
      "max": [
        -324.08987426757813,
        54.656993865966797,
        229.92831420898438
      ],
      "min": [
        -357.13198852539063,
        37.356063842773438,
        191.54225158691406
      ],
      "type": "VEC3"
    },
    {
      "name": "NORMAL",
      "bufferView": 0,
      "byteOffset": 12,
      "componentType": 5126,
      "count": 4851,
      "max": [
        0.99999237060546875,
        0.99998480081558228,
        0.99999207258224487
      ],
      "min": [
        -0.99999195337295532,
        -0.67434638738632202,
        -0.99999237060546875
      ],
      "type": "VEC3"
    },
    {
      "name": "TEXCOORD_0",
      "bufferView": 0,
      "byteOffset": 24,
      "componentType": 5126,
      "count": 4851,
      "max": [
        0.998046875,
        0.9990234375
      ],
      "min": [
        0.001953125,
        0.0009765625
      ],
      "type": "VEC2"
    },
    {
      "bufferView": 1,
      "componentType": 5123,
      "count": 11766,
      "type": "SCALAR"
    },
    {
      "name": "POSITION",
      "bufferView": 0,
      "byteOffset": 155232,
      "componentType": 5126,
      "count": 173,
      "max": [
        -324.55291748046875,
        52.186382293701172,
        229.77386474609375
      ],
      "min": [
        -356.66897583007813,
        37.357612609863281,
        192.62162780761719
      ],
      "type": "VEC3"
    },
    {
      "name": "NORMAL",
      "bufferView": 0,
      "byteOffset": 155244,
      "componentType": 5126,
      "count": 173,
      "max": [
        0.99898672103881836,
        0.99998444318771362,
        0.99816924333572388
      ],
      "min": [
        -0.99898213148117065,
        -0.44742944836616516,
        -0.99525076150894165
      ],
      "type": "VEC3"
    },
    {
      "name": "TEXCOORD_0",
      "bufferView": 0,
      "byteOffset": 155256,
      "componentType": 5126,
      "count": 173,
      "max": [
        0.982421875,
        0.998046875
      ],
      "min": [
        0.001953125,
        0.951171875
      ],
      "type": "VEC2"
    },
    {
      "bufferView": 1,
      "byteOffset": 23532,
      "componentType": 5123,
      "count": 372,
      "type": "SCALAR"
    }
  ],
  "bufferViews": [
    {
      "buffer": 0,
      "byteLength": 160768,
      "byteStride": 32,
      "target": 34962
    },
    {
      "buffer": 0,
      "byteLength": 24276,
      "byteOffset": 160768,
      "target": 34963
    }
  ],
  "buffers": [
    {
      "byteLength": 185044,
      "uri": "20525362525051735264_LOD00.bin"
    }
  ],
  "images": [
    {
      "uri": "20525362525051735264_LOD00_0.png"
    },
    {
      "uri": "20525362525051735264_LOD00_1.png"
    }
  ],
  "materials": [
    {
      "doubleSided": true,
      "pbrMetallicRoughness": {
        "baseColorTexture": {
          "index": 0
        },
        "metallicFactor": 0
      }
    },
    {
      "doubleSided": true,
      "pbrMetallicRoughness": {
        "baseColorTexture": {
          "index": 1
        },
        "metallicFactor": 0
      }
    }
  ],
  "meshes": [
    {
      "name": "20525362525051735264_0",
      "primitives": [
        {
          "attributes": {
            "POSITION": 0,
            "NORMAL": 1,
            "TEXCOORD_0": 2
          },
          "indices": 3,
          "material": 0
        }
      ]
    },
    {
      "name": "20525362525051735264_1",
      "primitives": [
        {
          "attributes": {
            "POSITION": 4,
            "NORMAL": 5,
            "TEXCOORD_0": 6
          },
          "indices": 7,
          "material": 1
        }
      ]
    }
  ],
  "nodes": [
    {
      "mesh": 0
    },
    {
      "mesh": 1
    }
  ],
  "scene": 0,
  "scenes": [
    {
      "nodes": [
        0,
        1
      ]
    }
  ],
  "textures": [
    {
      "source": 0
    },
    {
      "source": 1
    }
  ]
}