{
  "asset": {
    "copyright": "",
    "generator": "SharpGLTF 1.0.0",
    "version": "2.0"
  },
  "accessors": [
    {
      "name": "POSITION",
      "bufferView": 0,
      "componentType": 5126,
      "count": 5153,
      "max": [
        -67.751800537109375,
        74.28448486328125,
        229.76931762695313
      ],
      "min": [
        -100.33089447021484,
        37.364749908447266,
        191.53742980957031
      ],
      "type": "VEC3"
    },
    {
      "name": "NORMAL",
      "bufferView": 0,
      "byteOffset": 12,
      "componentType": 5126,
      "count": 5153,
      "max": [
        0.99999231100082397,
        0.99998456239700317,
        0.99999207258224487
      ],
      "min": [
        -0.99999213218688965,
        -1,
        -0.99999237060546875
      ],
      "type": "VEC3"
    },
    {
      "name": "TEXCOORD_0",
      "bufferView": 0,
      "byteOffset": 24,
      "componentType": 5126,
      "count": 5153,
      "max": [
        0.9990234375,
        0.9990234375
      ],
      "min": [
        0.0009765625,
        0.0009765625
      ],
      "type": "VEC2"
    },
    {
      "bufferView": 1,
      "componentType": 5123,
      "count": 13038,
      "type": "SCALAR"
    },
    {
      "name": "POSITION",
      "bufferView": 0,
      "byteOffset": 164896,
      "componentType": 5126,
      "count": 1049,
      "max": [
        -67.751808166503906,
        74.284317016601563,
        229.76893615722656
      ],
      "min": [
        -100.17648315429688,
        37.364795684814453,
        191.53742980957031
      ],
      "type": "VEC3"
    },
    {
      "name": "NORMAL",
      "bufferView": 0,
      "byteOffset": 164908,
      "componentType": 5126,
      "count": 1049,
      "max": [
        0.99999231100082397,
        0.99998456239700317,
        0.99999207258224487
      ],
      "min": [
        -0.99999213218688965,
        -0.99917268753051758,
        -0.99999237060546875
      ],
      "type": "VEC3"
    },
    {
      "name": "TEXCOORD_0",
      "bufferView": 0,
      "byteOffset": 164920,
      "componentType": 5126,
      "count": 1049,
      "max": [
        0.998046875,
        0.998046875
      ],
      "min": [
        0.001953125,
        0.552734375
      ],
      "type": "VEC2"
    },
    {
      "bufferView": 1,
      "byteOffset": 26076,
      "componentType": 5123,
      "count": 2547,
      "type": "SCALAR"
    }
  ],
  "bufferViews": [
    {
      "buffer": 0,
      "byteLength": 198464,
      "byteStride": 32,
      "target": 34962
    },
    {
      "buffer": 0,
      "byteLength": 31170,
      "byteOffset": 198464,
      "target": 34963
    }
  ],
  "buffers": [
    {
      "byteLength": 229636,
      "uri": "20525362525051734264_LOD00.bin"
    }
  ],
  "images": [
    {
      "uri": "20525362525051734264_LOD00_0.png"
    },
    {
      "uri": "20525362525051734264_LOD00_1.png"
    }
  ],
  "materials": [
    {
      "doubleSided": true,
      "pbrMetallicRoughness": {
        "baseColorTexture": {
          "index": 0
        },
        "metallicFactor": 0
      }
    },
    {
      "doubleSided": true,
      "pbrMetallicRoughness": {
        "baseColorTexture": {
          "index": 1
        },
        "metallicFactor": 0
      }
    }
  ],
  "meshes": [
    {
      "name": "20525362525051734264_0",
      "primitives": [
        {
          "attributes": {
            "POSITION": 0,
            "NORMAL": 1,
            "TEXCOORD_0": 2
          },
          "indices": 3,
          "material": 0
        }
      ]
    },
    {
      "name": "20525362525051734264_1",
      "primitives": [
        {
          "attributes": {
            "POSITION": 4,
            "NORMAL": 5,
            "TEXCOORD_0": 6
          },
          "indices": 7,
          "material": 1
        }
      ]
    }
  ],
  "nodes": [
    {
      "mesh": 0
    },
    {
      "mesh": 1
    }
  ],
  "scene": 0,
  "scenes": [
    {
      "nodes": [
        0,
        1
      ]
    }
  ],
  "textures": [
    {
      "source": 0
    },
    {
      "source": 1
    }
  ]
}