{
  "asset": {
    "copyright": "",
    "generator": "SharpGLTF 1.0.0",
    "version": "2.0"
  },
  "accessors": [
    {
      "name": "POSITION",
      "bufferView": 0,
      "componentType": 5126,
      "count": 4993,
      "max": [
        -292.45529174804688,
        61.304801940917969,
        153.34281921386719
      ],
      "min": [
        -325.03451538085938,
        37.82269287109375,
        114.95725250244141
      ],
      "type": "VEC3"
    },
    {
      "name": "NORMAL",
      "bufferView": 0,
      "byteOffset": 12,
      "componentType": 5126,
      "count": 4993,
      "max": [
        0.9999924898147583,
        0.99998462200164795,
        0.99672657251358032
      ],
      "min": [
        -0.99999207258224487,
        -0.99917078018188477,
        -0.99798017740249634
      ],
      "type": "VEC3"
    },
    {
      "name": "TEXCOORD_0",
      "bufferView": 0,
      "byteOffset": 24,
      "componentType": 5126,
      "count": 4993,
      "max": [
        0.998046875,
        0.9990234375
      ],
      "min": [
        0.001953125,
        0.0009765625
      ],
      "type": "VEC2"
    },
    {
      "bufferView": 1,
      "componentType": 5123,
      "count": 12756,
      "type": "SCALAR"
    },
    {
      "name": "POSITION",
      "bufferView": 0,
      "byteOffset": 159776,
      "componentType": 5126,
      "count": 673,
      "max": [
        -292.45587158203125,
        61.150306701660156,
        153.3427734375
      ],
      "min": [
        -325.0345458984375,
        37.822711944580078,
        115.11156463623047
      ],
      "type": "VEC3"
    },
    {
      "name": "NORMAL",
      "bufferView": 0,
      "byteOffset": 159788,
      "componentType": 5126,
      "count": 673,
      "max": [
        0.99915444850921631,
        0.99998462200164795,
        0.99817162752151489
      ],
      "min": [
        -0.99999207258224487,
        -0.96438604593276978,
        -0.96972525119781494
      ],
      "type": "VEC3"
    },
    {
      "name": "TEXCOORD_0",
      "bufferView": 0,
      "byteOffset": 159800,
      "componentType": 5126,
      "count": 673,
      "max": [
        0.998046875,
        0.998046875
      ],
      "min": [
        0.001953125,
        0.767578125
      ],
      "type": "VEC2"
    },
    {
      "bufferView": 1,
      "byteOffset": 25512,
      "componentType": 5123,
      "count": 1509,
      "type": "SCALAR"
    }
  ],
  "bufferViews": [
    {
      "buffer": 0,
      "byteLength": 181312,
      "byteStride": 32,
      "target": 34962
    },
    {
      "buffer": 0,
      "byteLength": 28530,
      "byteOffset": 181312,
      "target": 34963
    }
  ],
  "buffers": [
    {
      "byteLength": 209844,
      "uri": "20525362525051734355_LOD00.bin"
    }
  ],
  "images": [
    {
      "uri": "20525362525051734355_LOD00_0.png"
    },
    {
      "uri": "20525362525051734355_LOD00_1.png"
    }
  ],
  "materials": [
    {
      "doubleSided": true,
      "pbrMetallicRoughness": {
        "baseColorTexture": {
          "index": 0
        },
        "metallicFactor": 0
      }
    },
    {
      "doubleSided": true,
      "pbrMetallicRoughness": {
        "baseColorTexture": {
          "index": 1
        },
        "metallicFactor": 0
      }
    }
  ],
  "meshes": [
    {
      "name": "20525362525051734355_0",
      "primitives": [
        {
          "attributes": {
            "POSITION": 0,
            "NORMAL": 1,
            "TEXCOORD_0": 2
          },
          "indices": 3,
          "material": 0
        }
      ]
    },
    {
      "name": "20525362525051734355_1",
      "primitives": [
        {
          "attributes": {
            "POSITION": 4,
            "NORMAL": 5,
            "TEXCOORD_0": 6
          },
          "indices": 7,
          "material": 1
        }
      ]
    }
  ],
  "nodes": [
    {
      "mesh": 0
    },
    {
      "mesh": 1
    }
  ],
  "scene": 0,
  "scenes": [
    {
      "nodes": [
        0,
        1
      ]
    }
  ],
  "textures": [
    {
      "source": 0
    },
    {
      "source": 1
    }
  ]
}