{
  "asset": {
    "copyright": "",
    "generator": "SharpGLTF 1.0.0",
    "version": "2.0"
  },
  "accessors": [
    {
      "name": "POSITION",
      "bufferView": 0,
      "componentType": 5126,
      "count": 101,
      "max": [
        -356.64334106445313,
        110.69719696044922,
        573.715576171875
      ],
      "min": [
        -377.02593994140625,
        74.238296508789063,
        557.83367919921875
      ],
      "type": "VEC3"
    },
    {
      "name": "NORMAL",
      "bufferView": 0,
      "byteOffset": 12,
      "componentType": 5126,
      "count": 101,
      "max": [
        0.70762395858764648,
        0.049405593425035477,
        3.5348661185707897E-05
      ],
      "min": [
        -0.9999920129776001,
        -0.0054761623032391071,
        -0.99999254941940308
      ],
      "type": "VEC3"
    },
    {
      "name": "TEXCOORD_0",
      "bufferView": 0,
      "byteOffset": 24,
      "componentType": 5126,
      "count": 101,
      "max": [
        0.927734375,
        0.9990234375
      ],
      "min": [
        0.001953125,
        0.2685546875
      ],
      "type": "VEC2"
    },
    {
      "bufferView": 1,
      "componentType": 5123,
      "count": 294,
      "type": "SCALAR"
    }
  ],
  "bufferViews": [
    {
      "buffer": 0,
      "byteLength": 3232,
      "byteStride": 32,
      "target": 34962
    },
    {
      "buffer": 0,
      "byteLength": 588,
      "byteOffset": 3232,
      "target": 34963
    }
  ],
  "buffers": [
    {
      "byteLength": 3820,
      "uri": "20525362525051737623_LOD00.bin"
    }
  ],
  "images": [
    {
      "uri": "20525362525051737623_LOD00.png"
    }
  ],
  "materials": [
    {
      "doubleSided": true,
      "pbrMetallicRoughness": {
        "baseColorTexture": {
          "index": 0
        },
        "metallicFactor": 0
      }
    }
  ],
  "meshes": [
    {
      "name": "20525362525051737623_0",
      "primitives": [
        {
          "attributes": {
            "POSITION": 0,
            "NORMAL": 1,
            "TEXCOORD_0": 2
          },
          "indices": 3,
          "material": 0
        }
      ]
    }
  ],
  "nodes": [
    {
      "mesh": 0
    }
  ],
  "scene": 0,
  "scenes": [
    {
      "nodes": [
        0
      ]
    }
  ],
  "textures": [
    {
      "source": 0
    }
  ]
}