{
  "asset": {
    "copyright": "",
    "generator": "SharpGLTF 1.0.0",
    "version": "2.0"
  },
  "accessors": [
    {
      "name": "POSITION",
      "bufferView": 0,
      "componentType": 5126,
      "count": 322,
      "max": [
        -420.8372802734375,
        66.834861755371094,
        611.92803955078125
      ],
      "min": [
        -452.95510864257813,
        37.943614959716797,
        573.388671875
      ],
      "type": "VEC3"
    },
    {
      "name": "NORMAL",
      "bufferView": 0,
      "byteOffset": 12,
      "componentType": 5126,
      "count": 322,
      "max": [
        0.99999243021011353,
        0.99998509883880615,
        0.99999189376831055
      ],
      "min": [
        -0.99999195337295532,
        -1,
        -0.99999254941940308
      ],
      "type": "VEC3"
    },
    {
      "name": "TEXCOORD_0",
      "bufferView": 0,
      "byteOffset": 24,
      "componentType": 5126,
      "count": 322,
      "max": [
        0.998046875,
        0.9990234375
      ],
      "min": [
        0.001953125,
        0.0126953125
      ],
      "type": "VEC2"
    },
    {
      "bufferView": 1,
      "componentType": 5123,
      "count": 810,
      "type": "SCALAR"
    },
    {
      "name": "POSITION",
      "bufferView": 0,
      "byteOffset": 10304,
      "componentType": 5126,
      "count": 55,
      "max": [
        -420.83932495117188,
        74.249763488769531,
        589.57806396484375
      ],
      "min": [
        -452.955322265625,
        54.474651336669922,
        573.6983642578125
      ],
      "type": "VEC3"
    },
    {
      "name": "NORMAL",
      "bufferView": 0,
      "byteOffset": 10316,
      "componentType": 5126,
      "count": 55,
      "max": [
        0.99999243021011353,
        0.99998378753662109,
        0.94949519634246826
      ],
      "min": [
        -0.44919401407241821,
        -0.0053825457580387592,
        -0.99999254941940308
      ],
      "type": "VEC3"
    },
    {
      "name": "TEXCOORD_0",
      "bufferView": 0,
      "byteOffset": 10328,
      "componentType": 5126,
      "count": 55,
      "max": [
        0.955078125,
        0.998046875
      ],
      "min": [
        0.001953125,
        0.193359375
      ],
      "type": "VEC2"
    },
    {
      "bufferView": 1,
      "byteOffset": 1620,
      "componentType": 5123,
      "count": 138,
      "type": "SCALAR"
    }
  ],
  "bufferViews": [
    {
      "buffer": 0,
      "byteLength": 12064,
      "byteStride": 32,
      "target": 34962
    },
    {
      "buffer": 0,
      "byteLength": 1896,
      "byteOffset": 12064,
      "target": 34963
    }
  ],
  "buffers": [
    {
      "byteLength": 13960,
      "uri": "20525362525053515055_LOD00.bin"
    }
  ],
  "images": [
    {
      "uri": "20525362525053515055_LOD00_0.png"
    },
    {
      "uri": "20525362525053515055_LOD00_1.png"
    }
  ],
  "materials": [
    {
      "doubleSided": true,
      "pbrMetallicRoughness": {
        "baseColorTexture": {
          "index": 0
        },
        "metallicFactor": 0
      }
    },
    {
      "doubleSided": true,
      "pbrMetallicRoughness": {
        "baseColorTexture": {
          "index": 1
        },
        "metallicFactor": 0
      }
    }
  ],
  "meshes": [
    {
      "name": "20525362525053515055_0",
      "primitives": [
        {
          "attributes": {
            "POSITION": 0,
            "NORMAL": 1,
            "TEXCOORD_0": 2
          },
          "indices": 3,
          "material": 0
        }
      ]
    },
    {
      "name": "20525362525053515055_1",
      "primitives": [
        {
          "attributes": {
            "POSITION": 4,
            "NORMAL": 5,
            "TEXCOORD_0": 6
          },
          "indices": 7,
          "material": 1
        }
      ]
    }
  ],
  "nodes": [
    {
      "mesh": 0
    },
    {
      "mesh": 1
    }
  ],
  "scene": 0,
  "scenes": [
    {
      "nodes": [
        0,
        1
      ]
    }
  ],
  "textures": [
    {
      "source": 0
    },
    {
      "source": 1
    }
  ]
}