{
  "asset": {
    "copyright": "",
    "generator": "SharpGLTF 1.0.0",
    "version": "2.0"
  },
  "accessors": [
    {
      "name": "POSITION",
      "bufferView": 0,
      "componentType": 5126,
      "count": 3159,
      "max": [
        -773.7911376953125,
        69.594871520996094,
        421.33746337890625
      ],
      "min": [
        -806.06060791015625,
        41.946510314941406,
        382.1826171875
      ],
      "type": "VEC3"
    },
    {
      "name": "NORMAL",
      "bufferView": 0,
      "byteOffset": 12,
      "componentType": 5126,
      "count": 3159,
      "max": [
        0.99999266862869263,
        0.99998515844345093,
        0.9999920129776001
      ],
      "min": [
        -0.99999165534973145,
        -1,
        -0.9999924898147583
      ],
      "type": "VEC3"
    },
    {
      "name": "TEXCOORD_0",
      "bufferView": 0,
      "byteOffset": 24,
      "componentType": 5126,
      "count": 3159,
      "max": [
        0.998046875,
        0.9990234375
      ],
      "min": [
        0.001953125,
        0.0009765625
      ],
      "type": "VEC2"
    },
    {
      "bufferView": 1,
      "componentType": 5123,
      "count": 7287,
      "type": "SCALAR"
    },
    {
      "name": "POSITION",
      "bufferView": 0,
      "byteOffset": 101088,
      "componentType": 5126,
      "count": 2015,
      "max": [
        -773.941162109375,
        69.594711303710938,
        421.33740234375
      ],
      "min": [
        -806.5189208984375,
        45.654170989990234,
        382.64279174804688
      ],
      "type": "VEC3"
    },
    {
      "name": "NORMAL",
      "bufferView": 0,
      "byteOffset": 101100,
      "componentType": 5126,
      "count": 2015,
      "max": [
        0.99931281805038452,
        0.99998515844345093,
        0.9999920129776001
      ],
      "min": [
        -0.99999165534973145,
        -1,
        -0.9999924898147583
      ],
      "type": "VEC3"
    },
    {
      "name": "TEXCOORD_0",
      "bufferView": 0,
      "byteOffset": 101112,
      "componentType": 5126,
      "count": 2015,
      "max": [
        0.998046875,
        0.998046875
      ],
      "min": [
        0.001953125,
        0.212890625
      ],
      "type": "VEC2"
    },
    {
      "bufferView": 1,
      "byteOffset": 14574,
      "componentType": 5123,
      "count": 4752,
      "type": "SCALAR"
    }
  ],
  "bufferViews": [
    {
      "buffer": 0,
      "byteLength": 165568,
      "byteStride": 32,
      "target": 34962
    },
    {
      "buffer": 0,
      "byteLength": 24078,
      "byteOffset": 165568,
      "target": 34963
    }
  ],
  "buffers": [
    {
      "byteLength": 189648,
      "uri": "20525362525140626176_LOD00.bin"
    }
  ],
  "images": [
    {
      "uri": "20525362525140626176_LOD00_0.png"
    },
    {
      "uri": "20525362525140626176_LOD00_1.png"
    }
  ],
  "materials": [
    {
      "doubleSided": true,
      "pbrMetallicRoughness": {
        "baseColorTexture": {
          "index": 0
        },
        "metallicFactor": 0
      }
    },
    {
      "doubleSided": true,
      "pbrMetallicRoughness": {
        "baseColorTexture": {
          "index": 1
        },
        "metallicFactor": 0
      }
    }
  ],
  "meshes": [
    {
      "name": "20525362525140626176_0",
      "primitives": [
        {
          "attributes": {
            "POSITION": 0,
            "NORMAL": 1,
            "TEXCOORD_0": 2
          },
          "indices": 3,
          "material": 0
        }
      ]
    },
    {
      "name": "20525362525140626176_1",
      "primitives": [
        {
          "attributes": {
            "POSITION": 4,
            "NORMAL": 5,
            "TEXCOORD_0": 6
          },
          "indices": 7,
          "material": 1
        }
      ]
    }
  ],
  "nodes": [
    {
      "mesh": 0
    },
    {
      "mesh": 1
    }
  ],
  "scene": 0,
  "scenes": [
    {
      "nodes": [
        0,
        1
      ]
    }
  ],
  "textures": [
    {
      "source": 0
    },
    {
      "source": 1
    }
  ]
}