{
  "asset": {
    "copyright": "",
    "generator": "SharpGLTF 1.0.0",
    "version": "2.0"
  },
  "accessors": [
    {
      "name": "POSITION",
      "bufferView": 0,
      "componentType": 5126,
      "count": 865,
      "max": [
        -99.848747253417969,
        58.815299987792969,
        611.9202880859375
      ],
      "min": [
        -131.96372985839844,
        39.350914001464844,
        573.68768310546875
      ],
      "type": "VEC3"
    },
    {
      "name": "NORMAL",
      "bufferView": 0,
      "byteOffset": 12,
      "componentType": 5126,
      "count": 865,
      "max": [
        0.9999922513961792,
        0.99998486042022705,
        0.97508329153060913
      ],
      "min": [
        -0.99999213218688965,
        -0.94158095121383667,
        -0.98822563886642456
      ],
      "type": "VEC3"
    },
    {
      "name": "TEXCOORD_0",
      "bufferView": 0,
      "byteOffset": 24,
      "componentType": 5126,
      "count": 865,
      "max": [
        0.998046875,
        0.9990234375
      ],
      "min": [
        0.001953125,
        0.0029296875
      ],
      "type": "VEC2"
    },
    {
      "bufferView": 1,
      "componentType": 5123,
      "count": 2217,
      "type": "SCALAR"
    },
    {
      "name": "POSITION",
      "bufferView": 0,
      "byteOffset": 27680,
      "componentType": 5126,
      "count": 387,
      "max": [
        -115.90627288818359,
        58.657596588134766,
        611.9202880859375
      ],
      "min": [
        -131.96372985839844,
        40.275718688964844,
        573.68804931640625
      ],
      "type": "VEC3"
    },
    {
      "name": "NORMAL",
      "bufferView": 0,
      "byteOffset": 27692,
      "componentType": 5126,
      "count": 387,
      "max": [
        0.98224174976348877,
        0.99998480081558228,
        0.94444102048873901
      ],
      "min": [
        -0.99999213218688965,
        -0.93590849637985229,
        -0.99798440933227539
      ],
      "type": "VEC3"
    },
    {
      "name": "TEXCOORD_0",
      "bufferView": 0,
      "byteOffset": 27704,
      "componentType": 5126,
      "count": 387,
      "max": [
        0.998046875,
        0.998046875
      ],
      "min": [
        0.001953125,
        0.517578125
      ],
      "type": "VEC2"
    },
    {
      "bufferView": 1,
      "byteOffset": 4434,
      "componentType": 5123,
      "count": 1011,
      "type": "SCALAR"
    }
  ],
  "bufferViews": [
    {
      "buffer": 0,
      "byteLength": 40064,
      "byteStride": 32,
      "target": 34962
    },
    {
      "buffer": 0,
      "byteLength": 6456,
      "byteOffset": 40064,
      "target": 34963
    }
  ],
  "buffers": [
    {
      "byteLength": 46520,
      "uri": "20525362525053514045_LOD00.bin"
    }
  ],
  "images": [
    {
      "uri": "20525362525053514045_LOD00_0.png"
    },
    {
      "uri": "20525362525053514045_LOD00_1.png"
    }
  ],
  "materials": [
    {
      "doubleSided": true,
      "pbrMetallicRoughness": {
        "baseColorTexture": {
          "index": 0
        },
        "metallicFactor": 0
      }
    },
    {
      "doubleSided": true,
      "pbrMetallicRoughness": {
        "baseColorTexture": {
          "index": 1
        },
        "metallicFactor": 0
      }
    }
  ],
  "meshes": [
    {
      "name": "20525362525053514045_0",
      "primitives": [
        {
          "attributes": {
            "POSITION": 0,
            "NORMAL": 1,
            "TEXCOORD_0": 2
          },
          "indices": 3,
          "material": 0
        }
      ]
    },
    {
      "name": "20525362525053514045_1",
      "primitives": [
        {
          "attributes": {
            "POSITION": 4,
            "NORMAL": 5,
            "TEXCOORD_0": 6
          },
          "indices": 7,
          "material": 1
        }
      ]
    }
  ],
  "nodes": [
    {
      "mesh": 0
    },
    {
      "mesh": 1
    }
  ],
  "scene": 0,
  "scenes": [
    {
      "nodes": [
        0,
        1
      ]
    }
  ],
  "textures": [
    {
      "source": 0
    },
    {
      "source": 1
    }
  ]
}