{
  "asset": {
    "copyright": "",
    "generator": "SharpGLTF 1.0.0",
    "version": "2.0"
  },
  "accessors": [
    {
      "name": "POSITION",
      "bufferView": 0,
      "componentType": 5126,
      "count": 25,
      "max": [
        -806.06689453125,
        37.798179626464844,
        40.250743865966797
      ],
      "min": [
        -812.3974609375,
        20.804960250854492,
        38.708591461181641
      ],
      "type": "VEC3"
    },
    {
      "name": "NORMAL",
      "bufferView": 0,
      "byteOffset": 12,
      "componentType": 5126,
      "count": 25,
      "max": [
        0.00014210370136424899,
        -0.0039511695504188538,
        0.99999213218688965
      ],
      "min": [
        -0.99999183416366577,
        -1,
        -6.0056959227949847E-06
      ],
      "type": "VEC3"
    },
    {
      "name": "TEXCOORD_0",
      "bufferView": 0,
      "byteOffset": 24,
      "componentType": 5126,
      "count": 25,
      "max": [
        0.638671875,
        0.998046875
      ],
      "min": [
        0.001953125,
        0.568359375
      ],
      "type": "VEC2"
    },
    {
      "bufferView": 1,
      "componentType": 5123,
      "count": 72,
      "type": "SCALAR"
    }
  ],
  "bufferViews": [
    {
      "buffer": 0,
      "byteLength": 800,
      "byteStride": 32,
      "target": 34962
    },
    {
      "buffer": 0,
      "byteLength": 144,
      "byteOffset": 800,
      "target": 34963
    }
  ],
  "buffers": [
    {
      "byteLength": 944,
      "uri": "20525362525140624171_LOD00.bin"
    }
  ],
  "images": [
    {
      "uri": "20525362525140624171_LOD00.png"
    }
  ],
  "materials": [
    {
      "doubleSided": true,
      "pbrMetallicRoughness": {
        "baseColorTexture": {
          "index": 0
        },
        "metallicFactor": 0
      }
    }
  ],
  "meshes": [
    {
      "name": "20525362525140624171_0",
      "primitives": [
        {
          "attributes": {
            "POSITION": 0,
            "NORMAL": 1,
            "TEXCOORD_0": 2
          },
          "indices": 3,
          "material": 0
        }
      ]
    }
  ],
  "nodes": [
    {
      "mesh": 0
    }
  ],
  "scene": 0,
  "scenes": [
    {
      "nodes": [
        0
      ]
    }
  ],
  "textures": [
    {
      "source": 0
    }
  ]
}