{
  "asset": {
    "copyright": "",
    "generator": "SharpGLTF 1.0.0",
    "version": "2.0"
  },
  "accessors": [
    {
      "name": "POSITION",
      "bufferView": 0,
      "componentType": 5126,
      "count": 55,
      "max": [
        -581.3394775390625,
        37.806236267089844,
        469.08026123046875
      ],
      "min": [
        -613.45477294921875,
        33.941341400146484,
        459.05801391601563
      ],
      "type": "VEC3"
    },
    {
      "name": "NORMAL",
      "bufferView": 0,
      "byteOffset": 12,
      "componentType": 5126,
      "count": 55,
      "max": [
        0.00010774512338684872,
        -0.0040169917047023773,
        0.99999183416366577
      ],
      "min": [
        5.855643394170329E-05,
        -1,
        -7.2009694122243673E-05
      ],
      "type": "VEC3"
    },
    {
      "name": "TEXCOORD_0",
      "bufferView": 0,
      "byteOffset": 24,
      "componentType": 5126,
      "count": 55,
      "max": [
        0.841796875,
        0.998046875
      ],
      "min": [
        0.001953125,
        0.611328125
      ],
      "type": "VEC2"
    },
    {
      "bufferView": 1,
      "componentType": 5123,
      "count": 159,
      "type": "SCALAR"
    }
  ],
  "bufferViews": [
    {
      "buffer": 0,
      "byteLength": 1760,
      "byteStride": 32,
      "target": 34962
    },
    {
      "buffer": 0,
      "byteLength": 318,
      "byteOffset": 1760,
      "target": 34963
    }
  ],
  "buffers": [
    {
      "byteLength": 2080,
      "uri": "20525362525140626242_LOD00.bin"
    }
  ],
  "images": [
    {
      "uri": "20525362525140626242_LOD00.png"
    }
  ],
  "materials": [
    {
      "doubleSided": true,
      "pbrMetallicRoughness": {
        "baseColorTexture": {
          "index": 0
        },
        "metallicFactor": 0
      }
    }
  ],
  "meshes": [
    {
      "name": "20525362525140626242_0",
      "primitives": [
        {
          "attributes": {
            "POSITION": 0,
            "NORMAL": 1,
            "TEXCOORD_0": 2
          },
          "indices": 3,
          "material": 0
        }
      ]
    }
  ],
  "nodes": [
    {
      "mesh": 0
    }
  ],
  "scene": 0,
  "scenes": [
    {
      "nodes": [
        0
      ]
    }
  ],
  "textures": [
    {
      "source": 0
    }
  ]
}