{
  "asset": {
    "copyright": "",
    "generator": "SharpGLTF 1.0.0",
    "version": "2.0"
  },
  "accessors": [
    {
      "name": "POSITION",
      "bufferView": 0,
      "componentType": 5126,
      "count": 53,
      "max": [
        -613.4488525390625,
        147.12974548339844,
        420.86788940429688
      ],
      "min": [
        -619.78277587890625,
        110.6724853515625,
        417.62799072265625
      ],
      "type": "VEC3"
    },
    {
      "name": "NORMAL",
      "bufferView": 0,
      "byteOffset": 12,
      "componentType": 5126,
      "count": 53,
      "max": [
        -6.1052807723172009E-05,
        0.0055492594838142395,
        6.1391983763314784E-05
      ],
      "min": [
        -0.99999189376831055,
        -0.0055087399668991566,
        -0.9999924898147583
      ],
      "type": "VEC3"
    },
    {
      "name": "TEXCOORD_0",
      "bufferView": 0,
      "byteOffset": 24,
      "componentType": 5126,
      "count": 53,
      "max": [
        0.927734375,
        0.998046875
      ],
      "min": [
        0.001953125,
        0.373046875
      ],
      "type": "VEC2"
    },
    {
      "bufferView": 1,
      "componentType": 5123,
      "count": 159,
      "type": "SCALAR"
    }
  ],
  "bufferViews": [
    {
      "buffer": 0,
      "byteLength": 1696,
      "byteStride": 32,
      "target": 34962
    },
    {
      "buffer": 0,
      "byteLength": 318,
      "byteOffset": 1696,
      "target": 34963
    }
  ],
  "buffers": [
    {
      "byteLength": 2016,
      "uri": "20525362525140626427_LOD00.bin"
    }
  ],
  "images": [
    {
      "uri": "20525362525140626427_LOD00.png"
    }
  ],
  "materials": [
    {
      "doubleSided": true,
      "pbrMetallicRoughness": {
        "baseColorTexture": {
          "index": 0
        },
        "metallicFactor": 0
      }
    }
  ],
  "meshes": [
    {
      "name": "20525362525140626427_0",
      "primitives": [
        {
          "attributes": {
            "POSITION": 0,
            "NORMAL": 1,
            "TEXCOORD_0": 2
          },
          "indices": 3,
          "material": 0
        }
      ]
    }
  ],
  "nodes": [
    {
      "mesh": 0
    }
  ],
  "scene": 0,
  "scenes": [
    {
      "nodes": [
        0
      ]
    }
  ],
  "textures": [
    {
      "source": 0
    }
  ]
}