{
  "asset": {
    "copyright": "",
    "generator": "SharpGLTF 1.0.0",
    "version": "2.0"
  },
  "accessors": [
    {
      "name": "POSITION",
      "bufferView": 0,
      "componentType": 5126,
      "count": 426,
      "max": [
        -581.3316650390625,
        37.795616149902344,
        612.08843994140625
      ],
      "min": [
        -607.42486572265625,
        31.614154815673828,
        588.19451904296875
      ],
      "type": "VEC3"
    },
    {
      "name": "NORMAL",
      "bufferView": 0,
      "byteOffset": 12,
      "componentType": 5126,
      "count": 426,
      "max": [
        0.99999260902404785,
        0.99779289960861206,
        0.98280012607574463
      ],
      "min": [
        -0.99999189376831055,
        -0.99917513132095337,
        -0.97127652168273926
      ],
      "type": "VEC3"
    },
    {
      "name": "TEXCOORD_0",
      "bufferView": 0,
      "byteOffset": 24,
      "componentType": 5126,
      "count": 426,
      "max": [
        0.998046875,
        0.998046875
      ],
      "min": [
        0.001953125,
        0.779296875
      ],
      "type": "VEC2"
    },
    {
      "bufferView": 1,
      "componentType": 5123,
      "count": 879,
      "type": "SCALAR"
    }
  ],
  "bufferViews": [
    {
      "buffer": 0,
      "byteLength": 13632,
      "byteStride": 32,
      "target": 34962
    },
    {
      "buffer": 0,
      "byteLength": 1758,
      "byteOffset": 13632,
      "target": 34963
    }
  ],
  "buffers": [
    {
      "byteLength": 15392,
      "uri": "20525362525142404040_LOD00.bin"
    }
  ],
  "images": [
    {
      "uri": "20525362525142404040_LOD00.png"
    }
  ],
  "materials": [
    {
      "doubleSided": true,
      "pbrMetallicRoughness": {
        "baseColorTexture": {
          "index": 0
        },
        "metallicFactor": 0
      }
    }
  ],
  "meshes": [
    {
      "name": "20525362525142404040_0",
      "primitives": [
        {
          "attributes": {
            "POSITION": 0,
            "NORMAL": 1,
            "TEXCOORD_0": 2
          },
          "indices": 3,
          "material": 0
        }
      ]
    }
  ],
  "nodes": [
    {
      "mesh": 0
    }
  ],
  "scene": 0,
  "scenes": [
    {
      "nodes": [
        0
      ]
    }
  ],
  "textures": [
    {
      "source": 0
    }
  ]
}