{
  "asset": {
    "copyright": "",
    "generator": "SharpGLTF 1.0.0",
    "version": "2.0"
  },
  "accessors": [
    {
      "name": "POSITION",
      "bufferView": 0,
      "componentType": 5126,
      "count": 617,
      "max": [
        -67.751235961914063,
        37.840145111083984,
        344.41311645507813
      ],
      "min": [
        -99.866706848144531,
        20.073230743408203,
        306.18167114257813
      ],
      "type": "VEC3"
    },
    {
      "name": "NORMAL",
      "bufferView": 0,
      "byteOffset": 12,
      "componentType": 5126,
      "count": 617,
      "max": [
        0.9999922513961792,
        0.99998468160629272,
        0.99999207258224487
      ],
      "min": [
        -0.99999219179153442,
        -1,
        -0.99999231100082397
      ],
      "type": "VEC3"
    },
    {
      "name": "TEXCOORD_0",
      "bufferView": 0,
      "byteOffset": 24,
      "componentType": 5126,
      "count": 617,
      "max": [
        0.998046875,
        0.9990234375
      ],
      "min": [
        0.001953125,
        0.0009765625
      ],
      "type": "VEC2"
    },
    {
      "bufferView": 1,
      "componentType": 5123,
      "count": 1410,
      "type": "SCALAR"
    },
    {
      "name": "POSITION",
      "bufferView": 0,
      "byteOffset": 19744,
      "componentType": 5126,
      "count": 287,
      "max": [
        -67.751235961914063,
        37.840072631835938,
        344.4130859375
      ],
      "min": [
        -99.866706848144531,
        20.075054168701172,
        305.72021484375
      ],
      "type": "VEC3"
    },
    {
      "name": "NORMAL",
      "bufferView": 0,
      "byteOffset": 19756,
      "componentType": 5126,
      "count": 287,
      "max": [
        0.9999922513961792,
        0.99998468160629272,
        0.99999207258224487
      ],
      "min": [
        -0.99999219179153442,
        -1,
        -0.99999231100082397
      ],
      "type": "VEC3"
    },
    {
      "name": "TEXCOORD_0",
      "bufferView": 0,
      "byteOffset": 19768,
      "componentType": 5126,
      "count": 287,
      "max": [
        0.998046875,
        0.998046875
      ],
      "min": [
        0.001953125,
        0.154296875
      ],
      "type": "VEC2"
    },
    {
      "bufferView": 1,
      "byteOffset": 2820,
      "componentType": 5123,
      "count": 756,
      "type": "SCALAR"
    }
  ],
  "bufferViews": [
    {
      "buffer": 0,
      "byteLength": 28928,
      "byteStride": 32,
      "target": 34962
    },
    {
      "buffer": 0,
      "byteLength": 4332,
      "byteOffset": 28928,
      "target": 34963
    }
  ],
  "buffers": [
    {
      "byteLength": 33260,
      "uri": "20525362525051736042_LOD00.bin"
    }
  ],
  "images": [
    {
      "uri": "20525362525051736042_LOD00_0.png"
    },
    {
      "uri": "20525362525051736042_LOD00_1.png"
    }
  ],
  "materials": [
    {
      "doubleSided": true,
      "pbrMetallicRoughness": {
        "baseColorTexture": {
          "index": 0
        },
        "metallicFactor": 0
      }
    },
    {
      "doubleSided": true,
      "pbrMetallicRoughness": {
        "baseColorTexture": {
          "index": 1
        },
        "metallicFactor": 0
      }
    }
  ],
  "meshes": [
    {
      "name": "20525362525051736042_0",
      "primitives": [
        {
          "attributes": {
            "POSITION": 0,
            "NORMAL": 1,
            "TEXCOORD_0": 2
          },
          "indices": 3,
          "material": 0
        }
      ]
    },
    {
      "name": "20525362525051736042_1",
      "primitives": [
        {
          "attributes": {
            "POSITION": 4,
            "NORMAL": 5,
            "TEXCOORD_0": 6
          },
          "indices": 7,
          "material": 1
        }
      ]
    }
  ],
  "nodes": [
    {
      "mesh": 0
    },
    {
      "mesh": 1
    }
  ],
  "scene": 0,
  "scenes": [
    {
      "nodes": [
        0,
        1
      ]
    }
  ],
  "textures": [
    {
      "source": 0
    },
    {
      "source": 1
    }
  ]
}