{
  "asset": {
    "copyright": "",
    "generator": "SharpGLTF 1.0.0",
    "version": "2.0"
  },
  "accessors": [
    {
      "name": "POSITION",
      "bufferView": 0,
      "componentType": 5126,
      "count": 3102,
      "max": [
        -677.63720703125,
        74.696998596191406,
        497.2994384765625
      ],
      "min": [
        -709.75494384765625,
        45.505729675292969,
        459.064697265625
      ],
      "type": "VEC3"
    },
    {
      "name": "NORMAL",
      "bufferView": 0,
      "byteOffset": 12,
      "componentType": 5126,
      "count": 3102,
      "max": [
        0.99999260902404785,
        0.99998515844345093,
        0.99999195337295532
      ],
      "min": [
        -0.99897956848144531,
        -1,
        -0.99999254941940308
      ],
      "type": "VEC3"
    },
    {
      "name": "TEXCOORD_0",
      "bufferView": 0,
      "byteOffset": 24,
      "componentType": 5126,
      "count": 3102,
      "max": [
        0.998046875,
        0.9990234375
      ],
      "min": [
        0.001953125,
        0.0009765625
      ],
      "type": "VEC2"
    },
    {
      "bufferView": 1,
      "componentType": 5123,
      "count": 7029,
      "type": "SCALAR"
    },
    {
      "name": "POSITION",
      "bufferView": 0,
      "byteOffset": 99264,
      "componentType": 5126,
      "count": 1216,
      "max": [
        -677.63714599609375,
        74.234725952148438,
        497.44989013671875
      ],
      "min": [
        -709.75286865234375,
        45.969089508056641,
        459.06497192382813
      ],
      "type": "VEC3"
    },
    {
      "name": "NORMAL",
      "bufferView": 0,
      "byteOffset": 99276,
      "componentType": 5126,
      "count": 1216,
      "max": [
        0.99999260902404785,
        0.99998515844345093,
        0.99999195337295532
      ],
      "min": [
        -0.99915224313735962,
        -1,
        -0.99931186437606812
      ],
      "type": "VEC3"
    },
    {
      "name": "TEXCOORD_0",
      "bufferView": 0,
      "byteOffset": 99288,
      "componentType": 5126,
      "count": 1216,
      "max": [
        0.998046875,
        0.998046875
      ],
      "min": [
        0.001953125,
        0.392578125
      ],
      "type": "VEC2"
    },
    {
      "bufferView": 1,
      "byteOffset": 14058,
      "componentType": 5123,
      "count": 2514,
      "type": "SCALAR"
    }
  ],
  "bufferViews": [
    {
      "buffer": 0,
      "byteLength": 138176,
      "byteStride": 32,
      "target": 34962
    },
    {
      "buffer": 0,
      "byteLength": 19086,
      "byteOffset": 138176,
      "target": 34963
    }
  ],
  "buffers": [
    {
      "byteLength": 157264,
      "uri": "20525362525140626257_LOD00.bin"
    }
  ],
  "images": [
    {
      "uri": "20525362525140626257_LOD00_0.png"
    },
    {
      "uri": "20525362525140626257_LOD00_1.png"
    }
  ],
  "materials": [
    {
      "doubleSided": true,
      "pbrMetallicRoughness": {
        "baseColorTexture": {
          "index": 0
        },
        "metallicFactor": 0
      }
    },
    {
      "doubleSided": true,
      "pbrMetallicRoughness": {
        "baseColorTexture": {
          "index": 1
        },
        "metallicFactor": 0
      }
    }
  ],
  "meshes": [
    {
      "name": "20525362525140626257_0",
      "primitives": [
        {
          "attributes": {
            "POSITION": 0,
            "NORMAL": 1,
            "TEXCOORD_0": 2
          },
          "indices": 3,
          "material": 0
        }
      ]
    },
    {
      "name": "20525362525140626257_1",
      "primitives": [
        {
          "attributes": {
            "POSITION": 4,
            "NORMAL": 5,
            "TEXCOORD_0": 6
          },
          "indices": 7,
          "material": 1
        }
      ]
    }
  ],
  "nodes": [
    {
      "mesh": 0
    },
    {
      "mesh": 1
    }
  ],
  "scene": 0,
  "scenes": [
    {
      "nodes": [
        0,
        1
      ]
    }
  ],
  "textures": [
    {
      "source": 0
    },
    {
      "source": 1
    }
  ]
}