{
  "asset": {
    "copyright": "",
    "generator": "SharpGLTF 1.0.0",
    "version": "2.0"
  },
  "accessors": [
    {
      "name": "POSITION",
      "bufferView": 0,
      "componentType": 5126,
      "count": 1323,
      "max": [
        -454.50531005859375,
        38.294750213623047,
        38.703811645507813
      ],
      "min": [
        -485.07913208007813,
        35.976696014404297,
        0.010428505018353462
      ],
      "type": "VEC3"
    },
    {
      "name": "NORMAL",
      "bufferView": 0,
      "byteOffset": 12,
      "componentType": 5126,
      "count": 1323,
      "max": [
        0.9942963719367981,
        0.99998462200164795,
        0.99999213218688965
      ],
      "min": [
        -0.99464267492294312,
        -1,
        -0.97294676303863525
      ],
      "type": "VEC3"
    },
    {
      "name": "TEXCOORD_0",
      "bufferView": 0,
      "byteOffset": 24,
      "componentType": 5126,
      "count": 1323,
      "max": [
        0.998046875,
        0.998046875
      ],
      "min": [
        0.001953125,
        0.478515625
      ],
      "type": "VEC2"
    },
    {
      "bufferView": 1,
      "componentType": 5123,
      "count": 3399,
      "type": "SCALAR"
    }
  ],
  "bufferViews": [
    {
      "buffer": 0,
      "byteLength": 42336,
      "byteStride": 32,
      "target": 34962
    },
    {
      "buffer": 0,
      "byteLength": 6798,
      "byteOffset": 42336,
      "target": 34963
    }
  ],
  "buffers": [
    {
      "byteLength": 49136,
      "uri": "20525362525051735142_LOD00.bin"
    }
  ],
  "images": [
    {
      "uri": "20525362525051735142_LOD00.png"
    }
  ],
  "materials": [
    {
      "doubleSided": true,
      "pbrMetallicRoughness": {
        "baseColorTexture": {
          "index": 0
        },
        "metallicFactor": 0
      }
    }
  ],
  "meshes": [
    {
      "name": "20525362525051735142_0",
      "primitives": [
        {
          "attributes": {
            "POSITION": 0,
            "NORMAL": 1,
            "TEXCOORD_0": 2
          },
          "indices": 3,
          "material": 0
        }
      ]
    }
  ],
  "nodes": [
    {
      "mesh": 0
    }
  ],
  "scene": 0,
  "scenes": [
    {
      "nodes": [
        0
      ]
    }
  ],
  "textures": [
    {
      "source": 0
    }
  ]
}