{
  "asset": {
    "copyright": "",
    "generator": "SharpGLTF 1.0.0",
    "version": "2.0"
  },
  "accessors": [
    {
      "name": "POSITION",
      "bufferView": 0,
      "componentType": 5126,
      "count": 4288,
      "max": [
        -677.66455078125,
        68.227134704589844,
        76.932098388671875
      ],
      "min": [
        -709.7855224609375,
        38.724143981933594,
        38.393150329589844
      ],
      "type": "VEC3"
    },
    {
      "name": "NORMAL",
      "bufferView": 0,
      "byteOffset": 12,
      "componentType": 5126,
      "count": 4288,
      "max": [
        0.99999266862869263,
        0.99998486042022705,
        0.99999219179153442
      ],
      "min": [
        -0.999991774559021,
        -0.99511921405792236,
        -0.9999922513961792
      ],
      "type": "VEC3"
    },
    {
      "name": "TEXCOORD_0",
      "bufferView": 0,
      "byteOffset": 24,
      "componentType": 5126,
      "count": 4288,
      "max": [
        0.998046875,
        0.9990234375
      ],
      "min": [
        0.001953125,
        0.0009765625
      ],
      "type": "VEC2"
    },
    {
      "bufferView": 1,
      "componentType": 5123,
      "count": 10416,
      "type": "SCALAR"
    },
    {
      "name": "POSITION",
      "bufferView": 0,
      "byteOffset": 137216,
      "componentType": 5126,
      "count": 1610,
      "max": [
        -677.66473388671875,
        68.227134704589844,
        76.931198120117188
      ],
      "min": [
        -709.94000244140625,
        38.878616333007813,
        38.393150329589844
      ],
      "type": "VEC3"
    },
    {
      "name": "NORMAL",
      "bufferView": 0,
      "byteOffset": 137228,
      "componentType": 5126,
      "count": 1610,
      "max": [
        0.9993128776550293,
        0.99998486042022705,
        0.99999219179153442
      ],
      "min": [
        -0.99932068586349487,
        -0.99511921405792236,
        -0.9999922513961792
      ],
      "type": "VEC3"
    },
    {
      "name": "TEXCOORD_0",
      "bufferView": 0,
      "byteOffset": 137240,
      "componentType": 5126,
      "count": 1610,
      "max": [
        0.998046875,
        0.998046875
      ],
      "min": [
        0.001953125,
        0.412109375
      ],
      "type": "VEC2"
    },
    {
      "bufferView": 1,
      "byteOffset": 20832,
      "componentType": 5123,
      "count": 4029,
      "type": "SCALAR"
    }
  ],
  "bufferViews": [
    {
      "buffer": 0,
      "byteLength": 188736,
      "byteStride": 32,
      "target": 34962
    },
    {
      "buffer": 0,
      "byteLength": 28890,
      "byteOffset": 188736,
      "target": 34963
    }
  ],
  "buffers": [
    {
      "byteLength": 217628,
      "uri": "20525362525140624075_LOD00.bin"
    }
  ],
  "images": [
    {
      "uri": "20525362525140624075_LOD00_0.png"
    },
    {
      "uri": "20525362525140624075_LOD00_1.png"
    }
  ],
  "materials": [
    {
      "doubleSided": true,
      "pbrMetallicRoughness": {
        "baseColorTexture": {
          "index": 0
        },
        "metallicFactor": 0
      }
    },
    {
      "doubleSided": true,
      "pbrMetallicRoughness": {
        "baseColorTexture": {
          "index": 1
        },
        "metallicFactor": 0
      }
    }
  ],
  "meshes": [
    {
      "name": "20525362525140624075_0",
      "primitives": [
        {
          "attributes": {
            "POSITION": 0,
            "NORMAL": 1,
            "TEXCOORD_0": 2
          },
          "indices": 3,
          "material": 0
        }
      ]
    },
    {
      "name": "20525362525140624075_1",
      "primitives": [
        {
          "attributes": {
            "POSITION": 4,
            "NORMAL": 5,
            "TEXCOORD_0": 6
          },
          "indices": 7,
          "material": 1
        }
      ]
    }
  ],
  "nodes": [
    {
      "mesh": 0
    },
    {
      "mesh": 1
    }
  ],
  "scene": 0,
  "scenes": [
    {
      "nodes": [
        0,
        1
      ]
    }
  ],
  "textures": [
    {
      "source": 0
    },
    {
      "source": 1
    }
  ]
}