{
  "asset": {
    "copyright": "",
    "generator": "SharpGLTF 1.0.0",
    "version": "2.0"
  },
  "accessors": [
    {
      "name": "POSITION",
      "bufferView": 0,
      "componentType": 5126,
      "count": 4098,
      "max": [
        -741.85699462890625,
        58.487125396728516,
        191.5821533203125
      ],
      "min": [
        -773.97747802734375,
        42.268173217773438,
        153.34877014160156
      ],
      "type": "VEC3"
    },
    {
      "name": "NORMAL",
      "bufferView": 0,
      "byteOffset": 12,
      "componentType": 5126,
      "count": 4098,
      "max": [
        0.99999266862869263,
        0.99998492002487183,
        0.99999213218688965
      ],
      "min": [
        -0.99798756837844849,
        -1,
        -0.99999237060546875
      ],
      "type": "VEC3"
    },
    {
      "name": "TEXCOORD_0",
      "bufferView": 0,
      "byteOffset": 24,
      "componentType": 5126,
      "count": 4098,
      "max": [
        0.998046875,
        0.9990234375
      ],
      "min": [
        0.001953125,
        0.0009765625
      ],
      "type": "VEC2"
    },
    {
      "bufferView": 1,
      "componentType": 5123,
      "count": 10077,
      "type": "SCALAR"
    },
    {
      "name": "POSITION",
      "bufferView": 0,
      "byteOffset": 131136,
      "componentType": 5126,
      "count": 325,
      "max": [
        -741.8572998046875,
        58.022361755371094,
        191.58195495605469
      ],
      "min": [
        -773.9757080078125,
        42.882755279541016,
        154.89173889160156
      ],
      "type": "VEC3"
    },
    {
      "name": "NORMAL",
      "bufferView": 0,
      "byteOffset": 131148,
      "componentType": 5126,
      "count": 325,
      "max": [
        0.99999266862869263,
        0.9999847412109375,
        0.99635285139083862
      ],
      "min": [
        -0.99915814399719238,
        -0.78220945596694946,
        -0.99438363313674927
      ],
      "type": "VEC3"
    },
    {
      "name": "TEXCOORD_0",
      "bufferView": 0,
      "byteOffset": 131160,
      "componentType": 5126,
      "count": 325,
      "max": [
        0.998046875,
        0.998046875
      ],
      "min": [
        0.001953125,
        0.904296875
      ],
      "type": "VEC2"
    },
    {
      "bufferView": 1,
      "byteOffset": 20154,
      "componentType": 5123,
      "count": 696,
      "type": "SCALAR"
    }
  ],
  "bufferViews": [
    {
      "buffer": 0,
      "byteLength": 141536,
      "byteStride": 32,
      "target": 34962
    },
    {
      "buffer": 0,
      "byteLength": 21546,
      "byteOffset": 141536,
      "target": 34963
    }
  ],
  "buffers": [
    {
      "byteLength": 163084,
      "uri": "20525362525140624347_LOD00.bin"
    }
  ],
  "images": [
    {
      "uri": "20525362525140624347_LOD00_0.png"
    },
    {
      "uri": "20525362525140624347_LOD00_1.png"
    }
  ],
  "materials": [
    {
      "doubleSided": true,
      "pbrMetallicRoughness": {
        "baseColorTexture": {
          "index": 0
        },
        "metallicFactor": 0
      }
    },
    {
      "doubleSided": true,
      "pbrMetallicRoughness": {
        "baseColorTexture": {
          "index": 1
        },
        "metallicFactor": 0
      }
    }
  ],
  "meshes": [
    {
      "name": "20525362525140624347_0",
      "primitives": [
        {
          "attributes": {
            "POSITION": 0,
            "NORMAL": 1,
            "TEXCOORD_0": 2
          },
          "indices": 3,
          "material": 0
        }
      ]
    },
    {
      "name": "20525362525140624347_1",
      "primitives": [
        {
          "attributes": {
            "POSITION": 4,
            "NORMAL": 5,
            "TEXCOORD_0": 6
          },
          "indices": 7,
          "material": 1
        }
      ]
    }
  ],
  "nodes": [
    {
      "mesh": 0
    },
    {
      "mesh": 1
    }
  ],
  "scene": 0,
  "scenes": [
    {
      "nodes": [
        0,
        1
      ]
    }
  ],
  "textures": [
    {
      "source": 0
    },
    {
      "source": 1
    }
  ]
}