{
  "asset": {
    "copyright": "",
    "generator": "SharpGLTF 1.0.0",
    "version": "2.0"
  },
  "accessors": [
    {
      "name": "POSITION",
      "bufferView": 0,
      "componentType": 5126,
      "count": 885,
      "max": [
        -356.65896606445313,
        38.300693511962891,
        38.699752807617188
      ],
      "min": [
        -388.9310302734375,
        34.748313903808594,
        0.31518223881721497
      ],
      "type": "VEC3"
    },
    {
      "name": "NORMAL",
      "bufferView": 0,
      "byteOffset": 12,
      "componentType": 5126,
      "count": 885,
      "max": [
        0.75996142625808716,
        0.99998468160629272,
        0.99931490421295166
      ],
      "min": [
        -0.99931889772415161,
        -0.79931420087814331,
        -0.97506362199783325
      ],
      "type": "VEC3"
    },
    {
      "name": "TEXCOORD_0",
      "bufferView": 0,
      "byteOffset": 24,
      "componentType": 5126,
      "count": 885,
      "max": [
        0.998046875,
        0.998046875
      ],
      "min": [
        0.001953125,
        0.818359375
      ],
      "type": "VEC2"
    },
    {
      "bufferView": 1,
      "componentType": 5123,
      "count": 2415,
      "type": "SCALAR"
    }
  ],
  "bufferViews": [
    {
      "buffer": 0,
      "byteLength": 28320,
      "byteStride": 32,
      "target": 34962
    },
    {
      "buffer": 0,
      "byteLength": 4830,
      "byteOffset": 28320,
      "target": 34963
    }
  ],
  "buffers": [
    {
      "byteLength": 33152,
      "uri": "20525362525051735043_LOD00.bin"
    }
  ],
  "images": [
    {
      "uri": "20525362525051735043_LOD00.png"
    }
  ],
  "materials": [
    {
      "doubleSided": true,
      "pbrMetallicRoughness": {
        "baseColorTexture": {
          "index": 0
        },
        "metallicFactor": 0
      }
    }
  ],
  "meshes": [
    {
      "name": "20525362525051735043_0",
      "primitives": [
        {
          "attributes": {
            "POSITION": 0,
            "NORMAL": 1,
            "TEXCOORD_0": 2
          },
          "indices": 3,
          "material": 0
        }
      ]
    }
  ],
  "nodes": [
    {
      "mesh": 0
    }
  ],
  "scene": 0,
  "scenes": [
    {
      "nodes": [
        0
      ]
    }
  ],
  "textures": [
    {
      "source": 0
    }
  ]
}