{
  "asset": {
    "copyright": "",
    "generator": "SharpGLTF 1.0.0",
    "version": "2.0"
  },
  "accessors": [
    {
      "name": "POSITION",
      "bufferView": 0,
      "componentType": 5126,
      "count": 554,
      "max": [
        -99.387619018554688,
        37.837856292724609,
        380.77847290039063
      ],
      "min": [
        -132.4293212890625,
        18.52827262878418,
        343.935546875
      ],
      "type": "VEC3"
    },
    {
      "name": "NORMAL",
      "bufferView": 0,
      "byteOffset": 12,
      "componentType": 5126,
      "count": 554,
      "max": [
        0.9999922513961792,
        0.99998462200164795,
        0.99999195337295532
      ],
      "min": [
        -0.99999213218688965,
        -1,
        -0.9999924898147583
      ],
      "type": "VEC3"
    },
    {
      "name": "TEXCOORD_0",
      "bufferView": 0,
      "byteOffset": 24,
      "componentType": 5126,
      "count": 554,
      "max": [
        0.998046875,
        0.9990234375
      ],
      "min": [
        0.001953125,
        0.0009765625
      ],
      "type": "VEC2"
    },
    {
      "bufferView": 1,
      "componentType": 5123,
      "count": 1311,
      "type": "SCALAR"
    },
    {
      "name": "POSITION",
      "bufferView": 0,
      "byteOffset": 17728,
      "componentType": 5126,
      "count": 202,
      "max": [
        -99.38763427734375,
        37.837779998779297,
        363.512939453125
      ],
      "min": [
        -129.95887756347656,
        19.917608261108398,
        343.93551635742188
      ],
      "type": "VEC3"
    },
    {
      "name": "NORMAL",
      "bufferView": 0,
      "byteOffset": 17740,
      "componentType": 5126,
      "count": 202,
      "max": [
        0.9999922513961792,
        0.99998462200164795,
        0.99999195337295532
      ],
      "min": [
        -0.99999213218688965,
        -1,
        -0.053278509527444839
      ],
      "type": "VEC3"
    },
    {
      "name": "TEXCOORD_0",
      "bufferView": 0,
      "byteOffset": 17752,
      "componentType": 5126,
      "count": 202,
      "max": [
        0.970703125,
        0.998046875
      ],
      "min": [
        0.001953125,
        0.474609375
      ],
      "type": "VEC2"
    },
    {
      "bufferView": 1,
      "byteOffset": 2622,
      "componentType": 5123,
      "count": 573,
      "type": "SCALAR"
    }
  ],
  "bufferViews": [
    {
      "buffer": 0,
      "byteLength": 24192,
      "byteStride": 32,
      "target": 34962
    },
    {
      "buffer": 0,
      "byteLength": 3768,
      "byteOffset": 24192,
      "target": 34963
    }
  ],
  "buffers": [
    {
      "byteLength": 27960,
      "uri": "20525362525051736061_LOD00.bin"
    }
  ],
  "images": [
    {
      "uri": "20525362525051736061_LOD00_0.png"
    },
    {
      "uri": "20525362525051736061_LOD00_1.png"
    }
  ],
  "materials": [
    {
      "doubleSided": true,
      "pbrMetallicRoughness": {
        "baseColorTexture": {
          "index": 0
        },
        "metallicFactor": 0
      }
    },
    {
      "doubleSided": true,
      "pbrMetallicRoughness": {
        "baseColorTexture": {
          "index": 1
        },
        "metallicFactor": 0
      }
    }
  ],
  "meshes": [
    {
      "name": "20525362525051736061_0",
      "primitives": [
        {
          "attributes": {
            "POSITION": 0,
            "NORMAL": 1,
            "TEXCOORD_0": 2
          },
          "indices": 3,
          "material": 0
        }
      ]
    },
    {
      "name": "20525362525051736061_1",
      "primitives": [
        {
          "attributes": {
            "POSITION": 4,
            "NORMAL": 5,
            "TEXCOORD_0": 6
          },
          "indices": 7,
          "material": 1
        }
      ]
    }
  ],
  "nodes": [
    {
      "mesh": 0
    },
    {
      "mesh": 1
    }
  ],
  "scene": 0,
  "scenes": [
    {
      "nodes": [
        0,
        1
      ]
    }
  ],
  "textures": [
    {
      "source": 0
    },
    {
      "source": 1
    }
  ]
}