{
  "asset": {
    "copyright": "",
    "generator": "SharpGLTF 1.0.0",
    "version": "2.0"
  },
  "accessors": [
    {
      "name": "POSITION",
      "bufferView": 0,
      "componentType": 5126,
      "count": 6758,
      "max": [
        -517.155029296875,
        68.08709716796875,
        191.56770324707031
      ],
      "min": [
        -549.27423095703125,
        37.807254791259766,
        153.335205078125
      ],
      "type": "VEC3"
    },
    {
      "name": "NORMAL",
      "bufferView": 0,
      "byteOffset": 12,
      "componentType": 5126,
      "count": 6758,
      "max": [
        0.99999254941940308,
        0.99998486042022705,
        0.99999213218688965
      ],
      "min": [
        -0.99999189376831055,
        -1,
        -0.99999237060546875
      ],
      "type": "VEC3"
    },
    {
      "name": "TEXCOORD_0",
      "bufferView": 0,
      "byteOffset": 24,
      "componentType": 5126,
      "count": 6758,
      "max": [
        0.9990234375,
        0.9990234375
      ],
      "min": [
        0.0009765625,
        0.0009765625
      ],
      "type": "VEC2"
    },
    {
      "bufferView": 1,
      "componentType": 5123,
      "count": 16974,
      "type": "SCALAR"
    },
    {
      "name": "POSITION",
      "bufferView": 0,
      "byteOffset": 216256,
      "componentType": 5126,
      "count": 710,
      "max": [
        -517.15594482421875,
        67.776893615722656,
        191.56756591796875
      ],
      "min": [
        -549.27288818359375,
        38.891666412353516,
        153.3353271484375
      ],
      "type": "VEC3"
    },
    {
      "name": "NORMAL",
      "bufferView": 0,
      "byteOffset": 216268,
      "componentType": 5126,
      "count": 710,
      "max": [
        0.999153733253479,
        0.99998486042022705,
        0.99817287921905518
      ],
      "min": [
        -0.99932020902633667,
        -0.99917048215866089,
        -0.99999237060546875
      ],
      "type": "VEC3"
    },
    {
      "name": "TEXCOORD_0",
      "bufferView": 0,
      "byteOffset": 216280,
      "componentType": 5126,
      "count": 710,
      "max": [
        0.998046875,
        0.998046875
      ],
      "min": [
        0.001953125,
        0.748046875
      ],
      "type": "VEC2"
    },
    {
      "bufferView": 1,
      "byteOffset": 33948,
      "componentType": 5123,
      "count": 1572,
      "type": "SCALAR"
    }
  ],
  "bufferViews": [
    {
      "buffer": 0,
      "byteLength": 238976,
      "byteStride": 32,
      "target": 34962
    },
    {
      "buffer": 0,
      "byteLength": 37092,
      "byteOffset": 238976,
      "target": 34963
    }
  ],
  "buffers": [
    {
      "byteLength": 276068,
      "uri": "20525362525051735356_LOD00.bin"
    }
  ],
  "images": [
    {
      "uri": "20525362525051735356_LOD00_0.png"
    },
    {
      "uri": "20525362525051735356_LOD00_1.png"
    }
  ],
  "materials": [
    {
      "doubleSided": true,
      "pbrMetallicRoughness": {
        "baseColorTexture": {
          "index": 0
        },
        "metallicFactor": 0
      }
    },
    {
      "doubleSided": true,
      "pbrMetallicRoughness": {
        "baseColorTexture": {
          "index": 1
        },
        "metallicFactor": 0
      }
    }
  ],
  "meshes": [
    {
      "name": "20525362525051735356_0",
      "primitives": [
        {
          "attributes": {
            "POSITION": 0,
            "NORMAL": 1,
            "TEXCOORD_0": 2
          },
          "indices": 3,
          "material": 0
        }
      ]
    },
    {
      "name": "20525362525051735356_1",
      "primitives": [
        {
          "attributes": {
            "POSITION": 4,
            "NORMAL": 5,
            "TEXCOORD_0": 6
          },
          "indices": 7,
          "material": 1
        }
      ]
    }
  ],
  "nodes": [
    {
      "mesh": 0
    },
    {
      "mesh": 1
    }
  ],
  "scene": 0,
  "scenes": [
    {
      "nodes": [
        0,
        1
      ]
    }
  ],
  "textures": [
    {
      "source": 0
    },
    {
      "source": 1
    }
  ]
}