{
  "asset": {
    "copyright": "",
    "generator": "SharpGLTF 1.0.0",
    "version": "2.0"
  },
  "accessors": [
    {
      "name": "POSITION",
      "bufferView": 0,
      "componentType": 5126,
      "count": 2379,
      "max": [
        -196.14533996582031,
        66.227020263671875,
        611.92132568359375
      ],
      "min": [
        -228.26065063476563,
        37.801342010498047,
        573.68890380859375
      ],
      "type": "VEC3"
    },
    {
      "name": "NORMAL",
      "bufferView": 0,
      "byteOffset": 12,
      "componentType": 5126,
      "count": 2379,
      "max": [
        0.99999237060546875,
        0.99998486042022705,
        0.99914896488189697
      ],
      "min": [
        -0.99999207258224487,
        -0.99819368124008179,
        -0.99524825811386108
      ],
      "type": "VEC3"
    },
    {
      "name": "TEXCOORD_0",
      "bufferView": 0,
      "byteOffset": 24,
      "componentType": 5126,
      "count": 2379,
      "max": [
        0.9990234375,
        0.9990234375
      ],
      "min": [
        0.0009765625,
        0.0009765625
      ],
      "type": "VEC2"
    },
    {
      "bufferView": 1,
      "componentType": 5123,
      "count": 5559,
      "type": "SCALAR"
    },
    {
      "name": "POSITION",
      "bufferView": 0,
      "byteOffset": 76128,
      "componentType": 5126,
      "count": 352,
      "max": [
        -198.92454528808594,
        60.048091888427734,
        611.92108154296875
      ],
      "min": [
        -224.40098571777344,
        40.272850036621094,
        573.68927001953125
      ],
      "type": "VEC3"
    },
    {
      "name": "NORMAL",
      "bufferView": 0,
      "byteOffset": 76140,
      "componentType": 5126,
      "count": 352,
      "max": [
        0.99177414178848267,
        0.99998384714126587,
        0.99087685346603394
      ],
      "min": [
        -0.99636781215667725,
        -0.9566882848739624,
        -0.99437195062637329
      ],
      "type": "VEC3"
    },
    {
      "name": "TEXCOORD_0",
      "bufferView": 0,
      "byteOffset": 76152,
      "componentType": 5126,
      "count": 352,
      "max": [
        0.998046875,
        0.998046875
      ],
      "min": [
        0.001953125,
        0.693359375
      ],
      "type": "VEC2"
    },
    {
      "bufferView": 1,
      "byteOffset": 11118,
      "componentType": 5123,
      "count": 714,
      "type": "SCALAR"
    }
  ],
  "bufferViews": [
    {
      "buffer": 0,
      "byteLength": 87392,
      "byteStride": 32,
      "target": 34962
    },
    {
      "buffer": 0,
      "byteLength": 12546,
      "byteOffset": 87392,
      "target": 34963
    }
  ],
  "buffers": [
    {
      "byteLength": 99940,
      "uri": "20525362525053514144_LOD00.bin"
    }
  ],
  "images": [
    {
      "uri": "20525362525053514144_LOD00_0.png"
    },
    {
      "uri": "20525362525053514144_LOD00_1.png"
    }
  ],
  "materials": [
    {
      "doubleSided": true,
      "pbrMetallicRoughness": {
        "baseColorTexture": {
          "index": 0
        },
        "metallicFactor": 0
      }
    },
    {
      "doubleSided": true,
      "pbrMetallicRoughness": {
        "baseColorTexture": {
          "index": 1
        },
        "metallicFactor": 0
      }
    }
  ],
  "meshes": [
    {
      "name": "20525362525053514144_0",
      "primitives": [
        {
          "attributes": {
            "POSITION": 0,
            "NORMAL": 1,
            "TEXCOORD_0": 2
          },
          "indices": 3,
          "material": 0
        }
      ]
    },
    {
      "name": "20525362525053514144_1",
      "primitives": [
        {
          "attributes": {
            "POSITION": 4,
            "NORMAL": 5,
            "TEXCOORD_0": 6
          },
          "indices": 7,
          "material": 1
        }
      ]
    }
  ],
  "nodes": [
    {
      "mesh": 0
    },
    {
      "mesh": 1
    }
  ],
  "scene": 0,
  "scenes": [
    {
      "nodes": [
        0,
        1
      ]
    }
  ],
  "textures": [
    {
      "source": 0
    },
    {
      "source": 1
    }
  ]
}