{
  "asset": {
    "copyright": "",
    "generator": "SharpGLTF 1.0.0",
    "version": "2.0"
  },
  "accessors": [
    {
      "name": "POSITION",
      "bufferView": 0,
      "componentType": 5126,
      "count": 2759,
      "max": [
        -420.84225463867188,
        74.259124755859375,
        497.28460693359375
      ],
      "min": [
        -452.95950317382813,
        37.799873352050781,
        459.05072021484375
      ],
      "type": "VEC3"
    },
    {
      "name": "NORMAL",
      "bufferView": 0,
      "byteOffset": 12,
      "componentType": 5126,
      "count": 2759,
      "max": [
        0.9999924898147583,
        0.99998492002487183,
        0.99999195337295532
      ],
      "min": [
        -0.99999195337295532,
        -1,
        -0.99999254941940308
      ],
      "type": "VEC3"
    },
    {
      "name": "TEXCOORD_0",
      "bufferView": 0,
      "byteOffset": 24,
      "componentType": 5126,
      "count": 2759,
      "max": [
        0.9990234375,
        0.9990234375
      ],
      "min": [
        0.0009765625,
        0.0009765625
      ],
      "type": "VEC2"
    },
    {
      "bufferView": 1,
      "componentType": 5123,
      "count": 6495,
      "type": "SCALAR"
    },
    {
      "name": "POSITION",
      "bufferView": 0,
      "byteOffset": 88288,
      "componentType": 5126,
      "count": 1623,
      "max": [
        -420.84359741210938,
        72.711387634277344,
        497.2843017578125
      ],
      "min": [
        -452.95993041992188,
        43.055519104003906,
        459.05093383789063
      ],
      "type": "VEC3"
    },
    {
      "name": "NORMAL",
      "bufferView": 0,
      "byteOffset": 88300,
      "componentType": 5126,
      "count": 1623,
      "max": [
        0.9999924898147583,
        0.99998492002487183,
        0.99999195337295532
      ],
      "min": [
        -0.99999195337295532,
        -0.99917155504226685,
        -0.99999254941940308
      ],
      "type": "VEC3"
    },
    {
      "name": "TEXCOORD_0",
      "bufferView": 0,
      "byteOffset": 88312,
      "componentType": 5126,
      "count": 1623,
      "max": [
        0.998046875,
        0.998046875
      ],
      "min": [
        0.001953125,
        0.314453125
      ],
      "type": "VEC2"
    },
    {
      "bufferView": 1,
      "byteOffset": 12990,
      "componentType": 5123,
      "count": 3774,
      "type": "SCALAR"
    }
  ],
  "bufferViews": [
    {
      "buffer": 0,
      "byteLength": 140224,
      "byteStride": 32,
      "target": 34962
    },
    {
      "buffer": 0,
      "byteLength": 20538,
      "byteOffset": 140224,
      "target": 34963
    }
  ],
  "buffers": [
    {
      "byteLength": 160764,
      "uri": "20525362525051737257_LOD00.bin"
    }
  ],
  "images": [
    {
      "uri": "20525362525051737257_LOD00_0.png"
    },
    {
      "uri": "20525362525051737257_LOD00_1.png"
    }
  ],
  "materials": [
    {
      "doubleSided": true,
      "pbrMetallicRoughness": {
        "baseColorTexture": {
          "index": 0
        },
        "metallicFactor": 0
      }
    },
    {
      "doubleSided": true,
      "pbrMetallicRoughness": {
        "baseColorTexture": {
          "index": 1
        },
        "metallicFactor": 0
      }
    }
  ],
  "meshes": [
    {
      "name": "20525362525051737257_0",
      "primitives": [
        {
          "attributes": {
            "POSITION": 0,
            "NORMAL": 1,
            "TEXCOORD_0": 2
          },
          "indices": 3,
          "material": 0
        }
      ]
    },
    {
      "name": "20525362525051737257_1",
      "primitives": [
        {
          "attributes": {
            "POSITION": 4,
            "NORMAL": 5,
            "TEXCOORD_0": 6
          },
          "indices": 7,
          "material": 1
        }
      ]
    }
  ],
  "nodes": [
    {
      "mesh": 0
    },
    {
      "mesh": 1
    }
  ],
  "scene": 0,
  "scenes": [
    {
      "nodes": [
        0,
        1
      ]
    }
  ],
  "textures": [
    {
      "source": 0
    },
    {
      "source": 1
    }
  ]
}