{
  "asset": {
    "copyright": "",
    "generator": "SharpGLTF 1.0.0",
    "version": "2.0"
  },
  "accessors": [
    {
      "name": "POSITION",
      "bufferView": 0,
      "componentType": 5126,
      "count": 2012,
      "max": [
        -67.75140380859375,
        74.281082153320313,
        344.41445922851563
      ],
      "min": [
        -100.17571258544922,
        37.360904693603516,
        305.72012329101563
      ],
      "type": "VEC3"
    },
    {
      "name": "NORMAL",
      "bufferView": 0,
      "byteOffset": 12,
      "componentType": 5126,
      "count": 2012,
      "max": [
        0.99999231100082397,
        0.99998468160629272,
        0.99999207258224487
      ],
      "min": [
        -0.99999219179153442,
        -1,
        -0.99999237060546875
      ],
      "type": "VEC3"
    },
    {
      "name": "TEXCOORD_0",
      "bufferView": 0,
      "byteOffset": 24,
      "componentType": 5126,
      "count": 2012,
      "max": [
        0.9990234375,
        0.9990234375
      ],
      "min": [
        0.0009765625,
        0.0009765625
      ],
      "type": "VEC2"
    },
    {
      "bufferView": 1,
      "componentType": 5123,
      "count": 4593,
      "type": "SCALAR"
    },
    {
      "name": "POSITION",
      "bufferView": 0,
      "byteOffset": 64384,
      "componentType": 5126,
      "count": 233,
      "max": [
        -68.369171142578125,
        74.281082153320313,
        344.41445922851563
      ],
      "min": [
        -99.712432861328125,
        37.823036193847656,
        306.18295288085938
      ],
      "type": "VEC3"
    },
    {
      "name": "NORMAL",
      "bufferView": 0,
      "byteOffset": 64396,
      "componentType": 5126,
      "count": 233,
      "max": [
        0.99999231100082397,
        0.99998468160629272,
        0.99999207258224487
      ],
      "min": [
        -0.99999219179153442,
        -1,
        -0.99999237060546875
      ],
      "type": "VEC3"
    },
    {
      "name": "TEXCOORD_0",
      "bufferView": 0,
      "byteOffset": 64408,
      "componentType": 5126,
      "count": 233,
      "max": [
        0.998046875,
        0.998046875
      ],
      "min": [
        0.001953125,
        0.658203125
      ],
      "type": "VEC2"
    },
    {
      "bufferView": 1,
      "byteOffset": 9186,
      "componentType": 5123,
      "count": 474,
      "type": "SCALAR"
    }
  ],
  "bufferViews": [
    {
      "buffer": 0,
      "byteLength": 71840,
      "byteStride": 32,
      "target": 34962
    },
    {
      "buffer": 0,
      "byteLength": 10134,
      "byteOffset": 71840,
      "target": 34963
    }
  ],
  "buffers": [
    {
      "byteLength": 81976,
      "uri": "20525362525051736046_LOD00.bin"
    }
  ],
  "images": [
    {
      "uri": "20525362525051736046_LOD00_0.png"
    },
    {
      "uri": "20525362525051736046_LOD00_1.png"
    }
  ],
  "materials": [
    {
      "doubleSided": true,
      "pbrMetallicRoughness": {
        "baseColorTexture": {
          "index": 0
        },
        "metallicFactor": 0
      }
    },
    {
      "doubleSided": true,
      "pbrMetallicRoughness": {
        "baseColorTexture": {
          "index": 1
        },
        "metallicFactor": 0
      }
    }
  ],
  "meshes": [
    {
      "name": "20525362525051736046_0",
      "primitives": [
        {
          "attributes": {
            "POSITION": 0,
            "NORMAL": 1,
            "TEXCOORD_0": 2
          },
          "indices": 3,
          "material": 0
        }
      ]
    },
    {
      "name": "20525362525051736046_1",
      "primitives": [
        {
          "attributes": {
            "POSITION": 4,
            "NORMAL": 5,
            "TEXCOORD_0": 6
          },
          "indices": 7,
          "material": 1
        }
      ]
    }
  ],
  "nodes": [
    {
      "mesh": 0
    },
    {
      "mesh": 1
    }
  ],
  "scene": 0,
  "scenes": [
    {
      "nodes": [
        0,
        1
      ]
    }
  ],
  "textures": [
    {
      "source": 0
    },
    {
      "source": 1
    }
  ]
}