{
  "asset": {
    "copyright": "",
    "generator": "SharpGLTF 1.0.0",
    "version": "2.0"
  },
  "accessors": [
    {
      "name": "POSITION",
      "bufferView": 0,
      "componentType": 5126,
      "count": 1090,
      "max": [
        -485.03549194335938,
        62.039264678955078,
        611.932373046875
      ],
      "min": [
        -517.6143798828125,
        44.428756713867188,
        573.69879150390625
      ],
      "type": "VEC3"
    },
    {
      "name": "NORMAL",
      "bufferView": 0,
      "byteOffset": 12,
      "componentType": 5126,
      "count": 1090,
      "max": [
        0.99999260902404785,
        0.99998515844345093,
        0.99915176630020142
      ],
      "min": [
        -0.99798822402954102,
        -1,
        -0.99999254941940308
      ],
      "type": "VEC3"
    },
    {
      "name": "TEXCOORD_0",
      "bufferView": 0,
      "byteOffset": 24,
      "componentType": 5126,
      "count": 1090,
      "max": [
        0.998046875,
        0.9990234375
      ],
      "min": [
        0.001953125,
        0.0009765625
      ],
      "type": "VEC2"
    },
    {
      "bufferView": 1,
      "componentType": 5123,
      "count": 2487,
      "type": "SCALAR"
    },
    {
      "name": "POSITION",
      "bufferView": 0,
      "byteOffset": 34880,
      "componentType": 5126,
      "count": 698,
      "max": [
        -488.43255615234375,
        62.039264678955078,
        611.93231201171875
      ],
      "min": [
        -517.15234375,
        44.741199493408203,
        573.69915771484375
      ],
      "type": "VEC3"
    },
    {
      "name": "NORMAL",
      "bufferView": 0,
      "byteOffset": 34892,
      "componentType": 5126,
      "count": 698,
      "max": [
        0.99999260902404785,
        0.99998515844345093,
        0.99931794404983521
      ],
      "min": [
        -0.99092364311218262,
        -0.86365938186645508,
        -0.99999254941940308
      ],
      "type": "VEC3"
    },
    {
      "name": "TEXCOORD_0",
      "bufferView": 0,
      "byteOffset": 34904,
      "componentType": 5126,
      "count": 698,
      "max": [
        0.998046875,
        0.998046875
      ],
      "min": [
        0.001953125,
        0.205078125
      ],
      "type": "VEC2"
    },
    {
      "bufferView": 1,
      "byteOffset": 4974,
      "componentType": 5123,
      "count": 1650,
      "type": "SCALAR"
    }
  ],
  "bufferViews": [
    {
      "buffer": 0,
      "byteLength": 57216,
      "byteStride": 32,
      "target": 34962
    },
    {
      "buffer": 0,
      "byteLength": 8274,
      "byteOffset": 57216,
      "target": 34963
    }
  ],
  "buffers": [
    {
      "byteLength": 65492,
      "uri": "20525362525053515145_LOD00.bin"
    }
  ],
  "images": [
    {
      "uri": "20525362525053515145_LOD00_0.png"
    },
    {
      "uri": "20525362525053515145_LOD00_1.png"
    }
  ],
  "materials": [
    {
      "doubleSided": true,
      "pbrMetallicRoughness": {
        "baseColorTexture": {
          "index": 0
        },
        "metallicFactor": 0
      }
    },
    {
      "doubleSided": true,
      "pbrMetallicRoughness": {
        "baseColorTexture": {
          "index": 1
        },
        "metallicFactor": 0
      }
    }
  ],
  "meshes": [
    {
      "name": "20525362525053515145_0",
      "primitives": [
        {
          "attributes": {
            "POSITION": 0,
            "NORMAL": 1,
            "TEXCOORD_0": 2
          },
          "indices": 3,
          "material": 0
        }
      ]
    },
    {
      "name": "20525362525053515145_1",
      "primitives": [
        {
          "attributes": {
            "POSITION": 4,
            "NORMAL": 5,
            "TEXCOORD_0": 6
          },
          "indices": 7,
          "material": 1
        }
      ]
    }
  ],
  "nodes": [
    {
      "mesh": 0
    },
    {
      "mesh": 1
    }
  ],
  "scene": 0,
  "scenes": [
    {
      "nodes": [
        0,
        1
      ]
    }
  ],
  "textures": [
    {
      "source": 0
    },
    {
      "source": 1
    }
  ]
}