{
  "asset": {
    "copyright": "",
    "generator": "SharpGLTF 1.0.0",
    "version": "2.0"
  },
  "accessors": [
    {
      "name": "POSITION",
      "bufferView": 0,
      "componentType": 5126,
      "count": 3885,
      "max": [
        -741.8597412109375,
        61.421886444091797,
        153.36703491210938
      ],
      "min": [
        -773.97955322265625,
        41.651027679443359,
        114.98213195800781
      ],
      "type": "VEC3"
    },
    {
      "name": "NORMAL",
      "bufferView": 0,
      "byteOffset": 12,
      "componentType": 5126,
      "count": 3885,
      "max": [
        0.99999266862869263,
        0.9999849796295166,
        0.99999213218688965
      ],
      "min": [
        -0.99999183416366577,
        -0.9964144229888916,
        -0.9999922513961792
      ],
      "type": "VEC3"
    },
    {
      "name": "TEXCOORD_0",
      "bufferView": 0,
      "byteOffset": 24,
      "componentType": 5126,
      "count": 3885,
      "max": [
        0.998046875,
        0.9990234375
      ],
      "min": [
        0.001953125,
        0.0009765625
      ],
      "type": "VEC2"
    },
    {
      "bufferView": 1,
      "componentType": 5123,
      "count": 9156,
      "type": "SCALAR"
    },
    {
      "name": "POSITION",
      "bufferView": 0,
      "byteOffset": 124320,
      "componentType": 5126,
      "count": 1611,
      "max": [
        -741.86114501953125,
        61.422103881835938,
        153.36605834960938
      ],
      "min": [
        -773.97930908203125,
        41.8050537109375,
        115.13432312011719
      ],
      "type": "VEC3"
    },
    {
      "name": "NORMAL",
      "bufferView": 0,
      "byteOffset": 124332,
      "componentType": 5126,
      "count": 1611,
      "max": [
        0.99999266862869263,
        0.9999849796295166,
        0.99999213218688965
      ],
      "min": [
        -0.99999183416366577,
        -0.98788154125213623,
        -0.9999922513961792
      ],
      "type": "VEC3"
    },
    {
      "name": "TEXCOORD_0",
      "bufferView": 0,
      "byteOffset": 124344,
      "componentType": 5126,
      "count": 1611,
      "max": [
        0.998046875,
        0.998046875
      ],
      "min": [
        0.001953125,
        0.388671875
      ],
      "type": "VEC2"
    },
    {
      "bufferView": 1,
      "byteOffset": 18312,
      "componentType": 5123,
      "count": 3726,
      "type": "SCALAR"
    }
  ],
  "bufferViews": [
    {
      "buffer": 0,
      "byteLength": 175872,
      "byteStride": 32,
      "target": 34962
    },
    {
      "buffer": 0,
      "byteLength": 25764,
      "byteOffset": 175872,
      "target": 34963
    }
  ],
  "buffers": [
    {
      "byteLength": 201636,
      "uri": "20525362525140624345_LOD00.bin"
    }
  ],
  "images": [
    {
      "uri": "20525362525140624345_LOD00_0.png"
    },
    {
      "uri": "20525362525140624345_LOD00_1.png"
    }
  ],
  "materials": [
    {
      "doubleSided": true,
      "pbrMetallicRoughness": {
        "baseColorTexture": {
          "index": 0
        },
        "metallicFactor": 0
      }
    },
    {
      "doubleSided": true,
      "pbrMetallicRoughness": {
        "baseColorTexture": {
          "index": 1
        },
        "metallicFactor": 0
      }
    }
  ],
  "meshes": [
    {
      "name": "20525362525140624345_0",
      "primitives": [
        {
          "attributes": {
            "POSITION": 0,
            "NORMAL": 1,
            "TEXCOORD_0": 2
          },
          "indices": 3,
          "material": 0
        }
      ]
    },
    {
      "name": "20525362525140624345_1",
      "primitives": [
        {
          "attributes": {
            "POSITION": 4,
            "NORMAL": 5,
            "TEXCOORD_0": 6
          },
          "indices": 7,
          "material": 1
        }
      ]
    }
  ],
  "nodes": [
    {
      "mesh": 0
    },
    {
      "mesh": 1
    }
  ],
  "scene": 0,
  "scenes": [
    {
      "nodes": [
        0,
        1
      ]
    }
  ],
  "textures": [
    {
      "source": 0
    },
    {
      "source": 1
    }
  ]
}