{
  "asset": {
    "copyright": "",
    "generator": "SharpGLTF 1.0.0",
    "version": "2.0"
  },
  "accessors": [
    {
      "name": "POSITION",
      "bufferView": 0,
      "componentType": 5126,
      "count": 3594,
      "max": [
        -677.63116455078125,
        51.524543762207031,
        573.57281494140625
      ],
      "min": [
        -710.20904541015625,
        37.462139129638672,
        535.1866455078125
      ],
      "type": "VEC3"
    },
    {
      "name": "NORMAL",
      "bufferView": 0,
      "byteOffset": 12,
      "componentType": 5126,
      "count": 3594,
      "max": [
        0.99817788600921631,
        0.99998509883880615,
        0.99999189376831055
      ],
      "min": [
        -0.99637490510940552,
        -0.9981997013092041,
        -0.99816960096359253
      ],
      "type": "VEC3"
    },
    {
      "name": "TEXCOORD_0",
      "bufferView": 0,
      "byteOffset": 24,
      "componentType": 5126,
      "count": 3594,
      "max": [
        0.998046875,
        0.9990234375
      ],
      "min": [
        0.001953125,
        0.0009765625
      ],
      "type": "VEC2"
    },
    {
      "bufferView": 1,
      "componentType": 5123,
      "count": 8244,
      "type": "SCALAR"
    },
    {
      "name": "POSITION",
      "bufferView": 0,
      "byteOffset": 115008,
      "componentType": 5126,
      "count": 451,
      "max": [
        -677.6326904296875,
        51.058879852294922,
        571.4141845703125
      ],
      "min": [
        -709.74896240234375,
        37.7718505859375,
        535.49591064453125
      ],
      "type": "VEC3"
    },
    {
      "name": "NORMAL",
      "bufferView": 0,
      "byteOffset": 115020,
      "componentType": 5126,
      "count": 451,
      "max": [
        0.99817788600921631,
        0.99998509883880615,
        0.9989774227142334
      ],
      "min": [
        -0.99915224313735962,
        -0.98493552207946777,
        -0.99915331602096558
      ],
      "type": "VEC3"
    },
    {
      "name": "TEXCOORD_0",
      "bufferView": 0,
      "byteOffset": 115032,
      "componentType": 5126,
      "count": 451,
      "max": [
        0.998046875,
        0.998046875
      ],
      "min": [
        0.001953125,
        0.833984375
      ],
      "type": "VEC2"
    },
    {
      "bufferView": 1,
      "byteOffset": 16488,
      "componentType": 5123,
      "count": 906,
      "type": "SCALAR"
    }
  ],
  "bufferViews": [
    {
      "buffer": 0,
      "byteLength": 129440,
      "byteStride": 32,
      "target": 34962
    },
    {
      "buffer": 0,
      "byteLength": 18300,
      "byteOffset": 129440,
      "target": 34963
    }
  ],
  "buffers": [
    {
      "byteLength": 147740,
      "uri": "20525362525140626277_LOD00.bin"
    }
  ],
  "images": [
    {
      "uri": "20525362525140626277_LOD00_0.png"
    },
    {
      "uri": "20525362525140626277_LOD00_1.png"
    }
  ],
  "materials": [
    {
      "doubleSided": true,
      "pbrMetallicRoughness": {
        "baseColorTexture": {
          "index": 0
        },
        "metallicFactor": 0
      }
    },
    {
      "doubleSided": true,
      "pbrMetallicRoughness": {
        "baseColorTexture": {
          "index": 1
        },
        "metallicFactor": 0
      }
    }
  ],
  "meshes": [
    {
      "name": "20525362525140626277_0",
      "primitives": [
        {
          "attributes": {
            "POSITION": 0,
            "NORMAL": 1,
            "TEXCOORD_0": 2
          },
          "indices": 3,
          "material": 0
        }
      ]
    },
    {
      "name": "20525362525140626277_1",
      "primitives": [
        {
          "attributes": {
            "POSITION": 4,
            "NORMAL": 5,
            "TEXCOORD_0": 6
          },
          "indices": 7,
          "material": 1
        }
      ]
    }
  ],
  "nodes": [
    {
      "mesh": 0
    },
    {
      "mesh": 1
    }
  ],
  "scene": 0,
  "scenes": [
    {
      "nodes": [
        0,
        1
      ]
    }
  ],
  "textures": [
    {
      "source": 0
    },
    {
      "source": 1
    }
  ]
}