{
  "asset": {
    "copyright": "",
    "generator": "SharpGLTF 1.0.0",
    "version": "2.0"
  },
  "accessors": [
    {
      "name": "POSITION",
      "bufferView": 0,
      "componentType": 5126,
      "count": 215,
      "max": [
        -131.95146179199219,
        37.842342376708984,
        267.98382568359375
      ],
      "min": [
        -164.06752014160156,
        9.5724630355834961,
        229.29061889648438
      ],
      "type": "VEC3"
    },
    {
      "name": "NORMAL",
      "bufferView": 0,
      "byteOffset": 12,
      "componentType": 5126,
      "count": 215,
      "max": [
        0.98002874851226807,
        0.99998468160629272,
        0.99999207258224487
      ],
      "min": [
        -0.64052820205688477,
        -1,
        -0.0039083268493413925
      ],
      "type": "VEC3"
    },
    {
      "name": "TEXCOORD_0",
      "bufferView": 0,
      "byteOffset": 24,
      "componentType": 5126,
      "count": 215,
      "max": [
        0.986328125,
        0.9990234375
      ],
      "min": [
        0.001953125,
        0.1201171875
      ],
      "type": "VEC2"
    },
    {
      "bufferView": 1,
      "componentType": 5123,
      "count": 633,
      "type": "SCALAR"
    }
  ],
  "bufferViews": [
    {
      "buffer": 0,
      "byteLength": 6880,
      "byteStride": 32,
      "target": 34962
    },
    {
      "buffer": 0,
      "byteLength": 1266,
      "byteOffset": 6880,
      "target": 34963
    }
  ],
  "buffers": [
    {
      "byteLength": 8148,
      "uri": "20525362525051734272_LOD00.bin"
    }
  ],
  "images": [
    {
      "uri": "20525362525051734272_LOD00.png"
    }
  ],
  "materials": [
    {
      "doubleSided": true,
      "pbrMetallicRoughness": {
        "baseColorTexture": {
          "index": 0
        },
        "metallicFactor": 0
      }
    }
  ],
  "meshes": [
    {
      "name": "20525362525051734272_0",
      "primitives": [
        {
          "attributes": {
            "POSITION": 0,
            "NORMAL": 1,
            "TEXCOORD_0": 2
          },
          "indices": 3,
          "material": 0
        }
      ]
    }
  ],
  "nodes": [
    {
      "mesh": 0
    }
  ],
  "scene": 0,
  "scenes": [
    {
      "nodes": [
        0
      ]
    }
  ],
  "textures": [
    {
      "source": 0
    }
  ]
}