{
  "asset": {
    "copyright": "",
    "generator": "SharpGLTF 1.0.0",
    "version": "2.0"
  },
  "accessors": [
    {
      "name": "POSITION",
      "bufferView": 0,
      "componentType": 5126,
      "count": 4479,
      "max": [
        -838.13336181640625,
        61.551040649414063,
        497.31039428710938
      ],
      "min": [
        -870.71484375,
        49.191925048828125,
        459.07766723632813
      ],
      "type": "VEC3"
    },
    {
      "name": "NORMAL",
      "bufferView": 0,
      "byteOffset": 12,
      "componentType": 5126,
      "count": 4479,
      "max": [
        0.99915939569473267,
        0.99998527765274048,
        0.99999195337295532
      ],
      "min": [
        -0.99999165534973145,
        -1,
        -0.9999924898147583
      ],
      "type": "VEC3"
    },
    {
      "name": "TEXCOORD_0",
      "bufferView": 0,
      "byteOffset": 24,
      "componentType": 5126,
      "count": 4479,
      "max": [
        0.998046875,
        0.9990234375
      ],
      "min": [
        0.001953125,
        0.0009765625
      ],
      "type": "VEC2"
    },
    {
      "bufferView": 1,
      "componentType": 5123,
      "count": 10557,
      "type": "SCALAR"
    },
    {
      "name": "POSITION",
      "bufferView": 0,
      "byteOffset": 143328,
      "componentType": 5126,
      "count": 718,
      "max": [
        -838.13482666015625,
        61.089530944824219,
        497.30856323242188
      ],
      "min": [
        -870.252197265625,
        49.656360626220703,
        459.07815551757813
      ],
      "type": "VEC3"
    },
    {
      "name": "NORMAL",
      "bufferView": 0,
      "byteOffset": 143340,
      "componentType": 5126,
      "count": 718,
      "max": [
        0.99915939569473267,
        0.99998527765274048,
        0.99999195337295532
      ],
      "min": [
        -0.99932223558425903,
        -0.99917417764663696,
        -0.99931252002716064
      ],
      "type": "VEC3"
    },
    {
      "name": "TEXCOORD_0",
      "bufferView": 0,
      "byteOffset": 143352,
      "componentType": 5126,
      "count": 718,
      "max": [
        0.998046875,
        0.998046875
      ],
      "min": [
        0.001953125,
        0.787109375
      ],
      "type": "VEC2"
    },
    {
      "bufferView": 1,
      "byteOffset": 21114,
      "componentType": 5123,
      "count": 1578,
      "type": "SCALAR"
    }
  ],
  "bufferViews": [
    {
      "buffer": 0,
      "byteLength": 166304,
      "byteStride": 32,
      "target": 34962
    },
    {
      "buffer": 0,
      "byteLength": 24270,
      "byteOffset": 166304,
      "target": 34963
    }
  ],
  "buffers": [
    {
      "byteLength": 190576,
      "uri": "20525362525140627246_LOD00.bin"
    }
  ],
  "images": [
    {
      "uri": "20525362525140627246_LOD00_0.png"
    },
    {
      "uri": "20525362525140627246_LOD00_1.png"
    }
  ],
  "materials": [
    {
      "doubleSided": true,
      "pbrMetallicRoughness": {
        "baseColorTexture": {
          "index": 0
        },
        "metallicFactor": 0
      }
    },
    {
      "doubleSided": true,
      "pbrMetallicRoughness": {
        "baseColorTexture": {
          "index": 1
        },
        "metallicFactor": 0
      }
    }
  ],
  "meshes": [
    {
      "name": "20525362525140627246_0",
      "primitives": [
        {
          "attributes": {
            "POSITION": 0,
            "NORMAL": 1,
            "TEXCOORD_0": 2
          },
          "indices": 3,
          "material": 0
        }
      ]
    },
    {
      "name": "20525362525140627246_1",
      "primitives": [
        {
          "attributes": {
            "POSITION": 4,
            "NORMAL": 5,
            "TEXCOORD_0": 6
          },
          "indices": 7,
          "material": 1
        }
      ]
    }
  ],
  "nodes": [
    {
      "mesh": 0
    },
    {
      "mesh": 1
    }
  ],
  "scene": 0,
  "scenes": [
    {
      "nodes": [
        0,
        1
      ]
    }
  ],
  "textures": [
    {
      "source": 0
    },
    {
      "source": 1
    }
  ]
}