{
  "asset": {
    "copyright": "",
    "generator": "SharpGLTF 1.0.0",
    "version": "2.0"
  },
  "accessors": [
    {
      "name": "POSITION",
      "bufferView": 0,
      "componentType": 5126,
      "count": 4868,
      "max": [
        -420.85690307617188,
        62.224079132080078,
        153.65473937988281
      ],
      "min": [
        -452.97491455078125,
        37.662509918212891,
        114.96302795410156
      ],
      "type": "VEC3"
    },
    {
      "name": "NORMAL",
      "bufferView": 0,
      "byteOffset": 12,
      "componentType": 5126,
      "count": 4868,
      "max": [
        0.9999924898147583,
        0.99998480081558228,
        0.99999213218688965
      ],
      "min": [
        -0.99931961297988892,
        -1,
        -0.9999922513961792
      ],
      "type": "VEC3"
    },
    {
      "name": "TEXCOORD_0",
      "bufferView": 0,
      "byteOffset": 24,
      "componentType": 5126,
      "count": 4868,
      "max": [
        0.998046875,
        0.9990234375
      ],
      "min": [
        0.001953125,
        0.0009765625
      ],
      "type": "VEC2"
    },
    {
      "bufferView": 1,
      "componentType": 5123,
      "count": 11703,
      "type": "SCALAR"
    },
    {
      "name": "POSITION",
      "bufferView": 0,
      "byteOffset": 155776,
      "componentType": 5126,
      "count": 2919,
      "max": [
        -420.85690307617188,
        62.224079132080078,
        153.3472900390625
      ],
      "min": [
        -452.97488403320313,
        37.816967010498047,
        114.96167755126953
      ],
      "type": "VEC3"
    },
    {
      "name": "NORMAL",
      "bufferView": 0,
      "byteOffset": 155788,
      "componentType": 5126,
      "count": 2919,
      "max": [
        0.99915415048599243,
        0.99998480081558228,
        0.99999213218688965
      ],
      "min": [
        -0.99931961297988892,
        -1,
        -0.9999922513961792
      ],
      "type": "VEC3"
    },
    {
      "name": "TEXCOORD_0",
      "bufferView": 0,
      "byteOffset": 155800,
      "componentType": 5126,
      "count": 2919,
      "max": [
        0.998046875,
        0.998046875
      ],
      "min": [
        0.001953125,
        0.048828125
      ],
      "type": "VEC2"
    },
    {
      "bufferView": 1,
      "byteOffset": 23406,
      "componentType": 5123,
      "count": 6660,
      "type": "SCALAR"
    }
  ],
  "bufferViews": [
    {
      "buffer": 0,
      "byteLength": 249184,
      "byteStride": 32,
      "target": 34962
    },
    {
      "buffer": 0,
      "byteLength": 36726,
      "byteOffset": 249184,
      "target": 34963
    }
  ],
  "buffers": [
    {
      "byteLength": 285912,
      "uri": "20525362525051735255_LOD00.bin"
    }
  ],
  "images": [
    {
      "uri": "20525362525051735255_LOD00_0.png"
    },
    {
      "uri": "20525362525051735255_LOD00_1.png"
    }
  ],
  "materials": [
    {
      "doubleSided": true,
      "pbrMetallicRoughness": {
        "baseColorTexture": {
          "index": 0
        },
        "metallicFactor": 0
      }
    },
    {
      "doubleSided": true,
      "pbrMetallicRoughness": {
        "baseColorTexture": {
          "index": 1
        },
        "metallicFactor": 0
      }
    }
  ],
  "meshes": [
    {
      "name": "20525362525051735255_0",
      "primitives": [
        {
          "attributes": {
            "POSITION": 0,
            "NORMAL": 1,
            "TEXCOORD_0": 2
          },
          "indices": 3,
          "material": 0
        }
      ]
    },
    {
      "name": "20525362525051735255_1",
      "primitives": [
        {
          "attributes": {
            "POSITION": 4,
            "NORMAL": 5,
            "TEXCOORD_0": 6
          },
          "indices": 7,
          "material": 1
        }
      ]
    }
  ],
  "nodes": [
    {
      "mesh": 0
    },
    {
      "mesh": 1
    }
  ],
  "scene": 0,
  "scenes": [
    {
      "nodes": [
        0,
        1
      ]
    }
  ],
  "textures": [
    {
      "source": 0
    },
    {
      "source": 1
    }
  ]
}