{
  "asset": {
    "copyright": "",
    "generator": "SharpGLTF 1.0.0",
    "version": "2.0"
  },
  "accessors": [
    {
      "name": "POSITION",
      "bufferView": 0,
      "componentType": 5126,
      "count": 427,
      "max": [
        -420.86041259765625,
        38.296085357666016,
        38.701969146728516
      ],
      "min": [
        -444.3316650390625,
        34.7431640625,
        0.47136732935905457
      ],
      "type": "VEC3"
    },
    {
      "name": "NORMAL",
      "bufferView": 0,
      "byteOffset": 12,
      "componentType": 5126,
      "count": 427,
      "max": [
        0.99799484014511108,
        0.99998462200164795,
        0.99999213218688965
      ],
      "min": [
        -0.99464714527130127,
        -0.36081033945083618,
        -0.9943767786026001
      ],
      "type": "VEC3"
    },
    {
      "name": "TEXCOORD_0",
      "bufferView": 0,
      "byteOffset": 24,
      "componentType": 5126,
      "count": 427,
      "max": [
        0.998046875,
        0.998046875
      ],
      "min": [
        0.001953125,
        0.865234375
      ],
      "type": "VEC2"
    },
    {
      "bufferView": 1,
      "componentType": 5123,
      "count": 1155,
      "type": "SCALAR"
    }
  ],
  "bufferViews": [
    {
      "buffer": 0,
      "byteLength": 13664,
      "byteStride": 32,
      "target": 34962
    },
    {
      "buffer": 0,
      "byteLength": 2310,
      "byteOffset": 13664,
      "target": 34963
    }
  ],
  "buffers": [
    {
      "byteLength": 15976,
      "uri": "20525362525051735053_LOD00.bin"
    }
  ],
  "images": [
    {
      "uri": "20525362525051735053_LOD00.png"
    }
  ],
  "materials": [
    {
      "doubleSided": true,
      "pbrMetallicRoughness": {
        "baseColorTexture": {
          "index": 0
        },
        "metallicFactor": 0
      }
    }
  ],
  "meshes": [
    {
      "name": "20525362525051735053_0",
      "primitives": [
        {
          "attributes": {
            "POSITION": 0,
            "NORMAL": 1,
            "TEXCOORD_0": 2
          },
          "indices": 3,
          "material": 0
        }
      ]
    }
  ],
  "nodes": [
    {
      "mesh": 0
    }
  ],
  "scene": 0,
  "scenes": [
    {
      "nodes": [
        0
      ]
    }
  ],
  "textures": [
    {
      "source": 0
    }
  ]
}