{
  "asset": {
    "copyright": "",
    "generator": "SharpGLTF 1.0.0",
    "version": "2.0"
  },
  "accessors": [
    {
      "name": "POSITION",
      "bufferView": 0,
      "componentType": 5126,
      "count": 134,
      "max": [
        -773.9725341796875,
        110.68411254882813,
        40.710487365722656
      ],
      "min": [
        -798.064453125,
        74.224739074707031,
        38.399951934814453
      ],
      "type": "VEC3"
    },
    {
      "name": "NORMAL",
      "bufferView": 0,
      "byteOffset": 12,
      "componentType": 5126,
      "count": 134,
      "max": [
        0.99999266862869263,
        -0.0038177433889359236,
        0.99999213218688965
      ],
      "min": [
        -0.99999183416366577,
        -0.0056649907492101192,
        -7.7869983215350658E-05
      ],
      "type": "VEC3"
    },
    {
      "name": "TEXCOORD_0",
      "bufferView": 0,
      "byteOffset": 24,
      "componentType": 5126,
      "count": 134,
      "max": [
        0.958984375,
        0.998046875
      ],
      "min": [
        0.001953125,
        0.232421875
      ],
      "type": "VEC2"
    },
    {
      "bufferView": 1,
      "componentType": 5123,
      "count": 357,
      "type": "SCALAR"
    }
  ],
  "bufferViews": [
    {
      "buffer": 0,
      "byteLength": 4288,
      "byteStride": 32,
      "target": 34962
    },
    {
      "buffer": 0,
      "byteLength": 714,
      "byteOffset": 4288,
      "target": 34963
    }
  ],
  "buffers": [
    {
      "byteLength": 5004,
      "uri": "20525362525140624530_LOD00.bin"
    }
  ],
  "images": [
    {
      "uri": "20525362525140624530_LOD00.png"
    }
  ],
  "materials": [
    {
      "doubleSided": true,
      "pbrMetallicRoughness": {
        "baseColorTexture": {
          "index": 0
        },
        "metallicFactor": 0
      }
    }
  ],
  "meshes": [
    {
      "name": "20525362525140624530_0",
      "primitives": [
        {
          "attributes": {
            "POSITION": 0,
            "NORMAL": 1,
            "TEXCOORD_0": 2
          },
          "indices": 3,
          "material": 0
        }
      ]
    }
  ],
  "nodes": [
    {
      "mesh": 0
    }
  ],
  "scene": 0,
  "scenes": [
    {
      "nodes": [
        0
      ]
    }
  ],
  "textures": [
    {
      "source": 0
    }
  ]
}