{
  "asset": {
    "copyright": "",
    "generator": "SharpGLTF 1.0.0",
    "version": "2.0"
  },
  "accessors": [
    {
      "name": "POSITION",
      "bufferView": 0,
      "componentType": 5126,
      "count": 1817,
      "max": [
        -99.850555419921875,
        66.400421142578125,
        382.62857055664063
      ],
      "min": [
        -131.9661865234375,
        37.358104705810547,
        344.397705078125
      ],
      "type": "VEC3"
    },
    {
      "name": "NORMAL",
      "bufferView": 0,
      "byteOffset": 12,
      "componentType": 5126,
      "count": 1817,
      "max": [
        0.9999922513961792,
        0.99998462200164795,
        0.9999920129776001
      ],
      "min": [
        -0.99999219179153442,
        -1,
        -0.99999243021011353
      ],
      "type": "VEC3"
    },
    {
      "name": "TEXCOORD_0",
      "bufferView": 0,
      "byteOffset": 24,
      "componentType": 5126,
      "count": 1817,
      "max": [
        0.9990234375,
        0.9990234375
      ],
      "min": [
        0.0009765625,
        0.0009765625
      ],
      "type": "VEC2"
    },
    {
      "bufferView": 1,
      "componentType": 5123,
      "count": 3990,
      "type": "SCALAR"
    },
    {
      "name": "POSITION",
      "bufferView": 0,
      "byteOffset": 58144,
      "componentType": 5126,
      "count": 682,
      "max": [
        -99.850608825683594,
        66.400421142578125,
        382.62857055664063
      ],
      "min": [
        -131.96621704101563,
        37.358104705810547,
        344.39776611328125
      ],
      "type": "VEC3"
    },
    {
      "name": "NORMAL",
      "bufferView": 0,
      "byteOffset": 58156,
      "componentType": 5126,
      "count": 682,
      "max": [
        0.9999922513961792,
        0.99998462200164795,
        0.9999920129776001
      ],
      "min": [
        -0.99999219179153442,
        -1,
        -0.99999243021011353
      ],
      "type": "VEC3"
    },
    {
      "name": "TEXCOORD_0",
      "bufferView": 0,
      "byteOffset": 58168,
      "componentType": 5126,
      "count": 682,
      "max": [
        0.998046875,
        0.9990234375
      ],
      "min": [
        0.001953125,
        0.4560546875
      ],
      "type": "VEC2"
    },
    {
      "bufferView": 1,
      "byteOffset": 7980,
      "componentType": 5123,
      "count": 1599,
      "type": "SCALAR"
    }
  ],
  "bufferViews": [
    {
      "buffer": 0,
      "byteLength": 79968,
      "byteStride": 32,
      "target": 34962
    },
    {
      "buffer": 0,
      "byteLength": 11178,
      "byteOffset": 79968,
      "target": 34963
    }
  ],
  "buffers": [
    {
      "byteLength": 91148,
      "uri": "20525362525051736065_LOD00.bin"
    }
  ],
  "images": [
    {
      "uri": "20525362525051736065_LOD00_0.png"
    },
    {
      "uri": "20525362525051736065_LOD00_1.png"
    }
  ],
  "materials": [
    {
      "doubleSided": true,
      "pbrMetallicRoughness": {
        "baseColorTexture": {
          "index": 0
        },
        "metallicFactor": 0
      }
    },
    {
      "doubleSided": true,
      "pbrMetallicRoughness": {
        "baseColorTexture": {
          "index": 1
        },
        "metallicFactor": 0
      }
    }
  ],
  "meshes": [
    {
      "name": "20525362525051736065_0",
      "primitives": [
        {
          "attributes": {
            "POSITION": 0,
            "NORMAL": 1,
            "TEXCOORD_0": 2
          },
          "indices": 3,
          "material": 0
        }
      ]
    },
    {
      "name": "20525362525051736065_1",
      "primitives": [
        {
          "attributes": {
            "POSITION": 4,
            "NORMAL": 5,
            "TEXCOORD_0": 6
          },
          "indices": 7,
          "material": 1
        }
      ]
    }
  ],
  "nodes": [
    {
      "mesh": 0
    },
    {
      "mesh": 1
    }
  ],
  "scene": 0,
  "scenes": [
    {
      "nodes": [
        0,
        1
      ]
    }
  ],
  "textures": [
    {
      "source": 0
    },
    {
      "source": 1
    }
  ]
}