{
  "asset": {
    "copyright": "",
    "generator": "SharpGLTF 1.0.0",
    "version": "2.0"
  },
  "accessors": [
    {
      "name": "POSITION",
      "bufferView": 0,
      "componentType": 5126,
      "count": 402,
      "max": [
        -581.32928466796875,
        37.793979644775391,
        650.150390625
      ],
      "min": [
        -613.44403076171875,
        28.212329864501953,
        611.91815185546875
      ],
      "type": "VEC3"
    },
    {
      "name": "NORMAL",
      "bufferView": 0,
      "byteOffset": 12,
      "componentType": 5126,
      "count": 402,
      "max": [
        0.99999254941940308,
        0.99439316987991333,
        0.99110525846481323
      ],
      "min": [
        -0.99999195337295532,
        -1,
        -0.99999254941940308
      ],
      "type": "VEC3"
    },
    {
      "name": "TEXCOORD_0",
      "bufferView": 0,
      "byteOffset": 24,
      "componentType": 5126,
      "count": 402,
      "max": [
        0.998046875,
        0.998046875
      ],
      "min": [
        0.001953125,
        0.482421875
      ],
      "type": "VEC2"
    },
    {
      "bufferView": 1,
      "componentType": 5123,
      "count": 972,
      "type": "SCALAR"
    }
  ],
  "bufferViews": [
    {
      "buffer": 0,
      "byteLength": 12864,
      "byteStride": 32,
      "target": 34962
    },
    {
      "buffer": 0,
      "byteLength": 1944,
      "byteOffset": 12864,
      "target": 34963
    }
  ],
  "buffers": [
    {
      "byteLength": 14808,
      "uri": "20525362525142404042_LOD00.bin"
    }
  ],
  "images": [
    {
      "uri": "20525362525142404042_LOD00.png"
    }
  ],
  "materials": [
    {
      "doubleSided": true,
      "pbrMetallicRoughness": {
        "baseColorTexture": {
          "index": 0
        },
        "metallicFactor": 0
      }
    }
  ],
  "meshes": [
    {
      "name": "20525362525142404042_0",
      "primitives": [
        {
          "attributes": {
            "POSITION": 0,
            "NORMAL": 1,
            "TEXCOORD_0": 2
          },
          "indices": 3,
          "material": 0
        }
      ]
    }
  ],
  "nodes": [
    {
      "mesh": 0
    }
  ],
  "scene": 0,
  "scenes": [
    {
      "nodes": [
        0
      ]
    }
  ],
  "textures": [
    {
      "source": 0
    }
  ]
}