{
  "asset": {
    "copyright": "",
    "generator": "SharpGLTF 1.0.0",
    "version": "2.0"
  },
  "accessors": [
    {
      "name": "POSITION",
      "bufferView": 0,
      "componentType": 5126,
      "count": 4112,
      "max": [
        -773.955322265625,
        60.025257110595703,
        229.79977416992188
      ],
      "min": [
        -806.07489013671875,
        43.962574005126953,
        191.26081848144531
      ],
      "type": "VEC3"
    },
    {
      "name": "NORMAL",
      "bufferView": 0,
      "byteOffset": 12,
      "componentType": 5126,
      "count": 4112,
      "max": [
        0.99999260902404785,
        0.99998509883880615,
        0.99999207258224487
      ],
      "min": [
        -0.99897897243499756,
        -0.93124872446060181,
        -0.99999237060546875
      ],
      "type": "VEC3"
    },
    {
      "name": "TEXCOORD_0",
      "bufferView": 0,
      "byteOffset": 24,
      "componentType": 5126,
      "count": 4112,
      "max": [
        0.998046875,
        0.9990234375
      ],
      "min": [
        0.001953125,
        0.0009765625
      ],
      "type": "VEC2"
    },
    {
      "bufferView": 1,
      "componentType": 5123,
      "count": 10071,
      "type": "SCALAR"
    },
    {
      "name": "POSITION",
      "bufferView": 0,
      "byteOffset": 131584,
      "componentType": 5126,
      "count": 391,
      "max": [
        -773.9566650390625,
        59.252792358398438,
        228.87411499023438
      ],
      "min": [
        -801.90313720703125,
        43.963096618652344,
        191.56753540039063
      ],
      "type": "VEC3"
    },
    {
      "name": "NORMAL",
      "bufferView": 0,
      "byteOffset": 131596,
      "componentType": 5126,
      "count": 391,
      "max": [
        0.99600416421890259,
        0.99998509883880615,
        0.99931555986404419
      ],
      "min": [
        -0.99798750877380371,
        -0.72245121002197266,
        -0.99999237060546875
      ],
      "type": "VEC3"
    },
    {
      "name": "TEXCOORD_0",
      "bufferView": 0,
      "byteOffset": 131608,
      "componentType": 5126,
      "count": 391,
      "max": [
        0.998046875,
        0.998046875
      ],
      "min": [
        0.001953125,
        0.876953125
      ],
      "type": "VEC2"
    },
    {
      "bufferView": 1,
      "byteOffset": 20142,
      "componentType": 5123,
      "count": 783,
      "type": "SCALAR"
    }
  ],
  "bufferViews": [
    {
      "buffer": 0,
      "byteLength": 144096,
      "byteStride": 32,
      "target": 34962
    },
    {
      "buffer": 0,
      "byteLength": 21708,
      "byteOffset": 144096,
      "target": 34963
    }
  ],
  "buffers": [
    {
      "byteLength": 165804,
      "uri": "20525362525140624374_LOD00.bin"
    }
  ],
  "images": [
    {
      "uri": "20525362525140624374_LOD00_0.png"
    },
    {
      "uri": "20525362525140624374_LOD00_1.png"
    }
  ],
  "materials": [
    {
      "doubleSided": true,
      "pbrMetallicRoughness": {
        "baseColorTexture": {
          "index": 0
        },
        "metallicFactor": 0
      }
    },
    {
      "doubleSided": true,
      "pbrMetallicRoughness": {
        "baseColorTexture": {
          "index": 1
        },
        "metallicFactor": 0
      }
    }
  ],
  "meshes": [
    {
      "name": "20525362525140624374_0",
      "primitives": [
        {
          "attributes": {
            "POSITION": 0,
            "NORMAL": 1,
            "TEXCOORD_0": 2
          },
          "indices": 3,
          "material": 0
        }
      ]
    },
    {
      "name": "20525362525140624374_1",
      "primitives": [
        {
          "attributes": {
            "POSITION": 4,
            "NORMAL": 5,
            "TEXCOORD_0": 6
          },
          "indices": 7,
          "material": 1
        }
      ]
    }
  ],
  "nodes": [
    {
      "mesh": 0
    },
    {
      "mesh": 1
    }
  ],
  "scene": 0,
  "scenes": [
    {
      "nodes": [
        0,
        1
      ]
    }
  ],
  "textures": [
    {
      "source": 0
    },
    {
      "source": 1
    }
  ]
}