{
  "asset": {
    "copyright": "",
    "generator": "SharpGLTF 1.0.0",
    "version": "2.0"
  },
  "accessors": [
    {
      "name": "POSITION",
      "bufferView": 0,
      "componentType": 5126,
      "count": 3961,
      "max": [
        -388.74853515625,
        74.269309997558594,
        344.42193603515625
      ],
      "min": [
        -421.33053588867188,
        39.666988372802734,
        306.18927001953125
      ],
      "type": "VEC3"
    },
    {
      "name": "NORMAL",
      "bufferView": 0,
      "byteOffset": 12,
      "componentType": 5126,
      "count": 3961,
      "max": [
        0.9999924898147583,
        0.99998486042022705,
        0.99999207258224487
      ],
      "min": [
        -0.99818301200866699,
        -0.98989516496658325,
        -0.99999237060546875
      ],
      "type": "VEC3"
    },
    {
      "name": "TEXCOORD_0",
      "bufferView": 0,
      "byteOffset": 24,
      "componentType": 5126,
      "count": 3961,
      "max": [
        0.998046875,
        0.9990234375
      ],
      "min": [
        0.001953125,
        0.0009765625
      ],
      "type": "VEC2"
    },
    {
      "bufferView": 1,
      "componentType": 5123,
      "count": 9963,
      "type": "SCALAR"
    },
    {
      "name": "POSITION",
      "bufferView": 0,
      "byteOffset": 126752,
      "componentType": 5126,
      "count": 1438,
      "max": [
        -388.74853515625,
        74.269477844238281,
        344.57601928710938
      ],
      "min": [
        -420.8665771484375,
        39.822151184082031,
        306.18939208984375
      ],
      "type": "VEC3"
    },
    {
      "name": "NORMAL",
      "bufferView": 0,
      "byteOffset": 126764,
      "componentType": 5126,
      "count": 1438,
      "max": [
        0.9999924898147583,
        0.99998486042022705,
        0.99999207258224487
      ],
      "min": [
        -0.99674034118652344,
        -0.98989516496658325,
        -0.99898326396942139
      ],
      "type": "VEC3"
    },
    {
      "name": "TEXCOORD_0",
      "bufferView": 0,
      "byteOffset": 126776,
      "componentType": 5126,
      "count": 1438,
      "max": [
        0.998046875,
        0.998046875
      ],
      "min": [
        0.001953125,
        0.447265625
      ],
      "type": "VEC2"
    },
    {
      "bufferView": 1,
      "byteOffset": 19926,
      "componentType": 5123,
      "count": 3435,
      "type": "SCALAR"
    }
  ],
  "bufferViews": [
    {
      "buffer": 0,
      "byteLength": 172768,
      "byteStride": 32,
      "target": 34962
    },
    {
      "buffer": 0,
      "byteLength": 26796,
      "byteOffset": 172768,
      "target": 34963
    }
  ],
  "buffers": [
    {
      "byteLength": 199564,
      "uri": "20525362525051737056_LOD00.bin"
    }
  ],
  "images": [
    {
      "uri": "20525362525051737056_LOD00_0.png"
    },
    {
      "uri": "20525362525051737056_LOD00_1.png"
    }
  ],
  "materials": [
    {
      "doubleSided": true,
      "pbrMetallicRoughness": {
        "baseColorTexture": {
          "index": 0
        },
        "metallicFactor": 0
      }
    },
    {
      "doubleSided": true,
      "pbrMetallicRoughness": {
        "baseColorTexture": {
          "index": 1
        },
        "metallicFactor": 0
      }
    }
  ],
  "meshes": [
    {
      "name": "20525362525051737056_0",
      "primitives": [
        {
          "attributes": {
            "POSITION": 0,
            "NORMAL": 1,
            "TEXCOORD_0": 2
          },
          "indices": 3,
          "material": 0
        }
      ]
    },
    {
      "name": "20525362525051737056_1",
      "primitives": [
        {
          "attributes": {
            "POSITION": 4,
            "NORMAL": 5,
            "TEXCOORD_0": 6
          },
          "indices": 7,
          "material": 1
        }
      ]
    }
  ],
  "nodes": [
    {
      "mesh": 0
    },
    {
      "mesh": 1
    }
  ],
  "scene": 0,
  "scenes": [
    {
      "nodes": [
        0,
        1
      ]
    }
  ],
  "textures": [
    {
      "source": 0
    },
    {
      "source": 1
    }
  ]
}