{
  "asset": {
    "copyright": "",
    "generator": "SharpGLTF 1.0.0",
    "version": "2.0"
  },
  "accessors": [
    {
      "name": "POSITION",
      "bufferView": 0,
      "componentType": 5126,
      "count": 2664,
      "max": [
        -613.43084716796875,
        74.235038757324219,
        612.40087890625
      ],
      "min": [
        -645.7025146484375,
        37.77349853515625,
        573.7054443359375
      ],
      "type": "VEC3"
    },
    {
      "name": "NORMAL",
      "bufferView": 0,
      "byteOffset": 12,
      "componentType": 5126,
      "count": 2664,
      "max": [
        0.99999254941940308,
        0.99998509883880615,
        0.99999189376831055
      ],
      "min": [
        -0.99999189376831055,
        -1,
        -0.99999254941940308
      ],
      "type": "VEC3"
    },
    {
      "name": "TEXCOORD_0",
      "bufferView": 0,
      "byteOffset": 24,
      "componentType": 5126,
      "count": 2664,
      "max": [
        0.9990234375,
        0.9990234375
      ],
      "min": [
        0.0009765625,
        0.0009765625
      ],
      "type": "VEC2"
    },
    {
      "bufferView": 1,
      "componentType": 5123,
      "count": 5799,
      "type": "SCALAR"
    },
    {
      "name": "POSITION",
      "bufferView": 0,
      "byteOffset": 85248,
      "componentType": 5126,
      "count": 1805,
      "max": [
        -613.43121337890625,
        69.292770385742188,
        611.93927001953125
      ],
      "min": [
        -645.5482177734375,
        42.410270690917969,
        573.706787109375
      ],
      "type": "VEC3"
    },
    {
      "name": "NORMAL",
      "bufferView": 0,
      "byteOffset": 85260,
      "componentType": 5126,
      "count": 1805,
      "max": [
        0.99999254941940308,
        0.99998509883880615,
        0.99999189376831055
      ],
      "min": [
        -0.99999189376831055,
        -1,
        -0.99999254941940308
      ],
      "type": "VEC3"
    },
    {
      "name": "TEXCOORD_0",
      "bufferView": 0,
      "byteOffset": 85272,
      "componentType": 5126,
      "count": 1805,
      "max": [
        0.998046875,
        0.9990234375
      ],
      "min": [
        0.001953125,
        0.4619140625
      ],
      "type": "VEC2"
    },
    {
      "bufferView": 1,
      "byteOffset": 11598,
      "componentType": 5123,
      "count": 4302,
      "type": "SCALAR"
    }
  ],
  "bufferViews": [
    {
      "buffer": 0,
      "byteLength": 143008,
      "byteStride": 32,
      "target": 34962
    },
    {
      "buffer": 0,
      "byteLength": 20202,
      "byteOffset": 143008,
      "target": 34963
    }
  ],
  "buffers": [
    {
      "byteLength": 163212,
      "uri": "20525362525142404045_LOD00.bin"
    }
  ],
  "images": [
    {
      "uri": "20525362525142404045_LOD00_0.png"
    },
    {
      "uri": "20525362525142404045_LOD00_1.png"
    }
  ],
  "materials": [
    {
      "doubleSided": true,
      "pbrMetallicRoughness": {
        "baseColorTexture": {
          "index": 0
        },
        "metallicFactor": 0
      }
    },
    {
      "doubleSided": true,
      "pbrMetallicRoughness": {
        "baseColorTexture": {
          "index": 1
        },
        "metallicFactor": 0
      }
    }
  ],
  "meshes": [
    {
      "name": "20525362525142404045_0",
      "primitives": [
        {
          "attributes": {
            "POSITION": 0,
            "NORMAL": 1,
            "TEXCOORD_0": 2
          },
          "indices": 3,
          "material": 0
        }
      ]
    },
    {
      "name": "20525362525142404045_1",
      "primitives": [
        {
          "attributes": {
            "POSITION": 4,
            "NORMAL": 5,
            "TEXCOORD_0": 6
          },
          "indices": 7,
          "material": 1
        }
      ]
    }
  ],
  "nodes": [
    {
      "mesh": 0
    },
    {
      "mesh": 1
    }
  ],
  "scene": 0,
  "scenes": [
    {
      "nodes": [
        0,
        1
      ]
    }
  ],
  "textures": [
    {
      "source": 0
    },
    {
      "source": 1
    }
  ]
}