{
  "asset": {
    "copyright": "",
    "generator": "SharpGLTF 1.0.0",
    "version": "2.0"
  },
  "accessors": [
    {
      "name": "POSITION",
      "bufferView": 0,
      "componentType": 5126,
      "count": 4199,
      "max": [
        -517.15814208984375,
        56.037910461425781,
        153.35243225097656
      ],
      "min": [
        -549.2757568359375,
        38.889835357666016,
        115.12012481689453
      ],
      "type": "VEC3"
    },
    {
      "name": "NORMAL",
      "bufferView": 0,
      "byteOffset": 12,
      "componentType": 5126,
      "count": 4199,
      "max": [
        0.99999260902404785,
        0.9999847412109375,
        0.99931573867797852
      ],
      "min": [
        -0.99999189376831055,
        -1,
        -0.9999922513961792
      ],
      "type": "VEC3"
    },
    {
      "name": "TEXCOORD_0",
      "bufferView": 0,
      "byteOffset": 24,
      "componentType": 5126,
      "count": 4199,
      "max": [
        0.998046875,
        0.9990234375
      ],
      "min": [
        0.001953125,
        0.0009765625
      ],
      "type": "VEC2"
    },
    {
      "bufferView": 1,
      "componentType": 5123,
      "count": 10443,
      "type": "SCALAR"
    },
    {
      "name": "POSITION",
      "bufferView": 0,
      "byteOffset": 134368,
      "componentType": 5126,
      "count": 1559,
      "max": [
        -517.15826416015625,
        55.728958129882813,
        153.35203552246094
      ],
      "min": [
        -549.2757568359375,
        38.737438201904297,
        116.35352325439453
      ],
      "type": "VEC3"
    },
    {
      "name": "NORMAL",
      "bufferView": 0,
      "byteOffset": 134380,
      "componentType": 5126,
      "count": 1559,
      "max": [
        0.99999260902404785,
        0.9999847412109375,
        0.99797743558883667
      ],
      "min": [
        -0.99999189376831055,
        -0.99916553497314453,
        -0.9999922513961792
      ],
      "type": "VEC3"
    },
    {
      "name": "TEXCOORD_0",
      "bufferView": 0,
      "byteOffset": 134392,
      "componentType": 5126,
      "count": 1559,
      "max": [
        0.998046875,
        0.998046875
      ],
      "min": [
        0.001953125,
        0.373046875
      ],
      "type": "VEC2"
    },
    {
      "bufferView": 1,
      "byteOffset": 20886,
      "componentType": 5123,
      "count": 3378,
      "type": "SCALAR"
    }
  ],
  "bufferViews": [
    {
      "buffer": 0,
      "byteLength": 184256,
      "byteStride": 32,
      "target": 34962
    },
    {
      "buffer": 0,
      "byteLength": 27642,
      "byteOffset": 184256,
      "target": 34963
    }
  ],
  "buffers": [
    {
      "byteLength": 211900,
      "uri": "20525362525051735354_LOD00.bin"
    }
  ],
  "images": [
    {
      "uri": "20525362525051735354_LOD00_0.png"
    },
    {
      "uri": "20525362525051735354_LOD00_1.png"
    }
  ],
  "materials": [
    {
      "doubleSided": true,
      "pbrMetallicRoughness": {
        "baseColorTexture": {
          "index": 0
        },
        "metallicFactor": 0
      }
    },
    {
      "doubleSided": true,
      "pbrMetallicRoughness": {
        "baseColorTexture": {
          "index": 1
        },
        "metallicFactor": 0
      }
    }
  ],
  "meshes": [
    {
      "name": "20525362525051735354_0",
      "primitives": [
        {
          "attributes": {
            "POSITION": 0,
            "NORMAL": 1,
            "TEXCOORD_0": 2
          },
          "indices": 3,
          "material": 0
        }
      ]
    },
    {
      "name": "20525362525051735354_1",
      "primitives": [
        {
          "attributes": {
            "POSITION": 4,
            "NORMAL": 5,
            "TEXCOORD_0": 6
          },
          "indices": 7,
          "material": 1
        }
      ]
    }
  ],
  "nodes": [
    {
      "mesh": 0
    },
    {
      "mesh": 1
    }
  ],
  "scene": 0,
  "scenes": [
    {
      "nodes": [
        0,
        1
      ]
    }
  ],
  "textures": [
    {
      "source": 0
    },
    {
      "source": 1
    }
  ]
}