{
  "asset": {
    "copyright": "",
    "generator": "SharpGLTF 1.0.0",
    "version": "2.0"
  },
  "accessors": [
    {
      "name": "POSITION",
      "bufferView": 0,
      "componentType": 5126,
      "count": 3374,
      "max": [
        -259.88983154296875,
        68.101303100585938,
        230.23396301269531
      ],
      "min": [
        -292.46978759765625,
        37.82257080078125,
        191.54107666015625
      ],
      "type": "VEC3"
    },
    {
      "name": "NORMAL",
      "bufferView": 0,
      "byteOffset": 12,
      "componentType": 5126,
      "count": 3374,
      "max": [
        0.99999237060546875,
        0.99998462200164795,
        0.99999207258224487
      ],
      "min": [
        -0.99999213218688965,
        -1,
        -0.99999237060546875
      ],
      "type": "VEC3"
    },
    {
      "name": "TEXCOORD_0",
      "bufferView": 0,
      "byteOffset": 24,
      "componentType": 5126,
      "count": 3374,
      "max": [
        0.998046875,
        0.9990234375
      ],
      "min": [
        0.001953125,
        0.0009765625
      ],
      "type": "VEC2"
    },
    {
      "bufferView": 1,
      "componentType": 5123,
      "count": 8490,
      "type": "SCALAR"
    },
    {
      "name": "POSITION",
      "bufferView": 0,
      "byteOffset": 107968,
      "componentType": 5126,
      "count": 1835,
      "max": [
        -260.35305786132813,
        68.101303100585938,
        229.7724609375
      ],
      "min": [
        -292.4696044921875,
        37.822566986083984,
        191.54154968261719
      ],
      "type": "VEC3"
    },
    {
      "name": "NORMAL",
      "bufferView": 0,
      "byteOffset": 107980,
      "componentType": 5126,
      "count": 1835,
      "max": [
        0.99931567907333374,
        0.99998462200164795,
        0.99999207258224487
      ],
      "min": [
        -0.99999213218688965,
        -0.98320227861404419,
        -0.99999237060546875
      ],
      "type": "VEC3"
    },
    {
      "name": "TEXCOORD_0",
      "bufferView": 0,
      "byteOffset": 107992,
      "componentType": 5126,
      "count": 1835,
      "max": [
        0.998046875,
        0.998046875
      ],
      "min": [
        0.001953125,
        0.259765625
      ],
      "type": "VEC2"
    },
    {
      "bufferView": 1,
      "byteOffset": 16980,
      "componentType": 5123,
      "count": 4554,
      "type": "SCALAR"
    }
  ],
  "bufferViews": [
    {
      "buffer": 0,
      "byteLength": 166688,
      "byteStride": 32,
      "target": 34962
    },
    {
      "buffer": 0,
      "byteLength": 26088,
      "byteOffset": 166688,
      "target": 34963
    }
  ],
  "buffers": [
    {
      "byteLength": 192776,
      "uri": "20525362525051734374_LOD00.bin"
    }
  ],
  "images": [
    {
      "uri": "20525362525051734374_LOD00_0.png"
    },
    {
      "uri": "20525362525051734374_LOD00_1.png"
    }
  ],
  "materials": [
    {
      "doubleSided": true,
      "pbrMetallicRoughness": {
        "baseColorTexture": {
          "index": 0
        },
        "metallicFactor": 0
      }
    },
    {
      "doubleSided": true,
      "pbrMetallicRoughness": {
        "baseColorTexture": {
          "index": 1
        },
        "metallicFactor": 0
      }
    }
  ],
  "meshes": [
    {
      "name": "20525362525051734374_0",
      "primitives": [
        {
          "attributes": {
            "POSITION": 0,
            "NORMAL": 1,
            "TEXCOORD_0": 2
          },
          "indices": 3,
          "material": 0
        }
      ]
    },
    {
      "name": "20525362525051734374_1",
      "primitives": [
        {
          "attributes": {
            "POSITION": 4,
            "NORMAL": 5,
            "TEXCOORD_0": 6
          },
          "indices": 7,
          "material": 1
        }
      ]
    }
  ],
  "nodes": [
    {
      "mesh": 0
    },
    {
      "mesh": 1
    }
  ],
  "scene": 0,
  "scenes": [
    {
      "nodes": [
        0,
        1
      ]
    }
  ],
  "textures": [
    {
      "source": 0
    },
    {
      "source": 1
    }
  ]
}