{
  "asset": {
    "copyright": "",
    "generator": "SharpGLTF 1.0.0",
    "version": "2.0"
  },
  "accessors": [
    {
      "name": "POSITION",
      "bufferView": 0,
      "componentType": 5126,
      "count": 3922,
      "max": [
        -805.6004638671875,
        58.48095703125,
        153.37202453613281
      ],
      "min": [
        -838.64373779296875,
        42.258121490478516,
        115.13862609863281
      ],
      "type": "VEC3"
    },
    {
      "name": "NORMAL",
      "bufferView": 0,
      "byteOffset": 12,
      "componentType": 5126,
      "count": 3922,
      "max": [
        0.99999278783798218,
        0.99998492002487183,
        0.99798315763473511
      ],
      "min": [
        -0.99999171495437622,
        -0.99917221069335938,
        -0.9999922513961792
      ],
      "type": "VEC3"
    },
    {
      "name": "TEXCOORD_0",
      "bufferView": 0,
      "byteOffset": 24,
      "componentType": 5126,
      "count": 3922,
      "max": [
        0.998046875,
        0.9990234375
      ],
      "min": [
        0.001953125,
        0.0009765625
      ],
      "type": "VEC2"
    },
    {
      "bufferView": 1,
      "componentType": 5123,
      "count": 9531,
      "type": "SCALAR"
    },
    {
      "name": "POSITION",
      "bufferView": 0,
      "byteOffset": 125504,
      "componentType": 5126,
      "count": 1451,
      "max": [
        -806.06219482421875,
        58.48089599609375,
        153.37179565429688
      ],
      "min": [
        -838.33502197265625,
        42.261100769042969,
        115.13875579833984
      ],
      "type": "VEC3"
    },
    {
      "name": "NORMAL",
      "bufferView": 0,
      "byteOffset": 125516,
      "componentType": 5126,
      "count": 1451,
      "max": [
        0.99999278783798218,
        0.99998492002487183,
        0.99526023864746094
      ],
      "min": [
        -0.99999171495437622,
        -0.99641132354736328,
        -0.9999922513961792
      ],
      "type": "VEC3"
    },
    {
      "name": "TEXCOORD_0",
      "bufferView": 0,
      "byteOffset": 125528,
      "componentType": 5126,
      "count": 1451,
      "max": [
        0.998046875,
        0.998046875
      ],
      "min": [
        0.001953125,
        0.478515625
      ],
      "type": "VEC2"
    },
    {
      "bufferView": 1,
      "byteOffset": 19062,
      "componentType": 5123,
      "count": 3294,
      "type": "SCALAR"
    }
  ],
  "bufferViews": [
    {
      "buffer": 0,
      "byteLength": 171936,
      "byteStride": 32,
      "target": 34962
    },
    {
      "buffer": 0,
      "byteLength": 25650,
      "byteOffset": 171936,
      "target": 34963
    }
  ],
  "buffers": [
    {
      "byteLength": 197588,
      "uri": "20525362525140624355_LOD00.bin"
    }
  ],
  "images": [
    {
      "uri": "20525362525140624355_LOD00_0.png"
    },
    {
      "uri": "20525362525140624355_LOD00_1.png"
    }
  ],
  "materials": [
    {
      "doubleSided": true,
      "pbrMetallicRoughness": {
        "baseColorTexture": {
          "index": 0
        },
        "metallicFactor": 0
      }
    },
    {
      "doubleSided": true,
      "pbrMetallicRoughness": {
        "baseColorTexture": {
          "index": 1
        },
        "metallicFactor": 0
      }
    }
  ],
  "meshes": [
    {
      "name": "20525362525140624355_0",
      "primitives": [
        {
          "attributes": {
            "POSITION": 0,
            "NORMAL": 1,
            "TEXCOORD_0": 2
          },
          "indices": 3,
          "material": 0
        }
      ]
    },
    {
      "name": "20525362525140624355_1",
      "primitives": [
        {
          "attributes": {
            "POSITION": 4,
            "NORMAL": 5,
            "TEXCOORD_0": 6
          },
          "indices": 7,
          "material": 1
        }
      ]
    }
  ],
  "nodes": [
    {
      "mesh": 0
    },
    {
      "mesh": 1
    }
  ],
  "scene": 0,
  "scenes": [
    {
      "nodes": [
        0,
        1
      ]
    }
  ],
  "textures": [
    {
      "source": 0
    },
    {
      "source": 1
    }
  ]
}