{
  "asset": {
    "copyright": "",
    "generator": "SharpGLTF 1.0.0",
    "version": "2.0"
  },
  "accessors": [
    {
      "name": "POSITION",
      "bufferView": 0,
      "componentType": 5126,
      "count": 6823,
      "max": [
        -99.852371215820313,
        59.919506072998047,
        191.55410766601563
      ],
      "min": [
        -132.27725219726563,
        37.364643096923828,
        153.01467895507813
      ],
      "type": "VEC3"
    },
    {
      "name": "NORMAL",
      "bufferView": 0,
      "byteOffset": 12,
      "componentType": 5126,
      "count": 6823,
      "max": [
        0.9999922513961792,
        0.99998456239700317,
        0.99999213218688965
      ],
      "min": [
        -0.99999219179153442,
        -1,
        -0.99999237060546875
      ],
      "type": "VEC3"
    },
    {
      "name": "TEXCOORD_0",
      "bufferView": 0,
      "byteOffset": 24,
      "componentType": 5126,
      "count": 6823,
      "max": [
        0.9990234375,
        0.9990234375
      ],
      "min": [
        0.0009765625,
        0.0009765625
      ],
      "type": "VEC2"
    },
    {
      "bufferView": 1,
      "componentType": 5123,
      "count": 15762,
      "type": "SCALAR"
    },
    {
      "name": "POSITION",
      "bufferView": 0,
      "byteOffset": 218336,
      "componentType": 5126,
      "count": 2164,
      "max": [
        -99.852462768554688,
        59.919490814208984,
        191.55406188964844
      ],
      "min": [
        -131.96853637695313,
        37.365100860595703,
        153.32302856445313
      ],
      "type": "VEC3"
    },
    {
      "name": "NORMAL",
      "bufferView": 0,
      "byteOffset": 218348,
      "componentType": 5126,
      "count": 2164,
      "max": [
        0.9999922513961792,
        0.99998456239700317,
        0.99915039539337158
      ],
      "min": [
        -0.99999219179153442,
        -1,
        -0.99931401014328003
      ],
      "type": "VEC3"
    },
    {
      "name": "TEXCOORD_0",
      "bufferView": 0,
      "byteOffset": 218360,
      "componentType": 5126,
      "count": 2164,
      "max": [
        0.998046875,
        0.998046875
      ],
      "min": [
        0.001953125,
        0.291015625
      ],
      "type": "VEC2"
    },
    {
      "bufferView": 1,
      "byteOffset": 31524,
      "componentType": 5123,
      "count": 5001,
      "type": "SCALAR"
    }
  ],
  "bufferViews": [
    {
      "buffer": 0,
      "byteLength": 287584,
      "byteStride": 32,
      "target": 34962
    },
    {
      "buffer": 0,
      "byteLength": 41526,
      "byteOffset": 287584,
      "target": 34963
    }
  ],
  "buffers": [
    {
      "byteLength": 329112,
      "uri": "20525362525051734247_LOD00.bin"
    }
  ],
  "images": [
    {
      "uri": "20525362525051734247_LOD00_0.png"
    },
    {
      "uri": "20525362525051734247_LOD00_1.png"
    }
  ],
  "materials": [
    {
      "doubleSided": true,
      "pbrMetallicRoughness": {
        "baseColorTexture": {
          "index": 0
        },
        "metallicFactor": 0
      }
    },
    {
      "doubleSided": true,
      "pbrMetallicRoughness": {
        "baseColorTexture": {
          "index": 1
        },
        "metallicFactor": 0
      }
    }
  ],
  "meshes": [
    {
      "name": "20525362525051734247_0",
      "primitives": [
        {
          "attributes": {
            "POSITION": 0,
            "NORMAL": 1,
            "TEXCOORD_0": 2
          },
          "indices": 3,
          "material": 0
        }
      ]
    },
    {
      "name": "20525362525051734247_1",
      "primitives": [
        {
          "attributes": {
            "POSITION": 4,
            "NORMAL": 5,
            "TEXCOORD_0": 6
          },
          "indices": 7,
          "material": 1
        }
      ]
    }
  ],
  "nodes": [
    {
      "mesh": 0
    },
    {
      "mesh": 1
    }
  ],
  "scene": 0,
  "scenes": [
    {
      "nodes": [
        0,
        1
      ]
    }
  ],
  "textures": [
    {
      "source": 0
    },
    {
      "source": 1
    }
  ]
}