{
  "asset": {
    "copyright": "",
    "generator": "SharpGLTF 1.0.0",
    "version": "2.0"
  },
  "accessors": [
    {
      "name": "POSITION",
      "bufferView": 0,
      "componentType": 5126,
      "count": 5458,
      "max": [
        -196.15554809570313,
        50.958904266357422,
        39.157066345214844
      ],
      "min": [
        -225.64712524414063,
        37.365451812744141,
        0.3102240264415741
      ],
      "type": "VEC3"
    },
    {
      "name": "NORMAL",
      "bufferView": 0,
      "byteOffset": 12,
      "componentType": 5126,
      "count": 5458,
      "max": [
        0.99898582696914673,
        0.99998462200164795,
        0.99999219179153442
      ],
      "min": [
        -0.99999213218688965,
        -0.99917143583297729,
        -0.99999219179153442
      ],
      "type": "VEC3"
    },
    {
      "name": "TEXCOORD_0",
      "bufferView": 0,
      "byteOffset": 24,
      "componentType": 5126,
      "count": 5458,
      "max": [
        0.998046875,
        0.9990234375
      ],
      "min": [
        0.001953125,
        0.0009765625
      ],
      "type": "VEC2"
    },
    {
      "bufferView": 1,
      "componentType": 5123,
      "count": 12648,
      "type": "SCALAR"
    },
    {
      "name": "POSITION",
      "bufferView": 0,
      "byteOffset": 174656,
      "componentType": 5126,
      "count": 373,
      "max": [
        -196.15617370605469,
        50.341468811035156,
        38.694686889648438
      ],
      "min": [
        -225.64712524414063,
        37.828281402587891,
        0.46429568529129028
      ],
      "type": "VEC3"
    },
    {
      "name": "NORMAL",
      "bufferView": 0,
      "byteOffset": 174668,
      "componentType": 5126,
      "count": 373,
      "max": [
        0.99898582696914673,
        0.9999842643737793,
        0.99999219179153442
      ],
      "min": [
        -0.99931812286376953,
        -0.99917143583297729,
        -0.99672490358352661
      ],
      "type": "VEC3"
    },
    {
      "name": "TEXCOORD_0",
      "bufferView": 0,
      "byteOffset": 174680,
      "componentType": 5126,
      "count": 373,
      "max": [
        0.998046875,
        0.998046875
      ],
      "min": [
        0.001953125,
        0.892578125
      ],
      "type": "VEC2"
    },
    {
      "bufferView": 1,
      "byteOffset": 25296,
      "componentType": 5123,
      "count": 684,
      "type": "SCALAR"
    }
  ],
  "bufferViews": [
    {
      "buffer": 0,
      "byteLength": 186592,
      "byteStride": 32,
      "target": 34962
    },
    {
      "buffer": 0,
      "byteLength": 26664,
      "byteOffset": 186592,
      "target": 34963
    }
  ],
  "buffers": [
    {
      "byteLength": 213256,
      "uri": "20525362525051734146_LOD00.bin"
    }
  ],
  "images": [
    {
      "uri": "20525362525051734146_LOD00_0.png"
    },
    {
      "uri": "20525362525051734146_LOD00_1.png"
    }
  ],
  "materials": [
    {
      "doubleSided": true,
      "pbrMetallicRoughness": {
        "baseColorTexture": {
          "index": 0
        },
        "metallicFactor": 0
      }
    },
    {
      "doubleSided": true,
      "pbrMetallicRoughness": {
        "baseColorTexture": {
          "index": 1
        },
        "metallicFactor": 0
      }
    }
  ],
  "meshes": [
    {
      "name": "20525362525051734146_0",
      "primitives": [
        {
          "attributes": {
            "POSITION": 0,
            "NORMAL": 1,
            "TEXCOORD_0": 2
          },
          "indices": 3,
          "material": 0
        }
      ]
    },
    {
      "name": "20525362525051734146_1",
      "primitives": [
        {
          "attributes": {
            "POSITION": 4,
            "NORMAL": 5,
            "TEXCOORD_0": 6
          },
          "indices": 7,
          "material": 1
        }
      ]
    }
  ],
  "nodes": [
    {
      "mesh": 0
    },
    {
      "mesh": 1
    }
  ],
  "scene": 0,
  "scenes": [
    {
      "nodes": [
        0,
        1
      ]
    }
  ],
  "textures": [
    {
      "source": 0
    },
    {
      "source": 1
    }
  ]
}