{
  "asset": {
    "copyright": "",
    "generator": "SharpGLTF 1.0.0",
    "version": "2.0"
  },
  "accessors": [
    {
      "name": "POSITION",
      "bufferView": 0,
      "componentType": 5126,
      "count": 1038,
      "max": [
        -67.287864685058594,
        37.838348388671875,
        383.09048461914063
      ],
      "min": [
        -100.32950592041016,
        20.0712890625,
        344.39654541015625
      ],
      "type": "VEC3"
    },
    {
      "name": "NORMAL",
      "bufferView": 0,
      "byteOffset": 12,
      "componentType": 5126,
      "count": 1038,
      "max": [
        0.9999922513961792,
        0.99998462200164795,
        0.99999195337295532
      ],
      "min": [
        -0.99999213218688965,
        -1,
        -0.9999924898147583
      ],
      "type": "VEC3"
    },
    {
      "name": "TEXCOORD_0",
      "bufferView": 0,
      "byteOffset": 24,
      "componentType": 5126,
      "count": 1038,
      "max": [
        0.9990234375,
        0.9990234375
      ],
      "min": [
        0.0009765625,
        0.0185546875
      ],
      "type": "VEC2"
    },
    {
      "bufferView": 1,
      "componentType": 5123,
      "count": 2511,
      "type": "SCALAR"
    }
  ],
  "bufferViews": [
    {
      "buffer": 0,
      "byteLength": 33216,
      "byteStride": 32,
      "target": 34962
    },
    {
      "buffer": 0,
      "byteLength": 5022,
      "byteOffset": 33216,
      "target": 34963
    }
  ],
  "buffers": [
    {
      "byteLength": 38240,
      "uri": "20525362525051736060_LOD00.bin"
    }
  ],
  "images": [
    {
      "uri": "20525362525051736060_LOD00.png"
    }
  ],
  "materials": [
    {
      "doubleSided": true,
      "pbrMetallicRoughness": {
        "baseColorTexture": {
          "index": 0
        },
        "metallicFactor": 0
      }
    }
  ],
  "meshes": [
    {
      "name": "20525362525051736060_0",
      "primitives": [
        {
          "attributes": {
            "POSITION": 0,
            "NORMAL": 1,
            "TEXCOORD_0": 2
          },
          "indices": 3,
          "material": 0
        }
      ]
    }
  ],
  "nodes": [
    {
      "mesh": 0
    }
  ],
  "scene": 0,
  "scenes": [
    {
      "nodes": [
        0
      ]
    }
  ],
  "textures": [
    {
      "source": 0
    }
  ]
}