{
  "asset": {
    "copyright": "",
    "generator": "SharpGLTF 1.0.0",
    "version": "2.0"
  },
  "accessors": [
    {
      "name": "POSITION",
      "bufferView": 0,
      "componentType": 5126,
      "count": 83,
      "max": [
        -662.52105712890625,
        37.801689147949219,
        443.04754638671875
      ],
      "min": [
        -677.65496826171875,
        9.5295124053955078,
        420.84640502929688
      ],
      "type": "VEC3"
    },
    {
      "name": "NORMAL",
      "bufferView": 0,
      "byteOffset": 12,
      "componentType": 5126,
      "count": 83,
      "max": [
        0.99999266862869263,
        0.043441671878099442,
        0.9999920129776001
      ],
      "min": [
        6.5062115027103573E-05,
        -1,
        -9.0034343884326518E-05
      ],
      "type": "VEC3"
    },
    {
      "name": "TEXCOORD_0",
      "bufferView": 0,
      "byteOffset": 24,
      "componentType": 5126,
      "count": 83,
      "max": [
        0.927734375,
        0.9990234375
      ],
      "min": [
        0.001953125,
        0.3076171875
      ],
      "type": "VEC2"
    },
    {
      "bufferView": 1,
      "componentType": 5123,
      "count": 222,
      "type": "SCALAR"
    }
  ],
  "bufferViews": [
    {
      "buffer": 0,
      "byteLength": 2656,
      "byteStride": 32,
      "target": 34962
    },
    {
      "buffer": 0,
      "byteLength": 444,
      "byteOffset": 2656,
      "target": 34963
    }
  ],
  "buffers": [
    {
      "byteLength": 3100,
      "uri": "20525362525140626250_LOD00.bin"
    }
  ],
  "images": [
    {
      "uri": "20525362525140626250_LOD00.png"
    }
  ],
  "materials": [
    {
      "doubleSided": true,
      "pbrMetallicRoughness": {
        "baseColorTexture": {
          "index": 0
        },
        "metallicFactor": 0
      }
    }
  ],
  "meshes": [
    {
      "name": "20525362525140626250_0",
      "primitives": [
        {
          "attributes": {
            "POSITION": 0,
            "NORMAL": 1,
            "TEXCOORD_0": 2
          },
          "indices": 3,
          "material": 0
        }
      ]
    }
  ],
  "nodes": [
    {
      "mesh": 0
    }
  ],
  "scene": 0,
  "scenes": [
    {
      "nodes": [
        0
      ]
    }
  ],
  "textures": [
    {
      "source": 0
    }
  ]
}