{
  "asset": {
    "copyright": "",
    "generator": "SharpGLTF 1.0.0",
    "version": "2.0"
  },
  "accessors": [
    {
      "name": "POSITION",
      "bufferView": 0,
      "componentType": 5126,
      "count": 140,
      "max": [
        -581.3441162109375,
        110.68974304199219,
        448.44366455078125
      ],
      "min": [
        -613.46270751953125,
        74.230323791503906,
        446.74380493164063
      ],
      "type": "VEC3"
    },
    {
      "name": "NORMAL",
      "bufferView": 0,
      "byteOffset": 12,
      "componentType": 5126,
      "count": 140,
      "max": [
        0.99999254941940308,
        0.0055925655178725719,
        0.99999195337295532
      ],
      "min": [
        -0.99999189376831055,
        -0.0056108711287379265,
        -5.8644753153203055E-05
      ],
      "type": "VEC3"
    },
    {
      "name": "TEXCOORD_0",
      "bufferView": 0,
      "byteOffset": 24,
      "componentType": 5126,
      "count": 140,
      "max": [
        0.974609375,
        0.998046875
      ],
      "min": [
        0.001953125,
        0.037109375
      ],
      "type": "VEC2"
    },
    {
      "bufferView": 1,
      "componentType": 5123,
      "count": 381,
      "type": "SCALAR"
    }
  ],
  "bufferViews": [
    {
      "buffer": 0,
      "byteLength": 4480,
      "byteStride": 32,
      "target": 34962
    },
    {
      "buffer": 0,
      "byteLength": 762,
      "byteOffset": 4480,
      "target": 34963
    }
  ],
  "buffers": [
    {
      "byteLength": 5244,
      "uri": "20525362525140626600_LOD00.bin"
    }
  ],
  "images": [
    {
      "uri": "20525362525140626600_LOD00.png"
    }
  ],
  "materials": [
    {
      "doubleSided": true,
      "pbrMetallicRoughness": {
        "baseColorTexture": {
          "index": 0
        },
        "metallicFactor": 0
      }
    }
  ],
  "meshes": [
    {
      "name": "20525362525140626600_0",
      "primitives": [
        {
          "attributes": {
            "POSITION": 0,
            "NORMAL": 1,
            "TEXCOORD_0": 2
          },
          "indices": 3,
          "material": 0
        }
      ]
    }
  ],
  "nodes": [
    {
      "mesh": 0
    }
  ],
  "scene": 0,
  "scenes": [
    {
      "nodes": [
        0
      ]
    }
  ],
  "textures": [
    {
      "source": 0
    }
  ]
}