{
  "asset": {
    "copyright": "",
    "generator": "SharpGLTF 1.0.0",
    "version": "2.0"
  },
  "accessors": [
    {
      "name": "POSITION",
      "bufferView": 0,
      "componentType": 5126,
      "count": 4167,
      "max": [
        -420.8548583984375,
        57.281349182128906,
        191.5626220703125
      ],
      "min": [
        -452.97274780273438,
        37.353702545166016,
        153.33049011230469
      ],
      "type": "VEC3"
    },
    {
      "name": "NORMAL",
      "bufferView": 0,
      "byteOffset": 12,
      "componentType": 5126,
      "count": 4167,
      "max": [
        0.99931478500366211,
        0.9999847412109375,
        0.99999213218688965
      ],
      "min": [
        -0.99931961297988892,
        -0.99122744798660278,
        -0.99999237060546875
      ],
      "type": "VEC3"
    },
    {
      "name": "TEXCOORD_0",
      "bufferView": 0,
      "byteOffset": 24,
      "componentType": 5126,
      "count": 4167,
      "max": [
        0.998046875,
        0.9990234375
      ],
      "min": [
        0.001953125,
        0.0009765625
      ],
      "type": "VEC2"
    },
    {
      "bufferView": 1,
      "componentType": 5123,
      "count": 10107,
      "type": "SCALAR"
    },
    {
      "name": "POSITION",
      "bufferView": 0,
      "byteOffset": 133344,
      "componentType": 5126,
      "count": 1840,
      "max": [
        -420.85482788085938,
        57.280155181884766,
        191.71676635742188
      ],
      "min": [
        -452.97216796875,
        37.508186340332031,
        153.33050537109375
      ],
      "type": "VEC3"
    },
    {
      "name": "NORMAL",
      "bufferView": 0,
      "byteOffset": 133356,
      "componentType": 5126,
      "count": 1840,
      "max": [
        0.99931478500366211,
        0.9999847412109375,
        0.99999213218688965
      ],
      "min": [
        -0.99818342924118042,
        -0.99122744798660278,
        -0.99999237060546875
      ],
      "type": "VEC3"
    },
    {
      "name": "TEXCOORD_0",
      "bufferView": 0,
      "byteOffset": 133368,
      "componentType": 5126,
      "count": 1840,
      "max": [
        0.998046875,
        0.998046875
      ],
      "min": [
        0.001953125,
        0.376953125
      ],
      "type": "VEC2"
    },
    {
      "bufferView": 1,
      "byteOffset": 20214,
      "componentType": 5123,
      "count": 4266,
      "type": "SCALAR"
    }
  ],
  "bufferViews": [
    {
      "buffer": 0,
      "byteLength": 192224,
      "byteStride": 32,
      "target": 34962
    },
    {
      "buffer": 0,
      "byteLength": 28746,
      "byteOffset": 192224,
      "target": 34963
    }
  ],
  "buffers": [
    {
      "byteLength": 220972,
      "uri": "20525362525051735257_LOD00.bin"
    }
  ],
  "images": [
    {
      "uri": "20525362525051735257_LOD00_0.png"
    },
    {
      "uri": "20525362525051735257_LOD00_1.png"
    }
  ],
  "materials": [
    {
      "doubleSided": true,
      "pbrMetallicRoughness": {
        "baseColorTexture": {
          "index": 0
        },
        "metallicFactor": 0
      }
    },
    {
      "doubleSided": true,
      "pbrMetallicRoughness": {
        "baseColorTexture": {
          "index": 1
        },
        "metallicFactor": 0
      }
    }
  ],
  "meshes": [
    {
      "name": "20525362525051735257_0",
      "primitives": [
        {
          "attributes": {
            "POSITION": 0,
            "NORMAL": 1,
            "TEXCOORD_0": 2
          },
          "indices": 3,
          "material": 0
        }
      ]
    },
    {
      "name": "20525362525051735257_1",
      "primitives": [
        {
          "attributes": {
            "POSITION": 4,
            "NORMAL": 5,
            "TEXCOORD_0": 6
          },
          "indices": 7,
          "material": 1
        }
      ]
    }
  ],
  "nodes": [
    {
      "mesh": 0
    },
    {
      "mesh": 1
    }
  ],
  "scene": 0,
  "scenes": [
    {
      "nodes": [
        0,
        1
      ]
    }
  ],
  "textures": [
    {
      "source": 0
    },
    {
      "source": 1
    }
  ]
}