{
  "asset": {
    "copyright": "",
    "generator": "SharpGLTF 1.0.0",
    "version": "2.0"
  },
  "accessors": [
    {
      "name": "POSITION",
      "bufferView": 0,
      "componentType": 5126,
      "count": 2170,
      "max": [
        -67.750984191894531,
        67.327362060546875,
        382.62850952148438
      ],
      "min": [
        -99.866744995117188,
        37.357288360595703,
        344.39739990234375
      ],
      "type": "VEC3"
    },
    {
      "name": "NORMAL",
      "bufferView": 0,
      "byteOffset": 12,
      "componentType": 5126,
      "count": 2170,
      "max": [
        0.9999922513961792,
        0.99998462200164795,
        0.9999920129776001
      ],
      "min": [
        -0.99999219179153442,
        -1,
        -0.99999243021011353
      ],
      "type": "VEC3"
    },
    {
      "name": "TEXCOORD_0",
      "bufferView": 0,
      "byteOffset": 24,
      "componentType": 5126,
      "count": 2170,
      "max": [
        0.9990234375,
        0.9990234375
      ],
      "min": [
        0.0009765625,
        0.0009765625
      ],
      "type": "VEC2"
    },
    {
      "bufferView": 1,
      "componentType": 5123,
      "count": 4332,
      "type": "SCALAR"
    },
    {
      "name": "POSITION",
      "bufferView": 0,
      "byteOffset": 69440,
      "componentType": 5126,
      "count": 1112,
      "max": [
        -67.750961303710938,
        69.489952087402344,
        382.62850952148438
      ],
      "min": [
        -99.866744995117188,
        37.357288360595703,
        344.3974609375
      ],
      "type": "VEC3"
    },
    {
      "name": "NORMAL",
      "bufferView": 0,
      "byteOffset": 69452,
      "componentType": 5126,
      "count": 1112,
      "max": [
        0.9999922513961792,
        0.99998462200164795,
        0.9999920129776001
      ],
      "min": [
        -0.99999219179153442,
        -1,
        -0.99999243021011353
      ],
      "type": "VEC3"
    },
    {
      "name": "TEXCOORD_0",
      "bufferView": 0,
      "byteOffset": 69464,
      "componentType": 5126,
      "count": 1112,
      "max": [
        0.998046875,
        0.9990234375
      ],
      "min": [
        0.001953125,
        0.1533203125
      ],
      "type": "VEC2"
    },
    {
      "bufferView": 1,
      "byteOffset": 8664,
      "componentType": 5123,
      "count": 2499,
      "type": "SCALAR"
    }
  ],
  "bufferViews": [
    {
      "buffer": 0,
      "byteLength": 105024,
      "byteStride": 32,
      "target": 34962
    },
    {
      "buffer": 0,
      "byteLength": 13662,
      "byteOffset": 105024,
      "target": 34963
    }
  ],
  "buffers": [
    {
      "byteLength": 118688,
      "uri": "20525362525051736064_LOD00.bin"
    }
  ],
  "images": [
    {
      "uri": "20525362525051736064_LOD00_0.png"
    },
    {
      "uri": "20525362525051736064_LOD00_1.png"
    }
  ],
  "materials": [
    {
      "doubleSided": true,
      "pbrMetallicRoughness": {
        "baseColorTexture": {
          "index": 0
        },
        "metallicFactor": 0
      }
    },
    {
      "doubleSided": true,
      "pbrMetallicRoughness": {
        "baseColorTexture": {
          "index": 1
        },
        "metallicFactor": 0
      }
    }
  ],
  "meshes": [
    {
      "name": "20525362525051736064_0",
      "primitives": [
        {
          "attributes": {
            "POSITION": 0,
            "NORMAL": 1,
            "TEXCOORD_0": 2
          },
          "indices": 3,
          "material": 0
        }
      ]
    },
    {
      "name": "20525362525051736064_1",
      "primitives": [
        {
          "attributes": {
            "POSITION": 4,
            "NORMAL": 5,
            "TEXCOORD_0": 6
          },
          "indices": 7,
          "material": 1
        }
      ]
    }
  ],
  "nodes": [
    {
      "mesh": 0
    },
    {
      "mesh": 1
    }
  ],
  "scene": 0,
  "scenes": [
    {
      "nodes": [
        0,
        1
      ]
    }
  ],
  "textures": [
    {
      "source": 0
    },
    {
      "source": 1
    }
  ]
}