{
  "asset": {
    "copyright": "",
    "generator": "SharpGLTF 1.0.0",
    "version": "2.0"
  },
  "accessors": [
    {
      "name": "POSITION",
      "bufferView": 0,
      "componentType": 5126,
      "count": 4857,
      "max": [
        -324.54833984375,
        63.455959320068359,
        382.78912353515625
      ],
      "min": [
        -356.66473388671875,
        40.286571502685547,
        344.24932861328125
      ],
      "type": "VEC3"
    },
    {
      "name": "NORMAL",
      "bufferView": 0,
      "byteOffset": 12,
      "componentType": 5126,
      "count": 4857,
      "max": [
        0.99999237060546875,
        0.99998486042022705,
        0.9999920129776001
      ],
      "min": [
        -0.99999195337295532,
        -1,
        -0.99999243021011353
      ],
      "type": "VEC3"
    },
    {
      "name": "TEXCOORD_0",
      "bufferView": 0,
      "byteOffset": 24,
      "componentType": 5126,
      "count": 4857,
      "max": [
        0.998046875,
        0.9990234375
      ],
      "min": [
        0.001953125,
        0.0009765625
      ],
      "type": "VEC2"
    },
    {
      "bufferView": 1,
      "componentType": 5123,
      "count": 11733,
      "type": "SCALAR"
    },
    {
      "name": "POSITION",
      "bufferView": 0,
      "byteOffset": 155424,
      "componentType": 5126,
      "count": 1003,
      "max": [
        -324.54959106445313,
        63.455959320068359,
        382.63388061523438
      ],
      "min": [
        -356.66448974609375,
        46.001617431640625,
        344.4029541015625
      ],
      "type": "VEC3"
    },
    {
      "name": "NORMAL",
      "bufferView": 0,
      "byteOffset": 155436,
      "componentType": 5126,
      "count": 1003,
      "max": [
        0.99999237060546875,
        0.99998486042022705,
        0.9999920129776001
      ],
      "min": [
        -0.99931871891021729,
        -0.8530842661857605,
        -0.99999243021011353
      ],
      "type": "VEC3"
    },
    {
      "name": "TEXCOORD_0",
      "bufferView": 0,
      "byteOffset": 155448,
      "componentType": 5126,
      "count": 1003,
      "max": [
        0.998046875,
        0.998046875
      ],
      "min": [
        0.001953125,
        0.677734375
      ],
      "type": "VEC2"
    },
    {
      "bufferView": 1,
      "byteOffset": 23466,
      "componentType": 5123,
      "count": 2199,
      "type": "SCALAR"
    }
  ],
  "bufferViews": [
    {
      "buffer": 0,
      "byteLength": 187520,
      "byteStride": 32,
      "target": 34962
    },
    {
      "buffer": 0,
      "byteLength": 27864,
      "byteOffset": 187520,
      "target": 34963
    }
  ],
  "buffers": [
    {
      "byteLength": 215384,
      "uri": "20525362525051737064_LOD00.bin"
    }
  ],
  "images": [
    {
      "uri": "20525362525051737064_LOD00_0.png"
    },
    {
      "uri": "20525362525051737064_LOD00_1.png"
    }
  ],
  "materials": [
    {
      "doubleSided": true,
      "pbrMetallicRoughness": {
        "baseColorTexture": {
          "index": 0
        },
        "metallicFactor": 0
      }
    },
    {
      "doubleSided": true,
      "pbrMetallicRoughness": {
        "baseColorTexture": {
          "index": 1
        },
        "metallicFactor": 0
      }
    }
  ],
  "meshes": [
    {
      "name": "20525362525051737064_0",
      "primitives": [
        {
          "attributes": {
            "POSITION": 0,
            "NORMAL": 1,
            "TEXCOORD_0": 2
          },
          "indices": 3,
          "material": 0
        }
      ]
    },
    {
      "name": "20525362525051737064_1",
      "primitives": [
        {
          "attributes": {
            "POSITION": 4,
            "NORMAL": 5,
            "TEXCOORD_0": 6
          },
          "indices": 7,
          "material": 1
        }
      ]
    }
  ],
  "nodes": [
    {
      "mesh": 0
    },
    {
      "mesh": 1
    }
  ],
  "scene": 0,
  "scenes": [
    {
      "nodes": [
        0,
        1
      ]
    }
  ],
  "textures": [
    {
      "source": 0
    },
    {
      "source": 1
    }
  ]
}