{
  "asset": {
    "copyright": "",
    "generator": "SharpGLTF 1.0.0",
    "version": "2.0"
  },
  "accessors": [
    {
      "name": "POSITION",
      "bufferView": 0,
      "componentType": 5126,
      "count": 3973,
      "max": [
        -164.04757690429688,
        74.266159057617188,
        535.95220947265625
      ],
      "min": [
        -196.16329956054688,
        37.808578491210938,
        497.2584228515625
      ],
      "type": "VEC3"
    },
    {
      "name": "NORMAL",
      "bufferView": 0,
      "byteOffset": 12,
      "componentType": 5126,
      "count": 3973,
      "max": [
        0.99999237060546875,
        0.99998486042022705,
        0.99999195337295532
      ],
      "min": [
        -0.99999219179153442,
        -1,
        -0.99999254941940308
      ],
      "type": "VEC3"
    },
    {
      "name": "TEXCOORD_0",
      "bufferView": 0,
      "byteOffset": 24,
      "componentType": 5126,
      "count": 3973,
      "max": [
        0.9990234375,
        0.9990234375
      ],
      "min": [
        0.0009765625,
        0.0009765625
      ],
      "type": "VEC2"
    },
    {
      "bufferView": 1,
      "componentType": 5123,
      "count": 9342,
      "type": "SCALAR"
    },
    {
      "name": "POSITION",
      "bufferView": 0,
      "byteOffset": 127136,
      "componentType": 5126,
      "count": 1345,
      "max": [
        -164.0477294921875,
        71.021621704101563,
        535.9525146484375
      ],
      "min": [
        -196.4713134765625,
        37.809310913085938,
        497.2586669921875
      ],
      "type": "VEC3"
    },
    {
      "name": "NORMAL",
      "bufferView": 0,
      "byteOffset": 127148,
      "componentType": 5126,
      "count": 1345,
      "max": [
        0.99485927820205688,
        0.99998486042022705,
        0.99999195337295532
      ],
      "min": [
        -0.99999219179153442,
        -1,
        -0.99999254941940308
      ],
      "type": "VEC3"
    },
    {
      "name": "TEXCOORD_0",
      "bufferView": 0,
      "byteOffset": 127160,
      "componentType": 5126,
      "count": 1345,
      "max": [
        0.998046875,
        0.998046875
      ],
      "min": [
        0.001953125,
        0.248046875
      ],
      "type": "VEC2"
    },
    {
      "bufferView": 1,
      "byteOffset": 18684,
      "componentType": 5123,
      "count": 3177,
      "type": "SCALAR"
    }
  ],
  "bufferViews": [
    {
      "buffer": 0,
      "byteLength": 170176,
      "byteStride": 32,
      "target": 34962
    },
    {
      "buffer": 0,
      "byteLength": 25038,
      "byteOffset": 170176,
      "target": 34963
    }
  ],
  "buffers": [
    {
      "byteLength": 195216,
      "uri": "20525362525051736275_LOD00.bin"
    }
  ],
  "images": [
    {
      "uri": "20525362525051736275_LOD00_0.png"
    },
    {
      "uri": "20525362525051736275_LOD00_1.png"
    }
  ],
  "materials": [
    {
      "doubleSided": true,
      "pbrMetallicRoughness": {
        "baseColorTexture": {
          "index": 0
        },
        "metallicFactor": 0
      }
    },
    {
      "doubleSided": true,
      "pbrMetallicRoughness": {
        "baseColorTexture": {
          "index": 1
        },
        "metallicFactor": 0
      }
    }
  ],
  "meshes": [
    {
      "name": "20525362525051736275_0",
      "primitives": [
        {
          "attributes": {
            "POSITION": 0,
            "NORMAL": 1,
            "TEXCOORD_0": 2
          },
          "indices": 3,
          "material": 0
        }
      ]
    },
    {
      "name": "20525362525051736275_1",
      "primitives": [
        {
          "attributes": {
            "POSITION": 4,
            "NORMAL": 5,
            "TEXCOORD_0": 6
          },
          "indices": 7,
          "material": 1
        }
      ]
    }
  ],
  "nodes": [
    {
      "mesh": 0
    },
    {
      "mesh": 1
    }
  ],
  "scene": 0,
  "scenes": [
    {
      "nodes": [
        0,
        1
      ]
    }
  ],
  "textures": [
    {
      "source": 0
    },
    {
      "source": 1
    }
  ]
}