{
  "asset": {
    "copyright": "",
    "generator": "SharpGLTF 1.0.0",
    "version": "2.0"
  },
  "accessors": [
    {
      "name": "POSITION",
      "bufferView": 0,
      "componentType": 5126,
      "count": 2322,
      "max": [
        -548.775146484375,
        68.372955322265625,
        535.50604248046875
      ],
      "min": [
        -581.81915283203125,
        42.420028686523438,
        496.81280517578125
      ],
      "type": "VEC3"
    },
    {
      "name": "NORMAL",
      "bufferView": 0,
      "byteOffset": 12,
      "componentType": 5126,
      "count": 2322,
      "max": [
        0.99999254941940308,
        0.99998503923416138,
        0.99999189376831055
      ],
      "min": [
        -0.99999189376831055,
        -1,
        -0.99999254941940308
      ],
      "type": "VEC3"
    },
    {
      "name": "TEXCOORD_0",
      "bufferView": 0,
      "byteOffset": 24,
      "componentType": 5126,
      "count": 2322,
      "max": [
        0.998046875,
        0.9990234375
      ],
      "min": [
        0.001953125,
        0.0009765625
      ],
      "type": "VEC2"
    },
    {
      "bufferView": 1,
      "componentType": 5123,
      "count": 5799,
      "type": "SCALAR"
    },
    {
      "name": "POSITION",
      "bufferView": 0,
      "byteOffset": 74304,
      "componentType": 5126,
      "count": 1382,
      "max": [
        -548.775146484375,
        68.372955322265625,
        535.504638671875
      ],
      "min": [
        -581.81915283203125,
        45.049591064453125,
        496.81280517578125
      ],
      "type": "VEC3"
    },
    {
      "name": "NORMAL",
      "bufferView": 0,
      "byteOffset": 74316,
      "componentType": 5126,
      "count": 1382,
      "max": [
        0.99931395053863525,
        0.99998503923416138,
        0.99999189376831055
      ],
      "min": [
        -0.999320387840271,
        -0.99149423837661743,
        -0.99999254941940308
      ],
      "type": "VEC3"
    },
    {
      "name": "TEXCOORD_0",
      "bufferView": 0,
      "byteOffset": 74328,
      "componentType": 5126,
      "count": 1382,
      "max": [
        0.998046875,
        0.998046875
      ],
      "min": [
        0.001953125,
        0.412109375
      ],
      "type": "VEC2"
    },
    {
      "bufferView": 1,
      "byteOffset": 11598,
      "componentType": 5123,
      "count": 3678,
      "type": "SCALAR"
    }
  ],
  "bufferViews": [
    {
      "buffer": 0,
      "byteLength": 118528,
      "byteStride": 32,
      "target": 34962
    },
    {
      "buffer": 0,
      "byteLength": 18954,
      "byteOffset": 118528,
      "target": 34963
    }
  ],
  "buffers": [
    {
      "byteLength": 137484,
      "uri": "20525362525051737375_LOD00.bin"
    }
  ],
  "images": [
    {
      "uri": "20525362525051737375_LOD00_0.png"
    },
    {
      "uri": "20525362525051737375_LOD00_1.png"
    }
  ],
  "materials": [
    {
      "doubleSided": true,
      "pbrMetallicRoughness": {
        "baseColorTexture": {
          "index": 0
        },
        "metallicFactor": 0
      }
    },
    {
      "doubleSided": true,
      "pbrMetallicRoughness": {
        "baseColorTexture": {
          "index": 1
        },
        "metallicFactor": 0
      }
    }
  ],
  "meshes": [
    {
      "name": "20525362525051737375_0",
      "primitives": [
        {
          "attributes": {
            "POSITION": 0,
            "NORMAL": 1,
            "TEXCOORD_0": 2
          },
          "indices": 3,
          "material": 0
        }
      ]
    },
    {
      "name": "20525362525051737375_1",
      "primitives": [
        {
          "attributes": {
            "POSITION": 4,
            "NORMAL": 5,
            "TEXCOORD_0": 6
          },
          "indices": 7,
          "material": 1
        }
      ]
    }
  ],
  "nodes": [
    {
      "mesh": 0
    },
    {
      "mesh": 1
    }
  ],
  "scene": 0,
  "scenes": [
    {
      "nodes": [
        0,
        1
      ]
    }
  ],
  "textures": [
    {
      "source": 0
    },
    {
      "source": 1
    }
  ]
}