{
  "asset": {
    "copyright": "",
    "generator": "SharpGLTF 1.0.0",
    "version": "2.0"
  },
  "accessors": [
    {
      "name": "POSITION",
      "bufferView": 0,
      "componentType": 5126,
      "count": 4403,
      "max": [
        -741.85430908203125,
        58.176448822021484,
        229.79727172851563
      ],
      "min": [
        -773.97454833984375,
        42.730545043945313,
        191.56381225585938
      ],
      "type": "VEC3"
    },
    {
      "name": "NORMAL",
      "bufferView": 0,
      "byteOffset": 12,
      "componentType": 5126,
      "count": 4403,
      "max": [
        0.99999260902404785,
        0.99998509883880615,
        0.99999207258224487
      ],
      "min": [
        -0.99999183416366577,
        -0.99639153480529785,
        -0.99999237060546875
      ],
      "type": "VEC3"
    },
    {
      "name": "TEXCOORD_0",
      "bufferView": 0,
      "byteOffset": 24,
      "componentType": 5126,
      "count": 4403,
      "max": [
        0.998046875,
        0.9990234375
      ],
      "min": [
        0.001953125,
        0.0009765625
      ],
      "type": "VEC2"
    },
    {
      "bufferView": 1,
      "componentType": 5123,
      "count": 10812,
      "type": "SCALAR"
    },
    {
      "name": "POSITION",
      "bufferView": 0,
      "byteOffset": 140896,
      "componentType": 5126,
      "count": 2687,
      "max": [
        -741.8544921875,
        58.330772399902344,
        229.79678344726563
      ],
      "min": [
        -773.97406005859375,
        42.731117248535156,
        191.56381225585938
      ],
      "type": "VEC3"
    },
    {
      "name": "NORMAL",
      "bufferView": 0,
      "byteOffset": 140908,
      "componentType": 5126,
      "count": 2687,
      "max": [
        0.99999260902404785,
        0.99998509883880615,
        0.9967271089553833
      ],
      "min": [
        -0.99999183416366577,
        -0.99639153480529785,
        -0.99999237060546875
      ],
      "type": "VEC3"
    },
    {
      "name": "TEXCOORD_0",
      "bufferView": 0,
      "byteOffset": 140920,
      "componentType": 5126,
      "count": 2687,
      "max": [
        0.998046875,
        0.998046875
      ],
      "min": [
        0.001953125,
        0.025390625
      ],
      "type": "VEC2"
    },
    {
      "bufferView": 1,
      "byteOffset": 21624,
      "componentType": 5123,
      "count": 6564,
      "type": "SCALAR"
    }
  ],
  "bufferViews": [
    {
      "buffer": 0,
      "byteLength": 226880,
      "byteStride": 32,
      "target": 34962
    },
    {
      "buffer": 0,
      "byteLength": 34752,
      "byteOffset": 226880,
      "target": 34963
    }
  ],
  "buffers": [
    {
      "byteLength": 261632,
      "uri": "20525362525140624365_LOD00.bin"
    }
  ],
  "images": [
    {
      "uri": "20525362525140624365_LOD00_0.png"
    },
    {
      "uri": "20525362525140624365_LOD00_1.png"
    }
  ],
  "materials": [
    {
      "doubleSided": true,
      "pbrMetallicRoughness": {
        "baseColorTexture": {
          "index": 0
        },
        "metallicFactor": 0
      }
    },
    {
      "doubleSided": true,
      "pbrMetallicRoughness": {
        "baseColorTexture": {
          "index": 1
        },
        "metallicFactor": 0
      }
    }
  ],
  "meshes": [
    {
      "name": "20525362525140624365_0",
      "primitives": [
        {
          "attributes": {
            "POSITION": 0,
            "NORMAL": 1,
            "TEXCOORD_0": 2
          },
          "indices": 3,
          "material": 0
        }
      ]
    },
    {
      "name": "20525362525140624365_1",
      "primitives": [
        {
          "attributes": {
            "POSITION": 4,
            "NORMAL": 5,
            "TEXCOORD_0": 6
          },
          "indices": 7,
          "material": 1
        }
      ]
    }
  ],
  "nodes": [
    {
      "mesh": 0
    },
    {
      "mesh": 1
    }
  ],
  "scene": 0,
  "scenes": [
    {
      "nodes": [
        0,
        1
      ]
    }
  ],
  "textures": [
    {
      "source": 0
    },
    {
      "source": 1
    }
  ]
}