{
  "asset": {
    "copyright": "",
    "generator": "SharpGLTF 1.0.0",
    "version": "2.0"
  },
  "accessors": [
    {
      "name": "POSITION",
      "bufferView": 0,
      "componentType": 5126,
      "count": 17,
      "max": [
        -229.94911193847656,
        37.836894989013672,
        307.88040161132813
      ],
      "min": [
        -233.80912780761719,
        37.373336791992188,
        305.72216796875
      ],
      "type": "VEC3"
    },
    {
      "name": "NORMAL",
      "bufferView": 0,
      "byteOffset": 12,
      "componentType": 5126,
      "count": 17,
      "max": [
        0.31306597590446472,
        0.99998444318771362,
        0.0050004194490611553
      ],
      "min": [
        -0.0041452343575656414,
        0.94971823692321777,
        -0.045078787952661514
      ],
      "type": "VEC3"
    },
    {
      "name": "TEXCOORD_0",
      "bufferView": 0,
      "byteOffset": 24,
      "componentType": 5126,
      "count": 17,
      "max": [
        0.076171875,
        0.998046875
      ],
      "min": [
        0.001953125,
        0.966796875
      ],
      "type": "VEC2"
    },
    {
      "bufferView": 1,
      "componentType": 5123,
      "count": 57,
      "type": "SCALAR"
    }
  ],
  "bufferViews": [
    {
      "buffer": 0,
      "byteLength": 544,
      "byteStride": 32,
      "target": 34962
    },
    {
      "buffer": 0,
      "byteLength": 114,
      "byteOffset": 544,
      "target": 34963
    }
  ],
  "buffers": [
    {
      "byteLength": 660,
      "uri": "20525362525051736143_LOD00.bin"
    }
  ],
  "images": [
    {
      "uri": "20525362525051736143_LOD00.png"
    }
  ],
  "materials": [
    {
      "doubleSided": true,
      "pbrMetallicRoughness": {
        "baseColorTexture": {
          "index": 0
        },
        "metallicFactor": 0
      }
    }
  ],
  "meshes": [
    {
      "name": "20525362525051736143_0",
      "primitives": [
        {
          "attributes": {
            "POSITION": 0,
            "NORMAL": 1,
            "TEXCOORD_0": 2
          },
          "indices": 3,
          "material": 0
        }
      ]
    }
  ],
  "nodes": [
    {
      "mesh": 0
    }
  ],
  "scene": 0,
  "scenes": [
    {
      "nodes": [
        0
      ]
    }
  ],
  "textures": [
    {
      "source": 0
    }
  ]
}