{
  "asset": {
    "copyright": "",
    "generator": "SharpGLTF 1.0.0",
    "version": "2.0"
  },
  "accessors": [
    {
      "name": "POSITION",
      "bufferView": 0,
      "componentType": 5126,
      "count": 4643,
      "max": [
        -452.95925903320313,
        63.767391204833984,
        115.28806304931641
      ],
      "min": [
        -485.07553100585938,
        37.350521087646484,
        76.748504638671875
      ],
      "type": "VEC3"
    },
    {
      "name": "NORMAL",
      "bufferView": 0,
      "byteOffset": 12,
      "componentType": 5126,
      "count": 4643,
      "max": [
        0.99999243021011353,
        0.99998480081558228,
        0.99915188550949097
      ],
      "min": [
        -0.99999195337295532,
        -0.99917095899581909,
        -0.9999922513961792
      ],
      "type": "VEC3"
    },
    {
      "name": "TEXCOORD_0",
      "bufferView": 0,
      "byteOffset": 24,
      "componentType": 5126,
      "count": 4643,
      "max": [
        0.998046875,
        0.9990234375
      ],
      "min": [
        0.001953125,
        0.0009765625
      ],
      "type": "VEC2"
    },
    {
      "bufferView": 1,
      "componentType": 5123,
      "count": 11046,
      "type": "SCALAR"
    },
    {
      "name": "POSITION",
      "bufferView": 0,
      "byteOffset": 148576,
      "componentType": 5126,
      "count": 707,
      "max": [
        -452.95944213867188,
        64.076454162597656,
        115.13358306884766
      ],
      "min": [
        -485.07540893554688,
        37.350521087646484,
        76.902626037597656
      ],
      "type": "VEC3"
    },
    {
      "name": "NORMAL",
      "bufferView": 0,
      "byteOffset": 148588,
      "componentType": 5126,
      "count": 707,
      "max": [
        0.99999243021011353,
        0.99998480081558228,
        0.99914819002151489
      ],
      "min": [
        -0.99931985139846802,
        -0.99511134624481201,
        -0.99931418895721436
      ],
      "type": "VEC3"
    },
    {
      "name": "TEXCOORD_0",
      "bufferView": 0,
      "byteOffset": 148600,
      "componentType": 5126,
      "count": 707,
      "max": [
        0.998046875,
        0.998046875
      ],
      "min": [
        0.001953125,
        0.794921875
      ],
      "type": "VEC2"
    },
    {
      "bufferView": 1,
      "byteOffset": 22092,
      "componentType": 5123,
      "count": 1545,
      "type": "SCALAR"
    }
  ],
  "bufferViews": [
    {
      "buffer": 0,
      "byteLength": 171200,
      "byteStride": 32,
      "target": 34962
    },
    {
      "buffer": 0,
      "byteLength": 25182,
      "byteOffset": 171200,
      "target": 34963
    }
  ],
  "buffers": [
    {
      "byteLength": 196384,
      "uri": "20525362525051735166_LOD00.bin"
    }
  ],
  "images": [
    {
      "uri": "20525362525051735166_LOD00_0.png"
    },
    {
      "uri": "20525362525051735166_LOD00_1.png"
    }
  ],
  "materials": [
    {
      "doubleSided": true,
      "pbrMetallicRoughness": {
        "baseColorTexture": {
          "index": 0
        },
        "metallicFactor": 0
      }
    },
    {
      "doubleSided": true,
      "pbrMetallicRoughness": {
        "baseColorTexture": {
          "index": 1
        },
        "metallicFactor": 0
      }
    }
  ],
  "meshes": [
    {
      "name": "20525362525051735166_0",
      "primitives": [
        {
          "attributes": {
            "POSITION": 0,
            "NORMAL": 1,
            "TEXCOORD_0": 2
          },
          "indices": 3,
          "material": 0
        }
      ]
    },
    {
      "name": "20525362525051735166_1",
      "primitives": [
        {
          "attributes": {
            "POSITION": 4,
            "NORMAL": 5,
            "TEXCOORD_0": 6
          },
          "indices": 7,
          "material": 1
        }
      ]
    }
  ],
  "nodes": [
    {
      "mesh": 0
    },
    {
      "mesh": 1
    }
  ],
  "scene": 0,
  "scenes": [
    {
      "nodes": [
        0,
        1
      ]
    }
  ],
  "textures": [
    {
      "source": 0
    },
    {
      "source": 1
    }
  ]
}