{
  "asset": {
    "copyright": "",
    "generator": "SharpGLTF 1.0.0",
    "version": "2.0"
  },
  "accessors": [
    {
      "name": "POSITION",
      "bufferView": 0,
      "componentType": 5126,
      "count": 4572,
      "max": [
        -709.292236328125,
        59.413532257080078,
        268.009521484375
      ],
      "min": [
        -741.8699951171875,
        43.193206787109375,
        229.77690124511719
      ],
      "type": "VEC3"
    },
    {
      "name": "NORMAL",
      "bufferView": 0,
      "byteOffset": 12,
      "componentType": 5126,
      "count": 4572,
      "max": [
        0.99999266862869263,
        0.99998492002487183,
        0.99999207258224487
      ],
      "min": [
        -0.999991774559021,
        -0.99122154712677002,
        -0.99999237060546875
      ],
      "type": "VEC3"
    },
    {
      "name": "TEXCOORD_0",
      "bufferView": 0,
      "byteOffset": 24,
      "componentType": 5126,
      "count": 4572,
      "max": [
        0.998046875,
        0.9990234375
      ],
      "min": [
        0.001953125,
        0.0009765625
      ],
      "type": "VEC2"
    },
    {
      "bufferView": 1,
      "componentType": 5123,
      "count": 11184,
      "type": "SCALAR"
    },
    {
      "name": "POSITION",
      "bufferView": 0,
      "byteOffset": 146304,
      "componentType": 5126,
      "count": 471,
      "max": [
        -709.75445556640625,
        58.179939270019531,
        268.0093994140625
      ],
      "min": [
        -741.86968994140625,
        43.34912109375,
        229.7772216796875
      ],
      "type": "VEC3"
    },
    {
      "name": "NORMAL",
      "bufferView": 0,
      "byteOffset": 146316,
      "componentType": 5126,
      "count": 471,
      "max": [
        0.9819256067276001,
        0.99998492002487183,
        0.99999207258224487
      ],
      "min": [
        -0.99897933006286621,
        -0.97717410326004028,
        -0.99112242460250854
      ],
      "type": "VEC3"
    },
    {
      "name": "TEXCOORD_0",
      "bufferView": 0,
      "byteOffset": 146328,
      "componentType": 5126,
      "count": 471,
      "max": [
        0.998046875,
        0.998046875
      ],
      "min": [
        0.001953125,
        0.865234375
      ],
      "type": "VEC2"
    },
    {
      "bufferView": 1,
      "byteOffset": 22368,
      "componentType": 5123,
      "count": 1053,
      "type": "SCALAR"
    }
  ],
  "bufferViews": [
    {
      "buffer": 0,
      "byteLength": 161376,
      "byteStride": 32,
      "target": 34962
    },
    {
      "buffer": 0,
      "byteLength": 24474,
      "byteOffset": 161376,
      "target": 34963
    }
  ],
  "buffers": [
    {
      "byteLength": 185852,
      "uri": "20525362525140624366_LOD00.bin"
    }
  ],
  "images": [
    {
      "uri": "20525362525140624366_LOD00_0.png"
    },
    {
      "uri": "20525362525140624366_LOD00_1.png"
    }
  ],
  "materials": [
    {
      "doubleSided": true,
      "pbrMetallicRoughness": {
        "baseColorTexture": {
          "index": 0
        },
        "metallicFactor": 0
      }
    },
    {
      "doubleSided": true,
      "pbrMetallicRoughness": {
        "baseColorTexture": {
          "index": 1
        },
        "metallicFactor": 0
      }
    }
  ],
  "meshes": [
    {
      "name": "20525362525140624366_0",
      "primitives": [
        {
          "attributes": {
            "POSITION": 0,
            "NORMAL": 1,
            "TEXCOORD_0": 2
          },
          "indices": 3,
          "material": 0
        }
      ]
    },
    {
      "name": "20525362525140624366_1",
      "primitives": [
        {
          "attributes": {
            "POSITION": 4,
            "NORMAL": 5,
            "TEXCOORD_0": 6
          },
          "indices": 7,
          "material": 1
        }
      ]
    }
  ],
  "nodes": [
    {
      "mesh": 0
    },
    {
      "mesh": 1
    }
  ],
  "scene": 0,
  "scenes": [
    {
      "nodes": [
        0,
        1
      ]
    }
  ],
  "textures": [
    {
      "source": 0
    },
    {
      "source": 1
    }
  ]
}