{
  "asset": {
    "copyright": "",
    "generator": "SharpGLTF 1.0.0",
    "version": "2.0"
  },
  "accessors": [
    {
      "name": "POSITION",
      "bufferView": 0,
      "componentType": 5126,
      "count": 1738,
      "max": [
        -492.77001953125,
        103.74765777587891,
        388.17788696289063
      ],
      "min": [
        -517.16607666015625,
        74.242340087890625,
        382.1661376953125
      ],
      "type": "VEC3"
    },
    {
      "name": "NORMAL",
      "bufferView": 0,
      "byteOffset": 12,
      "componentType": 5126,
      "count": 1738,
      "max": [
        0.99999254941940308,
        0.99998492002487183,
        0.99999195337295532
      ],
      "min": [
        -0.96983963251113892,
        -0.99917387962341309,
        -0.99634295701980591
      ],
      "type": "VEC3"
    },
    {
      "name": "TEXCOORD_0",
      "bufferView": 0,
      "byteOffset": 24,
      "componentType": 5126,
      "count": 1738,
      "max": [
        0.998046875,
        0.998046875
      ],
      "min": [
        0.001953125,
        0.033203125
      ],
      "type": "VEC2"
    },
    {
      "bufferView": 1,
      "componentType": 5123,
      "count": 4539,
      "type": "SCALAR"
    }
  ],
  "bufferViews": [
    {
      "buffer": 0,
      "byteLength": 55616,
      "byteStride": 32,
      "target": 34962
    },
    {
      "buffer": 0,
      "byteLength": 9078,
      "byteOffset": 55616,
      "target": 34963
    }
  ],
  "buffers": [
    {
      "byteLength": 64696,
      "uri": "20525362525051737523_LOD00.bin"
    }
  ],
  "images": [
    {
      "uri": "20525362525051737523_LOD00.png"
    }
  ],
  "materials": [
    {
      "doubleSided": true,
      "pbrMetallicRoughness": {
        "baseColorTexture": {
          "index": 0
        },
        "metallicFactor": 0
      }
    }
  ],
  "meshes": [
    {
      "name": "20525362525051737523_0",
      "primitives": [
        {
          "attributes": {
            "POSITION": 0,
            "NORMAL": 1,
            "TEXCOORD_0": 2
          },
          "indices": 3,
          "material": 0
        }
      ]
    }
  ],
  "nodes": [
    {
      "mesh": 0
    }
  ],
  "scene": 0,
  "scenes": [
    {
      "nodes": [
        0
      ]
    }
  ],
  "textures": [
    {
      "source": 0
    }
  ]
}