{
  "asset": {
    "copyright": "",
    "generator": "SharpGLTF 1.0.0",
    "version": "2.0"
  },
  "accessors": [
    {
      "name": "POSITION",
      "bufferView": 0,
      "componentType": 5126,
      "count": 167,
      "max": [
        -517.16265869140625,
        37.827323913574219,
        39.168968200683594
      ],
      "min": [
        -540.323486328125,
        37.208667755126953,
        36.855667114257813
      ],
      "type": "VEC3"
    },
    {
      "name": "NORMAL",
      "bufferView": 0,
      "byteOffset": 12,
      "componentType": 5126,
      "count": 167,
      "max": [
        0.64409327507019043,
        0.99998408555984497,
        0.9319189190864563
      ],
      "min": [
        -0.66656512022018433,
        -0.0055027897469699383,
        -0.047005169093608856
      ],
      "type": "VEC3"
    },
    {
      "name": "TEXCOORD_0",
      "bufferView": 0,
      "byteOffset": 24,
      "componentType": 5126,
      "count": 167,
      "max": [
        0.783203125,
        0.998046875
      ],
      "min": [
        0.037109375,
        0.927734375
      ],
      "type": "VEC2"
    },
    {
      "bufferView": 1,
      "componentType": 5123,
      "count": 417,
      "type": "SCALAR"
    }
  ],
  "bufferViews": [
    {
      "buffer": 0,
      "byteLength": 5344,
      "byteStride": 32,
      "target": 34962
    },
    {
      "buffer": 0,
      "byteLength": 834,
      "byteOffset": 5344,
      "target": 34963
    }
  ],
  "buffers": [
    {
      "byteLength": 6180,
      "uri": "20525362525051735152_LOD00.bin"
    }
  ],
  "images": [
    {
      "uri": "20525362525051735152_LOD00.png"
    }
  ],
  "materials": [
    {
      "doubleSided": true,
      "pbrMetallicRoughness": {
        "baseColorTexture": {
          "index": 0
        },
        "metallicFactor": 0
      }
    }
  ],
  "meshes": [
    {
      "name": "20525362525051735152_0",
      "primitives": [
        {
          "attributes": {
            "POSITION": 0,
            "NORMAL": 1,
            "TEXCOORD_0": 2
          },
          "indices": 3,
          "material": 0
        }
      ]
    }
  ],
  "nodes": [
    {
      "mesh": 0
    }
  ],
  "scene": 0,
  "scenes": [
    {
      "nodes": [
        0
      ]
    }
  ],
  "textures": [
    {
      "source": 0
    }
  ]
}