{
  "asset": {
    "copyright": "",
    "generator": "SharpGLTF 1.0.0",
    "version": "2.0"
  },
  "accessors": [
    {
      "name": "POSITION",
      "bufferView": 0,
      "componentType": 5126,
      "count": 932,
      "max": [
        -773.78472900390625,
        81.317802429199219,
        480.19345092773438
      ],
      "min": [
        -778.72747802734375,
        74.210830688476563,
        458.91976928710938
      ],
      "type": "VEC3"
    },
    {
      "name": "NORMAL",
      "bufferView": 0,
      "byteOffset": 12,
      "componentType": 5126,
      "count": 932,
      "max": [
        0.9905664324760437,
        0.99998509883880615,
        0.99931776523590088
      ],
      "min": [
        -0.999991774559021,
        -0.98783880472183228,
        -0.98974007368087769
      ],
      "type": "VEC3"
    },
    {
      "name": "TEXCOORD_0",
      "bufferView": 0,
      "byteOffset": 24,
      "componentType": 5126,
      "count": 932,
      "max": [
        0.998046875,
        0.998046875
      ],
      "min": [
        0.001953125,
        0.646484375
      ],
      "type": "VEC2"
    },
    {
      "bufferView": 1,
      "componentType": 5123,
      "count": 2157,
      "type": "SCALAR"
    }
  ],
  "bufferViews": [
    {
      "buffer": 0,
      "byteLength": 29824,
      "byteStride": 32,
      "target": 34962
    },
    {
      "buffer": 0,
      "byteLength": 4314,
      "byteOffset": 29824,
      "target": 34963
    }
  ],
  "buffers": [
    {
      "byteLength": 34140,
      "uri": "20525362525140626712_LOD00.bin"
    }
  ],
  "images": [
    {
      "uri": "20525362525140626712_LOD00.png"
    }
  ],
  "materials": [
    {
      "doubleSided": true,
      "pbrMetallicRoughness": {
        "baseColorTexture": {
          "index": 0
        },
        "metallicFactor": 0
      }
    }
  ],
  "meshes": [
    {
      "name": "20525362525140626712_0",
      "primitives": [
        {
          "attributes": {
            "POSITION": 0,
            "NORMAL": 1,
            "TEXCOORD_0": 2
          },
          "indices": 3,
          "material": 0
        }
      ]
    }
  ],
  "nodes": [
    {
      "mesh": 0
    }
  ],
  "scene": 0,
  "scenes": [
    {
      "nodes": [
        0
      ]
    }
  ],
  "textures": [
    {
      "source": 0
    }
  ]
}