{
  "asset": {
    "copyright": "",
    "generator": "SharpGLTF 1.0.0",
    "version": "2.0"
  },
  "accessors": [
    {
      "name": "POSITION",
      "bufferView": 0,
      "componentType": 5126,
      "count": 4118,
      "max": [
        -549.241455078125,
        74.250663757324219,
        459.53805541992188
      ],
      "min": [
        -581.5111083984375,
        37.79168701171875,
        420.841552734375
      ],
      "type": "VEC3"
    },
    {
      "name": "NORMAL",
      "bufferView": 0,
      "byteOffset": 12,
      "componentType": 5126,
      "count": 4118,
      "max": [
        0.99999254941940308,
        0.99998509883880615,
        0.99999195337295532
      ],
      "min": [
        -0.99999189376831055,
        -1,
        -0.9999924898147583
      ],
      "type": "VEC3"
    },
    {
      "name": "TEXCOORD_0",
      "bufferView": 0,
      "byteOffset": 24,
      "componentType": 5126,
      "count": 4118,
      "max": [
        0.9990234375,
        0.9990234375
      ],
      "min": [
        0.0009765625,
        0.0009765625
      ],
      "type": "VEC2"
    },
    {
      "bufferView": 1,
      "componentType": 5123,
      "count": 9588,
      "type": "SCALAR"
    },
    {
      "name": "POSITION",
      "bufferView": 0,
      "byteOffset": 131776,
      "componentType": 5126,
      "count": 148,
      "max": [
        -550.01629638671875,
        65.906845092773438,
        458.61123657226563
      ],
      "min": [
        -579.50408935546875,
        44.744968414306641,
        420.84246826171875
      ],
      "type": "VEC3"
    },
    {
      "name": "NORMAL",
      "bufferView": 0,
      "byteOffset": 131788,
      "componentType": 5126,
      "count": 148,
      "max": [
        0.99526888132095337,
        0.9999842643737793,
        0.86184436082839966
      ],
      "min": [
        -0.98343461751937866,
        -0.98491209745407104,
        -0.9979860782623291
      ],
      "type": "VEC3"
    },
    {
      "name": "TEXCOORD_0",
      "bufferView": 0,
      "byteOffset": 131800,
      "componentType": 5126,
      "count": 148,
      "max": [
        0.998046875,
        0.998046875
      ],
      "min": [
        0.001953125,
        0.931640625
      ],
      "type": "VEC2"
    },
    {
      "bufferView": 1,
      "byteOffset": 19176,
      "componentType": 5123,
      "count": 288,
      "type": "SCALAR"
    }
  ],
  "bufferViews": [
    {
      "buffer": 0,
      "byteLength": 136512,
      "byteStride": 32,
      "target": 34962
    },
    {
      "buffer": 0,
      "byteLength": 19752,
      "byteOffset": 136512,
      "target": 34963
    }
  ],
  "buffers": [
    {
      "byteLength": 156264,
      "uri": "20525362525051737355_LOD00.bin"
    }
  ],
  "images": [
    {
      "uri": "20525362525051737355_LOD00_0.png"
    },
    {
      "uri": "20525362525051737355_LOD00_1.png"
    }
  ],
  "materials": [
    {
      "doubleSided": true,
      "pbrMetallicRoughness": {
        "baseColorTexture": {
          "index": 0
        },
        "metallicFactor": 0
      }
    },
    {
      "doubleSided": true,
      "pbrMetallicRoughness": {
        "baseColorTexture": {
          "index": 1
        },
        "metallicFactor": 0
      }
    }
  ],
  "meshes": [
    {
      "name": "20525362525051737355_0",
      "primitives": [
        {
          "attributes": {
            "POSITION": 0,
            "NORMAL": 1,
            "TEXCOORD_0": 2
          },
          "indices": 3,
          "material": 0
        }
      ]
    },
    {
      "name": "20525362525051737355_1",
      "primitives": [
        {
          "attributes": {
            "POSITION": 4,
            "NORMAL": 5,
            "TEXCOORD_0": 6
          },
          "indices": 7,
          "material": 1
        }
      ]
    }
  ],
  "nodes": [
    {
      "mesh": 0
    },
    {
      "mesh": 1
    }
  ],
  "scene": 0,
  "scenes": [
    {
      "nodes": [
        0,
        1
      ]
    }
  ],
  "textures": [
    {
      "source": 0
    },
    {
      "source": 1
    }
  ]
}