{
  "asset": {
    "copyright": "",
    "generator": "SharpGLTF 1.0.0",
    "version": "2.0"
  },
  "accessors": [
    {
      "name": "POSITION",
      "bufferView": 0,
      "componentType": 5126,
      "count": 2154,
      "max": [
        -517.145751953125,
        74.259445190429688,
        382.64239501953125
      ],
      "min": [
        -549.264892578125,
        41.974262237548828,
        344.25616455078125
      ],
      "type": "VEC3"
    },
    {
      "name": "NORMAL",
      "bufferView": 0,
      "byteOffset": 12,
      "componentType": 5126,
      "count": 2154,
      "max": [
        0.99999254941940308,
        0.99998492002487183,
        0.9959757924079895
      ],
      "min": [
        -0.99915730953216553,
        -1,
        -0.99999243021011353
      ],
      "type": "VEC3"
    },
    {
      "name": "TEXCOORD_0",
      "bufferView": 0,
      "byteOffset": 24,
      "componentType": 5126,
      "count": 2154,
      "max": [
        0.998046875,
        0.9990234375
      ],
      "min": [
        0.001953125,
        0.0009765625
      ],
      "type": "VEC2"
    },
    {
      "bufferView": 1,
      "componentType": 5123,
      "count": 5397,
      "type": "SCALAR"
    },
    {
      "name": "POSITION",
      "bufferView": 0,
      "byteOffset": 68928,
      "componentType": 5126,
      "count": 1327,
      "max": [
        -517.14752197265625,
        74.2581787109375,
        372.4691162109375
      ],
      "min": [
        -549.2637939453125,
        43.052787780761719,
        344.41043090820313
      ],
      "type": "VEC3"
    },
    {
      "name": "NORMAL",
      "bufferView": 0,
      "byteOffset": 68940,
      "componentType": 5126,
      "count": 1327,
      "max": [
        0.99999254941940308,
        0.99998492002487183,
        0.9959757924079895
      ],
      "min": [
        -0.99999189376831055,
        -0.37143623828887939,
        -0.99999243021011353
      ],
      "type": "VEC3"
    },
    {
      "name": "TEXCOORD_0",
      "bufferView": 0,
      "byteOffset": 68952,
      "componentType": 5126,
      "count": 1327,
      "max": [
        0.998046875,
        0.998046875
      ],
      "min": [
        0.001953125,
        0.287109375
      ],
      "type": "VEC2"
    },
    {
      "bufferView": 1,
      "byteOffset": 10794,
      "componentType": 5123,
      "count": 3504,
      "type": "SCALAR"
    }
  ],
  "bufferViews": [
    {
      "buffer": 0,
      "byteLength": 111392,
      "byteStride": 32,
      "target": 34962
    },
    {
      "buffer": 0,
      "byteLength": 17802,
      "byteOffset": 111392,
      "target": 34963
    }
  ],
  "buffers": [
    {
      "byteLength": 129196,
      "uri": "20525362525051737174_LOD00.bin"
    }
  ],
  "images": [
    {
      "uri": "20525362525051737174_LOD00_0.png"
    },
    {
      "uri": "20525362525051737174_LOD00_1.png"
    }
  ],
  "materials": [
    {
      "doubleSided": true,
      "pbrMetallicRoughness": {
        "baseColorTexture": {
          "index": 0
        },
        "metallicFactor": 0
      }
    },
    {
      "doubleSided": true,
      "pbrMetallicRoughness": {
        "baseColorTexture": {
          "index": 1
        },
        "metallicFactor": 0
      }
    }
  ],
  "meshes": [
    {
      "name": "20525362525051737174_0",
      "primitives": [
        {
          "attributes": {
            "POSITION": 0,
            "NORMAL": 1,
            "TEXCOORD_0": 2
          },
          "indices": 3,
          "material": 0
        }
      ]
    },
    {
      "name": "20525362525051737174_1",
      "primitives": [
        {
          "attributes": {
            "POSITION": 4,
            "NORMAL": 5,
            "TEXCOORD_0": 6
          },
          "indices": 7,
          "material": 1
        }
      ]
    }
  ],
  "nodes": [
    {
      "mesh": 0
    },
    {
      "mesh": 1
    }
  ],
  "scene": 0,
  "scenes": [
    {
      "nodes": [
        0,
        1
      ]
    }
  ],
  "textures": [
    {
      "source": 0
    },
    {
      "source": 1
    }
  ]
}