{
  "asset": {
    "copyright": "",
    "generator": "SharpGLTF 1.0.0",
    "version": "2.0"
  },
  "accessors": [
    {
      "name": "POSITION",
      "bufferView": 0,
      "componentType": 5126,
      "count": 4948,
      "max": [
        -517.1610107421875,
        53.566768646240234,
        76.9222412109375
      ],
      "min": [
        -549.74114990234375,
        37.346698760986328,
        38.383262634277344
      ],
      "type": "VEC3"
    },
    {
      "name": "NORMAL",
      "bufferView": 0,
      "byteOffset": 12,
      "componentType": 5126,
      "count": 4948,
      "max": [
        0.99931430816650391,
        0.9999847412109375,
        0.99999219179153442
      ],
      "min": [
        -0.99931979179382324,
        -0.99917209148406982,
        -0.9999922513961792
      ],
      "type": "VEC3"
    },
    {
      "name": "TEXCOORD_0",
      "bufferView": 0,
      "byteOffset": 24,
      "componentType": 5126,
      "count": 4948,
      "max": [
        0.998046875,
        0.9990234375
      ],
      "min": [
        0.001953125,
        0.0009765625
      ],
      "type": "VEC2"
    },
    {
      "bufferView": 1,
      "componentType": 5123,
      "count": 12006,
      "type": "SCALAR"
    },
    {
      "name": "POSITION",
      "bufferView": 0,
      "byteOffset": 158336,
      "componentType": 5126,
      "count": 2010,
      "max": [
        -517.1614990234375,
        53.721218109130859,
        76.9222412109375
      ],
      "min": [
        -549.74114990234375,
        37.346958160400391,
        38.690025329589844
      ],
      "type": "VEC3"
    },
    {
      "name": "NORMAL",
      "bufferView": 0,
      "byteOffset": 158348,
      "componentType": 5126,
      "count": 2010,
      "max": [
        0.99931430816650391,
        0.9999847412109375,
        0.99999219179153442
      ],
      "min": [
        -0.99999189376831055,
        -0.99917173385620117,
        -0.9999922513961792
      ],
      "type": "VEC3"
    },
    {
      "name": "TEXCOORD_0",
      "bufferView": 0,
      "byteOffset": 158360,
      "componentType": 5126,
      "count": 2010,
      "max": [
        0.998046875,
        0.998046875
      ],
      "min": [
        0.001953125,
        0.365234375
      ],
      "type": "VEC2"
    },
    {
      "bufferView": 1,
      "byteOffset": 24012,
      "componentType": 5123,
      "count": 4740,
      "type": "SCALAR"
    }
  ],
  "bufferViews": [
    {
      "buffer": 0,
      "byteLength": 222656,
      "byteStride": 32,
      "target": 34962
    },
    {
      "buffer": 0,
      "byteLength": 33492,
      "byteOffset": 222656,
      "target": 34963
    }
  ],
  "buffers": [
    {
      "byteLength": 256148,
      "uri": "20525362525051735174_LOD00.bin"
    }
  ],
  "images": [
    {
      "uri": "20525362525051735174_LOD00_0.png"
    },
    {
      "uri": "20525362525051735174_LOD00_1.png"
    }
  ],
  "materials": [
    {
      "doubleSided": true,
      "pbrMetallicRoughness": {
        "baseColorTexture": {
          "index": 0
        },
        "metallicFactor": 0
      }
    },
    {
      "doubleSided": true,
      "pbrMetallicRoughness": {
        "baseColorTexture": {
          "index": 1
        },
        "metallicFactor": 0
      }
    }
  ],
  "meshes": [
    {
      "name": "20525362525051735174_0",
      "primitives": [
        {
          "attributes": {
            "POSITION": 0,
            "NORMAL": 1,
            "TEXCOORD_0": 2
          },
          "indices": 3,
          "material": 0
        }
      ]
    },
    {
      "name": "20525362525051735174_1",
      "primitives": [
        {
          "attributes": {
            "POSITION": 4,
            "NORMAL": 5,
            "TEXCOORD_0": 6
          },
          "indices": 7,
          "material": 1
        }
      ]
    }
  ],
  "nodes": [
    {
      "mesh": 0
    },
    {
      "mesh": 1
    }
  ],
  "scene": 0,
  "scenes": [
    {
      "nodes": [
        0,
        1
      ]
    }
  ],
  "textures": [
    {
      "source": 0
    },
    {
      "source": 1
    }
  ]
}