{
  "asset": {
    "copyright": "",
    "generator": "SharpGLTF 1.0.0",
    "version": "2.0"
  },
  "accessors": [
    {
      "name": "POSITION",
      "bufferView": 0,
      "componentType": 5126,
      "count": 454,
      "max": [
        -613.45050048828125,
        173.22006225585938,
        447.36935424804688
      ],
      "min": [
        -620.40191650390625,
        147.11170959472656,
        420.85232543945313
      ],
      "type": "VEC3"
    },
    {
      "name": "NORMAL",
      "bufferView": 0,
      "byteOffset": 12,
      "componentType": 5126,
      "count": 454,
      "max": [
        0.99999266862869263,
        0.99998503923416138,
        0.99999195337295532
      ],
      "min": [
        -0.99999189376831055,
        -0.063039585947990417,
        -0.99999243021011353
      ],
      "type": "VEC3"
    },
    {
      "name": "TEXCOORD_0",
      "bufferView": 0,
      "byteOffset": 24,
      "componentType": 5126,
      "count": 454,
      "max": [
        0.998046875,
        0.998046875
      ],
      "min": [
        0.001953125,
        0.021484375
      ],
      "type": "VEC2"
    },
    {
      "bufferView": 1,
      "componentType": 5123,
      "count": 981,
      "type": "SCALAR"
    }
  ],
  "bufferViews": [
    {
      "buffer": 0,
      "byteLength": 14528,
      "byteStride": 32,
      "target": 34962
    },
    {
      "buffer": 0,
      "byteLength": 1962,
      "byteOffset": 14528,
      "target": 34963
    }
  ],
  "buffers": [
    {
      "byteLength": 16492,
      "uri": "20525362525140626641_LOD00.bin"
    }
  ],
  "images": [
    {
      "uri": "20525362525140626641_LOD00.png"
    }
  ],
  "materials": [
    {
      "doubleSided": true,
      "pbrMetallicRoughness": {
        "baseColorTexture": {
          "index": 0
        },
        "metallicFactor": 0
      }
    }
  ],
  "meshes": [
    {
      "name": "20525362525140626641_0",
      "primitives": [
        {
          "attributes": {
            "POSITION": 0,
            "NORMAL": 1,
            "TEXCOORD_0": 2
          },
          "indices": 3,
          "material": 0
        }
      ]
    }
  ],
  "nodes": [
    {
      "mesh": 0
    }
  ],
  "scene": 0,
  "scenes": [
    {
      "nodes": [
        0
      ]
    }
  ],
  "textures": [
    {
      "source": 0
    }
  ]
}