{
  "asset": {
    "copyright": "",
    "generator": "SharpGLTF 1.0.0",
    "version": "2.0"
  },
  "accessors": [
    {
      "name": "POSITION",
      "bufferView": 0,
      "componentType": 5126,
      "count": 4410,
      "max": [
        -227.94332885742188,
        64.084396362304688,
        268.29412841796875
      ],
      "min": [
        -260.83200073242188,
        37.358730316162109,
        229.754638671875
      ],
      "type": "VEC3"
    },
    {
      "name": "NORMAL",
      "bufferView": 0,
      "byteOffset": 12,
      "componentType": 5126,
      "count": 4410,
      "max": [
        0.99999237060546875,
        0.99998462200164795,
        0.99672782421112061
      ],
      "min": [
        -0.99999207258224487,
        -0.9981987476348877,
        -0.99798130989074707
      ],
      "type": "VEC3"
    },
    {
      "name": "TEXCOORD_0",
      "bufferView": 0,
      "byteOffset": 24,
      "componentType": 5126,
      "count": 4410,
      "max": [
        0.998046875,
        0.9990234375
      ],
      "min": [
        0.001953125,
        0.0009765625
      ],
      "type": "VEC2"
    },
    {
      "bufferView": 1,
      "componentType": 5123,
      "count": 10338,
      "type": "SCALAR"
    },
    {
      "name": "POSITION",
      "bufferView": 0,
      "byteOffset": 141120,
      "componentType": 5126,
      "count": 1911,
      "max": [
        -228.09724426269531,
        63.620937347412109,
        267.98663330078125
      ],
      "min": [
        -260.36874389648438,
        37.359485626220703,
        229.75469970703125
      ],
      "type": "VEC3"
    },
    {
      "name": "NORMAL",
      "bufferView": 0,
      "byteOffset": 141132,
      "componentType": 5126,
      "count": 1911,
      "max": [
        0.99915468692779541,
        0.99998462200164795,
        0.99672782421112061
      ],
      "min": [
        -0.99999207258224487,
        -1,
        -0.99798130989074707
      ],
      "type": "VEC3"
    },
    {
      "name": "TEXCOORD_0",
      "bufferView": 0,
      "byteOffset": 141144,
      "componentType": 5126,
      "count": 1911,
      "max": [
        0.998046875,
        0.998046875
      ],
      "min": [
        0.001953125,
        0.333984375
      ],
      "type": "VEC2"
    },
    {
      "bufferView": 1,
      "byteOffset": 20676,
      "componentType": 5123,
      "count": 4407,
      "type": "SCALAR"
    }
  ],
  "bufferViews": [
    {
      "buffer": 0,
      "byteLength": 202272,
      "byteStride": 32,
      "target": 34962
    },
    {
      "buffer": 0,
      "byteLength": 29490,
      "byteOffset": 202272,
      "target": 34963
    }
  ],
  "buffers": [
    {
      "byteLength": 231764,
      "uri": "20525362525051734367_LOD00.bin"
    }
  ],
  "images": [
    {
      "uri": "20525362525051734367_LOD00_0.png"
    },
    {
      "uri": "20525362525051734367_LOD00_1.png"
    }
  ],
  "materials": [
    {
      "doubleSided": true,
      "pbrMetallicRoughness": {
        "baseColorTexture": {
          "index": 0
        },
        "metallicFactor": 0
      }
    },
    {
      "doubleSided": true,
      "pbrMetallicRoughness": {
        "baseColorTexture": {
          "index": 1
        },
        "metallicFactor": 0
      }
    }
  ],
  "meshes": [
    {
      "name": "20525362525051734367_0",
      "primitives": [
        {
          "attributes": {
            "POSITION": 0,
            "NORMAL": 1,
            "TEXCOORD_0": 2
          },
          "indices": 3,
          "material": 0
        }
      ]
    },
    {
      "name": "20525362525051734367_1",
      "primitives": [
        {
          "attributes": {
            "POSITION": 4,
            "NORMAL": 5,
            "TEXCOORD_0": 6
          },
          "indices": 7,
          "material": 1
        }
      ]
    }
  ],
  "nodes": [
    {
      "mesh": 0
    },
    {
      "mesh": 1
    }
  ],
  "scene": 0,
  "scenes": [
    {
      "nodes": [
        0,
        1
      ]
    }
  ],
  "textures": [
    {
      "source": 0
    },
    {
      "source": 1
    }
  ]
}