{
  "asset": {
    "copyright": "",
    "generator": "SharpGLTF 1.0.0",
    "version": "2.0"
  },
  "accessors": [
    {
      "name": "POSITION",
      "bufferView": 0,
      "componentType": 5126,
      "count": 30,
      "max": [
        -356.6531982421875,
        38.298355102539063,
        213.43315124511719
      ],
      "min": [
        -357.2708740234375,
        36.753597259521484,
        211.73744201660156
      ],
      "type": "VEC3"
    },
    {
      "name": "NORMAL",
      "bufferView": 0,
      "byteOffset": 12,
      "componentType": 5126,
      "count": 30,
      "max": [
        0.98340487480163574,
        0.75937634706497192,
        0.24810545146465302
      ],
      "min": [
        -0.12556833028793335,
        0.055503815412521362,
        -0.91632765531539917
      ],
      "type": "VEC3"
    },
    {
      "name": "TEXCOORD_0",
      "bufferView": 0,
      "byteOffset": 24,
      "componentType": 5126,
      "count": 30,
      "max": [
        0.103515625,
        0.998046875
      ],
      "min": [
        0.037109375,
        0.982421875
      ],
      "type": "VEC2"
    },
    {
      "bufferView": 1,
      "componentType": 5123,
      "count": 69,
      "type": "SCALAR"
    }
  ],
  "bufferViews": [
    {
      "buffer": 0,
      "byteLength": 960,
      "byteStride": 32,
      "target": 34962
    },
    {
      "buffer": 0,
      "byteLength": 138,
      "byteOffset": 960,
      "target": 34963
    }
  ],
  "buffers": [
    {
      "byteLength": 1100,
      "uri": "20525362525051735261_LOD00.bin"
    }
  ],
  "images": [
    {
      "uri": "20525362525051735261_LOD00.png"
    }
  ],
  "materials": [
    {
      "doubleSided": true,
      "pbrMetallicRoughness": {
        "baseColorTexture": {
          "index": 0
        },
        "metallicFactor": 0
      }
    }
  ],
  "meshes": [
    {
      "name": "20525362525051735261_0",
      "primitives": [
        {
          "attributes": {
            "POSITION": 0,
            "NORMAL": 1,
            "TEXCOORD_0": 2
          },
          "indices": 3,
          "material": 0
        }
      ]
    }
  ],
  "nodes": [
    {
      "mesh": 0
    }
  ],
  "scene": 0,
  "scenes": [
    {
      "nodes": [
        0
      ]
    }
  ],
  "textures": [
    {
      "source": 0
    }
  ]
}