{
  "asset": {
    "copyright": "",
    "generator": "SharpGLTF 1.0.0",
    "version": "2.0"
  },
  "accessors": [
    {
      "name": "POSITION",
      "bufferView": 0,
      "componentType": 5126,
      "count": 2224,
      "max": [
        -517.14111328125,
        68.998947143554688,
        497.28890991210938
      ],
      "min": [
        -549.2579345703125,
        43.821022033691406,
        458.90310668945313
      ],
      "type": "VEC3"
    },
    {
      "name": "NORMAL",
      "bufferView": 0,
      "byteOffset": 12,
      "componentType": 5126,
      "count": 2224,
      "max": [
        0.99999254941940308,
        0.99998509883880615,
        0.9993177056312561
      ],
      "min": [
        -0.99999189376831055,
        -1,
        -0.99999254941940308
      ],
      "type": "VEC3"
    },
    {
      "name": "TEXCOORD_0",
      "bufferView": 0,
      "byteOffset": 24,
      "componentType": 5126,
      "count": 2224,
      "max": [
        0.998046875,
        0.9990234375
      ],
      "min": [
        0.001953125,
        0.0009765625
      ],
      "type": "VEC2"
    },
    {
      "bufferView": 1,
      "componentType": 5123,
      "count": 5427,
      "type": "SCALAR"
    },
    {
      "name": "POSITION",
      "bufferView": 0,
      "byteOffset": 71168,
      "componentType": 5126,
      "count": 1171,
      "max": [
        -517.14202880859375,
        68.998947143554688,
        497.28826904296875
      ],
      "min": [
        -549.25787353515625,
        45.052165985107422,
        459.05587768554688
      ],
      "type": "VEC3"
    },
    {
      "name": "NORMAL",
      "bufferView": 0,
      "byteOffset": 71180,
      "componentType": 5126,
      "count": 1171,
      "max": [
        0.99999254941940308,
        0.99998509883880615,
        0.99999195337295532
      ],
      "min": [
        -0.99999189376831055,
        -1,
        -0.99999254941940308
      ],
      "type": "VEC3"
    },
    {
      "name": "TEXCOORD_0",
      "bufferView": 0,
      "byteOffset": 71192,
      "componentType": 5126,
      "count": 1171,
      "max": [
        0.998046875,
        0.998046875
      ],
      "min": [
        0.001953125,
        0.439453125
      ],
      "type": "VEC2"
    },
    {
      "bufferView": 1,
      "byteOffset": 10854,
      "componentType": 5123,
      "count": 2706,
      "type": "SCALAR"
    }
  ],
  "bufferViews": [
    {
      "buffer": 0,
      "byteLength": 108640,
      "byteStride": 32,
      "target": 34962
    },
    {
      "buffer": 0,
      "byteLength": 16266,
      "byteOffset": 108640,
      "target": 34963
    }
  ],
  "buffers": [
    {
      "byteLength": 124908,
      "uri": "20525362525051737356_LOD00.bin"
    }
  ],
  "images": [
    {
      "uri": "20525362525051737356_LOD00_0.png"
    },
    {
      "uri": "20525362525051737356_LOD00_1.png"
    }
  ],
  "materials": [
    {
      "doubleSided": true,
      "pbrMetallicRoughness": {
        "baseColorTexture": {
          "index": 0
        },
        "metallicFactor": 0
      }
    },
    {
      "doubleSided": true,
      "pbrMetallicRoughness": {
        "baseColorTexture": {
          "index": 1
        },
        "metallicFactor": 0
      }
    }
  ],
  "meshes": [
    {
      "name": "20525362525051737356_0",
      "primitives": [
        {
          "attributes": {
            "POSITION": 0,
            "NORMAL": 1,
            "TEXCOORD_0": 2
          },
          "indices": 3,
          "material": 0
        }
      ]
    },
    {
      "name": "20525362525051737356_1",
      "primitives": [
        {
          "attributes": {
            "POSITION": 4,
            "NORMAL": 5,
            "TEXCOORD_0": 6
          },
          "indices": 7,
          "material": 1
        }
      ]
    }
  ],
  "nodes": [
    {
      "mesh": 0
    },
    {
      "mesh": 1
    }
  ],
  "scene": 0,
  "scenes": [
    {
      "nodes": [
        0,
        1
      ]
    }
  ],
  "textures": [
    {
      "source": 0
    },
    {
      "source": 1
    }
  ]
}