{
  "asset": {
    "copyright": "",
    "generator": "SharpGLTF 1.0.0",
    "version": "2.0"
  },
  "accessors": [
    {
      "name": "POSITION",
      "bufferView": 0,
      "componentType": 5126,
      "count": 152,
      "max": [
        -166.675537109375,
        110.71886444091797,
        374.46322631835938
      ],
      "min": [
        -196.1671142578125,
        74.260047912597656,
        344.40023803710938
      ],
      "type": "VEC3"
    },
    {
      "name": "NORMAL",
      "bufferView": 0,
      "byteOffset": 12,
      "componentType": 5126,
      "count": 152,
      "max": [
        0.99999237060546875,
        0.04336940124630928,
        0.99999195337295532
      ],
      "min": [
        1.6265224985545501E-05,
        -0.0054506813175976276,
        -1.6430707546533085E-05
      ],
      "type": "VEC3"
    },
    {
      "name": "TEXCOORD_0",
      "bufferView": 0,
      "byteOffset": 24,
      "componentType": 5126,
      "count": 152,
      "max": [
        0.927734375,
        0.9990234375
      ],
      "min": [
        0.001953125,
        0.1298828125
      ],
      "type": "VEC2"
    },
    {
      "bufferView": 1,
      "componentType": 5123,
      "count": 447,
      "type": "SCALAR"
    }
  ],
  "bufferViews": [
    {
      "buffer": 0,
      "byteLength": 4864,
      "byteStride": 32,
      "target": 34962
    },
    {
      "buffer": 0,
      "byteLength": 894,
      "byteOffset": 4864,
      "target": 34963
    }
  ],
  "buffers": [
    {
      "byteLength": 5760,
      "uri": "20525362525051736431_LOD00.bin"
    }
  ],
  "images": [
    {
      "uri": "20525362525051736431_LOD00.png"
    }
  ],
  "materials": [
    {
      "doubleSided": true,
      "pbrMetallicRoughness": {
        "baseColorTexture": {
          "index": 0
        },
        "metallicFactor": 0
      }
    }
  ],
  "meshes": [
    {
      "name": "20525362525051736431_0",
      "primitives": [
        {
          "attributes": {
            "POSITION": 0,
            "NORMAL": 1,
            "TEXCOORD_0": 2
          },
          "indices": 3,
          "material": 0
        }
      ]
    }
  ],
  "nodes": [
    {
      "mesh": 0
    }
  ],
  "scene": 0,
  "scenes": [
    {
      "nodes": [
        0
      ]
    }
  ],
  "textures": [
    {
      "source": 0
    }
  ]
}