{
  "asset": {
    "copyright": "",
    "generator": "SharpGLTF 1.0.0",
    "version": "2.0"
  },
  "accessors": [
    {
      "name": "POSITION",
      "bufferView": 0,
      "componentType": 5126,
      "count": 3419,
      "max": [
        -196.15211486816406,
        64.239738464355469,
        268.29421997070313
      ],
      "min": [
        -228.26820373535156,
        37.359725952148438,
        229.7542724609375
      ],
      "type": "VEC3"
    },
    {
      "name": "NORMAL",
      "bufferView": 0,
      "byteOffset": 12,
      "componentType": 5126,
      "count": 3419,
      "max": [
        0.99898570775985718,
        0.99998462200164795,
        0.99999207258224487
      ],
      "min": [
        -0.99999207258224487,
        -0.9964098334312439,
        -0.99999237060546875
      ],
      "type": "VEC3"
    },
    {
      "name": "TEXCOORD_0",
      "bufferView": 0,
      "byteOffset": 24,
      "componentType": 5126,
      "count": 3419,
      "max": [
        0.998046875,
        0.9990234375
      ],
      "min": [
        0.001953125,
        0.0009765625
      ],
      "type": "VEC2"
    },
    {
      "bufferView": 1,
      "componentType": 5123,
      "count": 8664,
      "type": "SCALAR"
    },
    {
      "name": "POSITION",
      "bufferView": 0,
      "byteOffset": 109408,
      "componentType": 5126,
      "count": 1535,
      "max": [
        -195.68894958496094,
        63.003883361816406,
        267.98587036132813
      ],
      "min": [
        -228.26820373535156,
        37.360088348388672,
        229.75433349609375
      ],
      "type": "VEC3"
    },
    {
      "name": "NORMAL",
      "bufferView": 0,
      "byteOffset": 109420,
      "componentType": 5126,
      "count": 1535,
      "max": [
        0.99799048900604248,
        0.99998462200164795,
        0.99897950887680054
      ],
      "min": [
        -0.99999207258224487,
        -0.86370515823364258,
        -0.99486732482910156
      ],
      "type": "VEC3"
    },
    {
      "name": "TEXCOORD_0",
      "bufferView": 0,
      "byteOffset": 109432,
      "componentType": 5126,
      "count": 1535,
      "max": [
        0.998046875,
        0.998046875
      ],
      "min": [
        0.001953125,
        0.318359375
      ],
      "type": "VEC2"
    },
    {
      "bufferView": 1,
      "byteOffset": 17328,
      "componentType": 5123,
      "count": 3966,
      "type": "SCALAR"
    }
  ],
  "bufferViews": [
    {
      "buffer": 0,
      "byteLength": 158528,
      "byteStride": 32,
      "target": 34962
    },
    {
      "buffer": 0,
      "byteLength": 25260,
      "byteOffset": 158528,
      "target": 34963
    }
  ],
  "buffers": [
    {
      "byteLength": 183788,
      "uri": "20525362525051734366_LOD00.bin"
    }
  ],
  "images": [
    {
      "uri": "20525362525051734366_LOD00_0.png"
    },
    {
      "uri": "20525362525051734366_LOD00_1.png"
    }
  ],
  "materials": [
    {
      "doubleSided": true,
      "pbrMetallicRoughness": {
        "baseColorTexture": {
          "index": 0
        },
        "metallicFactor": 0
      }
    },
    {
      "doubleSided": true,
      "pbrMetallicRoughness": {
        "baseColorTexture": {
          "index": 1
        },
        "metallicFactor": 0
      }
    }
  ],
  "meshes": [
    {
      "name": "20525362525051734366_0",
      "primitives": [
        {
          "attributes": {
            "POSITION": 0,
            "NORMAL": 1,
            "TEXCOORD_0": 2
          },
          "indices": 3,
          "material": 0
        }
      ]
    },
    {
      "name": "20525362525051734366_1",
      "primitives": [
        {
          "attributes": {
            "POSITION": 4,
            "NORMAL": 5,
            "TEXCOORD_0": 6
          },
          "indices": 7,
          "material": 1
        }
      ]
    }
  ],
  "nodes": [
    {
      "mesh": 0
    },
    {
      "mesh": 1
    }
  ],
  "scene": 0,
  "scenes": [
    {
      "nodes": [
        0,
        1
      ]
    }
  ],
  "textures": [
    {
      "source": 0
    },
    {
      "source": 1
    }
  ]
}