{
  "asset": {
    "copyright": "",
    "generator": "SharpGLTF 1.0.0",
    "version": "2.0"
  },
  "accessors": [
    {
      "name": "POSITION",
      "bufferView": 0,
      "componentType": 5126,
      "count": 4768,
      "max": [
        -549.10980224609375,
        57.88848876953125,
        38.708946228027344
      ],
      "min": [
        -581.84576416015625,
        37.345081329345703,
        0.47651574015617371
      ],
      "type": "VEC3"
    },
    {
      "name": "NORMAL",
      "bufferView": 0,
      "byteOffset": 12,
      "componentType": 5126,
      "count": 4768,
      "max": [
        0.99999260902404785,
        0.9999847412109375,
        0.99999219179153442
      ],
      "min": [
        -0.99999195337295532,
        -0.9991723895072937,
        -0.99999219179153442
      ],
      "type": "VEC3"
    },
    {
      "name": "TEXCOORD_0",
      "bufferView": 0,
      "byteOffset": 24,
      "componentType": 5126,
      "count": 4768,
      "max": [
        0.998046875,
        0.9990234375
      ],
      "min": [
        0.001953125,
        0.0009765625
      ],
      "type": "VEC2"
    },
    {
      "bufferView": 1,
      "componentType": 5123,
      "count": 12195,
      "type": "SCALAR"
    },
    {
      "name": "POSITION",
      "bufferView": 0,
      "byteOffset": 152576,
      "componentType": 5126,
      "count": 1687,
      "max": [
        -549.26336669921875,
        57.88848876953125,
        38.708927154541016
      ],
      "min": [
        -581.84576416015625,
        37.652065277099609,
        0.16997511684894562
      ],
      "type": "VEC3"
    },
    {
      "name": "NORMAL",
      "bufferView": 0,
      "byteOffset": 152588,
      "componentType": 5126,
      "count": 1687,
      "max": [
        0.99931412935256958,
        0.9999847412109375,
        0.99999219179153442
      ],
      "min": [
        -0.99932003021240234,
        -0.9991723895072937,
        -0.99482578039169312
      ],
      "type": "VEC3"
    },
    {
      "name": "TEXCOORD_0",
      "bufferView": 0,
      "byteOffset": 152600,
      "componentType": 5126,
      "count": 1687,
      "max": [
        0.998046875,
        0.998046875
      ],
      "min": [
        0.001953125,
        0.341796875
      ],
      "type": "VEC2"
    },
    {
      "bufferView": 1,
      "byteOffset": 24390,
      "componentType": 5123,
      "count": 4194,
      "type": "SCALAR"
    }
  ],
  "bufferViews": [
    {
      "buffer": 0,
      "byteLength": 206560,
      "byteStride": 32,
      "target": 34962
    },
    {
      "buffer": 0,
      "byteLength": 32778,
      "byteOffset": 206560,
      "target": 34963
    }
  ],
  "buffers": [
    {
      "byteLength": 239340,
      "uri": "20525362525051735157_LOD00.bin"
    }
  ],
  "images": [
    {
      "uri": "20525362525051735157_LOD00_0.png"
    },
    {
      "uri": "20525362525051735157_LOD00_1.png"
    }
  ],
  "materials": [
    {
      "doubleSided": true,
      "pbrMetallicRoughness": {
        "baseColorTexture": {
          "index": 0
        },
        "metallicFactor": 0
      }
    },
    {
      "doubleSided": true,
      "pbrMetallicRoughness": {
        "baseColorTexture": {
          "index": 1
        },
        "metallicFactor": 0
      }
    }
  ],
  "meshes": [
    {
      "name": "20525362525051735157_0",
      "primitives": [
        {
          "attributes": {
            "POSITION": 0,
            "NORMAL": 1,
            "TEXCOORD_0": 2
          },
          "indices": 3,
          "material": 0
        }
      ]
    },
    {
      "name": "20525362525051735157_1",
      "primitives": [
        {
          "attributes": {
            "POSITION": 4,
            "NORMAL": 5,
            "TEXCOORD_0": 6
          },
          "indices": 7,
          "material": 1
        }
      ]
    }
  ],
  "nodes": [
    {
      "mesh": 0
    },
    {
      "mesh": 1
    }
  ],
  "scene": 0,
  "scenes": [
    {
      "nodes": [
        0,
        1
      ]
    }
  ],
  "textures": [
    {
      "source": 0
    },
    {
      "source": 1
    }
  ]
}