{
  "asset": {
    "copyright": "",
    "generator": "SharpGLTF 1.0.0",
    "version": "2.0"
  },
  "accessors": [
    {
      "name": "POSITION",
      "bufferView": 0,
      "componentType": 5126,
      "count": 4413,
      "max": [
        -709.7696533203125,
        72.860084533691406,
        38.719333648681641
      ],
      "min": [
        -741.88616943359375,
        38.563796997070313,
        0.48640739917755127
      ],
      "type": "VEC3"
    },
    {
      "name": "NORMAL",
      "bufferView": 0,
      "byteOffset": 12,
      "componentType": 5126,
      "count": 4413,
      "max": [
        0.99999266862869263,
        0.99998486042022705,
        0.9989810585975647
      ],
      "min": [
        -0.99999183416366577,
        -1,
        -0.99931514263153076
      ],
      "type": "VEC3"
    },
    {
      "name": "TEXCOORD_0",
      "bufferView": 0,
      "byteOffset": 24,
      "componentType": 5126,
      "count": 4413,
      "max": [
        0.998046875,
        0.9990234375
      ],
      "min": [
        0.001953125,
        0.0009765625
      ],
      "type": "VEC2"
    },
    {
      "bufferView": 1,
      "componentType": 5123,
      "count": 10803,
      "type": "SCALAR"
    },
    {
      "name": "POSITION",
      "bufferView": 0,
      "byteOffset": 141216,
      "componentType": 5126,
      "count": 1993,
      "max": [
        -709.76971435546875,
        72.859603881835938,
        38.718563079833984
      ],
      "min": [
        -736.01666259765625,
        39.027721405029297,
        0.48685917258262634
      ],
      "type": "VEC3"
    },
    {
      "name": "NORMAL",
      "bufferView": 0,
      "byteOffset": 141228,
      "componentType": 5126,
      "count": 1993,
      "max": [
        0.99799817800521851,
        0.99998486042022705,
        0.99999219179153442
      ],
      "min": [
        -0.99999183416366577,
        -0.99148893356323242,
        -0.99634051322937012
      ],
      "type": "VEC3"
    },
    {
      "name": "TEXCOORD_0",
      "bufferView": 0,
      "byteOffset": 141240,
      "componentType": 5126,
      "count": 1993,
      "max": [
        0.998046875,
        0.998046875
      ],
      "min": [
        0.001953125,
        0.310546875
      ],
      "type": "VEC2"
    },
    {
      "bufferView": 1,
      "byteOffset": 21606,
      "componentType": 5123,
      "count": 4683,
      "type": "SCALAR"
    }
  ],
  "bufferViews": [
    {
      "buffer": 0,
      "byteLength": 204992,
      "byteStride": 32,
      "target": 34962
    },
    {
      "buffer": 0,
      "byteLength": 30972,
      "byteOffset": 204992,
      "target": 34963
    }
  ],
  "buffers": [
    {
      "byteLength": 235964,
      "uri": "20525362525140624146_LOD00.bin"
    }
  ],
  "images": [
    {
      "uri": "20525362525140624146_LOD00_0.png"
    },
    {
      "uri": "20525362525140624146_LOD00_1.png"
    }
  ],
  "materials": [
    {
      "doubleSided": true,
      "pbrMetallicRoughness": {
        "baseColorTexture": {
          "index": 0
        },
        "metallicFactor": 0
      }
    },
    {
      "doubleSided": true,
      "pbrMetallicRoughness": {
        "baseColorTexture": {
          "index": 1
        },
        "metallicFactor": 0
      }
    }
  ],
  "meshes": [
    {
      "name": "20525362525140624146_0",
      "primitives": [
        {
          "attributes": {
            "POSITION": 0,
            "NORMAL": 1,
            "TEXCOORD_0": 2
          },
          "indices": 3,
          "material": 0
        }
      ]
    },
    {
      "name": "20525362525140624146_1",
      "primitives": [
        {
          "attributes": {
            "POSITION": 4,
            "NORMAL": 5,
            "TEXCOORD_0": 6
          },
          "indices": 7,
          "material": 1
        }
      ]
    }
  ],
  "nodes": [
    {
      "mesh": 0
    },
    {
      "mesh": 1
    }
  ],
  "scene": 0,
  "scenes": [
    {
      "nodes": [
        0,
        1
      ]
    }
  ],
  "textures": [
    {
      "source": 0
    },
    {
      "source": 1
    }
  ]
}