{
  "asset": {
    "copyright": "",
    "generator": "SharpGLTF 1.0.0",
    "version": "2.0"
  },
  "accessors": [
    {
      "name": "POSITION",
      "bufferView": 0,
      "componentType": 5126,
      "count": 4153,
      "max": [
        -131.94898986816406,
        110.55099487304688,
        555.36529541015625
      ],
      "min": [
        -164.06455993652344,
        73.786979675292969,
        535.32177734375
      ],
      "type": "VEC3"
    },
    {
      "name": "NORMAL",
      "bufferView": 0,
      "byteOffset": 12,
      "componentType": 5126,
      "count": 4153,
      "max": [
        0.99999231100082397,
        0.99998486042022705,
        0.99999183416366577
      ],
      "min": [
        -0.99999207258224487,
        -0.99916809797286987,
        -0.99999254941940308
      ],
      "type": "VEC3"
    },
    {
      "name": "TEXCOORD_0",
      "bufferView": 0,
      "byteOffset": 24,
      "componentType": 5126,
      "count": 4153,
      "max": [
        0.9990234375,
        0.9990234375
      ],
      "min": [
        0.0009765625,
        0.0009765625
      ],
      "type": "VEC2"
    },
    {
      "bufferView": 1,
      "componentType": 5123,
      "count": 10056,
      "type": "SCALAR"
    },
    {
      "name": "POSITION",
      "bufferView": 0,
      "byteOffset": 132896,
      "componentType": 5126,
      "count": 604,
      "max": [
        -131.94900512695313,
        110.39649200439453,
        555.056884765625
      ],
      "min": [
        -164.06455993652344,
        74.249748229980469,
        537.48236083984375
      ],
      "type": "VEC3"
    },
    {
      "name": "NORMAL",
      "bufferView": 0,
      "byteOffset": 132908,
      "componentType": 5126,
      "count": 604,
      "max": [
        0.99999231100082397,
        0.99998486042022705,
        0.99999183416366577
      ],
      "min": [
        -0.99999207258224487,
        -0.93106329441070557,
        -0.99999254941940308
      ],
      "type": "VEC3"
    },
    {
      "name": "TEXCOORD_0",
      "bufferView": 0,
      "byteOffset": 132920,
      "componentType": 5126,
      "count": 604,
      "max": [
        0.998046875,
        0.998046875
      ],
      "min": [
        0.001953125,
        0.708984375
      ],
      "type": "VEC2"
    },
    {
      "bufferView": 1,
      "byteOffset": 20112,
      "componentType": 5123,
      "count": 1380,
      "type": "SCALAR"
    }
  ],
  "bufferViews": [
    {
      "buffer": 0,
      "byteLength": 152224,
      "byteStride": 32,
      "target": 34962
    },
    {
      "buffer": 0,
      "byteLength": 22872,
      "byteOffset": 152224,
      "target": 34963
    }
  ],
  "buffers": [
    {
      "byteLength": 175096,
      "uri": "20525362525051736632_LOD00.bin"
    }
  ],
  "images": [
    {
      "uri": "20525362525051736632_LOD00_0.png"
    },
    {
      "uri": "20525362525051736632_LOD00_1.png"
    }
  ],
  "materials": [
    {
      "doubleSided": true,
      "pbrMetallicRoughness": {
        "baseColorTexture": {
          "index": 0
        },
        "metallicFactor": 0
      }
    },
    {
      "doubleSided": true,
      "pbrMetallicRoughness": {
        "baseColorTexture": {
          "index": 1
        },
        "metallicFactor": 0
      }
    }
  ],
  "meshes": [
    {
      "name": "20525362525051736632_0",
      "primitives": [
        {
          "attributes": {
            "POSITION": 0,
            "NORMAL": 1,
            "TEXCOORD_0": 2
          },
          "indices": 3,
          "material": 0
        }
      ]
    },
    {
      "name": "20525362525051736632_1",
      "primitives": [
        {
          "attributes": {
            "POSITION": 4,
            "NORMAL": 5,
            "TEXCOORD_0": 6
          },
          "indices": 7,
          "material": 1
        }
      ]
    }
  ],
  "nodes": [
    {
      "mesh": 0
    },
    {
      "mesh": 1
    }
  ],
  "scene": 0,
  "scenes": [
    {
      "nodes": [
        0,
        1
      ]
    }
  ],
  "textures": [
    {
      "source": 0
    },
    {
      "source": 1
    }
  ]
}