{
  "asset": {
    "copyright": "",
    "generator": "SharpGLTF 1.0.0",
    "version": "2.0"
  },
  "accessors": [
    {
      "name": "POSITION",
      "bufferView": 0,
      "componentType": 5126,
      "count": 1169,
      "max": [
        -485.0618896484375,
        37.984123229980469,
        38.858486175537109
      ],
      "min": [
        -517.3326416015625,
        36.129924774169922,
        0.47339731454849243
      ],
      "type": "VEC3"
    },
    {
      "name": "NORMAL",
      "bufferView": 0,
      "byteOffset": 12,
      "componentType": 5126,
      "count": 1169,
      "max": [
        0.99999254941940308,
        0.99998480081558228,
        0.99038887023925781
      ],
      "min": [
        -0.99915719032287598,
        -0.99917143583297729,
        -0.76982361078262329
      ],
      "type": "VEC3"
    },
    {
      "name": "TEXCOORD_0",
      "bufferView": 0,
      "byteOffset": 24,
      "componentType": 5126,
      "count": 1169,
      "max": [
        0.998046875,
        0.998046875
      ],
      "min": [
        0.001953125,
        0.541015625
      ],
      "type": "VEC2"
    },
    {
      "bufferView": 1,
      "componentType": 5123,
      "count": 2922,
      "type": "SCALAR"
    }
  ],
  "bufferViews": [
    {
      "buffer": 0,
      "byteLength": 37408,
      "byteStride": 32,
      "target": 34962
    },
    {
      "buffer": 0,
      "byteLength": 5844,
      "byteOffset": 37408,
      "target": 34963
    }
  ],
  "buffers": [
    {
      "byteLength": 43252,
      "uri": "20525362525051735143_LOD00.bin"
    }
  ],
  "images": [
    {
      "uri": "20525362525051735143_LOD00.png"
    }
  ],
  "materials": [
    {
      "doubleSided": true,
      "pbrMetallicRoughness": {
        "baseColorTexture": {
          "index": 0
        },
        "metallicFactor": 0
      }
    }
  ],
  "meshes": [
    {
      "name": "20525362525051735143_0",
      "primitives": [
        {
          "attributes": {
            "POSITION": 0,
            "NORMAL": 1,
            "TEXCOORD_0": 2
          },
          "indices": 3,
          "material": 0
        }
      ]
    }
  ],
  "nodes": [
    {
      "mesh": 0
    }
  ],
  "scene": 0,
  "scenes": [
    {
      "nodes": [
        0
      ]
    }
  ],
  "textures": [
    {
      "source": 0
    }
  ]
}