{
  "asset": {
    "copyright": "",
    "generator": "SharpGLTF 1.0.0",
    "version": "2.0"
  },
  "accessors": [
    {
      "name": "POSITION",
      "bufferView": 0,
      "componentType": 5126,
      "count": 5000,
      "max": [
        -164.0548095703125,
        51.423500061035156,
        38.694503784179688
      ],
      "min": [
        -196.17205810546875,
        37.365451812744141,
        0.46339645981788635
      ],
      "type": "VEC3"
    },
    {
      "name": "NORMAL",
      "bufferView": 0,
      "byteOffset": 12,
      "componentType": 5126,
      "count": 5000,
      "max": [
        0.99999237060546875,
        0.99998462200164795,
        0.99999219179153442
      ],
      "min": [
        -0.99999219179153442,
        -0.99819982051849365,
        -0.99999219179153442
      ],
      "type": "VEC3"
    },
    {
      "name": "TEXCOORD_0",
      "bufferView": 0,
      "byteOffset": 24,
      "componentType": 5126,
      "count": 5000,
      "max": [
        0.998046875,
        0.9990234375
      ],
      "min": [
        0.001953125,
        0.0009765625
      ],
      "type": "VEC2"
    },
    {
      "bufferView": 1,
      "componentType": 5123,
      "count": 11790,
      "type": "SCALAR"
    },
    {
      "name": "POSITION",
      "bufferView": 0,
      "byteOffset": 160000,
      "componentType": 5126,
      "count": 3075,
      "max": [
        -164.05477905273438,
        51.577987670898438,
        38.848281860351563
      ],
      "min": [
        -196.17195129394531,
        37.520736694335938,
        0.46359428763389587
      ],
      "type": "VEC3"
    },
    {
      "name": "NORMAL",
      "bufferView": 0,
      "byteOffset": 160012,
      "componentType": 5126,
      "count": 3075,
      "max": [
        0.99999237060546875,
        0.99998462200164795,
        0.99999219179153442
      ],
      "min": [
        -0.99999219179153442,
        -0.99640339612960815,
        -0.99999219179153442
      ],
      "type": "VEC3"
    },
    {
      "name": "TEXCOORD_0",
      "bufferView": 0,
      "byteOffset": 160024,
      "componentType": 5126,
      "count": 3075,
      "max": [
        0.998046875,
        0.998046875
      ],
      "min": [
        0.001953125,
        0.048828125
      ],
      "type": "VEC2"
    },
    {
      "bufferView": 1,
      "byteOffset": 23580,
      "componentType": 5123,
      "count": 7158,
      "type": "SCALAR"
    }
  ],
  "bufferViews": [
    {
      "buffer": 0,
      "byteLength": 258400,
      "byteStride": 32,
      "target": 34962
    },
    {
      "buffer": 0,
      "byteLength": 37896,
      "byteOffset": 258400,
      "target": 34963
    }
  ],
  "buffers": [
    {
      "byteLength": 296296,
      "uri": "20525362525051734057_LOD00.bin"
    }
  ],
  "images": [
    {
      "uri": "20525362525051734057_LOD00_0.png"
    },
    {
      "uri": "20525362525051734057_LOD00_1.png"
    }
  ],
  "materials": [
    {
      "doubleSided": true,
      "pbrMetallicRoughness": {
        "baseColorTexture": {
          "index": 0
        },
        "metallicFactor": 0
      }
    },
    {
      "doubleSided": true,
      "pbrMetallicRoughness": {
        "baseColorTexture": {
          "index": 1
        },
        "metallicFactor": 0
      }
    }
  ],
  "meshes": [
    {
      "name": "20525362525051734057_0",
      "primitives": [
        {
          "attributes": {
            "POSITION": 0,
            "NORMAL": 1,
            "TEXCOORD_0": 2
          },
          "indices": 3,
          "material": 0
        }
      ]
    },
    {
      "name": "20525362525051734057_1",
      "primitives": [
        {
          "attributes": {
            "POSITION": 4,
            "NORMAL": 5,
            "TEXCOORD_0": 6
          },
          "indices": 7,
          "material": 1
        }
      ]
    }
  ],
  "nodes": [
    {
      "mesh": 0
    },
    {
      "mesh": 1
    }
  ],
  "scene": 0,
  "scenes": [
    {
      "nodes": [
        0,
        1
      ]
    }
  ],
  "textures": [
    {
      "source": 0
    },
    {
      "source": 1
    }
  ]
}