{
  "asset": {
    "copyright": "",
    "generator": "SharpGLTF 1.0.0",
    "version": "2.0"
  },
  "accessors": [
    {
      "name": "POSITION",
      "bufferView": 0,
      "componentType": 5126,
      "count": 4797,
      "max": [
        -806.03399658203125,
        61.090106964111328,
        497.45907592773438
      ],
      "min": [
        -838.153564453125,
        48.115570068359375,
        459.07473754882813
      ],
      "type": "VEC3"
    },
    {
      "name": "NORMAL",
      "bufferView": 0,
      "byteOffset": 12,
      "componentType": 5126,
      "count": 4797,
      "max": [
        0.9999927282333374,
        0.99998527765274048,
        0.99915313720703125
      ],
      "min": [
        -0.99798732995986938,
        -1,
        -0.99931186437606812
      ],
      "type": "VEC3"
    },
    {
      "name": "TEXCOORD_0",
      "bufferView": 0,
      "byteOffset": 24,
      "componentType": 5126,
      "count": 4797,
      "max": [
        0.998046875,
        0.9990234375
      ],
      "min": [
        0.001953125,
        0.0009765625
      ],
      "type": "VEC2"
    },
    {
      "bufferView": 1,
      "componentType": 5123,
      "count": 11733,
      "type": "SCALAR"
    },
    {
      "name": "POSITION",
      "bufferView": 0,
      "byteOffset": 153504,
      "componentType": 5126,
      "count": 761,
      "max": [
        -806.0364990234375,
        61.090106964111328,
        497.30581665039063
      ],
      "min": [
        -838.15081787109375,
        48.269527435302734,
        459.07513427734375
      ],
      "type": "VEC3"
    },
    {
      "name": "NORMAL",
      "bufferView": 0,
      "byteOffset": 153516,
      "componentType": 5126,
      "count": 761,
      "max": [
        0.9999927282333374,
        0.99998527765274048,
        0.9981762170791626
      ],
      "min": [
        -0.99528002738952637,
        -0.96886438131332397,
        -0.99898433685302734
      ],
      "type": "VEC3"
    },
    {
      "name": "TEXCOORD_0",
      "bufferView": 0,
      "byteOffset": 153528,
      "componentType": 5126,
      "count": 761,
      "max": [
        0.998046875,
        0.998046875
      ],
      "min": [
        0.001953125,
        0.783203125
      ],
      "type": "VEC2"
    },
    {
      "bufferView": 1,
      "byteOffset": 23466,
      "componentType": 5123,
      "count": 1596,
      "type": "SCALAR"
    }
  ],
  "bufferViews": [
    {
      "buffer": 0,
      "byteLength": 177856,
      "byteStride": 32,
      "target": 34962
    },
    {
      "buffer": 0,
      "byteLength": 26658,
      "byteOffset": 177856,
      "target": 34963
    }
  ],
  "buffers": [
    {
      "byteLength": 204516,
      "uri": "20525362525140626357_LOD00.bin"
    }
  ],
  "images": [
    {
      "uri": "20525362525140626357_LOD00_0.png"
    },
    {
      "uri": "20525362525140626357_LOD00_1.png"
    }
  ],
  "materials": [
    {
      "doubleSided": true,
      "pbrMetallicRoughness": {
        "baseColorTexture": {
          "index": 0
        },
        "metallicFactor": 0
      }
    },
    {
      "doubleSided": true,
      "pbrMetallicRoughness": {
        "baseColorTexture": {
          "index": 1
        },
        "metallicFactor": 0
      }
    }
  ],
  "meshes": [
    {
      "name": "20525362525140626357_0",
      "primitives": [
        {
          "attributes": {
            "POSITION": 0,
            "NORMAL": 1,
            "TEXCOORD_0": 2
          },
          "indices": 3,
          "material": 0
        }
      ]
    },
    {
      "name": "20525362525140626357_1",
      "primitives": [
        {
          "attributes": {
            "POSITION": 4,
            "NORMAL": 5,
            "TEXCOORD_0": 6
          },
          "indices": 7,
          "material": 1
        }
      ]
    }
  ],
  "nodes": [
    {
      "mesh": 0
    },
    {
      "mesh": 1
    }
  ],
  "scene": 0,
  "scenes": [
    {
      "nodes": [
        0,
        1
      ]
    }
  ],
  "textures": [
    {
      "source": 0
    },
    {
      "source": 1
    }
  ]
}