{
  "asset": {
    "copyright": "",
    "generator": "SharpGLTF 1.0.0",
    "version": "2.0"
  },
  "accessors": [
    {
      "name": "POSITION",
      "bufferView": 0,
      "componentType": 5126,
      "count": 3706,
      "max": [
        -677.64959716796875,
        60.959930419921875,
        306.22286987304688
      ],
      "min": [
        -709.921630859375,
        42.580860137939453,
        267.83523559570313
      ],
      "type": "VEC3"
    },
    {
      "name": "NORMAL",
      "bufferView": 0,
      "byteOffset": 12,
      "componentType": 5126,
      "count": 3706,
      "max": [
        0.99898910522460938,
        0.99998509883880615,
        0.99931663274765015
      ],
      "min": [
        -0.9993211030960083,
        -1,
        -0.99999237060546875
      ],
      "type": "VEC3"
    },
    {
      "name": "TEXCOORD_0",
      "bufferView": 0,
      "byteOffset": 24,
      "componentType": 5126,
      "count": 3706,
      "max": [
        0.998046875,
        0.9990234375
      ],
      "min": [
        0.001953125,
        0.0009765625
      ],
      "type": "VEC2"
    },
    {
      "bufferView": 1,
      "componentType": 5123,
      "count": 9012,
      "type": "SCALAR"
    },
    {
      "name": "POSITION",
      "bufferView": 0,
      "byteOffset": 118592,
      "componentType": 5126,
      "count": 193,
      "max": [
        -677.65093994140625,
        60.496753692626953,
        304.2183837890625
      ],
      "min": [
        -709.76788330078125,
        43.04425048828125,
        267.99057006835938
      ],
      "type": "VEC3"
    },
    {
      "name": "NORMAL",
      "bufferView": 0,
      "byteOffset": 118604,
      "componentType": 5126,
      "count": 193,
      "max": [
        0.99092406034469604,
        0.99998462200164795,
        0.99672871828079224
      ],
      "min": [
        -0.60674965381622314,
        -0.94607490301132202,
        -0.99798548221588135
      ],
      "type": "VEC3"
    },
    {
      "name": "TEXCOORD_0",
      "bufferView": 0,
      "byteOffset": 118616,
      "componentType": 5126,
      "count": 193,
      "max": [
        0.994140625,
        0.998046875
      ],
      "min": [
        0.001953125,
        0.943359375
      ],
      "type": "VEC2"
    },
    {
      "bufferView": 1,
      "byteOffset": 18024,
      "componentType": 5123,
      "count": 441,
      "type": "SCALAR"
    }
  ],
  "bufferViews": [
    {
      "buffer": 0,
      "byteLength": 124768,
      "byteStride": 32,
      "target": 34962
    },
    {
      "buffer": 0,
      "byteLength": 18906,
      "byteOffset": 124768,
      "target": 34963
    }
  ],
  "buffers": [
    {
      "byteLength": 143676,
      "uri": "20525362525140626055_LOD00.bin"
    }
  ],
  "images": [
    {
      "uri": "20525362525140626055_LOD00_0.png"
    },
    {
      "uri": "20525362525140626055_LOD00_1.png"
    }
  ],
  "materials": [
    {
      "doubleSided": true,
      "pbrMetallicRoughness": {
        "baseColorTexture": {
          "index": 0
        },
        "metallicFactor": 0
      }
    },
    {
      "doubleSided": true,
      "pbrMetallicRoughness": {
        "baseColorTexture": {
          "index": 1
        },
        "metallicFactor": 0
      }
    }
  ],
  "meshes": [
    {
      "name": "20525362525140626055_0",
      "primitives": [
        {
          "attributes": {
            "POSITION": 0,
            "NORMAL": 1,
            "TEXCOORD_0": 2
          },
          "indices": 3,
          "material": 0
        }
      ]
    },
    {
      "name": "20525362525140626055_1",
      "primitives": [
        {
          "attributes": {
            "POSITION": 4,
            "NORMAL": 5,
            "TEXCOORD_0": 6
          },
          "indices": 7,
          "material": 1
        }
      ]
    }
  ],
  "nodes": [
    {
      "mesh": 0
    },
    {
      "mesh": 1
    }
  ],
  "scene": 0,
  "scenes": [
    {
      "nodes": [
        0,
        1
      ]
    }
  ],
  "textures": [
    {
      "source": 0
    },
    {
      "source": 1
    }
  ]
}