{
  "asset": {
    "copyright": "",
    "generator": "SharpGLTF 1.0.0",
    "version": "2.0"
  },
  "accessors": [
    {
      "name": "POSITION",
      "bufferView": 0,
      "componentType": 5126,
      "count": 2801,
      "max": [
        -484.88473510742188,
        74.5545654296875,
        573.7166748046875
      ],
      "min": [
        -517.15496826171875,
        44.281261444091797,
        535.48370361328125
      ],
      "type": "VEC3"
    },
    {
      "name": "NORMAL",
      "bufferView": 0,
      "byteOffset": 12,
      "componentType": 5126,
      "count": 2801,
      "max": [
        0.99999254941940308,
        0.99998503923416138,
        0.99999189376831055
      ],
      "min": [
        -0.99931997060775757,
        -1,
        -0.99999254941940308
      ],
      "type": "VEC3"
    },
    {
      "name": "TEXCOORD_0",
      "bufferView": 0,
      "byteOffset": 24,
      "componentType": 5126,
      "count": 2801,
      "max": [
        0.998046875,
        0.9990234375
      ],
      "min": [
        0.001953125,
        0.0009765625
      ],
      "type": "VEC2"
    },
    {
      "bufferView": 1,
      "componentType": 5123,
      "count": 6858,
      "type": "SCALAR"
    },
    {
      "name": "POSITION",
      "bufferView": 0,
      "byteOffset": 89632,
      "componentType": 5126,
      "count": 1549,
      "max": [
        -485.03900146484375,
        74.24761962890625,
        573.7166748046875
      ],
      "min": [
        -517.15350341796875,
        44.896518707275391,
        535.3336181640625
      ],
      "type": "VEC3"
    },
    {
      "name": "NORMAL",
      "bufferView": 0,
      "byteOffset": 89644,
      "componentType": 5126,
      "count": 1549,
      "max": [
        0.99999254941940308,
        0.99998503923416138,
        0.99999189376831055
      ],
      "min": [
        -0.99999195337295532,
        -0.99641990661621094,
        -0.99999254941940308
      ],
      "type": "VEC3"
    },
    {
      "name": "TEXCOORD_0",
      "bufferView": 0,
      "byteOffset": 89656,
      "componentType": 5126,
      "count": 1549,
      "max": [
        0.998046875,
        0.998046875
      ],
      "min": [
        0.001953125,
        0.279296875
      ],
      "type": "VEC2"
    },
    {
      "bufferView": 1,
      "byteOffset": 13716,
      "componentType": 5123,
      "count": 3669,
      "type": "SCALAR"
    }
  ],
  "bufferViews": [
    {
      "buffer": 0,
      "byteLength": 139200,
      "byteStride": 32,
      "target": 34962
    },
    {
      "buffer": 0,
      "byteLength": 21054,
      "byteOffset": 139200,
      "target": 34963
    }
  ],
  "buffers": [
    {
      "byteLength": 160256,
      "uri": "20525362525051737367_LOD00.bin"
    }
  ],
  "images": [
    {
      "uri": "20525362525051737367_LOD00_0.png"
    },
    {
      "uri": "20525362525051737367_LOD00_1.png"
    }
  ],
  "materials": [
    {
      "doubleSided": true,
      "pbrMetallicRoughness": {
        "baseColorTexture": {
          "index": 0
        },
        "metallicFactor": 0
      }
    },
    {
      "doubleSided": true,
      "pbrMetallicRoughness": {
        "baseColorTexture": {
          "index": 1
        },
        "metallicFactor": 0
      }
    }
  ],
  "meshes": [
    {
      "name": "20525362525051737367_0",
      "primitives": [
        {
          "attributes": {
            "POSITION": 0,
            "NORMAL": 1,
            "TEXCOORD_0": 2
          },
          "indices": 3,
          "material": 0
        }
      ]
    },
    {
      "name": "20525362525051737367_1",
      "primitives": [
        {
          "attributes": {
            "POSITION": 4,
            "NORMAL": 5,
            "TEXCOORD_0": 6
          },
          "indices": 7,
          "material": 1
        }
      ]
    }
  ],
  "nodes": [
    {
      "mesh": 0
    },
    {
      "mesh": 1
    }
  ],
  "scene": 0,
  "scenes": [
    {
      "nodes": [
        0,
        1
      ]
    }
  ],
  "textures": [
    {
      "source": 0
    },
    {
      "source": 1
    }
  ]
}