{
  "asset": {
    "copyright": "",
    "generator": "SharpGLTF 1.0.0",
    "version": "2.0"
  },
  "accessors": [
    {
      "name": "POSITION",
      "bufferView": 0,
      "componentType": 5126,
      "count": 2945,
      "max": [
        -773.948486328125,
        63.112739562988281,
        306.69268798828125
      ],
      "min": [
        -806.52972412109375,
        41.950328826904297,
        267.99652099609375
      ],
      "type": "VEC3"
    },
    {
      "name": "NORMAL",
      "bufferView": 0,
      "byteOffset": 12,
      "componentType": 5126,
      "count": 2945,
      "max": [
        0.99999266862869263,
        0.99998503923416138,
        0.99999207258224487
      ],
      "min": [
        -0.99999165534973145,
        -1,
        -0.99999237060546875
      ],
      "type": "VEC3"
    },
    {
      "name": "TEXCOORD_0",
      "bufferView": 0,
      "byteOffset": 24,
      "componentType": 5126,
      "count": 2945,
      "max": [
        0.998046875,
        0.9990234375
      ],
      "min": [
        0.001953125,
        0.0009765625
      ],
      "type": "VEC2"
    },
    {
      "bufferView": 1,
      "componentType": 5123,
      "count": 7128,
      "type": "SCALAR"
    },
    {
      "name": "POSITION",
      "bufferView": 0,
      "byteOffset": 94240,
      "componentType": 5126,
      "count": 1478,
      "max": [
        -773.949951171875,
        63.112739562988281,
        306.22952270507813
      ],
      "min": [
        -806.06781005859375,
        45.350151062011719,
        267.99700927734375
      ],
      "type": "VEC3"
    },
    {
      "name": "NORMAL",
      "bufferView": 0,
      "byteOffset": 94252,
      "componentType": 5126,
      "count": 1478,
      "max": [
        0.99799883365631104,
        0.99998503923416138,
        0.99999207258224487
      ],
      "min": [
        -0.99932169914245605,
        -0.98990792036056519,
        -0.99999237060546875
      ],
      "type": "VEC3"
    },
    {
      "name": "TEXCOORD_0",
      "bufferView": 0,
      "byteOffset": 94264,
      "componentType": 5126,
      "count": 1478,
      "max": [
        0.998046875,
        0.998046875
      ],
      "min": [
        0.001953125,
        0.373046875
      ],
      "type": "VEC2"
    },
    {
      "bufferView": 1,
      "byteOffset": 14256,
      "componentType": 5123,
      "count": 3495,
      "type": "SCALAR"
    }
  ],
  "bufferViews": [
    {
      "buffer": 0,
      "byteLength": 141536,
      "byteStride": 32,
      "target": 34962
    },
    {
      "buffer": 0,
      "byteLength": 21246,
      "byteOffset": 141536,
      "target": 34963
    }
  ],
  "buffers": [
    {
      "byteLength": 162784,
      "uri": "20525362525140626154_LOD00.bin"
    }
  ],
  "images": [
    {
      "uri": "20525362525140626154_LOD00_0.png"
    },
    {
      "uri": "20525362525140626154_LOD00_1.png"
    }
  ],
  "materials": [
    {
      "doubleSided": true,
      "pbrMetallicRoughness": {
        "baseColorTexture": {
          "index": 0
        },
        "metallicFactor": 0
      }
    },
    {
      "doubleSided": true,
      "pbrMetallicRoughness": {
        "baseColorTexture": {
          "index": 1
        },
        "metallicFactor": 0
      }
    }
  ],
  "meshes": [
    {
      "name": "20525362525140626154_0",
      "primitives": [
        {
          "attributes": {
            "POSITION": 0,
            "NORMAL": 1,
            "TEXCOORD_0": 2
          },
          "indices": 3,
          "material": 0
        }
      ]
    },
    {
      "name": "20525362525140626154_1",
      "primitives": [
        {
          "attributes": {
            "POSITION": 4,
            "NORMAL": 5,
            "TEXCOORD_0": 6
          },
          "indices": 7,
          "material": 1
        }
      ]
    }
  ],
  "nodes": [
    {
      "mesh": 0
    },
    {
      "mesh": 1
    }
  ],
  "scene": 0,
  "scenes": [
    {
      "nodes": [
        0,
        1
      ]
    }
  ],
  "textures": [
    {
      "source": 0
    },
    {
      "source": 1
    }
  ]
}