{
  "asset": {
    "copyright": "",
    "generator": "SharpGLTF 1.0.0",
    "version": "2.0"
  },
  "accessors": [
    {
      "name": "POSITION",
      "bufferView": 0,
      "componentType": 5126,
      "count": 3618,
      "max": [
        -131.95355224609375,
        74.59515380859375,
        115.12418365478516
      ],
      "min": [
        -164.07014465332031,
        37.5205078125,
        76.430915832519531
      ],
      "type": "VEC3"
    },
    {
      "name": "NORMAL",
      "bufferView": 0,
      "byteOffset": 12,
      "componentType": 5126,
      "count": 3618,
      "max": [
        0.99931639432907104,
        0.99998462200164795,
        0.99999219179153442
      ],
      "min": [
        -0.99999213218688965,
        -0.9991680383682251,
        -0.9999922513961792
      ],
      "type": "VEC3"
    },
    {
      "name": "TEXCOORD_0",
      "bufferView": 0,
      "byteOffset": 24,
      "componentType": 5126,
      "count": 3618,
      "max": [
        0.998046875,
        0.9990234375
      ],
      "min": [
        0.001953125,
        0.0009765625
      ],
      "type": "VEC2"
    },
    {
      "bufferView": 1,
      "componentType": 5123,
      "count": 9240,
      "type": "SCALAR"
    },
    {
      "name": "POSITION",
      "bufferView": 0,
      "byteOffset": 115776,
      "componentType": 5126,
      "count": 859,
      "max": [
        -131.95361328125,
        74.440696716308594,
        115.12415313720703
      ],
      "min": [
        -164.07005310058594,
        37.829391479492188,
        76.893241882324219
      ],
      "type": "VEC3"
    },
    {
      "name": "NORMAL",
      "bufferView": 0,
      "byteOffset": 115788,
      "componentType": 5126,
      "count": 859,
      "max": [
        0.99898529052734375,
        0.99998462200164795,
        0.99999219179153442
      ],
      "min": [
        -0.99999213218688965,
        -0.99123865365982056,
        -0.9999922513961792
      ],
      "type": "VEC3"
    },
    {
      "name": "TEXCOORD_0",
      "bufferView": 0,
      "byteOffset": 115800,
      "componentType": 5126,
      "count": 859,
      "max": [
        0.998046875,
        0.998046875
      ],
      "min": [
        0.001953125,
        0.607421875
      ],
      "type": "VEC2"
    },
    {
      "bufferView": 1,
      "byteOffset": 18480,
      "componentType": 5123,
      "count": 2097,
      "type": "SCALAR"
    }
  ],
  "bufferViews": [
    {
      "buffer": 0,
      "byteLength": 143264,
      "byteStride": 32,
      "target": 34962
    },
    {
      "buffer": 0,
      "byteLength": 22674,
      "byteOffset": 143264,
      "target": 34963
    }
  ],
  "buffers": [
    {
      "byteLength": 165940,
      "uri": "20525362525051734076_LOD00.bin"
    }
  ],
  "images": [
    {
      "uri": "20525362525051734076_LOD00_0.png"
    },
    {
      "uri": "20525362525051734076_LOD00_1.png"
    }
  ],
  "materials": [
    {
      "doubleSided": true,
      "pbrMetallicRoughness": {
        "baseColorTexture": {
          "index": 0
        },
        "metallicFactor": 0
      }
    },
    {
      "doubleSided": true,
      "pbrMetallicRoughness": {
        "baseColorTexture": {
          "index": 1
        },
        "metallicFactor": 0
      }
    }
  ],
  "meshes": [
    {
      "name": "20525362525051734076_0",
      "primitives": [
        {
          "attributes": {
            "POSITION": 0,
            "NORMAL": 1,
            "TEXCOORD_0": 2
          },
          "indices": 3,
          "material": 0
        }
      ]
    },
    {
      "name": "20525362525051734076_1",
      "primitives": [
        {
          "attributes": {
            "POSITION": 4,
            "NORMAL": 5,
            "TEXCOORD_0": 6
          },
          "indices": 7,
          "material": 1
        }
      ]
    }
  ],
  "nodes": [
    {
      "mesh": 0
    },
    {
      "mesh": 1
    }
  ],
  "scene": 0,
  "scenes": [
    {
      "nodes": [
        0,
        1
      ]
    }
  ],
  "textures": [
    {
      "source": 0
    },
    {
      "source": 1
    }
  ]
}