{
  "asset": {
    "copyright": "",
    "generator": "SharpGLTF 1.0.0",
    "version": "2.0"
  },
  "accessors": [
    {
      "name": "POSITION",
      "bufferView": 0,
      "componentType": 5126,
      "count": 87,
      "max": [
        -164.05140686035156,
        37.841682434082031,
        230.98722839355469
      ],
      "min": [
        -196.1676025390625,
        9.5716419219970703,
        229.75244140625
      ],
      "type": "VEC3"
    },
    {
      "name": "NORMAL",
      "bufferView": 0,
      "byteOffset": 12,
      "componentType": 5126,
      "count": 87,
      "max": [
        2.9929231459391303E-05,
        -0.0039810929447412491,
        0.99999207258224487
      ],
      "min": [
        1.6264777514152229E-05,
        -1,
        -3.6003722925670445E-05
      ],
      "type": "VEC3"
    },
    {
      "name": "TEXCOORD_0",
      "bufferView": 0,
      "byteOffset": 24,
      "componentType": 5126,
      "count": 87,
      "max": [
        0.962890625,
        0.998046875
      ],
      "min": [
        0.001953125,
        0.181640625
      ],
      "type": "VEC2"
    },
    {
      "bufferView": 1,
      "componentType": 5123,
      "count": 255,
      "type": "SCALAR"
    }
  ],
  "bufferViews": [
    {
      "buffer": 0,
      "byteLength": 2784,
      "byteStride": 32,
      "target": 34962
    },
    {
      "buffer": 0,
      "byteLength": 510,
      "byteOffset": 2784,
      "target": 34963
    }
  ],
  "buffers": [
    {
      "byteLength": 3296,
      "uri": "20525362525051734273_LOD00.bin"
    }
  ],
  "images": [
    {
      "uri": "20525362525051734273_LOD00.png"
    }
  ],
  "materials": [
    {
      "doubleSided": true,
      "pbrMetallicRoughness": {
        "baseColorTexture": {
          "index": 0
        },
        "metallicFactor": 0
      }
    }
  ],
  "meshes": [
    {
      "name": "20525362525051734273_0",
      "primitives": [
        {
          "attributes": {
            "POSITION": 0,
            "NORMAL": 1,
            "TEXCOORD_0": 2
          },
          "indices": 3,
          "material": 0
        }
      ]
    }
  ],
  "nodes": [
    {
      "mesh": 0
    }
  ],
  "scene": 0,
  "scenes": [
    {
      "nodes": [
        0
      ]
    }
  ],
  "textures": [
    {
      "source": 0
    }
  ]
}