{
  "asset": {
    "copyright": "",
    "generator": "SharpGLTF 1.0.0",
    "version": "2.0"
  },
  "accessors": [
    {
      "name": "POSITION",
      "bufferView": 0,
      "componentType": 5126,
      "count": 912,
      "max": [
        -407.58908081054688,
        83.213310241699219,
        311.4332275390625
      ],
      "min": [
        -421.3310546875,
        74.098655700683594,
        305.7298583984375
      ],
      "type": "VEC3"
    },
    {
      "name": "NORMAL",
      "bufferView": 0,
      "byteOffset": 12,
      "componentType": 5126,
      "count": 912,
      "max": [
        0.99999243021011353,
        0.99998486042022705,
        0.99999213218688965
      ],
      "min": [
        -0.99798864126205444,
        -0.92374563217163086,
        -0.99486875534057617
      ],
      "type": "VEC3"
    },
    {
      "name": "TEXCOORD_0",
      "bufferView": 0,
      "byteOffset": 24,
      "componentType": 5126,
      "count": 912,
      "max": [
        0.998046875,
        0.998046875
      ],
      "min": [
        0.001953125,
        0.736328125
      ],
      "type": "VEC2"
    },
    {
      "bufferView": 1,
      "componentType": 5123,
      "count": 2091,
      "type": "SCALAR"
    }
  ],
  "bufferViews": [
    {
      "buffer": 0,
      "byteLength": 29184,
      "byteStride": 32,
      "target": 34962
    },
    {
      "buffer": 0,
      "byteLength": 4182,
      "byteOffset": 29184,
      "target": 34963
    }
  ],
  "buffers": [
    {
      "byteLength": 33368,
      "uri": "20525362525051737412_LOD00.bin"
    }
  ],
  "images": [
    {
      "uri": "20525362525051737412_LOD00.png"
    }
  ],
  "materials": [
    {
      "doubleSided": true,
      "pbrMetallicRoughness": {
        "baseColorTexture": {
          "index": 0
        },
        "metallicFactor": 0
      }
    }
  ],
  "meshes": [
    {
      "name": "20525362525051737412_0",
      "primitives": [
        {
          "attributes": {
            "POSITION": 0,
            "NORMAL": 1,
            "TEXCOORD_0": 2
          },
          "indices": 3,
          "material": 0
        }
      ]
    }
  ],
  "nodes": [
    {
      "mesh": 0
    }
  ],
  "scene": 0,
  "scenes": [
    {
      "nodes": [
        0
      ]
    }
  ],
  "textures": [
    {
      "source": 0
    }
  ]
}