{
  "asset": {
    "copyright": "",
    "generator": "SharpGLTF 1.0.0",
    "version": "2.0"
  },
  "accessors": [
    {
      "name": "POSITION",
      "bufferView": 0,
      "componentType": 5126,
      "count": 3481,
      "max": [
        -580.8773193359375,
        74.244392395019531,
        535.5078125
      ],
      "min": [
        -613.45587158203125,
        42.4171142578125,
        497.27377319335938
      ],
      "type": "VEC3"
    },
    {
      "name": "NORMAL",
      "bufferView": 0,
      "byteOffset": 12,
      "componentType": 5126,
      "count": 3481,
      "max": [
        0.99999260902404785,
        0.99998503923416138,
        0.99999189376831055
      ],
      "min": [
        -0.99999189376831055,
        -1,
        -0.99999254941940308
      ],
      "type": "VEC3"
    },
    {
      "name": "TEXCOORD_0",
      "bufferView": 0,
      "byteOffset": 24,
      "componentType": 5126,
      "count": 3481,
      "max": [
        0.9990234375,
        0.9990234375
      ],
      "min": [
        0.0009765625,
        0.0009765625
      ],
      "type": "VEC2"
    },
    {
      "bufferView": 1,
      "componentType": 5123,
      "count": 7989,
      "type": "SCALAR"
    },
    {
      "name": "POSITION",
      "bufferView": 0,
      "byteOffset": 111392,
      "componentType": 5126,
      "count": 1080,
      "max": [
        -581.33740234375,
        74.243942260742188,
        535.044189453125
      ],
      "min": [
        -613.45355224609375,
        45.20098876953125,
        497.27523803710938
      ],
      "type": "VEC3"
    },
    {
      "name": "NORMAL",
      "bufferView": 0,
      "byteOffset": 111404,
      "componentType": 5126,
      "count": 1080,
      "max": [
        0.99439936876296997,
        0.99998503923416138,
        0.99999189376831055
      ],
      "min": [
        -0.9991576075553894,
        -0.9991682767868042,
        -0.99671852588653564
      ],
      "type": "VEC3"
    },
    {
      "name": "TEXCOORD_0",
      "bufferView": 0,
      "byteOffset": 111416,
      "componentType": 5126,
      "count": 1080,
      "max": [
        0.998046875,
        0.998046875
      ],
      "min": [
        0.001953125,
        0.427734375
      ],
      "type": "VEC2"
    },
    {
      "bufferView": 1,
      "byteOffset": 15978,
      "componentType": 5123,
      "count": 2664,
      "type": "SCALAR"
    }
  ],
  "bufferViews": [
    {
      "buffer": 0,
      "byteLength": 145952,
      "byteStride": 32,
      "target": 34962
    },
    {
      "buffer": 0,
      "byteLength": 21306,
      "byteOffset": 145952,
      "target": 34963
    }
  ],
  "buffers": [
    {
      "byteLength": 167260,
      "uri": "20525362525140626264_LOD00.bin"
    }
  ],
  "images": [
    {
      "uri": "20525362525140626264_LOD00_0.png"
    },
    {
      "uri": "20525362525140626264_LOD00_1.png"
    }
  ],
  "materials": [
    {
      "doubleSided": true,
      "pbrMetallicRoughness": {
        "baseColorTexture": {
          "index": 0
        },
        "metallicFactor": 0
      }
    },
    {
      "doubleSided": true,
      "pbrMetallicRoughness": {
        "baseColorTexture": {
          "index": 1
        },
        "metallicFactor": 0
      }
    }
  ],
  "meshes": [
    {
      "name": "20525362525140626264_0",
      "primitives": [
        {
          "attributes": {
            "POSITION": 0,
            "NORMAL": 1,
            "TEXCOORD_0": 2
          },
          "indices": 3,
          "material": 0
        }
      ]
    },
    {
      "name": "20525362525140626264_1",
      "primitives": [
        {
          "attributes": {
            "POSITION": 4,
            "NORMAL": 5,
            "TEXCOORD_0": 6
          },
          "indices": 7,
          "material": 1
        }
      ]
    }
  ],
  "nodes": [
    {
      "mesh": 0
    },
    {
      "mesh": 1
    }
  ],
  "scene": 0,
  "scenes": [
    {
      "nodes": [
        0,
        1
      ]
    }
  ],
  "textures": [
    {
      "source": 0
    },
    {
      "source": 1
    }
  ]
}