{
  "asset": {
    "copyright": "",
    "generator": "SharpGLTF 1.0.0",
    "version": "2.0"
  },
  "accessors": [
    {
      "name": "POSITION",
      "bufferView": 0,
      "componentType": 5126,
      "count": 3399,
      "max": [
        -196.14738464355469,
        74.269615173339844,
        497.73727416992188
      ],
      "min": [
        -228.2630615234375,
        37.347061157226563,
        459.04391479492188
      ],
      "type": "VEC3"
    },
    {
      "name": "NORMAL",
      "bufferView": 0,
      "byteOffset": 12,
      "componentType": 5126,
      "count": 3399,
      "max": [
        0.99999237060546875,
        0.99998486042022705,
        0.99999195337295532
      ],
      "min": [
        -0.99999207258224487,
        -1,
        -0.99999254941940308
      ],
      "type": "VEC3"
    },
    {
      "name": "TEXCOORD_0",
      "bufferView": 0,
      "byteOffset": 24,
      "componentType": 5126,
      "count": 3399,
      "max": [
        0.9990234375,
        0.9990234375
      ],
      "min": [
        0.0009765625,
        0.0009765625
      ],
      "type": "VEC2"
    },
    {
      "bufferView": 1,
      "componentType": 5123,
      "count": 7884,
      "type": "SCALAR"
    },
    {
      "name": "POSITION",
      "bufferView": 0,
      "byteOffset": 108768,
      "componentType": 5126,
      "count": 927,
      "max": [
        -196.14787292480469,
        56.812244415283203,
        497.27615356445313
      ],
      "min": [
        -225.02053833007813,
        40.282123565673828,
        459.04525756835938
      ],
      "type": "VEC3"
    },
    {
      "name": "NORMAL",
      "bufferView": 0,
      "byteOffset": 108780,
      "componentType": 5126,
      "count": 927,
      "max": [
        0.99931579828262329,
        0.99998486042022705,
        0.99999195337295532
      ],
      "min": [
        -0.99441266059875488,
        -0.99916762113571167,
        -0.99999254941940308
      ],
      "type": "VEC3"
    },
    {
      "name": "TEXCOORD_0",
      "bufferView": 0,
      "byteOffset": 108792,
      "componentType": 5126,
      "count": 927,
      "max": [
        0.998046875,
        0.998046875
      ],
      "min": [
        0.001953125,
        0.595703125
      ],
      "type": "VEC2"
    },
    {
      "bufferView": 1,
      "byteOffset": 15768,
      "componentType": 5123,
      "count": 2214,
      "type": "SCALAR"
    }
  ],
  "bufferViews": [
    {
      "buffer": 0,
      "byteLength": 138432,
      "byteStride": 32,
      "target": 34962
    },
    {
      "buffer": 0,
      "byteLength": 20196,
      "byteOffset": 138432,
      "target": 34963
    }
  ],
  "buffers": [
    {
      "byteLength": 158628,
      "uri": "20525362525051736346_LOD00.bin"
    }
  ],
  "images": [
    {
      "uri": "20525362525051736346_LOD00_0.png"
    },
    {
      "uri": "20525362525051736346_LOD00_1.png"
    }
  ],
  "materials": [
    {
      "doubleSided": true,
      "pbrMetallicRoughness": {
        "baseColorTexture": {
          "index": 0
        },
        "metallicFactor": 0
      }
    },
    {
      "doubleSided": true,
      "pbrMetallicRoughness": {
        "baseColorTexture": {
          "index": 1
        },
        "metallicFactor": 0
      }
    }
  ],
  "meshes": [
    {
      "name": "20525362525051736346_0",
      "primitives": [
        {
          "attributes": {
            "POSITION": 0,
            "NORMAL": 1,
            "TEXCOORD_0": 2
          },
          "indices": 3,
          "material": 0
        }
      ]
    },
    {
      "name": "20525362525051736346_1",
      "primitives": [
        {
          "attributes": {
            "POSITION": 4,
            "NORMAL": 5,
            "TEXCOORD_0": 6
          },
          "indices": 7,
          "material": 1
        }
      ]
    }
  ],
  "nodes": [
    {
      "mesh": 0
    },
    {
      "mesh": 1
    }
  ],
  "scene": 0,
  "scenes": [
    {
      "nodes": [
        0,
        1
      ]
    }
  ],
  "textures": [
    {
      "source": 0
    },
    {
      "source": 1
    }
  ]
}