{
  "asset": {
    "copyright": "",
    "generator": "SharpGLTF 1.0.0",
    "version": "2.0"
  },
  "accessors": [
    {
      "name": "POSITION",
      "bufferView": 0,
      "componentType": 5126,
      "count": 2971,
      "max": [
        -484.88467407226563,
        74.248115539550781,
        535.6573486328125
      ],
      "min": [
        -517.310546875,
        43.975303649902344,
        497.2686767578125
      ],
      "type": "VEC3"
    },
    {
      "name": "NORMAL",
      "bufferView": 0,
      "byteOffset": 12,
      "componentType": 5126,
      "count": 2971,
      "max": [
        0.99999254941940308,
        0.99998509883880615,
        0.99999189376831055
      ],
      "min": [
        -0.99898087978363037,
        -0.99149328470230103,
        -0.99999254941940308
      ],
      "type": "VEC3"
    },
    {
      "name": "TEXCOORD_0",
      "bufferView": 0,
      "byteOffset": 24,
      "componentType": 5126,
      "count": 2971,
      "max": [
        0.998046875,
        0.9990234375
      ],
      "min": [
        0.001953125,
        0.0009765625
      ],
      "type": "VEC2"
    },
    {
      "bufferView": 1,
      "componentType": 5123,
      "count": 7677,
      "type": "SCALAR"
    },
    {
      "name": "POSITION",
      "bufferView": 0,
      "byteOffset": 95072,
      "componentType": 5126,
      "count": 1407,
      "max": [
        -490.75360107421875,
        74.248115539550781,
        535.502685546875
      ],
      "min": [
        -517.1566162109375,
        44.589897155761719,
        497.26922607421875
      ],
      "type": "VEC3"
    },
    {
      "name": "NORMAL",
      "bufferView": 0,
      "byteOffset": 95084,
      "componentType": 5126,
      "count": 1407,
      "max": [
        0.99999254941940308,
        0.99998509883880615,
        0.999317467212677
      ],
      "min": [
        -0.99598640203475952,
        -0.99149328470230103,
        -0.99999254941940308
      ],
      "type": "VEC3"
    },
    {
      "name": "TEXCOORD_0",
      "bufferView": 0,
      "byteOffset": 95096,
      "componentType": 5126,
      "count": 1407,
      "max": [
        0.998046875,
        0.998046875
      ],
      "min": [
        0.001953125,
        0.220703125
      ],
      "type": "VEC2"
    },
    {
      "bufferView": 1,
      "byteOffset": 15354,
      "componentType": 5123,
      "count": 3438,
      "type": "SCALAR"
    }
  ],
  "bufferViews": [
    {
      "buffer": 0,
      "byteLength": 140096,
      "byteStride": 32,
      "target": 34962
    },
    {
      "buffer": 0,
      "byteLength": 22230,
      "byteOffset": 140096,
      "target": 34963
    }
  ],
  "buffers": [
    {
      "byteLength": 162328,
      "uri": "20525362525051737365_LOD00.bin"
    }
  ],
  "images": [
    {
      "uri": "20525362525051737365_LOD00_0.png"
    },
    {
      "uri": "20525362525051737365_LOD00_1.png"
    }
  ],
  "materials": [
    {
      "doubleSided": true,
      "pbrMetallicRoughness": {
        "baseColorTexture": {
          "index": 0
        },
        "metallicFactor": 0
      }
    },
    {
      "doubleSided": true,
      "pbrMetallicRoughness": {
        "baseColorTexture": {
          "index": 1
        },
        "metallicFactor": 0
      }
    }
  ],
  "meshes": [
    {
      "name": "20525362525051737365_0",
      "primitives": [
        {
          "attributes": {
            "POSITION": 0,
            "NORMAL": 1,
            "TEXCOORD_0": 2
          },
          "indices": 3,
          "material": 0
        }
      ]
    },
    {
      "name": "20525362525051737365_1",
      "primitives": [
        {
          "attributes": {
            "POSITION": 4,
            "NORMAL": 5,
            "TEXCOORD_0": 6
          },
          "indices": 7,
          "material": 1
        }
      ]
    }
  ],
  "nodes": [
    {
      "mesh": 0
    },
    {
      "mesh": 1
    }
  ],
  "scene": 0,
  "scenes": [
    {
      "nodes": [
        0,
        1
      ]
    }
  ],
  "textures": [
    {
      "source": 0
    },
    {
      "source": 1
    }
  ]
}