{
  "asset": {
    "copyright": "",
    "generator": "SharpGLTF 1.0.0",
    "version": "2.0"
  },
  "accessors": [
    {
      "name": "POSITION",
      "bufferView": 0,
      "componentType": 5126,
      "count": 1892,
      "max": [
        -297.23953247070313,
        37.838264465332031,
        230.23492431640625
      ],
      "min": [
        -325.03173828125,
        36.293231964111328,
        191.38726806640625
      ],
      "type": "VEC3"
    },
    {
      "name": "NORMAL",
      "bufferView": 0,
      "byteOffset": 12,
      "componentType": 5126,
      "count": 1892,
      "max": [
        0.99673187732696533,
        0.99998480081558228,
        0.99915122985839844
      ],
      "min": [
        -0.99931883811950684,
        -0.99511110782623291,
        -0.99486845731735229
      ],
      "type": "VEC3"
    },
    {
      "name": "TEXCOORD_0",
      "bufferView": 0,
      "byteOffset": 24,
      "componentType": 5126,
      "count": 1892,
      "max": [
        0.998046875,
        0.998046875
      ],
      "min": [
        0.001953125,
        0.240234375
      ],
      "type": "VEC2"
    },
    {
      "bufferView": 1,
      "componentType": 5123,
      "count": 4731,
      "type": "SCALAR"
    }
  ],
  "bufferViews": [
    {
      "buffer": 0,
      "byteLength": 60544,
      "byteStride": 32,
      "target": 34962
    },
    {
      "buffer": 0,
      "byteLength": 9462,
      "byteOffset": 60544,
      "target": 34963
    }
  ],
  "buffers": [
    {
      "byteLength": 70008,
      "uri": "20525362525051734371_LOD00.bin"
    }
  ],
  "images": [
    {
      "uri": "20525362525051734371_LOD00.png"
    }
  ],
  "materials": [
    {
      "doubleSided": true,
      "pbrMetallicRoughness": {
        "baseColorTexture": {
          "index": 0
        },
        "metallicFactor": 0
      }
    }
  ],
  "meshes": [
    {
      "name": "20525362525051734371_0",
      "primitives": [
        {
          "attributes": {
            "POSITION": 0,
            "NORMAL": 1,
            "TEXCOORD_0": 2
          },
          "indices": 3,
          "material": 0
        }
      ]
    }
  ],
  "nodes": [
    {
      "mesh": 0
    }
  ],
  "scene": 0,
  "scenes": [
    {
      "nodes": [
        0
      ]
    }
  ],
  "textures": [
    {
      "source": 0
    }
  ]
}