{
  "asset": {
    "copyright": "",
    "generator": "SharpGLTF 1.0.0",
    "version": "2.0"
  },
  "accessors": [
    {
      "name": "POSITION",
      "bufferView": 0,
      "componentType": 5126,
      "count": 1025,
      "max": [
        -517.13446044921875,
        61.573654174804688,
        611.93328857421875
      ],
      "min": [
        -549.25189208984375,
        44.892078399658203,
        573.70037841796875
      ],
      "type": "VEC3"
    },
    {
      "name": "NORMAL",
      "bufferView": 0,
      "byteOffset": 12,
      "componentType": 5126,
      "count": 1025,
      "max": [
        0.99999254941940308,
        0.99998515844345093,
        0.99673205614089966
      ],
      "min": [
        -0.99931979179382324,
        -0.86756598949432373,
        -0.99931174516677856
      ],
      "type": "VEC3"
    },
    {
      "name": "TEXCOORD_0",
      "bufferView": 0,
      "byteOffset": 24,
      "componentType": 5126,
      "count": 1025,
      "max": [
        0.998046875,
        0.9990234375
      ],
      "min": [
        0.001953125,
        0.0009765625
      ],
      "type": "VEC2"
    },
    {
      "bufferView": 1,
      "componentType": 5123,
      "count": 2418,
      "type": "SCALAR"
    },
    {
      "name": "POSITION",
      "bufferView": 0,
      "byteOffset": 32800,
      "componentType": 5126,
      "count": 484,
      "max": [
        -517.1356201171875,
        61.573654174804688,
        611.9332275390625
      ],
      "min": [
        -549.251708984375,
        45.510730743408203,
        573.700927734375
      ],
      "type": "VEC3"
    },
    {
      "name": "NORMAL",
      "bufferView": 0,
      "byteOffset": 32812,
      "componentType": 5126,
      "count": 484,
      "max": [
        0.99999254941940308,
        0.99998515844345093,
        0.99897712469100952
      ],
      "min": [
        -0.99931979179382324,
        -0.43370714783668518,
        -0.9979826807975769
      ],
      "type": "VEC3"
    },
    {
      "name": "TEXCOORD_0",
      "bufferView": 0,
      "byteOffset": 32824,
      "componentType": 5126,
      "count": 484,
      "max": [
        0.998046875,
        0.998046875
      ],
      "min": [
        0.001953125,
        0.400390625
      ],
      "type": "VEC2"
    },
    {
      "bufferView": 1,
      "byteOffset": 4836,
      "componentType": 5123,
      "count": 1086,
      "type": "SCALAR"
    }
  ],
  "bufferViews": [
    {
      "buffer": 0,
      "byteLength": 48288,
      "byteStride": 32,
      "target": 34962
    },
    {
      "buffer": 0,
      "byteLength": 7008,
      "byteOffset": 48288,
      "target": 34963
    }
  ],
  "buffers": [
    {
      "byteLength": 55296,
      "uri": "20525362525053515154_LOD00.bin"
    }
  ],
  "images": [
    {
      "uri": "20525362525053515154_LOD00_0.png"
    },
    {
      "uri": "20525362525053515154_LOD00_1.png"
    }
  ],
  "materials": [
    {
      "doubleSided": true,
      "pbrMetallicRoughness": {
        "baseColorTexture": {
          "index": 0
        },
        "metallicFactor": 0
      }
    },
    {
      "doubleSided": true,
      "pbrMetallicRoughness": {
        "baseColorTexture": {
          "index": 1
        },
        "metallicFactor": 0
      }
    }
  ],
  "meshes": [
    {
      "name": "20525362525053515154_0",
      "primitives": [
        {
          "attributes": {
            "POSITION": 0,
            "NORMAL": 1,
            "TEXCOORD_0": 2
          },
          "indices": 3,
          "material": 0
        }
      ]
    },
    {
      "name": "20525362525053515154_1",
      "primitives": [
        {
          "attributes": {
            "POSITION": 4,
            "NORMAL": 5,
            "TEXCOORD_0": 6
          },
          "indices": 7,
          "material": 1
        }
      ]
    }
  ],
  "nodes": [
    {
      "mesh": 0
    },
    {
      "mesh": 1
    }
  ],
  "scene": 0,
  "scenes": [
    {
      "nodes": [
        0,
        1
      ]
    }
  ],
  "textures": [
    {
      "source": 0
    },
    {
      "source": 1
    }
  ]
}