{
  "asset": {
    "copyright": "",
    "generator": "SharpGLTF 1.0.0",
    "version": "2.0"
  },
  "accessors": [
    {
      "name": "POSITION",
      "bufferView": 0,
      "componentType": 5126,
      "count": 2678,
      "max": [
        -677.6265869140625,
        60.471927642822266,
        650.15789794921875
      ],
      "min": [
        -709.7431640625,
        37.459449768066406,
        615.47161865234375
      ],
      "type": "VEC3"
    },
    {
      "name": "NORMAL",
      "bufferView": 0,
      "byteOffset": 12,
      "componentType": 5126,
      "count": 2678,
      "max": [
        0.99438935518264771,
        0.99998527765274048,
        0.99914693832397461
      ],
      "min": [
        -0.99598360061645508,
        -1,
        -0.99999254941940308
      ],
      "type": "VEC3"
    },
    {
      "name": "TEXCOORD_0",
      "bufferView": 0,
      "byteOffset": 24,
      "componentType": 5126,
      "count": 2678,
      "max": [
        0.998046875,
        0.9990234375
      ],
      "min": [
        0.001953125,
        0.0009765625
      ],
      "type": "VEC2"
    },
    {
      "bufferView": 1,
      "componentType": 5123,
      "count": 6663,
      "type": "SCALAR"
    },
    {
      "name": "POSITION",
      "bufferView": 0,
      "byteOffset": 85696,
      "componentType": 5126,
      "count": 164,
      "max": [
        -679.48004150390625,
        58.464111328125,
        643.99114990234375
      ],
      "min": [
        -709.74151611328125,
        37.455795288085938,
        615.47161865234375
      ],
      "type": "VEC3"
    },
    {
      "name": "NORMAL",
      "bufferView": 0,
      "byteOffset": 85708,
      "componentType": 5126,
      "count": 164,
      "max": [
        0.99999266862869263,
        0.9999845027923584,
        0.9981764554977417
      ],
      "min": [
        -0.99798178672790527,
        -0.82304888963699341,
        -0.99671697616577148
      ],
      "type": "VEC3"
    },
    {
      "name": "TEXCOORD_0",
      "bufferView": 0,
      "byteOffset": 85720,
      "componentType": 5126,
      "count": 164,
      "max": [
        0.990234375,
        0.998046875
      ],
      "min": [
        0.001953125,
        0.912109375
      ],
      "type": "VEC2"
    },
    {
      "bufferView": 1,
      "byteOffset": 13326,
      "componentType": 5123,
      "count": 357,
      "type": "SCALAR"
    }
  ],
  "bufferViews": [
    {
      "buffer": 0,
      "byteLength": 90944,
      "byteStride": 32,
      "target": 34962
    },
    {
      "buffer": 0,
      "byteLength": 14040,
      "byteOffset": 90944,
      "target": 34963
    }
  ],
  "buffers": [
    {
      "byteLength": 104984,
      "uri": "20525362525142404057_LOD00.bin"
    }
  ],
  "images": [
    {
      "uri": "20525362525142404057_LOD00_0.png"
    },
    {
      "uri": "20525362525142404057_LOD00_1.png"
    }
  ],
  "materials": [
    {
      "doubleSided": true,
      "pbrMetallicRoughness": {
        "baseColorTexture": {
          "index": 0
        },
        "metallicFactor": 0
      }
    },
    {
      "doubleSided": true,
      "pbrMetallicRoughness": {
        "baseColorTexture": {
          "index": 1
        },
        "metallicFactor": 0
      }
    }
  ],
  "meshes": [
    {
      "name": "20525362525142404057_0",
      "primitives": [
        {
          "attributes": {
            "POSITION": 0,
            "NORMAL": 1,
            "TEXCOORD_0": 2
          },
          "indices": 3,
          "material": 0
        }
      ]
    },
    {
      "name": "20525362525142404057_1",
      "primitives": [
        {
          "attributes": {
            "POSITION": 4,
            "NORMAL": 5,
            "TEXCOORD_0": 6
          },
          "indices": 7,
          "material": 1
        }
      ]
    }
  ],
  "nodes": [
    {
      "mesh": 0
    },
    {
      "mesh": 1
    }
  ],
  "scene": 0,
  "scenes": [
    {
      "nodes": [
        0,
        1
      ]
    }
  ],
  "textures": [
    {
      "source": 0
    },
    {
      "source": 1
    }
  ]
}