{
  "asset": {
    "copyright": "",
    "generator": "SharpGLTF 1.0.0",
    "version": "2.0"
  },
  "accessors": [
    {
      "name": "POSITION",
      "bufferView": 0,
      "componentType": 5126,
      "count": 685,
      "max": [
        -263.28387451171875,
        37.835334777832031,
        340.40811157226563
      ],
      "min": [
        -288.60537719726563,
        37.371486663818359,
        305.72320556640625
      ],
      "type": "VEC3"
    },
    {
      "name": "NORMAL",
      "bufferView": 0,
      "byteOffset": 12,
      "componentType": 5126,
      "count": 685,
      "max": [
        0.99439370632171631,
        0.9999847412109375,
        0.96257579326629639
      ],
      "min": [
        -0.50729572772979736,
        -0.2663133442401886,
        -0.93995505571365356
      ],
      "type": "VEC3"
    },
    {
      "name": "TEXCOORD_0",
      "bufferView": 0,
      "byteOffset": 24,
      "componentType": 5126,
      "count": 685,
      "max": [
        0.998046875,
        0.998046875
      ],
      "min": [
        0.001953125,
        0.564453125
      ],
      "type": "VEC2"
    },
    {
      "bufferView": 1,
      "componentType": 5123,
      "count": 1890,
      "type": "SCALAR"
    }
  ],
  "bufferViews": [
    {
      "buffer": 0,
      "byteLength": 21920,
      "byteStride": 32,
      "target": 34962
    },
    {
      "buffer": 0,
      "byteLength": 3780,
      "byteOffset": 21920,
      "target": 34963
    }
  ],
  "buffers": [
    {
      "byteLength": 25700,
      "uri": "20525362525051736152_LOD00.bin"
    }
  ],
  "images": [
    {
      "uri": "20525362525051736152_LOD00.png"
    }
  ],
  "materials": [
    {
      "doubleSided": true,
      "pbrMetallicRoughness": {
        "baseColorTexture": {
          "index": 0
        },
        "metallicFactor": 0
      }
    }
  ],
  "meshes": [
    {
      "name": "20525362525051736152_0",
      "primitives": [
        {
          "attributes": {
            "POSITION": 0,
            "NORMAL": 1,
            "TEXCOORD_0": 2
          },
          "indices": 3,
          "material": 0
        }
      ]
    }
  ],
  "nodes": [
    {
      "mesh": 0
    }
  ],
  "scene": 0,
  "scenes": [
    {
      "nodes": [
        0
      ]
    }
  ],
  "textures": [
    {
      "source": 0
    }
  ]
}