{
  "asset": {
    "copyright": "",
    "generator": "SharpGLTF 1.0.0",
    "version": "2.0"
  },
  "accessors": [
    {
      "name": "POSITION",
      "bufferView": 0,
      "componentType": 5126,
      "count": 3930,
      "max": [
        -99.85162353515625,
        58.681438446044922,
        268.13772583007813
      ],
      "min": [
        -131.96781921386719,
        37.826885223388672,
        229.29095458984375
      ],
      "type": "VEC3"
    },
    {
      "name": "NORMAL",
      "bufferView": 0,
      "byteOffset": 12,
      "componentType": 5126,
      "count": 3930,
      "max": [
        0.99999231100082397,
        0.99998468160629272,
        0.99999207258224487
      ],
      "min": [
        -0.99931758642196655,
        -0.99511253833770752,
        -0.99999237060546875
      ],
      "type": "VEC3"
    },
    {
      "name": "TEXCOORD_0",
      "bufferView": 0,
      "byteOffset": 24,
      "componentType": 5126,
      "count": 3930,
      "max": [
        0.998046875,
        0.9990234375
      ],
      "min": [
        0.001953125,
        0.0009765625
      ],
      "type": "VEC2"
    },
    {
      "bufferView": 1,
      "componentType": 5123,
      "count": 9627,
      "type": "SCALAR"
    },
    {
      "name": "POSITION",
      "bufferView": 0,
      "byteOffset": 125760,
      "componentType": 5126,
      "count": 959,
      "max": [
        -99.851669311523438,
        59.144855499267578,
        267.98394775390625
      ],
      "min": [
        -132.27610778808594,
        41.533363342285156,
        236.99871826171875
      ],
      "type": "VEC3"
    },
    {
      "name": "NORMAL",
      "bufferView": 0,
      "byteOffset": 125772,
      "componentType": 5126,
      "count": 959,
      "max": [
        0.99915593862533569,
        0.99998468160629272,
        0.99999207258224487
      ],
      "min": [
        -0.99485987424850464,
        -0.99511253833770752,
        -0.96007788181304932
      ],
      "type": "VEC3"
    },
    {
      "name": "TEXCOORD_0",
      "bufferView": 0,
      "byteOffset": 125784,
      "componentType": 5126,
      "count": 959,
      "max": [
        0.998046875,
        0.998046875
      ],
      "min": [
        0.001953125,
        0.658203125
      ],
      "type": "VEC2"
    },
    {
      "bufferView": 1,
      "byteOffset": 19254,
      "componentType": 5123,
      "count": 2196,
      "type": "SCALAR"
    }
  ],
  "bufferViews": [
    {
      "buffer": 0,
      "byteLength": 156448,
      "byteStride": 32,
      "target": 34962
    },
    {
      "buffer": 0,
      "byteLength": 23646,
      "byteOffset": 156448,
      "target": 34963
    }
  ],
  "buffers": [
    {
      "byteLength": 180096,
      "uri": "20525362525051734267_LOD00.bin"
    }
  ],
  "images": [
    {
      "uri": "20525362525051734267_LOD00_0.png"
    },
    {
      "uri": "20525362525051734267_LOD00_1.png"
    }
  ],
  "materials": [
    {
      "doubleSided": true,
      "pbrMetallicRoughness": {
        "baseColorTexture": {
          "index": 0
        },
        "metallicFactor": 0
      }
    },
    {
      "doubleSided": true,
      "pbrMetallicRoughness": {
        "baseColorTexture": {
          "index": 1
        },
        "metallicFactor": 0
      }
    }
  ],
  "meshes": [
    {
      "name": "20525362525051734267_0",
      "primitives": [
        {
          "attributes": {
            "POSITION": 0,
            "NORMAL": 1,
            "TEXCOORD_0": 2
          },
          "indices": 3,
          "material": 0
        }
      ]
    },
    {
      "name": "20525362525051734267_1",
      "primitives": [
        {
          "attributes": {
            "POSITION": 4,
            "NORMAL": 5,
            "TEXCOORD_0": 6
          },
          "indices": 7,
          "material": 1
        }
      ]
    }
  ],
  "nodes": [
    {
      "mesh": 0
    },
    {
      "mesh": 1
    }
  ],
  "scene": 0,
  "scenes": [
    {
      "nodes": [
        0,
        1
      ]
    }
  ],
  "textures": [
    {
      "source": 0
    },
    {
      "source": 1
    }
  ]
}