{
  "asset": {
    "copyright": "",
    "generator": "SharpGLTF 1.0.0",
    "version": "2.0"
  },
  "accessors": [
    {
      "name": "POSITION",
      "bufferView": 0,
      "componentType": 5126,
      "count": 6658,
      "max": [
        -67.750213623046875,
        72.570510864257813,
        535.95074462890625
      ],
      "min": [
        -100.01995086669922,
        37.349597930908203,
        497.25738525390625
      ],
      "type": "VEC3"
    },
    {
      "name": "NORMAL",
      "bufferView": 0,
      "byteOffset": 12,
      "componentType": 5126,
      "count": 6658,
      "max": [
        0.99999231100082397,
        0.9999847412109375,
        0.99999195337295532
      ],
      "min": [
        -0.99999219179153442,
        -1,
        -0.99931198358535767
      ],
      "type": "VEC3"
    },
    {
      "name": "TEXCOORD_0",
      "bufferView": 0,
      "byteOffset": 24,
      "componentType": 5126,
      "count": 6658,
      "max": [
        0.9990234375,
        0.9990234375
      ],
      "min": [
        0.0009765625,
        0.0009765625
      ],
      "type": "VEC2"
    },
    {
      "bufferView": 1,
      "componentType": 5123,
      "count": 16326,
      "type": "SCALAR"
    },
    {
      "name": "POSITION",
      "bufferView": 0,
      "byteOffset": 213056,
      "componentType": 5126,
      "count": 1872,
      "max": [
        -67.750328063964844,
        71.334556579589844,
        535.48968505859375
      ],
      "min": [
        -99.865249633789063,
        37.81268310546875,
        497.25787353515625
      ],
      "type": "VEC3"
    },
    {
      "name": "NORMAL",
      "bufferView": 0,
      "byteOffset": 213068,
      "componentType": 5126,
      "count": 1872,
      "max": [
        0.99999231100082397,
        0.9999847412109375,
        0.99999195337295532
      ],
      "min": [
        -0.99999219179153442,
        -0.99819499254226685,
        -0.99915069341659546
      ],
      "type": "VEC3"
    },
    {
      "name": "TEXCOORD_0",
      "bufferView": 0,
      "byteOffset": 213080,
      "componentType": 5126,
      "count": 1872,
      "max": [
        0.998046875,
        0.998046875
      ],
      "min": [
        0.001953125,
        0.298828125
      ],
      "type": "VEC2"
    },
    {
      "bufferView": 1,
      "byteOffset": 32652,
      "componentType": 5123,
      "count": 4566,
      "type": "SCALAR"
    }
  ],
  "bufferViews": [
    {
      "buffer": 0,
      "byteLength": 272960,
      "byteStride": 32,
      "target": 34962
    },
    {
      "buffer": 0,
      "byteLength": 41784,
      "byteOffset": 272960,
      "target": 34963
    }
  ],
  "buffers": [
    {
      "byteLength": 314744,
      "uri": "20525362525051736264_LOD00.bin"
    }
  ],
  "images": [
    {
      "uri": "20525362525051736264_LOD00_0.png"
    },
    {
      "uri": "20525362525051736264_LOD00_1.png"
    }
  ],
  "materials": [
    {
      "doubleSided": true,
      "pbrMetallicRoughness": {
        "baseColorTexture": {
          "index": 0
        },
        "metallicFactor": 0
      }
    },
    {
      "doubleSided": true,
      "pbrMetallicRoughness": {
        "baseColorTexture": {
          "index": 1
        },
        "metallicFactor": 0
      }
    }
  ],
  "meshes": [
    {
      "name": "20525362525051736264_0",
      "primitives": [
        {
          "attributes": {
            "POSITION": 0,
            "NORMAL": 1,
            "TEXCOORD_0": 2
          },
          "indices": 3,
          "material": 0
        }
      ]
    },
    {
      "name": "20525362525051736264_1",
      "primitives": [
        {
          "attributes": {
            "POSITION": 4,
            "NORMAL": 5,
            "TEXCOORD_0": 6
          },
          "indices": 7,
          "material": 1
        }
      ]
    }
  ],
  "nodes": [
    {
      "mesh": 0
    },
    {
      "mesh": 1
    }
  ],
  "scene": 0,
  "scenes": [
    {
      "nodes": [
        0,
        1
      ]
    }
  ],
  "textures": [
    {
      "source": 0
    },
    {
      "source": 1
    }
  ]
}