{
  "asset": {
    "copyright": "",
    "generator": "SharpGLTF 1.0.0",
    "version": "2.0"
  },
  "accessors": [
    {
      "name": "POSITION",
      "bufferView": 0,
      "componentType": 5126,
      "count": 5101,
      "max": [
        -581.36260986328125,
        59.741142272949219,
        76.925827026367188
      ],
      "min": [
        -613.9415283203125,
        37.804912567138672,
        38.230873107910156
      ],
      "type": "VEC3"
    },
    {
      "name": "NORMAL",
      "bufferView": 0,
      "byteOffset": 12,
      "componentType": 5126,
      "count": 5101,
      "max": [
        0.99999254941940308,
        0.99998480081558228,
        0.99999219179153442
      ],
      "min": [
        -0.99999189376831055,
        -0.99917256832122803,
        -0.9999922513961792
      ],
      "type": "VEC3"
    },
    {
      "name": "TEXCOORD_0",
      "bufferView": 0,
      "byteOffset": 24,
      "componentType": 5126,
      "count": 5101,
      "max": [
        0.998046875,
        0.9990234375
      ],
      "min": [
        0.001953125,
        0.0009765625
      ],
      "type": "VEC2"
    },
    {
      "bufferView": 1,
      "componentType": 5123,
      "count": 12876,
      "type": "SCALAR"
    },
    {
      "name": "POSITION",
      "bufferView": 0,
      "byteOffset": 163232,
      "componentType": 5126,
      "count": 2657,
      "max": [
        -581.362548828125,
        57.887451171875,
        76.925537109375
      ],
      "min": [
        -613.4820556640625,
        37.805130004882813,
        38.230827331542969
      ],
      "type": "VEC3"
    },
    {
      "name": "NORMAL",
      "bufferView": 0,
      "byteOffset": 163244,
      "componentType": 5126,
      "count": 2657,
      "max": [
        0.99931395053863525,
        0.99998480081558228,
        0.99999219179153442
      ],
      "min": [
        -0.99999189376831055,
        -0.99917256832122803,
        -0.9999922513961792
      ],
      "type": "VEC3"
    },
    {
      "name": "TEXCOORD_0",
      "bufferView": 0,
      "byteOffset": 163256,
      "componentType": 5126,
      "count": 2657,
      "max": [
        0.998046875,
        0.998046875
      ],
      "min": [
        0.001953125,
        0.091796875
      ],
      "type": "VEC2"
    },
    {
      "bufferView": 1,
      "byteOffset": 25752,
      "componentType": 5123,
      "count": 6828,
      "type": "SCALAR"
    }
  ],
  "bufferViews": [
    {
      "buffer": 0,
      "byteLength": 248256,
      "byteStride": 32,
      "target": 34962
    },
    {
      "buffer": 0,
      "byteLength": 39408,
      "byteOffset": 248256,
      "target": 34963
    }
  ],
  "buffers": [
    {
      "byteLength": 287664,
      "uri": "20525362525140624064_LOD00.bin"
    }
  ],
  "images": [
    {
      "uri": "20525362525140624064_LOD00_0.png"
    },
    {
      "uri": "20525362525140624064_LOD00_1.png"
    }
  ],
  "materials": [
    {
      "doubleSided": true,
      "pbrMetallicRoughness": {
        "baseColorTexture": {
          "index": 0
        },
        "metallicFactor": 0
      }
    },
    {
      "doubleSided": true,
      "pbrMetallicRoughness": {
        "baseColorTexture": {
          "index": 1
        },
        "metallicFactor": 0
      }
    }
  ],
  "meshes": [
    {
      "name": "20525362525140624064_0",
      "primitives": [
        {
          "attributes": {
            "POSITION": 0,
            "NORMAL": 1,
            "TEXCOORD_0": 2
          },
          "indices": 3,
          "material": 0
        }
      ]
    },
    {
      "name": "20525362525140624064_1",
      "primitives": [
        {
          "attributes": {
            "POSITION": 4,
            "NORMAL": 5,
            "TEXCOORD_0": 6
          },
          "indices": 7,
          "material": 1
        }
      ]
    }
  ],
  "nodes": [
    {
      "mesh": 0
    },
    {
      "mesh": 1
    }
  ],
  "scene": 0,
  "scenes": [
    {
      "nodes": [
        0,
        1
      ]
    }
  ],
  "textures": [
    {
      "source": 0
    },
    {
      "source": 1
    }
  ]
}