{
  "asset": {
    "copyright": "",
    "generator": "SharpGLTF 1.0.0",
    "version": "2.0"
  },
  "accessors": [
    {
      "name": "POSITION",
      "bufferView": 0,
      "componentType": 5126,
      "count": 4272,
      "max": [
        -677.64654541015625,
        61.576400756835938,
        344.89761352539063
      ],
      "min": [
        -709.76593017578125,
        43.657424926757813,
        306.20504760742188
      ],
      "type": "VEC3"
    },
    {
      "name": "NORMAL",
      "bufferView": 0,
      "byteOffset": 12,
      "componentType": 5126,
      "count": 4272,
      "max": [
        0.99999266862869263,
        0.99998509883880615,
        0.99999207258224487
      ],
      "min": [
        -0.99999189376831055,
        -0.99916952848434448,
        -0.9993133544921875
      ],
      "type": "VEC3"
    },
    {
      "name": "TEXCOORD_0",
      "bufferView": 0,
      "byteOffset": 24,
      "componentType": 5126,
      "count": 4272,
      "max": [
        0.998046875,
        0.9990234375
      ],
      "min": [
        0.001953125,
        0.0009765625
      ],
      "type": "VEC2"
    },
    {
      "bufferView": 1,
      "componentType": 5123,
      "count": 10194,
      "type": "SCALAR"
    },
    {
      "name": "POSITION",
      "bufferView": 0,
      "byteOffset": 136704,
      "componentType": 5126,
      "count": 859,
      "max": [
        -677.6466064453125,
        61.576400756835938,
        344.43789672851563
      ],
      "min": [
        -709.76593017578125,
        43.657424926757813,
        306.20538330078125
      ],
      "type": "VEC3"
    },
    {
      "name": "NORMAL",
      "bufferView": 0,
      "byteOffset": 136716,
      "componentType": 5126,
      "count": 859,
      "max": [
        0.99999266862869263,
        0.99998509883880615,
        0.99999207258224487
      ],
      "min": [
        -0.9993206262588501,
        -0.86763948202133179,
        -0.99999237060546875
      ],
      "type": "VEC3"
    },
    {
      "name": "TEXCOORD_0",
      "bufferView": 0,
      "byteOffset": 136728,
      "componentType": 5126,
      "count": 859,
      "max": [
        0.998046875,
        0.998046875
      ],
      "min": [
        0.001953125,
        0.716796875
      ],
      "type": "VEC2"
    },
    {
      "bufferView": 1,
      "byteOffset": 20388,
      "componentType": 5123,
      "count": 2019,
      "type": "SCALAR"
    }
  ],
  "bufferViews": [
    {
      "buffer": 0,
      "byteLength": 164192,
      "byteStride": 32,
      "target": 34962
    },
    {
      "buffer": 0,
      "byteLength": 24426,
      "byteOffset": 164192,
      "target": 34963
    }
  ],
  "buffers": [
    {
      "byteLength": 188620,
      "uri": "20525362525140626057_LOD00.bin"
    }
  ],
  "images": [
    {
      "uri": "20525362525140626057_LOD00_0.png"
    },
    {
      "uri": "20525362525140626057_LOD00_1.png"
    }
  ],
  "materials": [
    {
      "doubleSided": true,
      "pbrMetallicRoughness": {
        "baseColorTexture": {
          "index": 0
        },
        "metallicFactor": 0
      }
    },
    {
      "doubleSided": true,
      "pbrMetallicRoughness": {
        "baseColorTexture": {
          "index": 1
        },
        "metallicFactor": 0
      }
    }
  ],
  "meshes": [
    {
      "name": "20525362525140626057_0",
      "primitives": [
        {
          "attributes": {
            "POSITION": 0,
            "NORMAL": 1,
            "TEXCOORD_0": 2
          },
          "indices": 3,
          "material": 0
        }
      ]
    },
    {
      "name": "20525362525140626057_1",
      "primitives": [
        {
          "attributes": {
            "POSITION": 4,
            "NORMAL": 5,
            "TEXCOORD_0": 6
          },
          "indices": 7,
          "material": 1
        }
      ]
    }
  ],
  "nodes": [
    {
      "mesh": 0
    },
    {
      "mesh": 1
    }
  ],
  "scene": 0,
  "scenes": [
    {
      "nodes": [
        0,
        1
      ]
    }
  ],
  "textures": [
    {
      "source": 0
    },
    {
      "source": 1
    }
  ]
}