{
  "asset": {
    "copyright": "",
    "generator": "SharpGLTF 1.0.0",
    "version": "2.0"
  },
  "accessors": [
    {
      "name": "POSITION",
      "bufferView": 0,
      "componentType": 5126,
      "count": 1587,
      "max": [
        -709.74053955078125,
        74.237991333007813,
        420.87026977539063
      ],
      "min": [
        -741.85906982421875,
        37.779712677001953,
        382.63677978515625
      ],
      "type": "VEC3"
    },
    {
      "name": "NORMAL",
      "bufferView": 0,
      "byteOffset": 12,
      "componentType": 5126,
      "count": 1587,
      "max": [
        0.99999266862869263,
        0.99998515844345093,
        0.9999920129776001
      ],
      "min": [
        -0.99999183416366577,
        -1,
        -0.9999924898147583
      ],
      "type": "VEC3"
    },
    {
      "name": "TEXCOORD_0",
      "bufferView": 0,
      "byteOffset": 24,
      "componentType": 5126,
      "count": 1587,
      "max": [
        0.998046875,
        0.9990234375
      ],
      "min": [
        0.001953125,
        0.0009765625
      ],
      "type": "VEC2"
    },
    {
      "bufferView": 1,
      "componentType": 5123,
      "count": 3861,
      "type": "SCALAR"
    },
    {
      "name": "POSITION",
      "bufferView": 0,
      "byteOffset": 50784,
      "componentType": 5126,
      "count": 904,
      "max": [
        -709.74102783203125,
        69.293075561523438,
        420.86996459960938
      ],
      "min": [
        -739.69744873046875,
        41.177268981933594,
        382.6378173828125
      ],
      "type": "VEC3"
    },
    {
      "name": "NORMAL",
      "bufferView": 0,
      "byteOffset": 50796,
      "componentType": 5126,
      "count": 904,
      "max": [
        0.99441051483154297,
        0.99998515844345093,
        0.99915283918380737
      ],
      "min": [
        -0.99999183416366577,
        -1,
        -0.99041855335235596
      ],
      "type": "VEC3"
    },
    {
      "name": "TEXCOORD_0",
      "bufferView": 0,
      "byteOffset": 50808,
      "componentType": 5126,
      "count": 904,
      "max": [
        0.998046875,
        0.998046875
      ],
      "min": [
        0.001953125,
        0.494140625
      ],
      "type": "VEC2"
    },
    {
      "bufferView": 1,
      "byteOffset": 7722,
      "componentType": 5123,
      "count": 2289,
      "type": "SCALAR"
    }
  ],
  "bufferViews": [
    {
      "buffer": 0,
      "byteLength": 79712,
      "byteStride": 32,
      "target": 34962
    },
    {
      "buffer": 0,
      "byteLength": 12300,
      "byteOffset": 79712,
      "target": 34963
    }
  ],
  "buffers": [
    {
      "byteLength": 92012,
      "uri": "20525362525140626166_LOD00.bin"
    }
  ],
  "images": [
    {
      "uri": "20525362525140626166_LOD00_0.png"
    },
    {
      "uri": "20525362525140626166_LOD00_1.png"
    }
  ],
  "materials": [
    {
      "doubleSided": true,
      "pbrMetallicRoughness": {
        "baseColorTexture": {
          "index": 0
        },
        "metallicFactor": 0
      }
    },
    {
      "doubleSided": true,
      "pbrMetallicRoughness": {
        "baseColorTexture": {
          "index": 1
        },
        "metallicFactor": 0
      }
    }
  ],
  "meshes": [
    {
      "name": "20525362525140626166_0",
      "primitives": [
        {
          "attributes": {
            "POSITION": 0,
            "NORMAL": 1,
            "TEXCOORD_0": 2
          },
          "indices": 3,
          "material": 0
        }
      ]
    },
    {
      "name": "20525362525140626166_1",
      "primitives": [
        {
          "attributes": {
            "POSITION": 4,
            "NORMAL": 5,
            "TEXCOORD_0": 6
          },
          "indices": 7,
          "material": 1
        }
      ]
    }
  ],
  "nodes": [
    {
      "mesh": 0
    },
    {
      "mesh": 1
    }
  ],
  "scene": 0,
  "scenes": [
    {
      "nodes": [
        0,
        1
      ]
    }
  ],
  "textures": [
    {
      "source": 0
    },
    {
      "source": 1
    }
  ]
}