{
  "asset": {
    "copyright": "",
    "generator": "SharpGLTF 1.0.0",
    "version": "2.0"
  },
  "accessors": [
    {
      "name": "POSITION",
      "bufferView": 0,
      "componentType": 5126,
      "count": 1693,
      "max": [
        -99.852088928222656,
        38.308689117431641,
        153.80058288574219
      ],
      "min": [
        -132.43156433105469,
        9.5754060745239258,
        115.10765075683594
      ],
      "type": "VEC3"
    },
    {
      "name": "NORMAL",
      "bufferView": 0,
      "byteOffset": 12,
      "componentType": 5126,
      "count": 1693,
      "max": [
        0.99931639432907104,
        0.99998462200164795,
        0.98245757818222046
      ],
      "min": [
        -0.99999219179153442,
        -1,
        -0.9999922513961792
      ],
      "type": "VEC3"
    },
    {
      "name": "TEXCOORD_0",
      "bufferView": 0,
      "byteOffset": 24,
      "componentType": 5126,
      "count": 1693,
      "max": [
        0.998046875,
        0.9990234375
      ],
      "min": [
        0.001953125,
        0.0009765625
      ],
      "type": "VEC2"
    },
    {
      "bufferView": 1,
      "componentType": 5123,
      "count": 4326,
      "type": "SCALAR"
    },
    {
      "name": "POSITION",
      "bufferView": 0,
      "byteOffset": 54176,
      "componentType": 5126,
      "count": 759,
      "max": [
        -99.85235595703125,
        38.15435791015625,
        153.80081176757813
      ],
      "min": [
        -131.96861267089844,
        9.5761823654174805,
        115.10771942138672
      ],
      "type": "VEC3"
    },
    {
      "name": "NORMAL",
      "bufferView": 0,
      "byteOffset": 54188,
      "componentType": 5126,
      "count": 759,
      "max": [
        0.99177670478820801,
        0.99998462200164795,
        0.94951432943344116
      ],
      "min": [
        -0.99999219179153442,
        -0.98118144273757935,
        -0.9999922513961792
      ],
      "type": "VEC3"
    },
    {
      "name": "TEXCOORD_0",
      "bufferView": 0,
      "byteOffset": 54200,
      "componentType": 5126,
      "count": 759,
      "max": [
        0.998046875,
        0.998046875
      ],
      "min": [
        0.001953125,
        0.470703125
      ],
      "type": "VEC2"
    },
    {
      "bufferView": 1,
      "byteOffset": 8652,
      "componentType": 5123,
      "count": 2082,
      "type": "SCALAR"
    }
  ],
  "bufferViews": [
    {
      "buffer": 0,
      "byteLength": 78464,
      "byteStride": 32,
      "target": 34962
    },
    {
      "buffer": 0,
      "byteLength": 12816,
      "byteOffset": 78464,
      "target": 34963
    }
  ],
  "buffers": [
    {
      "byteLength": 91280,
      "uri": "20525362525051734241_LOD00.bin"
    }
  ],
  "images": [
    {
      "uri": "20525362525051734241_LOD00_0.png"
    },
    {
      "uri": "20525362525051734241_LOD00_1.png"
    }
  ],
  "materials": [
    {
      "doubleSided": true,
      "pbrMetallicRoughness": {
        "baseColorTexture": {
          "index": 0
        },
        "metallicFactor": 0
      }
    },
    {
      "doubleSided": true,
      "pbrMetallicRoughness": {
        "baseColorTexture": {
          "index": 1
        },
        "metallicFactor": 0
      }
    }
  ],
  "meshes": [
    {
      "name": "20525362525051734241_0",
      "primitives": [
        {
          "attributes": {
            "POSITION": 0,
            "NORMAL": 1,
            "TEXCOORD_0": 2
          },
          "indices": 3,
          "material": 0
        }
      ]
    },
    {
      "name": "20525362525051734241_1",
      "primitives": [
        {
          "attributes": {
            "POSITION": 4,
            "NORMAL": 5,
            "TEXCOORD_0": 6
          },
          "indices": 7,
          "material": 1
        }
      ]
    }
  ],
  "nodes": [
    {
      "mesh": 0
    },
    {
      "mesh": 1
    }
  ],
  "scene": 0,
  "scenes": [
    {
      "nodes": [
        0,
        1
      ]
    }
  ],
  "textures": [
    {
      "source": 0
    },
    {
      "source": 1
    }
  ]
}