{
  "asset": {
    "copyright": "",
    "generator": "SharpGLTF 1.0.0",
    "version": "2.0"
  },
  "accessors": [
    {
      "name": "POSITION",
      "bufferView": 0,
      "componentType": 5126,
      "count": 2750,
      "max": [
        -806.02740478515625,
        70.968650817871094,
        574.20111083984375
      ],
      "min": [
        -838.60809326171875,
        44.091922760009766,
        535.5045166015625
      ],
      "type": "VEC3"
    },
    {
      "name": "NORMAL",
      "bufferView": 0,
      "byteOffset": 12,
      "componentType": 5126,
      "count": 2750,
      "max": [
        0.9999927282333374,
        0.9999852180480957,
        0.99999189376831055
      ],
      "min": [
        -0.99999171495437622,
        -1,
        -0.99999254941940308
      ],
      "type": "VEC3"
    },
    {
      "name": "TEXCOORD_0",
      "bufferView": 0,
      "byteOffset": 24,
      "componentType": 5126,
      "count": 2750,
      "max": [
        0.998046875,
        0.9990234375
      ],
      "min": [
        0.001953125,
        0.0009765625
      ],
      "type": "VEC2"
    },
    {
      "bufferView": 1,
      "componentType": 5123,
      "count": 6642,
      "type": "SCALAR"
    },
    {
      "name": "POSITION",
      "bufferView": 0,
      "byteOffset": 88000,
      "componentType": 5126,
      "count": 1381,
      "max": [
        -806.029296875,
        70.968650817871094,
        573.73944091796875
      ],
      "min": [
        -838.14691162109375,
        48.572769165039063,
        535.50537109375
      ],
      "type": "VEC3"
    },
    {
      "name": "NORMAL",
      "bufferView": 0,
      "byteOffset": 88012,
      "componentType": 5126,
      "count": 1381,
      "max": [
        0.9999927282333374,
        0.9999852180480957,
        0.99999189376831055
      ],
      "min": [
        -0.99915152788162231,
        -0.99509859085083008,
        -0.99999254941940308
      ],
      "type": "VEC3"
    },
    {
      "name": "TEXCOORD_0",
      "bufferView": 0,
      "byteOffset": 88024,
      "componentType": 5126,
      "count": 1381,
      "max": [
        0.998046875,
        0.998046875
      ],
      "min": [
        0.001953125,
        0.458984375
      ],
      "type": "VEC2"
    },
    {
      "bufferView": 1,
      "byteOffset": 13284,
      "componentType": 5123,
      "count": 3285,
      "type": "SCALAR"
    }
  ],
  "bufferViews": [
    {
      "buffer": 0,
      "byteLength": 132192,
      "byteStride": 32,
      "target": 34962
    },
    {
      "buffer": 0,
      "byteLength": 19854,
      "byteOffset": 132192,
      "target": 34963
    }
  ],
  "buffers": [
    {
      "byteLength": 152048,
      "uri": "20525362525140626377_LOD00.bin"
    }
  ],
  "images": [
    {
      "uri": "20525362525140626377_LOD00_0.png"
    },
    {
      "uri": "20525362525140626377_LOD00_1.png"
    }
  ],
  "materials": [
    {
      "doubleSided": true,
      "pbrMetallicRoughness": {
        "baseColorTexture": {
          "index": 0
        },
        "metallicFactor": 0
      }
    },
    {
      "doubleSided": true,
      "pbrMetallicRoughness": {
        "baseColorTexture": {
          "index": 1
        },
        "metallicFactor": 0
      }
    }
  ],
  "meshes": [
    {
      "name": "20525362525140626377_0",
      "primitives": [
        {
          "attributes": {
            "POSITION": 0,
            "NORMAL": 1,
            "TEXCOORD_0": 2
          },
          "indices": 3,
          "material": 0
        }
      ]
    },
    {
      "name": "20525362525140626377_1",
      "primitives": [
        {
          "attributes": {
            "POSITION": 4,
            "NORMAL": 5,
            "TEXCOORD_0": 6
          },
          "indices": 7,
          "material": 1
        }
      ]
    }
  ],
  "nodes": [
    {
      "mesh": 0
    },
    {
      "mesh": 1
    }
  ],
  "scene": 0,
  "scenes": [
    {
      "nodes": [
        0,
        1
      ]
    }
  ],
  "textures": [
    {
      "source": 0
    },
    {
      "source": 1
    }
  ]
}