{
  "asset": {
    "copyright": "",
    "generator": "SharpGLTF 1.0.0",
    "version": "2.0"
  },
  "accessors": [
    {
      "name": "POSITION",
      "bufferView": 0,
      "componentType": 5126,
      "count": 4258,
      "max": [
        -388.28955078125,
        66.8575439453125,
        229.93083190917969
      ],
      "min": [
        -420.87069702148438,
        37.662982940673828,
        191.23590087890625
      ],
      "type": "VEC3"
    },
    {
      "name": "NORMAL",
      "bufferView": 0,
      "byteOffset": 12,
      "componentType": 5126,
      "count": 4258,
      "max": [
        0.9999924898147583,
        0.9999847412109375,
        0.99931609630584717
      ],
      "min": [
        -0.9999920129776001,
        -0.98320043087005615,
        -0.99999237060546875
      ],
      "type": "VEC3"
    },
    {
      "name": "TEXCOORD_0",
      "bufferView": 0,
      "byteOffset": 24,
      "componentType": 5126,
      "count": 4258,
      "max": [
        0.998046875,
        0.9990234375
      ],
      "min": [
        0.001953125,
        0.0009765625
      ],
      "type": "VEC2"
    },
    {
      "bufferView": 1,
      "componentType": 5123,
      "count": 10383,
      "type": "SCALAR"
    },
    {
      "name": "POSITION",
      "bufferView": 0,
      "byteOffset": 136256,
      "componentType": 5126,
      "count": 864,
      "max": [
        -388.7530517578125,
        66.703071594238281,
        229.77630615234375
      ],
      "min": [
        -420.87054443359375,
        37.816200256347656,
        191.54437255859375
      ],
      "type": "VEC3"
    },
    {
      "name": "NORMAL",
      "bufferView": 0,
      "byteOffset": 136268,
      "componentType": 5126,
      "count": 864,
      "max": [
        0.9999924898147583,
        0.9999847412109375,
        0.99438291788101196
      ],
      "min": [
        -0.99674057960510254,
        -0.99640655517578125,
        -0.99999237060546875
      ],
      "type": "VEC3"
    },
    {
      "name": "TEXCOORD_0",
      "bufferView": 0,
      "byteOffset": 136280,
      "componentType": 5126,
      "count": 864,
      "max": [
        0.998046875,
        0.998046875
      ],
      "min": [
        0.001953125,
        0.705078125
      ],
      "type": "VEC2"
    },
    {
      "bufferView": 1,
      "byteOffset": 20766,
      "componentType": 5123,
      "count": 2025,
      "type": "SCALAR"
    }
  ],
  "bufferViews": [
    {
      "buffer": 0,
      "byteLength": 163904,
      "byteStride": 32,
      "target": 34962
    },
    {
      "buffer": 0,
      "byteLength": 24816,
      "byteOffset": 163904,
      "target": 34963
    }
  ],
  "buffers": [
    {
      "byteLength": 188720,
      "uri": "20525362525051735274_LOD00.bin"
    }
  ],
  "images": [
    {
      "uri": "20525362525051735274_LOD00_0.png"
    },
    {
      "uri": "20525362525051735274_LOD00_1.png"
    }
  ],
  "materials": [
    {
      "doubleSided": true,
      "pbrMetallicRoughness": {
        "baseColorTexture": {
          "index": 0
        },
        "metallicFactor": 0
      }
    },
    {
      "doubleSided": true,
      "pbrMetallicRoughness": {
        "baseColorTexture": {
          "index": 1
        },
        "metallicFactor": 0
      }
    }
  ],
  "meshes": [
    {
      "name": "20525362525051735274_0",
      "primitives": [
        {
          "attributes": {
            "POSITION": 0,
            "NORMAL": 1,
            "TEXCOORD_0": 2
          },
          "indices": 3,
          "material": 0
        }
      ]
    },
    {
      "name": "20525362525051735274_1",
      "primitives": [
        {
          "attributes": {
            "POSITION": 4,
            "NORMAL": 5,
            "TEXCOORD_0": 6
          },
          "indices": 7,
          "material": 1
        }
      ]
    }
  ],
  "nodes": [
    {
      "mesh": 0
    },
    {
      "mesh": 1
    }
  ],
  "scene": 0,
  "scenes": [
    {
      "nodes": [
        0,
        1
      ]
    }
  ],
  "textures": [
    {
      "source": 0
    },
    {
      "source": 1
    }
  ]
}