{
  "asset": {
    "copyright": "",
    "generator": "SharpGLTF 1.0.0",
    "version": "2.0"
  },
  "accessors": [
    {
      "name": "POSITION",
      "bufferView": 0,
      "componentType": 5126,
      "count": 198,
      "max": [
        -773.96630859375,
        37.802070617675781,
        38.724117279052734
      ],
      "min": [
        -806.08709716796875,
        20.805765151977539,
        0.49120208621025085
      ],
      "type": "VEC3"
    },
    {
      "name": "NORMAL",
      "bufferView": 0,
      "byteOffset": 12,
      "componentType": 5126,
      "count": 198,
      "max": [
        0.99999266862869263,
        0.041822861880064011,
        0.99999213218688965
      ],
      "min": [
        -0.999991774559021,
        -1,
        -0.99999213218688965
      ],
      "type": "VEC3"
    },
    {
      "name": "TEXCOORD_0",
      "bufferView": 0,
      "byteOffset": 24,
      "componentType": 5126,
      "count": 198,
      "max": [
        0.978515625,
        0.9990234375
      ],
      "min": [
        0.001953125,
        0.1845703125
      ],
      "type": "VEC2"
    },
    {
      "bufferView": 1,
      "componentType": 5123,
      "count": 513,
      "type": "SCALAR"
    }
  ],
  "bufferViews": [
    {
      "buffer": 0,
      "byteLength": 6336,
      "byteStride": 32,
      "target": 34962
    },
    {
      "buffer": 0,
      "byteLength": 1026,
      "byteOffset": 6336,
      "target": 34963
    }
  ],
  "buffers": [
    {
      "byteLength": 7364,
      "uri": "20525362525140624152_LOD00.bin"
    }
  ],
  "images": [
    {
      "uri": "20525362525140624152_LOD00.png"
    }
  ],
  "materials": [
    {
      "doubleSided": true,
      "pbrMetallicRoughness": {
        "baseColorTexture": {
          "index": 0
        },
        "metallicFactor": 0
      }
    }
  ],
  "meshes": [
    {
      "name": "20525362525140624152_0",
      "primitives": [
        {
          "attributes": {
            "POSITION": 0,
            "NORMAL": 1,
            "TEXCOORD_0": 2
          },
          "indices": 3,
          "material": 0
        }
      ]
    }
  ],
  "nodes": [
    {
      "mesh": 0
    }
  ],
  "scene": 0,
  "scenes": [
    {
      "nodes": [
        0
      ]
    }
  ],
  "textures": [
    {
      "source": 0
    }
  ]
}