{
  "asset": {
    "copyright": "",
    "generator": "SharpGLTF 1.0.0",
    "version": "2.0"
  },
  "accessors": [
    {
      "name": "POSITION",
      "bufferView": 0,
      "componentType": 5126,
      "count": 5407,
      "max": [
        -99.853271484375,
        88.946327209472656,
        107.26210784912109
      ],
      "min": [
        -131.97010803222656,
        74.270797729492188,
        76.893058776855469
      ],
      "type": "VEC3"
    },
    {
      "name": "NORMAL",
      "bufferView": 0,
      "byteOffset": 12,
      "componentType": 5126,
      "count": 5407,
      "max": [
        0.9999922513961792,
        0.99998462200164795,
        0.99999213218688965
      ],
      "min": [
        -0.9993177056312561,
        -0.99641185998916626,
        -0.9999922513961792
      ],
      "type": "VEC3"
    },
    {
      "name": "TEXCOORD_0",
      "bufferView": 0,
      "byteOffset": 24,
      "componentType": 5126,
      "count": 5407,
      "max": [
        0.998046875,
        0.9990234375
      ],
      "min": [
        0.001953125,
        0.0009765625
      ],
      "type": "VEC2"
    },
    {
      "bufferView": 1,
      "componentType": 5123,
      "count": 11961,
      "type": "SCALAR"
    },
    {
      "name": "POSITION",
      "bufferView": 0,
      "byteOffset": 173024,
      "componentType": 5126,
      "count": 2044,
      "max": [
        -99.853363037109375,
        88.946327209472656,
        107.10807037353516
      ],
      "min": [
        -131.97012329101563,
        74.270774841308594,
        76.893119812011719
      ],
      "type": "VEC3"
    },
    {
      "name": "NORMAL",
      "bufferView": 0,
      "byteOffset": 173036,
      "componentType": 5126,
      "count": 2044,
      "max": [
        0.99931645393371582,
        0.99998462200164795,
        0.99999213218688965
      ],
      "min": [
        -0.99999219179153442,
        -0.99641185998916626,
        -0.9999922513961792
      ],
      "type": "VEC3"
    },
    {
      "name": "TEXCOORD_0",
      "bufferView": 0,
      "byteOffset": 173048,
      "componentType": 5126,
      "count": 2044,
      "max": [
        0.998046875,
        0.998046875
      ],
      "min": [
        0.001953125,
        0.392578125
      ],
      "type": "VEC2"
    },
    {
      "bufferView": 1,
      "byteOffset": 23922,
      "componentType": 5123,
      "count": 4614,
      "type": "SCALAR"
    }
  ],
  "bufferViews": [
    {
      "buffer": 0,
      "byteLength": 238432,
      "byteStride": 32,
      "target": 34962
    },
    {
      "buffer": 0,
      "byteLength": 33150,
      "byteOffset": 238432,
      "target": 34963
    }
  ],
  "buffers": [
    {
      "byteLength": 271584,
      "uri": "20525362525051734423_LOD00.bin"
    }
  ],
  "images": [
    {
      "uri": "20525362525051734423_LOD00_0.png"
    },
    {
      "uri": "20525362525051734423_LOD00_1.png"
    }
  ],
  "materials": [
    {
      "doubleSided": true,
      "pbrMetallicRoughness": {
        "baseColorTexture": {
          "index": 0
        },
        "metallicFactor": 0
      }
    },
    {
      "doubleSided": true,
      "pbrMetallicRoughness": {
        "baseColorTexture": {
          "index": 1
        },
        "metallicFactor": 0
      }
    }
  ],
  "meshes": [
    {
      "name": "20525362525051734423_0",
      "primitives": [
        {
          "attributes": {
            "POSITION": 0,
            "NORMAL": 1,
            "TEXCOORD_0": 2
          },
          "indices": 3,
          "material": 0
        }
      ]
    },
    {
      "name": "20525362525051734423_1",
      "primitives": [
        {
          "attributes": {
            "POSITION": 4,
            "NORMAL": 5,
            "TEXCOORD_0": 6
          },
          "indices": 7,
          "material": 1
        }
      ]
    }
  ],
  "nodes": [
    {
      "mesh": 0
    },
    {
      "mesh": 1
    }
  ],
  "scene": 0,
  "scenes": [
    {
      "nodes": [
        0,
        1
      ]
    }
  ],
  "textures": [
    {
      "source": 0
    },
    {
      "source": 1
    }
  ]
}