{
  "asset": {
    "copyright": "",
    "generator": "SharpGLTF 1.0.0",
    "version": "2.0"
  },
  "accessors": [
    {
      "name": "POSITION",
      "bufferView": 0,
      "componentType": 5126,
      "count": 3141,
      "max": [
        -613.44024658203125,
        74.2469482421875,
        459.07916259765625
      ],
      "min": [
        -645.5576171875,
        37.786109924316406,
        420.84552001953125
      ],
      "type": "VEC3"
    },
    {
      "name": "NORMAL",
      "bufferView": 0,
      "byteOffset": 12,
      "componentType": 5126,
      "count": 3141,
      "max": [
        0.99999266862869263,
        0.99998503923416138,
        0.99999195337295532
      ],
      "min": [
        -0.99999189376831055,
        -1,
        -0.9999924898147583
      ],
      "type": "VEC3"
    },
    {
      "name": "TEXCOORD_0",
      "bufferView": 0,
      "byteOffset": 24,
      "componentType": 5126,
      "count": 3141,
      "max": [
        0.9990234375,
        0.9990234375
      ],
      "min": [
        0.0009765625,
        0.0009765625
      ],
      "type": "VEC2"
    },
    {
      "bufferView": 1,
      "componentType": 5123,
      "count": 6756,
      "type": "SCALAR"
    },
    {
      "name": "POSITION",
      "bufferView": 0,
      "byteOffset": 100512,
      "componentType": 5126,
      "count": 571,
      "max": [
        -613.44207763671875,
        67.601036071777344,
        459.23162841796875
      ],
      "min": [
        -645.55633544921875,
        43.964839935302734,
        421.30999755859375
      ],
      "type": "VEC3"
    },
    {
      "name": "NORMAL",
      "bufferView": 0,
      "byteOffset": 100524,
      "componentType": 5126,
      "count": 571,
      "max": [
        0.99999266862869263,
        0.99998503923416138,
        0.99999195337295532
      ],
      "min": [
        -0.99999189376831055,
        -0.98784232139587402,
        -0.9999924898147583
      ],
      "type": "VEC3"
    },
    {
      "name": "TEXCOORD_0",
      "bufferView": 0,
      "byteOffset": 100536,
      "componentType": 5126,
      "count": 571,
      "max": [
        0.998046875,
        0.998046875
      ],
      "min": [
        0.001953125,
        0.748046875
      ],
      "type": "VEC2"
    },
    {
      "bufferView": 1,
      "byteOffset": 13512,
      "componentType": 5123,
      "count": 1059,
      "type": "SCALAR"
    }
  ],
  "bufferViews": [
    {
      "buffer": 0,
      "byteLength": 118784,
      "byteStride": 32,
      "target": 34962
    },
    {
      "buffer": 0,
      "byteLength": 15630,
      "byteOffset": 118784,
      "target": 34963
    }
  ],
  "buffers": [
    {
      "byteLength": 134416,
      "uri": "20525362525140626245_LOD00.bin"
    }
  ],
  "images": [
    {
      "uri": "20525362525140626245_LOD00_0.png"
    },
    {
      "uri": "20525362525140626245_LOD00_1.png"
    }
  ],
  "materials": [
    {
      "doubleSided": true,
      "pbrMetallicRoughness": {
        "baseColorTexture": {
          "index": 0
        },
        "metallicFactor": 0
      }
    },
    {
      "doubleSided": true,
      "pbrMetallicRoughness": {
        "baseColorTexture": {
          "index": 1
        },
        "metallicFactor": 0
      }
    }
  ],
  "meshes": [
    {
      "name": "20525362525140626245_0",
      "primitives": [
        {
          "attributes": {
            "POSITION": 0,
            "NORMAL": 1,
            "TEXCOORD_0": 2
          },
          "indices": 3,
          "material": 0
        }
      ]
    },
    {
      "name": "20525362525140626245_1",
      "primitives": [
        {
          "attributes": {
            "POSITION": 4,
            "NORMAL": 5,
            "TEXCOORD_0": 6
          },
          "indices": 7,
          "material": 1
        }
      ]
    }
  ],
  "nodes": [
    {
      "mesh": 0
    },
    {
      "mesh": 1
    }
  ],
  "scene": 0,
  "scenes": [
    {
      "nodes": [
        0,
        1
      ]
    }
  ],
  "textures": [
    {
      "source": 0
    },
    {
      "source": 1
    }
  ]
}