{
  "asset": {
    "copyright": "",
    "generator": "SharpGLTF 1.0.0",
    "version": "2.0"
  },
  "accessors": [
    {
      "name": "POSITION",
      "bufferView": 0,
      "componentType": 5126,
      "count": 4235,
      "max": [
        -613.30224609375,
        50.467620849609375,
        191.57281494140625
      ],
      "min": [
        -646.037353515625,
        39.809925079345703,
        153.03387451171875
      ],
      "type": "VEC3"
    },
    {
      "name": "NORMAL",
      "bufferView": 0,
      "byteOffset": 12,
      "componentType": 5126,
      "count": 4235,
      "max": [
        0.99999266862869263,
        0.99998486042022705,
        0.99898016452789307
      ],
      "min": [
        -0.99999189376831055,
        -1,
        -0.99999237060546875
      ],
      "type": "VEC3"
    },
    {
      "name": "TEXCOORD_0",
      "bufferView": 0,
      "byteOffset": 24,
      "componentType": 5126,
      "count": 4235,
      "max": [
        0.998046875,
        0.9990234375
      ],
      "min": [
        0.001953125,
        0.0009765625
      ],
      "type": "VEC2"
    },
    {
      "bufferView": 1,
      "componentType": 5123,
      "count": 10167,
      "type": "SCALAR"
    },
    {
      "name": "POSITION",
      "bufferView": 0,
      "byteOffset": 135520,
      "componentType": 5126,
      "count": 315,
      "max": [
        -613.45654296875,
        50.467620849609375,
        191.2635498046875
      ],
      "min": [
        -645.5740966796875,
        40.116302490234375,
        153.34207153320313
      ],
      "type": "VEC3"
    },
    {
      "name": "NORMAL",
      "bufferView": 0,
      "byteOffset": 135532,
      "componentType": 5126,
      "count": 315,
      "max": [
        0.95975500345230103,
        0.99998486042022705,
        0.99898016452789307
      ],
      "min": [
        -0.96211099624633789,
        -0.99641484022140503,
        -0.99914771318435669
      ],
      "type": "VEC3"
    },
    {
      "name": "TEXCOORD_0",
      "bufferView": 0,
      "byteOffset": 135544,
      "componentType": 5126,
      "count": 315,
      "max": [
        0.998046875,
        0.998046875
      ],
      "min": [
        0.001953125,
        0.908203125
      ],
      "type": "VEC2"
    },
    {
      "bufferView": 1,
      "byteOffset": 20334,
      "componentType": 5123,
      "count": 696,
      "type": "SCALAR"
    }
  ],
  "bufferViews": [
    {
      "buffer": 0,
      "byteLength": 145600,
      "byteStride": 32,
      "target": 34962
    },
    {
      "buffer": 0,
      "byteLength": 21726,
      "byteOffset": 145600,
      "target": 34963
    }
  ],
  "buffers": [
    {
      "byteLength": 167328,
      "uri": "20525362525140624247_LOD00.bin"
    }
  ],
  "images": [
    {
      "uri": "20525362525140624247_LOD00_0.png"
    },
    {
      "uri": "20525362525140624247_LOD00_1.png"
    }
  ],
  "materials": [
    {
      "doubleSided": true,
      "pbrMetallicRoughness": {
        "baseColorTexture": {
          "index": 0
        },
        "metallicFactor": 0
      }
    },
    {
      "doubleSided": true,
      "pbrMetallicRoughness": {
        "baseColorTexture": {
          "index": 1
        },
        "metallicFactor": 0
      }
    }
  ],
  "meshes": [
    {
      "name": "20525362525140624247_0",
      "primitives": [
        {
          "attributes": {
            "POSITION": 0,
            "NORMAL": 1,
            "TEXCOORD_0": 2
          },
          "indices": 3,
          "material": 0
        }
      ]
    },
    {
      "name": "20525362525140624247_1",
      "primitives": [
        {
          "attributes": {
            "POSITION": 4,
            "NORMAL": 5,
            "TEXCOORD_0": 6
          },
          "indices": 7,
          "material": 1
        }
      ]
    }
  ],
  "nodes": [
    {
      "mesh": 0
    },
    {
      "mesh": 1
    }
  ],
  "scene": 0,
  "scenes": [
    {
      "nodes": [
        0,
        1
      ]
    }
  ],
  "textures": [
    {
      "source": 0
    },
    {
      "source": 1
    }
  ]
}