{
  "asset": {
    "copyright": "",
    "generator": "SharpGLTF 1.0.0",
    "version": "2.0"
  },
  "accessors": [
    {
      "name": "POSITION",
      "bufferView": 0,
      "componentType": 5126,
      "count": 3800,
      "max": [
        -388.2867431640625,
        74.423683166503906,
        306.20712280273438
      ],
      "min": [
        -421.02236938476563,
        39.050739288330078,
        267.9742431640625
      ],
      "type": "VEC3"
    },
    {
      "name": "NORMAL",
      "bufferView": 0,
      "byteOffset": 12,
      "componentType": 5126,
      "count": 3800,
      "max": [
        0.99999243021011353,
        0.99998486042022705,
        0.99914836883544922
      ],
      "min": [
        -0.99999195337295532,
        -0.99641638994216919,
        -0.99999237060546875
      ],
      "type": "VEC3"
    },
    {
      "name": "TEXCOORD_0",
      "bufferView": 0,
      "byteOffset": 24,
      "componentType": 5126,
      "count": 3800,
      "max": [
        0.998046875,
        0.9990234375
      ],
      "min": [
        0.001953125,
        0.0009765625
      ],
      "type": "VEC2"
    },
    {
      "bufferView": 1,
      "componentType": 5123,
      "count": 9771,
      "type": "SCALAR"
    },
    {
      "name": "POSITION",
      "bufferView": 0,
      "byteOffset": 121600,
      "componentType": 5126,
      "count": 151,
      "max": [
        -388.75027465820313,
        73.960357666015625,
        306.20602416992188
      ],
      "min": [
        -420.86712646484375,
        39.821361541748047,
        269.67080688476563
      ],
      "type": "VEC3"
    },
    {
      "name": "NORMAL",
      "bufferView": 0,
      "byteOffset": 121612,
      "componentType": 5126,
      "count": 151,
      "max": [
        0.99999243021011353,
        0.99998438358306885,
        0.99175763130187988
      ],
      "min": [
        -0.96721476316452026,
        -0.99512141942977905,
        -0.9993131160736084
      ],
      "type": "VEC3"
    },
    {
      "name": "TEXCOORD_0",
      "bufferView": 0,
      "byteOffset": 121624,
      "componentType": 5126,
      "count": 151,
      "max": [
        0.998046875,
        0.998046875
      ],
      "min": [
        0.001953125,
        0.935546875
      ],
      "type": "VEC2"
    },
    {
      "bufferView": 1,
      "byteOffset": 19542,
      "componentType": 5123,
      "count": 336,
      "type": "SCALAR"
    }
  ],
  "bufferViews": [
    {
      "buffer": 0,
      "byteLength": 126432,
      "byteStride": 32,
      "target": 34962
    },
    {
      "buffer": 0,
      "byteLength": 20214,
      "byteOffset": 126432,
      "target": 34963
    }
  ],
  "buffers": [
    {
      "byteLength": 146648,
      "uri": "20525362525051737054_LOD00.bin"
    }
  ],
  "images": [
    {
      "uri": "20525362525051737054_LOD00_0.png"
    },
    {
      "uri": "20525362525051737054_LOD00_1.png"
    }
  ],
  "materials": [
    {
      "doubleSided": true,
      "pbrMetallicRoughness": {
        "baseColorTexture": {
          "index": 0
        },
        "metallicFactor": 0
      }
    },
    {
      "doubleSided": true,
      "pbrMetallicRoughness": {
        "baseColorTexture": {
          "index": 1
        },
        "metallicFactor": 0
      }
    }
  ],
  "meshes": [
    {
      "name": "20525362525051737054_0",
      "primitives": [
        {
          "attributes": {
            "POSITION": 0,
            "NORMAL": 1,
            "TEXCOORD_0": 2
          },
          "indices": 3,
          "material": 0
        }
      ]
    },
    {
      "name": "20525362525051737054_1",
      "primitives": [
        {
          "attributes": {
            "POSITION": 4,
            "NORMAL": 5,
            "TEXCOORD_0": 6
          },
          "indices": 7,
          "material": 1
        }
      ]
    }
  ],
  "nodes": [
    {
      "mesh": 0
    },
    {
      "mesh": 1
    }
  ],
  "scene": 0,
  "scenes": [
    {
      "nodes": [
        0,
        1
      ]
    }
  ],
  "textures": [
    {
      "source": 0
    },
    {
      "source": 1
    }
  ]
}