{
  "asset": {
    "copyright": "",
    "generator": "SharpGLTF 1.0.0",
    "version": "2.0"
  },
  "accessors": [
    {
      "name": "POSITION",
      "bufferView": 0,
      "componentType": 5126,
      "count": 3160,
      "max": [
        -3.088003396987915,
        74.287765502929688,
        38.692989349365234
      ],
      "min": [
        -35.822029113769531,
        37.367877960205078,
        -0.00011202188761672005
      ],
      "type": "VEC3"
    },
    {
      "name": "NORMAL",
      "bufferView": 0,
      "byteOffset": 12,
      "componentType": 5126,
      "count": 3160,
      "max": [
        0.99999231100082397,
        0.9999845027923584,
        0.99999219179153442
      ],
      "min": [
        -0.99999231100082397,
        -1,
        -0.99999219179153442
      ],
      "type": "VEC3"
    },
    {
      "name": "TEXCOORD_0",
      "bufferView": 0,
      "byteOffset": 24,
      "componentType": 5126,
      "count": 3160,
      "max": [
        0.9990234375,
        0.9990234375
      ],
      "min": [
        0.0009765625,
        0.0009765625
      ],
      "type": "VEC2"
    },
    {
      "bufferView": 1,
      "componentType": 5123,
      "count": 7236,
      "type": "SCALAR"
    },
    {
      "name": "POSITION",
      "bufferView": 0,
      "byteOffset": 101120,
      "componentType": 5126,
      "count": 1679,
      "max": [
        -3.5512206554412842,
        74.287765502929688,
        38.692989349365234
      ],
      "min": [
        -35.667621612548828,
        37.367877960205078,
        0.46235531568527222
      ],
      "type": "VEC3"
    },
    {
      "name": "NORMAL",
      "bufferView": 0,
      "byteOffset": 101132,
      "componentType": 5126,
      "count": 1679,
      "max": [
        0.99999231100082397,
        0.9999845027923584,
        0.99999219179153442
      ],
      "min": [
        -0.99999231100082397,
        -1,
        -0.99999219179153442
      ],
      "type": "VEC3"
    },
    {
      "name": "TEXCOORD_0",
      "bufferView": 0,
      "byteOffset": 101144,
      "componentType": 5126,
      "count": 1679,
      "max": [
        0.998046875,
        0.998046875
      ],
      "min": [
        0.001953125,
        0.068359375
      ],
      "type": "VEC2"
    },
    {
      "bufferView": 1,
      "byteOffset": 14472,
      "componentType": 5123,
      "count": 4038,
      "type": "SCALAR"
    }
  ],
  "bufferViews": [
    {
      "buffer": 0,
      "byteLength": 154848,
      "byteStride": 32,
      "target": 34962
    },
    {
      "buffer": 0,
      "byteLength": 22548,
      "byteOffset": 154848,
      "target": 34963
    }
  ],
  "buffers": [
    {
      "byteLength": 177396,
      "uri": "20525362525051725156_LOD00.bin"
    }
  ],
  "images": [
    {
      "uri": "20525362525051725156_LOD00_0.png"
    },
    {
      "uri": "20525362525051725156_LOD00_1.png"
    }
  ],
  "materials": [
    {
      "doubleSided": true,
      "pbrMetallicRoughness": {
        "baseColorTexture": {
          "index": 0
        },
        "metallicFactor": 0
      }
    },
    {
      "doubleSided": true,
      "pbrMetallicRoughness": {
        "baseColorTexture": {
          "index": 1
        },
        "metallicFactor": 0
      }
    }
  ],
  "meshes": [
    {
      "name": "20525362525051725156_0",
      "primitives": [
        {
          "attributes": {
            "POSITION": 0,
            "NORMAL": 1,
            "TEXCOORD_0": 2
          },
          "indices": 3,
          "material": 0
        }
      ]
    },
    {
      "name": "20525362525051725156_1",
      "primitives": [
        {
          "attributes": {
            "POSITION": 4,
            "NORMAL": 5,
            "TEXCOORD_0": 6
          },
          "indices": 7,
          "material": 1
        }
      ]
    }
  ],
  "nodes": [
    {
      "mesh": 0
    },
    {
      "mesh": 1
    }
  ],
  "scene": 0,
  "scenes": [
    {
      "nodes": [
        0,
        1
      ]
    }
  ],
  "textures": [
    {
      "source": 0
    },
    {
      "source": 1
    }
  ]
}