{
  "asset": {
    "copyright": "",
    "generator": "SharpGLTF 1.0.0",
    "version": "2.0"
  },
  "accessors": [
    {
      "name": "POSITION",
      "bufferView": 0,
      "componentType": 5126,
      "count": 4246,
      "max": [
        -388.75131225585938,
        67.011726379394531,
        267.99136352539063
      ],
      "min": [
        -420.86959838867188,
        38.434944152832031,
        229.75921630859375
      ],
      "type": "VEC3"
    },
    {
      "name": "NORMAL",
      "bufferView": 0,
      "byteOffset": 12,
      "componentType": 5126,
      "count": 4246,
      "max": [
        0.9999924898147583,
        0.9999847412109375,
        0.99999207258224487
      ],
      "min": [
        -0.9999920129776001,
        -1,
        -0.99931371212005615
      ],
      "type": "VEC3"
    },
    {
      "name": "TEXCOORD_0",
      "bufferView": 0,
      "byteOffset": 24,
      "componentType": 5126,
      "count": 4246,
      "max": [
        0.998046875,
        0.9990234375
      ],
      "min": [
        0.001953125,
        0.0009765625
      ],
      "type": "VEC2"
    },
    {
      "bufferView": 1,
      "componentType": 5123,
      "count": 10707,
      "type": "SCALAR"
    },
    {
      "name": "POSITION",
      "bufferView": 0,
      "byteOffset": 135872,
      "componentType": 5126,
      "count": 745,
      "max": [
        -388.44400024414063,
        66.857284545898438,
        267.99102783203125
      ],
      "min": [
        -420.86923217773438,
        38.897502899169922,
        229.75923156738281
      ],
      "type": "VEC3"
    },
    {
      "name": "NORMAL",
      "bufferView": 0,
      "byteOffset": 135884,
      "componentType": 5126,
      "count": 745,
      "max": [
        0.9999924898147583,
        0.9999847412109375,
        0.99999207258224487
      ],
      "min": [
        -0.99046522378921509,
        -1,
        -0.99426257610321045
      ],
      "type": "VEC3"
    },
    {
      "name": "TEXCOORD_0",
      "bufferView": 0,
      "byteOffset": 135896,
      "componentType": 5126,
      "count": 745,
      "max": [
        0.998046875,
        0.998046875
      ],
      "min": [
        0.001953125,
        0.732421875
      ],
      "type": "VEC2"
    },
    {
      "bufferView": 1,
      "byteOffset": 21414,
      "componentType": 5123,
      "count": 1626,
      "type": "SCALAR"
    }
  ],
  "bufferViews": [
    {
      "buffer": 0,
      "byteLength": 159712,
      "byteStride": 32,
      "target": 34962
    },
    {
      "buffer": 0,
      "byteLength": 24666,
      "byteOffset": 159712,
      "target": 34963
    }
  ],
  "buffers": [
    {
      "byteLength": 184380,
      "uri": "20525362525051735276_LOD00.bin"
    }
  ],
  "images": [
    {
      "uri": "20525362525051735276_LOD00_0.png"
    },
    {
      "uri": "20525362525051735276_LOD00_1.png"
    }
  ],
  "materials": [
    {
      "doubleSided": true,
      "pbrMetallicRoughness": {
        "baseColorTexture": {
          "index": 0
        },
        "metallicFactor": 0
      }
    },
    {
      "doubleSided": true,
      "pbrMetallicRoughness": {
        "baseColorTexture": {
          "index": 1
        },
        "metallicFactor": 0
      }
    }
  ],
  "meshes": [
    {
      "name": "20525362525051735276_0",
      "primitives": [
        {
          "attributes": {
            "POSITION": 0,
            "NORMAL": 1,
            "TEXCOORD_0": 2
          },
          "indices": 3,
          "material": 0
        }
      ]
    },
    {
      "name": "20525362525051735276_1",
      "primitives": [
        {
          "attributes": {
            "POSITION": 4,
            "NORMAL": 5,
            "TEXCOORD_0": 6
          },
          "indices": 7,
          "material": 1
        }
      ]
    }
  ],
  "nodes": [
    {
      "mesh": 0
    },
    {
      "mesh": 1
    }
  ],
  "scene": 0,
  "scenes": [
    {
      "nodes": [
        0,
        1
      ]
    }
  ],
  "textures": [
    {
      "source": 0
    },
    {
      "source": 1
    }
  ]
}