{
  "asset": {
    "copyright": "",
    "generator": "SharpGLTF 1.0.0",
    "version": "2.0"
  },
  "accessors": [
    {
      "name": "POSITION",
      "bufferView": 0,
      "componentType": 5126,
      "count": 113,
      "max": [
        -521.629150390625,
        112.69182586669922,
        375.86233520507813
      ],
      "min": [
        -530.275634765625,
        110.68297576904297,
        371.2371826171875
      ],
      "type": "VEC3"
    },
    {
      "name": "NORMAL",
      "bufferView": 0,
      "byteOffset": 12,
      "componentType": 5126,
      "count": 113,
      "max": [
        0.96022719144821167,
        0.99897074699401855,
        0.99175983667373657
      ],
      "min": [
        -0.9730878472328186,
        -0.43359851837158203,
        -0.9494968056678772
      ],
      "type": "VEC3"
    },
    {
      "name": "TEXCOORD_0",
      "bufferView": 0,
      "byteOffset": 24,
      "componentType": 5126,
      "count": 113,
      "max": [
        0.607421875,
        0.998046875
      ],
      "min": [
        0.001953125,
        0.904296875
      ],
      "type": "VEC2"
    },
    {
      "bufferView": 1,
      "componentType": 5123,
      "count": 261,
      "type": "SCALAR"
    }
  ],
  "bufferViews": [
    {
      "buffer": 0,
      "byteLength": 3616,
      "byteStride": 32,
      "target": 34962
    },
    {
      "buffer": 0,
      "byteLength": 522,
      "byteOffset": 3616,
      "target": 34963
    }
  ],
  "buffers": [
    {
      "byteLength": 4140,
      "uri": "20525362525051737534_LOD00.bin"
    }
  ],
  "images": [
    {
      "uri": "20525362525051737534_LOD00.png"
    }
  ],
  "materials": [
    {
      "doubleSided": true,
      "pbrMetallicRoughness": {
        "baseColorTexture": {
          "index": 0
        },
        "metallicFactor": 0
      }
    }
  ],
  "meshes": [
    {
      "name": "20525362525051737534_0",
      "primitives": [
        {
          "attributes": {
            "POSITION": 0,
            "NORMAL": 1,
            "TEXCOORD_0": 2
          },
          "indices": 3,
          "material": 0
        }
      ]
    }
  ],
  "nodes": [
    {
      "mesh": 0
    }
  ],
  "scene": 0,
  "scenes": [
    {
      "nodes": [
        0
      ]
    }
  ],
  "textures": [
    {
      "source": 0
    }
  ]
}