{
  "asset": {
    "copyright": "",
    "generator": "SharpGLTF 1.0.0",
    "version": "2.0"
  },
  "accessors": [
    {
      "name": "POSITION",
      "bufferView": 0,
      "componentType": 5126,
      "count": 2574,
      "max": [
        -613.4420166015625,
        74.247703552246094,
        420.86398315429688
      ],
      "min": [
        -645.55999755859375,
        37.788581848144531,
        382.63058471679688
      ],
      "type": "VEC3"
    },
    {
      "name": "NORMAL",
      "bufferView": 0,
      "byteOffset": 12,
      "componentType": 5126,
      "count": 2574,
      "max": [
        0.99999260902404785,
        0.99998509883880615,
        0.9999920129776001
      ],
      "min": [
        -0.99999195337295532,
        -1,
        -0.9999924898147583
      ],
      "type": "VEC3"
    },
    {
      "name": "TEXCOORD_0",
      "bufferView": 0,
      "byteOffset": 24,
      "componentType": 5126,
      "count": 2574,
      "max": [
        0.998046875,
        0.9990234375
      ],
      "min": [
        0.001953125,
        0.0009765625
      ],
      "type": "VEC2"
    },
    {
      "bufferView": 1,
      "componentType": 5123,
      "count": 5859,
      "type": "SCALAR"
    },
    {
      "name": "POSITION",
      "bufferView": 0,
      "byteOffset": 82368,
      "componentType": 5126,
      "count": 1292,
      "max": [
        -613.2904052734375,
        65.441520690917969,
        420.86386108398438
      ],
      "min": [
        -645.55914306640625,
        43.663196563720703,
        382.63043212890625
      ],
      "type": "VEC3"
    },
    {
      "name": "NORMAL",
      "bufferView": 0,
      "byteOffset": 82380,
      "componentType": 5126,
      "count": 1292,
      "max": [
        0.99999260902404785,
        0.99998509883880615,
        0.9999920129776001
      ],
      "min": [
        -0.99999195337295532,
        -0.99917387962341309,
        -0.9999924898147583
      ],
      "type": "VEC3"
    },
    {
      "name": "TEXCOORD_0",
      "bufferView": 0,
      "byteOffset": 82392,
      "componentType": 5126,
      "count": 1292,
      "max": [
        0.998046875,
        0.998046875
      ],
      "min": [
        0.001953125,
        0.576171875
      ],
      "type": "VEC2"
    },
    {
      "bufferView": 1,
      "byteOffset": 11718,
      "componentType": 5123,
      "count": 2967,
      "type": "SCALAR"
    }
  ],
  "bufferViews": [
    {
      "buffer": 0,
      "byteLength": 123712,
      "byteStride": 32,
      "target": 34962
    },
    {
      "buffer": 0,
      "byteLength": 17652,
      "byteOffset": 123712,
      "target": 34963
    }
  ],
  "buffers": [
    {
      "byteLength": 141364,
      "uri": "20525362525140626067_LOD00.bin"
    }
  ],
  "images": [
    {
      "uri": "20525362525140626067_LOD00_0.png"
    },
    {
      "uri": "20525362525140626067_LOD00_1.png"
    }
  ],
  "materials": [
    {
      "doubleSided": true,
      "pbrMetallicRoughness": {
        "baseColorTexture": {
          "index": 0
        },
        "metallicFactor": 0
      }
    },
    {
      "doubleSided": true,
      "pbrMetallicRoughness": {
        "baseColorTexture": {
          "index": 1
        },
        "metallicFactor": 0
      }
    }
  ],
  "meshes": [
    {
      "name": "20525362525140626067_0",
      "primitives": [
        {
          "attributes": {
            "POSITION": 0,
            "NORMAL": 1,
            "TEXCOORD_0": 2
          },
          "indices": 3,
          "material": 0
        }
      ]
    },
    {
      "name": "20525362525140626067_1",
      "primitives": [
        {
          "attributes": {
            "POSITION": 4,
            "NORMAL": 5,
            "TEXCOORD_0": 6
          },
          "indices": 7,
          "material": 1
        }
      ]
    }
  ],
  "nodes": [
    {
      "mesh": 0
    },
    {
      "mesh": 1
    }
  ],
  "scene": 0,
  "scenes": [
    {
      "nodes": [
        0,
        1
      ]
    }
  ],
  "textures": [
    {
      "source": 0
    },
    {
      "source": 1
    }
  ]
}