{
  "asset": {
    "copyright": "",
    "generator": "SharpGLTF 1.0.0",
    "version": "2.0"
  },
  "accessors": [
    {
      "name": "POSITION",
      "bufferView": 0,
      "componentType": 5126,
      "count": 3788,
      "max": [
        -324.54705810546875,
        72.567535400390625,
        420.85061645507813
      ],
      "min": [
        -356.66415405273438,
        40.439273834228516,
        382.61767578125
      ],
      "type": "VEC3"
    },
    {
      "name": "NORMAL",
      "bufferView": 0,
      "byteOffset": 12,
      "componentType": 5126,
      "count": 3788,
      "max": [
        0.99999237060546875,
        0.99998486042022705,
        0.9999920129776001
      ],
      "min": [
        -0.99898207187652588,
        -1,
        -0.9999924898147583
      ],
      "type": "VEC3"
    },
    {
      "name": "TEXCOORD_0",
      "bufferView": 0,
      "byteOffset": 24,
      "componentType": 5126,
      "count": 3788,
      "max": [
        0.998046875,
        0.9990234375
      ],
      "min": [
        0.001953125,
        0.0009765625
      ],
      "type": "VEC2"
    },
    {
      "bufferView": 1,
      "componentType": 5123,
      "count": 9330,
      "type": "SCALAR"
    },
    {
      "name": "POSITION",
      "bufferView": 0,
      "byteOffset": 121216,
      "componentType": 5126,
      "count": 1743,
      "max": [
        -324.547119140625,
        72.567535400390625,
        420.8505859375
      ],
      "min": [
        -356.66424560546875,
        40.593833923339844,
        382.61795043945313
      ],
      "type": "VEC3"
    },
    {
      "name": "NORMAL",
      "bufferView": 0,
      "byteOffset": 121228,
      "componentType": 5126,
      "count": 1743,
      "max": [
        0.99999237060546875,
        0.99998486042022705,
        0.9999920129776001
      ],
      "min": [
        -0.99527609348297119,
        -0.99917089939117432,
        -0.9999924898147583
      ],
      "type": "VEC3"
    },
    {
      "name": "TEXCOORD_0",
      "bufferView": 0,
      "byteOffset": 121240,
      "componentType": 5126,
      "count": 1743,
      "max": [
        0.998046875,
        0.998046875
      ],
      "min": [
        0.001953125,
        0.369140625
      ],
      "type": "VEC2"
    },
    {
      "bufferView": 1,
      "byteOffset": 18660,
      "componentType": 5123,
      "count": 4122,
      "type": "SCALAR"
    }
  ],
  "bufferViews": [
    {
      "buffer": 0,
      "byteLength": 176992,
      "byteStride": 32,
      "target": 34962
    },
    {
      "buffer": 0,
      "byteLength": 26904,
      "byteOffset": 176992,
      "target": 34963
    }
  ],
  "buffers": [
    {
      "byteLength": 203896,
      "uri": "20525362525051737066_LOD00.bin"
    }
  ],
  "images": [
    {
      "uri": "20525362525051737066_LOD00_0.png"
    },
    {
      "uri": "20525362525051737066_LOD00_1.png"
    }
  ],
  "materials": [
    {
      "doubleSided": true,
      "pbrMetallicRoughness": {
        "baseColorTexture": {
          "index": 0
        },
        "metallicFactor": 0
      }
    },
    {
      "doubleSided": true,
      "pbrMetallicRoughness": {
        "baseColorTexture": {
          "index": 1
        },
        "metallicFactor": 0
      }
    }
  ],
  "meshes": [
    {
      "name": "20525362525051737066_0",
      "primitives": [
        {
          "attributes": {
            "POSITION": 0,
            "NORMAL": 1,
            "TEXCOORD_0": 2
          },
          "indices": 3,
          "material": 0
        }
      ]
    },
    {
      "name": "20525362525051737066_1",
      "primitives": [
        {
          "attributes": {
            "POSITION": 4,
            "NORMAL": 5,
            "TEXCOORD_0": 6
          },
          "indices": 7,
          "material": 1
        }
      ]
    }
  ],
  "nodes": [
    {
      "mesh": 0
    },
    {
      "mesh": 1
    }
  ],
  "scene": 0,
  "scenes": [
    {
      "nodes": [
        0,
        1
      ]
    }
  ],
  "textures": [
    {
      "source": 0
    },
    {
      "source": 1
    }
  ]
}