{
  "asset": {
    "copyright": "",
    "generator": "SharpGLTF 1.0.0",
    "version": "2.0"
  },
  "accessors": [
    {
      "name": "POSITION",
      "bufferView": 0,
      "componentType": 5126,
      "count": 1434,
      "max": [
        -388.29244995117188,
        37.835403442382813,
        153.34552001953125
      ],
      "min": [
        -411.1453857421875,
        36.289649963378906,
        114.65258026123047
      ],
      "type": "VEC3"
    },
    {
      "name": "NORMAL",
      "bufferView": 0,
      "byteOffset": 12,
      "componentType": 5126,
      "count": 1434,
      "max": [
        0.99915421009063721,
        0.99998462200164795,
        0.9294590950012207
      ],
      "min": [
        -0.99598795175552368,
        -0.99641150236129761,
        -0.99635004997253418
      ],
      "type": "VEC3"
    },
    {
      "name": "TEXCOORD_0",
      "bufferView": 0,
      "byteOffset": 24,
      "componentType": 5126,
      "count": 1434,
      "max": [
        0.998046875,
        0.998046875
      ],
      "min": [
        0.001953125,
        0.423828125
      ],
      "type": "VEC2"
    },
    {
      "bufferView": 1,
      "componentType": 5123,
      "count": 3729,
      "type": "SCALAR"
    }
  ],
  "bufferViews": [
    {
      "buffer": 0,
      "byteLength": 45888,
      "byteStride": 32,
      "target": 34962
    },
    {
      "buffer": 0,
      "byteLength": 7458,
      "byteOffset": 45888,
      "target": 34963
    }
  ],
  "buffers": [
    {
      "byteLength": 53348,
      "uri": "20525362525051735250_LOD00.bin"
    }
  ],
  "images": [
    {
      "uri": "20525362525051735250_LOD00.png"
    }
  ],
  "materials": [
    {
      "doubleSided": true,
      "pbrMetallicRoughness": {
        "baseColorTexture": {
          "index": 0
        },
        "metallicFactor": 0
      }
    }
  ],
  "meshes": [
    {
      "name": "20525362525051735250_0",
      "primitives": [
        {
          "attributes": {
            "POSITION": 0,
            "NORMAL": 1,
            "TEXCOORD_0": 2
          },
          "indices": 3,
          "material": 0
        }
      ]
    }
  ],
  "nodes": [
    {
      "mesh": 0
    }
  ],
  "scene": 0,
  "scenes": [
    {
      "nodes": [
        0
      ]
    }
  ],
  "textures": [
    {
      "source": 0
    }
  ]
}