{
  "asset": {
    "copyright": "",
    "generator": "SharpGLTF 1.0.0",
    "version": "2.0"
  },
  "accessors": [
    {
      "name": "POSITION",
      "bufferView": 0,
      "componentType": 5126,
      "count": 4139,
      "max": [
        -838.1439208984375,
        65.421157836914063,
        382.66506958007813
      ],
      "min": [
        -870.26129150390625,
        47.191917419433594,
        344.43231201171875
      ],
      "type": "VEC3"
    },
    {
      "name": "NORMAL",
      "bufferView": 0,
      "byteOffset": 12,
      "componentType": 5126,
      "count": 4139,
      "max": [
        0.99817776679992676,
        0.99998509883880615,
        0.9999920129776001
      ],
      "min": [
        -0.99999171495437622,
        -0.99916923046112061,
        -0.99999243021011353
      ],
      "type": "VEC3"
    },
    {
      "name": "TEXCOORD_0",
      "bufferView": 0,
      "byteOffset": 24,
      "componentType": 5126,
      "count": 4139,
      "max": [
        0.998046875,
        0.9990234375
      ],
      "min": [
        0.001953125,
        0.0009765625
      ],
      "type": "VEC2"
    },
    {
      "bufferView": 1,
      "componentType": 5123,
      "count": 9915,
      "type": "SCALAR"
    },
    {
      "name": "POSITION",
      "bufferView": 0,
      "byteOffset": 132448,
      "componentType": 5126,
      "count": 213,
      "max": [
        -838.14654541015625,
        62.331535339355469,
        382.66354370117188
      ],
      "min": [
        -869.95245361328125,
        47.653484344482422,
        344.43234252929688
      ],
      "type": "VEC3"
    },
    {
      "name": "NORMAL",
      "bufferView": 0,
      "byteOffset": 132460,
      "componentType": 5126,
      "count": 213,
      "max": [
        0.99056786298751831,
        0.99998509883880615,
        0.99931639432907104
      ],
      "min": [
        -0.99915152788162231,
        -0.94181817770004272,
        -0.98823201656341553
      ],
      "type": "VEC3"
    },
    {
      "name": "TEXCOORD_0",
      "bufferView": 0,
      "byteOffset": 132472,
      "componentType": 5126,
      "count": 213,
      "max": [
        0.994140625,
        0.998046875
      ],
      "min": [
        0.001953125,
        0.927734375
      ],
      "type": "VEC2"
    },
    {
      "bufferView": 1,
      "byteOffset": 19830,
      "componentType": 5123,
      "count": 399,
      "type": "SCALAR"
    }
  ],
  "bufferViews": [
    {
      "buffer": 0,
      "byteLength": 139264,
      "byteStride": 32,
      "target": 34962
    },
    {
      "buffer": 0,
      "byteLength": 20628,
      "byteOffset": 139264,
      "target": 34963
    }
  ],
  "buffers": [
    {
      "byteLength": 159892,
      "uri": "20525362525140627064_LOD00.bin"
    }
  ],
  "images": [
    {
      "uri": "20525362525140627064_LOD00_0.png"
    },
    {
      "uri": "20525362525140627064_LOD00_1.png"
    }
  ],
  "materials": [
    {
      "doubleSided": true,
      "pbrMetallicRoughness": {
        "baseColorTexture": {
          "index": 0
        },
        "metallicFactor": 0
      }
    },
    {
      "doubleSided": true,
      "pbrMetallicRoughness": {
        "baseColorTexture": {
          "index": 1
        },
        "metallicFactor": 0
      }
    }
  ],
  "meshes": [
    {
      "name": "20525362525140627064_0",
      "primitives": [
        {
          "attributes": {
            "POSITION": 0,
            "NORMAL": 1,
            "TEXCOORD_0": 2
          },
          "indices": 3,
          "material": 0
        }
      ]
    },
    {
      "name": "20525362525140627064_1",
      "primitives": [
        {
          "attributes": {
            "POSITION": 4,
            "NORMAL": 5,
            "TEXCOORD_0": 6
          },
          "indices": 7,
          "material": 1
        }
      ]
    }
  ],
  "nodes": [
    {
      "mesh": 0
    },
    {
      "mesh": 1
    }
  ],
  "scene": 0,
  "scenes": [
    {
      "nodes": [
        0,
        1
      ]
    }
  ],
  "textures": [
    {
      "source": 0
    },
    {
      "source": 1
    }
  ]
}