{
  "asset": {
    "copyright": "",
    "generator": "SharpGLTF 1.0.0",
    "version": "2.0"
  },
  "accessors": [
    {
      "name": "POSITION",
      "bufferView": 0,
      "componentType": 5126,
      "count": 1721,
      "max": [
        -164.04985046386719,
        143.13487243652344,
        495.8929443359375
      ],
      "min": [
        -196.16567993164063,
        110.69331359863281,
        461.8232421875
      ],
      "type": "VEC3"
    },
    {
      "name": "NORMAL",
      "bufferView": 0,
      "byteOffset": 12,
      "componentType": 5126,
      "count": 1721,
      "max": [
        0.99999237060546875,
        0.99998456239700317,
        0.99999183416366577
      ],
      "min": [
        -0.99999207258224487,
        -1,
        -0.99999254941940308
      ],
      "type": "VEC3"
    },
    {
      "name": "TEXCOORD_0",
      "bufferView": 0,
      "byteOffset": 24,
      "componentType": 5126,
      "count": 1721,
      "max": [
        0.9990234375,
        0.9990234375
      ],
      "min": [
        0.0009765625,
        0.0009765625
      ],
      "type": "VEC2"
    },
    {
      "bufferView": 1,
      "componentType": 5123,
      "count": 3129,
      "type": "SCALAR"
    },
    {
      "name": "POSITION",
      "bufferView": 0,
      "byteOffset": 55072,
      "componentType": 5126,
      "count": 84,
      "max": [
        -165.90284729003906,
        117.95650482177734,
        493.11810302734375
      ],
      "min": [
        -194.15846252441406,
        114.40096282958984,
        464.59835815429688
      ],
      "type": "VEC3"
    },
    {
      "name": "NORMAL",
      "bufferView": 0,
      "byteOffset": 55084,
      "componentType": 5126,
      "count": 84,
      "max": [
        0.99999237060546875,
        0.94983118772506714,
        0.99999183416366577
      ],
      "min": [
        -0.99999207258224487,
        -0.44801771640777588,
        -0.99999254941940308
      ],
      "type": "VEC3"
    },
    {
      "name": "TEXCOORD_0",
      "bufferView": 0,
      "byteOffset": 55096,
      "componentType": 5126,
      "count": 84,
      "max": [
        0.951171875,
        0.998046875
      ],
      "min": [
        0.001953125,
        0.814453125
      ],
      "type": "VEC2"
    },
    {
      "bufferView": 1,
      "byteOffset": 6258,
      "componentType": 5123,
      "count": 126,
      "type": "SCALAR"
    }
  ],
  "bufferViews": [
    {
      "buffer": 0,
      "byteLength": 57760,
      "byteStride": 32,
      "target": 34962
    },
    {
      "buffer": 0,
      "byteLength": 6510,
      "byteOffset": 57760,
      "target": 34963
    }
  ],
  "buffers": [
    {
      "byteLength": 64272,
      "uri": "20525362525051736617_LOD00.bin"
    }
  ],
  "images": [
    {
      "uri": "20525362525051736617_LOD00_0.png"
    },
    {
      "uri": "20525362525051736617_LOD00_1.png"
    }
  ],
  "materials": [
    {
      "doubleSided": true,
      "pbrMetallicRoughness": {
        "baseColorTexture": {
          "index": 0
        },
        "metallicFactor": 0
      }
    },
    {
      "doubleSided": true,
      "pbrMetallicRoughness": {
        "baseColorTexture": {
          "index": 1
        },
        "metallicFactor": 0
      }
    }
  ],
  "meshes": [
    {
      "name": "20525362525051736617_0",
      "primitives": [
        {
          "attributes": {
            "POSITION": 0,
            "NORMAL": 1,
            "TEXCOORD_0": 2
          },
          "indices": 3,
          "material": 0
        }
      ]
    },
    {
      "name": "20525362525051736617_1",
      "primitives": [
        {
          "attributes": {
            "POSITION": 4,
            "NORMAL": 5,
            "TEXCOORD_0": 6
          },
          "indices": 7,
          "material": 1
        }
      ]
    }
  ],
  "nodes": [
    {
      "mesh": 0
    },
    {
      "mesh": 1
    }
  ],
  "scene": 0,
  "scenes": [
    {
      "nodes": [
        0,
        1
      ]
    }
  ],
  "textures": [
    {
      "source": 0
    },
    {
      "source": 1
    }
  ]
}