{
  "asset": {
    "copyright": "",
    "generator": "SharpGLTF 1.0.0",
    "version": "2.0"
  },
  "accessors": [
    {
      "name": "POSITION",
      "bufferView": 0,
      "componentType": 5126,
      "count": 4352,
      "max": [
        -709.76068115234375,
        60.191936492919922,
        153.36439514160156
      ],
      "min": [
        -741.87811279296875,
        41.034770965576172,
        115.13144683837891
      ],
      "type": "VEC3"
    },
    {
      "name": "NORMAL",
      "bufferView": 0,
      "byteOffset": 12,
      "componentType": 5126,
      "count": 4352,
      "max": [
        0.99999266862869263,
        0.99998486042022705,
        0.99931573867797852
      ],
      "min": [
        -0.99999183416366577,
        -0.99917221069335938,
        -0.9999922513961792
      ],
      "type": "VEC3"
    },
    {
      "name": "TEXCOORD_0",
      "bufferView": 0,
      "byteOffset": 24,
      "componentType": 5126,
      "count": 4352,
      "max": [
        0.998046875,
        0.9990234375
      ],
      "min": [
        0.001953125,
        0.0009765625
      ],
      "type": "VEC2"
    },
    {
      "bufferView": 1,
      "componentType": 5123,
      "count": 10527,
      "type": "SCALAR"
    },
    {
      "name": "POSITION",
      "bufferView": 0,
      "byteOffset": 139264,
      "componentType": 5126,
      "count": 735,
      "max": [
        -709.76104736328125,
        60.037117004394531,
        153.36357116699219
      ],
      "min": [
        -736.62652587890625,
        41.654899597167969,
        115.13164520263672
      ],
      "type": "VEC3"
    },
    {
      "name": "NORMAL",
      "bufferView": 0,
      "byteOffset": 139276,
      "componentType": 5126,
      "count": 735,
      "max": [
        0.99898940324783325,
        0.99998486042022705,
        0.99816691875457764
      ],
      "min": [
        -0.99999183416366577,
        -0.9951215386390686,
        -0.9999922513961792
      ],
      "type": "VEC3"
    },
    {
      "name": "TEXCOORD_0",
      "bufferView": 0,
      "byteOffset": 139288,
      "componentType": 5126,
      "count": 735,
      "max": [
        0.998046875,
        0.998046875
      ],
      "min": [
        0.001953125,
        0.763671875
      ],
      "type": "VEC2"
    },
    {
      "bufferView": 1,
      "byteOffset": 21054,
      "componentType": 5123,
      "count": 1647,
      "type": "SCALAR"
    }
  ],
  "bufferViews": [
    {
      "buffer": 0,
      "byteLength": 162784,
      "byteStride": 32,
      "target": 34962
    },
    {
      "buffer": 0,
      "byteLength": 24348,
      "byteOffset": 162784,
      "target": 34963
    }
  ],
  "buffers": [
    {
      "byteLength": 187132,
      "uri": "20525362525140624344_LOD00.bin"
    }
  ],
  "images": [
    {
      "uri": "20525362525140624344_LOD00_0.png"
    },
    {
      "uri": "20525362525140624344_LOD00_1.png"
    }
  ],
  "materials": [
    {
      "doubleSided": true,
      "pbrMetallicRoughness": {
        "baseColorTexture": {
          "index": 0
        },
        "metallicFactor": 0
      }
    },
    {
      "doubleSided": true,
      "pbrMetallicRoughness": {
        "baseColorTexture": {
          "index": 1
        },
        "metallicFactor": 0
      }
    }
  ],
  "meshes": [
    {
      "name": "20525362525140624344_0",
      "primitives": [
        {
          "attributes": {
            "POSITION": 0,
            "NORMAL": 1,
            "TEXCOORD_0": 2
          },
          "indices": 3,
          "material": 0
        }
      ]
    },
    {
      "name": "20525362525140624344_1",
      "primitives": [
        {
          "attributes": {
            "POSITION": 4,
            "NORMAL": 5,
            "TEXCOORD_0": 6
          },
          "indices": 7,
          "material": 1
        }
      ]
    }
  ],
  "nodes": [
    {
      "mesh": 0
    },
    {
      "mesh": 1
    }
  ],
  "scene": 0,
  "scenes": [
    {
      "nodes": [
        0,
        1
      ]
    }
  ],
  "textures": [
    {
      "source": 0
    },
    {
      "source": 1
    }
  ]
}