{
  "asset": {
    "copyright": "",
    "generator": "SharpGLTF 1.0.0",
    "version": "2.0"
  },
  "accessors": [
    {
      "name": "POSITION",
      "bufferView": 0,
      "componentType": 5126,
      "count": 4407,
      "max": [
        -581.35394287109375,
        50.931510925292969,
        229.78593444824219
      ],
      "min": [
        -613.4722900390625,
        40.275077819824219,
        191.5535888671875
      ],
      "type": "VEC3"
    },
    {
      "name": "NORMAL",
      "bufferView": 0,
      "byteOffset": 12,
      "componentType": 5126,
      "count": 4407,
      "max": [
        0.99999254941940308,
        0.99998486042022705,
        0.99999207258224487
      ],
      "min": [
        -0.99999189376831055,
        -0.99917268753051758,
        -0.99999237060546875
      ],
      "type": "VEC3"
    },
    {
      "name": "TEXCOORD_0",
      "bufferView": 0,
      "byteOffset": 24,
      "componentType": 5126,
      "count": 4407,
      "max": [
        0.998046875,
        0.9990234375
      ],
      "min": [
        0.001953125,
        0.0009765625
      ],
      "type": "VEC2"
    },
    {
      "bufferView": 1,
      "componentType": 5123,
      "count": 10707,
      "type": "SCALAR"
    },
    {
      "name": "POSITION",
      "bufferView": 0,
      "byteOffset": 141024,
      "componentType": 5126,
      "count": 542,
      "max": [
        -581.35400390625,
        50.931510925292969,
        229.78538513183594
      ],
      "min": [
        -613.47186279296875,
        40.275100708007813,
        191.55427551269531
      ],
      "type": "VEC3"
    },
    {
      "name": "NORMAL",
      "bufferView": 0,
      "byteOffset": 141036,
      "componentType": 5126,
      "count": 542,
      "max": [
        0.99931347370147705,
        0.99998486042022705,
        0.99816799163818359
      ],
      "min": [
        -0.99818503856658936,
        -0.99510836601257324,
        -0.99915266036987305
      ],
      "type": "VEC3"
    },
    {
      "name": "TEXCOORD_0",
      "bufferView": 0,
      "byteOffset": 141048,
      "componentType": 5126,
      "count": 542,
      "max": [
        0.998046875,
        0.998046875
      ],
      "min": [
        0.001953125,
        0.845703125
      ],
      "type": "VEC2"
    },
    {
      "bufferView": 1,
      "byteOffset": 21414,
      "componentType": 5123,
      "count": 1161,
      "type": "SCALAR"
    }
  ],
  "bufferViews": [
    {
      "buffer": 0,
      "byteLength": 158368,
      "byteStride": 32,
      "target": 34962
    },
    {
      "buffer": 0,
      "byteLength": 23736,
      "byteOffset": 158368,
      "target": 34963
    }
  ],
  "buffers": [
    {
      "byteLength": 182104,
      "uri": "20525362525140624264_LOD00.bin"
    }
  ],
  "images": [
    {
      "uri": "20525362525140624264_LOD00_0.png"
    },
    {
      "uri": "20525362525140624264_LOD00_1.png"
    }
  ],
  "materials": [
    {
      "doubleSided": true,
      "pbrMetallicRoughness": {
        "baseColorTexture": {
          "index": 0
        },
        "metallicFactor": 0
      }
    },
    {
      "doubleSided": true,
      "pbrMetallicRoughness": {
        "baseColorTexture": {
          "index": 1
        },
        "metallicFactor": 0
      }
    }
  ],
  "meshes": [
    {
      "name": "20525362525140624264_0",
      "primitives": [
        {
          "attributes": {
            "POSITION": 0,
            "NORMAL": 1,
            "TEXCOORD_0": 2
          },
          "indices": 3,
          "material": 0
        }
      ]
    },
    {
      "name": "20525362525140624264_1",
      "primitives": [
        {
          "attributes": {
            "POSITION": 4,
            "NORMAL": 5,
            "TEXCOORD_0": 6
          },
          "indices": 7,
          "material": 1
        }
      ]
    }
  ],
  "nodes": [
    {
      "mesh": 0
    },
    {
      "mesh": 1
    }
  ],
  "scene": 0,
  "scenes": [
    {
      "nodes": [
        0,
        1
      ]
    }
  ],
  "textures": [
    {
      "source": 0
    },
    {
      "source": 1
    }
  ]
}