{
  "asset": {
    "copyright": "",
    "generator": "SharpGLTF 1.0.0",
    "version": "2.0"
  },
  "accessors": [
    {
      "name": "POSITION",
      "bufferView": 0,
      "componentType": 5126,
      "count": 2844,
      "max": [
        -228.24502563476563,
        64.685226440429688,
        573.70611572265625
      ],
      "min": [
        -260.361083984375,
        40.275394439697266,
        535.47467041015625
      ],
      "type": "VEC3"
    },
    {
      "name": "NORMAL",
      "bufferView": 0,
      "byteOffset": 12,
      "componentType": 5126,
      "count": 2844,
      "max": [
        0.99999237060546875,
        0.99998486042022705,
        0.99999189376831055
      ],
      "min": [
        -0.99999207258224487,
        -0.98987579345703125,
        -0.99999254941940308
      ],
      "type": "VEC3"
    },
    {
      "name": "TEXCOORD_0",
      "bufferView": 0,
      "byteOffset": 24,
      "componentType": 5126,
      "count": 2844,
      "max": [
        0.998046875,
        0.9990234375
      ],
      "min": [
        0.001953125,
        0.0009765625
      ],
      "type": "VEC2"
    },
    {
      "bufferView": 1,
      "componentType": 5123,
      "count": 6504,
      "type": "SCALAR"
    },
    {
      "name": "POSITION",
      "bufferView": 0,
      "byteOffset": 91008,
      "componentType": 5126,
      "count": 1555,
      "max": [
        -229.63514709472656,
        64.685256958007813,
        572.78070068359375
      ],
      "min": [
        -260.3607177734375,
        40.585994720458984,
        535.4747314453125
      ],
      "type": "VEC3"
    },
    {
      "name": "NORMAL",
      "bufferView": 0,
      "byteOffset": 91020,
      "componentType": 5126,
      "count": 1555,
      "max": [
        0.99999237060546875,
        0.99998486042022705,
        0.99999189376831055
      ],
      "min": [
        -0.99999207258224487,
        -0.99125277996063232,
        -0.99634921550750732
      ],
      "type": "VEC3"
    },
    {
      "name": "TEXCOORD_0",
      "bufferView": 0,
      "byteOffset": 91032,
      "componentType": 5126,
      "count": 1555,
      "max": [
        0.998046875,
        0.998046875
      ],
      "min": [
        0.001953125,
        0.330078125
      ],
      "type": "VEC2"
    },
    {
      "bufferView": 1,
      "byteOffset": 13008,
      "componentType": 5123,
      "count": 3663,
      "type": "SCALAR"
    }
  ],
  "bufferViews": [
    {
      "buffer": 0,
      "byteLength": 140768,
      "byteStride": 32,
      "target": 34962
    },
    {
      "buffer": 0,
      "byteLength": 20334,
      "byteOffset": 140768,
      "target": 34963
    }
  ],
  "buffers": [
    {
      "byteLength": 161104,
      "uri": "20525362525051736367_LOD00.bin"
    }
  ],
  "images": [
    {
      "uri": "20525362525051736367_LOD00_0.png"
    },
    {
      "uri": "20525362525051736367_LOD00_1.png"
    }
  ],
  "materials": [
    {
      "doubleSided": true,
      "pbrMetallicRoughness": {
        "baseColorTexture": {
          "index": 0
        },
        "metallicFactor": 0
      }
    },
    {
      "doubleSided": true,
      "pbrMetallicRoughness": {
        "baseColorTexture": {
          "index": 1
        },
        "metallicFactor": 0
      }
    }
  ],
  "meshes": [
    {
      "name": "20525362525051736367_0",
      "primitives": [
        {
          "attributes": {
            "POSITION": 0,
            "NORMAL": 1,
            "TEXCOORD_0": 2
          },
          "indices": 3,
          "material": 0
        }
      ]
    },
    {
      "name": "20525362525051736367_1",
      "primitives": [
        {
          "attributes": {
            "POSITION": 4,
            "NORMAL": 5,
            "TEXCOORD_0": 6
          },
          "indices": 7,
          "material": 1
        }
      ]
    }
  ],
  "nodes": [
    {
      "mesh": 0
    },
    {
      "mesh": 1
    }
  ],
  "scene": 0,
  "scenes": [
    {
      "nodes": [
        0,
        1
      ]
    }
  ],
  "textures": [
    {
      "source": 0
    },
    {
      "source": 1
    }
  ]
}