{
  "asset": {
    "copyright": "",
    "generator": "SharpGLTF 1.0.0",
    "version": "2.0"
  },
  "accessors": [
    {
      "name": "POSITION",
      "bufferView": 0,
      "componentType": 5126,
      "count": 2493,
      "max": [
        -452.94320678710938,
        74.259384155273438,
        459.0694580078125
      ],
      "min": [
        -485.05996704101563,
        42.592613220214844,
        420.83706665039063
      ],
      "type": "VEC3"
    },
    {
      "name": "NORMAL",
      "bufferView": 0,
      "byteOffset": 12,
      "componentType": 5126,
      "count": 2493,
      "max": [
        0.99931460618972778,
        0.99998492002487183,
        0.99999195337295532
      ],
      "min": [
        -0.9999920129776001,
        -0.98986059427261353,
        -0.99816501140594482
      ],
      "type": "VEC3"
    },
    {
      "name": "TEXCOORD_0",
      "bufferView": 0,
      "byteOffset": 24,
      "componentType": 5126,
      "count": 2493,
      "max": [
        0.998046875,
        0.9990234375
      ],
      "min": [
        0.001953125,
        0.0009765625
      ],
      "type": "VEC2"
    },
    {
      "bufferView": 1,
      "componentType": 5123,
      "count": 6408,
      "type": "SCALAR"
    },
    {
      "name": "POSITION",
      "bufferView": 0,
      "byteOffset": 79776,
      "componentType": 5126,
      "count": 714,
      "max": [
        -452.94436645507813,
        74.258132934570313,
        459.0694580078125
      ],
      "min": [
        -485.05889892578125,
        42.900135040283203,
        420.83792114257813
      ],
      "type": "VEC3"
    },
    {
      "name": "NORMAL",
      "bufferView": 0,
      "byteOffset": 79788,
      "componentType": 5126,
      "count": 714,
      "max": [
        0.9946555495262146,
        0.99998492002487183,
        0.99999195337295532
      ],
      "min": [
        -0.9999920129776001,
        -0.7696869969367981,
        -0.94094556570053101
      ],
      "type": "VEC3"
    },
    {
      "name": "TEXCOORD_0",
      "bufferView": 0,
      "byteOffset": 79800,
      "componentType": 5126,
      "count": 714,
      "max": [
        0.998046875,
        0.998046875
      ],
      "min": [
        0.001953125,
        0.595703125
      ],
      "type": "VEC2"
    },
    {
      "bufferView": 1,
      "byteOffset": 12816,
      "componentType": 5123,
      "count": 1791,
      "type": "SCALAR"
    }
  ],
  "bufferViews": [
    {
      "buffer": 0,
      "byteLength": 102624,
      "byteStride": 32,
      "target": 34962
    },
    {
      "buffer": 0,
      "byteLength": 16398,
      "byteOffset": 102624,
      "target": 34963
    }
  ],
  "buffers": [
    {
      "byteLength": 119024,
      "uri": "20525362525051737344_LOD00.bin"
    }
  ],
  "images": [
    {
      "uri": "20525362525051737344_LOD00_0.png"
    },
    {
      "uri": "20525362525051737344_LOD00_1.png"
    }
  ],
  "materials": [
    {
      "doubleSided": true,
      "pbrMetallicRoughness": {
        "baseColorTexture": {
          "index": 0
        },
        "metallicFactor": 0
      }
    },
    {
      "doubleSided": true,
      "pbrMetallicRoughness": {
        "baseColorTexture": {
          "index": 1
        },
        "metallicFactor": 0
      }
    }
  ],
  "meshes": [
    {
      "name": "20525362525051737344_0",
      "primitives": [
        {
          "attributes": {
            "POSITION": 0,
            "NORMAL": 1,
            "TEXCOORD_0": 2
          },
          "indices": 3,
          "material": 0
        }
      ]
    },
    {
      "name": "20525362525051737344_1",
      "primitives": [
        {
          "attributes": {
            "POSITION": 4,
            "NORMAL": 5,
            "TEXCOORD_0": 6
          },
          "indices": 7,
          "material": 1
        }
      ]
    }
  ],
  "nodes": [
    {
      "mesh": 0
    },
    {
      "mesh": 1
    }
  ],
  "scene": 0,
  "scenes": [
    {
      "nodes": [
        0,
        1
      ]
    }
  ],
  "textures": [
    {
      "source": 0
    },
    {
      "source": 1
    }
  ]
}