{
  "asset": {
    "copyright": "",
    "generator": "SharpGLTF 1.0.0",
    "version": "2.0"
  },
  "accessors": [
    {
      "name": "POSITION",
      "bufferView": 0,
      "componentType": 5126,
      "count": 4120,
      "max": [
        -741.85162353515625,
        57.557544708251953,
        268.01211547851563
      ],
      "min": [
        -773.97161865234375,
        43.501659393310547,
        229.7791748046875
      ],
      "type": "VEC3"
    },
    {
      "name": "NORMAL",
      "bufferView": 0,
      "byteOffset": 12,
      "componentType": 5126,
      "count": 4120,
      "max": [
        0.99999266862869263,
        0.99998509883880615,
        0.99999207258224487
      ],
      "min": [
        -0.999991774559021,
        -0.99917352199554443,
        -0.99999237060546875
      ],
      "type": "VEC3"
    },
    {
      "name": "TEXCOORD_0",
      "bufferView": 0,
      "byteOffset": 24,
      "componentType": 5126,
      "count": 4120,
      "max": [
        0.998046875,
        0.9990234375
      ],
      "min": [
        0.001953125,
        0.0009765625
      ],
      "type": "VEC2"
    },
    {
      "bufferView": 1,
      "componentType": 5123,
      "count": 10188,
      "type": "SCALAR"
    },
    {
      "name": "POSITION",
      "bufferView": 0,
      "byteOffset": 131840,
      "componentType": 5126,
      "count": 1573,
      "max": [
        -741.852294921875,
        57.403560638427734,
        268.01028442382813
      ],
      "min": [
        -773.97088623046875,
        43.502395629882813,
        229.77885437011719
      ],
      "type": "VEC3"
    },
    {
      "name": "NORMAL",
      "bufferView": 0,
      "byteOffset": 131852,
      "componentType": 5126,
      "count": 1573,
      "max": [
        0.99999266862869263,
        0.99998509883880615,
        0.99999207258224487
      ],
      "min": [
        -0.99897915124893188,
        -0.99917352199554443,
        -0.99999237060546875
      ],
      "type": "VEC3"
    },
    {
      "name": "TEXCOORD_0",
      "bufferView": 0,
      "byteOffset": 131864,
      "componentType": 5126,
      "count": 1573,
      "max": [
        0.998046875,
        0.998046875
      ],
      "min": [
        0.001953125,
        0.416015625
      ],
      "type": "VEC2"
    },
    {
      "bufferView": 1,
      "byteOffset": 20376,
      "componentType": 5123,
      "count": 3777,
      "type": "SCALAR"
    }
  ],
  "bufferViews": [
    {
      "buffer": 0,
      "byteLength": 182176,
      "byteStride": 32,
      "target": 34962
    },
    {
      "buffer": 0,
      "byteLength": 27930,
      "byteOffset": 182176,
      "target": 34963
    }
  ],
  "buffers": [
    {
      "byteLength": 210108,
      "uri": "20525362525140624367_LOD00.bin"
    }
  ],
  "images": [
    {
      "uri": "20525362525140624367_LOD00_0.png"
    },
    {
      "uri": "20525362525140624367_LOD00_1.png"
    }
  ],
  "materials": [
    {
      "doubleSided": true,
      "pbrMetallicRoughness": {
        "baseColorTexture": {
          "index": 0
        },
        "metallicFactor": 0
      }
    },
    {
      "doubleSided": true,
      "pbrMetallicRoughness": {
        "baseColorTexture": {
          "index": 1
        },
        "metallicFactor": 0
      }
    }
  ],
  "meshes": [
    {
      "name": "20525362525140624367_0",
      "primitives": [
        {
          "attributes": {
            "POSITION": 0,
            "NORMAL": 1,
            "TEXCOORD_0": 2
          },
          "indices": 3,
          "material": 0
        }
      ]
    },
    {
      "name": "20525362525140624367_1",
      "primitives": [
        {
          "attributes": {
            "POSITION": 4,
            "NORMAL": 5,
            "TEXCOORD_0": 6
          },
          "indices": 7,
          "material": 1
        }
      ]
    }
  ],
  "nodes": [
    {
      "mesh": 0
    },
    {
      "mesh": 1
    }
  ],
  "scene": 0,
  "scenes": [
    {
      "nodes": [
        0,
        1
      ]
    }
  ],
  "textures": [
    {
      "source": 0
    },
    {
      "source": 1
    }
  ]
}