{
  "asset": {
    "copyright": "",
    "generator": "SharpGLTF 1.0.0",
    "version": "2.0"
  },
  "accessors": [
    {
      "name": "POSITION",
      "bufferView": 0,
      "componentType": 5126,
      "count": 4475,
      "max": [
        -35.343227386474609,
        74.287765502929688,
        38.693012237548828
      ],
      "min": [
        -68.077217102050781,
        37.367717742919922,
        1.8497723340988159
      ],
      "type": "VEC3"
    },
    {
      "name": "NORMAL",
      "bufferView": 0,
      "byteOffset": 12,
      "componentType": 5126,
      "count": 4475,
      "max": [
        0.99999231100082397,
        0.9999845027923584,
        0.99999219179153442
      ],
      "min": [
        -0.99999231100082397,
        -1,
        -0.99999219179153442
      ],
      "type": "VEC3"
    },
    {
      "name": "TEXCOORD_0",
      "bufferView": 0,
      "byteOffset": 24,
      "componentType": 5126,
      "count": 4475,
      "max": [
        0.9990234375,
        0.9990234375
      ],
      "min": [
        0.0009765625,
        0.0009765625
      ],
      "type": "VEC2"
    },
    {
      "bufferView": 1,
      "componentType": 5123,
      "count": 10698,
      "type": "SCALAR"
    },
    {
      "name": "POSITION",
      "bufferView": 0,
      "byteOffset": 143200,
      "componentType": 5126,
      "count": 346,
      "max": [
        -35.652168273925781,
        73.824325561523438,
        38.693012237548828
      ],
      "min": [
        -67.768394470214844,
        37.831150054931641,
        3.083012580871582
      ],
      "type": "VEC3"
    },
    {
      "name": "NORMAL",
      "bufferView": 0,
      "byteOffset": 143212,
      "componentType": 5126,
      "count": 346,
      "max": [
        0.99673515558242798,
        0.9999845027923584,
        0.99999219179153442
      ],
      "min": [
        -0.99999231100082397,
        -1,
        -0.9989810585975647
      ],
      "type": "VEC3"
    },
    {
      "name": "TEXCOORD_0",
      "bufferView": 0,
      "byteOffset": 143224,
      "componentType": 5126,
      "count": 346,
      "max": [
        0.998046875,
        0.998046875
      ],
      "min": [
        0.001953125,
        0.810546875
      ],
      "type": "VEC2"
    },
    {
      "bufferView": 1,
      "byteOffset": 21396,
      "componentType": 5123,
      "count": 642,
      "type": "SCALAR"
    }
  ],
  "bufferViews": [
    {
      "buffer": 0,
      "byteLength": 154272,
      "byteStride": 32,
      "target": 34962
    },
    {
      "buffer": 0,
      "byteLength": 22680,
      "byteOffset": 154272,
      "target": 34963
    }
  ],
  "buffers": [
    {
      "byteLength": 176952,
      "uri": "20525362525051725157_LOD00.bin"
    }
  ],
  "images": [
    {
      "uri": "20525362525051725157_LOD00_0.png"
    },
    {
      "uri": "20525362525051725157_LOD00_1.png"
    }
  ],
  "materials": [
    {
      "doubleSided": true,
      "pbrMetallicRoughness": {
        "baseColorTexture": {
          "index": 0
        },
        "metallicFactor": 0
      }
    },
    {
      "doubleSided": true,
      "pbrMetallicRoughness": {
        "baseColorTexture": {
          "index": 1
        },
        "metallicFactor": 0
      }
    }
  ],
  "meshes": [
    {
      "name": "20525362525051725157_0",
      "primitives": [
        {
          "attributes": {
            "POSITION": 0,
            "NORMAL": 1,
            "TEXCOORD_0": 2
          },
          "indices": 3,
          "material": 0
        }
      ]
    },
    {
      "name": "20525362525051725157_1",
      "primitives": [
        {
          "attributes": {
            "POSITION": 4,
            "NORMAL": 5,
            "TEXCOORD_0": 6
          },
          "indices": 7,
          "material": 1
        }
      ]
    }
  ],
  "nodes": [
    {
      "mesh": 0
    },
    {
      "mesh": 1
    }
  ],
  "scene": 0,
  "scenes": [
    {
      "nodes": [
        0,
        1
      ]
    }
  ],
  "textures": [
    {
      "source": 0
    },
    {
      "source": 1
    }
  ]
}