{
  "asset": {
    "copyright": "",
    "generator": "SharpGLTF 1.0.0",
    "version": "2.0"
  },
  "accessors": [
    {
      "name": "POSITION",
      "bufferView": 0,
      "componentType": 5126,
      "count": 1921,
      "max": [
        -228.25535583496094,
        38.306068420410156,
        76.91033935546875
      ],
      "min": [
        -260.52670288085938,
        32.745292663574219,
        38.217674255371094
      ],
      "type": "VEC3"
    },
    {
      "name": "NORMAL",
      "bufferView": 0,
      "byteOffset": 12,
      "componentType": 5126,
      "count": 1921,
      "max": [
        0.99931573867797852,
        0.99998462200164795,
        0.99672532081604004
      ],
      "min": [
        -0.99817931652069092,
        -1,
        -0.99999231100082397
      ],
      "type": "VEC3"
    },
    {
      "name": "TEXCOORD_0",
      "bufferView": 0,
      "byteOffset": 24,
      "componentType": 5126,
      "count": 1921,
      "max": [
        0.998046875,
        0.998046875
      ],
      "min": [
        0.001953125,
        0.080078125
      ],
      "type": "VEC2"
    },
    {
      "bufferView": 1,
      "componentType": 5123,
      "count": 4785,
      "type": "SCALAR"
    }
  ],
  "bufferViews": [
    {
      "buffer": 0,
      "byteLength": 61472,
      "byteStride": 32,
      "target": 34962
    },
    {
      "buffer": 0,
      "byteLength": 9570,
      "byteOffset": 61472,
      "target": 34963
    }
  ],
  "buffers": [
    {
      "byteLength": 71044,
      "uri": "20525362525051734161_LOD00.bin"
    }
  ],
  "images": [
    {
      "uri": "20525362525051734161_LOD00.png"
    }
  ],
  "materials": [
    {
      "doubleSided": true,
      "pbrMetallicRoughness": {
        "baseColorTexture": {
          "index": 0
        },
        "metallicFactor": 0
      }
    }
  ],
  "meshes": [
    {
      "name": "20525362525051734161_0",
      "primitives": [
        {
          "attributes": {
            "POSITION": 0,
            "NORMAL": 1,
            "TEXCOORD_0": 2
          },
          "indices": 3,
          "material": 0
        }
      ]
    }
  ],
  "nodes": [
    {
      "mesh": 0
    }
  ],
  "scene": 0,
  "scenes": [
    {
      "nodes": [
        0
      ]
    }
  ],
  "textures": [
    {
      "source": 0
    }
  ]
}