{
  "asset": {
    "copyright": "",
    "generator": "SharpGLTF 1.0.0",
    "version": "2.0"
  },
  "accessors": [
    {
      "name": "POSITION",
      "bufferView": 0,
      "componentType": 5126,
      "count": 2615,
      "max": [
        -709.72540283203125,
        66.340499877929688,
        650.16021728515625
      ],
      "min": [
        -741.8426513671875,
        37.301231384277344,
        611.92730712890625
      ],
      "type": "VEC3"
    },
    {
      "name": "NORMAL",
      "bufferView": 0,
      "byteOffset": 12,
      "componentType": 5126,
      "count": 2615,
      "max": [
        0.99999266862869263,
        0.99998527765274048,
        0.99999189376831055
      ],
      "min": [
        -0.99897927045822144,
        -0.99916434288024902,
        -0.99999254941940308
      ],
      "type": "VEC3"
    },
    {
      "name": "TEXCOORD_0",
      "bufferView": 0,
      "byteOffset": 24,
      "componentType": 5126,
      "count": 2615,
      "max": [
        0.998046875,
        0.9990234375
      ],
      "min": [
        0.001953125,
        0.0009765625
      ],
      "type": "VEC2"
    },
    {
      "bufferView": 1,
      "componentType": 5123,
      "count": 6228,
      "type": "SCALAR"
    },
    {
      "name": "POSITION",
      "bufferView": 0,
      "byteOffset": 83680,
      "componentType": 5126,
      "count": 741,
      "max": [
        -709.7257080078125,
        66.340499877929688,
        650.15850830078125
      ],
      "min": [
        -739.83392333984375,
        37.455799102783203,
        611.92816162109375
      ],
      "type": "VEC3"
    },
    {
      "name": "NORMAL",
      "bufferView": 0,
      "byteOffset": 83692,
      "componentType": 5126,
      "count": 741,
      "max": [
        0.99999266862869263,
        0.99998527765274048,
        0.99999189376831055
      ],
      "min": [
        -0.99598318338394165,
        -0.94820022583007813,
        -0.99999254941940308
      ],
      "type": "VEC3"
    },
    {
      "name": "TEXCOORD_0",
      "bufferView": 0,
      "byteOffset": 83704,
      "componentType": 5126,
      "count": 741,
      "max": [
        0.998046875,
        0.998046875
      ],
      "min": [
        0.001953125,
        0.646484375
      ],
      "type": "VEC2"
    },
    {
      "bufferView": 1,
      "byteOffset": 12456,
      "componentType": 5123,
      "count": 1758,
      "type": "SCALAR"
    }
  ],
  "bufferViews": [
    {
      "buffer": 0,
      "byteLength": 107392,
      "byteStride": 32,
      "target": 34962
    },
    {
      "buffer": 0,
      "byteLength": 15972,
      "byteOffset": 107392,
      "target": 34963
    }
  ],
  "buffers": [
    {
      "byteLength": 123364,
      "uri": "20525362525142404146_LOD00.bin"
    }
  ],
  "images": [
    {
      "uri": "20525362525142404146_LOD00_0.png"
    },
    {
      "uri": "20525362525142404146_LOD00_1.png"
    }
  ],
  "materials": [
    {
      "doubleSided": true,
      "pbrMetallicRoughness": {
        "baseColorTexture": {
          "index": 0
        },
        "metallicFactor": 0
      }
    },
    {
      "doubleSided": true,
      "pbrMetallicRoughness": {
        "baseColorTexture": {
          "index": 1
        },
        "metallicFactor": 0
      }
    }
  ],
  "meshes": [
    {
      "name": "20525362525142404146_0",
      "primitives": [
        {
          "attributes": {
            "POSITION": 0,
            "NORMAL": 1,
            "TEXCOORD_0": 2
          },
          "indices": 3,
          "material": 0
        }
      ]
    },
    {
      "name": "20525362525142404146_1",
      "primitives": [
        {
          "attributes": {
            "POSITION": 4,
            "NORMAL": 5,
            "TEXCOORD_0": 6
          },
          "indices": 7,
          "material": 1
        }
      ]
    }
  ],
  "nodes": [
    {
      "mesh": 0
    },
    {
      "mesh": 1
    }
  ],
  "scene": 0,
  "scenes": [
    {
      "nodes": [
        0,
        1
      ]
    }
  ],
  "textures": [
    {
      "source": 0
    },
    {
      "source": 1
    }
  ]
}