{
  "asset": {
    "copyright": "",
    "generator": "SharpGLTF 1.0.0",
    "version": "2.0"
  },
  "accessors": [
    {
      "name": "POSITION",
      "bufferView": 0,
      "componentType": 5126,
      "count": 3912,
      "max": [
        -196.15457153320313,
        56.828834533691406,
        115.12531280517578
      ],
      "min": [
        -228.2713623046875,
        37.518688201904297,
        76.894058227539063
      ],
      "type": "VEC3"
    },
    {
      "name": "NORMAL",
      "bufferView": 0,
      "byteOffset": 12,
      "componentType": 5126,
      "count": 3912,
      "max": [
        0.99999237060546875,
        0.99998456239700317,
        0.99915081262588501
      ],
      "min": [
        -0.99999207258224487,
        -0.9991719126701355,
        -0.9999922513961792
      ],
      "type": "VEC3"
    },
    {
      "name": "TEXCOORD_0",
      "bufferView": 0,
      "byteOffset": 24,
      "componentType": 5126,
      "count": 3912,
      "max": [
        0.998046875,
        0.9990234375
      ],
      "min": [
        0.001953125,
        0.0009765625
      ],
      "type": "VEC2"
    },
    {
      "bufferView": 1,
      "componentType": 5123,
      "count": 9306,
      "type": "SCALAR"
    },
    {
      "name": "POSITION",
      "bufferView": 0,
      "byteOffset": 125184,
      "componentType": 5126,
      "count": 344,
      "max": [
        -196.15489196777344,
        56.828777313232422,
        115.12505340576172
      ],
      "min": [
        -228.27079772949219,
        37.827442169189453,
        76.894218444824219
      ],
      "type": "VEC3"
    },
    {
      "name": "NORMAL",
      "bufferView": 0,
      "byteOffset": 125196,
      "componentType": 5126,
      "count": 344,
      "max": [
        0.99999237060546875,
        0.99998444318771362,
        0.99999219179153442
      ],
      "min": [
        -0.99931812286376953,
        -0.9415658712387085,
        -0.9999922513961792
      ],
      "type": "VEC3"
    },
    {
      "name": "TEXCOORD_0",
      "bufferView": 0,
      "byteOffset": 125208,
      "componentType": 5126,
      "count": 344,
      "max": [
        0.998046875,
        0.998046875
      ],
      "min": [
        0.001953125,
        0.904296875
      ],
      "type": "VEC2"
    },
    {
      "bufferView": 1,
      "byteOffset": 18612,
      "componentType": 5123,
      "count": 780,
      "type": "SCALAR"
    }
  ],
  "bufferViews": [
    {
      "buffer": 0,
      "byteLength": 136192,
      "byteStride": 32,
      "target": 34962
    },
    {
      "buffer": 0,
      "byteLength": 20172,
      "byteOffset": 136192,
      "target": 34963
    }
  ],
  "buffers": [
    {
      "byteLength": 156364,
      "uri": "20525362525051734166_LOD00.bin"
    }
  ],
  "images": [
    {
      "uri": "20525362525051734166_LOD00_0.png"
    },
    {
      "uri": "20525362525051734166_LOD00_1.png"
    }
  ],
  "materials": [
    {
      "doubleSided": true,
      "pbrMetallicRoughness": {
        "baseColorTexture": {
          "index": 0
        },
        "metallicFactor": 0
      }
    },
    {
      "doubleSided": true,
      "pbrMetallicRoughness": {
        "baseColorTexture": {
          "index": 1
        },
        "metallicFactor": 0
      }
    }
  ],
  "meshes": [
    {
      "name": "20525362525051734166_0",
      "primitives": [
        {
          "attributes": {
            "POSITION": 0,
            "NORMAL": 1,
            "TEXCOORD_0": 2
          },
          "indices": 3,
          "material": 0
        }
      ]
    },
    {
      "name": "20525362525051734166_1",
      "primitives": [
        {
          "attributes": {
            "POSITION": 4,
            "NORMAL": 5,
            "TEXCOORD_0": 6
          },
          "indices": 7,
          "material": 1
        }
      ]
    }
  ],
  "nodes": [
    {
      "mesh": 0
    },
    {
      "mesh": 1
    }
  ],
  "scene": 0,
  "scenes": [
    {
      "nodes": [
        0,
        1
      ]
    }
  ],
  "textures": [
    {
      "source": 0
    },
    {
      "source": 1
    }
  ]
}