{
  "asset": {
    "copyright": "",
    "generator": "SharpGLTF 1.0.0",
    "version": "2.0"
  },
  "accessors": [
    {
      "name": "POSITION",
      "bufferView": 0,
      "componentType": 5126,
      "count": 2977,
      "max": [
        -677.6341552734375,
        74.696914672851563,
        535.51300048828125
      ],
      "min": [
        -709.75445556640625,
        46.273578643798828,
        496.82107543945313
      ],
      "type": "VEC3"
    },
    {
      "name": "NORMAL",
      "bufferView": 0,
      "byteOffset": 12,
      "componentType": 5126,
      "count": 2977,
      "max": [
        0.99999266862869263,
        0.99998515844345093,
        0.99999189376831055
      ],
      "min": [
        -0.99999183416366577,
        -0.9878728985786438,
        -0.99999254941940308
      ],
      "type": "VEC3"
    },
    {
      "name": "TEXCOORD_0",
      "bufferView": 0,
      "byteOffset": 24,
      "componentType": 5126,
      "count": 2977,
      "max": [
        0.998046875,
        0.9990234375
      ],
      "min": [
        0.001953125,
        0.0009765625
      ],
      "type": "VEC2"
    },
    {
      "bufferView": 1,
      "componentType": 5123,
      "count": 7008,
      "type": "SCALAR"
    },
    {
      "name": "POSITION",
      "bufferView": 0,
      "byteOffset": 95264,
      "componentType": 5126,
      "count": 1155,
      "max": [
        -677.634765625,
        74.695732116699219,
        535.5123291015625
      ],
      "min": [
        -709.75439453125,
        46.273567199707031,
        496.97515869140625
      ],
      "type": "VEC3"
    },
    {
      "name": "NORMAL",
      "bufferView": 0,
      "byteOffset": 95276,
      "componentType": 5126,
      "count": 1155,
      "max": [
        0.99999266862869263,
        0.99998515844345093,
        0.99931794404983521
      ],
      "min": [
        -0.99915784597396851,
        -0.98789095878601074,
        -0.99816983938217163
      ],
      "type": "VEC3"
    },
    {
      "name": "TEXCOORD_0",
      "bufferView": 0,
      "byteOffset": 95288,
      "componentType": 5126,
      "count": 1155,
      "max": [
        0.998046875,
        0.998046875
      ],
      "min": [
        0.001953125,
        0.521484375
      ],
      "type": "VEC2"
    },
    {
      "bufferView": 1,
      "byteOffset": 14016,
      "componentType": 5123,
      "count": 2589,
      "type": "SCALAR"
    }
  ],
  "bufferViews": [
    {
      "buffer": 0,
      "byteLength": 132224,
      "byteStride": 32,
      "target": 34962
    },
    {
      "buffer": 0,
      "byteLength": 19194,
      "byteOffset": 132224,
      "target": 34963
    }
  ],
  "buffers": [
    {
      "byteLength": 151420,
      "uri": "20525362525140626275_LOD00.bin"
    }
  ],
  "images": [
    {
      "uri": "20525362525140626275_LOD00_0.png"
    },
    {
      "uri": "20525362525140626275_LOD00_1.png"
    }
  ],
  "materials": [
    {
      "doubleSided": true,
      "pbrMetallicRoughness": {
        "baseColorTexture": {
          "index": 0
        },
        "metallicFactor": 0
      }
    },
    {
      "doubleSided": true,
      "pbrMetallicRoughness": {
        "baseColorTexture": {
          "index": 1
        },
        "metallicFactor": 0
      }
    }
  ],
  "meshes": [
    {
      "name": "20525362525140626275_0",
      "primitives": [
        {
          "attributes": {
            "POSITION": 0,
            "NORMAL": 1,
            "TEXCOORD_0": 2
          },
          "indices": 3,
          "material": 0
        }
      ]
    },
    {
      "name": "20525362525140626275_1",
      "primitives": [
        {
          "attributes": {
            "POSITION": 4,
            "NORMAL": 5,
            "TEXCOORD_0": 6
          },
          "indices": 7,
          "material": 1
        }
      ]
    }
  ],
  "nodes": [
    {
      "mesh": 0
    },
    {
      "mesh": 1
    }
  ],
  "scene": 0,
  "scenes": [
    {
      "nodes": [
        0,
        1
      ]
    }
  ],
  "textures": [
    {
      "source": 0
    },
    {
      "source": 1
    }
  ]
}