{
  "asset": {
    "copyright": "",
    "generator": "SharpGLTF 1.0.0",
    "version": "2.0"
  },
  "accessors": [
    {
      "name": "POSITION",
      "bufferView": 0,
      "componentType": 5126,
      "count": 2606,
      "max": [
        -67.287818908691406,
        74.737831115722656,
        459.06051635742188
      ],
      "min": [
        -99.8662109375,
        37.352432250976563,
        420.36489868164063
      ],
      "type": "VEC3"
    },
    {
      "name": "NORMAL",
      "bufferView": 0,
      "byteOffset": 12,
      "componentType": 5126,
      "count": 2606,
      "max": [
        0.9999922513961792,
        0.99998468160629272,
        0.99999195337295532
      ],
      "min": [
        -0.99999219179153442,
        -1,
        -0.9999924898147583
      ],
      "type": "VEC3"
    },
    {
      "name": "TEXCOORD_0",
      "bufferView": 0,
      "byteOffset": 24,
      "componentType": 5126,
      "count": 2606,
      "max": [
        0.9990234375,
        0.9990234375
      ],
      "min": [
        0.0009765625,
        0.0009765625
      ],
      "type": "VEC2"
    },
    {
      "bufferView": 1,
      "componentType": 5123,
      "count": 5820,
      "type": "SCALAR"
    },
    {
      "name": "POSITION",
      "bufferView": 0,
      "byteOffset": 83392,
      "componentType": 5126,
      "count": 1444,
      "max": [
        -67.750595092773438,
        74.27447509765625,
        459.36865234375
      ],
      "min": [
        -100.02027893066406,
        37.352363586425781,
        420.6734619140625
      ],
      "type": "VEC3"
    },
    {
      "name": "NORMAL",
      "bufferView": 0,
      "byteOffset": 83404,
      "componentType": 5126,
      "count": 1444,
      "max": [
        0.9999922513961792,
        0.99998468160629272,
        0.99999195337295532
      ],
      "min": [
        -0.99999219179153442,
        -1,
        -0.9999924898147583
      ],
      "type": "VEC3"
    },
    {
      "name": "TEXCOORD_0",
      "bufferView": 0,
      "byteOffset": 83416,
      "componentType": 5126,
      "count": 1444,
      "max": [
        0.998046875,
        0.998046875
      ],
      "min": [
        0.001953125,
        0.017578125
      ],
      "type": "VEC2"
    },
    {
      "bufferView": 1,
      "byteOffset": 11640,
      "componentType": 5123,
      "count": 3738,
      "type": "SCALAR"
    }
  ],
  "bufferViews": [
    {
      "buffer": 0,
      "byteLength": 129600,
      "byteStride": 32,
      "target": 34962
    },
    {
      "buffer": 0,
      "byteLength": 19116,
      "byteOffset": 129600,
      "target": 34963
    }
  ],
  "buffers": [
    {
      "byteLength": 148716,
      "uri": "20525362525051736244_LOD00.bin"
    }
  ],
  "images": [
    {
      "uri": "20525362525051736244_LOD00_0.png"
    },
    {
      "uri": "20525362525051736244_LOD00_1.png"
    }
  ],
  "materials": [
    {
      "doubleSided": true,
      "pbrMetallicRoughness": {
        "baseColorTexture": {
          "index": 0
        },
        "metallicFactor": 0
      }
    },
    {
      "doubleSided": true,
      "pbrMetallicRoughness": {
        "baseColorTexture": {
          "index": 1
        },
        "metallicFactor": 0
      }
    }
  ],
  "meshes": [
    {
      "name": "20525362525051736244_0",
      "primitives": [
        {
          "attributes": {
            "POSITION": 0,
            "NORMAL": 1,
            "TEXCOORD_0": 2
          },
          "indices": 3,
          "material": 0
        }
      ]
    },
    {
      "name": "20525362525051736244_1",
      "primitives": [
        {
          "attributes": {
            "POSITION": 4,
            "NORMAL": 5,
            "TEXCOORD_0": 6
          },
          "indices": 7,
          "material": 1
        }
      ]
    }
  ],
  "nodes": [
    {
      "mesh": 0
    },
    {
      "mesh": 1
    }
  ],
  "scene": 0,
  "scenes": [
    {
      "nodes": [
        0,
        1
      ]
    }
  ],
  "textures": [
    {
      "source": 0
    },
    {
      "source": 1
    }
  ]
}