{
  "asset": {
    "copyright": "",
    "generator": "SharpGLTF 1.0.0",
    "version": "2.0"
  },
  "accessors": [
    {
      "name": "POSITION",
      "bufferView": 0,
      "componentType": 5126,
      "count": 4616,
      "max": [
        -806.05218505859375,
        57.705959320068359,
        268.01708984375
      ],
      "min": [
        -838.63446044921875,
        44.573265075683594,
        229.78419494628906
      ],
      "type": "VEC3"
    },
    {
      "name": "NORMAL",
      "bufferView": 0,
      "byteOffset": 12,
      "componentType": 5126,
      "count": 4616,
      "max": [
        0.9999927282333374,
        0.99998503923416138,
        0.99999207258224487
      ],
      "min": [
        -0.99999171495437622,
        -1,
        -0.99598383903503418
      ],
      "type": "VEC3"
    },
    {
      "name": "TEXCOORD_0",
      "bufferView": 0,
      "byteOffset": 24,
      "componentType": 5126,
      "count": 4616,
      "max": [
        0.998046875,
        0.9990234375
      ],
      "min": [
        0.001953125,
        0.0009765625
      ],
      "type": "VEC2"
    },
    {
      "bufferView": 1,
      "componentType": 5123,
      "count": 11754,
      "type": "SCALAR"
    },
    {
      "name": "POSITION",
      "bufferView": 0,
      "byteOffset": 147712,
      "componentType": 5126,
      "count": 700,
      "max": [
        -806.05450439453125,
        57.705551147460938,
        268.01553344726563
      ],
      "min": [
        -838.17071533203125,
        45.038124084472656,
        229.7841796875
      ],
      "type": "VEC3"
    },
    {
      "name": "NORMAL",
      "bufferView": 0,
      "byteOffset": 147724,
      "componentType": 5126,
      "count": 700,
      "max": [
        0.99817782640457153,
        0.99998503923416138,
        0.9967275857925415
      ],
      "min": [
        -0.99999171495437622,
        -0.99149388074874878,
        -0.97997009754180908
      ],
      "type": "VEC3"
    },
    {
      "name": "TEXCOORD_0",
      "bufferView": 0,
      "byteOffset": 147736,
      "componentType": 5126,
      "count": 700,
      "max": [
        0.998046875,
        0.998046875
      ],
      "min": [
        0.001953125,
        0.767578125
      ],
      "type": "VEC2"
    },
    {
      "bufferView": 1,
      "byteOffset": 23508,
      "componentType": 5123,
      "count": 1533,
      "type": "SCALAR"
    }
  ],
  "bufferViews": [
    {
      "buffer": 0,
      "byteLength": 170112,
      "byteStride": 32,
      "target": 34962
    },
    {
      "buffer": 0,
      "byteLength": 26574,
      "byteOffset": 170112,
      "target": 34963
    }
  ],
  "buffers": [
    {
      "byteLength": 196688,
      "uri": "20525362525140624377_LOD00.bin"
    }
  ],
  "images": [
    {
      "uri": "20525362525140624377_LOD00_0.png"
    },
    {
      "uri": "20525362525140624377_LOD00_1.png"
    }
  ],
  "materials": [
    {
      "doubleSided": true,
      "pbrMetallicRoughness": {
        "baseColorTexture": {
          "index": 0
        },
        "metallicFactor": 0
      }
    },
    {
      "doubleSided": true,
      "pbrMetallicRoughness": {
        "baseColorTexture": {
          "index": 1
        },
        "metallicFactor": 0
      }
    }
  ],
  "meshes": [
    {
      "name": "20525362525140624377_0",
      "primitives": [
        {
          "attributes": {
            "POSITION": 0,
            "NORMAL": 1,
            "TEXCOORD_0": 2
          },
          "indices": 3,
          "material": 0
        }
      ]
    },
    {
      "name": "20525362525140624377_1",
      "primitives": [
        {
          "attributes": {
            "POSITION": 4,
            "NORMAL": 5,
            "TEXCOORD_0": 6
          },
          "indices": 7,
          "material": 1
        }
      ]
    }
  ],
  "nodes": [
    {
      "mesh": 0
    },
    {
      "mesh": 1
    }
  ],
  "scene": 0,
  "scenes": [
    {
      "nodes": [
        0,
        1
      ]
    }
  ],
  "textures": [
    {
      "source": 0
    },
    {
      "source": 1
    }
  ]
}