{
  "asset": {
    "copyright": "",
    "generator": "SharpGLTF 1.0.0",
    "version": "2.0"
  },
  "accessors": [
    {
      "name": "POSITION",
      "bufferView": 0,
      "componentType": 5126,
      "count": 4441,
      "max": [
        -613.46575927734375,
        59.892204284667969,
        38.712772369384766
      ],
      "min": [
        -645.584228515625,
        37.800552368164063,
        0.32798349857330322
      ],
      "type": "VEC3"
    },
    {
      "name": "NORMAL",
      "bufferView": 0,
      "byteOffset": 12,
      "componentType": 5126,
      "count": 4441,
      "max": [
        0.99999266862869263,
        0.99998486042022705,
        0.99999219179153442
      ],
      "min": [
        -0.99999189376831055,
        -0.8682512640953064,
        -0.99999219179153442
      ],
      "type": "VEC3"
    },
    {
      "name": "TEXCOORD_0",
      "bufferView": 0,
      "byteOffset": 24,
      "componentType": 5126,
      "count": 4441,
      "max": [
        0.998046875,
        0.9990234375
      ],
      "min": [
        0.001953125,
        0.0009765625
      ],
      "type": "VEC2"
    },
    {
      "bufferView": 1,
      "componentType": 5123,
      "count": 11331,
      "type": "SCALAR"
    },
    {
      "name": "POSITION",
      "bufferView": 0,
      "byteOffset": 142112,
      "componentType": 5126,
      "count": 1986,
      "max": [
        -613.31146240234375,
        59.737697601318359,
        38.712772369384766
      ],
      "min": [
        -645.584228515625,
        37.955028533935547,
        0.48036932945251465
      ],
      "type": "VEC3"
    },
    {
      "name": "NORMAL",
      "bufferView": 0,
      "byteOffset": 142124,
      "componentType": 5126,
      "count": 1986,
      "max": [
        0.9991534948348999,
        0.99998486042022705,
        0.99999219179153442
      ],
      "min": [
        -0.99999189376831055,
        -0.8682512640953064,
        -0.99999219179153442
      ],
      "type": "VEC3"
    },
    {
      "name": "TEXCOORD_0",
      "bufferView": 0,
      "byteOffset": 142136,
      "componentType": 5126,
      "count": 1986,
      "max": [
        0.998046875,
        0.998046875
      ],
      "min": [
        0.001953125,
        0.369140625
      ],
      "type": "VEC2"
    },
    {
      "bufferView": 1,
      "byteOffset": 22662,
      "componentType": 5123,
      "count": 5085,
      "type": "SCALAR"
    }
  ],
  "bufferViews": [
    {
      "buffer": 0,
      "byteLength": 205664,
      "byteStride": 32,
      "target": 34962
    },
    {
      "buffer": 0,
      "byteLength": 32832,
      "byteOffset": 205664,
      "target": 34963
    }
  ],
  "buffers": [
    {
      "byteLength": 238496,
      "uri": "20525362525140624047_LOD00.bin"
    }
  ],
  "images": [
    {
      "uri": "20525362525140624047_LOD00_0.png"
    },
    {
      "uri": "20525362525140624047_LOD00_1.png"
    }
  ],
  "materials": [
    {
      "doubleSided": true,
      "pbrMetallicRoughness": {
        "baseColorTexture": {
          "index": 0
        },
        "metallicFactor": 0
      }
    },
    {
      "doubleSided": true,
      "pbrMetallicRoughness": {
        "baseColorTexture": {
          "index": 1
        },
        "metallicFactor": 0
      }
    }
  ],
  "meshes": [
    {
      "name": "20525362525140624047_0",
      "primitives": [
        {
          "attributes": {
            "POSITION": 0,
            "NORMAL": 1,
            "TEXCOORD_0": 2
          },
          "indices": 3,
          "material": 0
        }
      ]
    },
    {
      "name": "20525362525140624047_1",
      "primitives": [
        {
          "attributes": {
            "POSITION": 4,
            "NORMAL": 5,
            "TEXCOORD_0": 6
          },
          "indices": 7,
          "material": 1
        }
      ]
    }
  ],
  "nodes": [
    {
      "mesh": 0
    },
    {
      "mesh": 1
    }
  ],
  "scene": 0,
  "scenes": [
    {
      "nodes": [
        0,
        1
      ]
    }
  ],
  "textures": [
    {
      "source": 0
    },
    {
      "source": 1
    }
  ]
}