{
  "asset": {
    "copyright": "",
    "generator": "SharpGLTF 1.0.0",
    "version": "2.0"
  },
  "accessors": [
    {
      "name": "POSITION",
      "bufferView": 0,
      "componentType": 5126,
      "count": 3371,
      "max": [
        -452.94158935546875,
        71.010261535644531,
        497.285400390625
      ],
      "min": [
        -485.0582275390625,
        43.361248016357422,
        459.05215454101563
      ],
      "type": "VEC3"
    },
    {
      "name": "NORMAL",
      "bufferView": 0,
      "byteOffset": 12,
      "componentType": 5126,
      "count": 3371,
      "max": [
        0.9999924898147583,
        0.99998492002487183,
        0.99931728839874268
      ],
      "min": [
        -0.99999195337295532,
        -1,
        -0.99999254941940308
      ],
      "type": "VEC3"
    },
    {
      "name": "TEXCOORD_0",
      "bufferView": 0,
      "byteOffset": 24,
      "componentType": 5126,
      "count": 3371,
      "max": [
        0.998046875,
        0.9990234375
      ],
      "min": [
        0.001953125,
        0.0009765625
      ],
      "type": "VEC2"
    },
    {
      "bufferView": 1,
      "componentType": 5123,
      "count": 8163,
      "type": "SCALAR"
    },
    {
      "name": "POSITION",
      "bufferView": 0,
      "byteOffset": 107872,
      "componentType": 5126,
      "count": 2428,
      "max": [
        -452.94241333007813,
        71.628974914550781,
        497.285400390625
      ],
      "min": [
        -478.57235717773438,
        43.516040802001953,
        459.0528564453125
      ],
      "type": "VEC3"
    },
    {
      "name": "NORMAL",
      "bufferView": 0,
      "byteOffset": 107884,
      "componentType": 5126,
      "count": 2428,
      "max": [
        0.9999924898147583,
        0.99998492002487183,
        0.99931728839874268
      ],
      "min": [
        -0.99999195337295532,
        -0.99917179346084595,
        -0.99914854764938354
      ],
      "type": "VEC3"
    },
    {
      "name": "TEXCOORD_0",
      "bufferView": 0,
      "byteOffset": 107896,
      "componentType": 5126,
      "count": 2428,
      "max": [
        0.998046875,
        0.998046875
      ],
      "min": [
        0.001953125,
        0.037109375
      ],
      "type": "VEC2"
    },
    {
      "bufferView": 1,
      "byteOffset": 16326,
      "componentType": 5123,
      "count": 5400,
      "type": "SCALAR"
    }
  ],
  "bufferViews": [
    {
      "buffer": 0,
      "byteLength": 185568,
      "byteStride": 32,
      "target": 34962
    },
    {
      "buffer": 0,
      "byteLength": 27126,
      "byteOffset": 185568,
      "target": 34963
    }
  ],
  "buffers": [
    {
      "byteLength": 212696,
      "uri": "20525362525051737346_LOD00.bin"
    }
  ],
  "images": [
    {
      "uri": "20525362525051737346_LOD00_0.png"
    },
    {
      "uri": "20525362525051737346_LOD00_1.png"
    }
  ],
  "materials": [
    {
      "doubleSided": true,
      "pbrMetallicRoughness": {
        "baseColorTexture": {
          "index": 0
        },
        "metallicFactor": 0
      }
    },
    {
      "doubleSided": true,
      "pbrMetallicRoughness": {
        "baseColorTexture": {
          "index": 1
        },
        "metallicFactor": 0
      }
    }
  ],
  "meshes": [
    {
      "name": "20525362525051737346_0",
      "primitives": [
        {
          "attributes": {
            "POSITION": 0,
            "NORMAL": 1,
            "TEXCOORD_0": 2
          },
          "indices": 3,
          "material": 0
        }
      ]
    },
    {
      "name": "20525362525051737346_1",
      "primitives": [
        {
          "attributes": {
            "POSITION": 4,
            "NORMAL": 5,
            "TEXCOORD_0": 6
          },
          "indices": 7,
          "material": 1
        }
      ]
    }
  ],
  "nodes": [
    {
      "mesh": 0
    },
    {
      "mesh": 1
    }
  ],
  "scene": 0,
  "scenes": [
    {
      "nodes": [
        0,
        1
      ]
    }
  ],
  "textures": [
    {
      "source": 0
    },
    {
      "source": 1
    }
  ]
}