{
  "asset": {
    "copyright": "",
    "generator": "SharpGLTF 1.0.0",
    "version": "2.0"
  },
  "accessors": [
    {
      "name": "POSITION",
      "bufferView": 0,
      "componentType": 5126,
      "count": 4718,
      "max": [
        -838.14697265625,
        65.422195434570313,
        344.45004272460938
      ],
      "min": [
        -870.26446533203125,
        46.575637817382813,
        306.21743774414063
      ],
      "type": "VEC3"
    },
    {
      "name": "NORMAL",
      "bufferView": 0,
      "byteOffset": 12,
      "componentType": 5126,
      "count": 4718,
      "max": [
        0.99999278783798218,
        0.99998515844345093,
        0.9999920129776001
      ],
      "min": [
        -0.99999171495437622,
        -0.97821050882339478,
        -0.99999237060546875
      ],
      "type": "VEC3"
    },
    {
      "name": "TEXCOORD_0",
      "bufferView": 0,
      "byteOffset": 24,
      "componentType": 5126,
      "count": 4718,
      "max": [
        0.998046875,
        0.9990234375
      ],
      "min": [
        0.001953125,
        0.0009765625
      ],
      "type": "VEC2"
    },
    {
      "bufferView": 1,
      "componentType": 5123,
      "count": 11529,
      "type": "SCALAR"
    },
    {
      "name": "POSITION",
      "bufferView": 0,
      "byteOffset": 150976,
      "componentType": 5126,
      "count": 2323,
      "max": [
        -838.1470947265625,
        65.422195434570313,
        344.45004272460938
      ],
      "min": [
        -870.264404296875,
        46.731464385986328,
        306.21707153320313
      ],
      "type": "VEC3"
    },
    {
      "name": "NORMAL",
      "bufferView": 0,
      "byteOffset": 150988,
      "componentType": 5126,
      "count": 2323,
      "max": [
        0.99999278783798218,
        0.99998515844345093,
        0.9999920129776001
      ],
      "min": [
        -0.99999171495437622,
        -0.99641692638397217,
        -0.99999237060546875
      ],
      "type": "VEC3"
    },
    {
      "name": "TEXCOORD_0",
      "bufferView": 0,
      "byteOffset": 151000,
      "componentType": 5126,
      "count": 2323,
      "max": [
        0.998046875,
        0.998046875
      ],
      "min": [
        0.001953125,
        0.115234375
      ],
      "type": "VEC2"
    },
    {
      "bufferView": 1,
      "byteOffset": 23058,
      "componentType": 5123,
      "count": 5520,
      "type": "SCALAR"
    }
  ],
  "bufferViews": [
    {
      "buffer": 0,
      "byteLength": 225312,
      "byteStride": 32,
      "target": 34962
    },
    {
      "buffer": 0,
      "byteLength": 34098,
      "byteOffset": 225312,
      "target": 34963
    }
  ],
  "buffers": [
    {
      "byteLength": 259412,
      "uri": "20525362525140627046_LOD00.bin"
    }
  ],
  "images": [
    {
      "uri": "20525362525140627046_LOD00_0.png"
    },
    {
      "uri": "20525362525140627046_LOD00_1.png"
    }
  ],
  "materials": [
    {
      "doubleSided": true,
      "pbrMetallicRoughness": {
        "baseColorTexture": {
          "index": 0
        },
        "metallicFactor": 0
      }
    },
    {
      "doubleSided": true,
      "pbrMetallicRoughness": {
        "baseColorTexture": {
          "index": 1
        },
        "metallicFactor": 0
      }
    }
  ],
  "meshes": [
    {
      "name": "20525362525140627046_0",
      "primitives": [
        {
          "attributes": {
            "POSITION": 0,
            "NORMAL": 1,
            "TEXCOORD_0": 2
          },
          "indices": 3,
          "material": 0
        }
      ]
    },
    {
      "name": "20525362525140627046_1",
      "primitives": [
        {
          "attributes": {
            "POSITION": 4,
            "NORMAL": 5,
            "TEXCOORD_0": 6
          },
          "indices": 7,
          "material": 1
        }
      ]
    }
  ],
  "nodes": [
    {
      "mesh": 0
    },
    {
      "mesh": 1
    }
  ],
  "scene": 0,
  "scenes": [
    {
      "nodes": [
        0,
        1
      ]
    }
  ],
  "textures": [
    {
      "source": 0
    },
    {
      "source": 1
    }
  ]
}