{
  "asset": {
    "copyright": "",
    "generator": "SharpGLTF 1.0.0",
    "version": "2.0"
  },
  "accessors": [
    {
      "name": "POSITION",
      "bufferView": 0,
      "componentType": 5126,
      "count": 3680,
      "max": [
        -677.6278076171875,
        37.93896484375,
        611.94146728515625
      ],
      "min": [
        -710.2071533203125,
        12.916044235229492,
        573.40301513671875
      ],
      "type": "VEC3"
    },
    {
      "name": "NORMAL",
      "bufferView": 0,
      "byteOffset": 12,
      "componentType": 5126,
      "count": 3680,
      "max": [
        0.99999266862869263,
        0.99998527765274048,
        0.99999189376831055
      ],
      "min": [
        -0.99999189376831055,
        -1,
        -0.99999254941940308
      ],
      "type": "VEC3"
    },
    {
      "name": "TEXCOORD_0",
      "bufferView": 0,
      "byteOffset": 24,
      "componentType": 5126,
      "count": 3680,
      "max": [
        0.998046875,
        0.9990234375
      ],
      "min": [
        0.001953125,
        0.0009765625
      ],
      "type": "VEC2"
    },
    {
      "bufferView": 1,
      "componentType": 5123,
      "count": 8055,
      "type": "SCALAR"
    },
    {
      "name": "POSITION",
      "bufferView": 0,
      "byteOffset": 117760,
      "componentType": 5126,
      "count": 1399,
      "max": [
        -677.62823486328125,
        37.787441253662109,
        608.70263671875
      ],
      "min": [
        -709.74481201171875,
        33.149906158447266,
        573.7095947265625
      ],
      "type": "VEC3"
    },
    {
      "name": "NORMAL",
      "bufferView": 0,
      "byteOffset": 117772,
      "componentType": 5126,
      "count": 1399,
      "max": [
        0.99999266862869263,
        0.99998527765274048,
        0.99999189376831055
      ],
      "min": [
        -0.99999189376831055,
        -0.99149733781814575,
        -0.99999254941940308
      ],
      "type": "VEC3"
    },
    {
      "name": "TEXCOORD_0",
      "bufferView": 0,
      "byteOffset": 117784,
      "componentType": 5126,
      "count": 1399,
      "max": [
        0.998046875,
        0.998046875
      ],
      "min": [
        0.001953125,
        0.533203125
      ],
      "type": "VEC2"
    },
    {
      "bufferView": 1,
      "byteOffset": 16110,
      "componentType": 5123,
      "count": 2889,
      "type": "SCALAR"
    }
  ],
  "bufferViews": [
    {
      "buffer": 0,
      "byteLength": 162528,
      "byteStride": 32,
      "target": 34962
    },
    {
      "buffer": 0,
      "byteLength": 21888,
      "byteOffset": 162528,
      "target": 34963
    }
  ],
  "buffers": [
    {
      "byteLength": 184416,
      "uri": "20525362525142404051_LOD00.bin"
    }
  ],
  "images": [
    {
      "uri": "20525362525142404051_LOD00_0.png"
    },
    {
      "uri": "20525362525142404051_LOD00_1.png"
    }
  ],
  "materials": [
    {
      "doubleSided": true,
      "pbrMetallicRoughness": {
        "baseColorTexture": {
          "index": 0
        },
        "metallicFactor": 0
      }
    },
    {
      "doubleSided": true,
      "pbrMetallicRoughness": {
        "baseColorTexture": {
          "index": 1
        },
        "metallicFactor": 0
      }
    }
  ],
  "meshes": [
    {
      "name": "20525362525142404051_0",
      "primitives": [
        {
          "attributes": {
            "POSITION": 0,
            "NORMAL": 1,
            "TEXCOORD_0": 2
          },
          "indices": 3,
          "material": 0
        }
      ]
    },
    {
      "name": "20525362525142404051_1",
      "primitives": [
        {
          "attributes": {
            "POSITION": 4,
            "NORMAL": 5,
            "TEXCOORD_0": 6
          },
          "indices": 7,
          "material": 1
        }
      ]
    }
  ],
  "nodes": [
    {
      "mesh": 0
    },
    {
      "mesh": 1
    }
  ],
  "scene": 0,
  "scenes": [
    {
      "nodes": [
        0,
        1
      ]
    }
  ],
  "textures": [
    {
      "source": 0
    },
    {
      "source": 1
    }
  ]
}