{
  "asset": {
    "copyright": "",
    "generator": "SharpGLTF 1.0.0",
    "version": "2.0"
  },
  "accessors": [
    {
      "name": "POSITION",
      "bufferView": 0,
      "componentType": 5126,
      "count": 1158,
      "max": [
        -356.19207763671875,
        37.836498260498047,
        178.76373291015625
      ],
      "min": [
        -389.23422241210938,
        36.600502014160156,
        152.86570739746094
      ],
      "type": "VEC3"
    },
    {
      "name": "NORMAL",
      "bufferView": 0,
      "byteOffset": 12,
      "componentType": 5126,
      "count": 1158,
      "max": [
        0.91900789737701416,
        0.99998480081558228,
        0.99672669172286987
      ],
      "min": [
        -0.99528002738952637,
        -0.38980755209922791,
        -0.99798011779785156
      ],
      "type": "VEC3"
    },
    {
      "name": "TEXCOORD_0",
      "bufferView": 0,
      "byteOffset": 24,
      "componentType": 5126,
      "count": 1158,
      "max": [
        0.998046875,
        0.998046875
      ],
      "min": [
        0.001953125,
        0.431640625
      ],
      "type": "VEC2"
    },
    {
      "bufferView": 1,
      "componentType": 5123,
      "count": 2961,
      "type": "SCALAR"
    }
  ],
  "bufferViews": [
    {
      "buffer": 0,
      "byteLength": 37056,
      "byteStride": 32,
      "target": 34962
    },
    {
      "buffer": 0,
      "byteLength": 5922,
      "byteOffset": 37056,
      "target": 34963
    }
  ],
  "buffers": [
    {
      "byteLength": 42980,
      "uri": "20525362525051735243_LOD00.bin"
    }
  ],
  "images": [
    {
      "uri": "20525362525051735243_LOD00.png"
    }
  ],
  "materials": [
    {
      "doubleSided": true,
      "pbrMetallicRoughness": {
        "baseColorTexture": {
          "index": 0
        },
        "metallicFactor": 0
      }
    }
  ],
  "meshes": [
    {
      "name": "20525362525051735243_0",
      "primitives": [
        {
          "attributes": {
            "POSITION": 0,
            "NORMAL": 1,
            "TEXCOORD_0": 2
          },
          "indices": 3,
          "material": 0
        }
      ]
    }
  ],
  "nodes": [
    {
      "mesh": 0
    }
  ],
  "scene": 0,
  "scenes": [
    {
      "nodes": [
        0
      ]
    }
  ],
  "textures": [
    {
      "source": 0
    }
  ]
}