{
  "asset": {
    "copyright": "",
    "generator": "SharpGLTF 1.0.0",
    "version": "2.0"
  },
  "accessors": [
    {
      "name": "POSITION",
      "bufferView": 0,
      "byteOffset": 121088,
      "componentType": 5126,
      "count": 2521,
      "max": [
        -516.9996337890625,
        71.948348999023438,
        229.78219604492188
      ],
      "min": [
        -549.27276611328125,
        37.806713104248047,
        191.39804077148438
      ],
      "type": "VEC3"
    },
    {
      "name": "NORMAL",
      "bufferView": 0,
      "byteOffset": 121100,
      "componentType": 5126,
      "count": 2521,
      "max": [
        0.99999260902404785,
        0.99998486042022705,
        0.99999207258224487
      ],
      "min": [
        -0.99999183416366577,
        -1,
        -0.99999237060546875
      ],
      "type": "VEC3"
    },
    {
      "name": "TEXCOORD_0",
      "bufferView": 0,
      "byteOffset": 121112,
      "componentType": 5126,
      "count": 2521,
      "max": [
        0.9990234375,
        0.9990234375
      ],
      "min": [
        0.0009765625,
        0.0009765625
      ],
      "type": "VEC2"
    },
    {
      "bufferView": 1,
      "byteOffset": 19002,
      "componentType": 5123,
      "count": 5385,
      "type": "SCALAR"
    },
    {
      "name": "POSITION",
      "bufferView": 0,
      "componentType": 5126,
      "count": 3784,
      "max": [
        -517.1531982421875,
        71.948348999023438,
        229.78219604492188
      ],
      "min": [
        -549.27264404296875,
        37.809055328369141,
        191.55096435546875
      ],
      "type": "VEC3"
    },
    {
      "name": "NORMAL",
      "bufferView": 0,
      "byteOffset": 12,
      "componentType": 5126,
      "count": 3784,
      "max": [
        0.99999260902404785,
        0.99998486042022705,
        0.99999207258224487
      ],
      "min": [
        -0.99999183416366577,
        -1,
        -0.99999237060546875
      ],
      "type": "VEC3"
    },
    {
      "name": "TEXCOORD_0",
      "bufferView": 0,
      "byteOffset": 24,
      "componentType": 5126,
      "count": 3784,
      "max": [
        0.998046875,
        0.9990234375
      ],
      "min": [
        0.001953125,
        0.0009765625
      ],
      "type": "VEC2"
    },
    {
      "bufferView": 1,
      "componentType": 5123,
      "count": 9501,
      "type": "SCALAR"
    },
    {
      "name": "POSITION",
      "bufferView": 0,
      "byteOffset": 201760,
      "componentType": 5126,
      "count": 1812,
      "max": [
        -517.1549072265625,
        71.9482421875,
        229.78169250488281
      ],
      "min": [
        -549.2724609375,
        38.734977722167969,
        191.39651489257813
      ],
      "type": "VEC3"
    },
    {
      "name": "NORMAL",
      "bufferView": 0,
      "byteOffset": 201772,
      "componentType": 5126,
      "count": 1812,
      "max": [
        0.99999260902404785,
        0.99998486042022705,
        0.99999207258224487
      ],
      "min": [
        -0.99999183416366577,
        -0.99124681949615479,
        -0.99999237060546875
      ],
      "type": "VEC3"
    },
    {
      "name": "TEXCOORD_0",
      "bufferView": 0,
      "byteOffset": 201784,
      "componentType": 5126,
      "count": 1812,
      "max": [
        0.998046875,
        0.998046875
      ],
      "min": [
        0.001953125,
        0.263671875
      ],
      "type": "VEC2"
    },
    {
      "bufferView": 1,
      "byteOffset": 29772,
      "componentType": 5123,
      "count": 4083,
      "type": "SCALAR"
    }
  ],
  "bufferViews": [
    {
      "buffer": 0,
      "byteLength": 259744,
      "byteStride": 32,
      "target": 34962
    },
    {
      "buffer": 0,
      "byteLength": 37938,
      "byteOffset": 259744,
      "target": 34963
    }
  ],
  "buffers": [
    {
      "byteLength": 297684,
      "uri": "20525362525051735374_LOD00.bin"
    }
  ],
  "images": [
    {
      "uri": "20525362525051735374_LOD00_0.png"
    },
    {
      "uri": "20525362525051735374_LOD00_1.png"
    },
    {
      "uri": "20525362525051735374_LOD00_2.png"
    }
  ],
  "materials": [
    {
      "doubleSided": true,
      "pbrMetallicRoughness": {
        "baseColorTexture": {
          "index": 0
        },
        "metallicFactor": 0
      }
    },
    {
      "doubleSided": true,
      "pbrMetallicRoughness": {
        "baseColorTexture": {
          "index": 1
        },
        "metallicFactor": 0
      }
    },
    {
      "doubleSided": true,
      "pbrMetallicRoughness": {
        "baseColorTexture": {
          "index": 2
        },
        "metallicFactor": 0
      }
    }
  ],
  "meshes": [
    {
      "name": "20525362525051735374_0",
      "primitives": [
        {
          "attributes": {
            "POSITION": 0,
            "NORMAL": 1,
            "TEXCOORD_0": 2
          },
          "indices": 3,
          "material": 0
        }
      ]
    },
    {
      "name": "20525362525051735374_1",
      "primitives": [
        {
          "attributes": {
            "POSITION": 4,
            "NORMAL": 5,
            "TEXCOORD_0": 6
          },
          "indices": 7,
          "material": 1
        }
      ]
    },
    {
      "name": "20525362525051735374_2",
      "primitives": [
        {
          "attributes": {
            "POSITION": 8,
            "NORMAL": 9,
            "TEXCOORD_0": 10
          },
          "indices": 11,
          "material": 2
        }
      ]
    }
  ],
  "nodes": [
    {
      "mesh": 0
    },
    {
      "mesh": 1
    },
    {
      "mesh": 2
    }
  ],
  "scene": 0,
  "scenes": [
    {
      "nodes": [
        0,
        1,
        2
      ]
    }
  ],
  "textures": [
    {
      "source": 0
    },
    {
      "source": 1
    },
    {
      "source": 2
    }
  ]
}