{
  "asset": {
    "copyright": "",
    "generator": "SharpGLTF 1.0.0",
    "version": "2.0"
  },
  "accessors": [
    {
      "name": "POSITION",
      "bufferView": 0,
      "componentType": 5126,
      "count": 427,
      "max": [
        -3.5516726970672607,
        37.841991424560547,
        267.98275756835938
      ],
      "min": [
        -35.667148590087891,
        27.800983428955078,
        229.75205993652344
      ],
      "type": "VEC3"
    },
    {
      "name": "NORMAL",
      "bufferView": 0,
      "byteOffset": 12,
      "componentType": 5126,
      "count": 427,
      "max": [
        0.99485975503921509,
        0.99998462200164795,
        0.99999207258224487
      ],
      "min": [
        -0.76689040660858154,
        -1,
        -0.94751495122909546
      ],
      "type": "VEC3"
    },
    {
      "name": "TEXCOORD_0",
      "bufferView": 0,
      "byteOffset": 24,
      "componentType": 5126,
      "count": 427,
      "max": [
        0.9091796875,
        0.9990234375
      ],
      "min": [
        0.0009765625,
        0.0322265625
      ],
      "type": "VEC2"
    },
    {
      "bufferView": 1,
      "componentType": 5123,
      "count": 1089,
      "type": "SCALAR"
    }
  ],
  "bufferViews": [
    {
      "buffer": 0,
      "byteLength": 13664,
      "byteStride": 32,
      "target": 34962
    },
    {
      "buffer": 0,
      "byteLength": 2178,
      "byteOffset": 13664,
      "target": 34963
    }
  ],
  "buffers": [
    {
      "byteLength": 15844,
      "uri": "20525362525051725372_LOD00.bin"
    }
  ],
  "images": [
    {
      "uri": "20525362525051725372_LOD00.png"
    }
  ],
  "materials": [
    {
      "doubleSided": true,
      "pbrMetallicRoughness": {
        "baseColorTexture": {
          "index": 0
        },
        "metallicFactor": 0
      }
    }
  ],
  "meshes": [
    {
      "name": "20525362525051725372_0",
      "primitives": [
        {
          "attributes": {
            "POSITION": 0,
            "NORMAL": 1,
            "TEXCOORD_0": 2
          },
          "indices": 3,
          "material": 0
        }
      ]
    }
  ],
  "nodes": [
    {
      "mesh": 0
    }
  ],
  "scene": 0,
  "scenes": [
    {
      "nodes": [
        0
      ]
    }
  ],
  "textures": [
    {
      "source": 0
    }
  ]
}