{
  "asset": {
    "copyright": "",
    "generator": "SharpGLTF 1.0.0",
    "version": "2.0"
  },
  "accessors": [
    {
      "name": "POSITION",
      "bufferView": 0,
      "componentType": 5126,
      "count": 1899,
      "max": [
        -99.853347778320313,
        38.3096923828125,
        39.155731201171875
      ],
      "min": [
        -132.43307495117188,
        31.048809051513672,
        0.6172444224357605
      ],
      "type": "VEC3"
    },
    {
      "name": "NORMAL",
      "bufferView": 0,
      "byteOffset": 12,
      "componentType": 5126,
      "count": 1899,
      "max": [
        0.98738735914230347,
        0.99998444318771362,
        0.99999213218688965
      ],
      "min": [
        -0.99999219179153442,
        -1,
        -0.99914968013763428
      ],
      "type": "VEC3"
    },
    {
      "name": "TEXCOORD_0",
      "bufferView": 0,
      "byteOffset": 24,
      "componentType": 5126,
      "count": 1899,
      "max": [
        0.998046875,
        0.998046875
      ],
      "min": [
        0.001953125,
        0.291015625
      ],
      "type": "VEC2"
    },
    {
      "bufferView": 1,
      "componentType": 5123,
      "count": 5055,
      "type": "SCALAR"
    }
  ],
  "bufferViews": [
    {
      "buffer": 0,
      "byteLength": 60768,
      "byteStride": 32,
      "target": 34962
    },
    {
      "buffer": 0,
      "byteLength": 10110,
      "byteOffset": 60768,
      "target": 34963
    }
  ],
  "buffers": [
    {
      "byteLength": 70880,
      "uri": "20525362525051734043_LOD00.bin"
    }
  ],
  "images": [
    {
      "uri": "20525362525051734043_LOD00.png"
    }
  ],
  "materials": [
    {
      "doubleSided": true,
      "pbrMetallicRoughness": {
        "baseColorTexture": {
          "index": 0
        },
        "metallicFactor": 0
      }
    }
  ],
  "meshes": [
    {
      "name": "20525362525051734043_0",
      "primitives": [
        {
          "attributes": {
            "POSITION": 0,
            "NORMAL": 1,
            "TEXCOORD_0": 2
          },
          "indices": 3,
          "material": 0
        }
      ]
    }
  ],
  "nodes": [
    {
      "mesh": 0
    }
  ],
  "scene": 0,
  "scenes": [
    {
      "nodes": [
        0
      ]
    }
  ],
  "textures": [
    {
      "source": 0
    }
  ]
}