{
  "asset": {
    "copyright": "",
    "generator": "SharpGLTF 1.0.0",
    "version": "2.0"
  },
  "accessors": [
    {
      "name": "POSITION",
      "bufferView": 0,
      "componentType": 5126,
      "count": 5996,
      "max": [
        -388.29388427734375,
        64.542625427246094,
        115.28483581542969
      ],
      "min": [
        -421.02987670898438,
        37.355220794677734,
        76.436820983886719
      ],
      "type": "VEC3"
    },
    {
      "name": "NORMAL",
      "bufferView": 0,
      "byteOffset": 12,
      "componentType": 5126,
      "count": 5996,
      "max": [
        0.99999243021011353,
        0.99998462200164795,
        0.99999219179153442
      ],
      "min": [
        -0.99931949377059937,
        -0.99641388654708862,
        -0.9999922513961792
      ],
      "type": "VEC3"
    },
    {
      "name": "TEXCOORD_0",
      "bufferView": 0,
      "byteOffset": 24,
      "componentType": 5126,
      "count": 5996,
      "max": [
        0.998046875,
        0.9990234375
      ],
      "min": [
        0.001953125,
        0.0009765625
      ],
      "type": "VEC2"
    },
    {
      "bufferView": 1,
      "componentType": 5123,
      "count": 14211,
      "type": "SCALAR"
    },
    {
      "name": "POSITION",
      "bufferView": 0,
      "byteOffset": 191872,
      "componentType": 5126,
      "count": 390,
      "max": [
        -388.60324096679688,
        60.680774688720703,
        115.13119506835938
      ],
      "min": [
        -420.87557983398438,
        37.818611145019531,
        76.900245666503906
      ],
      "type": "VEC3"
    },
    {
      "name": "NORMAL",
      "bufferView": 0,
      "byteOffset": 191884,
      "componentType": 5126,
      "count": 390,
      "max": [
        0.9991573691368103,
        0.99998408555984497,
        0.99175417423248291
      ],
      "min": [
        -0.99598813056945801,
        -0.98937666416168213,
        -0.99672424793243408
      ],
      "type": "VEC3"
    },
    {
      "name": "TEXCOORD_0",
      "bufferView": 0,
      "byteOffset": 191896,
      "componentType": 5126,
      "count": 390,
      "max": [
        0.998046875,
        0.998046875
      ],
      "min": [
        0.001953125,
        0.904296875
      ],
      "type": "VEC2"
    },
    {
      "bufferView": 1,
      "byteOffset": 28422,
      "componentType": 5123,
      "count": 741,
      "type": "SCALAR"
    }
  ],
  "bufferViews": [
    {
      "buffer": 0,
      "byteLength": 204352,
      "byteStride": 32,
      "target": 34962
    },
    {
      "buffer": 0,
      "byteLength": 29904,
      "byteOffset": 204352,
      "target": 34963
    }
  ],
  "buffers": [
    {
      "byteLength": 234256,
      "uri": "20525362525051735076_LOD00.bin"
    }
  ],
  "images": [
    {
      "uri": "20525362525051735076_LOD00_0.png"
    },
    {
      "uri": "20525362525051735076_LOD00_1.png"
    }
  ],
  "materials": [
    {
      "doubleSided": true,
      "pbrMetallicRoughness": {
        "baseColorTexture": {
          "index": 0
        },
        "metallicFactor": 0
      }
    },
    {
      "doubleSided": true,
      "pbrMetallicRoughness": {
        "baseColorTexture": {
          "index": 1
        },
        "metallicFactor": 0
      }
    }
  ],
  "meshes": [
    {
      "name": "20525362525051735076_0",
      "primitives": [
        {
          "attributes": {
            "POSITION": 0,
            "NORMAL": 1,
            "TEXCOORD_0": 2
          },
          "indices": 3,
          "material": 0
        }
      ]
    },
    {
      "name": "20525362525051735076_1",
      "primitives": [
        {
          "attributes": {
            "POSITION": 4,
            "NORMAL": 5,
            "TEXCOORD_0": 6
          },
          "indices": 7,
          "material": 1
        }
      ]
    }
  ],
  "nodes": [
    {
      "mesh": 0
    },
    {
      "mesh": 1
    }
  ],
  "scene": 0,
  "scenes": [
    {
      "nodes": [
        0,
        1
      ]
    }
  ],
  "textures": [
    {
      "source": 0
    },
    {
      "source": 1
    }
  ]
}