{
  "asset": {
    "copyright": "",
    "generator": "SharpGLTF 1.0.0",
    "version": "2.0"
  },
  "accessors": [
    {
      "name": "POSITION",
      "bufferView": 0,
      "componentType": 5126,
      "count": 1002,
      "max": [
        -517.139404296875,
        77.321319580078125,
        559.38232421875
      ],
      "min": [
        -523.16217041015625,
        74.07574462890625,
        535.0252685546875
      ],
      "type": "VEC3"
    },
    {
      "name": "NORMAL",
      "bufferView": 0,
      "byteOffset": 12,
      "componentType": 5126,
      "count": 1002,
      "max": [
        0.99817812442779541,
        0.99998503923416138,
        0.99897736310958862
      ],
      "min": [
        -0.99999189376831055,
        -0.98493164777755737,
        -0.99914842844009399
      ],
      "type": "VEC3"
    },
    {
      "name": "TEXCOORD_0",
      "bufferView": 0,
      "byteOffset": 24,
      "componentType": 5126,
      "count": 1002,
      "max": [
        0.998046875,
        0.998046875
      ],
      "min": [
        0.001953125,
        0.677734375
      ],
      "type": "VEC2"
    },
    {
      "bufferView": 1,
      "componentType": 5123,
      "count": 2157,
      "type": "SCALAR"
    }
  ],
  "bufferViews": [
    {
      "buffer": 0,
      "byteLength": 32064,
      "byteStride": 32,
      "target": 34962
    },
    {
      "buffer": 0,
      "byteLength": 4314,
      "byteOffset": 32064,
      "target": 34963
    }
  ],
  "buffers": [
    {
      "byteLength": 36380,
      "uri": "20525362525051737732_LOD00.bin"
    }
  ],
  "images": [
    {
      "uri": "20525362525051737732_LOD00.png"
    }
  ],
  "materials": [
    {
      "doubleSided": true,
      "pbrMetallicRoughness": {
        "baseColorTexture": {
          "index": 0
        },
        "metallicFactor": 0
      }
    }
  ],
  "meshes": [
    {
      "name": "20525362525051737732_0",
      "primitives": [
        {
          "attributes": {
            "POSITION": 0,
            "NORMAL": 1,
            "TEXCOORD_0": 2
          },
          "indices": 3,
          "material": 0
        }
      ]
    }
  ],
  "nodes": [
    {
      "mesh": 0
    }
  ],
  "scene": 0,
  "scenes": [
    {
      "nodes": [
        0
      ]
    }
  ],
  "textures": [
    {
      "source": 0
    }
  ]
}