{
  "asset": {
    "copyright": "",
    "generator": "SharpGLTF 1.0.0",
    "version": "2.0"
  },
  "accessors": [
    {
      "name": "POSITION",
      "bufferView": 0,
      "componentType": 5126,
      "count": 71,
      "max": [
        -406.66351318359375,
        37.831680297851563,
        227.30900573730469
      ],
      "min": [
        -409.75155639648438,
        37.368179321289063,
        224.38002014160156
      ],
      "type": "VEC3"
    },
    {
      "name": "NORMAL",
      "bufferView": 0,
      "byteOffset": 12,
      "componentType": 5126,
      "count": 71,
      "max": [
        0.86250436305999756,
        0.9977799654006958,
        0.91450285911560059
      ],
      "min": [
        -0.95971381664276123,
        -0.005638717208057642,
        -0.75803267955780029
      ],
      "type": "VEC3"
    },
    {
      "name": "TEXCOORD_0",
      "bufferView": 0,
      "byteOffset": 24,
      "componentType": 5126,
      "count": 71,
      "max": [
        0.248046875,
        0.998046875
      ],
      "min": [
        0.001953125,
        0.927734375
      ],
      "type": "VEC2"
    },
    {
      "bufferView": 1,
      "componentType": 5123,
      "count": 183,
      "type": "SCALAR"
    }
  ],
  "bufferViews": [
    {
      "buffer": 0,
      "byteLength": 2272,
      "byteStride": 32,
      "target": 34962
    },
    {
      "buffer": 0,
      "byteLength": 366,
      "byteOffset": 2272,
      "target": 34963
    }
  ],
  "buffers": [
    {
      "byteLength": 2640,
      "uri": "20525362525051735270_LOD00.bin"
    }
  ],
  "images": [
    {
      "uri": "20525362525051735270_LOD00.png"
    }
  ],
  "materials": [
    {
      "doubleSided": true,
      "pbrMetallicRoughness": {
        "baseColorTexture": {
          "index": 0
        },
        "metallicFactor": 0
      }
    }
  ],
  "meshes": [
    {
      "name": "20525362525051735270_0",
      "primitives": [
        {
          "attributes": {
            "POSITION": 0,
            "NORMAL": 1,
            "TEXCOORD_0": 2
          },
          "indices": 3,
          "material": 0
        }
      ]
    }
  ],
  "nodes": [
    {
      "mesh": 0
    }
  ],
  "scene": 0,
  "scenes": [
    {
      "nodes": [
        0
      ]
    }
  ],
  "textures": [
    {
      "source": 0
    }
  ]
}