{
  "asset": {
    "copyright": "",
    "generator": "SharpGLTF 1.0.0",
    "version": "2.0"
  },
  "accessors": [
    {
      "name": "POSITION",
      "bufferView": 0,
      "componentType": 5126,
      "count": 1216,
      "max": [
        -741.86859130859375,
        74.245826721191406,
        38.720001220703125
      ],
      "min": [
        -773.98712158203125,
        37.789009094238281,
        0.48911267518997192
      ],
      "type": "VEC3"
    },
    {
      "name": "NORMAL",
      "bufferView": 0,
      "byteOffset": 12,
      "componentType": 5126,
      "count": 1216,
      "max": [
        0.99999266862869263,
        0.99998486042022705,
        0.99999219179153442
      ],
      "min": [
        -0.99999183416366577,
        -1,
        -0.99999219179153442
      ],
      "type": "VEC3"
    },
    {
      "name": "TEXCOORD_0",
      "bufferView": 0,
      "byteOffset": 24,
      "componentType": 5126,
      "count": 1216,
      "max": [
        0.998046875,
        0.9990234375
      ],
      "min": [
        0.001953125,
        0.0009765625
      ],
      "type": "VEC2"
    },
    {
      "bufferView": 1,
      "componentType": 5123,
      "count": 2508,
      "type": "SCALAR"
    },
    {
      "name": "POSITION",
      "bufferView": 0,
      "byteOffset": 38912,
      "componentType": 5126,
      "count": 825,
      "max": [
        -741.86785888671875,
        65.285972595214844,
        38.721729278564453
      ],
      "min": [
        -773.98577880859375,
        38.871009826660156,
        0.48869797587394714
      ],
      "type": "VEC3"
    },
    {
      "name": "NORMAL",
      "bufferView": 0,
      "byteOffset": 38924,
      "componentType": 5126,
      "count": 825,
      "max": [
        0.99915903806686401,
        0.99998486042022705,
        0.99817311763763428
      ],
      "min": [
        -0.99999183416366577,
        -1,
        -0.99999219179153442
      ],
      "type": "VEC3"
    },
    {
      "name": "TEXCOORD_0",
      "bufferView": 0,
      "byteOffset": 38936,
      "componentType": 5126,
      "count": 825,
      "max": [
        0.998046875,
        0.998046875
      ],
      "min": [
        0.001953125,
        0.056640625
      ],
      "type": "VEC2"
    },
    {
      "bufferView": 1,
      "byteOffset": 5016,
      "componentType": 5123,
      "count": 2115,
      "type": "SCALAR"
    }
  ],
  "bufferViews": [
    {
      "buffer": 0,
      "byteLength": 65312,
      "byteStride": 32,
      "target": 34962
    },
    {
      "buffer": 0,
      "byteLength": 9246,
      "byteOffset": 65312,
      "target": 34963
    }
  ],
  "buffers": [
    {
      "byteLength": 74560,
      "uri": "20525362525140624147_LOD00.bin"
    }
  ],
  "images": [
    {
      "uri": "20525362525140624147_LOD00_0.png"
    },
    {
      "uri": "20525362525140624147_LOD00_1.png"
    }
  ],
  "materials": [
    {
      "doubleSided": true,
      "pbrMetallicRoughness": {
        "baseColorTexture": {
          "index": 0
        },
        "metallicFactor": 0
      }
    },
    {
      "doubleSided": true,
      "pbrMetallicRoughness": {
        "baseColorTexture": {
          "index": 1
        },
        "metallicFactor": 0
      }
    }
  ],
  "meshes": [
    {
      "name": "20525362525140624147_0",
      "primitives": [
        {
          "attributes": {
            "POSITION": 0,
            "NORMAL": 1,
            "TEXCOORD_0": 2
          },
          "indices": 3,
          "material": 0
        }
      ]
    },
    {
      "name": "20525362525140624147_1",
      "primitives": [
        {
          "attributes": {
            "POSITION": 4,
            "NORMAL": 5,
            "TEXCOORD_0": 6
          },
          "indices": 7,
          "material": 1
        }
      ]
    }
  ],
  "nodes": [
    {
      "mesh": 0
    },
    {
      "mesh": 1
    }
  ],
  "scene": 0,
  "scenes": [
    {
      "nodes": [
        0,
        1
      ]
    }
  ],
  "textures": [
    {
      "source": 0
    },
    {
      "source": 1
    }
  ]
}