{
  "asset": {
    "copyright": "",
    "generator": "SharpGLTF 1.0.0",
    "version": "2.0"
  },
  "accessors": [
    {
      "name": "POSITION",
      "bufferView": 0,
      "componentType": 5126,
      "count": 4554,
      "max": [
        -420.69488525390625,
        66.23040771484375,
        382.63885498046875
      ],
      "min": [
        -452.96466064453125,
        37.807601928710938,
        344.40634155273438
      ],
      "type": "VEC3"
    },
    {
      "name": "NORMAL",
      "bufferView": 0,
      "byteOffset": 12,
      "componentType": 5126,
      "count": 4554,
      "max": [
        0.9999924898147583,
        0.99998486042022705,
        0.9999920129776001
      ],
      "min": [
        -0.99999195337295532,
        -1,
        -0.99999243021011353
      ],
      "type": "VEC3"
    },
    {
      "name": "TEXCOORD_0",
      "bufferView": 0,
      "byteOffset": 24,
      "componentType": 5126,
      "count": 4554,
      "max": [
        0.9990234375,
        0.9990234375
      ],
      "min": [
        0.0009765625,
        0.0009765625
      ],
      "type": "VEC2"
    },
    {
      "bufferView": 1,
      "componentType": 5123,
      "count": 10533,
      "type": "SCALAR"
    },
    {
      "name": "POSITION",
      "bufferView": 0,
      "byteOffset": 145728,
      "componentType": 5126,
      "count": 537,
      "max": [
        -420.84823608398438,
        66.076042175292969,
        382.63693237304688
      ],
      "min": [
        -452.96414184570313,
        42.133777618408203,
        344.40652465820313
      ],
      "type": "VEC3"
    },
    {
      "name": "NORMAL",
      "bufferView": 0,
      "byteOffset": 145740,
      "componentType": 5126,
      "count": 537,
      "max": [
        0.9999924898147583,
        0.99998486042022705,
        0.9999920129776001
      ],
      "min": [
        -0.99999195337295532,
        -0.98940640687942505,
        -0.99999243021011353
      ],
      "type": "VEC3"
    },
    {
      "name": "TEXCOORD_0",
      "bufferView": 0,
      "byteOffset": 145752,
      "componentType": 5126,
      "count": 537,
      "max": [
        0.998046875,
        0.998046875
      ],
      "min": [
        0.001953125,
        0.814453125
      ],
      "type": "VEC2"
    },
    {
      "bufferView": 1,
      "byteOffset": 21066,
      "componentType": 5123,
      "count": 1125,
      "type": "SCALAR"
    }
  ],
  "bufferViews": [
    {
      "buffer": 0,
      "byteLength": 162912,
      "byteStride": 32,
      "target": 34962
    },
    {
      "buffer": 0,
      "byteLength": 23316,
      "byteOffset": 162912,
      "target": 34963
    }
  ],
  "buffers": [
    {
      "byteLength": 186228,
      "uri": "20525362525051737075_LOD00.bin"
    }
  ],
  "images": [
    {
      "uri": "20525362525051737075_LOD00_0.png"
    },
    {
      "uri": "20525362525051737075_LOD00_1.png"
    }
  ],
  "materials": [
    {
      "doubleSided": true,
      "pbrMetallicRoughness": {
        "baseColorTexture": {
          "index": 0
        },
        "metallicFactor": 0
      }
    },
    {
      "doubleSided": true,
      "pbrMetallicRoughness": {
        "baseColorTexture": {
          "index": 1
        },
        "metallicFactor": 0
      }
    }
  ],
  "meshes": [
    {
      "name": "20525362525051737075_0",
      "primitives": [
        {
          "attributes": {
            "POSITION": 0,
            "NORMAL": 1,
            "TEXCOORD_0": 2
          },
          "indices": 3,
          "material": 0
        }
      ]
    },
    {
      "name": "20525362525051737075_1",
      "primitives": [
        {
          "attributes": {
            "POSITION": 4,
            "NORMAL": 5,
            "TEXCOORD_0": 6
          },
          "indices": 7,
          "material": 1
        }
      ]
    }
  ],
  "nodes": [
    {
      "mesh": 0
    },
    {
      "mesh": 1
    }
  ],
  "scene": 0,
  "scenes": [
    {
      "nodes": [
        0,
        1
      ]
    }
  ],
  "textures": [
    {
      "source": 0
    },
    {
      "source": 1
    }
  ]
}