{
  "asset": {
    "copyright": "",
    "generator": "SharpGLTF 1.0.0",
    "version": "2.0"
  },
  "accessors": [
    {
      "name": "POSITION",
      "bufferView": 0,
      "componentType": 5126,
      "count": 3472,
      "max": [
        -613.28314208984375,
        74.24176025390625,
        535.662841796875
      ],
      "min": [
        -645.55291748046875,
        42.414703369140625,
        497.27566528320313
      ],
      "type": "VEC3"
    },
    {
      "name": "NORMAL",
      "bufferView": 0,
      "byteOffset": 12,
      "componentType": 5126,
      "count": 3472,
      "max": [
        0.99999260902404785,
        0.99998515844345093,
        0.99999189376831055
      ],
      "min": [
        -0.99999189376831055,
        -1,
        -0.99999254941940308
      ],
      "type": "VEC3"
    },
    {
      "name": "TEXCOORD_0",
      "bufferView": 0,
      "byteOffset": 24,
      "componentType": 5126,
      "count": 3472,
      "max": [
        0.9990234375,
        0.9990234375
      ],
      "min": [
        0.0009765625,
        0.0009765625
      ],
      "type": "VEC2"
    },
    {
      "bufferView": 1,
      "componentType": 5123,
      "count": 8055,
      "type": "SCALAR"
    },
    {
      "name": "POSITION",
      "bufferView": 0,
      "byteOffset": 111104,
      "componentType": 5126,
      "count": 641,
      "max": [
        -613.436279296875,
        67.288894653320313,
        535.50830078125
      ],
      "min": [
        -645.5517578125,
        45.813365936279297,
        497.27743530273438
      ],
      "type": "VEC3"
    },
    {
      "name": "NORMAL",
      "bufferView": 0,
      "byteOffset": 111116,
      "componentType": 5126,
      "count": 641,
      "max": [
        0.99999260902404785,
        0.99998515844345093,
        0.99634134769439697
      ],
      "min": [
        -0.99999189376831055,
        -1,
        -0.99999254941940308
      ],
      "type": "VEC3"
    },
    {
      "name": "TEXCOORD_0",
      "bufferView": 0,
      "byteOffset": 111128,
      "componentType": 5126,
      "count": 641,
      "max": [
        0.998046875,
        0.998046875
      ],
      "min": [
        0.001953125,
        0.732421875
      ],
      "type": "VEC2"
    },
    {
      "bufferView": 1,
      "byteOffset": 16110,
      "componentType": 5123,
      "count": 1380,
      "type": "SCALAR"
    }
  ],
  "bufferViews": [
    {
      "buffer": 0,
      "byteLength": 131616,
      "byteStride": 32,
      "target": 34962
    },
    {
      "buffer": 0,
      "byteLength": 18870,
      "byteOffset": 131616,
      "target": 34963
    }
  ],
  "buffers": [
    {
      "byteLength": 150488,
      "uri": "20525362525140626265_LOD00.bin"
    }
  ],
  "images": [
    {
      "uri": "20525362525140626265_LOD00_0.png"
    },
    {
      "uri": "20525362525140626265_LOD00_1.png"
    }
  ],
  "materials": [
    {
      "doubleSided": true,
      "pbrMetallicRoughness": {
        "baseColorTexture": {
          "index": 0
        },
        "metallicFactor": 0
      }
    },
    {
      "doubleSided": true,
      "pbrMetallicRoughness": {
        "baseColorTexture": {
          "index": 1
        },
        "metallicFactor": 0
      }
    }
  ],
  "meshes": [
    {
      "name": "20525362525140626265_0",
      "primitives": [
        {
          "attributes": {
            "POSITION": 0,
            "NORMAL": 1,
            "TEXCOORD_0": 2
          },
          "indices": 3,
          "material": 0
        }
      ]
    },
    {
      "name": "20525362525140626265_1",
      "primitives": [
        {
          "attributes": {
            "POSITION": 4,
            "NORMAL": 5,
            "TEXCOORD_0": 6
          },
          "indices": 7,
          "material": 1
        }
      ]
    }
  ],
  "nodes": [
    {
      "mesh": 0
    },
    {
      "mesh": 1
    }
  ],
  "scene": 0,
  "scenes": [
    {
      "nodes": [
        0,
        1
      ]
    }
  ],
  "textures": [
    {
      "source": 0
    },
    {
      "source": 1
    }
  ]
}