{
  "asset": {
    "copyright": "",
    "generator": "SharpGLTF 1.0.0",
    "version": "2.0"
  },
  "accessors": [
    {
      "name": "POSITION",
      "bufferView": 0,
      "componentType": 5126,
      "count": 1053,
      "max": [
        -677.63934326171875,
        74.240501403808594,
        459.08251953125
      ],
      "min": [
        -709.75799560546875,
        37.779869079589844,
        420.84954833984375
      ],
      "type": "VEC3"
    },
    {
      "name": "NORMAL",
      "bufferView": 0,
      "byteOffset": 12,
      "componentType": 5126,
      "count": 1053,
      "max": [
        0.99999266862869263,
        0.99998515844345093,
        0.99999195337295532
      ],
      "min": [
        -0.999991774559021,
        -1,
        -0.9993126392364502
      ],
      "type": "VEC3"
    },
    {
      "name": "TEXCOORD_0",
      "bufferView": 0,
      "byteOffset": 24,
      "componentType": 5126,
      "count": 1053,
      "max": [
        0.998046875,
        0.9990234375
      ],
      "min": [
        0.001953125,
        0.0009765625
      ],
      "type": "VEC2"
    },
    {
      "bufferView": 1,
      "componentType": 5123,
      "count": 2511,
      "type": "SCALAR"
    },
    {
      "name": "POSITION",
      "bufferView": 0,
      "byteOffset": 33696,
      "componentType": 5126,
      "count": 593,
      "max": [
        -677.63909912109375,
        74.24041748046875,
        459.08126831054688
      ],
      "min": [
        -709.7584228515625,
        43.962932586669922,
        420.85009765625
      ],
      "type": "VEC3"
    },
    {
      "name": "NORMAL",
      "bufferView": 0,
      "byteOffset": 33708,
      "componentType": 5126,
      "count": 593,
      "max": [
        0.99999266862869263,
        0.99998515844345093,
        0.99999195337295532
      ],
      "min": [
        -0.99179136753082275,
        -1,
        -0.98822504281997681
      ],
      "type": "VEC3"
    },
    {
      "name": "TEXCOORD_0",
      "bufferView": 0,
      "byteOffset": 33720,
      "componentType": 5126,
      "count": 593,
      "max": [
        0.998046875,
        0.998046875
      ],
      "min": [
        0.001953125,
        0.556640625
      ],
      "type": "VEC2"
    },
    {
      "bufferView": 1,
      "byteOffset": 5022,
      "componentType": 5123,
      "count": 1419,
      "type": "SCALAR"
    }
  ],
  "bufferViews": [
    {
      "buffer": 0,
      "byteLength": 52672,
      "byteStride": 32,
      "target": 34962
    },
    {
      "buffer": 0,
      "byteLength": 7860,
      "byteOffset": 52672,
      "target": 34963
    }
  ],
  "buffers": [
    {
      "byteLength": 60532,
      "uri": "20525362525140626255_LOD00.bin"
    }
  ],
  "images": [
    {
      "uri": "20525362525140626255_LOD00_0.png"
    },
    {
      "uri": "20525362525140626255_LOD00_1.png"
    }
  ],
  "materials": [
    {
      "doubleSided": true,
      "pbrMetallicRoughness": {
        "baseColorTexture": {
          "index": 0
        },
        "metallicFactor": 0
      }
    },
    {
      "doubleSided": true,
      "pbrMetallicRoughness": {
        "baseColorTexture": {
          "index": 1
        },
        "metallicFactor": 0
      }
    }
  ],
  "meshes": [
    {
      "name": "20525362525140626255_0",
      "primitives": [
        {
          "attributes": {
            "POSITION": 0,
            "NORMAL": 1,
            "TEXCOORD_0": 2
          },
          "indices": 3,
          "material": 0
        }
      ]
    },
    {
      "name": "20525362525140626255_1",
      "primitives": [
        {
          "attributes": {
            "POSITION": 4,
            "NORMAL": 5,
            "TEXCOORD_0": 6
          },
          "indices": 7,
          "material": 1
        }
      ]
    }
  ],
  "nodes": [
    {
      "mesh": 0
    },
    {
      "mesh": 1
    }
  ],
  "scene": 0,
  "scenes": [
    {
      "nodes": [
        0,
        1
      ]
    }
  ],
  "textures": [
    {
      "source": 0
    },
    {
      "source": 1
    }
  ]
}