{
  "asset": {
    "copyright": "",
    "generator": "SharpGLTF 1.0.0",
    "version": "2.0"
  },
  "accessors": [
    {
      "name": "POSITION",
      "bufferView": 0,
      "componentType": 5126,
      "count": 3047,
      "max": [
        -492.77017211914063,
        108.07370758056641,
        382.64407348632813
      ],
      "min": [
        -517.1671142578125,
        74.243240356445313,
        356.43487548828125
      ],
      "type": "VEC3"
    },
    {
      "name": "NORMAL",
      "bufferView": 0,
      "byteOffset": 12,
      "componentType": 5126,
      "count": 3047,
      "max": [
        0.99999260902404785,
        0.9999849796295166,
        0.99438226222991943
      ],
      "min": [
        -0.99932003021240234,
        -0.95668894052505493,
        -0.99999243021011353
      ],
      "type": "VEC3"
    },
    {
      "name": "TEXCOORD_0",
      "bufferView": 0,
      "byteOffset": 24,
      "componentType": 5126,
      "count": 3047,
      "max": [
        0.998046875,
        0.9990234375
      ],
      "min": [
        0.001953125,
        0.0009765625
      ],
      "type": "VEC2"
    },
    {
      "bufferView": 1,
      "componentType": 5123,
      "count": 7908,
      "type": "SCALAR"
    },
    {
      "name": "POSITION",
      "bufferView": 0,
      "byteOffset": 97504,
      "componentType": 5126,
      "count": 796,
      "max": [
        -492.770751953125,
        107.76458740234375,
        382.64309692382813
      ],
      "min": [
        -517.16668701171875,
        74.244331359863281,
        356.43475341796875
      ],
      "type": "VEC3"
    },
    {
      "name": "NORMAL",
      "bufferView": 0,
      "byteOffset": 97516,
      "componentType": 5126,
      "count": 796,
      "max": [
        0.99999260902404785,
        0.9999849796295166,
        0.99365067481994629
      ],
      "min": [
        -0.99932003021240234,
        -0.59399616718292236,
        -0.99999243021011353
      ],
      "type": "VEC3"
    },
    {
      "name": "TEXCOORD_0",
      "bufferView": 0,
      "byteOffset": 97528,
      "componentType": 5126,
      "count": 796,
      "max": [
        0.998046875,
        0.998046875
      ],
      "min": [
        0.001953125,
        0.595703125
      ],
      "type": "VEC2"
    },
    {
      "bufferView": 1,
      "byteOffset": 15816,
      "componentType": 5123,
      "count": 1962,
      "type": "SCALAR"
    }
  ],
  "bufferViews": [
    {
      "buffer": 0,
      "byteLength": 122976,
      "byteStride": 32,
      "target": 34962
    },
    {
      "buffer": 0,
      "byteLength": 19740,
      "byteOffset": 122976,
      "target": 34963
    }
  ],
  "buffers": [
    {
      "byteLength": 142716,
      "uri": "20525362525051737521_LOD00.bin"
    }
  ],
  "images": [
    {
      "uri": "20525362525051737521_LOD00_0.png"
    },
    {
      "uri": "20525362525051737521_LOD00_1.png"
    }
  ],
  "materials": [
    {
      "doubleSided": true,
      "pbrMetallicRoughness": {
        "baseColorTexture": {
          "index": 0
        },
        "metallicFactor": 0
      }
    },
    {
      "doubleSided": true,
      "pbrMetallicRoughness": {
        "baseColorTexture": {
          "index": 1
        },
        "metallicFactor": 0
      }
    }
  ],
  "meshes": [
    {
      "name": "20525362525051737521_0",
      "primitives": [
        {
          "attributes": {
            "POSITION": 0,
            "NORMAL": 1,
            "TEXCOORD_0": 2
          },
          "indices": 3,
          "material": 0
        }
      ]
    },
    {
      "name": "20525362525051737521_1",
      "primitives": [
        {
          "attributes": {
            "POSITION": 4,
            "NORMAL": 5,
            "TEXCOORD_0": 6
          },
          "indices": 7,
          "material": 1
        }
      ]
    }
  ],
  "nodes": [
    {
      "mesh": 0
    },
    {
      "mesh": 1
    }
  ],
  "scene": 0,
  "scenes": [
    {
      "nodes": [
        0,
        1
      ]
    }
  ],
  "textures": [
    {
      "source": 0
    },
    {
      "source": 1
    }
  ]
}