{
  "asset": {
    "copyright": "",
    "generator": "SharpGLTF 1.0.0",
    "version": "2.0"
  },
  "accessors": [
    {
      "name": "POSITION",
      "bufferView": 0,
      "componentType": 5126,
      "count": 4389,
      "max": [
        -677.50054931640625,
        58.492969512939453,
        268.00723266601563
      ],
      "min": [
        -710.234130859375,
        43.044651031494141,
        229.77464294433594
      ],
      "type": "VEC3"
    },
    {
      "name": "NORMAL",
      "bufferView": 0,
      "byteOffset": 12,
      "componentType": 5126,
      "count": 4389,
      "max": [
        0.99999266862869263,
        0.99998492002487183,
        0.99999207258224487
      ],
      "min": [
        -0.99999183416366577,
        -0.97521859407424927,
        -0.99999237060546875
      ],
      "type": "VEC3"
    },
    {
      "name": "TEXCOORD_0",
      "bufferView": 0,
      "byteOffset": 24,
      "componentType": 5126,
      "count": 4389,
      "max": [
        0.998046875,
        0.9990234375
      ],
      "min": [
        0.001953125,
        0.0009765625
      ],
      "type": "VEC2"
    },
    {
      "bufferView": 1,
      "componentType": 5123,
      "count": 10689,
      "type": "SCALAR"
    },
    {
      "name": "POSITION",
      "bufferView": 0,
      "byteOffset": 140448,
      "componentType": 5126,
      "count": 723,
      "max": [
        -677.654052734375,
        58.647239685058594,
        268.00698852539063
      ],
      "min": [
        -709.770751953125,
        43.198684692382813,
        229.776611328125
      ],
      "type": "VEC3"
    },
    {
      "name": "NORMAL",
      "bufferView": 0,
      "byteOffset": 140460,
      "componentType": 5126,
      "count": 723,
      "max": [
        0.99999266862869263,
        0.99998492002487183,
        0.9991527795791626
      ],
      "min": [
        -0.99932116270065308,
        -0.98317503929138184,
        -0.99999237060546875
      ],
      "type": "VEC3"
    },
    {
      "name": "TEXCOORD_0",
      "bufferView": 0,
      "byteOffset": 140472,
      "componentType": 5126,
      "count": 723,
      "max": [
        0.998046875,
        0.998046875
      ],
      "min": [
        0.001953125,
        0.744140625
      ],
      "type": "VEC2"
    },
    {
      "bufferView": 1,
      "byteOffset": 21378,
      "componentType": 5123,
      "count": 1638,
      "type": "SCALAR"
    }
  ],
  "bufferViews": [
    {
      "buffer": 0,
      "byteLength": 163584,
      "byteStride": 32,
      "target": 34962
    },
    {
      "buffer": 0,
      "byteLength": 24654,
      "byteOffset": 163584,
      "target": 34963
    }
  ],
  "buffers": [
    {
      "byteLength": 188240,
      "uri": "20525362525140624277_LOD00.bin"
    }
  ],
  "images": [
    {
      "uri": "20525362525140624277_LOD00_0.png"
    },
    {
      "uri": "20525362525140624277_LOD00_1.png"
    }
  ],
  "materials": [
    {
      "doubleSided": true,
      "pbrMetallicRoughness": {
        "baseColorTexture": {
          "index": 0
        },
        "metallicFactor": 0
      }
    },
    {
      "doubleSided": true,
      "pbrMetallicRoughness": {
        "baseColorTexture": {
          "index": 1
        },
        "metallicFactor": 0
      }
    }
  ],
  "meshes": [
    {
      "name": "20525362525140624277_0",
      "primitives": [
        {
          "attributes": {
            "POSITION": 0,
            "NORMAL": 1,
            "TEXCOORD_0": 2
          },
          "indices": 3,
          "material": 0
        }
      ]
    },
    {
      "name": "20525362525140624277_1",
      "primitives": [
        {
          "attributes": {
            "POSITION": 4,
            "NORMAL": 5,
            "TEXCOORD_0": 6
          },
          "indices": 7,
          "material": 1
        }
      ]
    }
  ],
  "nodes": [
    {
      "mesh": 0
    },
    {
      "mesh": 1
    }
  ],
  "scene": 0,
  "scenes": [
    {
      "nodes": [
        0,
        1
      ]
    }
  ],
  "textures": [
    {
      "source": 0
    },
    {
      "source": 1
    }
  ]
}