{
  "asset": {
    "copyright": "",
    "generator": "SharpGLTF 1.0.0",
    "version": "2.0"
  },
  "accessors": [
    {
      "name": "POSITION",
      "bufferView": 0,
      "componentType": 5126,
      "count": 106,
      "max": [
        -709.5845947265625,
        75.607368469238281,
        501.13818359375
      ],
      "min": [
        -713.4447021484375,
        74.216659545898438,
        496.82156372070313
      ],
      "type": "VEC3"
    },
    {
      "name": "NORMAL",
      "bufferView": 0,
      "byteOffset": 12,
      "componentType": 5126,
      "count": 106,
      "max": [
        0.18997173011302948,
        0.99897682666778564,
        0.99897760152816772
      ],
      "min": [
        -0.98196679353713989,
        -0.68629562854766846,
        -0.99671840667724609
      ],
      "type": "VEC3"
    },
    {
      "name": "TEXCOORD_0",
      "bufferView": 0,
      "byteOffset": 24,
      "componentType": 5126,
      "count": 106,
      "max": [
        0.666015625,
        0.998046875
      ],
      "min": [
        0.001953125,
        0.927734375
      ],
      "type": "VEC2"
    },
    {
      "bufferView": 1,
      "componentType": 5123,
      "count": 255,
      "type": "SCALAR"
    }
  ],
  "bufferViews": [
    {
      "buffer": 0,
      "byteLength": 3392,
      "byteStride": 32,
      "target": 34962
    },
    {
      "buffer": 0,
      "byteLength": 510,
      "byteOffset": 3392,
      "target": 34963
    }
  ],
  "buffers": [
    {
      "byteLength": 3904,
      "uri": "20525362525140626720_LOD00.bin"
    }
  ],
  "images": [
    {
      "uri": "20525362525140626720_LOD00.png"
    }
  ],
  "materials": [
    {
      "doubleSided": true,
      "pbrMetallicRoughness": {
        "baseColorTexture": {
          "index": 0
        },
        "metallicFactor": 0
      }
    }
  ],
  "meshes": [
    {
      "name": "20525362525140626720_0",
      "primitives": [
        {
          "attributes": {
            "POSITION": 0,
            "NORMAL": 1,
            "TEXCOORD_0": 2
          },
          "indices": 3,
          "material": 0
        }
      ]
    }
  ],
  "nodes": [
    {
      "mesh": 0
    }
  ],
  "scene": 0,
  "scenes": [
    {
      "nodes": [
        0
      ]
    }
  ],
  "textures": [
    {
      "source": 0
    }
  ]
}