{
  "asset": {
    "copyright": "",
    "generator": "SharpGLTF 1.0.0",
    "version": "2.0"
  },
  "accessors": [
    {
      "name": "POSITION",
      "bufferView": 0,
      "componentType": 5126,
      "count": 2283,
      "max": [
        -3.5521807670593262,
        74.723342895507813,
        650.13507080078125
      ],
      "min": [
        -35.666606903076172,
        37.800857543945313,
        611.90228271484375
      ],
      "type": "VEC3"
    },
    {
      "name": "NORMAL",
      "bufferView": 0,
      "byteOffset": 12,
      "componentType": 5126,
      "count": 2283,
      "max": [
        0.9999922513961792,
        0.9999847412109375,
        0.99999189376831055
      ],
      "min": [
        -0.9999922513961792,
        -1,
        -0.99999254941940308
      ],
      "type": "VEC3"
    },
    {
      "name": "TEXCOORD_0",
      "bufferView": 0,
      "byteOffset": 24,
      "componentType": 5126,
      "count": 2283,
      "max": [
        0.9990234375,
        0.9990234375
      ],
      "min": [
        0.0009765625,
        0.0009765625
      ],
      "type": "VEC2"
    },
    {
      "bufferView": 1,
      "componentType": 5123,
      "count": 5088,
      "type": "SCALAR"
    },
    {
      "name": "POSITION",
      "bufferView": 0,
      "byteOffset": 73056,
      "componentType": 5126,
      "count": 1470,
      "max": [
        -3.5521807670593262,
        74.259971618652344,
        643.1981201171875
      ],
      "min": [
        -35.666606903076172,
        38.265010833740234,
        614.52386474609375
      ],
      "type": "VEC3"
    },
    {
      "name": "NORMAL",
      "bufferView": 0,
      "byteOffset": 73068,
      "componentType": 5126,
      "count": 1470,
      "max": [
        0.99817883968353271,
        0.9999847412109375,
        0.99999189376831055
      ],
      "min": [
        -0.9999922513961792,
        -1,
        -0.99999254941940308
      ],
      "type": "VEC3"
    },
    {
      "name": "TEXCOORD_0",
      "bufferView": 0,
      "byteOffset": 73080,
      "componentType": 5126,
      "count": 1470,
      "max": [
        0.998046875,
        0.9990234375
      ],
      "min": [
        0.001953125,
        0.1650390625
      ],
      "type": "VEC2"
    },
    {
      "bufferView": 1,
      "byteOffset": 10176,
      "componentType": 5123,
      "count": 3426,
      "type": "SCALAR"
    }
  ],
  "bufferViews": [
    {
      "buffer": 0,
      "byteLength": 120096,
      "byteStride": 32,
      "target": 34962
    },
    {
      "buffer": 0,
      "byteLength": 17028,
      "byteOffset": 120096,
      "target": 34963
    }
  ],
  "buffers": [
    {
      "byteLength": 137124,
      "uri": "20525362525053505156_LOD00.bin"
    }
  ],
  "images": [
    {
      "uri": "20525362525053505156_LOD00_0.png"
    },
    {
      "uri": "20525362525053505156_LOD00_1.png"
    }
  ],
  "materials": [
    {
      "doubleSided": true,
      "pbrMetallicRoughness": {
        "baseColorTexture": {
          "index": 0
        },
        "metallicFactor": 0
      }
    },
    {
      "doubleSided": true,
      "pbrMetallicRoughness": {
        "baseColorTexture": {
          "index": 1
        },
        "metallicFactor": 0
      }
    }
  ],
  "meshes": [
    {
      "name": "20525362525053505156_0",
      "primitives": [
        {
          "attributes": {
            "POSITION": 0,
            "NORMAL": 1,
            "TEXCOORD_0": 2
          },
          "indices": 3,
          "material": 0
        }
      ]
    },
    {
      "name": "20525362525053505156_1",
      "primitives": [
        {
          "attributes": {
            "POSITION": 4,
            "NORMAL": 5,
            "TEXCOORD_0": 6
          },
          "indices": 7,
          "material": 1
        }
      ]
    }
  ],
  "nodes": [
    {
      "mesh": 0
    },
    {
      "mesh": 1
    }
  ],
  "scene": 0,
  "scenes": [
    {
      "nodes": [
        0,
        1
      ]
    }
  ],
  "textures": [
    {
      "source": 0
    },
    {
      "source": 1
    }
  ]
}