{
  "asset": {
    "copyright": "",
    "generator": "SharpGLTF 1.0.0",
    "version": "2.0"
  },
  "accessors": [
    {
      "name": "POSITION",
      "bufferView": 0,
      "componentType": 5126,
      "count": 1145,
      "max": [
        -99.848419189453125,
        58.965049743652344,
        650.2880859375
      ],
      "min": [
        -132.42666625976563,
        37.799770355224609,
        611.4422607421875
      ],
      "type": "VEC3"
    },
    {
      "name": "NORMAL",
      "bufferView": 0,
      "byteOffset": 12,
      "componentType": 5126,
      "count": 1145,
      "max": [
        0.99999231100082397,
        0.99998486042022705,
        0.99999189376831055
      ],
      "min": [
        -0.99999219179153442,
        -0.93610101938247681,
        -0.99999254941940308
      ],
      "type": "VEC3"
    },
    {
      "name": "TEXCOORD_0",
      "bufferView": 0,
      "byteOffset": 24,
      "componentType": 5126,
      "count": 1145,
      "max": [
        0.998046875,
        0.9990234375
      ],
      "min": [
        0.001953125,
        0.0009765625
      ],
      "type": "VEC2"
    },
    {
      "bufferView": 1,
      "componentType": 5123,
      "count": 2778,
      "type": "SCALAR"
    },
    {
      "name": "POSITION",
      "bufferView": 0,
      "byteOffset": 36640,
      "componentType": 5126,
      "count": 653,
      "max": [
        -99.848587036132813,
        58.655685424804688,
        650.13427734375
      ],
      "min": [
        -131.96347045898438,
        37.799331665039063,
        611.90399169921875
      ],
      "type": "VEC3"
    },
    {
      "name": "NORMAL",
      "bufferView": 0,
      "byteOffset": 36652,
      "componentType": 5126,
      "count": 653,
      "max": [
        0.99799001216888428,
        0.99998486042022705,
        0.99999189376831055
      ],
      "min": [
        -0.99999219179153442,
        -0.97814702987670898,
        -0.99999254941940308
      ],
      "type": "VEC3"
    },
    {
      "name": "TEXCOORD_0",
      "bufferView": 0,
      "byteOffset": 36664,
      "componentType": 5126,
      "count": 653,
      "max": [
        0.998046875,
        0.998046875
      ],
      "min": [
        0.001953125,
        0.119140625
      ],
      "type": "VEC2"
    },
    {
      "bufferView": 1,
      "byteOffset": 5556,
      "componentType": 5123,
      "count": 1731,
      "type": "SCALAR"
    }
  ],
  "bufferViews": [
    {
      "buffer": 0,
      "byteLength": 57536,
      "byteStride": 32,
      "target": 34962
    },
    {
      "buffer": 0,
      "byteLength": 9018,
      "byteOffset": 57536,
      "target": 34963
    }
  ],
  "buffers": [
    {
      "byteLength": 66556,
      "uri": "20525362525053514047_LOD00.bin"
    }
  ],
  "images": [
    {
      "uri": "20525362525053514047_LOD00_0.png"
    },
    {
      "uri": "20525362525053514047_LOD00_1.png"
    }
  ],
  "materials": [
    {
      "doubleSided": true,
      "pbrMetallicRoughness": {
        "baseColorTexture": {
          "index": 0
        },
        "metallicFactor": 0
      }
    },
    {
      "doubleSided": true,
      "pbrMetallicRoughness": {
        "baseColorTexture": {
          "index": 1
        },
        "metallicFactor": 0
      }
    }
  ],
  "meshes": [
    {
      "name": "20525362525053514047_0",
      "primitives": [
        {
          "attributes": {
            "POSITION": 0,
            "NORMAL": 1,
            "TEXCOORD_0": 2
          },
          "indices": 3,
          "material": 0
        }
      ]
    },
    {
      "name": "20525362525053514047_1",
      "primitives": [
        {
          "attributes": {
            "POSITION": 4,
            "NORMAL": 5,
            "TEXCOORD_0": 6
          },
          "indices": 7,
          "material": 1
        }
      ]
    }
  ],
  "nodes": [
    {
      "mesh": 0
    },
    {
      "mesh": 1
    }
  ],
  "scene": 0,
  "scenes": [
    {
      "nodes": [
        0,
        1
      ]
    }
  ],
  "textures": [
    {
      "source": 0
    },
    {
      "source": 1
    }
  ]
}