{
  "asset": {
    "copyright": "",
    "generator": "SharpGLTF 1.0.0",
    "version": "2.0"
  },
  "accessors": [
    {
      "name": "POSITION",
      "bufferView": 0,
      "componentType": 5126,
      "count": 61,
      "max": [
        -709.74835205078125,
        147.12002563476563,
        420.8748779296875
      ],
      "min": [
        -725.50140380859375,
        110.66163635253906,
        417.63424682617188
      ],
      "type": "VEC3"
    },
    {
      "name": "NORMAL",
      "bufferView": 0,
      "byteOffset": 12,
      "componentType": 5126,
      "count": 61,
      "max": [
        -7.0692731242161244E-05,
        0.043259724974632263,
        7.1122769440989941E-05
      ],
      "min": [
        -0.99999183416366577,
        -0.0054776361212134361,
        -0.9999924898147583
      ],
      "type": "VEC3"
    },
    {
      "name": "TEXCOORD_0",
      "bufferView": 0,
      "byteOffset": 24,
      "componentType": 5126,
      "count": 61,
      "max": [
        0.927734375,
        0.998046875
      ],
      "min": [
        0.001953125,
        0.134765625
      ],
      "type": "VEC2"
    },
    {
      "bufferView": 1,
      "componentType": 5123,
      "count": 186,
      "type": "SCALAR"
    }
  ],
  "bufferViews": [
    {
      "buffer": 0,
      "byteLength": 1952,
      "byteStride": 32,
      "target": 34962
    },
    {
      "buffer": 0,
      "byteLength": 372,
      "byteOffset": 1952,
      "target": 34963
    }
  ],
  "buffers": [
    {
      "byteLength": 2324,
      "uri": "20525362525140626526_LOD00.bin"
    }
  ],
  "images": [
    {
      "uri": "20525362525140626526_LOD00.png"
    }
  ],
  "materials": [
    {
      "doubleSided": true,
      "pbrMetallicRoughness": {
        "baseColorTexture": {
          "index": 0
        },
        "metallicFactor": 0
      }
    }
  ],
  "meshes": [
    {
      "name": "20525362525140626526_0",
      "primitives": [
        {
          "attributes": {
            "POSITION": 0,
            "NORMAL": 1,
            "TEXCOORD_0": 2
          },
          "indices": 3,
          "material": 0
        }
      ]
    }
  ],
  "nodes": [
    {
      "mesh": 0
    }
  ],
  "scene": 0,
  "scenes": [
    {
      "nodes": [
        0
      ]
    }
  ],
  "textures": [
    {
      "source": 0
    }
  ]
}