{
  "asset": {
    "copyright": "",
    "generator": "SharpGLTF 1.0.0",
    "version": "2.0"
  },
  "accessors": [
    {
      "name": "POSITION",
      "bufferView": 0,
      "componentType": 5126,
      "count": 4416,
      "max": [
        -838.1556396484375,
        58.317428588867188,
        229.95632934570313
      ],
      "min": [
        -870.2750244140625,
        43.800823211669922,
        191.57188415527344
      ],
      "type": "VEC3"
    },
    {
      "name": "NORMAL",
      "bufferView": 0,
      "byteOffset": 12,
      "componentType": 5126,
      "count": 4416,
      "max": [
        0.9991525411605835,
        0.99998503923416138,
        0.99999207258224487
      ],
      "min": [
        -0.99999171495437622,
        -0.99917417764663696,
        -0.99999237060546875
      ],
      "type": "VEC3"
    },
    {
      "name": "TEXCOORD_0",
      "bufferView": 0,
      "byteOffset": 24,
      "componentType": 5126,
      "count": 4416,
      "max": [
        0.998046875,
        0.9990234375
      ],
      "min": [
        0.001953125,
        0.0009765625
      ],
      "type": "VEC2"
    },
    {
      "bufferView": 1,
      "componentType": 5123,
      "count": 11088,
      "type": "SCALAR"
    },
    {
      "name": "POSITION",
      "bufferView": 0,
      "byteOffset": 141312,
      "componentType": 5126,
      "count": 1435,
      "max": [
        -838.156982421875,
        58.317428588867188,
        229.80442810058594
      ],
      "min": [
        -870.275146484375,
        44.415145874023438,
        191.57164001464844
      ],
      "type": "VEC3"
    },
    {
      "name": "NORMAL",
      "bufferView": 0,
      "byteOffset": 141324,
      "componentType": 5126,
      "count": 1435,
      "max": [
        0.9991525411605835,
        0.99998503923416138,
        0.99672782421112061
      ],
      "min": [
        -0.99999171495437622,
        -0.99125349521636963,
        -0.99999237060546875
      ],
      "type": "VEC3"
    },
    {
      "name": "TEXCOORD_0",
      "bufferView": 0,
      "byteOffset": 141336,
      "componentType": 5126,
      "count": 1435,
      "max": [
        0.998046875,
        0.998046875
      ],
      "min": [
        0.001953125,
        0.470703125
      ],
      "type": "VEC2"
    },
    {
      "bufferView": 1,
      "byteOffset": 22176,
      "componentType": 5123,
      "count": 3357,
      "type": "SCALAR"
    }
  ],
  "bufferViews": [
    {
      "buffer": 0,
      "byteLength": 187232,
      "byteStride": 32,
      "target": 34962
    },
    {
      "buffer": 0,
      "byteLength": 28890,
      "byteOffset": 187232,
      "target": 34963
    }
  ],
  "buffers": [
    {
      "byteLength": 216124,
      "uri": "20525362525140625264_LOD00.bin"
    }
  ],
  "images": [
    {
      "uri": "20525362525140625264_LOD00_0.png"
    },
    {
      "uri": "20525362525140625264_LOD00_1.png"
    }
  ],
  "materials": [
    {
      "doubleSided": true,
      "pbrMetallicRoughness": {
        "baseColorTexture": {
          "index": 0
        },
        "metallicFactor": 0
      }
    },
    {
      "doubleSided": true,
      "pbrMetallicRoughness": {
        "baseColorTexture": {
          "index": 1
        },
        "metallicFactor": 0
      }
    }
  ],
  "meshes": [
    {
      "name": "20525362525140625264_0",
      "primitives": [
        {
          "attributes": {
            "POSITION": 0,
            "NORMAL": 1,
            "TEXCOORD_0": 2
          },
          "indices": 3,
          "material": 0
        }
      ]
    },
    {
      "name": "20525362525140625264_1",
      "primitives": [
        {
          "attributes": {
            "POSITION": 4,
            "NORMAL": 5,
            "TEXCOORD_0": 6
          },
          "indices": 7,
          "material": 1
        }
      ]
    }
  ],
  "nodes": [
    {
      "mesh": 0
    },
    {
      "mesh": 1
    }
  ],
  "scene": 0,
  "scenes": [
    {
      "nodes": [
        0,
        1
      ]
    }
  ],
  "textures": [
    {
      "source": 0
    },
    {
      "source": 1
    }
  ]
}