{
  "asset": {
    "copyright": "",
    "generator": "SharpGLTF 1.0.0",
    "version": "2.0"
  },
  "accessors": [
    {
      "name": "POSITION",
      "bufferView": 0,
      "componentType": 5126,
      "count": 4017,
      "max": [
        -260.34808349609375,
        73.0335693359375,
        421.30923461914063
      ],
      "min": [
        -292.9273681640625,
        39.824386596679688,
        382.61532592773438
      ],
      "type": "VEC3"
    },
    {
      "name": "NORMAL",
      "bufferView": 0,
      "byteOffset": 12,
      "componentType": 5126,
      "count": 4017,
      "max": [
        0.99931567907333374,
        0.99998486042022705,
        0.9999920129776001
      ],
      "min": [
        -0.99915635585784912,
        -0.96451520919799805,
        -0.9999924898147583
      ],
      "type": "VEC3"
    },
    {
      "name": "TEXCOORD_0",
      "bufferView": 0,
      "byteOffset": 24,
      "componentType": 5126,
      "count": 4017,
      "max": [
        0.998046875,
        0.9990234375
      ],
      "min": [
        0.001953125,
        0.0009765625
      ],
      "type": "VEC2"
    },
    {
      "bufferView": 1,
      "componentType": 5123,
      "count": 9999,
      "type": "SCALAR"
    },
    {
      "name": "POSITION",
      "bufferView": 0,
      "byteOffset": 128544,
      "componentType": 5126,
      "count": 68,
      "max": [
        -263.590576171875,
        71.643531799316406,
        420.84793090820313
      ],
      "min": [
        -292.46343994140625,
        42.294719696044922,
        406.81814575195313
      ],
      "type": "VEC3"
    },
    {
      "name": "NORMAL",
      "bufferView": 0,
      "byteOffset": 128556,
      "componentType": 5126,
      "count": 68,
      "max": [
        0.99898612499237061,
        0.99440848827362061,
        0.17620900273323059
      ],
      "min": [
        -0.77913731336593628,
        -0.66085314750671387,
        -0.9999924898147583
      ],
      "type": "VEC3"
    },
    {
      "name": "TEXCOORD_0",
      "bufferView": 0,
      "byteOffset": 128568,
      "componentType": 5126,
      "count": 68,
      "max": [
        0.439453125,
        0.998046875
      ],
      "min": [
        0.001953125,
        0.943359375
      ],
      "type": "VEC2"
    },
    {
      "bufferView": 1,
      "byteOffset": 19998,
      "componentType": 5123,
      "count": 141,
      "type": "SCALAR"
    }
  ],
  "bufferViews": [
    {
      "buffer": 0,
      "byteLength": 130720,
      "byteStride": 32,
      "target": 34962
    },
    {
      "buffer": 0,
      "byteLength": 20280,
      "byteOffset": 130720,
      "target": 34963
    }
  ],
  "buffers": [
    {
      "byteLength": 151000,
      "uri": "20525362525051736176_LOD00.bin"
    }
  ],
  "images": [
    {
      "uri": "20525362525051736176_LOD00_0.png"
    },
    {
      "uri": "20525362525051736176_LOD00_1.png"
    }
  ],
  "materials": [
    {
      "doubleSided": true,
      "pbrMetallicRoughness": {
        "baseColorTexture": {
          "index": 0
        },
        "metallicFactor": 0
      }
    },
    {
      "doubleSided": true,
      "pbrMetallicRoughness": {
        "baseColorTexture": {
          "index": 1
        },
        "metallicFactor": 0
      }
    }
  ],
  "meshes": [
    {
      "name": "20525362525051736176_0",
      "primitives": [
        {
          "attributes": {
            "POSITION": 0,
            "NORMAL": 1,
            "TEXCOORD_0": 2
          },
          "indices": 3,
          "material": 0
        }
      ]
    },
    {
      "name": "20525362525051736176_1",
      "primitives": [
        {
          "attributes": {
            "POSITION": 4,
            "NORMAL": 5,
            "TEXCOORD_0": 6
          },
          "indices": 7,
          "material": 1
        }
      ]
    }
  ],
  "nodes": [
    {
      "mesh": 0
    },
    {
      "mesh": 1
    }
  ],
  "scene": 0,
  "scenes": [
    {
      "nodes": [
        0,
        1
      ]
    }
  ],
  "textures": [
    {
      "source": 0
    },
    {
      "source": 1
    }
  ]
}