{
  "asset": {
    "copyright": "",
    "generator": "SharpGLTF 1.0.0",
    "version": "2.0"
  },
  "accessors": [
    {
      "name": "POSITION",
      "bufferView": 0,
      "componentType": 5126,
      "count": 6638,
      "max": [
        -196.14939880371094,
        74.277084350585938,
        382.63043212890625
      ],
      "min": [
        -228.26542663574219,
        37.8184814453125,
        344.39886474609375
      ],
      "type": "VEC3"
    },
    {
      "name": "NORMAL",
      "bufferView": 0,
      "byteOffset": 12,
      "componentType": 5126,
      "count": 6638,
      "max": [
        0.99999237060546875,
        0.99998480081558228,
        0.9999920129776001
      ],
      "min": [
        -0.99999207258224487,
        -1,
        -0.99999243021011353
      ],
      "type": "VEC3"
    },
    {
      "name": "TEXCOORD_0",
      "bufferView": 0,
      "byteOffset": 24,
      "componentType": 5126,
      "count": 6638,
      "max": [
        0.9990234375,
        0.9990234375
      ],
      "min": [
        0.0009765625,
        0.0009765625
      ],
      "type": "VEC2"
    },
    {
      "bufferView": 1,
      "componentType": 5123,
      "count": 16410,
      "type": "SCALAR"
    },
    {
      "name": "POSITION",
      "bufferView": 0,
      "byteOffset": 212416,
      "componentType": 5126,
      "count": 233,
      "max": [
        -196.14968872070313,
        55.430130004882813,
        382.16763305664063
      ],
      "min": [
        -224.40531921386719,
        39.210407257080078,
        344.399169921875
      ],
      "type": "VEC3"
    },
    {
      "name": "NORMAL",
      "bufferView": 0,
      "byteOffset": 212428,
      "componentType": 5126,
      "count": 233,
      "max": [
        0.99440610408782959,
        0.99998480081558228,
        0.9959757924079895
      ],
      "min": [
        -0.9751858115196228,
        -0.98936772346496582,
        -0.99999243021011353
      ],
      "type": "VEC3"
    },
    {
      "name": "TEXCOORD_0",
      "bufferView": 0,
      "byteOffset": 212440,
      "componentType": 5126,
      "count": 233,
      "max": [
        0.998046875,
        0.998046875
      ],
      "min": [
        0.001953125,
        0.916015625
      ],
      "type": "VEC2"
    },
    {
      "bufferView": 1,
      "byteOffset": 32820,
      "componentType": 5123,
      "count": 447,
      "type": "SCALAR"
    }
  ],
  "bufferViews": [
    {
      "buffer": 0,
      "byteLength": 219872,
      "byteStride": 32,
      "target": 34962
    },
    {
      "buffer": 0,
      "byteLength": 33714,
      "byteOffset": 219872,
      "target": 34963
    }
  ],
  "buffers": [
    {
      "byteLength": 253588,
      "uri": "20525362525051736164_LOD00.bin"
    }
  ],
  "images": [
    {
      "uri": "20525362525051736164_LOD00_0.png"
    },
    {
      "uri": "20525362525051736164_LOD00_1.png"
    }
  ],
  "materials": [
    {
      "doubleSided": true,
      "pbrMetallicRoughness": {
        "baseColorTexture": {
          "index": 0
        },
        "metallicFactor": 0
      }
    },
    {
      "doubleSided": true,
      "pbrMetallicRoughness": {
        "baseColorTexture": {
          "index": 1
        },
        "metallicFactor": 0
      }
    }
  ],
  "meshes": [
    {
      "name": "20525362525051736164_0",
      "primitives": [
        {
          "attributes": {
            "POSITION": 0,
            "NORMAL": 1,
            "TEXCOORD_0": 2
          },
          "indices": 3,
          "material": 0
        }
      ]
    },
    {
      "name": "20525362525051736164_1",
      "primitives": [
        {
          "attributes": {
            "POSITION": 4,
            "NORMAL": 5,
            "TEXCOORD_0": 6
          },
          "indices": 7,
          "material": 1
        }
      ]
    }
  ],
  "nodes": [
    {
      "mesh": 0
    },
    {
      "mesh": 1
    }
  ],
  "scene": 0,
  "scenes": [
    {
      "nodes": [
        0,
        1
      ]
    }
  ],
  "textures": [
    {
      "source": 0
    },
    {
      "source": 1
    }
  ]
}