{
  "asset": {
    "copyright": "",
    "generator": "SharpGLTF 1.0.0",
    "version": "2.0"
  },
  "accessors": [
    {
      "name": "POSITION",
      "bufferView": 0,
      "componentType": 5126,
      "count": 4335,
      "max": [
        -356.65045166015625,
        56.816886901855469,
        306.20535278320313
      ],
      "min": [
        -388.76718139648438,
        38.744113922119141,
        267.9735107421875
      ],
      "type": "VEC3"
    },
    {
      "name": "NORMAL",
      "bufferView": 0,
      "byteOffset": 12,
      "componentType": 5126,
      "count": 4335,
      "max": [
        0.9999924898147583,
        0.99998486042022705,
        0.99999207258224487
      ],
      "min": [
        -0.99999195337295532,
        -0.99917113780975342,
        -0.99999237060546875
      ],
      "type": "VEC3"
    },
    {
      "name": "TEXCOORD_0",
      "bufferView": 0,
      "byteOffset": 24,
      "componentType": 5126,
      "count": 4335,
      "max": [
        0.998046875,
        0.9990234375
      ],
      "min": [
        0.001953125,
        0.0009765625
      ],
      "type": "VEC2"
    },
    {
      "bufferView": 1,
      "componentType": 5123,
      "count": 10425,
      "type": "SCALAR"
    },
    {
      "name": "POSITION",
      "bufferView": 0,
      "byteOffset": 138720,
      "componentType": 5126,
      "count": 2324,
      "max": [
        -356.4964599609375,
        56.662223815917969,
        306.51266479492188
      ],
      "min": [
        -388.76718139648438,
        39.20574951171875,
        267.97381591796875
      ],
      "type": "VEC3"
    },
    {
      "name": "NORMAL",
      "bufferView": 0,
      "byteOffset": 138732,
      "componentType": 5126,
      "count": 2324,
      "max": [
        0.9999924898147583,
        0.99998486042022705,
        0.99999207258224487
      ],
      "min": [
        -0.99999195337295532,
        -0.99917113780975342,
        -0.99999237060546875
      ],
      "type": "VEC3"
    },
    {
      "name": "TEXCOORD_0",
      "bufferView": 0,
      "byteOffset": 138744,
      "componentType": 5126,
      "count": 2324,
      "max": [
        0.998046875,
        0.998046875
      ],
      "min": [
        0.001953125,
        0.189453125
      ],
      "type": "VEC2"
    },
    {
      "bufferView": 1,
      "byteOffset": 20850,
      "componentType": 5123,
      "count": 5220,
      "type": "SCALAR"
    }
  ],
  "bufferViews": [
    {
      "buffer": 0,
      "byteLength": 213088,
      "byteStride": 32,
      "target": 34962
    },
    {
      "buffer": 0,
      "byteLength": 31290,
      "byteOffset": 213088,
      "target": 34963
    }
  ],
  "buffers": [
    {
      "byteLength": 244380,
      "uri": "20525362525051737045_LOD00.bin"
    }
  ],
  "images": [
    {
      "uri": "20525362525051737045_LOD00_0.png"
    },
    {
      "uri": "20525362525051737045_LOD00_1.png"
    }
  ],
  "materials": [
    {
      "doubleSided": true,
      "pbrMetallicRoughness": {
        "baseColorTexture": {
          "index": 0
        },
        "metallicFactor": 0
      }
    },
    {
      "doubleSided": true,
      "pbrMetallicRoughness": {
        "baseColorTexture": {
          "index": 1
        },
        "metallicFactor": 0
      }
    }
  ],
  "meshes": [
    {
      "name": "20525362525051737045_0",
      "primitives": [
        {
          "attributes": {
            "POSITION": 0,
            "NORMAL": 1,
            "TEXCOORD_0": 2
          },
          "indices": 3,
          "material": 0
        }
      ]
    },
    {
      "name": "20525362525051737045_1",
      "primitives": [
        {
          "attributes": {
            "POSITION": 4,
            "NORMAL": 5,
            "TEXCOORD_0": 6
          },
          "indices": 7,
          "material": 1
        }
      ]
    }
  ],
  "nodes": [
    {
      "mesh": 0
    },
    {
      "mesh": 1
    }
  ],
  "scene": 0,
  "scenes": [
    {
      "nodes": [
        0,
        1
      ]
    }
  ],
  "textures": [
    {
      "source": 0
    },
    {
      "source": 1
    }
  ]
}