{
  "asset": {
    "copyright": "",
    "generator": "SharpGLTF 1.0.0",
    "version": "2.0"
  },
  "accessors": [
    {
      "name": "POSITION",
      "bufferView": 0,
      "componentType": 5126,
      "count": 191,
      "max": [
        -164.04800415039063,
        37.829715728759766,
        497.27389526367188
      ],
      "min": [
        -196.16339111328125,
        31.029516220092773,
        459.04293823242188
      ],
      "type": "VEC3"
    },
    {
      "name": "NORMAL",
      "bufferView": 0,
      "byteOffset": 12,
      "componentType": 5126,
      "count": 191,
      "max": [
        0.89679813385009766,
        0.24406512081623077,
        0.99999183416366577
      ],
      "min": [
        -0.99999219179153442,
        -1,
        -0.99999243021011353
      ],
      "type": "VEC3"
    },
    {
      "name": "TEXCOORD_0",
      "bufferView": 0,
      "byteOffset": 24,
      "componentType": 5126,
      "count": 191,
      "max": [
        0.994140625,
        0.9990234375
      ],
      "min": [
        0.001953125,
        0.0517578125
      ],
      "type": "VEC2"
    },
    {
      "bufferView": 1,
      "componentType": 5123,
      "count": 510,
      "type": "SCALAR"
    },
    {
      "name": "POSITION",
      "bufferView": 0,
      "byteOffset": 6112,
      "componentType": 5126,
      "count": 35,
      "max": [
        -168.83436584472656,
        37.829715728759766,
        495.88687133789063
      ],
      "min": [
        -191.06791687011719,
        31.184225082397461,
        461.81781005859375
      ],
      "type": "VEC3"
    },
    {
      "name": "NORMAL",
      "bufferView": 0,
      "byteOffset": 6124,
      "componentType": 5126,
      "count": 35,
      "max": [
        0.99999237060546875,
        0.063621260225772858,
        0.99999183416366577
      ],
      "min": [
        -0.99999219179153442,
        -0.0055059697479009628,
        -0.7121008038520813
      ],
      "type": "VEC3"
    },
    {
      "name": "TEXCOORD_0",
      "bufferView": 0,
      "byteOffset": 6136,
      "componentType": 5126,
      "count": 35,
      "max": [
        0.755859375,
        0.998046875
      ],
      "min": [
        0.001953125,
        0.830078125
      ],
      "type": "VEC2"
    },
    {
      "bufferView": 1,
      "byteOffset": 1020,
      "componentType": 5123,
      "count": 87,
      "type": "SCALAR"
    }
  ],
  "bufferViews": [
    {
      "buffer": 0,
      "byteLength": 7232,
      "byteStride": 32,
      "target": 34962
    },
    {
      "buffer": 0,
      "byteLength": 1194,
      "byteOffset": 7232,
      "target": 34963
    }
  ],
  "buffers": [
    {
      "byteLength": 8428,
      "uri": "20525362525051736253_LOD00.bin"
    }
  ],
  "images": [
    {
      "uri": "20525362525051736253_LOD00_0.png"
    },
    {
      "uri": "20525362525051736253_LOD00_1.png"
    }
  ],
  "materials": [
    {
      "doubleSided": true,
      "pbrMetallicRoughness": {
        "baseColorTexture": {
          "index": 0
        },
        "metallicFactor": 0
      }
    },
    {
      "doubleSided": true,
      "pbrMetallicRoughness": {
        "baseColorTexture": {
          "index": 1
        },
        "metallicFactor": 0
      }
    }
  ],
  "meshes": [
    {
      "name": "20525362525051736253_0",
      "primitives": [
        {
          "attributes": {
            "POSITION": 0,
            "NORMAL": 1,
            "TEXCOORD_0": 2
          },
          "indices": 3,
          "material": 0
        }
      ]
    },
    {
      "name": "20525362525051736253_1",
      "primitives": [
        {
          "attributes": {
            "POSITION": 4,
            "NORMAL": 5,
            "TEXCOORD_0": 6
          },
          "indices": 7,
          "material": 1
        }
      ]
    }
  ],
  "nodes": [
    {
      "mesh": 0
    },
    {
      "mesh": 1
    }
  ],
  "scene": 0,
  "scenes": [
    {
      "nodes": [
        0,
        1
      ]
    }
  ],
  "textures": [
    {
      "source": 0
    },
    {
      "source": 1
    }
  ]
}