{
  "asset": {
    "copyright": "",
    "generator": "SharpGLTF 1.0.0",
    "version": "2.0"
  },
  "accessors": [
    {
      "name": "POSITION",
      "bufferView": 0,
      "componentType": 5126,
      "count": 3391,
      "max": [
        -196.14871215820313,
        55.735565185546875,
        420.84567260742188
      ],
      "min": [
        -228.2646484375,
        37.815784454345703,
        382.61392211914063
      ],
      "type": "VEC3"
    },
    {
      "name": "NORMAL",
      "bufferView": 0,
      "byteOffset": 12,
      "componentType": 5126,
      "count": 3391,
      "max": [
        0.9981766939163208,
        0.9999847412109375,
        0.99797862768173218
      ],
      "min": [
        -0.99999213218688965,
        -1,
        -0.9999924898147583
      ],
      "type": "VEC3"
    },
    {
      "name": "TEXCOORD_0",
      "bufferView": 0,
      "byteOffset": 24,
      "componentType": 5126,
      "count": 3391,
      "max": [
        0.998046875,
        0.9990234375
      ],
      "min": [
        0.001953125,
        0.0009765625
      ],
      "type": "VEC2"
    },
    {
      "bufferView": 1,
      "componentType": 5123,
      "count": 8559,
      "type": "SCALAR"
    },
    {
      "name": "POSITION",
      "bufferView": 0,
      "byteOffset": 108512,
      "componentType": 5126,
      "count": 951,
      "max": [
        -196.1490478515625,
        55.735565185546875,
        420.84567260742188
      ],
      "min": [
        -220.85350036621094,
        39.054206848144531,
        382.614013671875
      ],
      "type": "VEC3"
    },
    {
      "name": "NORMAL",
      "bufferView": 0,
      "byteOffset": 108524,
      "componentType": 5126,
      "count": 951,
      "max": [
        0.9999922513961792,
        0.9999847412109375,
        0.99797862768173218
      ],
      "min": [
        -0.99999213218688965,
        -0.99916905164718628,
        -0.9999924898147583
      ],
      "type": "VEC3"
    },
    {
      "name": "TEXCOORD_0",
      "bufferView": 0,
      "byteOffset": 108536,
      "componentType": 5126,
      "count": 951,
      "max": [
        0.998046875,
        0.998046875
      ],
      "min": [
        0.001953125,
        0.634765625
      ],
      "type": "VEC2"
    },
    {
      "bufferView": 1,
      "byteOffset": 17118,
      "componentType": 5123,
      "count": 2211,
      "type": "SCALAR"
    }
  ],
  "bufferViews": [
    {
      "buffer": 0,
      "byteLength": 138944,
      "byteStride": 32,
      "target": 34962
    },
    {
      "buffer": 0,
      "byteLength": 21540,
      "byteOffset": 138944,
      "target": 34963
    }
  ],
  "buffers": [
    {
      "byteLength": 160484,
      "uri": "20525362525051736166_LOD00.bin"
    }
  ],
  "images": [
    {
      "uri": "20525362525051736166_LOD00_0.png"
    },
    {
      "uri": "20525362525051736166_LOD00_1.png"
    }
  ],
  "materials": [
    {
      "doubleSided": true,
      "pbrMetallicRoughness": {
        "baseColorTexture": {
          "index": 0
        },
        "metallicFactor": 0
      }
    },
    {
      "doubleSided": true,
      "pbrMetallicRoughness": {
        "baseColorTexture": {
          "index": 1
        },
        "metallicFactor": 0
      }
    }
  ],
  "meshes": [
    {
      "name": "20525362525051736166_0",
      "primitives": [
        {
          "attributes": {
            "POSITION": 0,
            "NORMAL": 1,
            "TEXCOORD_0": 2
          },
          "indices": 3,
          "material": 0
        }
      ]
    },
    {
      "name": "20525362525051736166_1",
      "primitives": [
        {
          "attributes": {
            "POSITION": 4,
            "NORMAL": 5,
            "TEXCOORD_0": 6
          },
          "indices": 7,
          "material": 1
        }
      ]
    }
  ],
  "nodes": [
    {
      "mesh": 0
    },
    {
      "mesh": 1
    }
  ],
  "scene": 0,
  "scenes": [
    {
      "nodes": [
        0,
        1
      ]
    }
  ],
  "textures": [
    {
      "source": 0
    },
    {
      "source": 1
    }
  ]
}