{
  "asset": {
    "copyright": "",
    "generator": "SharpGLTF 1.0.0",
    "version": "2.0"
  },
  "accessors": [
    {
      "name": "POSITION",
      "bufferView": 0,
      "componentType": 5126,
      "count": 810,
      "max": [
        -485.06015014648438,
        37.8289794921875,
        76.919296264648438
      ],
      "min": [
        -517.64080810546875,
        36.593460083007813,
        38.380599975585938
      ],
      "type": "VEC3"
    },
    {
      "name": "NORMAL",
      "bufferView": 0,
      "byteOffset": 12,
      "componentType": 5126,
      "count": 810,
      "max": [
        0.99636614322662354,
        0.99998480081558228,
        0.96973079442977905
      ],
      "min": [
        -0.99441808462142944,
        -0.11847350001335144,
        -0.63844871520996094
      ],
      "type": "VEC3"
    },
    {
      "name": "TEXCOORD_0",
      "bufferView": 0,
      "byteOffset": 24,
      "componentType": 5126,
      "count": 810,
      "max": [
        0.998046875,
        0.998046875
      ],
      "min": [
        0.001953125,
        0.419921875
      ],
      "type": "VEC2"
    },
    {
      "bufferView": 1,
      "componentType": 5123,
      "count": 2145,
      "type": "SCALAR"
    }
  ],
  "bufferViews": [
    {
      "buffer": 0,
      "byteLength": 25920,
      "byteStride": 32,
      "target": 34962
    },
    {
      "buffer": 0,
      "byteLength": 4290,
      "byteOffset": 25920,
      "target": 34963
    }
  ],
  "buffers": [
    {
      "byteLength": 30212,
      "uri": "20525362525051735161_LOD00.bin"
    }
  ],
  "images": [
    {
      "uri": "20525362525051735161_LOD00.png"
    }
  ],
  "materials": [
    {
      "doubleSided": true,
      "pbrMetallicRoughness": {
        "baseColorTexture": {
          "index": 0
        },
        "metallicFactor": 0
      }
    }
  ],
  "meshes": [
    {
      "name": "20525362525051735161_0",
      "primitives": [
        {
          "attributes": {
            "POSITION": 0,
            "NORMAL": 1,
            "TEXCOORD_0": 2
          },
          "indices": 3,
          "material": 0
        }
      ]
    }
  ],
  "nodes": [
    {
      "mesh": 0
    }
  ],
  "scene": 0,
  "scenes": [
    {
      "nodes": [
        0
      ]
    }
  ],
  "textures": [
    {
      "source": 0
    }
  ]
}