{
  "asset": {
    "copyright": "",
    "generator": "SharpGLTF 1.0.0",
    "version": "2.0"
  },
  "accessors": [
    {
      "name": "POSITION",
      "bufferView": 0,
      "componentType": 5126,
      "count": 5346,
      "max": [
        -260.35467529296875,
        62.386821746826172,
        153.64944458007813
      ],
      "min": [
        -292.47189331054688,
        50.801753997802734,
        115.11054229736328
      ],
      "type": "VEC3"
    },
    {
      "name": "NORMAL",
      "bufferView": 0,
      "byteOffset": 12,
      "componentType": 5126,
      "count": 5346,
      "max": [
        0.99999237060546875,
        0.99998468160629272,
        0.99999213218688965
      ],
      "min": [
        -0.99999207258224487,
        -0.99917078018188477,
        -0.9999922513961792
      ],
      "type": "VEC3"
    },
    {
      "name": "TEXCOORD_0",
      "bufferView": 0,
      "byteOffset": 24,
      "componentType": 5126,
      "count": 5346,
      "max": [
        0.998046875,
        0.9990234375
      ],
      "min": [
        0.001953125,
        0.0009765625
      ],
      "type": "VEC2"
    },
    {
      "bufferView": 1,
      "componentType": 5123,
      "count": 11829,
      "type": "SCALAR"
    },
    {
      "name": "POSITION",
      "bufferView": 0,
      "byteOffset": 171072,
      "componentType": 5126,
      "count": 150,
      "max": [
        -260.97268676757813,
        57.906448364257813,
        153.3419189453125
      ],
      "min": [
        -292.1629638671875,
        51.574062347412109,
        115.11101531982422
      ],
      "type": "VEC3"
    },
    {
      "name": "NORMAL",
      "bufferView": 0,
      "byteOffset": 171084,
      "componentType": 5126,
      "count": 150,
      "max": [
        0.99486410617828369,
        0.99998438358306885,
        0.99797862768173218
      ],
      "min": [
        -0.99898260831832886,
        -0.99148422479629517,
        -0.99816769361495972
      ],
      "type": "VEC3"
    },
    {
      "name": "TEXCOORD_0",
      "bufferView": 0,
      "byteOffset": 171096,
      "componentType": 5126,
      "count": 150,
      "max": [
        0.931640625,
        0.998046875
      ],
      "min": [
        0.001953125,
        0.966796875
      ],
      "type": "VEC2"
    },
    {
      "bufferView": 1,
      "byteOffset": 23658,
      "componentType": 5123,
      "count": 234,
      "type": "SCALAR"
    }
  ],
  "bufferViews": [
    {
      "buffer": 0,
      "byteLength": 175872,
      "byteStride": 32,
      "target": 34962
    },
    {
      "buffer": 0,
      "byteLength": 24126,
      "byteOffset": 175872,
      "target": 34963
    }
  ],
  "buffers": [
    {
      "byteLength": 200000,
      "uri": "20525362525051734354_LOD00.bin"
    }
  ],
  "images": [
    {
      "uri": "20525362525051734354_LOD00_0.png"
    },
    {
      "uri": "20525362525051734354_LOD00_1.png"
    }
  ],
  "materials": [
    {
      "doubleSided": true,
      "pbrMetallicRoughness": {
        "baseColorTexture": {
          "index": 0
        },
        "metallicFactor": 0
      }
    },
    {
      "doubleSided": true,
      "pbrMetallicRoughness": {
        "baseColorTexture": {
          "index": 1
        },
        "metallicFactor": 0
      }
    }
  ],
  "meshes": [
    {
      "name": "20525362525051734354_0",
      "primitives": [
        {
          "attributes": {
            "POSITION": 0,
            "NORMAL": 1,
            "TEXCOORD_0": 2
          },
          "indices": 3,
          "material": 0
        }
      ]
    },
    {
      "name": "20525362525051734354_1",
      "primitives": [
        {
          "attributes": {
            "POSITION": 4,
            "NORMAL": 5,
            "TEXCOORD_0": 6
          },
          "indices": 7,
          "material": 1
        }
      ]
    }
  ],
  "nodes": [
    {
      "mesh": 0
    },
    {
      "mesh": 1
    }
  ],
  "scene": 0,
  "scenes": [
    {
      "nodes": [
        0,
        1
      ]
    }
  ],
  "textures": [
    {
      "source": 0
    },
    {
      "source": 1
    }
  ]
}