{
  "asset": {
    "copyright": "",
    "generator": "SharpGLTF 1.0.0",
    "version": "2.0"
  },
  "accessors": [
    {
      "name": "POSITION",
      "bufferView": 0,
      "componentType": 5126,
      "count": 2444,
      "max": [
        -645.5419921875,
        74.241485595703125,
        420.86697387695313
      ],
      "min": [
        -677.96923828125,
        37.784957885742188,
        382.63241577148438
      ],
      "type": "VEC3"
    },
    {
      "name": "NORMAL",
      "bufferView": 0,
      "byteOffset": 12,
      "componentType": 5126,
      "count": 2444,
      "max": [
        0.99999254941940308,
        0.99998503923416138,
        0.9999920129776001
      ],
      "min": [
        -0.99999183416366577,
        -1,
        -0.9999924898147583
      ],
      "type": "VEC3"
    },
    {
      "name": "TEXCOORD_0",
      "bufferView": 0,
      "byteOffset": 24,
      "componentType": 5126,
      "count": 2444,
      "max": [
        0.998046875,
        0.9990234375
      ],
      "min": [
        0.001953125,
        0.0009765625
      ],
      "type": "VEC2"
    },
    {
      "bufferView": 1,
      "componentType": 5123,
      "count": 5526,
      "type": "SCALAR"
    },
    {
      "name": "POSITION",
      "bufferView": 0,
      "byteOffset": 78208,
      "componentType": 5126,
      "count": 790,
      "max": [
        -645.54327392578125,
        54.161838531494141,
        420.86517333984375
      ],
      "min": [
        -677.6597900390625,
        41.185386657714844,
        382.6339111328125
      ],
      "type": "VEC3"
    },
    {
      "name": "NORMAL",
      "bufferView": 0,
      "byteOffset": 78220,
      "componentType": 5126,
      "count": 790,
      "max": [
        0.99438369274139404,
        0.99998503923416138,
        0.99672955274581909
      ],
      "min": [
        -0.99674314260482788,
        -1,
        -0.9999924898147583
      ],
      "type": "VEC3"
    },
    {
      "name": "TEXCOORD_0",
      "bufferView": 0,
      "byteOffset": 78232,
      "componentType": 5126,
      "count": 790,
      "max": [
        0.998046875,
        0.998046875
      ],
      "min": [
        0.001953125,
        0.744140625
      ],
      "type": "VEC2"
    },
    {
      "bufferView": 1,
      "byteOffset": 11052,
      "componentType": 5123,
      "count": 1797,
      "type": "SCALAR"
    }
  ],
  "bufferViews": [
    {
      "buffer": 0,
      "byteLength": 103488,
      "byteStride": 32,
      "target": 34962
    },
    {
      "buffer": 0,
      "byteLength": 14646,
      "byteOffset": 103488,
      "target": 34963
    }
  ],
  "buffers": [
    {
      "byteLength": 118136,
      "uri": "20525362525140626076_LOD00.bin"
    }
  ],
  "images": [
    {
      "uri": "20525362525140626076_LOD00_0.png"
    },
    {
      "uri": "20525362525140626076_LOD00_1.png"
    }
  ],
  "materials": [
    {
      "doubleSided": true,
      "pbrMetallicRoughness": {
        "baseColorTexture": {
          "index": 0
        },
        "metallicFactor": 0
      }
    },
    {
      "doubleSided": true,
      "pbrMetallicRoughness": {
        "baseColorTexture": {
          "index": 1
        },
        "metallicFactor": 0
      }
    }
  ],
  "meshes": [
    {
      "name": "20525362525140626076_0",
      "primitives": [
        {
          "attributes": {
            "POSITION": 0,
            "NORMAL": 1,
            "TEXCOORD_0": 2
          },
          "indices": 3,
          "material": 0
        }
      ]
    },
    {
      "name": "20525362525140626076_1",
      "primitives": [
        {
          "attributes": {
            "POSITION": 4,
            "NORMAL": 5,
            "TEXCOORD_0": 6
          },
          "indices": 7,
          "material": 1
        }
      ]
    }
  ],
  "nodes": [
    {
      "mesh": 0
    },
    {
      "mesh": 1
    }
  ],
  "scene": 0,
  "scenes": [
    {
      "nodes": [
        0,
        1
      ]
    }
  ],
  "textures": [
    {
      "source": 0
    },
    {
      "source": 1
    }
  ]
}