{
  "asset": {
    "copyright": "",
    "generator": "SharpGLTF 1.0.0",
    "version": "2.0"
  },
  "accessors": [
    {
      "name": "POSITION",
      "bufferView": 0,
      "componentType": 5126,
      "count": 3596,
      "max": [
        -517.14813232421875,
        63.602016448974609,
        344.42803955078125
      ],
      "min": [
        -549.26629638671875,
        41.201774597167969,
        306.19540405273438
      ],
      "type": "VEC3"
    },
    {
      "name": "NORMAL",
      "bufferView": 0,
      "byteOffset": 12,
      "componentType": 5126,
      "count": 3596,
      "max": [
        0.99999260902404785,
        0.99998486042022705,
        0.99817389249801636
      ],
      "min": [
        -0.99999189376831055,
        -0.99640882015228271,
        -0.99598491191864014
      ],
      "type": "VEC3"
    },
    {
      "name": "TEXCOORD_0",
      "bufferView": 0,
      "byteOffset": 24,
      "componentType": 5126,
      "count": 3596,
      "max": [
        0.998046875,
        0.9990234375
      ],
      "min": [
        0.001953125,
        0.0009765625
      ],
      "type": "VEC2"
    },
    {
      "bufferView": 1,
      "componentType": 5123,
      "count": 8562,
      "type": "SCALAR"
    },
    {
      "name": "POSITION",
      "bufferView": 0,
      "byteOffset": 115072,
      "componentType": 5126,
      "count": 473,
      "max": [
        -517.1480712890625,
        63.602016448974609,
        344.42636108398438
      ],
      "min": [
        -540.3095703125,
        45.374233245849609,
        306.19622802734375
      ],
      "type": "VEC3"
    },
    {
      "name": "NORMAL",
      "bufferView": 0,
      "byteOffset": 115084,
      "componentType": 5126,
      "count": 473,
      "max": [
        0.99915367364883423,
        0.99998486042022705,
        0.99088120460510254
      ],
      "min": [
        -0.99798393249511719,
        -0.89767515659332275,
        -0.99426448345184326
      ],
      "type": "VEC3"
    },
    {
      "name": "TEXCOORD_0",
      "bufferView": 0,
      "byteOffset": 115096,
      "componentType": 5126,
      "count": 473,
      "max": [
        0.998046875,
        0.998046875
      ],
      "min": [
        0.001953125,
        0.849609375
      ],
      "type": "VEC2"
    },
    {
      "bufferView": 1,
      "byteOffset": 17124,
      "componentType": 5123,
      "count": 1074,
      "type": "SCALAR"
    }
  ],
  "bufferViews": [
    {
      "buffer": 0,
      "byteLength": 130208,
      "byteStride": 32,
      "target": 34962
    },
    {
      "buffer": 0,
      "byteLength": 19272,
      "byteOffset": 130208,
      "target": 34963
    }
  ],
  "buffers": [
    {
      "byteLength": 149480,
      "uri": "20525362525051737156_LOD00.bin"
    }
  ],
  "images": [
    {
      "uri": "20525362525051737156_LOD00_0.png"
    },
    {
      "uri": "20525362525051737156_LOD00_1.png"
    }
  ],
  "materials": [
    {
      "doubleSided": true,
      "pbrMetallicRoughness": {
        "baseColorTexture": {
          "index": 0
        },
        "metallicFactor": 0
      }
    },
    {
      "doubleSided": true,
      "pbrMetallicRoughness": {
        "baseColorTexture": {
          "index": 1
        },
        "metallicFactor": 0
      }
    }
  ],
  "meshes": [
    {
      "name": "20525362525051737156_0",
      "primitives": [
        {
          "attributes": {
            "POSITION": 0,
            "NORMAL": 1,
            "TEXCOORD_0": 2
          },
          "indices": 3,
          "material": 0
        }
      ]
    },
    {
      "name": "20525362525051737156_1",
      "primitives": [
        {
          "attributes": {
            "POSITION": 4,
            "NORMAL": 5,
            "TEXCOORD_0": 6
          },
          "indices": 7,
          "material": 1
        }
      ]
    }
  ],
  "nodes": [
    {
      "mesh": 0
    },
    {
      "mesh": 1
    }
  ],
  "scene": 0,
  "scenes": [
    {
      "nodes": [
        0,
        1
      ]
    }
  ],
  "textures": [
    {
      "source": 0
    },
    {
      "source": 1
    }
  ]
}