{
  "asset": {
    "copyright": "",
    "generator": "SharpGLTF 1.0.0",
    "version": "2.0"
  },
  "accessors": [
    {
      "name": "POSITION",
      "bufferView": 0,
      "componentType": 5126,
      "count": 1896,
      "max": [
        -67.750770568847656,
        74.275177001953125,
        421.30767822265625
      ],
      "min": [
        -100.02033996582031,
        37.355140686035156,
        382.6124267578125
      ],
      "type": "VEC3"
    },
    {
      "name": "NORMAL",
      "bufferView": 0,
      "byteOffset": 12,
      "componentType": 5126,
      "count": 1896,
      "max": [
        0.99999231100082397,
        0.99998468160629272,
        0.9999920129776001
      ],
      "min": [
        -0.99999219179153442,
        -1,
        -0.9999924898147583
      ],
      "type": "VEC3"
    },
    {
      "name": "TEXCOORD_0",
      "bufferView": 0,
      "byteOffset": 24,
      "componentType": 5126,
      "count": 1896,
      "max": [
        0.998046875,
        0.9990234375
      ],
      "min": [
        0.001953125,
        0.0009765625
      ],
      "type": "VEC2"
    },
    {
      "bufferView": 1,
      "componentType": 5123,
      "count": 4263,
      "type": "SCALAR"
    },
    {
      "name": "POSITION",
      "bufferView": 0,
      "byteOffset": 60672,
      "componentType": 5126,
      "count": 671,
      "max": [
        -67.750770568847656,
        74.274856567382813,
        421.307861328125
      ],
      "min": [
        -99.8662109375,
        37.355113983154297,
        382.61239624023438
      ],
      "type": "VEC3"
    },
    {
      "name": "NORMAL",
      "bufferView": 0,
      "byteOffset": 60684,
      "componentType": 5126,
      "count": 671,
      "max": [
        0.99999231100082397,
        0.99998468160629272,
        0.9999920129776001
      ],
      "min": [
        -0.99636918306350708,
        -0.9951024055480957,
        -0.99915063381195068
      ],
      "type": "VEC3"
    },
    {
      "name": "TEXCOORD_0",
      "bufferView": 0,
      "byteOffset": 60696,
      "componentType": 5126,
      "count": 671,
      "max": [
        0.998046875,
        0.998046875
      ],
      "min": [
        0.001953125,
        0.701171875
      ],
      "type": "VEC2"
    },
    {
      "bufferView": 1,
      "byteOffset": 8526,
      "componentType": 5123,
      "count": 1701,
      "type": "SCALAR"
    }
  ],
  "bufferViews": [
    {
      "buffer": 0,
      "byteLength": 82144,
      "byteStride": 32,
      "target": 34962
    },
    {
      "buffer": 0,
      "byteLength": 11928,
      "byteOffset": 82144,
      "target": 34963
    }
  ],
  "buffers": [
    {
      "byteLength": 94072,
      "uri": "20525362525051736066_LOD00.bin"
    }
  ],
  "images": [
    {
      "uri": "20525362525051736066_LOD00_0.png"
    },
    {
      "uri": "20525362525051736066_LOD00_1.png"
    }
  ],
  "materials": [
    {
      "doubleSided": true,
      "pbrMetallicRoughness": {
        "baseColorTexture": {
          "index": 0
        },
        "metallicFactor": 0
      }
    },
    {
      "doubleSided": true,
      "pbrMetallicRoughness": {
        "baseColorTexture": {
          "index": 1
        },
        "metallicFactor": 0
      }
    }
  ],
  "meshes": [
    {
      "name": "20525362525051736066_0",
      "primitives": [
        {
          "attributes": {
            "POSITION": 0,
            "NORMAL": 1,
            "TEXCOORD_0": 2
          },
          "indices": 3,
          "material": 0
        }
      ]
    },
    {
      "name": "20525362525051736066_1",
      "primitives": [
        {
          "attributes": {
            "POSITION": 4,
            "NORMAL": 5,
            "TEXCOORD_0": 6
          },
          "indices": 7,
          "material": 1
        }
      ]
    }
  ],
  "nodes": [
    {
      "mesh": 0
    },
    {
      "mesh": 1
    }
  ],
  "scene": 0,
  "scenes": [
    {
      "nodes": [
        0,
        1
      ]
    }
  ],
  "textures": [
    {
      "source": 0
    },
    {
      "source": 1
    }
  ]
}