{
  "asset": {
    "copyright": "",
    "generator": "SharpGLTF 1.0.0",
    "version": "2.0"
  },
  "accessors": [
    {
      "name": "POSITION",
      "bufferView": 0,
      "componentType": 5126,
      "count": 2254,
      "max": [
        -484.74087524414063,
        69.63055419921875,
        306.21115112304688
      ],
      "min": [
        -517.16900634765625,
        37.806957244873047,
        267.97833251953125
      ],
      "type": "VEC3"
    },
    {
      "name": "NORMAL",
      "bufferView": 0,
      "byteOffset": 12,
      "componentType": 5126,
      "count": 2254,
      "max": [
        0.99999243021011353,
        0.99998486042022705,
        0.99999207258224487
      ],
      "min": [
        -0.99798834323883057,
        -0.99511432647705078,
        -0.99999237060546875
      ],
      "type": "VEC3"
    },
    {
      "name": "TEXCOORD_0",
      "bufferView": 0,
      "byteOffset": 24,
      "componentType": 5126,
      "count": 2254,
      "max": [
        0.998046875,
        0.9990234375
      ],
      "min": [
        0.001953125,
        0.0009765625
      ],
      "type": "VEC2"
    },
    {
      "bufferView": 1,
      "componentType": 5123,
      "count": 5490,
      "type": "SCALAR"
    },
    {
      "name": "POSITION",
      "bufferView": 0,
      "byteOffset": 72128,
      "componentType": 5126,
      "count": 1717,
      "max": [
        -485.04977416992188,
        69.630523681640625,
        306.21011352539063
      ],
      "min": [
        -517.166748046875,
        40.278369903564453,
        267.97998046875
      ],
      "type": "VEC3"
    },
    {
      "name": "NORMAL",
      "bufferView": 0,
      "byteOffset": 72140,
      "componentType": 5126,
      "count": 1717,
      "max": [
        0.99931401014328003,
        0.99998486042022705,
        0.99999207258224487
      ],
      "min": [
        -0.99999189376831055,
        -0.97518599033355713,
        -0.99999237060546875
      ],
      "type": "VEC3"
    },
    {
      "name": "TEXCOORD_0",
      "bufferView": 0,
      "byteOffset": 72152,
      "componentType": 5126,
      "count": 1717,
      "max": [
        0.998046875,
        0.998046875
      ],
      "min": [
        0.001953125,
        0.267578125
      ],
      "type": "VEC2"
    },
    {
      "bufferView": 1,
      "byteOffset": 10980,
      "componentType": 5123,
      "count": 4281,
      "type": "SCALAR"
    }
  ],
  "bufferViews": [
    {
      "buffer": 0,
      "byteLength": 127072,
      "byteStride": 32,
      "target": 34962
    },
    {
      "buffer": 0,
      "byteLength": 19542,
      "byteOffset": 127072,
      "target": 34963
    }
  ],
  "buffers": [
    {
      "byteLength": 146616,
      "uri": "20525362525051737145_LOD00.bin"
    }
  ],
  "images": [
    {
      "uri": "20525362525051737145_LOD00_0.png"
    },
    {
      "uri": "20525362525051737145_LOD00_1.png"
    }
  ],
  "materials": [
    {
      "doubleSided": true,
      "pbrMetallicRoughness": {
        "baseColorTexture": {
          "index": 0
        },
        "metallicFactor": 0
      }
    },
    {
      "doubleSided": true,
      "pbrMetallicRoughness": {
        "baseColorTexture": {
          "index": 1
        },
        "metallicFactor": 0
      }
    }
  ],
  "meshes": [
    {
      "name": "20525362525051737145_0",
      "primitives": [
        {
          "attributes": {
            "POSITION": 0,
            "NORMAL": 1,
            "TEXCOORD_0": 2
          },
          "indices": 3,
          "material": 0
        }
      ]
    },
    {
      "name": "20525362525051737145_1",
      "primitives": [
        {
          "attributes": {
            "POSITION": 4,
            "NORMAL": 5,
            "TEXCOORD_0": 6
          },
          "indices": 7,
          "material": 1
        }
      ]
    }
  ],
  "nodes": [
    {
      "mesh": 0
    },
    {
      "mesh": 1
    }
  ],
  "scene": 0,
  "scenes": [
    {
      "nodes": [
        0,
        1
      ]
    }
  ],
  "textures": [
    {
      "source": 0
    },
    {
      "source": 1
    }
  ]
}