{
  "asset": {
    "copyright": "",
    "generator": "SharpGLTF 1.0.0",
    "version": "2.0"
  },
  "accessors": [
    {
      "name": "POSITION",
      "bufferView": 0,
      "componentType": 5126,
      "count": 3542,
      "max": [
        -292.44436645507813,
        71.63568115234375,
        535.49444580078125
      ],
      "min": [
        -324.56033325195313,
        41.359275817871094,
        497.261474609375
      ],
      "type": "VEC3"
    },
    {
      "name": "NORMAL",
      "bufferView": 0,
      "byteOffset": 12,
      "componentType": 5126,
      "count": 3542,
      "max": [
        0.99999243021011353,
        0.99998486042022705,
        0.99931776523590088
      ],
      "min": [
        -0.99999207258224487,
        -0.99917072057723999,
        -0.99999254941940308
      ],
      "type": "VEC3"
    },
    {
      "name": "TEXCOORD_0",
      "bufferView": 0,
      "byteOffset": 24,
      "componentType": 5126,
      "count": 3542,
      "max": [
        0.998046875,
        0.9990234375
      ],
      "min": [
        0.001953125,
        0.0009765625
      ],
      "type": "VEC2"
    },
    {
      "bufferView": 1,
      "componentType": 5123,
      "count": 9060,
      "type": "SCALAR"
    },
    {
      "name": "POSITION",
      "bufferView": 0,
      "byteOffset": 113344,
      "componentType": 5126,
      "count": 1063,
      "max": [
        -292.44485473632813,
        71.635498046875,
        535.49444580078125
      ],
      "min": [
        -324.56027221679688,
        41.514362335205078,
        497.26150512695313
      ],
      "type": "VEC3"
    },
    {
      "name": "NORMAL",
      "bufferView": 0,
      "byteOffset": 113356,
      "componentType": 5126,
      "count": 1063,
      "max": [
        0.99898648262023926,
        0.99998486042022705,
        0.99897760152816772
      ],
      "min": [
        -0.99915403127670288,
        -0.9991682767868042,
        -0.99999254941940308
      ],
      "type": "VEC3"
    },
    {
      "name": "TEXCOORD_0",
      "bufferView": 0,
      "byteOffset": 113368,
      "componentType": 5126,
      "count": 1063,
      "max": [
        0.998046875,
        0.998046875
      ],
      "min": [
        0.001953125,
        0.587890625
      ],
      "type": "VEC2"
    },
    {
      "bufferView": 1,
      "byteOffset": 18120,
      "componentType": 5123,
      "count": 2640,
      "type": "SCALAR"
    }
  ],
  "bufferViews": [
    {
      "buffer": 0,
      "byteLength": 147360,
      "byteStride": 32,
      "target": 34962
    },
    {
      "buffer": 0,
      "byteLength": 23400,
      "byteOffset": 147360,
      "target": 34963
    }
  ],
  "buffers": [
    {
      "byteLength": 170760,
      "uri": "20525362525051736375_LOD00.bin"
    }
  ],
  "images": [
    {
      "uri": "20525362525051736375_LOD00_0.png"
    },
    {
      "uri": "20525362525051736375_LOD00_1.png"
    }
  ],
  "materials": [
    {
      "doubleSided": true,
      "pbrMetallicRoughness": {
        "baseColorTexture": {
          "index": 0
        },
        "metallicFactor": 0
      }
    },
    {
      "doubleSided": true,
      "pbrMetallicRoughness": {
        "baseColorTexture": {
          "index": 1
        },
        "metallicFactor": 0
      }
    }
  ],
  "meshes": [
    {
      "name": "20525362525051736375_0",
      "primitives": [
        {
          "attributes": {
            "POSITION": 0,
            "NORMAL": 1,
            "TEXCOORD_0": 2
          },
          "indices": 3,
          "material": 0
        }
      ]
    },
    {
      "name": "20525362525051736375_1",
      "primitives": [
        {
          "attributes": {
            "POSITION": 4,
            "NORMAL": 5,
            "TEXCOORD_0": 6
          },
          "indices": 7,
          "material": 1
        }
      ]
    }
  ],
  "nodes": [
    {
      "mesh": 0
    },
    {
      "mesh": 1
    }
  ],
  "scene": 0,
  "scenes": [
    {
      "nodes": [
        0,
        1
      ]
    }
  ],
  "textures": [
    {
      "source": 0
    },
    {
      "source": 1
    }
  ]
}