{
  "asset": {
    "copyright": "",
    "generator": "SharpGLTF 1.0.0",
    "version": "2.0"
  },
  "accessors": [
    {
      "name": "POSITION",
      "bufferView": 0,
      "componentType": 5126,
      "count": 4668,
      "max": [
        -645.560791015625,
        54.635974884033203,
        115.60748291015625
      ],
      "min": [
        -677.68017578125,
        39.036026000976563,
        76.912139892578125
      ],
      "type": "VEC3"
    },
    {
      "name": "NORMAL",
      "bufferView": 0,
      "byteOffset": 12,
      "componentType": 5126,
      "count": 4668,
      "max": [
        0.99999260902404785,
        0.99998486042022705,
        0.99999219179153442
      ],
      "min": [
        -0.999991774559021,
        -1,
        -0.9999922513961792
      ],
      "type": "VEC3"
    },
    {
      "name": "TEXCOORD_0",
      "bufferView": 0,
      "byteOffset": 24,
      "componentType": 5126,
      "count": 4668,
      "max": [
        0.998046875,
        0.9990234375
      ],
      "min": [
        0.001953125,
        0.0009765625
      ],
      "type": "VEC2"
    },
    {
      "bufferView": 1,
      "componentType": 5123,
      "count": 11271,
      "type": "SCALAR"
    },
    {
      "name": "POSITION",
      "bufferView": 0,
      "byteOffset": 149376,
      "componentType": 5126,
      "count": 285,
      "max": [
        -645.560791015625,
        53.090141296386719,
        115.14501190185547
      ],
      "min": [
        -677.83251953125,
        39.190444946289063,
        76.913230895996094
      ],
      "type": "VEC3"
    },
    {
      "name": "NORMAL",
      "bufferView": 0,
      "byteOffset": 149388,
      "componentType": 5126,
      "count": 285,
      "max": [
        0.99637579917907715,
        0.99998486042022705,
        0.99817311763763428
      ],
      "min": [
        -0.99440926313400269,
        -0.99509620666503906,
        -0.99598169326782227
      ],
      "type": "VEC3"
    },
    {
      "name": "TEXCOORD_0",
      "bufferView": 0,
      "byteOffset": 149400,
      "componentType": 5126,
      "count": 285,
      "max": [
        0.998046875,
        0.998046875
      ],
      "min": [
        0.001953125,
        0.923828125
      ],
      "type": "VEC2"
    },
    {
      "bufferView": 1,
      "byteOffset": 22542,
      "componentType": 5123,
      "count": 594,
      "type": "SCALAR"
    }
  ],
  "bufferViews": [
    {
      "buffer": 0,
      "byteLength": 158496,
      "byteStride": 32,
      "target": 34962
    },
    {
      "buffer": 0,
      "byteLength": 23730,
      "byteOffset": 158496,
      "target": 34963
    }
  ],
  "buffers": [
    {
      "byteLength": 182228,
      "uri": "20525362525140624076_LOD00.bin"
    }
  ],
  "images": [
    {
      "uri": "20525362525140624076_LOD00_0.png"
    },
    {
      "uri": "20525362525140624076_LOD00_1.png"
    }
  ],
  "materials": [
    {
      "doubleSided": true,
      "pbrMetallicRoughness": {
        "baseColorTexture": {
          "index": 0
        },
        "metallicFactor": 0
      }
    },
    {
      "doubleSided": true,
      "pbrMetallicRoughness": {
        "baseColorTexture": {
          "index": 1
        },
        "metallicFactor": 0
      }
    }
  ],
  "meshes": [
    {
      "name": "20525362525140624076_0",
      "primitives": [
        {
          "attributes": {
            "POSITION": 0,
            "NORMAL": 1,
            "TEXCOORD_0": 2
          },
          "indices": 3,
          "material": 0
        }
      ]
    },
    {
      "name": "20525362525140624076_1",
      "primitives": [
        {
          "attributes": {
            "POSITION": 4,
            "NORMAL": 5,
            "TEXCOORD_0": 6
          },
          "indices": 7,
          "material": 1
        }
      ]
    }
  ],
  "nodes": [
    {
      "mesh": 0
    },
    {
      "mesh": 1
    }
  ],
  "scene": 0,
  "scenes": [
    {
      "nodes": [
        0,
        1
      ]
    }
  ],
  "textures": [
    {
      "source": 0
    },
    {
      "source": 1
    }
  ]
}