{
  "asset": {
    "copyright": "",
    "generator": "SharpGLTF 1.0.0",
    "version": "2.0"
  },
  "accessors": [
    {
      "name": "POSITION",
      "bufferView": 0,
      "componentType": 5126,
      "count": 3653,
      "max": [
        -741.6781005859375,
        71.135284423828125,
        535.5189208984375
      ],
      "min": [
        -773.9508056640625,
        46.886421203613281,
        497.28433227539063
      ],
      "type": "VEC3"
    },
    {
      "name": "NORMAL",
      "bufferView": 0,
      "byteOffset": 12,
      "componentType": 5126,
      "count": 3653,
      "max": [
        0.99999266862869263,
        0.99998509883880615,
        0.99999189376831055
      ],
      "min": [
        -0.99897909164428711,
        -0.99917465448379517,
        -0.99999254941940308
      ],
      "type": "VEC3"
    },
    {
      "name": "TEXCOORD_0",
      "bufferView": 0,
      "byteOffset": 24,
      "componentType": 5126,
      "count": 3653,
      "max": [
        0.998046875,
        0.9990234375
      ],
      "min": [
        0.001953125,
        0.0009765625
      ],
      "type": "VEC2"
    },
    {
      "bufferView": 1,
      "componentType": 5123,
      "count": 9159,
      "type": "SCALAR"
    },
    {
      "name": "POSITION",
      "bufferView": 0,
      "byteOffset": 116896,
      "componentType": 5126,
      "count": 1586,
      "max": [
        -742.76171875,
        71.135284423828125,
        535.5189208984375
      ],
      "min": [
        -773.95050048828125,
        47.500324249267578,
        497.28533935546875
      ],
      "type": "VEC3"
    },
    {
      "name": "NORMAL",
      "bufferView": 0,
      "byteOffset": 116908,
      "componentType": 5126,
      "count": 1586,
      "max": [
        0.99999266862869263,
        0.99998509883880615,
        0.99999189376831055
      ],
      "min": [
        -0.99897909164428711,
        -0.99917465448379517,
        -0.99999254941940308
      ],
      "type": "VEC3"
    },
    {
      "name": "TEXCOORD_0",
      "bufferView": 0,
      "byteOffset": 116920,
      "componentType": 5126,
      "count": 1586,
      "max": [
        0.998046875,
        0.998046875
      ],
      "min": [
        0.001953125,
        0.376953125
      ],
      "type": "VEC2"
    },
    {
      "bufferView": 1,
      "byteOffset": 18318,
      "componentType": 5123,
      "count": 4056,
      "type": "SCALAR"
    }
  ],
  "bufferViews": [
    {
      "buffer": 0,
      "byteLength": 167648,
      "byteStride": 32,
      "target": 34962
    },
    {
      "buffer": 0,
      "byteLength": 26430,
      "byteOffset": 167648,
      "target": 34963
    }
  ],
  "buffers": [
    {
      "byteLength": 194080,
      "uri": "20525362525140626365_LOD00.bin"
    }
  ],
  "images": [
    {
      "uri": "20525362525140626365_LOD00_0.png"
    },
    {
      "uri": "20525362525140626365_LOD00_1.png"
    }
  ],
  "materials": [
    {
      "doubleSided": true,
      "pbrMetallicRoughness": {
        "baseColorTexture": {
          "index": 0
        },
        "metallicFactor": 0
      }
    },
    {
      "doubleSided": true,
      "pbrMetallicRoughness": {
        "baseColorTexture": {
          "index": 1
        },
        "metallicFactor": 0
      }
    }
  ],
  "meshes": [
    {
      "name": "20525362525140626365_0",
      "primitives": [
        {
          "attributes": {
            "POSITION": 0,
            "NORMAL": 1,
            "TEXCOORD_0": 2
          },
          "indices": 3,
          "material": 0
        }
      ]
    },
    {
      "name": "20525362525140626365_1",
      "primitives": [
        {
          "attributes": {
            "POSITION": 4,
            "NORMAL": 5,
            "TEXCOORD_0": 6
          },
          "indices": 7,
          "material": 1
        }
      ]
    }
  ],
  "nodes": [
    {
      "mesh": 0
    },
    {
      "mesh": 1
    }
  ],
  "scene": 0,
  "scenes": [
    {
      "nodes": [
        0,
        1
      ]
    }
  ],
  "textures": [
    {
      "source": 0
    },
    {
      "source": 1
    }
  ]
}