{
  "asset": {
    "copyright": "",
    "generator": "SharpGLTF 1.0.0",
    "version": "2.0"
  },
  "accessors": [
    {
      "name": "POSITION",
      "bufferView": 0,
      "componentType": 5126,
      "count": 4987,
      "max": [
        913.5205078125,
        588.28399658203125,
        1238.408935546875
      ],
      "min": [
        -114.38477325439453,
        400.32498168945313,
        14.800388336181641
      ],
      "type": "VEC3"
    },
    {
      "name": "NORMAL",
      "bufferView": 0,
      "byteOffset": 12,
      "componentType": 5126,
      "count": 4987,
      "max": [
        0.99999159574508667,
        0.99998509883880615,
        0.9999922513961792
      ],
      "min": [
        -0.99999284744262695,
        -1,
        -0.9999922513961792
      ],
      "type": "VEC3"
    },
    {
      "name": "TEXCOORD_0",
      "bufferView": 0,
      "byteOffset": 24,
      "componentType": 5126,
      "count": 4987,
      "max": [
        0.998046875,
        0.9990234375
      ],
      "min": [
        0.001953125,
        0.0009765625
      ],
      "type": "VEC2"
    },
    {
      "bufferView": 1,
      "componentType": 5123,
      "count": 8166,
      "type": "SCALAR"
    },
    {
      "name": "POSITION",
      "bufferView": 0,
      "byteOffset": 159584,
      "componentType": 5126,
      "count": 708,
      "max": [
        903.60693359375,
        568.4061279296875,
        1228.4425048828125
      ],
      "min": [
        -114.31721496582031,
        424.9862060546875,
        14.817317962646484
      ],
      "type": "VEC3"
    },
    {
      "name": "NORMAL",
      "bufferView": 0,
      "byteOffset": 159596,
      "componentType": 5126,
      "count": 708,
      "max": [
        0.99999159574508667,
        0.99998509883880615,
        0.9999922513961792
      ],
      "min": [
        -0.99999284744262695,
        -1,
        -0.9999922513961792
      ],
      "type": "VEC3"
    },
    {
      "name": "TEXCOORD_0",
      "bufferView": 0,
      "byteOffset": 159608,
      "componentType": 5126,
      "count": 708,
      "max": [
        0.998046875,
        0.998046875
      ],
      "min": [
        0.001953125,
        0.923828125
      ],
      "type": "VEC2"
    },
    {
      "bufferView": 1,
      "byteOffset": 16332,
      "componentType": 5123,
      "count": 1047,
      "type": "SCALAR"
    }
  ],
  "bufferViews": [
    {
      "buffer": 0,
      "byteLength": 182240,
      "byteStride": 32,
      "target": 34962
    },
    {
      "buffer": 0,
      "byteLength": 18426,
      "byteOffset": 182240,
      "target": 34963
    }
  ],
  "buffers": [
    {
      "byteLength": 200668,
      "uri": "205253625250535_LOD00.bin"
    }
  ],
  "images": [
    {
      "uri": "205253625250535_LOD00_0.png"
    },
    {
      "uri": "205253625250535_LOD00_1.png"
    }
  ],
  "materials": [
    {
      "doubleSided": true,
      "pbrMetallicRoughness": {
        "baseColorTexture": {
          "index": 0
        },
        "metallicFactor": 0
      }
    },
    {
      "doubleSided": true,
      "pbrMetallicRoughness": {
        "baseColorTexture": {
          "index": 1
        },
        "metallicFactor": 0
      }
    }
  ],
  "meshes": [
    {
      "name": "205253625250535_0",
      "primitives": [
        {
          "attributes": {
            "POSITION": 0,
            "NORMAL": 1,
            "TEXCOORD_0": 2
          },
          "indices": 3,
          "material": 0
        }
      ]
    },
    {
      "name": "205253625250535_1",
      "primitives": [
        {
          "attributes": {
            "POSITION": 4,
            "NORMAL": 5,
            "TEXCOORD_0": 6
          },
          "indices": 7,
          "material": 1
        }
      ]
    }
  ],
  "nodes": [
    {
      "mesh": 0
    },
    {
      "mesh": 1
    }
  ],
  "scene": 0,
  "scenes": [
    {
      "nodes": [
        0,
        1
      ]
    }
  ],
  "textures": [
    {
      "source": 0
    },
    {
      "source": 1
    }
  ]
}