{
  "asset": {
    "copyright": "",
    "generator": "SharpGLTF 1.0.0",
    "version": "2.0"
  },
  "accessors": [
    {
      "name": "POSITION",
      "bufferView": 0,
      "componentType": 5126,
      "count": 2150,
      "max": [
        -164.05195617675781,
        66.866081237792969,
        267.98541259765625
      ],
      "min": [
        -196.3226318359375,
        37.825405120849609,
        229.75404357910156
      ],
      "type": "VEC3"
    },
    {
      "name": "NORMAL",
      "bufferView": 0,
      "byteOffset": 12,
      "componentType": 5126,
      "count": 2150,
      "max": [
        0.99999237060546875,
        0.99998462200164795,
        0.99999207258224487
      ],
      "min": [
        -0.99999219179153442,
        -0.52178698778152466,
        -0.99999237060546875
      ],
      "type": "VEC3"
    },
    {
      "name": "TEXCOORD_0",
      "bufferView": 0,
      "byteOffset": 24,
      "componentType": 5126,
      "count": 2150,
      "max": [
        0.998046875,
        0.9990234375
      ],
      "min": [
        0.001953125,
        0.0009765625
      ],
      "type": "VEC2"
    },
    {
      "bufferView": 1,
      "componentType": 5123,
      "count": 5229,
      "type": "SCALAR"
    },
    {
      "name": "POSITION",
      "bufferView": 0,
      "byteOffset": 68800,
      "componentType": 5126,
      "count": 29,
      "max": [
        -186.28607177734375,
        62.69561767578125,
        258.27328491210938
      ],
      "min": [
        -196.16807556152344,
        58.833469390869141,
        240.08303833007813
      ],
      "type": "VEC3"
    },
    {
      "name": "NORMAL",
      "bufferView": 0,
      "byteOffset": 68812,
      "componentType": 5126,
      "count": 29,
      "max": [
        0.79995125532150269,
        0.99998462200164795,
        0.76622706651687622
      ],
      "min": [
        -0.68300116062164307,
        -0.13662543892860413,
        -0.8183247447013855
      ],
      "type": "VEC3"
    },
    {
      "name": "TEXCOORD_0",
      "bufferView": 0,
      "byteOffset": 68824,
      "componentType": 5126,
      "count": 29,
      "max": [
        0.208984375,
        0.998046875
      ],
      "min": [
        0.001953125,
        0.939453125
      ],
      "type": "VEC2"
    },
    {
      "bufferView": 1,
      "byteOffset": 10458,
      "componentType": 5123,
      "count": 66,
      "type": "SCALAR"
    }
  ],
  "bufferViews": [
    {
      "buffer": 0,
      "byteLength": 69728,
      "byteStride": 32,
      "target": 34962
    },
    {
      "buffer": 0,
      "byteLength": 10590,
      "byteOffset": 69728,
      "target": 34963
    }
  ],
  "buffers": [
    {
      "byteLength": 80320,
      "uri": "20525362525051734277_LOD00.bin"
    }
  ],
  "images": [
    {
      "uri": "20525362525051734277_LOD00_0.png"
    },
    {
      "uri": "20525362525051734277_LOD00_1.png"
    }
  ],
  "materials": [
    {
      "doubleSided": true,
      "pbrMetallicRoughness": {
        "baseColorTexture": {
          "index": 0
        },
        "metallicFactor": 0
      }
    },
    {
      "doubleSided": true,
      "pbrMetallicRoughness": {
        "baseColorTexture": {
          "index": 1
        },
        "metallicFactor": 0
      }
    }
  ],
  "meshes": [
    {
      "name": "20525362525051734277_0",
      "primitives": [
        {
          "attributes": {
            "POSITION": 0,
            "NORMAL": 1,
            "TEXCOORD_0": 2
          },
          "indices": 3,
          "material": 0
        }
      ]
    },
    {
      "name": "20525362525051734277_1",
      "primitives": [
        {
          "attributes": {
            "POSITION": 4,
            "NORMAL": 5,
            "TEXCOORD_0": 6
          },
          "indices": 7,
          "material": 1
        }
      ]
    }
  ],
  "nodes": [
    {
      "mesh": 0
    },
    {
      "mesh": 1
    }
  ],
  "scene": 0,
  "scenes": [
    {
      "nodes": [
        0,
        1
      ]
    }
  ],
  "textures": [
    {
      "source": 0
    },
    {
      "source": 1
    }
  ]
}