{
  "asset": {
    "copyright": "",
    "generator": "SharpGLTF 1.0.0",
    "version": "2.0"
  },
  "accessors": [
    {
      "name": "POSITION",
      "bufferView": 0,
      "componentType": 5126,
      "count": 5203,
      "max": [
        -292.4503173828125,
        62.691387176513672,
        306.66567993164063
      ],
      "min": [
        -324.56744384765625,
        37.973995208740234,
        267.50949096679688
      ],
      "type": "VEC3"
    },
    {
      "name": "NORMAL",
      "bufferView": 0,
      "byteOffset": 12,
      "componentType": 5126,
      "count": 5203,
      "max": [
        0.99999237060546875,
        0.9999847412109375,
        0.99999207258224487
      ],
      "min": [
        -0.99999213218688965,
        -0.99917072057723999,
        -0.99898296594619751
      ],
      "type": "VEC3"
    },
    {
      "name": "TEXCOORD_0",
      "bufferView": 0,
      "byteOffset": 24,
      "componentType": 5126,
      "count": 5203,
      "max": [
        0.998046875,
        0.9990234375
      ],
      "min": [
        0.001953125,
        0.0009765625
      ],
      "type": "VEC2"
    },
    {
      "bufferView": 1,
      "componentType": 5123,
      "count": 12552,
      "type": "SCALAR"
    },
    {
      "name": "POSITION",
      "bufferView": 0,
      "byteOffset": 166496,
      "componentType": 5126,
      "count": 349,
      "max": [
        -292.45065307617188,
        59.292736053466797,
        306.20272827148438
      ],
      "min": [
        -324.5673828125,
        38.591724395751953,
        267.971435546875
      ],
      "type": "VEC3"
    },
    {
      "name": "NORMAL",
      "bufferView": 0,
      "byteOffset": 166508,
      "componentType": 5126,
      "count": 349,
      "max": [
        0.99817848205566406,
        0.9999847412109375,
        0.9993165135383606
      ],
      "min": [
        -0.99818193912506104,
        -0.99641638994216919,
        -0.98823046684265137
      ],
      "type": "VEC3"
    },
    {
      "name": "TEXCOORD_0",
      "bufferView": 0,
      "byteOffset": 166520,
      "componentType": 5126,
      "count": 349,
      "max": [
        0.994140625,
        0.998046875
      ],
      "min": [
        0.001953125,
        0.916015625
      ],
      "type": "VEC2"
    },
    {
      "bufferView": 1,
      "byteOffset": 25104,
      "componentType": 5123,
      "count": 708,
      "type": "SCALAR"
    }
  ],
  "bufferViews": [
    {
      "buffer": 0,
      "byteLength": 177664,
      "byteStride": 32,
      "target": 34962
    },
    {
      "buffer": 0,
      "byteLength": 26520,
      "byteOffset": 177664,
      "target": 34963
    }
  ],
  "buffers": [
    {
      "byteLength": 204184,
      "uri": "20525362525051736155_LOD00.bin"
    }
  ],
  "images": [
    {
      "uri": "20525362525051736155_LOD00_0.png"
    },
    {
      "uri": "20525362525051736155_LOD00_1.png"
    }
  ],
  "materials": [
    {
      "doubleSided": true,
      "pbrMetallicRoughness": {
        "baseColorTexture": {
          "index": 0
        },
        "metallicFactor": 0
      }
    },
    {
      "doubleSided": true,
      "pbrMetallicRoughness": {
        "baseColorTexture": {
          "index": 1
        },
        "metallicFactor": 0
      }
    }
  ],
  "meshes": [
    {
      "name": "20525362525051736155_0",
      "primitives": [
        {
          "attributes": {
            "POSITION": 0,
            "NORMAL": 1,
            "TEXCOORD_0": 2
          },
          "indices": 3,
          "material": 0
        }
      ]
    },
    {
      "name": "20525362525051736155_1",
      "primitives": [
        {
          "attributes": {
            "POSITION": 4,
            "NORMAL": 5,
            "TEXCOORD_0": 6
          },
          "indices": 7,
          "material": 1
        }
      ]
    }
  ],
  "nodes": [
    {
      "mesh": 0
    },
    {
      "mesh": 1
    }
  ],
  "scene": 0,
  "scenes": [
    {
      "nodes": [
        0,
        1
      ]
    }
  ],
  "textures": [
    {
      "source": 0
    },
    {
      "source": 1
    }
  ]
}