{
  "asset": {
    "copyright": "",
    "generator": "SharpGLTF 1.0.0",
    "version": "2.0"
  },
  "accessors": [
    {
      "name": "POSITION",
      "bufferView": 0,
      "componentType": 5126,
      "count": 1288,
      "max": [
        -260.34222412109375,
        56.952247619628906,
        650.1380615234375
      ],
      "min": [
        -292.45803833007813,
        41.352291107177734,
        611.905517578125
      ],
      "type": "VEC3"
    },
    {
      "name": "NORMAL",
      "bufferView": 0,
      "byteOffset": 12,
      "componentType": 5126,
      "count": 1288,
      "max": [
        0.99915450811386108,
        0.99998492002487183,
        0.99673265218734741
      ],
      "min": [
        -0.99915426969528198,
        -1,
        -0.99999254941940308
      ],
      "type": "VEC3"
    },
    {
      "name": "TEXCOORD_0",
      "bufferView": 0,
      "byteOffset": 24,
      "componentType": 5126,
      "count": 1288,
      "max": [
        0.998046875,
        0.9990234375
      ],
      "min": [
        0.001953125,
        0.0009765625
      ],
      "type": "VEC2"
    },
    {
      "bufferView": 1,
      "componentType": 5123,
      "count": 3153,
      "type": "SCALAR"
    },
    {
      "name": "POSITION",
      "bufferView": 0,
      "byteOffset": 41216,
      "componentType": 5126,
      "count": 325,
      "max": [
        -260.3427734375,
        56.952247619628906,
        645.35791015625
      ],
      "min": [
        -292.45785522460938,
        42.277194976806641,
        617.1485595703125
      ],
      "type": "VEC3"
    },
    {
      "name": "NORMAL",
      "bufferView": 0,
      "byteOffset": 41228,
      "componentType": 5126,
      "count": 325,
      "max": [
        0.98193717002868652,
        0.99998492002487183,
        0.99673265218734741
      ],
      "min": [
        -0.99915426969528198,
        -0.98991560935974121,
        -0.96970623731613159
      ],
      "type": "VEC3"
    },
    {
      "name": "TEXCOORD_0",
      "bufferView": 0,
      "byteOffset": 41240,
      "componentType": 5126,
      "count": 325,
      "max": [
        0.998046875,
        0.998046875
      ],
      "min": [
        0.001953125,
        0.681640625
      ],
      "type": "VEC2"
    },
    {
      "bufferView": 1,
      "byteOffset": 6306,
      "componentType": 5123,
      "count": 639,
      "type": "SCALAR"
    }
  ],
  "bufferViews": [
    {
      "buffer": 0,
      "byteLength": 51616,
      "byteStride": 32,
      "target": 34962
    },
    {
      "buffer": 0,
      "byteLength": 7584,
      "byteOffset": 51616,
      "target": 34963
    }
  ],
  "buffers": [
    {
      "byteLength": 59200,
      "uri": "20525362525053514156_LOD00.bin"
    }
  ],
  "images": [
    {
      "uri": "20525362525053514156_LOD00_0.png"
    },
    {
      "uri": "20525362525053514156_LOD00_1.png"
    }
  ],
  "materials": [
    {
      "doubleSided": true,
      "pbrMetallicRoughness": {
        "baseColorTexture": {
          "index": 0
        },
        "metallicFactor": 0
      }
    },
    {
      "doubleSided": true,
      "pbrMetallicRoughness": {
        "baseColorTexture": {
          "index": 1
        },
        "metallicFactor": 0
      }
    }
  ],
  "meshes": [
    {
      "name": "20525362525053514156_0",
      "primitives": [
        {
          "attributes": {
            "POSITION": 0,
            "NORMAL": 1,
            "TEXCOORD_0": 2
          },
          "indices": 3,
          "material": 0
        }
      ]
    },
    {
      "name": "20525362525053514156_1",
      "primitives": [
        {
          "attributes": {
            "POSITION": 4,
            "NORMAL": 5,
            "TEXCOORD_0": 6
          },
          "indices": 7,
          "material": 1
        }
      ]
    }
  ],
  "nodes": [
    {
      "mesh": 0
    },
    {
      "mesh": 1
    }
  ],
  "scene": 0,
  "scenes": [
    {
      "nodes": [
        0,
        1
      ]
    }
  ],
  "textures": [
    {
      "source": 0
    },
    {
      "source": 1
    }
  ]
}