{
  "asset": {
    "copyright": "",
    "generator": "SharpGLTF 1.0.0",
    "version": "2.0"
  },
  "accessors": [
    {
      "name": "POSITION",
      "bufferView": 0,
      "componentType": 5126,
      "count": 114,
      "max": [
        -166.98477172851563,
        110.71977996826172,
        344.41763305664063
      ],
      "min": [
        -196.16796875,
        74.26239013671875,
        325.30044555664063
      ],
      "type": "VEC3"
    },
    {
      "name": "NORMAL",
      "bufferView": 0,
      "byteOffset": 12,
      "componentType": 5126,
      "count": 114,
      "max": [
        0.99999237060546875,
        -0.0038972774054855108,
        -1.6407071598223411E-05
      ],
      "min": [
        -1.6066223906818777E-05,
        -0.0055229072459042072,
        -0.99999237060546875
      ],
      "type": "VEC3"
    },
    {
      "name": "TEXCOORD_0",
      "bufferView": 0,
      "byteOffset": 24,
      "componentType": 5126,
      "count": 114,
      "max": [
        0.974609375,
        0.9990234375
      ],
      "min": [
        0.001953125,
        0.2685546875
      ],
      "type": "VEC2"
    },
    {
      "bufferView": 1,
      "componentType": 5123,
      "count": 303,
      "type": "SCALAR"
    }
  ],
  "bufferViews": [
    {
      "buffer": 0,
      "byteLength": 3648,
      "byteStride": 32,
      "target": 34962
    },
    {
      "buffer": 0,
      "byteLength": 606,
      "byteOffset": 3648,
      "target": 34963
    }
  ],
  "buffers": [
    {
      "byteLength": 4256,
      "uri": "20525362525051736413_LOD00.bin"
    }
  ],
  "images": [
    {
      "uri": "20525362525051736413_LOD00.png"
    }
  ],
  "materials": [
    {
      "doubleSided": true,
      "pbrMetallicRoughness": {
        "baseColorTexture": {
          "index": 0
        },
        "metallicFactor": 0
      }
    }
  ],
  "meshes": [
    {
      "name": "20525362525051736413_0",
      "primitives": [
        {
          "attributes": {
            "POSITION": 0,
            "NORMAL": 1,
            "TEXCOORD_0": 2
          },
          "indices": 3,
          "material": 0
        }
      ]
    }
  ],
  "nodes": [
    {
      "mesh": 0
    }
  ],
  "scene": 0,
  "scenes": [
    {
      "nodes": [
        0
      ]
    }
  ],
  "textures": [
    {
      "source": 0
    }
  ]
}