{
  "asset": {
    "copyright": "",
    "generator": "SharpGLTF 1.0.0",
    "version": "2.0"
  },
  "accessors": [
    {
      "name": "POSITION",
      "bufferView": 0,
      "componentType": 5126,
      "count": 3250,
      "max": [
        -517.13671875,
        74.5545654296875,
        573.7186279296875
      ],
      "min": [
        -549.56072998046875,
        45.04925537109375,
        535.02545166015625
      ],
      "type": "VEC3"
    },
    {
      "name": "NORMAL",
      "bufferView": 0,
      "byteOffset": 12,
      "componentType": 5126,
      "count": 3250,
      "max": [
        0.99999254941940308,
        0.99998503923416138,
        0.99999189376831055
      ],
      "min": [
        -0.99999189376831055,
        -0.93120527267456055,
        -0.99915266036987305
      ],
      "type": "VEC3"
    },
    {
      "name": "TEXCOORD_0",
      "bufferView": 0,
      "byteOffset": 24,
      "componentType": 5126,
      "count": 3250,
      "max": [
        0.998046875,
        0.9990234375
      ],
      "min": [
        0.001953125,
        0.0009765625
      ],
      "type": "VEC2"
    },
    {
      "bufferView": 1,
      "componentType": 5123,
      "count": 7749,
      "type": "SCALAR"
    },
    {
      "name": "POSITION",
      "bufferView": 0,
      "byteOffset": 104000,
      "componentType": 5126,
      "count": 721,
      "max": [
        -517.13702392578125,
        70.074607849121094,
        573.7183837890625
      ],
      "min": [
        -549.2535400390625,
        48.9102783203125,
        535.48736572265625
      ],
      "type": "VEC3"
    },
    {
      "name": "NORMAL",
      "bufferView": 0,
      "byteOffset": 104012,
      "componentType": 5126,
      "count": 721,
      "max": [
        0.99915796518325806,
        0.99998503923416138,
        0.99999189376831055
      ],
      "min": [
        -0.99999189376831055,
        -0.94603341817855835,
        -0.98827540874481201
      ],
      "type": "VEC3"
    },
    {
      "name": "TEXCOORD_0",
      "bufferView": 0,
      "byteOffset": 104024,
      "componentType": 5126,
      "count": 721,
      "max": [
        0.998046875,
        0.998046875
      ],
      "min": [
        0.001953125,
        0.693359375
      ],
      "type": "VEC2"
    },
    {
      "bufferView": 1,
      "byteOffset": 15498,
      "componentType": 5123,
      "count": 1581,
      "type": "SCALAR"
    }
  ],
  "bufferViews": [
    {
      "buffer": 0,
      "byteLength": 127072,
      "byteStride": 32,
      "target": 34962
    },
    {
      "buffer": 0,
      "byteLength": 18660,
      "byteOffset": 127072,
      "target": 34963
    }
  ],
  "buffers": [
    {
      "byteLength": 145732,
      "uri": "20525362525051737376_LOD00.bin"
    }
  ],
  "images": [
    {
      "uri": "20525362525051737376_LOD00_0.png"
    },
    {
      "uri": "20525362525051737376_LOD00_1.png"
    }
  ],
  "materials": [
    {
      "doubleSided": true,
      "pbrMetallicRoughness": {
        "baseColorTexture": {
          "index": 0
        },
        "metallicFactor": 0
      }
    },
    {
      "doubleSided": true,
      "pbrMetallicRoughness": {
        "baseColorTexture": {
          "index": 1
        },
        "metallicFactor": 0
      }
    }
  ],
  "meshes": [
    {
      "name": "20525362525051737376_0",
      "primitives": [
        {
          "attributes": {
            "POSITION": 0,
            "NORMAL": 1,
            "TEXCOORD_0": 2
          },
          "indices": 3,
          "material": 0
        }
      ]
    },
    {
      "name": "20525362525051737376_1",
      "primitives": [
        {
          "attributes": {
            "POSITION": 4,
            "NORMAL": 5,
            "TEXCOORD_0": 6
          },
          "indices": 7,
          "material": 1
        }
      ]
    }
  ],
  "nodes": [
    {
      "mesh": 0
    },
    {
      "mesh": 1
    }
  ],
  "scene": 0,
  "scenes": [
    {
      "nodes": [
        0,
        1
      ]
    }
  ],
  "textures": [
    {
      "source": 0
    },
    {
      "source": 1
    }
  ]
}