{
  "asset": {
    "copyright": "",
    "generator": "SharpGLTF 1.0.0",
    "version": "2.0"
  },
  "accessors": [
    {
      "name": "POSITION",
      "bufferView": 0,
      "componentType": 5126,
      "count": 651,
      "max": [
        -656.9571533203125,
        37.791206359863281,
        573.724365234375
      ],
      "min": [
        -677.80120849609375,
        33.61846923828125,
        562.77880859375
      ],
      "type": "VEC3"
    },
    {
      "name": "NORMAL",
      "bufferView": 0,
      "byteOffset": 12,
      "componentType": 5126,
      "count": 651,
      "max": [
        0.9989888072013855,
        0.99998509883880615,
        0.9993177056312561
      ],
      "min": [
        -0.99897974729537964,
        -0.91206163167953491,
        -0.99485790729522705
      ],
      "type": "VEC3"
    },
    {
      "name": "TEXCOORD_0",
      "bufferView": 0,
      "byteOffset": 24,
      "componentType": 5126,
      "count": 651,
      "max": [
        0.998046875,
        0.998046875
      ],
      "min": [
        0.001953125,
        0.630859375
      ],
      "type": "VEC2"
    },
    {
      "bufferView": 1,
      "componentType": 5123,
      "count": 1635,
      "type": "SCALAR"
    }
  ],
  "bufferViews": [
    {
      "buffer": 0,
      "byteLength": 20832,
      "byteStride": 32,
      "target": 34962
    },
    {
      "buffer": 0,
      "byteLength": 3270,
      "byteOffset": 20832,
      "target": 34963
    }
  ],
  "buffers": [
    {
      "byteLength": 24104,
      "uri": "20525362525140626272_LOD00.bin"
    }
  ],
  "images": [
    {
      "uri": "20525362525140626272_LOD00.png"
    }
  ],
  "materials": [
    {
      "doubleSided": true,
      "pbrMetallicRoughness": {
        "baseColorTexture": {
          "index": 0
        },
        "metallicFactor": 0
      }
    }
  ],
  "meshes": [
    {
      "name": "20525362525140626272_0",
      "primitives": [
        {
          "attributes": {
            "POSITION": 0,
            "NORMAL": 1,
            "TEXCOORD_0": 2
          },
          "indices": 3,
          "material": 0
        }
      ]
    }
  ],
  "nodes": [
    {
      "mesh": 0
    }
  ],
  "scene": 0,
  "scenes": [
    {
      "nodes": [
        0
      ]
    }
  ],
  "textures": [
    {
      "source": 0
    }
  ]
}