{
  "asset": {
    "copyright": "",
    "generator": "SharpGLTF 1.0.0",
    "version": "2.0"
  },
  "accessors": [
    {
      "name": "POSITION",
      "bufferView": 0,
      "componentType": 5126,
      "count": 515,
      "max": [
        -388.2916259765625,
        37.834716796875,
        176.76094055175781
      ],
      "min": [
        -421.33441162109375,
        37.061321258544922,
        152.86685180664063
      ],
      "type": "VEC3"
    },
    {
      "name": "NORMAL",
      "bufferView": 0,
      "byteOffset": 12,
      "componentType": 5126,
      "count": 515,
      "max": [
        0.58624184131622314,
        0.99998480081558228,
        0.949474036693573
      ],
      "min": [
        -0.76530826091766357,
        -0.0054288348183035851,
        -0.99043005704879761
      ],
      "type": "VEC3"
    },
    {
      "name": "TEXCOORD_0",
      "bufferView": 0,
      "byteOffset": 24,
      "componentType": 5126,
      "count": 515,
      "max": [
        0.998046875,
        0.998046875
      ],
      "min": [
        0.001953125,
        0.634765625
      ],
      "type": "VEC2"
    },
    {
      "bufferView": 1,
      "componentType": 5123,
      "count": 1506,
      "type": "SCALAR"
    }
  ],
  "bufferViews": [
    {
      "buffer": 0,
      "byteLength": 16480,
      "byteStride": 32,
      "target": 34962
    },
    {
      "buffer": 0,
      "byteLength": 3012,
      "byteOffset": 16480,
      "target": 34963
    }
  ],
  "buffers": [
    {
      "byteLength": 19492,
      "uri": "20525362525051735252_LOD00.bin"
    }
  ],
  "images": [
    {
      "uri": "20525362525051735252_LOD00.png"
    }
  ],
  "materials": [
    {
      "doubleSided": true,
      "pbrMetallicRoughness": {
        "baseColorTexture": {
          "index": 0
        },
        "metallicFactor": 0
      }
    }
  ],
  "meshes": [
    {
      "name": "20525362525051735252_0",
      "primitives": [
        {
          "attributes": {
            "POSITION": 0,
            "NORMAL": 1,
            "TEXCOORD_0": 2
          },
          "indices": 3,
          "material": 0
        }
      ]
    }
  ],
  "nodes": [
    {
      "mesh": 0
    }
  ],
  "scene": 0,
  "scenes": [
    {
      "nodes": [
        0
      ]
    }
  ],
  "textures": [
    {
      "source": 0
    }
  ]
}