{
  "asset": {
    "copyright": "",
    "generator": "SharpGLTF 1.0.0",
    "version": "2.0"
  },
  "accessors": [
    {
      "name": "POSITION",
      "bufferView": 0,
      "componentType": 5126,
      "count": 2328,
      "max": [
        -741.84619140625,
        74.238304138183594,
        344.7501220703125
      ],
      "min": [
        -773.965576171875,
        41.949962615966797,
        306.208984375
      ],
      "type": "VEC3"
    },
    {
      "name": "NORMAL",
      "bufferView": 0,
      "byteOffset": 12,
      "componentType": 5126,
      "count": 2328,
      "max": [
        0.99999266862869263,
        0.99998503923416138,
        0.99999207258224487
      ],
      "min": [
        -0.99999183416366577,
        -1,
        -0.99999237060546875
      ],
      "type": "VEC3"
    },
    {
      "name": "TEXCOORD_0",
      "bufferView": 0,
      "byteOffset": 24,
      "componentType": 5126,
      "count": 2328,
      "max": [
        0.9990234375,
        0.9990234375
      ],
      "min": [
        0.0009765625,
        0.0009765625
      ],
      "type": "VEC2"
    },
    {
      "bufferView": 1,
      "componentType": 5123,
      "count": 4800,
      "type": "SCALAR"
    },
    {
      "name": "POSITION",
      "bufferView": 0,
      "byteOffset": 74496,
      "componentType": 5126,
      "count": 1781,
      "max": [
        -742.31085205078125,
        74.238304138183594,
        344.7503662109375
      ],
      "min": [
        -774.27130126953125,
        41.950084686279297,
        306.20913696289063
      ],
      "type": "VEC3"
    },
    {
      "name": "NORMAL",
      "bufferView": 0,
      "byteOffset": 74508,
      "componentType": 5126,
      "count": 1781,
      "max": [
        0.99999266862869263,
        0.99998503923416138,
        0.99999207258224487
      ],
      "min": [
        -0.99999183416366577,
        -1,
        -0.99999237060546875
      ],
      "type": "VEC3"
    },
    {
      "name": "TEXCOORD_0",
      "bufferView": 0,
      "byteOffset": 74520,
      "componentType": 5126,
      "count": 1781,
      "max": [
        0.998046875,
        0.9990234375
      ],
      "min": [
        0.001953125,
        0.4189453125
      ],
      "type": "VEC2"
    },
    {
      "bufferView": 1,
      "byteOffset": 9600,
      "componentType": 5123,
      "count": 4164,
      "type": "SCALAR"
    }
  ],
  "bufferViews": [
    {
      "buffer": 0,
      "byteLength": 131488,
      "byteStride": 32,
      "target": 34962
    },
    {
      "buffer": 0,
      "byteLength": 17928,
      "byteOffset": 131488,
      "target": 34963
    }
  ],
  "buffers": [
    {
      "byteLength": 149416,
      "uri": "20525362525140626147_LOD00.bin"
    }
  ],
  "images": [
    {
      "uri": "20525362525140626147_LOD00_0.png"
    },
    {
      "uri": "20525362525140626147_LOD00_1.png"
    }
  ],
  "materials": [
    {
      "doubleSided": true,
      "pbrMetallicRoughness": {
        "baseColorTexture": {
          "index": 0
        },
        "metallicFactor": 0
      }
    },
    {
      "doubleSided": true,
      "pbrMetallicRoughness": {
        "baseColorTexture": {
          "index": 1
        },
        "metallicFactor": 0
      }
    }
  ],
  "meshes": [
    {
      "name": "20525362525140626147_0",
      "primitives": [
        {
          "attributes": {
            "POSITION": 0,
            "NORMAL": 1,
            "TEXCOORD_0": 2
          },
          "indices": 3,
          "material": 0
        }
      ]
    },
    {
      "name": "20525362525140626147_1",
      "primitives": [
        {
          "attributes": {
            "POSITION": 4,
            "NORMAL": 5,
            "TEXCOORD_0": 6
          },
          "indices": 7,
          "material": 1
        }
      ]
    }
  ],
  "nodes": [
    {
      "mesh": 0
    },
    {
      "mesh": 1
    }
  ],
  "scene": 0,
  "scenes": [
    {
      "nodes": [
        0,
        1
      ]
    }
  ],
  "textures": [
    {
      "source": 0
    },
    {
      "source": 1
    }
  ]
}