{
  "asset": {
    "copyright": "",
    "generator": "SharpGLTF 1.0.0",
    "version": "2.0"
  },
  "accessors": [
    {
      "name": "POSITION",
      "bufferView": 0,
      "componentType": 5126,
      "count": 1887,
      "max": [
        -581.33447265625,
        74.240829467773438,
        573.72314453125
      ],
      "min": [
        -613.45306396484375,
        37.7813720703125,
        535.48858642578125
      ],
      "type": "VEC3"
    },
    {
      "name": "NORMAL",
      "bufferView": 0,
      "byteOffset": 12,
      "componentType": 5126,
      "count": 1887,
      "max": [
        0.99999254941940308,
        0.99998515844345093,
        0.99999189376831055
      ],
      "min": [
        -0.99999189376831055,
        -1,
        -0.99999254941940308
      ],
      "type": "VEC3"
    },
    {
      "name": "TEXCOORD_0",
      "bufferView": 0,
      "byteOffset": 24,
      "componentType": 5126,
      "count": 1887,
      "max": [
        0.9990234375,
        0.9990234375
      ],
      "min": [
        0.0009765625,
        0.0009765625
      ],
      "type": "VEC2"
    },
    {
      "bufferView": 1,
      "componentType": 5123,
      "count": 4410,
      "type": "SCALAR"
    },
    {
      "name": "POSITION",
      "bufferView": 0,
      "byteOffset": 60384,
      "componentType": 5126,
      "count": 960,
      "max": [
        -581.33447265625,
        74.241256713867188,
        573.72332763671875
      ],
      "min": [
        -613.45196533203125,
        45.816448211669922,
        535.49114990234375
      ],
      "type": "VEC3"
    },
    {
      "name": "NORMAL",
      "bufferView": 0,
      "byteOffset": 60396,
      "componentType": 5126,
      "count": 960,
      "max": [
        0.99999254941940308,
        0.99998515844345093,
        0.99999189376831055
      ],
      "min": [
        -0.99999189376831055,
        -1,
        -0.99999254941940308
      ],
      "type": "VEC3"
    },
    {
      "name": "TEXCOORD_0",
      "bufferView": 0,
      "byteOffset": 60408,
      "componentType": 5126,
      "count": 960,
      "max": [
        0.998046875,
        0.998046875
      ],
      "min": [
        0.001953125,
        0.193359375
      ],
      "type": "VEC2"
    },
    {
      "bufferView": 1,
      "byteOffset": 8820,
      "componentType": 5123,
      "count": 2388,
      "type": "SCALAR"
    }
  ],
  "bufferViews": [
    {
      "buffer": 0,
      "byteLength": 91104,
      "byteStride": 32,
      "target": 34962
    },
    {
      "buffer": 0,
      "byteLength": 13596,
      "byteOffset": 91104,
      "target": 34963
    }
  ],
  "buffers": [
    {
      "byteLength": 104700,
      "uri": "20525362525140626266_LOD00.bin"
    }
  ],
  "images": [
    {
      "uri": "20525362525140626266_LOD00_0.png"
    },
    {
      "uri": "20525362525140626266_LOD00_1.png"
    }
  ],
  "materials": [
    {
      "doubleSided": true,
      "pbrMetallicRoughness": {
        "baseColorTexture": {
          "index": 0
        },
        "metallicFactor": 0
      }
    },
    {
      "doubleSided": true,
      "pbrMetallicRoughness": {
        "baseColorTexture": {
          "index": 1
        },
        "metallicFactor": 0
      }
    }
  ],
  "meshes": [
    {
      "name": "20525362525140626266_0",
      "primitives": [
        {
          "attributes": {
            "POSITION": 0,
            "NORMAL": 1,
            "TEXCOORD_0": 2
          },
          "indices": 3,
          "material": 0
        }
      ]
    },
    {
      "name": "20525362525140626266_1",
      "primitives": [
        {
          "attributes": {
            "POSITION": 4,
            "NORMAL": 5,
            "TEXCOORD_0": 6
          },
          "indices": 7,
          "material": 1
        }
      ]
    }
  ],
  "nodes": [
    {
      "mesh": 0
    },
    {
      "mesh": 1
    }
  ],
  "scene": 0,
  "scenes": [
    {
      "nodes": [
        0,
        1
      ]
    }
  ],
  "textures": [
    {
      "source": 0
    },
    {
      "source": 1
    }
  ]
}