{
  "asset": {
    "copyright": "",
    "generator": "SharpGLTF 1.0.0",
    "version": "2.0"
  },
  "accessors": [
    {
      "name": "POSITION",
      "bufferView": 0,
      "componentType": 5126,
      "count": 1967,
      "max": [
        -485.05130004882813,
        74.265518188476563,
        267.99652099609375
      ],
      "min": [
        -517.17071533203125,
        37.808761596679688,
        229.76329040527344
      ],
      "type": "VEC3"
    },
    {
      "name": "NORMAL",
      "bufferView": 0,
      "byteOffset": 12,
      "componentType": 5126,
      "count": 1967,
      "max": [
        0.99999254941940308,
        0.99998486042022705,
        0.99999207258224487
      ],
      "min": [
        -0.99999189376831055,
        -1,
        -0.99999237060546875
      ],
      "type": "VEC3"
    },
    {
      "name": "TEXCOORD_0",
      "bufferView": 0,
      "byteOffset": 24,
      "componentType": 5126,
      "count": 1967,
      "max": [
        0.9990234375,
        0.9990234375
      ],
      "min": [
        0.0009765625,
        0.0009765625
      ],
      "type": "VEC2"
    },
    {
      "bufferView": 1,
      "componentType": 5123,
      "count": 4563,
      "type": "SCALAR"
    },
    {
      "name": "POSITION",
      "bufferView": 0,
      "byteOffset": 62944,
      "componentType": 5126,
      "count": 123,
      "max": [
        -485.05209350585938,
        74.265029907226563,
        258.28436279296875
      ],
      "min": [
        -507.13427734375,
        39.972576141357422,
        236.083740234375
      ],
      "type": "VEC3"
    },
    {
      "name": "NORMAL",
      "bufferView": 0,
      "byteOffset": 62956,
      "componentType": 5126,
      "count": 123,
      "max": [
        0.99999254941940308,
        0.99998486042022705,
        0.99999207258224487
      ],
      "min": [
        -0.99999189376831055,
        -0.089533098042011261,
        -0.99999237060546875
      ],
      "type": "VEC3"
    },
    {
      "name": "TEXCOORD_0",
      "bufferView": 0,
      "byteOffset": 62968,
      "componentType": 5126,
      "count": 123,
      "max": [
        0.990234375,
        0.998046875
      ],
      "min": [
        0.001953125,
        0.791015625
      ],
      "type": "VEC2"
    },
    {
      "bufferView": 1,
      "byteOffset": 9126,
      "componentType": 5123,
      "count": 291,
      "type": "SCALAR"
    }
  ],
  "bufferViews": [
    {
      "buffer": 0,
      "byteLength": 66880,
      "byteStride": 32,
      "target": 34962
    },
    {
      "buffer": 0,
      "byteLength": 9708,
      "byteOffset": 66880,
      "target": 34963
    }
  ],
  "buffers": [
    {
      "byteLength": 76588,
      "uri": "20525362525051735367_LOD00.bin"
    }
  ],
  "images": [
    {
      "uri": "20525362525051735367_LOD00_0.png"
    },
    {
      "uri": "20525362525051735367_LOD00_1.png"
    }
  ],
  "materials": [
    {
      "doubleSided": true,
      "pbrMetallicRoughness": {
        "baseColorTexture": {
          "index": 0
        },
        "metallicFactor": 0
      }
    },
    {
      "doubleSided": true,
      "pbrMetallicRoughness": {
        "baseColorTexture": {
          "index": 1
        },
        "metallicFactor": 0
      }
    }
  ],
  "meshes": [
    {
      "name": "20525362525051735367_0",
      "primitives": [
        {
          "attributes": {
            "POSITION": 0,
            "NORMAL": 1,
            "TEXCOORD_0": 2
          },
          "indices": 3,
          "material": 0
        }
      ]
    },
    {
      "name": "20525362525051735367_1",
      "primitives": [
        {
          "attributes": {
            "POSITION": 4,
            "NORMAL": 5,
            "TEXCOORD_0": 6
          },
          "indices": 7,
          "material": 1
        }
      ]
    }
  ],
  "nodes": [
    {
      "mesh": 0
    },
    {
      "mesh": 1
    }
  ],
  "scene": 0,
  "scenes": [
    {
      "nodes": [
        0,
        1
      ]
    }
  ],
  "textures": [
    {
      "source": 0
    },
    {
      "source": 1
    }
  ]
}