{
  "asset": {
    "copyright": "",
    "generator": "SharpGLTF 1.0.0",
    "version": "2.0"
  },
  "accessors": [
    {
      "name": "POSITION",
      "bufferView": 0,
      "componentType": 5126,
      "count": 4182,
      "max": [
        -838.1495361328125,
        68.355209350585938,
        306.2347412109375
      ],
      "min": [
        -870.4232177734375,
        45.804267883300781,
        268.00146484375
      ],
      "type": "VEC3"
    },
    {
      "name": "NORMAL",
      "bufferView": 0,
      "byteOffset": 12,
      "componentType": 5126,
      "count": 4182,
      "max": [
        0.99999278783798218,
        0.99998515844345093,
        0.99914646148681641
      ],
      "min": [
        -0.99999165534973145,
        -0.99639034271240234,
        -0.99999237060546875
      ],
      "type": "VEC3"
    },
    {
      "name": "TEXCOORD_0",
      "bufferView": 0,
      "byteOffset": 24,
      "componentType": 5126,
      "count": 4182,
      "max": [
        0.998046875,
        0.9990234375
      ],
      "min": [
        0.001953125,
        0.0009765625
      ],
      "type": "VEC2"
    },
    {
      "bufferView": 1,
      "componentType": 5123,
      "count": 10068,
      "type": "SCALAR"
    },
    {
      "name": "POSITION",
      "bufferView": 0,
      "byteOffset": 133824,
      "componentType": 5126,
      "count": 1535,
      "max": [
        -838.15191650390625,
        68.355209350585938,
        306.23489379882813
      ],
      "min": [
        -870.26708984375,
        45.806434631347656,
        268.00146484375
      ],
      "type": "VEC3"
    },
    {
      "name": "NORMAL",
      "bufferView": 0,
      "byteOffset": 133836,
      "componentType": 5126,
      "count": 1535,
      "max": [
        0.99999278783798218,
        0.99998515844345093,
        0.99931603670120239
      ],
      "min": [
        -0.99674630165100098,
        -0.99149489402770996,
        -0.99999237060546875
      ],
      "type": "VEC3"
    },
    {
      "name": "TEXCOORD_0",
      "bufferView": 0,
      "byteOffset": 133848,
      "componentType": 5126,
      "count": 1535,
      "max": [
        0.998046875,
        0.998046875
      ],
      "min": [
        0.001953125,
        0.498046875
      ],
      "type": "VEC2"
    },
    {
      "bufferView": 1,
      "byteOffset": 20136,
      "componentType": 5123,
      "count": 3366,
      "type": "SCALAR"
    }
  ],
  "bufferViews": [
    {
      "buffer": 0,
      "byteLength": 182944,
      "byteStride": 32,
      "target": 34962
    },
    {
      "buffer": 0,
      "byteLength": 26868,
      "byteOffset": 182944,
      "target": 34963
    }
  ],
  "buffers": [
    {
      "byteLength": 209812,
      "uri": "20525362525140627044_LOD00.bin"
    }
  ],
  "images": [
    {
      "uri": "20525362525140627044_LOD00_0.png"
    },
    {
      "uri": "20525362525140627044_LOD00_1.png"
    }
  ],
  "materials": [
    {
      "doubleSided": true,
      "pbrMetallicRoughness": {
        "baseColorTexture": {
          "index": 0
        },
        "metallicFactor": 0
      }
    },
    {
      "doubleSided": true,
      "pbrMetallicRoughness": {
        "baseColorTexture": {
          "index": 1
        },
        "metallicFactor": 0
      }
    }
  ],
  "meshes": [
    {
      "name": "20525362525140627044_0",
      "primitives": [
        {
          "attributes": {
            "POSITION": 0,
            "NORMAL": 1,
            "TEXCOORD_0": 2
          },
          "indices": 3,
          "material": 0
        }
      ]
    },
    {
      "name": "20525362525140627044_1",
      "primitives": [
        {
          "attributes": {
            "POSITION": 4,
            "NORMAL": 5,
            "TEXCOORD_0": 6
          },
          "indices": 7,
          "material": 1
        }
      ]
    }
  ],
  "nodes": [
    {
      "mesh": 0
    },
    {
      "mesh": 1
    }
  ],
  "scene": 0,
  "scenes": [
    {
      "nodes": [
        0,
        1
      ]
    }
  ],
  "textures": [
    {
      "source": 0
    },
    {
      "source": 1
    }
  ]
}