{
  "asset": {
    "copyright": "",
    "generator": "SharpGLTF 1.0.0",
    "version": "2.0"
  },
  "accessors": [
    {
      "name": "POSITION",
      "bufferView": 0,
      "componentType": 5126,
      "count": 3040,
      "max": [
        -838.16705322265625,
        70.217216491699219,
        76.944717407226563
      ],
      "min": [
        -870.2877197265625,
        40.558204650878906,
        38.711204528808594
      ],
      "type": "VEC3"
    },
    {
      "name": "NORMAL",
      "bufferView": 0,
      "byteOffset": 12,
      "componentType": 5126,
      "count": 3040,
      "max": [
        0.99931192398071289,
        0.99998492002487183,
        0.99999219179153442
      ],
      "min": [
        -0.99999171495437622,
        -0.99917119741439819,
        -0.9999922513961792
      ],
      "type": "VEC3"
    },
    {
      "name": "TEXCOORD_0",
      "bufferView": 0,
      "byteOffset": 24,
      "componentType": 5126,
      "count": 3040,
      "max": [
        0.998046875,
        0.9990234375
      ],
      "min": [
        0.001953125,
        0.0009765625
      ],
      "type": "VEC2"
    },
    {
      "bufferView": 1,
      "componentType": 5123,
      "count": 7707,
      "type": "SCALAR"
    },
    {
      "name": "POSITION",
      "bufferView": 0,
      "byteOffset": 97280,
      "componentType": 5126,
      "count": 2045,
      "max": [
        -838.16839599609375,
        70.217720031738281,
        76.942604064941406
      ],
      "min": [
        -870.2877197265625,
        40.868186950683594,
        39.791656494140625
      ],
      "type": "VEC3"
    },
    {
      "name": "NORMAL",
      "bufferView": 0,
      "byteOffset": 97292,
      "componentType": 5126,
      "count": 2045,
      "max": [
        0.99931192398071289,
        0.99998492002487183,
        0.99672585725784302
      ],
      "min": [
        -0.99598181247711182,
        -0.99917119741439819,
        -0.9999922513961792
      ],
      "type": "VEC3"
    },
    {
      "name": "TEXCOORD_0",
      "bufferView": 0,
      "byteOffset": 97304,
      "componentType": 5126,
      "count": 2045,
      "max": [
        0.998046875,
        0.998046875
      ],
      "min": [
        0.001953125,
        0.076171875
      ],
      "type": "VEC2"
    },
    {
      "bufferView": 1,
      "byteOffset": 15414,
      "componentType": 5123,
      "count": 4824,
      "type": "SCALAR"
    }
  ],
  "bufferViews": [
    {
      "buffer": 0,
      "byteLength": 162720,
      "byteStride": 32,
      "target": 34962
    },
    {
      "buffer": 0,
      "byteLength": 25062,
      "byteOffset": 162720,
      "target": 34963
    }
  ],
  "buffers": [
    {
      "byteLength": 187784,
      "uri": "20525362525140625064_LOD00.bin"
    }
  ],
  "images": [
    {
      "uri": "20525362525140625064_LOD00_0.png"
    },
    {
      "uri": "20525362525140625064_LOD00_1.png"
    }
  ],
  "materials": [
    {
      "doubleSided": true,
      "pbrMetallicRoughness": {
        "baseColorTexture": {
          "index": 0
        },
        "metallicFactor": 0
      }
    },
    {
      "doubleSided": true,
      "pbrMetallicRoughness": {
        "baseColorTexture": {
          "index": 1
        },
        "metallicFactor": 0
      }
    }
  ],
  "meshes": [
    {
      "name": "20525362525140625064_0",
      "primitives": [
        {
          "attributes": {
            "POSITION": 0,
            "NORMAL": 1,
            "TEXCOORD_0": 2
          },
          "indices": 3,
          "material": 0
        }
      ]
    },
    {
      "name": "20525362525140625064_1",
      "primitives": [
        {
          "attributes": {
            "POSITION": 4,
            "NORMAL": 5,
            "TEXCOORD_0": 6
          },
          "indices": 7,
          "material": 1
        }
      ]
    }
  ],
  "nodes": [
    {
      "mesh": 0
    },
    {
      "mesh": 1
    }
  ],
  "scene": 0,
  "scenes": [
    {
      "nodes": [
        0,
        1
      ]
    }
  ],
  "textures": [
    {
      "source": 0
    },
    {
      "source": 1
    }
  ]
}