{
  "asset": {
    "copyright": "",
    "generator": "SharpGLTF 1.0.0",
    "version": "2.0"
  },
  "accessors": [
    {
      "name": "POSITION",
      "bufferView": 0,
      "componentType": 5126,
      "count": 1823,
      "max": [
        -3.0880980491638184,
        38.310176849365234,
        38.847034454345703
      ],
      "min": [
        -35.821937561035156,
        27.342344284057617,
        1.5265265440600473E-10
      ],
      "type": "VEC3"
    },
    {
      "name": "NORMAL",
      "bufferView": 0,
      "byteOffset": 12,
      "componentType": 5126,
      "count": 1823,
      "max": [
        0.99999219179153442,
        0.9999845027923584,
        0.99999213218688965
      ],
      "min": [
        -0.99898445606231689,
        -1,
        -0.99999213218688965
      ],
      "type": "VEC3"
    },
    {
      "name": "TEXCOORD_0",
      "bufferView": 0,
      "byteOffset": 24,
      "componentType": 5126,
      "count": 1823,
      "max": [
        0.998046875,
        0.9990234375
      ],
      "min": [
        0.001953125,
        0.0009765625
      ],
      "type": "VEC2"
    },
    {
      "bufferView": 1,
      "byteOffset": 9612,
      "componentType": 5123,
      "count": 4134,
      "type": "SCALAR"
    },
    {
      "name": "POSITION",
      "bufferView": 0,
      "byteOffset": 58336,
      "componentType": 5126,
      "count": 1812,
      "max": [
        -3.5513126850128174,
        38.310176849365234,
        38.847034454345703
      ],
      "min": [
        -35.667530059814453,
        27.342344284057617,
        0.46246469020843506
      ],
      "type": "VEC3"
    },
    {
      "name": "NORMAL",
      "bufferView": 0,
      "byteOffset": 58348,
      "componentType": 5126,
      "count": 1812,
      "max": [
        0.9993169903755188,
        0.9999845027923584,
        0.99999213218688965
      ],
      "min": [
        -0.99999219179153442,
        -1,
        -0.99999213218688965
      ],
      "type": "VEC3"
    },
    {
      "name": "TEXCOORD_0",
      "bufferView": 0,
      "byteOffset": 58360,
      "componentType": 5126,
      "count": 1812,
      "max": [
        0.998046875,
        0.998046875
      ],
      "min": [
        0.001953125,
        0.130859375
      ],
      "type": "VEC2"
    },
    {
      "bufferView": 1,
      "componentType": 5123,
      "count": 4806,
      "type": "SCALAR"
    }
  ],
  "bufferViews": [
    {
      "buffer": 0,
      "byteLength": 116320,
      "byteStride": 32,
      "target": 34962
    },
    {
      "buffer": 0,
      "byteLength": 17880,
      "byteOffset": 116320,
      "target": 34963
    }
  ],
  "buffers": [
    {
      "byteLength": 134200,
      "uri": "20525362525051725152_LOD00.bin"
    }
  ],
  "images": [
    {
      "uri": "20525362525051725152_LOD00_0.png"
    },
    {
      "uri": "20525362525051725152_LOD00_1.png"
    }
  ],
  "materials": [
    {
      "doubleSided": true,
      "pbrMetallicRoughness": {
        "baseColorTexture": {
          "index": 0
        },
        "metallicFactor": 0
      }
    },
    {
      "doubleSided": true,
      "pbrMetallicRoughness": {
        "baseColorTexture": {
          "index": 1
        },
        "metallicFactor": 0
      }
    }
  ],
  "meshes": [
    {
      "name": "20525362525051725152_0",
      "primitives": [
        {
          "attributes": {
            "POSITION": 0,
            "NORMAL": 1,
            "TEXCOORD_0": 2
          },
          "indices": 3,
          "material": 0
        }
      ]
    },
    {
      "name": "20525362525051725152_1",
      "primitives": [
        {
          "attributes": {
            "POSITION": 4,
            "NORMAL": 5,
            "TEXCOORD_0": 6
          },
          "indices": 7,
          "material": 1
        }
      ]
    }
  ],
  "nodes": [
    {
      "mesh": 0
    },
    {
      "mesh": 1
    }
  ],
  "scene": 0,
  "scenes": [
    {
      "nodes": [
        0,
        1
      ]
    }
  ],
  "textures": [
    {
      "source": 0
    },
    {
      "source": 1
    }
  ]
}