{
  "asset": {
    "copyright": "",
    "generator": "SharpGLTF 1.0.0",
    "version": "2.0"
  },
  "accessors": [
    {
      "name": "POSITION",
      "bufferView": 0,
      "componentType": 5126,
      "count": 4518,
      "max": [
        -613.30230712890625,
        56.180801391601563,
        230.25042724609375
      ],
      "min": [
        -645.57171630859375,
        40.425460815429688,
        191.55545043945313
      ],
      "type": "VEC3"
    },
    {
      "name": "NORMAL",
      "bufferView": 0,
      "byteOffset": 12,
      "componentType": 5126,
      "count": 4518,
      "max": [
        0.99915331602096558,
        0.9999849796295166,
        0.99999207258224487
      ],
      "min": [
        -0.99999189376831055,
        -0.99917024374008179,
        -0.99931401014328003
      ],
      "type": "VEC3"
    },
    {
      "name": "TEXCOORD_0",
      "bufferView": 0,
      "byteOffset": 24,
      "componentType": 5126,
      "count": 4518,
      "max": [
        0.998046875,
        0.9990234375
      ],
      "min": [
        0.001953125,
        0.0009765625
      ],
      "type": "VEC2"
    },
    {
      "bufferView": 1,
      "componentType": 5123,
      "count": 11004,
      "type": "SCALAR"
    },
    {
      "name": "POSITION",
      "bufferView": 0,
      "byteOffset": 144576,
      "componentType": 5126,
      "count": 777,
      "max": [
        -613.45379638671875,
        55.563056945800781,
        229.78814697265625
      ],
      "min": [
        -645.5716552734375,
        40.426155090332031,
        191.55589294433594
      ],
      "type": "VEC3"
    },
    {
      "name": "NORMAL",
      "bufferView": 0,
      "byteOffset": 144588,
      "componentType": 5126,
      "count": 777,
      "max": [
        0.99915331602096558,
        0.9999849796295166,
        0.99999207258224487
      ],
      "min": [
        -0.99999189376831055,
        -0.99917024374008179,
        -0.9991527795791626
      ],
      "type": "VEC3"
    },
    {
      "name": "TEXCOORD_0",
      "bufferView": 0,
      "byteOffset": 144600,
      "componentType": 5126,
      "count": 777,
      "max": [
        0.998046875,
        0.998046875
      ],
      "min": [
        0.001953125,
        0.724609375
      ],
      "type": "VEC2"
    },
    {
      "bufferView": 1,
      "byteOffset": 22008,
      "componentType": 5123,
      "count": 1692,
      "type": "SCALAR"
    }
  ],
  "bufferViews": [
    {
      "buffer": 0,
      "byteLength": 169440,
      "byteStride": 32,
      "target": 34962
    },
    {
      "buffer": 0,
      "byteLength": 25392,
      "byteOffset": 169440,
      "target": 34963
    }
  ],
  "buffers": [
    {
      "byteLength": 194832,
      "uri": "20525362525140624265_LOD00.bin"
    }
  ],
  "images": [
    {
      "uri": "20525362525140624265_LOD00_0.png"
    },
    {
      "uri": "20525362525140624265_LOD00_1.png"
    }
  ],
  "materials": [
    {
      "doubleSided": true,
      "pbrMetallicRoughness": {
        "baseColorTexture": {
          "index": 0
        },
        "metallicFactor": 0
      }
    },
    {
      "doubleSided": true,
      "pbrMetallicRoughness": {
        "baseColorTexture": {
          "index": 1
        },
        "metallicFactor": 0
      }
    }
  ],
  "meshes": [
    {
      "name": "20525362525140624265_0",
      "primitives": [
        {
          "attributes": {
            "POSITION": 0,
            "NORMAL": 1,
            "TEXCOORD_0": 2
          },
          "indices": 3,
          "material": 0
        }
      ]
    },
    {
      "name": "20525362525140624265_1",
      "primitives": [
        {
          "attributes": {
            "POSITION": 4,
            "NORMAL": 5,
            "TEXCOORD_0": 6
          },
          "indices": 7,
          "material": 1
        }
      ]
    }
  ],
  "nodes": [
    {
      "mesh": 0
    },
    {
      "mesh": 1
    }
  ],
  "scene": 0,
  "scenes": [
    {
      "nodes": [
        0,
        1
      ]
    }
  ],
  "textures": [
    {
      "source": 0
    },
    {
      "source": 1
    }
  ]
}