{
  "asset": {
    "copyright": "",
    "generator": "SharpGLTF 1.0.0",
    "version": "2.0"
  },
  "accessors": [
    {
      "name": "POSITION",
      "bufferView": 0,
      "componentType": 5126,
      "count": 4272,
      "max": [
        -517.1629638671875,
        62.837081909179688,
        38.707172393798828
      ],
      "min": [
        -549.74237060546875,
        37.346721649169922,
        0.47484982013702393
      ],
      "type": "VEC3"
    },
    {
      "name": "NORMAL",
      "bufferView": 0,
      "byteOffset": 12,
      "componentType": 5126,
      "count": 4272,
      "max": [
        0.99999260902404785,
        0.99998480081558228,
        0.99999219179153442
      ],
      "min": [
        -0.99999195337295532,
        -0.99917143583297729,
        -0.99999219179153442
      ],
      "type": "VEC3"
    },
    {
      "name": "TEXCOORD_0",
      "bufferView": 0,
      "byteOffset": 24,
      "componentType": 5126,
      "count": 4272,
      "max": [
        0.998046875,
        0.9990234375
      ],
      "min": [
        0.001953125,
        0.0009765625
      ],
      "type": "VEC2"
    },
    {
      "bufferView": 1,
      "componentType": 5123,
      "count": 10743,
      "type": "SCALAR"
    },
    {
      "name": "POSITION",
      "bufferView": 0,
      "byteOffset": 136704,
      "componentType": 5126,
      "count": 2100,
      "max": [
        -517.16259765625,
        62.836769104003906,
        38.707012176513672
      ],
      "min": [
        -549.28125,
        37.347892761230469,
        0.47495394945144653
      ],
      "type": "VEC3"
    },
    {
      "name": "NORMAL",
      "bufferView": 0,
      "byteOffset": 136716,
      "componentType": 5126,
      "count": 2100,
      "max": [
        0.99999260902404785,
        0.99998480081558228,
        0.99999219179153442
      ],
      "min": [
        -0.99999195337295532,
        -0.96450144052505493,
        -0.99999219179153442
      ],
      "type": "VEC3"
    },
    {
      "name": "TEXCOORD_0",
      "bufferView": 0,
      "byteOffset": 136728,
      "componentType": 5126,
      "count": 2100,
      "max": [
        0.998046875,
        0.998046875
      ],
      "min": [
        0.001953125,
        0.193359375
      ],
      "type": "VEC2"
    },
    {
      "bufferView": 1,
      "byteOffset": 21486,
      "componentType": 5123,
      "count": 5043,
      "type": "SCALAR"
    }
  ],
  "bufferViews": [
    {
      "buffer": 0,
      "byteLength": 203904,
      "byteStride": 32,
      "target": 34962
    },
    {
      "buffer": 0,
      "byteLength": 31572,
      "byteOffset": 203904,
      "target": 34963
    }
  ],
  "buffers": [
    {
      "byteLength": 235476,
      "uri": "20525362525051735156_LOD00.bin"
    }
  ],
  "images": [
    {
      "uri": "20525362525051735156_LOD00_0.png"
    },
    {
      "uri": "20525362525051735156_LOD00_1.png"
    }
  ],
  "materials": [
    {
      "doubleSided": true,
      "pbrMetallicRoughness": {
        "baseColorTexture": {
          "index": 0
        },
        "metallicFactor": 0
      }
    },
    {
      "doubleSided": true,
      "pbrMetallicRoughness": {
        "baseColorTexture": {
          "index": 1
        },
        "metallicFactor": 0
      }
    }
  ],
  "meshes": [
    {
      "name": "20525362525051735156_0",
      "primitives": [
        {
          "attributes": {
            "POSITION": 0,
            "NORMAL": 1,
            "TEXCOORD_0": 2
          },
          "indices": 3,
          "material": 0
        }
      ]
    },
    {
      "name": "20525362525051735156_1",
      "primitives": [
        {
          "attributes": {
            "POSITION": 4,
            "NORMAL": 5,
            "TEXCOORD_0": 6
          },
          "indices": 7,
          "material": 1
        }
      ]
    }
  ],
  "nodes": [
    {
      "mesh": 0
    },
    {
      "mesh": 1
    }
  ],
  "scene": 0,
  "scenes": [
    {
      "nodes": [
        0,
        1
      ]
    }
  ],
  "textures": [
    {
      "source": 0
    },
    {
      "source": 1
    }
  ]
}