{
  "asset": {
    "copyright": "",
    "generator": "SharpGLTF 1.0.0",
    "version": "2.0"
  },
  "accessors": [
    {
      "name": "POSITION",
      "bufferView": 0,
      "componentType": 5126,
      "count": 4308,
      "max": [
        -806.047607421875,
        65.890060424804688,
        344.75369262695313
      ],
      "min": [
        -838.16583251953125,
        46.116851806640625,
        306.21429443359375
      ],
      "type": "VEC3"
    },
    {
      "name": "NORMAL",
      "bufferView": 0,
      "byteOffset": 12,
      "componentType": 5126,
      "count": 4308,
      "max": [
        0.99999278783798218,
        0.99998515844345093,
        0.99931621551513672
      ],
      "min": [
        -0.999991774559021,
        -1,
        -0.99999237060546875
      ],
      "type": "VEC3"
    },
    {
      "name": "TEXCOORD_0",
      "bufferView": 0,
      "byteOffset": 24,
      "componentType": 5126,
      "count": 4308,
      "max": [
        0.998046875,
        0.9990234375
      ],
      "min": [
        0.001953125,
        0.0009765625
      ],
      "type": "VEC2"
    },
    {
      "bufferView": 1,
      "componentType": 5123,
      "count": 10602,
      "type": "SCALAR"
    },
    {
      "name": "POSITION",
      "bufferView": 0,
      "byteOffset": 137856,
      "componentType": 5126,
      "count": 1821,
      "max": [
        -806.0479736328125,
        65.890060424804688,
        344.44778442382813
      ],
      "min": [
        -838.16558837890625,
        46.269748687744141,
        306.21429443359375
      ],
      "type": "VEC3"
    },
    {
      "name": "NORMAL",
      "bufferView": 0,
      "byteOffset": 137868,
      "componentType": 5126,
      "count": 1821,
      "max": [
        0.99999278783798218,
        0.99998515844345093,
        0.99897891283035278
      ],
      "min": [
        -0.999991774559021,
        -0.99917399883270264,
        -0.99999237060546875
      ],
      "type": "VEC3"
    },
    {
      "name": "TEXCOORD_0",
      "bufferView": 0,
      "byteOffset": 137880,
      "componentType": 5126,
      "count": 1821,
      "max": [
        0.998046875,
        0.998046875
      ],
      "min": [
        0.001953125,
        0.310546875
      ],
      "type": "VEC2"
    },
    {
      "bufferView": 1,
      "byteOffset": 21204,
      "componentType": 5123,
      "count": 4317,
      "type": "SCALAR"
    }
  ],
  "bufferViews": [
    {
      "buffer": 0,
      "byteLength": 196128,
      "byteStride": 32,
      "target": 34962
    },
    {
      "buffer": 0,
      "byteLength": 29838,
      "byteOffset": 196128,
      "target": 34963
    }
  ],
  "buffers": [
    {
      "byteLength": 225968,
      "uri": "20525362525140626157_LOD00.bin"
    }
  ],
  "images": [
    {
      "uri": "20525362525140626157_LOD00_0.png"
    },
    {
      "uri": "20525362525140626157_LOD00_1.png"
    }
  ],
  "materials": [
    {
      "doubleSided": true,
      "pbrMetallicRoughness": {
        "baseColorTexture": {
          "index": 0
        },
        "metallicFactor": 0
      }
    },
    {
      "doubleSided": true,
      "pbrMetallicRoughness": {
        "baseColorTexture": {
          "index": 1
        },
        "metallicFactor": 0
      }
    }
  ],
  "meshes": [
    {
      "name": "20525362525140626157_0",
      "primitives": [
        {
          "attributes": {
            "POSITION": 0,
            "NORMAL": 1,
            "TEXCOORD_0": 2
          },
          "indices": 3,
          "material": 0
        }
      ]
    },
    {
      "name": "20525362525140626157_1",
      "primitives": [
        {
          "attributes": {
            "POSITION": 4,
            "NORMAL": 5,
            "TEXCOORD_0": 6
          },
          "indices": 7,
          "material": 1
        }
      ]
    }
  ],
  "nodes": [
    {
      "mesh": 0
    },
    {
      "mesh": 1
    }
  ],
  "scene": 0,
  "scenes": [
    {
      "nodes": [
        0,
        1
      ]
    }
  ],
  "textures": [
    {
      "source": 0
    },
    {
      "source": 1
    }
  ]
}