{
  "asset": {
    "copyright": "",
    "generator": "SharpGLTF 1.0.0",
    "version": "2.0"
  },
  "accessors": [
    {
      "name": "POSITION",
      "bufferView": 0,
      "componentType": 5126,
      "count": 3693,
      "max": [
        -228.24822998046875,
        72.881172180175781,
        421.30923461914063
      ],
      "min": [
        -260.82705688476563,
        39.362194061279297,
        382.61456298828125
      ],
      "type": "VEC3"
    },
    {
      "name": "NORMAL",
      "bufferView": 0,
      "byteOffset": 12,
      "componentType": 5126,
      "count": 3693,
      "max": [
        0.99999243021011353,
        0.99998486042022705,
        0.99931693077087402
      ],
      "min": [
        -0.99999213218688965,
        -0.99640780687332153,
        -0.9999924898147583
      ],
      "type": "VEC3"
    },
    {
      "name": "TEXCOORD_0",
      "bufferView": 0,
      "byteOffset": 24,
      "componentType": 5126,
      "count": 3693,
      "max": [
        0.998046875,
        0.9990234375
      ],
      "min": [
        0.001953125,
        0.0009765625
      ],
      "type": "VEC2"
    },
    {
      "bufferView": 1,
      "componentType": 5123,
      "count": 8988,
      "type": "SCALAR"
    },
    {
      "name": "POSITION",
      "bufferView": 0,
      "byteOffset": 118176,
      "componentType": 5126,
      "count": 1125,
      "max": [
        -231.18190002441406,
        72.881149291992188,
        420.8472900390625
      ],
      "min": [
        -260.36407470703125,
        39.979385375976563,
        382.61517333984375
      ],
      "type": "VEC3"
    },
    {
      "name": "NORMAL",
      "bufferView": 0,
      "byteOffset": 118188,
      "componentType": 5126,
      "count": 1125,
      "max": [
        0.99999243021011353,
        0.99998486042022705,
        0.9999920129776001
      ],
      "min": [
        -0.99931830167770386,
        -0.99640780687332153,
        -0.9999924898147583
      ],
      "type": "VEC3"
    },
    {
      "name": "TEXCOORD_0",
      "bufferView": 0,
      "byteOffset": 118200,
      "componentType": 5126,
      "count": 1125,
      "max": [
        0.998046875,
        0.998046875
      ],
      "min": [
        0.001953125,
        0.576171875
      ],
      "type": "VEC2"
    },
    {
      "bufferView": 1,
      "byteOffset": 17976,
      "componentType": 5123,
      "count": 2613,
      "type": "SCALAR"
    }
  ],
  "bufferViews": [
    {
      "buffer": 0,
      "byteLength": 154176,
      "byteStride": 32,
      "target": 34962
    },
    {
      "buffer": 0,
      "byteLength": 23202,
      "byteOffset": 154176,
      "target": 34963
    }
  ],
  "buffers": [
    {
      "byteLength": 177380,
      "uri": "20525362525051736167_LOD00.bin"
    }
  ],
  "images": [
    {
      "uri": "20525362525051736167_LOD00_0.png"
    },
    {
      "uri": "20525362525051736167_LOD00_1.png"
    }
  ],
  "materials": [
    {
      "doubleSided": true,
      "pbrMetallicRoughness": {
        "baseColorTexture": {
          "index": 0
        },
        "metallicFactor": 0
      }
    },
    {
      "doubleSided": true,
      "pbrMetallicRoughness": {
        "baseColorTexture": {
          "index": 1
        },
        "metallicFactor": 0
      }
    }
  ],
  "meshes": [
    {
      "name": "20525362525051736167_0",
      "primitives": [
        {
          "attributes": {
            "POSITION": 0,
            "NORMAL": 1,
            "TEXCOORD_0": 2
          },
          "indices": 3,
          "material": 0
        }
      ]
    },
    {
      "name": "20525362525051736167_1",
      "primitives": [
        {
          "attributes": {
            "POSITION": 4,
            "NORMAL": 5,
            "TEXCOORD_0": 6
          },
          "indices": 7,
          "material": 1
        }
      ]
    }
  ],
  "nodes": [
    {
      "mesh": 0
    },
    {
      "mesh": 1
    }
  ],
  "scene": 0,
  "scenes": [
    {
      "nodes": [
        0,
        1
      ]
    }
  ],
  "textures": [
    {
      "source": 0
    },
    {
      "source": 1
    }
  ]
}