{
  "asset": {
    "copyright": "",
    "generator": "SharpGLTF 1.0.0",
    "version": "2.0"
  },
  "accessors": [
    {
      "name": "POSITION",
      "bufferView": 0,
      "componentType": 5126,
      "count": 2915,
      "max": [
        -773.92889404296875,
        72.367767333984375,
        573.7354736328125
      ],
      "min": [
        -806.04681396484375,
        44.092273712158203,
        535.5018310546875
      ],
      "type": "VEC3"
    },
    {
      "name": "NORMAL",
      "bufferView": 0,
      "byteOffset": 12,
      "componentType": 5126,
      "count": 2915,
      "max": [
        0.99999266862869263,
        0.99998527765274048,
        0.99999189376831055
      ],
      "min": [
        -0.99999171495437622,
        -1,
        -0.99999254941940308
      ],
      "type": "VEC3"
    },
    {
      "name": "TEXCOORD_0",
      "bufferView": 0,
      "byteOffset": 24,
      "componentType": 5126,
      "count": 2915,
      "max": [
        0.9990234375,
        0.9990234375
      ],
      "min": [
        0.0009765625,
        0.0009765625
      ],
      "type": "VEC2"
    },
    {
      "bufferView": 1,
      "componentType": 5123,
      "count": 6798,
      "type": "SCALAR"
    },
    {
      "name": "POSITION",
      "bufferView": 0,
      "byteOffset": 93280,
      "componentType": 5126,
      "count": 1323,
      "max": [
        -773.7764892578125,
        72.366317749023438,
        574.04217529296875
      ],
      "min": [
        -806.04644775390625,
        44.094997406005859,
        535.5028076171875
      ],
      "type": "VEC3"
    },
    {
      "name": "NORMAL",
      "bufferView": 0,
      "byteOffset": 93292,
      "componentType": 5126,
      "count": 1323,
      "max": [
        0.99915283918380737,
        0.99998527765274048,
        0.99673140048980713
      ],
      "min": [
        -0.99999171495437622,
        -1,
        -0.99931210279464722
      ],
      "type": "VEC3"
    },
    {
      "name": "TEXCOORD_0",
      "bufferView": 0,
      "byteOffset": 93304,
      "componentType": 5126,
      "count": 1323,
      "max": [
        0.998046875,
        0.998046875
      ],
      "min": [
        0.001953125,
        0.396484375
      ],
      "type": "VEC2"
    },
    {
      "bufferView": 1,
      "byteOffset": 13596,
      "componentType": 5123,
      "count": 3189,
      "type": "SCALAR"
    }
  ],
  "bufferViews": [
    {
      "buffer": 0,
      "byteLength": 135616,
      "byteStride": 32,
      "target": 34962
    },
    {
      "buffer": 0,
      "byteLength": 19974,
      "byteOffset": 135616,
      "target": 34963
    }
  ],
  "buffers": [
    {
      "byteLength": 155592,
      "uri": "20525362525140626376_LOD00.bin"
    }
  ],
  "images": [
    {
      "uri": "20525362525140626376_LOD00_0.png"
    },
    {
      "uri": "20525362525140626376_LOD00_1.png"
    }
  ],
  "materials": [
    {
      "doubleSided": true,
      "pbrMetallicRoughness": {
        "baseColorTexture": {
          "index": 0
        },
        "metallicFactor": 0
      }
    },
    {
      "doubleSided": true,
      "pbrMetallicRoughness": {
        "baseColorTexture": {
          "index": 1
        },
        "metallicFactor": 0
      }
    }
  ],
  "meshes": [
    {
      "name": "20525362525140626376_0",
      "primitives": [
        {
          "attributes": {
            "POSITION": 0,
            "NORMAL": 1,
            "TEXCOORD_0": 2
          },
          "indices": 3,
          "material": 0
        }
      ]
    },
    {
      "name": "20525362525140626376_1",
      "primitives": [
        {
          "attributes": {
            "POSITION": 4,
            "NORMAL": 5,
            "TEXCOORD_0": 6
          },
          "indices": 7,
          "material": 1
        }
      ]
    }
  ],
  "nodes": [
    {
      "mesh": 0
    },
    {
      "mesh": 1
    }
  ],
  "scene": 0,
  "scenes": [
    {
      "nodes": [
        0,
        1
      ]
    }
  ],
  "textures": [
    {
      "source": 0
    },
    {
      "source": 1
    }
  ]
}