{
  "asset": {
    "copyright": "",
    "generator": "SharpGLTF 1.0.0",
    "version": "2.0"
  },
  "accessors": [
    {
      "name": "POSITION",
      "bufferView": 0,
      "componentType": 5126,
      "count": 1190,
      "max": [
        -67.75177001953125,
        38.307300567626953,
        229.76808166503906
      ],
      "min": [
        -100.02177429199219,
        9.574070930480957,
        191.53669738769531
      ],
      "type": "VEC3"
    },
    {
      "name": "NORMAL",
      "bufferView": 0,
      "byteOffset": 12,
      "componentType": 5126,
      "count": 1190,
      "max": [
        0.9999922513961792,
        0.99998456239700317,
        0.99999207258224487
      ],
      "min": [
        -0.95970755815505981,
        -1,
        -0.99634629487991333
      ],
      "type": "VEC3"
    },
    {
      "name": "TEXCOORD_0",
      "bufferView": 0,
      "byteOffset": 24,
      "componentType": 5126,
      "count": 1190,
      "max": [
        0.998046875,
        0.9990234375
      ],
      "min": [
        0.001953125,
        0.0009765625
      ],
      "type": "VEC2"
    },
    {
      "bufferView": 1,
      "componentType": 5123,
      "count": 2859,
      "type": "SCALAR"
    },
    {
      "name": "POSITION",
      "bufferView": 0,
      "byteOffset": 38080,
      "componentType": 5126,
      "count": 411,
      "max": [
        -67.751762390136719,
        37.997615814208984,
        229.76805114746094
      ],
      "min": [
        -99.86761474609375,
        9.574070930480957,
        191.53738403320313
      ],
      "type": "VEC3"
    },
    {
      "name": "NORMAL",
      "bufferView": 0,
      "byteOffset": 38092,
      "componentType": 5126,
      "count": 411,
      "max": [
        0.99931663274765015,
        0.99998456239700317,
        0.99999207258224487
      ],
      "min": [
        -0.98002296686172485,
        -1,
        -0.99463409185409546
      ],
      "type": "VEC3"
    },
    {
      "name": "TEXCOORD_0",
      "bufferView": 0,
      "byteOffset": 38104,
      "componentType": 5126,
      "count": 411,
      "max": [
        0.998046875,
        0.998046875
      ],
      "min": [
        0.001953125,
        0.208984375
      ],
      "type": "VEC2"
    },
    {
      "bufferView": 1,
      "byteOffset": 5718,
      "componentType": 5123,
      "count": 1251,
      "type": "SCALAR"
    }
  ],
  "bufferViews": [
    {
      "buffer": 0,
      "byteLength": 51232,
      "byteStride": 32,
      "target": 34962
    },
    {
      "buffer": 0,
      "byteLength": 8220,
      "byteOffset": 51232,
      "target": 34963
    }
  ],
  "buffers": [
    {
      "byteLength": 59452,
      "uri": "20525362525051734260_LOD00.bin"
    }
  ],
  "images": [
    {
      "uri": "20525362525051734260_LOD00_0.png"
    },
    {
      "uri": "20525362525051734260_LOD00_1.png"
    }
  ],
  "materials": [
    {
      "doubleSided": true,
      "pbrMetallicRoughness": {
        "baseColorTexture": {
          "index": 0
        },
        "metallicFactor": 0
      }
    },
    {
      "doubleSided": true,
      "pbrMetallicRoughness": {
        "baseColorTexture": {
          "index": 1
        },
        "metallicFactor": 0
      }
    }
  ],
  "meshes": [
    {
      "name": "20525362525051734260_0",
      "primitives": [
        {
          "attributes": {
            "POSITION": 0,
            "NORMAL": 1,
            "TEXCOORD_0": 2
          },
          "indices": 3,
          "material": 0
        }
      ]
    },
    {
      "name": "20525362525051734260_1",
      "primitives": [
        {
          "attributes": {
            "POSITION": 4,
            "NORMAL": 5,
            "TEXCOORD_0": 6
          },
          "indices": 7,
          "material": 1
        }
      ]
    }
  ],
  "nodes": [
    {
      "mesh": 0
    },
    {
      "mesh": 1
    }
  ],
  "scene": 0,
  "scenes": [
    {
      "nodes": [
        0,
        1
      ]
    }
  ],
  "textures": [
    {
      "source": 0
    },
    {
      "source": 1
    }
  ]
}