{
  "asset": {
    "copyright": "",
    "generator": "SharpGLTF 1.0.0",
    "version": "2.0"
  },
  "accessors": [
    {
      "name": "POSITION",
      "bufferView": 0,
      "componentType": 5126,
      "count": 2223,
      "max": [
        -517.14202880859375,
        62.669239044189453,
        459.0728759765625
      ],
      "min": [
        -549.26019287109375,
        39.340950012207031,
        420.83987426757813
      ],
      "type": "VEC3"
    },
    {
      "name": "NORMAL",
      "bufferView": 0,
      "byteOffset": 12,
      "componentType": 5126,
      "count": 2223,
      "max": [
        0.99999254941940308,
        0.99998492002487183,
        0.99999195337295532
      ],
      "min": [
        -0.99999189376831055,
        -1,
        -0.9999924898147583
      ],
      "type": "VEC3"
    },
    {
      "name": "TEXCOORD_0",
      "bufferView": 0,
      "byteOffset": 24,
      "componentType": 5126,
      "count": 2223,
      "max": [
        0.9990234375,
        0.9990234375
      ],
      "min": [
        0.0009765625,
        0.0009765625
      ],
      "type": "VEC2"
    },
    {
      "bufferView": 1,
      "componentType": 5123,
      "count": 5091,
      "type": "SCALAR"
    },
    {
      "name": "POSITION",
      "bufferView": 0,
      "byteOffset": 71136,
      "componentType": 5126,
      "count": 610,
      "max": [
        -517.14312744140625,
        62.669136047363281,
        459.07192993164063
      ],
      "min": [
        -549.25994873046875,
        39.342155456542969,
        420.8414306640625
      ],
      "type": "VEC3"
    },
    {
      "name": "NORMAL",
      "bufferView": 0,
      "byteOffset": 71148,
      "componentType": 5126,
      "count": 610,
      "max": [
        0.99999254941940308,
        0.99998492002487183,
        0.99999195337295532
      ],
      "min": [
        -0.99999189376831055,
        -1,
        -0.9999924898147583
      ],
      "type": "VEC3"
    },
    {
      "name": "TEXCOORD_0",
      "bufferView": 0,
      "byteOffset": 71160,
      "componentType": 5126,
      "count": 610,
      "max": [
        0.998046875,
        0.998046875
      ],
      "min": [
        0.001953125,
        0.662109375
      ],
      "type": "VEC2"
    },
    {
      "bufferView": 1,
      "byteOffset": 10182,
      "componentType": 5123,
      "count": 1329,
      "type": "SCALAR"
    }
  ],
  "bufferViews": [
    {
      "buffer": 0,
      "byteLength": 90656,
      "byteStride": 32,
      "target": 34962
    },
    {
      "buffer": 0,
      "byteLength": 12840,
      "byteOffset": 90656,
      "target": 34963
    }
  ],
  "buffers": [
    {
      "byteLength": 103496,
      "uri": "20525362525051737354_LOD00.bin"
    }
  ],
  "images": [
    {
      "uri": "20525362525051737354_LOD00_0.png"
    },
    {
      "uri": "20525362525051737354_LOD00_1.png"
    }
  ],
  "materials": [
    {
      "doubleSided": true,
      "pbrMetallicRoughness": {
        "baseColorTexture": {
          "index": 0
        },
        "metallicFactor": 0
      }
    },
    {
      "doubleSided": true,
      "pbrMetallicRoughness": {
        "baseColorTexture": {
          "index": 1
        },
        "metallicFactor": 0
      }
    }
  ],
  "meshes": [
    {
      "name": "20525362525051737354_0",
      "primitives": [
        {
          "attributes": {
            "POSITION": 0,
            "NORMAL": 1,
            "TEXCOORD_0": 2
          },
          "indices": 3,
          "material": 0
        }
      ]
    },
    {
      "name": "20525362525051737354_1",
      "primitives": [
        {
          "attributes": {
            "POSITION": 4,
            "NORMAL": 5,
            "TEXCOORD_0": 6
          },
          "indices": 7,
          "material": 1
        }
      ]
    }
  ],
  "nodes": [
    {
      "mesh": 0
    },
    {
      "mesh": 1
    }
  ],
  "scene": 0,
  "scenes": [
    {
      "nodes": [
        0,
        1
      ]
    }
  ],
  "textures": [
    {
      "source": 0
    },
    {
      "source": 1
    }
  ]
}