{
  "asset": {
    "copyright": "",
    "generator": "SharpGLTF 1.0.0",
    "version": "2.0"
  },
  "accessors": [
    {
      "name": "POSITION",
      "bufferView": 0,
      "componentType": 5126,
      "count": 6601,
      "max": [
        -291.99545288085938,
        73.509559631347656,
        39.159206390380859
      ],
      "min": [
        -324.57437133789063,
        37.361904144287109,
        0.46641910076141357
      ],
      "type": "VEC3"
    },
    {
      "name": "NORMAL",
      "bufferView": 0,
      "byteOffset": 12,
      "componentType": 5126,
      "count": 6601,
      "max": [
        0.9999924898147583,
        0.99998468160629272,
        0.99999219179153442
      ],
      "min": [
        -0.99999207258224487,
        -1,
        -0.99999219179153442
      ],
      "type": "VEC3"
    },
    {
      "name": "TEXCOORD_0",
      "bufferView": 0,
      "byteOffset": 24,
      "componentType": 5126,
      "count": 6601,
      "max": [
        0.998046875,
        0.9990234375
      ],
      "min": [
        0.001953125,
        0.0009765625
      ],
      "type": "VEC2"
    },
    {
      "bufferView": 1,
      "componentType": 5123,
      "count": 16674,
      "type": "SCALAR"
    },
    {
      "name": "POSITION",
      "bufferView": 0,
      "byteOffset": 211232,
      "componentType": 5126,
      "count": 1821,
      "max": [
        -292.45770263671875,
        73.509490966796875,
        38.696754455566406
      ],
      "min": [
        -324.57427978515625,
        37.824131011962891,
        0.46648672223091125
      ],
      "type": "VEC3"
    },
    {
      "name": "NORMAL",
      "bufferView": 0,
      "byteOffset": 211244,
      "componentType": 5126,
      "count": 1821,
      "max": [
        0.99465429782867432,
        0.99998468160629272,
        0.99999219179153442
      ],
      "min": [
        -0.99999207258224487,
        -0.98321515321731567,
        -0.99931466579437256
      ],
      "type": "VEC3"
    },
    {
      "name": "TEXCOORD_0",
      "bufferView": 0,
      "byteOffset": 211256,
      "componentType": 5126,
      "count": 1821,
      "max": [
        0.998046875,
        0.998046875
      ],
      "min": [
        0.001953125,
        0.423828125
      ],
      "type": "VEC2"
    },
    {
      "bufferView": 1,
      "byteOffset": 33348,
      "componentType": 5123,
      "count": 3822,
      "type": "SCALAR"
    }
  ],
  "bufferViews": [
    {
      "buffer": 0,
      "byteLength": 269504,
      "byteStride": 32,
      "target": 34962
    },
    {
      "buffer": 0,
      "byteLength": 40992,
      "byteOffset": 269504,
      "target": 34963
    }
  ],
  "buffers": [
    {
      "byteLength": 310496,
      "uri": "20525362525051734157_LOD00.bin"
    }
  ],
  "images": [
    {
      "uri": "20525362525051734157_LOD00_0.png"
    },
    {
      "uri": "20525362525051734157_LOD00_1.png"
    }
  ],
  "materials": [
    {
      "doubleSided": true,
      "pbrMetallicRoughness": {
        "baseColorTexture": {
          "index": 0
        },
        "metallicFactor": 0
      }
    },
    {
      "doubleSided": true,
      "pbrMetallicRoughness": {
        "baseColorTexture": {
          "index": 1
        },
        "metallicFactor": 0
      }
    }
  ],
  "meshes": [
    {
      "name": "20525362525051734157_0",
      "primitives": [
        {
          "attributes": {
            "POSITION": 0,
            "NORMAL": 1,
            "TEXCOORD_0": 2
          },
          "indices": 3,
          "material": 0
        }
      ]
    },
    {
      "name": "20525362525051734157_1",
      "primitives": [
        {
          "attributes": {
            "POSITION": 4,
            "NORMAL": 5,
            "TEXCOORD_0": 6
          },
          "indices": 7,
          "material": 1
        }
      ]
    }
  ],
  "nodes": [
    {
      "mesh": 0
    },
    {
      "mesh": 1
    }
  ],
  "scene": 0,
  "scenes": [
    {
      "nodes": [
        0,
        1
      ]
    }
  ],
  "textures": [
    {
      "source": 0
    },
    {
      "source": 1
    }
  ]
}