{
  "asset": {
    "copyright": "",
    "generator": "SharpGLTF 1.0.0",
    "version": "2.0"
  },
  "accessors": [
    {
      "name": "POSITION",
      "bufferView": 0,
      "componentType": 5126,
      "count": 1565,
      "max": [
        -242.91668701171875,
        90.009757995605469,
        459.37228393554688
      ],
      "min": [
        -260.673095703125,
        74.253181457519531,
        439.48544311523438
      ],
      "type": "VEC3"
    },
    {
      "name": "NORMAL",
      "bufferView": 0,
      "byteOffset": 12,
      "componentType": 5126,
      "count": 1565,
      "max": [
        0.99999243021011353,
        0.99998486042022705,
        0.99914902448654175
      ],
      "min": [
        -0.97413671016693115,
        -0.99509990215301514,
        -0.99931234121322632
      ],
      "type": "VEC3"
    },
    {
      "name": "TEXCOORD_0",
      "bufferView": 0,
      "byteOffset": 24,
      "componentType": 5126,
      "count": 1565,
      "max": [
        0.998046875,
        0.998046875
      ],
      "min": [
        0.001953125,
        0.431640625
      ],
      "type": "VEC2"
    },
    {
      "bufferView": 1,
      "componentType": 5123,
      "count": 4011,
      "type": "SCALAR"
    }
  ],
  "bufferViews": [
    {
      "buffer": 0,
      "byteLength": 50080,
      "byteStride": 32,
      "target": 34962
    },
    {
      "buffer": 0,
      "byteLength": 8022,
      "byteOffset": 50080,
      "target": 34963
    }
  ],
  "buffers": [
    {
      "byteLength": 58104,
      "uri": "20525362525051736701_LOD00.bin"
    }
  ],
  "images": [
    {
      "uri": "20525362525051736701_LOD00.png"
    }
  ],
  "materials": [
    {
      "doubleSided": true,
      "pbrMetallicRoughness": {
        "baseColorTexture": {
          "index": 0
        },
        "metallicFactor": 0
      }
    }
  ],
  "meshes": [
    {
      "name": "20525362525051736701_0",
      "primitives": [
        {
          "attributes": {
            "POSITION": 0,
            "NORMAL": 1,
            "TEXCOORD_0": 2
          },
          "indices": 3,
          "material": 0
        }
      ]
    }
  ],
  "nodes": [
    {
      "mesh": 0
    }
  ],
  "scene": 0,
  "scenes": [
    {
      "nodes": [
        0
      ]
    }
  ],
  "textures": [
    {
      "source": 0
    }
  ]
}