{
  "asset": {
    "copyright": "",
    "generator": "SharpGLTF 1.0.0",
    "version": "2.0"
  },
  "accessors": [
    {
      "name": "POSITION",
      "bufferView": 0,
      "componentType": 5126,
      "count": 2855,
      "max": [
        -70.839942932128906,
        86.779792785644531,
        306.20001220703125
      ],
      "min": [
        -92.765129089355469,
        74.265525817871094,
        267.9688720703125
      ],
      "type": "VEC3"
    },
    {
      "name": "NORMAL",
      "bufferView": 0,
      "byteOffset": 12,
      "componentType": 5126,
      "count": 2855,
      "max": [
        0.99999231100082397,
        0.99998468160629272,
        0.99999207258224487
      ],
      "min": [
        -0.99999219179153442,
        -0.99916839599609375,
        -0.99999237060546875
      ],
      "type": "VEC3"
    },
    {
      "name": "TEXCOORD_0",
      "bufferView": 0,
      "byteOffset": 24,
      "componentType": 5126,
      "count": 2855,
      "max": [
        0.998046875,
        0.9990234375
      ],
      "min": [
        0.001953125,
        0.0009765625
      ],
      "type": "VEC2"
    },
    {
      "bufferView": 1,
      "componentType": 5123,
      "count": 6708,
      "type": "SCALAR"
    },
    {
      "name": "POSITION",
      "bufferView": 0,
      "byteOffset": 91360,
      "componentType": 5126,
      "count": 1120,
      "max": [
        -70.994354248046875,
        86.469635009765625,
        304.04159545898438
      ],
      "min": [
        -92.765129089355469,
        74.265632629394531,
        267.96923828125
      ],
      "type": "VEC3"
    },
    {
      "name": "NORMAL",
      "bufferView": 0,
      "byteOffset": 91372,
      "componentType": 5126,
      "count": 1120,
      "max": [
        0.99999231100082397,
        0.99998468160629272,
        0.99999207258224487
      ],
      "min": [
        -0.99999219179153442,
        -1,
        -0.99999237060546875
      ],
      "type": "VEC3"
    },
    {
      "name": "TEXCOORD_0",
      "bufferView": 0,
      "byteOffset": 91384,
      "componentType": 5126,
      "count": 1120,
      "max": [
        0.998046875,
        0.998046875
      ],
      "min": [
        0.001953125,
        0.544921875
      ],
      "type": "VEC2"
    },
    {
      "bufferView": 1,
      "byteOffset": 13416,
      "componentType": 5123,
      "count": 2505,
      "type": "SCALAR"
    }
  ],
  "bufferViews": [
    {
      "buffer": 0,
      "byteLength": 127200,
      "byteStride": 32,
      "target": 34962
    },
    {
      "buffer": 0,
      "byteLength": 18426,
      "byteOffset": 127200,
      "target": 34963
    }
  ],
  "buffers": [
    {
      "byteLength": 145628,
      "uri": "20525362525051736400_LOD00.bin"
    }
  ],
  "images": [
    {
      "uri": "20525362525051736400_LOD00_0.png"
    },
    {
      "uri": "20525362525051736400_LOD00_1.png"
    }
  ],
  "materials": [
    {
      "doubleSided": true,
      "pbrMetallicRoughness": {
        "baseColorTexture": {
          "index": 0
        },
        "metallicFactor": 0
      }
    },
    {
      "doubleSided": true,
      "pbrMetallicRoughness": {
        "baseColorTexture": {
          "index": 1
        },
        "metallicFactor": 0
      }
    }
  ],
  "meshes": [
    {
      "name": "20525362525051736400_0",
      "primitives": [
        {
          "attributes": {
            "POSITION": 0,
            "NORMAL": 1,
            "TEXCOORD_0": 2
          },
          "indices": 3,
          "material": 0
        }
      ]
    },
    {
      "name": "20525362525051736400_1",
      "primitives": [
        {
          "attributes": {
            "POSITION": 4,
            "NORMAL": 5,
            "TEXCOORD_0": 6
          },
          "indices": 7,
          "material": 1
        }
      ]
    }
  ],
  "nodes": [
    {
      "mesh": 0
    },
    {
      "mesh": 1
    }
  ],
  "scene": 0,
  "scenes": [
    {
      "nodes": [
        0,
        1
      ]
    }
  ],
  "textures": [
    {
      "source": 0
    },
    {
      "source": 1
    }
  ]
}