{
  "asset": {
    "copyright": "",
    "generator": "SharpGLTF 1.0.0",
    "version": "2.0"
  },
  "accessors": [
    {
      "name": "POSITION",
      "bufferView": 0,
      "componentType": 5126,
      "count": 4129,
      "max": [
        -773.9580078125,
        59.716892242431641,
        191.58467102050781
      ],
      "min": [
        -806.22930908203125,
        42.728015899658203,
        153.35150146484375
      ],
      "type": "VEC3"
    },
    {
      "name": "NORMAL",
      "bufferView": 0,
      "byteOffset": 12,
      "componentType": 5126,
      "count": 4129,
      "max": [
        0.99999266862869263,
        0.99998492002487183,
        0.99999213218688965
      ],
      "min": [
        -0.999991774559021,
        -0.99146997928619385,
        -0.99999237060546875
      ],
      "type": "VEC3"
    },
    {
      "name": "TEXCOORD_0",
      "bufferView": 0,
      "byteOffset": 24,
      "componentType": 5126,
      "count": 4129,
      "max": [
        0.998046875,
        0.9990234375
      ],
      "min": [
        0.001953125,
        0.0009765625
      ],
      "type": "VEC2"
    },
    {
      "bufferView": 1,
      "componentType": 5123,
      "count": 9927,
      "type": "SCALAR"
    },
    {
      "name": "POSITION",
      "bufferView": 0,
      "byteOffset": 132128,
      "componentType": 5126,
      "count": 2114,
      "max": [
        -773.9583740234375,
        59.716892242431641,
        191.58454895019531
      ],
      "min": [
        -806.077880859375,
        42.728275299072266,
        153.35194396972656
      ],
      "type": "VEC3"
    },
    {
      "name": "NORMAL",
      "bufferView": 0,
      "byteOffset": 132140,
      "componentType": 5126,
      "count": 2114,
      "max": [
        0.99999266862869263,
        0.99998492002487183,
        0.99999213218688965
      ],
      "min": [
        -0.999991774559021,
        -0.99125206470489502,
        -0.99999237060546875
      ],
      "type": "VEC3"
    },
    {
      "name": "TEXCOORD_0",
      "bufferView": 0,
      "byteOffset": 132152,
      "componentType": 5126,
      "count": 2114,
      "max": [
        0.998046875,
        0.998046875
      ],
      "min": [
        0.001953125,
        0.279296875
      ],
      "type": "VEC2"
    },
    {
      "bufferView": 1,
      "byteOffset": 19854,
      "componentType": 5123,
      "count": 5094,
      "type": "SCALAR"
    }
  ],
  "bufferViews": [
    {
      "buffer": 0,
      "byteLength": 199776,
      "byteStride": 32,
      "target": 34962
    },
    {
      "buffer": 0,
      "byteLength": 30042,
      "byteOffset": 199776,
      "target": 34963
    }
  ],
  "buffers": [
    {
      "byteLength": 229820,
      "uri": "20525362525140624356_LOD00.bin"
    }
  ],
  "images": [
    {
      "uri": "20525362525140624356_LOD00_0.png"
    },
    {
      "uri": "20525362525140624356_LOD00_1.png"
    }
  ],
  "materials": [
    {
      "doubleSided": true,
      "pbrMetallicRoughness": {
        "baseColorTexture": {
          "index": 0
        },
        "metallicFactor": 0
      }
    },
    {
      "doubleSided": true,
      "pbrMetallicRoughness": {
        "baseColorTexture": {
          "index": 1
        },
        "metallicFactor": 0
      }
    }
  ],
  "meshes": [
    {
      "name": "20525362525140624356_0",
      "primitives": [
        {
          "attributes": {
            "POSITION": 0,
            "NORMAL": 1,
            "TEXCOORD_0": 2
          },
          "indices": 3,
          "material": 0
        }
      ]
    },
    {
      "name": "20525362525140624356_1",
      "primitives": [
        {
          "attributes": {
            "POSITION": 4,
            "NORMAL": 5,
            "TEXCOORD_0": 6
          },
          "indices": 7,
          "material": 1
        }
      ]
    }
  ],
  "nodes": [
    {
      "mesh": 0
    },
    {
      "mesh": 1
    }
  ],
  "scene": 0,
  "scenes": [
    {
      "nodes": [
        0,
        1
      ]
    }
  ],
  "textures": [
    {
      "source": 0
    },
    {
      "source": 1
    }
  ]
}