{
  "asset": {
    "copyright": "",
    "generator": "SharpGLTF 1.0.0",
    "version": "2.0"
  },
  "accessors": [
    {
      "name": "POSITION",
      "bufferView": 0,
      "componentType": 5126,
      "count": 3104,
      "max": [
        -581.3387451171875,
        74.246101379394531,
        497.2919921875
      ],
      "min": [
        -613.457763671875,
        37.787815093994141,
        459.05868530273438
      ],
      "type": "VEC3"
    },
    {
      "name": "NORMAL",
      "bufferView": 0,
      "byteOffset": 12,
      "componentType": 5126,
      "count": 3104,
      "max": [
        0.99999254941940308,
        0.99998503923416138,
        0.99999195337295532
      ],
      "min": [
        -0.99999183416366577,
        -1,
        -0.99999254941940308
      ],
      "type": "VEC3"
    },
    {
      "name": "TEXCOORD_0",
      "bufferView": 0,
      "byteOffset": 24,
      "componentType": 5126,
      "count": 3104,
      "max": [
        0.9990234375,
        0.9990234375
      ],
      "min": [
        0.0009765625,
        0.0009765625
      ],
      "type": "VEC2"
    },
    {
      "bufferView": 1,
      "componentType": 5123,
      "count": 6873,
      "type": "SCALAR"
    },
    {
      "name": "POSITION",
      "bufferView": 0,
      "byteOffset": 99328,
      "componentType": 5126,
      "count": 476,
      "max": [
        -581.33978271484375,
        74.245643615722656,
        497.29180908203125
      ],
      "min": [
        -613.4573974609375,
        44.279453277587891,
        459.05865478515625
      ],
      "type": "VEC3"
    },
    {
      "name": "NORMAL",
      "bufferView": 0,
      "byteOffset": 99340,
      "componentType": 5126,
      "count": 476,
      "max": [
        0.99999254941940308,
        0.99998503923416138,
        0.99999195337295532
      ],
      "min": [
        -0.99999183416366577,
        -1,
        -0.99999254941940308
      ],
      "type": "VEC3"
    },
    {
      "name": "TEXCOORD_0",
      "bufferView": 0,
      "byteOffset": 99352,
      "componentType": 5126,
      "count": 476,
      "max": [
        0.998046875,
        0.998046875
      ],
      "min": [
        0.001953125,
        0.822265625
      ],
      "type": "VEC2"
    },
    {
      "bufferView": 1,
      "byteOffset": 13746,
      "componentType": 5123,
      "count": 1065,
      "type": "SCALAR"
    }
  ],
  "bufferViews": [
    {
      "buffer": 0,
      "byteLength": 114560,
      "byteStride": 32,
      "target": 34962
    },
    {
      "buffer": 0,
      "byteLength": 15876,
      "byteOffset": 114560,
      "target": 34963
    }
  ],
  "buffers": [
    {
      "byteLength": 130436,
      "uri": "20525362525140626246_LOD00.bin"
    }
  ],
  "images": [
    {
      "uri": "20525362525140626246_LOD00_0.png"
    },
    {
      "uri": "20525362525140626246_LOD00_1.png"
    }
  ],
  "materials": [
    {
      "doubleSided": true,
      "pbrMetallicRoughness": {
        "baseColorTexture": {
          "index": 0
        },
        "metallicFactor": 0
      }
    },
    {
      "doubleSided": true,
      "pbrMetallicRoughness": {
        "baseColorTexture": {
          "index": 1
        },
        "metallicFactor": 0
      }
    }
  ],
  "meshes": [
    {
      "name": "20525362525140626246_0",
      "primitives": [
        {
          "attributes": {
            "POSITION": 0,
            "NORMAL": 1,
            "TEXCOORD_0": 2
          },
          "indices": 3,
          "material": 0
        }
      ]
    },
    {
      "name": "20525362525140626246_1",
      "primitives": [
        {
          "attributes": {
            "POSITION": 4,
            "NORMAL": 5,
            "TEXCOORD_0": 6
          },
          "indices": 7,
          "material": 1
        }
      ]
    }
  ],
  "nodes": [
    {
      "mesh": 0
    },
    {
      "mesh": 1
    }
  ],
  "scene": 0,
  "scenes": [
    {
      "nodes": [
        0,
        1
      ]
    }
  ],
  "textures": [
    {
      "source": 0
    },
    {
      "source": 1
    }
  ]
}