{
  "asset": {
    "copyright": "",
    "generator": "SharpGLTF 1.0.0",
    "version": "2.0"
  },
  "accessors": [
    {
      "name": "POSITION",
      "bufferView": 0,
      "componentType": 5126,
      "count": 282,
      "max": [
        -356.8114013671875,
        38.299175262451172,
        110.65924835205078
      ],
      "min": [
        -389.23599243164063,
        36.136409759521484,
        76.745124816894531
      ],
      "type": "VEC3"
    },
    {
      "name": "NORMAL",
      "bufferView": 0,
      "byteOffset": 12,
      "componentType": 5126,
      "count": 282,
      "max": [
        0.76930046081542969,
        0.99897205829620361,
        0.75805902481079102
      ],
      "min": [
        -0.99486029148101807,
        -0.3037644624710083,
        -0.96520906686782837
      ],
      "type": "VEC3"
    },
    {
      "name": "TEXCOORD_0",
      "bufferView": 0,
      "byteOffset": 24,
      "componentType": 5126,
      "count": 282,
      "max": [
        0.802734375,
        0.998046875
      ],
      "min": [
        0.037109375,
        0.853515625
      ],
      "type": "VEC2"
    },
    {
      "bufferView": 1,
      "componentType": 5123,
      "count": 789,
      "type": "SCALAR"
    }
  ],
  "bufferViews": [
    {
      "buffer": 0,
      "byteLength": 9024,
      "byteStride": 32,
      "target": 34962
    },
    {
      "buffer": 0,
      "byteLength": 1578,
      "byteOffset": 9024,
      "target": 34963
    }
  ],
  "buffers": [
    {
      "byteLength": 10604,
      "uri": "20525362525051735063_LOD00.bin"
    }
  ],
  "images": [
    {
      "uri": "20525362525051735063_LOD00.png"
    }
  ],
  "materials": [
    {
      "doubleSided": true,
      "pbrMetallicRoughness": {
        "baseColorTexture": {
          "index": 0
        },
        "metallicFactor": 0
      }
    }
  ],
  "meshes": [
    {
      "name": "20525362525051735063_0",
      "primitives": [
        {
          "attributes": {
            "POSITION": 0,
            "NORMAL": 1,
            "TEXCOORD_0": 2
          },
          "indices": 3,
          "material": 0
        }
      ]
    }
  ],
  "nodes": [
    {
      "mesh": 0
    }
  ],
  "scene": 0,
  "scenes": [
    {
      "nodes": [
        0
      ]
    }
  ],
  "textures": [
    {
      "source": 0
    }
  ]
}