{
  "asset": {
    "copyright": "",
    "generator": "SharpGLTF 1.0.0",
    "version": "2.0"
  },
  "accessors": [
    {
      "name": "POSITION",
      "bufferView": 0,
      "componentType": 5126,
      "count": 240,
      "max": [
        -131.95281982421875,
        37.844165802001953,
        153.49287414550781
      ],
      "min": [
        -161.75285339355469,
        33.519741058349609,
        115.10798645019531
      ],
      "type": "VEC3"
    },
    {
      "name": "NORMAL",
      "bufferView": 0,
      "byteOffset": 12,
      "componentType": 5126,
      "count": 240,
      "max": [
        0.96207582950592041,
        0.99998456239700317,
        0.183304563164711
      ],
      "min": [
        -0.99673718214035034,
        -0.91767477989196777,
        -0.21793308854103088
      ],
      "type": "VEC3"
    },
    {
      "name": "TEXCOORD_0",
      "bufferView": 0,
      "byteOffset": 24,
      "componentType": 5126,
      "count": 240,
      "max": [
        0.998046875,
        0.998046875
      ],
      "min": [
        0.001953125,
        0.052734375
      ],
      "type": "VEC2"
    },
    {
      "bufferView": 1,
      "componentType": 5123,
      "count": 675,
      "type": "SCALAR"
    }
  ],
  "bufferViews": [
    {
      "buffer": 0,
      "byteLength": 7680,
      "byteStride": 32,
      "target": 34962
    },
    {
      "buffer": 0,
      "byteLength": 1350,
      "byteOffset": 7680,
      "target": 34963
    }
  ],
  "buffers": [
    {
      "byteLength": 9032,
      "uri": "20525362525051734250_LOD00.bin"
    }
  ],
  "images": [
    {
      "uri": "20525362525051734250_LOD00.png"
    }
  ],
  "materials": [
    {
      "doubleSided": true,
      "pbrMetallicRoughness": {
        "baseColorTexture": {
          "index": 0
        },
        "metallicFactor": 0
      }
    }
  ],
  "meshes": [
    {
      "name": "20525362525051734250_0",
      "primitives": [
        {
          "attributes": {
            "POSITION": 0,
            "NORMAL": 1,
            "TEXCOORD_0": 2
          },
          "indices": 3,
          "material": 0
        }
      ]
    }
  ],
  "nodes": [
    {
      "mesh": 0
    }
  ],
  "scene": 0,
  "scenes": [
    {
      "nodes": [
        0
      ]
    }
  ],
  "textures": [
    {
      "source": 0
    }
  ]
}