{
  "asset": {
    "copyright": "",
    "generator": "SharpGLTF 1.0.0",
    "version": "2.0"
  },
  "accessors": [
    {
      "name": "POSITION",
      "bufferView": 0,
      "componentType": 5126,
      "count": 531,
      "max": [
        -1081.348388671875,
        345.58676147460938,
        10.223471641540527
      ],
      "min": [
        -1597.6502685546875,
        219.66261291503906,
        -606.5557861328125
      ],
      "type": "VEC3"
    },
    {
      "name": "NORMAL",
      "bufferView": 0,
      "byteOffset": 12,
      "componentType": 5126,
      "count": 531,
      "max": [
        0.3062569797039032,
        0.99998468160629272,
        0.34308367967605591
      ],
      "min": [
        -0.42390361428260803,
        0.85858428478240967,
        -0.51264607906341553
      ],
      "type": "VEC3"
    },
    {
      "name": "TEXCOORD_0",
      "bufferView": 0,
      "byteOffset": 24,
      "componentType": 5126,
      "count": 531,
      "max": [
        1.000335693359375,
        1.0042724609375
      ],
      "min": [
        -0.00506591796875,
        -0.0042724609375
      ],
      "type": "VEC2"
    },
    {
      "bufferView": 1,
      "componentType": 5123,
      "count": 1608,
      "type": "SCALAR"
    }
  ],
  "bufferViews": [
    {
      "buffer": 0,
      "byteLength": 16992,
      "byteStride": 32,
      "target": 34962
    },
    {
      "buffer": 0,
      "byteLength": 3216,
      "byteOffset": 16992,
      "target": 34963
    }
  ],
  "buffers": [
    {
      "byteLength": 20208,
      "uri": "2052536342527536_LOD04.bin"
    }
  ],
  "images": [
    {
      "uri": "2052536342527536_LOD04.png"
    }
  ],
  "materials": [
    {
      "doubleSided": true,
      "pbrMetallicRoughness": {
        "baseColorTexture": {
          "index": 0
        },
        "metallicFactor": 0
      }
    }
  ],
  "meshes": [
    {
      "name": "2052536342527536_0",
      "primitives": [
        {
          "attributes": {
            "POSITION": 0,
            "NORMAL": 1,
            "TEXCOORD_0": 2
          },
          "indices": 3,
          "material": 0
        }
      ]
    }
  ],
  "nodes": [
    {
      "mesh": 0
    }
  ],
  "scene": 0,
  "scenes": [
    {
      "nodes": [
        0
      ]
    }
  ],
  "textures": [
    {
      "source": 0
    }
  ]
}