{
  "asset": {
    "copyright": "",
    "generator": "SharpGLTF 1.0.0",
    "version": "2.0"
  },
  "accessors": [
    {
      "name": "POSITION",
      "bufferView": 0,
      "componentType": 5126,
      "count": 765,
      "max": [
        -1078.8668212890625,
        370.2938232421875,
        619.3092041015625
      ],
      "min": [
        -1597.577880859375,
        266.63717651367188,
        4.9608035087585449
      ],
      "type": "VEC3"
    },
    {
      "name": "NORMAL",
      "bufferView": 0,
      "byteOffset": 12,
      "componentType": 5126,
      "count": 765,
      "max": [
        0.37632572650909424,
        0.99998503923416138,
        0.27905014157295227
      ],
      "min": [
        -0.3436969518661499,
        0.89019501209259033,
        -0.3760470449924469
      ],
      "type": "VEC3"
    },
    {
      "name": "TEXCOORD_0",
      "bufferView": 0,
      "byteOffset": 24,
      "componentType": 5126,
      "count": 765,
      "max": [
        1.000335693359375,
        1.0042724609375
      ],
      "min": [
        -0.009857177734375,
        -0.000244140625
      ],
      "type": "VEC2"
    },
    {
      "bufferView": 1,
      "componentType": 5123,
      "count": 2202,
      "type": "SCALAR"
    }
  ],
  "bufferViews": [
    {
      "buffer": 0,
      "byteLength": 24480,
      "byteStride": 32,
      "target": 34962
    },
    {
      "buffer": 0,
      "byteLength": 4404,
      "byteOffset": 24480,
      "target": 34963
    }
  ],
  "buffers": [
    {
      "byteLength": 28884,
      "uri": "2052536342527714_LOD04.bin"
    }
  ],
  "images": [
    {
      "uri": "2052536342527714_LOD04.png"
    }
  ],
  "materials": [
    {
      "doubleSided": true,
      "pbrMetallicRoughness": {
        "baseColorTexture": {
          "index": 0
        },
        "metallicFactor": 0
      }
    }
  ],
  "meshes": [
    {
      "name": "2052536342527714_0",
      "primitives": [
        {
          "attributes": {
            "POSITION": 0,
            "NORMAL": 1,
            "TEXCOORD_0": 2
          },
          "indices": 3,
          "material": 0
        }
      ]
    }
  ],
  "nodes": [
    {
      "mesh": 0
    }
  ],
  "scene": 0,
  "scenes": [
    {
      "nodes": [
        0
      ]
    }
  ],
  "textures": [
    {
      "source": 0
    }
  ]
}