{
  "asset": {
    "copyright": "",
    "generator": "SharpGLTF 1.0.0",
    "version": "2.0"
  },
  "accessors": [
    {
      "name": "POSITION",
      "bufferView": 0,
      "componentType": 5126,
      "count": 340,
      "max": [
        461.66726684570313,
        274.03488159179688,
        7.7179021835327148
      ],
      "min": [
        -59.546310424804688,
        135.73190307617188,
        -606.60333251953125
      ],
      "type": "VEC3"
    },
    {
      "name": "NORMAL",
      "bufferView": 0,
      "byteOffset": 12,
      "componentType": 5126,
      "count": 340,
      "max": [
        0.37258881330490112,
        0.99998438358306885,
        0.37200379371643066
      ],
      "min": [
        -0.58228045701980591,
        0.79049938917160034,
        -0.4418131411075592
      ],
      "type": "VEC3"
    },
    {
      "name": "TEXCOORD_0",
      "bufferView": 0,
      "byteOffset": 24,
      "componentType": 5126,
      "count": 340,
      "max": [
        1.005126953125,
        1.0042724609375
      ],
      "min": [
        -0.009857177734375,
        -0.000244140625
      ],
      "type": "VEC2"
    },
    {
      "bufferView": 1,
      "componentType": 5123,
      "count": 1086,
      "type": "SCALAR"
    }
  ],
  "bufferViews": [
    {
      "buffer": 0,
      "byteLength": 10880,
      "byteStride": 32,
      "target": 34962
    },
    {
      "buffer": 0,
      "byteLength": 2172,
      "byteOffset": 10880,
      "target": 34963
    }
  ],
  "buffers": [
    {
      "byteLength": 13052,
      "uri": "2052536342527437_LOD04.bin"
    }
  ],
  "images": [
    {
      "uri": "2052536342527437_LOD04.png"
    }
  ],
  "materials": [
    {
      "doubleSided": true,
      "pbrMetallicRoughness": {
        "baseColorTexture": {
          "index": 0
        },
        "metallicFactor": 0
      }
    }
  ],
  "meshes": [
    {
      "name": "2052536342527437_0",
      "primitives": [
        {
          "attributes": {
            "POSITION": 0,
            "NORMAL": 1,
            "TEXCOORD_0": 2
          },
          "indices": 3,
          "material": 0
        }
      ]
    }
  ],
  "nodes": [
    {
      "mesh": 0
    }
  ],
  "scene": 0,
  "scenes": [
    {
      "nodes": [
        0
      ]
    }
  ],
  "textures": [
    {
      "source": 0
    }
  ]
}