{
  "asset": {
    "copyright": "",
    "generator": "SharpGLTF 1.0.0",
    "version": "2.0"
  },
  "accessors": [
    {
      "name": "POSITION",
      "bufferView": 0,
      "componentType": 5126,
      "count": 277,
      "max": [
        -56.795581817626953,
        229.63978576660156,
        7.6907005310058594
      ],
      "min": [
        -570.5965576171875,
        143.16854858398438,
        -606.603271484375
      ],
      "type": "VEC3"
    },
    {
      "name": "NORMAL",
      "bufferView": 0,
      "byteOffset": 12,
      "componentType": 5126,
      "count": 277,
      "max": [
        0.35880935192108154,
        0.99998396635055542,
        0.3248659074306488
      ],
      "min": [
        -0.2184634804725647,
        0.91658699512481689,
        -0.31307891011238098
      ],
      "type": "VEC3"
    },
    {
      "name": "TEXCOORD_0",
      "bufferView": 0,
      "byteOffset": 24,
      "componentType": 5126,
      "count": 277,
      "max": [
        1.000335693359375,
        1.0042724609375
      ],
      "min": [
        -0.000274658203125,
        -0.000244140625
      ],
      "type": "VEC2"
    },
    {
      "bufferView": 1,
      "componentType": 5123,
      "count": 846,
      "type": "SCALAR"
    }
  ],
  "bufferViews": [
    {
      "buffer": 0,
      "byteLength": 8864,
      "byteStride": 32,
      "target": 34962
    },
    {
      "buffer": 0,
      "byteLength": 1692,
      "byteOffset": 8864,
      "target": 34963
    }
  ],
  "buffers": [
    {
      "byteLength": 10556,
      "uri": "2052536342527526_LOD04.bin"
    }
  ],
  "images": [
    {
      "uri": "2052536342527526_LOD04.png"
    }
  ],
  "materials": [
    {
      "doubleSided": true,
      "pbrMetallicRoughness": {
        "baseColorTexture": {
          "index": 0
        },
        "metallicFactor": 0
      }
    }
  ],
  "meshes": [
    {
      "name": "2052536342527526_0",
      "primitives": [
        {
          "attributes": {
            "POSITION": 0,
            "NORMAL": 1,
            "TEXCOORD_0": 2
          },
          "indices": 3,
          "material": 0
        }
      ]
    }
  ],
  "nodes": [
    {
      "mesh": 0
    }
  ],
  "scene": 0,
  "scenes": [
    {
      "nodes": [
        0
      ]
    }
  ],
  "textures": [
    {
      "source": 0
    }
  ]
}