{
  "asset": {
    "copyright": "",
    "generator": "SharpGLTF 1.0.0",
    "version": "2.0"
  },
  "accessors": [
    {
      "name": "POSITION",
      "bufferView": 0,
      "componentType": 5126,
      "count": 223,
      "max": [
        -56.811016082763672,
        264.20919799804688,
        621.69610595703125
      ],
      "min": [
        -570.5802001953125,
        192.60108947753906,
        7.4011440277099609
      ],
      "type": "VEC3"
    },
    {
      "name": "NORMAL",
      "bufferView": 0,
      "byteOffset": 12,
      "componentType": 5126,
      "count": 223,
      "max": [
        0.21845056116580963,
        0.99998432397842407,
        0.15778858959674835
      ],
      "min": [
        -0.26705387234687805,
        0.96209031343460083,
        -0.16936379671096802
      ],
      "type": "VEC3"
    },
    {
      "name": "TEXCOORD_0",
      "bufferView": 0,
      "byteOffset": 24,
      "componentType": 5126,
      "count": 223,
      "max": [
        1.000335693359375,
        1.000244140625
      ],
      "min": [
        -0.000274658203125,
        -0.0042724609375
      ],
      "type": "VEC2"
    },
    {
      "bufferView": 1,
      "componentType": 5123,
      "count": 705,
      "type": "SCALAR"
    }
  ],
  "bufferViews": [
    {
      "buffer": 0,
      "byteLength": 7136,
      "byteStride": 32,
      "target": 34962
    },
    {
      "buffer": 0,
      "byteLength": 1410,
      "byteOffset": 7136,
      "target": 34963
    }
  ],
  "buffers": [
    {
      "byteLength": 8548,
      "uri": "2052536342527704_LOD04.bin"
    }
  ],
  "images": [
    {
      "uri": "2052536342527704_LOD04.png"
    }
  ],
  "materials": [
    {
      "doubleSided": true,
      "pbrMetallicRoughness": {
        "baseColorTexture": {
          "index": 0
        },
        "metallicFactor": 0
      }
    }
  ],
  "meshes": [
    {
      "name": "2052536342527704_0",
      "primitives": [
        {
          "attributes": {
            "POSITION": 0,
            "NORMAL": 1,
            "TEXCOORD_0": 2
          },
          "indices": 3,
          "material": 0
        }
      ]
    }
  ],
  "nodes": [
    {
      "mesh": 0
    }
  ],
  "scene": 0,
  "scenes": [
    {
      "nodes": [
        0
      ]
    }
  ],
  "textures": [
    {
      "source": 0
    }
  ]
}