{
  "asset": {
    "copyright": "",
    "generator": "SharpGLTF 1.0.0",
    "version": "2.0"
  },
  "accessors": [
    {
      "name": "POSITION",
      "bufferView": 0,
      "componentType": 5126,
      "count": 422,
      "max": [
        -1081.402099609375,
        313.59909057617188,
        315.88552856445313
      ],
      "min": [
        -1344.4425048828125,
        269.15802001953125,
        11.209184646606445
      ],
      "type": "VEC3"
    },
    {
      "name": "NORMAL",
      "bufferView": 0,
      "byteOffset": 12,
      "componentType": 5126,
      "count": 422,
      "max": [
        0.42359700798988342,
        0.99998378753662109,
        0.34311759471893311
      ],
      "min": [
        -0.16453550755977631,
        0.8980749249458313,
        -0.30608904361724854
      ],
      "type": "VEC3"
    },
    {
      "name": "TEXCOORD_0",
      "bufferView": 0,
      "byteOffset": 24,
      "componentType": 5126,
      "count": 422,
      "max": [
        1.01470947265625,
        0.98809814453125
      ],
      "min": [
        -0.00982666015625,
        -0.008270263671875
      ],
      "type": "VEC2"
    },
    {
      "bufferView": 1,
      "componentType": 5123,
      "count": 1248,
      "type": "SCALAR"
    },
    {
      "name": "POSITION",
      "bufferView": 0,
      "byteOffset": 55968,
      "componentType": 5126,
      "count": 258,
      "max": [
        -1336.9017333984375,
        313.56686401367188,
        219.68402099609375
      ],
      "min": [
        -1597.4964599609375,
        296.23406982421875,
        7.5543017387390137
      ],
      "type": "VEC3"
    },
    {
      "name": "NORMAL",
      "bufferView": 0,
      "byteOffset": 55980,
      "componentType": 5126,
      "count": 258,
      "max": [
        0.16421985626220703,
        0.99998378753662109,
        0.31295481324195862
      ],
      "min": [
        -0.39029648900032043,
        0.8603743314743042,
        -0.40462109446525574
      ],
      "type": "VEC3"
    },
    {
      "name": "TEXCOORD_0",
      "bufferView": 0,
      "byteOffset": 55992,
      "componentType": 5126,
      "count": 258,
      "max": [
        1.000274658203125,
        1.000213623046875
      ],
      "min": [
        -0.0146484375,
        0.306365966796875
      ],
      "type": "VEC2"
    },
    {
      "bufferView": 1,
      "byteOffset": 10440,
      "componentType": 5123,
      "count": 690,
      "type": "SCALAR"
    },
    {
      "name": "POSITION",
      "bufferView": 0,
      "byteOffset": 64224,
      "componentType": 5126,
      "count": 185,
      "max": [
        -1083.81982421875,
        313.59573364257813,
        619.18658447265625
      ],
      "min": [
        -1248.0960693359375,
        270.39349365234375,
        313.27850341796875
      ],
      "type": "VEC3"
    },
    {
      "name": "NORMAL",
      "bufferView": 0,
      "byteOffset": 64236,
      "componentType": 5126,
      "count": 185,
      "max": [
        0.42356470227241516,
        0.99048048257827759,
        0.17045964300632477
      ],
      "min": [
        0.13758264482021332,
        0.85299026966094971,
        -0.38965943455696106
      ],
      "type": "VEC3"
    },
    {
      "name": "TEXCOORD_0",
      "bufferView": 0,
      "byteOffset": 64248,
      "componentType": 5126,
      "count": 185,
      "max": [
        0.6395263671875,
        1.000213623046875
      ],
      "min": [
        -0.000213623046875,
        -0.000213623046875
      ],
      "type": "VEC2"
    },
    {
      "bufferView": 1,
      "byteOffset": 11820,
      "componentType": 5123,
      "count": 558,
      "type": "SCALAR"
    },
    {
      "name": "POSITION",
      "bufferView": 0,
      "byteOffset": 25312,
      "componentType": 5126,
      "count": 323,
      "max": [
        -1082.630859375,
        341.8388671875,
        314.66696166992188
      ],
      "min": [
        -1341.96435546875,
        309.73440551757813,
        7.4973735809326172
      ],
      "type": "VEC3"
    },
    {
      "name": "NORMAL",
      "bufferView": 0,
      "byteOffset": 25324,
      "componentType": 5126,
      "count": 323,
      "max": [
        0.31773313879966736,
        0.99998396635055542,
        0.2914615273475647
      ],
      "min": [
        -0.21858005225658417,
        0.89342397451400757,
        -0.36145046353340149
      ],
      "type": "VEC3"
    },
    {
      "name": "TEXCOORD_0",
      "bufferView": 0,
      "byteOffset": 25336,
      "componentType": 5126,
      "count": 323,
      "max": [
        1.005126953125,
        1.000213623046875
      ],
      "min": [
        -0.005035400390625,
        -0.0042724609375
      ],
      "type": "VEC2"
    },
    {
      "bufferView": 1,
      "byteOffset": 8574,
      "componentType": 5123,
      "count": 933,
      "type": "SCALAR"
    },
    {
      "name": "POSITION",
      "bufferView": 0,
      "byteOffset": 13504,
      "componentType": 5126,
      "count": 369,
      "max": [
        -1340.5872802734375,
        356.63632202148438,
        314.68173217773438
      ],
      "min": [
        -1597.4814453125,
        309.68930053710938,
        7.5206332206726074
      ],
      "type": "VEC3"
    },
    {
      "name": "NORMAL",
      "bufferView": 0,
      "byteOffset": 13516,
      "componentType": 5126,
      "count": 369,
      "max": [
        0.31768882274627686,
        0.99998354911804199,
        0.32790839672088623
      ],
      "min": [
        -0.36199718713760376,
        0.8934367299079895,
        -0.40463650226593018
      ],
      "type": "VEC3"
    },
    {
      "name": "TEXCOORD_0",
      "bufferView": 0,
      "byteOffset": 13528,
      "componentType": 5126,
      "count": 369,
      "max": [
        1.00030517578125,
        1.000213623046875
      ],
      "min": [
        -0.000244140625,
        -0.0042724609375
      ],
      "type": "VEC2"
    },
    {
      "bufferView": 1,
      "byteOffset": 2496,
      "componentType": 5123,
      "count": 1161,
      "type": "SCALAR"
    },
    {
      "name": "POSITION",
      "bufferView": 0,
      "byteOffset": 35648,
      "componentType": 5126,
      "count": 321,
      "max": [
        -1122.1151123046875,
        368.99752807617188,
        619.2098388671875
      ],
      "min": [
        -1341.960205078125,
        309.7529296875,
        313.28680419921875
      ],
      "type": "VEC3"
    },
    {
      "name": "NORMAL",
      "bufferView": 0,
      "byteOffset": 35660,
      "componentType": 5126,
      "count": 321,
      "max": [
        0.42358031868934631,
        0.99897205829620361,
        0.35840597748756409
      ],
      "min": [
        0.0039670728147029877,
        0.86054772138595581,
        -0.38967260718345642
      ],
      "type": "VEC3"
    },
    {
      "name": "TEXCOORD_0",
      "bufferView": 0,
      "byteOffset": 35672,
      "componentType": 5126,
      "count": 321,
      "max": [
        1.005096435546875,
        1.000213623046875
      ],
      "min": [
        0.14886474609375,
        -0.000244140625
      ],
      "type": "VEC2"
    },
    {
      "bufferView": 1,
      "byteOffset": 4818,
      "componentType": 5123,
      "count": 942,
      "type": "SCALAR"
    },
    {
      "name": "POSITION",
      "bufferView": 0,
      "byteOffset": 45920,
      "componentType": 5126,
      "count": 314,
      "max": [
        -1340.556396484375,
        370.22634887695313,
        620.4732666015625
      ],
      "min": [
        -1597.4656982421875,
        318.33438110351563,
        312.0926513671875
      ],
      "type": "VEC3"
    },
    {
      "name": "NORMAL",
      "bufferView": 0,
      "byteOffset": 45932,
      "componentType": 5126,
      "count": 314,
      "max": [
        0.29411813616752625,
        0.99998378753662109,
        0.27907371520996094
      ],
      "min": [
        -0.35897064208984375,
        0.91298216581344604,
        -0.38612738251686096
      ],
      "type": "VEC3"
    },
    {
      "name": "TEXCOORD_0",
      "bufferView": 0,
      "byteOffset": 45944,
      "componentType": 5126,
      "count": 314,
      "max": [
        1.00030517578125,
        1.004241943359375
      ],
      "min": [
        -0.000244140625,
        -0.0042724609375
      ],
      "type": "VEC2"
    },
    {
      "bufferView": 1,
      "byteOffset": 6702,
      "componentType": 5123,
      "count": 936,
      "type": "SCALAR"
    }
  ],
  "bufferViews": [
    {
      "buffer": 0,
      "byteLength": 70144,
      "byteStride": 32,
      "target": 34962
    },
    {
      "buffer": 0,
      "byteLength": 12936,
      "byteOffset": 70144,
      "target": 34963
    }
  ],
  "buffers": [
    {
      "byteLength": 83080,
      "uri": "2052536342527714_LOD03.bin"
    }
  ],
  "images": [
    {
      "uri": "2052536342527714_LOD03_0.png"
    },
    {
      "uri": "2052536342527714_LOD03_1.png"
    },
    {
      "uri": "2052536342527714_LOD03_2.png"
    },
    {
      "uri": "2052536342527714_LOD03_3.png"
    }
  ],
  "materials": [
    {
      "doubleSided": true,
      "pbrMetallicRoughness": {
        "baseColorTexture": {
          "index": 0
        },
        "metallicFactor": 0
      }
    },
    {
      "doubleSided": true,
      "pbrMetallicRoughness": {
        "baseColorTexture": {
          "index": 1
        },
        "metallicFactor": 0
      }
    },
    {
      "doubleSided": true,
      "pbrMetallicRoughness": {
        "baseColorTexture": {
          "index": 2
        },
        "metallicFactor": 0
      }
    },
    {
      "doubleSided": true,
      "pbrMetallicRoughness": {
        "baseColorTexture": {
          "index": 3
        },
        "metallicFactor": 0
      }
    }
  ],
  "meshes": [
    {
      "name": "20525363425277140_0",
      "primitives": [
        {
          "attributes": {
            "POSITION": 0,
            "NORMAL": 1,
            "TEXCOORD_0": 2
          },
          "indices": 3,
          "material": 0
        }
      ]
    },
    {
      "name": "20525363425277141_0",
      "primitives": [
        {
          "attributes": {
            "POSITION": 4,
            "NORMAL": 5,
            "TEXCOORD_0": 6
          },
          "indices": 7,
          "material": 1
        }
      ]
    },
    {
      "name": "20525363425277142_0",
      "primitives": [
        {
          "attributes": {
            "POSITION": 8,
            "NORMAL": 9,
            "TEXCOORD_0": 10
          },
          "indices": 11,
          "material": 2
        }
      ]
    },
    {
      "name": "20525363425277144_0",
      "primitives": [
        {
          "attributes": {
            "POSITION": 12,
            "NORMAL": 13,
            "TEXCOORD_0": 14
          },
          "indices": 15,
          "material": 0
        }
      ]
    },
    {
      "name": "20525363425277145_0",
      "primitives": [
        {
          "attributes": {
            "POSITION": 16,
            "NORMAL": 17,
            "TEXCOORD_0": 18
          },
          "indices": 19,
          "material": 1
        }
      ]
    },
    {
      "name": "20525363425277146_0",
      "primitives": [
        {
          "attributes": {
            "POSITION": 20,
            "NORMAL": 21,
            "TEXCOORD_0": 22
          },
          "indices": 23,
          "material": 2
        }
      ]
    },
    {
      "name": "20525363425277147_0",
      "primitives": [
        {
          "attributes": {
            "POSITION": 24,
            "NORMAL": 25,
            "TEXCOORD_0": 26
          },
          "indices": 27,
          "material": 3
        }
      ]
    }
  ],
  "nodes": [
    {
      "mesh": 0
    },
    {
      "mesh": 1
    },
    {
      "mesh": 2
    },
    {
      "mesh": 3
    },
    {
      "mesh": 4
    },
    {
      "mesh": 5
    },
    {
      "mesh": 6
    }
  ],
  "scene": 0,
  "scenes": [
    {
      "nodes": [
        0,
        1,
        2,
        3,
        4,
        5,
        6
      ]
    }
  ],
  "textures": [
    {
      "source": 0
    },
    {
      "source": 1
    },
    {
      "source": 2
    },
    {
      "source": 3
    }
  ]
}