{
  "asset": {
    "copyright": "",
    "generator": "SharpGLTF 1.0.0",
    "version": "2.0"
  },
  "accessors": [
    {
      "name": "POSITION",
      "bufferView": 0,
      "componentType": 5126,
      "count": 303,
      "max": [
        -570.28582763671875,
        320.96054077148438,
        7.7059311866760254
      ],
      "min": [
        -1091.513671875,
        185.13188171386719,
        -604.13720703125
      ],
      "type": "VEC3"
    },
    {
      "name": "NORMAL",
      "bufferView": 0,
      "byteOffset": 12,
      "componentType": 5126,
      "count": 303,
      "max": [
        0.44938650727272034,
        0.99998503923416138,
        0.25465866923332214
      ],
      "min": [
        -0.05114595964550972,
        0.87816709280014038,
        -0.3615056574344635
      ],
      "type": "VEC3"
    },
    {
      "name": "TEXCOORD_0",
      "bufferView": 0,
      "byteOffset": 24,
      "componentType": 5126,
      "count": 303,
      "max": [
        1.014739990234375,
        1.000244140625
      ],
      "min": [
        -0.000274658203125,
        -0.000244140625
      ],
      "type": "VEC2"
    },
    {
      "bufferView": 1,
      "componentType": 5123,
      "count": 939,
      "type": "SCALAR"
    }
  ],
  "bufferViews": [
    {
      "buffer": 0,
      "byteLength": 9696,
      "byteStride": 32,
      "target": 34962
    },
    {
      "buffer": 0,
      "byteLength": 1878,
      "byteOffset": 9696,
      "target": 34963
    }
  ],
  "buffers": [
    {
      "byteLength": 11576,
      "uri": "2052536342527527_LOD04.bin"
    }
  ],
  "images": [
    {
      "uri": "2052536342527527_LOD04.png"
    }
  ],
  "materials": [
    {
      "doubleSided": true,
      "pbrMetallicRoughness": {
        "baseColorTexture": {
          "index": 0
        },
        "metallicFactor": 0
      }
    }
  ],
  "meshes": [
    {
      "name": "2052536342527527_0",
      "primitives": [
        {
          "attributes": {
            "POSITION": 0,
            "NORMAL": 1,
            "TEXCOORD_0": 2
          },
          "indices": 3,
          "material": 0
        }
      ]
    }
  ],
  "nodes": [
    {
      "mesh": 0
    }
  ],
  "scene": 0,
  "scenes": [
    {
      "nodes": [
        0
      ]
    }
  ],
  "textures": [
    {
      "source": 0
    }
  ]
}