{
  "asset": {
    "copyright": "",
    "generator": "SharpGLTF 1.0.0",
    "version": "2.0"
  },
  "accessors": [
    {
      "name": "POSITION",
      "bufferView": 0,
      "componentType": 5126,
      "count": 405,
      "max": [
        -56.803512573242188,
        698.56231689453125,
        1233.2296142578125
      ],
      "min": [
        -570.59320068359375,
        597.31683349609375,
        658.38427734375
      ],
      "type": "VEC3"
    },
    {
      "name": "NORMAL",
      "bufferView": 0,
      "byteOffset": 12,
      "componentType": 5126,
      "count": 405,
      "max": [
        0.51261377334594727,
        0.99998396635055542,
        0.26526182889938354
      ],
      "min": [
        -0.56002140045166016,
        0.81041038036346436,
        -0.51244509220123291
      ],
      "type": "VEC3"
    },
    {
      "name": "TEXCOORD_0",
      "bufferView": 0,
      "byteOffset": 24,
      "componentType": 5126,
      "count": 405,
      "max": [
        1.000335693359375,
        0.935699462890625
      ],
      "min": [
        -0.000274658203125,
        -0.0042724609375
      ],
      "type": "VEC2"
    },
    {
      "bufferView": 1,
      "componentType": 5123,
      "count": 1236,
      "type": "SCALAR"
    }
  ],
  "bufferViews": [
    {
      "buffer": 0,
      "byteLength": 12960,
      "byteStride": 32,
      "target": 34962
    },
    {
      "buffer": 0,
      "byteLength": 2472,
      "byteOffset": 12960,
      "target": 34963
    }
  ],
  "buffers": [
    {
      "byteLength": 15432,
      "uri": "2052536342526517_LOD00.bin"
    }
  ],
  "images": [
    {
      "uri": "2052536342526517_LOD00.png"
    }
  ],
  "materials": [
    {
      "doubleSided": true,
      "pbrMetallicRoughness": {
        "baseColorTexture": {
          "index": 0
        },
        "metallicFactor": 0
      }
    }
  ],
  "meshes": [
    {
      "name": "2052536342526517_0",
      "primitives": [
        {
          "attributes": {
            "POSITION": 0,
            "NORMAL": 1,
            "TEXCOORD_0": 2
          },
          "indices": 3,
          "material": 0
        }
      ]
    }
  ],
  "nodes": [
    {
      "mesh": 0
    }
  ],
  "scene": 0,
  "scenes": [
    {
      "nodes": [
        0
      ]
    }
  ],
  "textures": [
    {
      "source": 0
    }
  ]
}