{
  "asset": {
    "copyright": "",
    "generator": "SharpGLTF 1.0.0",
    "version": "2.0"
  },
  "accessors": [
    {
      "name": "POSITION",
      "bufferView": 0,
      "componentType": 5126,
      "count": 389,
      "max": [
        -56.811599731445313,
        605.03753662109375,
        621.6552734375
      ],
      "min": [
        -570.5860595703125,
        454.3955078125,
        4.933772087097168
      ],
      "type": "VEC3"
    },
    {
      "name": "NORMAL",
      "bufferView": 0,
      "byteOffset": 12,
      "componentType": 5126,
      "count": 389,
      "max": [
        0.49192681908607483,
        0.99998432397842407,
        0.47018226981163025
      ],
      "min": [
        -0.35875788331031799,
        0.84182590246200562,
        -0.53615760803222656
      ],
      "type": "VEC3"
    },
    {
      "name": "TEXCOORD_0",
      "bufferView": 0,
      "byteOffset": 24,
      "componentType": 5126,
      "count": 389,
      "max": [
        1.00030517578125,
        1.004241943359375
      ],
      "min": [
        -0.000244140625,
        -0.004241943359375
      ],
      "type": "VEC2"
    },
    {
      "bufferView": 1,
      "componentType": 5123,
      "count": 1251,
      "type": "SCALAR"
    }
  ],
  "bufferViews": [
    {
      "buffer": 0,
      "byteLength": 12448,
      "byteStride": 32,
      "target": 34962
    },
    {
      "buffer": 0,
      "byteLength": 2502,
      "byteOffset": 12448,
      "target": 34963
    }
  ],
  "buffers": [
    {
      "byteLength": 14952,
      "uri": "2052536342526511_LOD00.bin"
    }
  ],
  "images": [
    {
      "uri": "2052536342526511_LOD00.png"
    }
  ],
  "materials": [
    {
      "doubleSided": true,
      "pbrMetallicRoughness": {
        "baseColorTexture": {
          "index": 0
        },
        "metallicFactor": 0
      }
    }
  ],
  "meshes": [
    {
      "name": "2052536342526511_0",
      "primitives": [
        {
          "attributes": {
            "POSITION": 0,
            "NORMAL": 1,
            "TEXCOORD_0": 2
          },
          "indices": 3,
          "material": 0
        }
      ]
    }
  ],
  "nodes": [
    {
      "mesh": 0
    }
  ],
  "scene": 0,
  "scenes": [
    {
      "nodes": [
        0
      ]
    }
  ],
  "textures": [
    {
      "source": 0
    }
  ]
}