{
  "asset": {
    "copyright": "",
    "generator": "SharpGLTF 1.0.0",
    "version": "2.0"
  },
  "accessors": [
    {
      "name": "POSITION",
      "bufferView": 0,
      "componentType": 5126,
      "count": 375,
      "max": [
        -567.7674560546875,
        732.9776611328125,
        2456.347900390625
      ],
      "min": [
        -1086.4730224609375,
        601.94976806640625,
        1839.545166015625
      ],
      "type": "VEC3"
    },
    {
      "name": "NORMAL",
      "bufferView": 0,
      "byteOffset": 12,
      "componentType": 5126,
      "count": 375,
      "max": [
        0.51287591457366943,
        0.99896353483200073,
        0.49171337485313416
      ],
      "min": [
        -0.53668802976608276,
        0.80004203319549561,
        -0.29365038871765137
      ],
      "type": "VEC3"
    },
    {
      "name": "TEXCOORD_0",
      "bufferView": 0,
      "byteOffset": 24,
      "componentType": 5126,
      "count": 375,
      "max": [
        1.005126953125,
        1.0042724609375
      ],
      "min": [
        -0.005096435546875,
        -0.0042724609375
      ],
      "type": "VEC2"
    },
    {
      "bufferView": 1,
      "componentType": 5123,
      "count": 1191,
      "type": "SCALAR"
    }
  ],
  "bufferViews": [
    {
      "buffer": 0,
      "byteLength": 12000,
      "byteStride": 32,
      "target": 34962
    },
    {
      "buffer": 0,
      "byteLength": 2382,
      "byteOffset": 12000,
      "target": 34963
    }
  ],
  "buffers": [
    {
      "byteLength": 14384,
      "uri": "2052536342527426_LOD00.bin"
    }
  ],
  "images": [
    {
      "uri": "2052536342527426_LOD00.png"
    }
  ],
  "materials": [
    {
      "doubleSided": true,
      "pbrMetallicRoughness": {
        "baseColorTexture": {
          "index": 0
        },
        "metallicFactor": 0
      }
    }
  ],
  "meshes": [
    {
      "name": "2052536342527426_0",
      "primitives": [
        {
          "attributes": {
            "POSITION": 0,
            "NORMAL": 1,
            "TEXCOORD_0": 2
          },
          "indices": 3,
          "material": 0
        }
      ]
    }
  ],
  "nodes": [
    {
      "mesh": 0
    }
  ],
  "scene": 0,
  "scenes": [
    {
      "nodes": [
        0
      ]
    }
  ],
  "textures": [
    {
      "source": 0
    }
  ]
}