{
  "asset": {
    "copyright": "",
    "generator": "SharpGLTF 1.0.0",
    "version": "2.0"
  },
  "accessors": [
    {
      "name": "POSITION",
      "bufferView": 0,
      "componentType": 5126,
      "count": 139,
      "max": [
        -592.53472900390625,
        604.97821044921875,
        1543.7740478515625
      ],
      "min": [
        -723.4305419921875,
        587.684326171875,
        1223.0771484375
      ],
      "type": "VEC3"
    },
    {
      "name": "NORMAL",
      "bufferView": 0,
      "byteOffset": 12,
      "componentType": 5126,
      "count": 139,
      "max": [
        0.42356643080711365,
        0.99598002433776855,
        0.17646445333957672
      ],
      "min": [
        -0.31334143877029419,
        0.89027470350265503,
        -0.25647434592247009
      ],
      "type": "VEC3"
    },
    {
      "name": "TEXCOORD_0",
      "bufferView": 0,
      "byteOffset": 24,
      "componentType": 5126,
      "count": 139,
      "max": [
        0.298004150390625,
        1.012298583984375
      ],
      "min": [
        0.0430908203125,
        0.487884521484375
      ],
      "type": "VEC2"
    },
    {
      "bufferView": 1,
      "componentType": 5123,
      "count": 390,
      "type": "SCALAR"
    }
  ],
  "bufferViews": [
    {
      "buffer": 0,
      "byteLength": 4448,
      "byteStride": 32,
      "target": 34962
    },
    {
      "buffer": 0,
      "byteLength": 780,
      "byteOffset": 4448,
      "target": 34963
    }
  ],
  "buffers": [
    {
      "byteLength": 5228,
      "uri": "2052536342527420_LOD00.bin"
    }
  ],
  "images": [
    {
      "uri": "2052536342527420_LOD00.png"
    }
  ],
  "materials": [
    {
      "doubleSided": true,
      "pbrMetallicRoughness": {
        "baseColorTexture": {
          "index": 0
        },
        "metallicFactor": 0
      }
    }
  ],
  "meshes": [
    {
      "name": "2052536342527420_0",
      "primitives": [
        {
          "attributes": {
            "POSITION": 0,
            "NORMAL": 1,
            "TEXCOORD_0": 2
          },
          "indices": 3,
          "material": 0
        }
      ]
    }
  ],
  "nodes": [
    {
      "mesh": 0
    }
  ],
  "scene": 0,
  "scenes": [
    {
      "nodes": [
        0
      ]
    }
  ],
  "textures": [
    {
      "source": 0
    }
  ]
}