{
  "asset": {
    "copyright": "",
    "generator": "SharpGLTF 1.0.0",
    "version": "2.0"
  },
  "accessors": [
    {
      "name": "POSITION",
      "bufferView": 0,
      "componentType": 5126,
      "count": 765,
      "max": [
        -565.37786865234375,
        370.32058715820313,
        7.7036714553833008
      ],
      "min": [
        -1084.1136474609375,
        266.63595581054688,
        -606.61602783203125
      ],
      "type": "VEC3"
    },
    {
      "name": "NORMAL",
      "bufferView": 0,
      "byteOffset": 12,
      "componentType": 5126,
      "count": 765,
      "max": [
        0.3764415979385376,
        0.99998503923416138,
        0.27897676825523376
      ],
      "min": [
        -0.3436456024646759,
        0.890144944190979,
        -0.37615960836410522
      ],
      "type": "VEC3"
    },
    {
      "name": "TEXCOORD_0",
      "bufferView": 0,
      "byteOffset": 24,
      "componentType": 5126,
      "count": 765,
      "max": [
        1.000335693359375,
        1.0042724609375
      ],
      "min": [
        -0.009857177734375,
        -0.000244140625
      ],
      "type": "VEC2"
    },
    {
      "bufferView": 1,
      "componentType": 5123,
      "count": 2202,
      "type": "SCALAR"
    }
  ],
  "bufferViews": [
    {
      "buffer": 0,
      "byteLength": 24480,
      "byteStride": 32,
      "target": 34962
    },
    {
      "buffer": 0,
      "byteLength": 4404,
      "byteOffset": 24480,
      "target": 34963
    }
  ],
  "buffers": [
    {
      "byteLength": 28884,
      "uri": "2052536342527714_LOD00.bin"
    }
  ],
  "images": [
    {
      "uri": "2052536342527714_LOD00.png"
    }
  ],
  "materials": [
    {
      "doubleSided": true,
      "pbrMetallicRoughness": {
        "baseColorTexture": {
          "index": 0
        },
        "metallicFactor": 0
      }
    }
  ],
  "meshes": [
    {
      "name": "2052536342527714_0",
      "primitives": [
        {
          "attributes": {
            "POSITION": 0,
            "NORMAL": 1,
            "TEXCOORD_0": 2
          },
          "indices": 3,
          "material": 0
        }
      ]
    }
  ],
  "nodes": [
    {
      "mesh": 0
    }
  ],
  "scene": 0,
  "scenes": [
    {
      "nodes": [
        0
      ]
    }
  ],
  "textures": [
    {
      "source": 0
    }
  ]
}