{
  "asset": {
    "copyright": "",
    "generator": "SharpGLTF 1.0.0",
    "version": "2.0"
  },
  "accessors": [
    {
      "name": "POSITION",
      "bufferView": 0,
      "componentType": 5126,
      "count": 264,
      "max": [
        459.13262939453125,
        313.5404052734375,
        619.25592041015625
      ],
      "min": [
        -57.116481781005859,
        214.7723388671875,
        7.4011383056640625
      ],
      "type": "VEC3"
    },
    {
      "name": "NORMAL",
      "bufferView": 0,
      "byteOffset": 12,
      "componentType": 5126,
      "count": 264,
      "max": [
        0.22816157341003418,
        0.99998408555984497,
        0.16938063502311707
      ],
      "min": [
        -0.51296639442443848,
        0.85839164257049561,
        -0.35842162370681763
      ],
      "type": "VEC3"
    },
    {
      "name": "TEXCOORD_0",
      "bufferView": 0,
      "byteOffset": 24,
      "componentType": 5126,
      "count": 264,
      "max": [
        1.000335693359375,
        1.000244140625
      ],
      "min": [
        -0.00506591796875,
        -0.000244140625
      ],
      "type": "VEC2"
    },
    {
      "bufferView": 1,
      "componentType": 5123,
      "count": 765,
      "type": "SCALAR"
    }
  ],
  "bufferViews": [
    {
      "buffer": 0,
      "byteLength": 8448,
      "byteStride": 32,
      "target": 34962
    },
    {
      "buffer": 0,
      "byteLength": 1530,
      "byteOffset": 8448,
      "target": 34963
    }
  ],
  "buffers": [
    {
      "byteLength": 9980,
      "uri": "2052536342527706_LOD00.bin"
    }
  ],
  "images": [
    {
      "uri": "2052536342527706_LOD00.png"
    }
  ],
  "materials": [
    {
      "doubleSided": true,
      "pbrMetallicRoughness": {
        "baseColorTexture": {
          "index": 0
        },
        "metallicFactor": 0
      }
    }
  ],
  "meshes": [
    {
      "name": "2052536342527706_0",
      "primitives": [
        {
          "attributes": {
            "POSITION": 0,
            "NORMAL": 1,
            "TEXCOORD_0": 2
          },
          "indices": 3,
          "material": 0
        }
      ]
    }
  ],
  "nodes": [
    {
      "mesh": 0
    }
  ],
  "scene": 0,
  "scenes": [
    {
      "nodes": [
        0
      ]
    }
  ],
  "textures": [
    {
      "source": 0
    }
  ]
}