{
  "asset": {
    "copyright": "",
    "generator": "SharpGLTF 1.0.0",
    "version": "2.0"
  },
  "accessors": [
    {
      "name": "POSITION",
      "bufferView": 0,
      "componentType": 5126,
      "count": 307,
      "max": [
        972.67315673828125,
        234.45050048828125,
        7.7685108184814453
      ],
      "min": [
        456.38018798828125,
        172.67082214355469,
        -606.52374267578125
      ],
      "type": "VEC3"
    },
    {
      "name": "NORMAL",
      "bufferView": 0,
      "byteOffset": 12,
      "componentType": 5126,
      "count": 307,
      "max": [
        0.34102714061737061,
        0.99998462200164795,
        0.29140636324882507
      ],
      "min": [
        -0.24845142662525177,
        0.91898065805435181,
        -0.30618026852607727
      ],
      "type": "VEC3"
    },
    {
      "name": "TEXCOORD_0",
      "bufferView": 0,
      "byteOffset": 24,
      "componentType": 5126,
      "count": 307,
      "max": [
        1.000335693359375,
        1.0042724609375
      ],
      "min": [
        -0.00506591796875,
        -0.000244140625
      ],
      "type": "VEC2"
    },
    {
      "bufferView": 1,
      "componentType": 5123,
      "count": 900,
      "type": "SCALAR"
    }
  ],
  "bufferViews": [
    {
      "buffer": 0,
      "byteLength": 9824,
      "byteStride": 32,
      "target": 34962
    },
    {
      "buffer": 0,
      "byteLength": 1800,
      "byteOffset": 9824,
      "target": 34963
    }
  ],
  "buffers": [
    {
      "byteLength": 11624,
      "uri": "2052536342527615_LOD00.bin"
    }
  ],
  "images": [
    {
      "uri": "2052536342527615_LOD00.png"
    }
  ],
  "materials": [
    {
      "doubleSided": true,
      "pbrMetallicRoughness": {
        "baseColorTexture": {
          "index": 0
        },
        "metallicFactor": 0
      }
    }
  ],
  "meshes": [
    {
      "name": "2052536342527615_0",
      "primitives": [
        {
          "attributes": {
            "POSITION": 0,
            "NORMAL": 1,
            "TEXCOORD_0": 2
          },
          "indices": 3,
          "material": 0
        }
      ]
    }
  ],
  "nodes": [
    {
      "mesh": 0
    }
  ],
  "scene": 0,
  "scenes": [
    {
      "nodes": [
        0
      ]
    }
  ],
  "textures": [
    {
      "source": 0
    }
  ]
}