{
  "asset": {
    "copyright": "",
    "generator": "SharpGLTF 1.0.0",
    "version": "2.0"
  },
  "accessors": [
    {
      "name": "POSITION",
      "bufferView": 0,
      "componentType": 5126,
      "count": 583,
      "max": [
        -567.816162109375,
        358.02273559570313,
        619.25592041015625
      ],
      "min": [
        -1084.068359375,
        281.47994995117188,
        4.9474592208862305
      ],
      "type": "VEC3"
    },
    {
      "name": "NORMAL",
      "bufferView": 0,
      "byteOffset": 12,
      "componentType": 5126,
      "count": 583,
      "max": [
        0.36175346374511719,
        0.9999847412109375,
        0.29147070646286011
      ],
      "min": [
        -0.44587156176567078,
        0.81435829401016235,
        -0.51217043399810791
      ],
      "type": "VEC3"
    },
    {
      "name": "TEXCOORD_0",
      "bufferView": 0,
      "byteOffset": 24,
      "componentType": 5126,
      "count": 583,
      "max": [
        1.000335693359375,
        1.004241943359375
      ],
      "min": [
        -0.00506591796875,
        -0.000244140625
      ],
      "type": "VEC2"
    },
    {
      "bufferView": 1,
      "componentType": 5123,
      "count": 1701,
      "type": "SCALAR"
    }
  ],
  "bufferViews": [
    {
      "buffer": 0,
      "byteLength": 18656,
      "byteStride": 32,
      "target": 34962
    },
    {
      "buffer": 0,
      "byteLength": 3402,
      "byteOffset": 18656,
      "target": 34963
    }
  ],
  "buffers": [
    {
      "byteLength": 22060,
      "uri": "2052536342527716_LOD00.bin"
    }
  ],
  "images": [
    {
      "uri": "2052536342527716_LOD00.png"
    }
  ],
  "materials": [
    {
      "doubleSided": true,
      "pbrMetallicRoughness": {
        "baseColorTexture": {
          "index": 0
        },
        "metallicFactor": 0
      }
    }
  ],
  "meshes": [
    {
      "name": "2052536342527716_0",
      "primitives": [
        {
          "attributes": {
            "POSITION": 0,
            "NORMAL": 1,
            "TEXCOORD_0": 2
          },
          "indices": 3,
          "material": 0
        }
      ]
    }
  ],
  "nodes": [
    {
      "mesh": 0
    }
  ],
  "scene": 0,
  "scenes": [
    {
      "nodes": [
        0
      ]
    }
  ],
  "textures": [
    {
      "source": 0
    }
  ]
}