{
  "asset": {
    "copyright": "",
    "generator": "SharpGLTF 1.0.0",
    "version": "2.0"
  },
  "accessors": [
    {
      "name": "POSITION",
      "bufferView": 0,
      "componentType": 5126,
      "count": 340,
      "max": [
        975.2568359375,
        273.8702392578125,
        -603.76666259765625
      ],
      "min": [
        454.01553344726563,
        135.548828125,
        -1218.1142578125
      ],
      "type": "VEC3"
    },
    {
      "name": "NORMAL",
      "bufferView": 0,
      "byteOffset": 12,
      "componentType": 5126,
      "count": 340,
      "max": [
        0.3726842999458313,
        0.9999842643737793,
        0.37192192673683167
      ],
      "min": [
        -0.58224385976791382,
        0.79050004482269287,
        -0.4419233500957489
      ],
      "type": "VEC3"
    },
    {
      "name": "TEXCOORD_0",
      "bufferView": 0,
      "byteOffset": 24,
      "componentType": 5126,
      "count": 340,
      "max": [
        1.005126953125,
        1.0042724609375
      ],
      "min": [
        -0.009857177734375,
        -0.000244140625
      ],
      "type": "VEC2"
    },
    {
      "bufferView": 1,
      "componentType": 5123,
      "count": 1086,
      "type": "SCALAR"
    }
  ],
  "bufferViews": [
    {
      "buffer": 0,
      "byteLength": 10880,
      "byteStride": 32,
      "target": 34962
    },
    {
      "buffer": 0,
      "byteLength": 2172,
      "byteOffset": 10880,
      "target": 34963
    }
  ],
  "buffers": [
    {
      "byteLength": 13052,
      "uri": "2052536342527437_LOD00.bin"
    }
  ],
  "images": [
    {
      "uri": "2052536342527437_LOD00.png"
    }
  ],
  "materials": [
    {
      "doubleSided": true,
      "pbrMetallicRoughness": {
        "baseColorTexture": {
          "index": 0
        },
        "metallicFactor": 0
      }
    }
  ],
  "meshes": [
    {
      "name": "2052536342527437_0",
      "primitives": [
        {
          "attributes": {
            "POSITION": 0,
            "NORMAL": 1,
            "TEXCOORD_0": 2
          },
          "indices": 3,
          "material": 0
        }
      ]
    }
  ],
  "nodes": [
    {
      "mesh": 0
    }
  ],
  "scene": 0,
  "scenes": [
    {
      "nodes": [
        0
      ]
    }
  ],
  "textures": [
    {
      "source": 0
    }
  ]
}